<?xml version="1.0" encoding="UTF-8" standalone="no"?>
<!DOCTYPE svg PUBLIC "-//W3C//DTD SVG 1.1//EN"
 "http://www.w3.org/Graphics/SVG/1.1/DTD/svg11.dtd">
<!-- Generated by graphviz version 2.40.1 (20161225.0304)
 -->
<!-- Title: public.rooms Pages: 1 -->
<svg width="1204pt" height="502pt"
 viewBox="0.00 0.00 1204.00 502.00" xmlns="http://www.w3.org/2000/svg" xmlns:xlink="http://www.w3.org/1999/xlink">
<g id="graph0" class="graph" transform="scale(1 1) rotate(0) translate(4 498)">
<title>public.rooms</title>
<polygon fill="#ffffff" stroke="transparent" points="-4,4 -4,-498 1200,-498 1200,4 -4,4"/>
<!-- public.rooms -->
<g id="node1" class="node">
<title>public.rooms</title>
<polygon fill="#efefef" stroke="transparent" points="440,-135.5 440,-170.5 693,-170.5 693,-135.5 440,-135.5"/>
<polygon fill="none" stroke="#000000" points="440,-135.5 440,-170.5 693,-170.5 693,-135.5 440,-135.5"/>
<text text-anchor="start" x="466.8701" y="-148.3" font-family="Arial Bold" font-size="18.00" fill="#000000">public.rooms</text>
<text text-anchor="start" x="568.8761" y="-148.3" font-family="Arial" font-size="14.00" fill="#000000"> </text>
<text text-anchor="start" x="572.7667" y="-148.3" font-family="Arial" font-size="14.00" fill="#666666">[BASE TABLE]</text>
<polygon fill="none" stroke="#000000" points="440,-105.5 440,-135.5 693,-135.5 693,-105.5 440,-105.5"/>
<text text-anchor="start" x="447" y="-116.9" font-family="Arial" font-size="14.00" fill="#000000">id </text>
<text text-anchor="start" x="461.7798" y="-116.9" font-family="Arial" font-size="14.00" fill="#666666">[varchar]</text>
<polygon fill="none" stroke="#000000" points="440,-75.5 440,-105.5 693,-105.5 693,-75.5 440,-75.5"/>
<text text-anchor="start" x="447" y="-86.9" font-family="Arial" font-size="14.00" fill="#000000">created_at </text>
<text text-anchor="start" x="517.028" y="-86.9" font-family="Arial" font-size="14.00" fill="#666666">[timestamp with time zone]</text>
<polygon fill="none" stroke="#000000" points="440,-45.5 440,-75.5 693,-75.5 693,-45.5 440,-45.5"/>
<text text-anchor="start" x="446.6915" y="-56.9" font-family="Arial" font-size="14.00" fill="#000000">updated_at </text>
<text text-anchor="start" x="520.6241" y="-56.9" font-family="Arial" font-size="14.00" fill="#666666">[timestamp with time zone]</text>
<polygon fill="none" stroke="#000000" stroke-width="3" points="438,-44.5 438,-172.5 694,-172.5 694,-44.5 438,-44.5"/>
</g>
<!-- public.messages -->
<g id="node2" class="node">
<title>public.messages</title>
<polygon fill="#efefef" stroke="transparent" points="109,-415.5 109,-450.5 354,-450.5 354,-415.5 109,-415.5"/>
<polygon fill="none" stroke="#000000" points="109,-415.5 109,-450.5 354,-450.5 354,-415.5 109,-415.5"/>
<text text-anchor="start" x="115.86" y="-428.3" font-family="Arial Bold" font-size="18.00" fill="#000000">public.messages</text>
<text text-anchor="start" x="249.8862" y="-428.3" font-family="Arial" font-size="14.00" fill="#000000"> </text>
<text text-anchor="start" x="253.7768" y="-428.3" font-family="Arial" font-size="14.00" fill="#666666">[BASE TABLE]</text>
<polygon fill="none" stroke="#000000" points="109,-385.5 109,-415.5 354,-415.5 354,-385.5 109,-385.5"/>
<text text-anchor="start" x="116" y="-396.9" font-family="Arial" font-size="14.00" fill="#000000">id </text>
<text text-anchor="start" x="130.7798" y="-396.9" font-family="Arial" font-size="14.00" fill="#666666">[varchar]</text>
<polygon fill="none" stroke="#000000" points="109,-355.5 109,-385.5 354,-385.5 354,-355.5 109,-355.5"/>
<text text-anchor="start" x="116" y="-366.9" font-family="Arial" font-size="14.00" fill="#000000">content </text>
<text text-anchor="start" x="165.8022" y="-366.9" font-family="Arial" font-size="14.00" fill="#666666">[varchar(1000)]</text>
<polygon fill="none" stroke="#000000" points="109,-325.5 109,-355.5 354,-355.5 354,-325.5 109,-325.5"/>
<text text-anchor="start" x="116" y="-336.9" font-family="Arial" font-size="14.00" fill="#000000">room_id </text>
<text text-anchor="start" x="170.4488" y="-336.9" font-family="Arial" font-size="14.00" fill="#666666">[varchar]</text>
<polygon fill="none" stroke="#000000" points="109,-295.5 109,-325.5 354,-325.5 354,-295.5 109,-295.5"/>
<text text-anchor="start" x="116" y="-306.9" font-family="Arial" font-size="14.00" fill="#000000">user_id </text>
<text text-anchor="start" x="165.7882" y="-306.9" font-family="Arial" font-size="14.00" fill="#666666">[varchar]</text>
</g>
<!-- public.messages&#45;&gt;public.rooms -->
<g id="edge1" class="edge">
<title>public.messages:room_id&#45;&gt;public.rooms:id</title>
<path fill="none" stroke="#000000" d="M363.9807,-339.7465C450.7762,-325.718 338.6053,-120.5 440,-120.5"/>
<polygon fill="#000000" stroke="#000000" points="363.9716,-339.7471 353.6612,-336.0128 358.9858,-340.1236 354,-340.5 354,-340.5 354,-340.5 358.9858,-340.1236 354.3388,-344.9872 363.9716,-339.7471 363.9716,-339.7471"/>
<text text-anchor="start" x="6.7245" y="-350.5" font-family="Arial" font-size="10.00" fill="#000000">FOREIGN KEY (room_id) REFERENCES rooms(id) ON DELETE CASCADE</text>
</g>
<!-- public.entries -->
<g id="node3" class="node">
<title>public.entries</title>
<polygon fill="#efefef" stroke="transparent" points="458,-400.5 458,-435.5 675,-435.5 675,-400.5 458,-400.5"/>
<polygon fill="none" stroke="#000000" points="458,-400.5 458,-435.5 675,-435.5 675,-400.5 458,-400.5"/>
<text text-anchor="start" x="464.8649" y="-413.3" font-family="Arial Bold" font-size="18.00" fill="#000000">public.entries</text>
<text text-anchor="start" x="570.8813" y="-413.3" font-family="Arial" font-size="14.00" fill="#000000"> </text>
<text text-anchor="start" x="574.7719" y="-413.3" font-family="Arial" font-size="14.00" fill="#666666">[BASE TABLE]</text>
<polygon fill="none" stroke="#000000" points="458,-370.5 458,-400.5 675,-400.5 675,-370.5 458,-370.5"/>
<text text-anchor="start" x="465" y="-381.9" font-family="Arial" font-size="14.00" fill="#000000">id </text>
<text text-anchor="start" x="479.7798" y="-381.9" font-family="Arial" font-size="14.00" fill="#666666">[varchar]</text>
<polygon fill="none" stroke="#000000" points="458,-340.5 458,-370.5 675,-370.5 675,-340.5 458,-340.5"/>
<text text-anchor="start" x="465" y="-351.9" font-family="Arial" font-size="14.00" fill="#000000">room_id </text>
<text text-anchor="start" x="519.4488" y="-351.9" font-family="Arial" font-size="14.00" fill="#666666">[varchar]</text>
<polygon fill="none" stroke="#000000" points="458,-310.5 458,-340.5 675,-340.5 675,-310.5 458,-310.5"/>
<text text-anchor="start" x="465" y="-321.9" font-family="Arial" font-size="14.00" fill="#000000">user_id </text>
<text text-anchor="start" x="514.7882" y="-321.9" font-family="Arial" font-size="14.00" fill="#666666">[varchar]</text>
</g>
<!-- public.entries&#45;&gt;public.rooms -->
<g id="edge2" class="edge">
<title>public.entries:room_id&#45;&gt;public.rooms:id</title>
<path fill="none" stroke="#000000" d="M448.3108,-352.6971C403.5969,-326.1833 391.0006,-120.5 440,-120.5"/>
<polygon fill="#000000" stroke="#000000" points="448.3939,-352.7211 456.7495,-359.8228 453.1969,-354.1105 458,-355.5 458,-355.5 458,-355.5 453.1969,-354.1105 459.2505,-351.1772 448.3939,-352.7211 448.3939,-352.7211"/>
<text text-anchor="start" x="464.7245" y="-365.5" font-family="Arial" font-size="10.00" fill="#000000">FOREIGN KEY (room_id) REFERENCES rooms(id) ON DELETE CASCADE</text>
</g>
<!-- public.room_read_managements -->
<g id="node4" class="node">
<title>public.room_read_managements</title>
<polygon fill="#efefef" stroke="transparent" points="779,-415.5 779,-450.5 1153,-450.5 1153,-415.5 779,-415.5"/>
<polygon fill="none" stroke="#000000" points="779,-415.5 779,-450.5 1153,-450.5 1153,-415.5 779,-415.5"/>
<text text-anchor="start" x="785.8435" y="-428.3" font-family="Arial Bold" font-size="18.00" fill="#000000">public.room_read_managements</text>
<text text-anchor="start" x="1048.9027" y="-428.3" font-family="Arial" font-size="14.00" fill="#000000"> </text>
<text text-anchor="start" x="1052.7933" y="-428.3" font-family="Arial" font-size="14.00" fill="#666666">[BASE TABLE]</text>
<polygon fill="none" stroke="#000000" points="779,-385.5 779,-415.5 1153,-415.5 1153,-385.5 779,-385.5"/>
<text text-anchor="start" x="786" y="-396.9" font-family="Arial" font-size="14.00" fill="#000000">id </text>
<text text-anchor="start" x="800.7798" y="-396.9" font-family="Arial" font-size="14.00" fill="#666666">[varchar]</text>
<polygon fill="none" stroke="#000000" points="779,-355.5 779,-385.5 1153,-385.5 1153,-355.5 779,-355.5"/>
<text text-anchor="start" x="786" y="-366.9" font-family="Arial" font-size="14.00" fill="#000000">last_read_at </text>
<text text-anchor="start" x="866.9172" y="-366.9" font-family="Arial" font-size="14.00" fill="#666666">[timestamp with time zone]</text>
<polygon fill="none" stroke="#000000" points="779,-325.5 779,-355.5 1153,-355.5 1153,-325.5 779,-325.5"/>
<text text-anchor="start" x="786" y="-336.9" font-family="Arial" font-size="14.00" fill="#000000">room_id </text>
<text text-anchor="start" x="840.4488" y="-336.9" font-family="Arial" font-size="14.00" fill="#666666">[varchar]</text>
<polygon fill="none" stroke="#000000" points="779,-295.5 779,-325.5 1153,-325.5 1153,-295.5 779,-295.5"/>
<text text-anchor="start" x="786" y="-306.9" font-family="Arial" font-size="14.00" fill="#000000">user_id </text>
<text text-anchor="start" x="835.7882" y="-306.9" font-family="Arial" font-size="14.00" fill="#666666">[varchar]</text>
</g>
<!-- public.room_read_managements&#45;&gt;public.rooms -->
<g id="edge3" class="edge">
<title>public.room_read_managements:room_id&#45;&gt;public.rooms:id</title>
<path fill="none" stroke="#000000" d="M769.0193,-339.7465C682.2238,-325.718 794.3947,-120.5 693,-120.5"/>
<polygon fill="#000000" stroke="#000000" points="769.0284,-339.7471 778.6612,-344.9872 774.0142,-340.1236 779,-340.5 779,-340.5 779,-340.5 774.0142,-340.1236 779.3388,-336.0128 769.0284,-339.7471 769.0284,-339.7471"/>
<text text-anchor="start" x="785.7245" y="-324.5" font-family="Arial" font-size="10.00" fill="#000000">FOREIGN KEY (room_id) REFERENCES rooms(id) ON DELETE CASCADE</text>
</g>
</g>
</svg>
