<?xml version="1.0" encoding="UTF-8" standalone="no"?>
<!DOCTYPE svg PUBLIC "-//W3C//DTD SVG 1.1//EN"
 "http://www.w3.org/Graphics/SVG/1.1/DTD/svg11.dtd">
<!-- Generated by graphviz version 2.40.1 (20161225.0304)
 -->
<!-- Title: public.rooms Pages: 1 -->
<svg width="1204pt" height="532pt"
 viewBox="0.00 0.00 1204.00 532.00" xmlns="http://www.w3.org/2000/svg" xmlns:xlink="http://www.w3.org/1999/xlink">
<g id="graph0" class="graph" transform="scale(1 1) rotate(0) translate(4 528)">
<title>public.rooms</title>
<polygon fill="#ffffff" stroke="transparent" points="-4,4 -4,-528 1200,-528 1200,4 -4,4"/>
<!-- public.rooms -->
<g id="node1" class="node">
<title>public.rooms</title>
<polygon fill="#efefef" stroke="transparent" points="440,-135.5 440,-170.5 693,-170.5 693,-135.5 440,-135.5"/>
<polygon fill="none" stroke="#000000" points="440,-135.5 440,-170.5 693,-170.5 693,-135.5 440,-135.5"/>
<text text-anchor="start" x="466.8701" y="-148.3" font-family="Arial Bold" font-size="18.00" fill="#000000">public.rooms</text>
<text text-anchor="start" x="568.8761" y="-148.3" font-family="Arial" font-size="14.00" fill="#000000"> </text>
<text text-anchor="start" x="572.7667" y="-148.3" font-family="Arial" font-size="14.00" fill="#666666">[BASE TABLE]</text>
<polygon fill="none" stroke="#000000" points="440,-105.5 440,-135.5 693,-135.5 693,-105.5 440,-105.5"/>
<text text-anchor="start" x="447" y="-116.9" font-family="Arial" font-size="14.00" fill="#000000">id </text>
<text text-anchor="start" x="461.7798" y="-116.9" font-family="Arial" font-size="14.00" fill="#666666">[varchar]</text>
<polygon fill="none" stroke="#000000" points="440,-75.5 440,-105.5 693,-105.5 693,-75.5 440,-75.5"/>
<text text-anchor="start" x="447" y="-86.9" font-family="Arial" font-size="14.00" fill="#000000">created_at </text>
<text text-anchor="start" x="517.028" y="-86.9" font-family="Arial" font-size="14.00" fill="#666666">[timestamp with time zone]</text>
<polygon fill="none" stroke="#000000" points="440,-45.5 440,-75.5 693,-75.5 693,-45.5 440,-45.5"/>
<text text-anchor="start" x="446.6915" y="-56.9" font-family="Arial" font-size="14.00" fill="#000000">updated_at </text>
<text text-anchor="start" x="520.6241" y="-56.9" font-family="Arial" font-size="14.00" fill="#666666">[timestamp with time zone]</text>
<polygon fill="none" stroke="#000000" stroke-width="3" points="438,-44.5 438,-172.5 694,-172.5 694,-44.5 438,-44.5"/>
</g>
<!-- public.messages -->
<g id="node2" class="node">
<title>public.messages</title>
<polygon fill="#efefef" stroke="transparent" points="109,-445.5 109,-480.5 354,-480.5 354,-445.5 109,-445.5"/>
<polygon fill="none" stroke="#000000" points="109,-445.5 109,-480.5 354,-480.5 354,-445.5 109,-445.5"/>
<text text-anchor="start" x="115.86" y="-458.3" font-family="Arial Bold" font-size="18.00" fill="#000000">public.messages</text>
<text text-anchor="start" x="249.8862" y="-458.3" font-family="Arial" font-size="14.00" fill="#000000"> </text>
<text text-anchor="start" x="253.7768" y="-458.3" font-family="Arial" font-size="14.00" fill="#666666">[BASE TABLE]</text>
<polygon fill="none" stroke="#000000" points="109,-415.5 109,-445.5 354,-445.5 354,-415.5 109,-415.5"/>
<text text-anchor="start" x="116" y="-426.9" font-family="Arial" font-size="14.00" fill="#000000">id </text>
<text text-anchor="start" x="130.7798" y="-426.9" font-family="Arial" font-size="14.00" fill="#666666">[varchar]</text>
<polygon fill="none" stroke="#000000" points="109,-385.5 109,-415.5 354,-415.5 354,-385.5 109,-385.5"/>
<text text-anchor="start" x="116" y="-396.9" font-family="Arial" font-size="14.00" fill="#000000">content </text>
<text text-anchor="start" x="165.8022" y="-396.9" font-family="Arial" font-size="14.00" fill="#666666">[varchar(1000)]</text>
<polygon fill="none" stroke="#000000" points="109,-355.5 109,-385.5 354,-385.5 354,-355.5 109,-355.5"/>
<text text-anchor="start" x="116" y="-366.9" font-family="Arial" font-size="14.00" fill="#000000">room_id </text>
<text text-anchor="start" x="170.4488" y="-366.9" font-family="Arial" font-size="14.00" fill="#666666">[varchar]</text>
<polygon fill="none" stroke="#000000" points="109,-325.5 109,-355.5 354,-355.5 354,-325.5 109,-325.5"/>
<text text-anchor="start" x="116" y="-336.9" font-family="Arial" font-size="14.00" fill="#000000">user_id </text>
<text text-anchor="start" x="165.7882" y="-336.9" font-family="Arial" font-size="14.00" fill="#666666">[varchar]</text>
<polygon fill="none" stroke="#000000" points="109,-295.5 109,-325.5 354,-325.5 354,-295.5 109,-295.5"/>
<text text-anchor="start" x="116" y="-306.9" font-family="Arial" font-size="14.00" fill="#000000">applicant_id </text>
<text text-anchor="start" x="194.5792" y="-306.9" font-family="Arial" font-size="14.00" fill="#666666">[varchar]</text>
</g>
<!-- public.messages&#45;&gt;public.rooms -->
<g id="edge1" class="edge">
<title>public.messages:room_id&#45;&gt;public.rooms:id</title>
<path fill="none" stroke="#000000" d="M364.2513,-369.7828C462.4491,-355.1191 326.1704,-120.5 440,-120.5"/>
<polygon fill="#000000" stroke="#000000" points="363.9756,-369.802 353.6859,-366.011 358.9878,-370.151 354,-370.5 354,-370.5 354,-370.5 358.9878,-370.151 354.3141,-374.989 363.9756,-369.802 363.9756,-369.802"/>
<text text-anchor="start" x="6.7245" y="-380.5" font-family="Arial" font-size="10.00" fill="#000000">FOREIGN KEY (room_id) REFERENCES rooms(id) ON DELETE CASCADE</text>
</g>
<!-- public.entries -->
<g id="node3" class="node">
<title>public.entries</title>
<polygon fill="#efefef" stroke="transparent" points="458,-415.5 458,-450.5 675,-450.5 675,-415.5 458,-415.5"/>
<polygon fill="none" stroke="#000000" points="458,-415.5 458,-450.5 675,-450.5 675,-415.5 458,-415.5"/>
<text text-anchor="start" x="464.8649" y="-428.3" font-family="Arial Bold" font-size="18.00" fill="#000000">public.entries</text>
<text text-anchor="start" x="570.8813" y="-428.3" font-family="Arial" font-size="14.00" fill="#000000"> </text>
<text text-anchor="start" x="574.7719" y="-428.3" font-family="Arial" font-size="14.00" fill="#666666">[BASE TABLE]</text>
<polygon fill="none" stroke="#000000" points="458,-385.5 458,-415.5 675,-415.5 675,-385.5 458,-385.5"/>
<text text-anchor="start" x="465" y="-396.9" font-family="Arial" font-size="14.00" fill="#000000">id </text>
<text text-anchor="start" x="479.7798" y="-396.9" font-family="Arial" font-size="14.00" fill="#666666">[varchar]</text>
<polygon fill="none" stroke="#000000" points="458,-355.5 458,-385.5 675,-385.5 675,-355.5 458,-355.5"/>
<text text-anchor="start" x="465" y="-366.9" font-family="Arial" font-size="14.00" fill="#000000">room_id </text>
<text text-anchor="start" x="519.4488" y="-366.9" font-family="Arial" font-size="14.00" fill="#666666">[varchar]</text>
<polygon fill="none" stroke="#000000" points="458,-325.5 458,-355.5 675,-355.5 675,-325.5 458,-325.5"/>
<text text-anchor="start" x="465" y="-336.9" font-family="Arial" font-size="14.00" fill="#000000">user_id </text>
<text text-anchor="start" x="514.7882" y="-336.9" font-family="Arial" font-size="14.00" fill="#666666">[varchar]</text>
</g>
<!-- public.entries&#45;&gt;public.rooms -->
<g id="edge2" class="edge">
<title>public.entries:room_id&#45;&gt;public.rooms:id</title>
<path fill="none" stroke="#000000" d="M448.3053,-367.8615C400.3911,-341.143 387.6731,-120.5 440,-120.5"/>
<polygon fill="#000000" stroke="#000000" points="448.351,-367.8739 456.8182,-374.8421 453.1755,-369.1869 458,-370.5 458,-370.5 458,-370.5 453.1755,-369.1869 459.1818,-366.1579 448.351,-367.8739 448.351,-367.8739"/>
<text text-anchor="start" x="199.2245" y="-354.5" font-family="Arial" font-size="10.00" fill="#000000">FOREIGN KEY (room_id) REFERENCES rooms(id) ON DELETE CASCADE</text>
</g>
<!-- public.room_read_managements -->
<g id="node4" class="node">
<title>public.room_read_managements</title>
<polygon fill="#efefef" stroke="transparent" points="779,-430.5 779,-465.5 1153,-465.5 1153,-430.5 779,-430.5"/>
<polygon fill="none" stroke="#000000" points="779,-430.5 779,-465.5 1153,-465.5 1153,-430.5 779,-430.5"/>
<text text-anchor="start" x="785.8435" y="-443.3" font-family="Arial Bold" font-size="18.00" fill="#000000">public.room_read_managements</text>
<text text-anchor="start" x="1048.9027" y="-443.3" font-family="Arial" font-size="14.00" fill="#000000"> </text>
<text text-anchor="start" x="1052.7933" y="-443.3" font-family="Arial" font-size="14.00" fill="#666666">[BASE TABLE]</text>
<polygon fill="none" stroke="#000000" points="779,-400.5 779,-430.5 1153,-430.5 1153,-400.5 779,-400.5"/>
<text text-anchor="start" x="786" y="-411.9" font-family="Arial" font-size="14.00" fill="#000000">id </text>
<text text-anchor="start" x="800.7798" y="-411.9" font-family="Arial" font-size="14.00" fill="#666666">[varchar]</text>
<polygon fill="none" stroke="#000000" points="779,-370.5 779,-400.5 1153,-400.5 1153,-370.5 779,-370.5"/>
<text text-anchor="start" x="786" y="-381.9" font-family="Arial" font-size="14.00" fill="#000000">last_read_at </text>
<text text-anchor="start" x="866.9172" y="-381.9" font-family="Arial" font-size="14.00" fill="#666666">[timestamp with time zone]</text>
<polygon fill="none" stroke="#000000" points="779,-340.5 779,-370.5 1153,-370.5 1153,-340.5 779,-340.5"/>
<text text-anchor="start" x="786" y="-351.9" font-family="Arial" font-size="14.00" fill="#000000">room_id </text>
<text text-anchor="start" x="840.4488" y="-351.9" font-family="Arial" font-size="14.00" fill="#666666">[varchar]</text>
<polygon fill="none" stroke="#000000" points="779,-310.5 779,-340.5 1153,-340.5 1153,-310.5 779,-310.5"/>
<text text-anchor="start" x="786" y="-321.9" font-family="Arial" font-size="14.00" fill="#000000">user_id </text>
<text text-anchor="start" x="835.7882" y="-321.9" font-family="Arial" font-size="14.00" fill="#666666">[varchar]</text>
</g>
<!-- public.room_read_managements&#45;&gt;public.rooms -->
<g id="edge3" class="edge">
<title>public.room_read_managements:room_id&#45;&gt;public.rooms:id</title>
<path fill="none" stroke="#000000" d="M769.0025,-354.7836C676.318,-340.5976 800.6344,-120.5 693,-120.5"/>
<polygon fill="#000000" stroke="#000000" points="769.0256,-354.7851 778.6783,-359.9885 774.0128,-355.1426 779,-355.5 779,-355.5 779,-355.5 774.0128,-355.1426 779.3217,-351.0115 769.0256,-354.7851 769.0256,-354.7851"/>
<text text-anchor="start" x="785.7245" y="-365.5" font-family="Arial" font-size="10.00" fill="#000000">FOREIGN KEY (room_id) REFERENCES rooms(id) ON DELETE CASCADE</text>
</g>
</g>
</svg>
