<?xml version="1.0" encoding="UTF-8" standalone="no"?>
<!DOCTYPE svg PUBLIC "-//W3C//DTD SVG 1.1//EN"
 "http://www.w3.org/Graphics/SVG/1.1/DTD/svg11.dtd">
<!-- Generated by graphviz version 2.40.1 (20161225.0304)
 -->
<!-- Title: public.room_read_managements Pages: 1 -->
<svg width="1083pt" height="952pt"
 viewBox="0.00 0.00 1083.00 952.00" xmlns="http://www.w3.org/2000/svg" xmlns:xlink="http://www.w3.org/1999/xlink">
<g id="graph0" class="graph" transform="scale(1 1) rotate(0) translate(4 948)">
<title>public.room_read_managements</title>
<polygon fill="#ffffff" stroke="transparent" points="-4,4 -4,-948 1079,-948 1079,4 -4,4"/>
<!-- public.room_read_managements -->
<g id="node1" class="node">
<title>public.room_read_managements</title>
<polygon fill="#efefef" stroke="transparent" points="354,-862.5 354,-897.5 728,-897.5 728,-862.5 354,-862.5"/>
<polygon fill="none" stroke="#000000" points="354,-862.5 354,-897.5 728,-897.5 728,-862.5 354,-862.5"/>
<text text-anchor="start" x="360.8435" y="-875.3" font-family="Arial Bold" font-size="18.00" fill="#000000">public.room_read_managements</text>
<text text-anchor="start" x="623.9027" y="-875.3" font-family="Arial" font-size="14.00" fill="#000000"> </text>
<text text-anchor="start" x="627.7933" y="-875.3" font-family="Arial" font-size="14.00" fill="#666666">[BASE TABLE]</text>
<polygon fill="none" stroke="#000000" points="354,-832.5 354,-862.5 728,-862.5 728,-832.5 354,-832.5"/>
<text text-anchor="start" x="361" y="-843.9" font-family="Arial" font-size="14.00" fill="#000000">id </text>
<text text-anchor="start" x="375.7798" y="-843.9" font-family="Arial" font-size="14.00" fill="#666666">[bigint]</text>
<polygon fill="none" stroke="#000000" points="354,-802.5 354,-832.5 728,-832.5 728,-802.5 354,-802.5"/>
<text text-anchor="start" x="361" y="-813.9" font-family="Arial" font-size="14.00" fill="#000000">last_read_at </text>
<text text-anchor="start" x="441.9172" y="-813.9" font-family="Arial" font-size="14.00" fill="#666666">[timestamp with time zone]</text>
<polygon fill="none" stroke="#000000" points="354,-772.5 354,-802.5 728,-802.5 728,-772.5 354,-772.5"/>
<text text-anchor="start" x="361" y="-783.9" font-family="Arial" font-size="14.00" fill="#000000">room_id </text>
<text text-anchor="start" x="415.4488" y="-783.9" font-family="Arial" font-size="14.00" fill="#666666">[bigint]</text>
<polygon fill="none" stroke="#000000" points="354,-742.5 354,-772.5 728,-772.5 728,-742.5 354,-742.5"/>
<text text-anchor="start" x="361" y="-753.9" font-family="Arial" font-size="14.00" fill="#000000">user_id </text>
<text text-anchor="start" x="410.7882" y="-753.9" font-family="Arial" font-size="14.00" fill="#666666">[bigint]</text>
<polygon fill="none" stroke="#000000" points="354,-712.5 354,-742.5 728,-742.5 728,-712.5 354,-712.5"/>
<text text-anchor="start" x="361" y="-723.9" font-family="Arial" font-size="14.00" fill="#000000">created_at </text>
<text text-anchor="start" x="431.028" y="-723.9" font-family="Arial" font-size="14.00" fill="#666666">[timestamp with time zone]</text>
<polygon fill="none" stroke="#000000" points="354,-682.5 354,-712.5 728,-712.5 728,-682.5 354,-682.5"/>
<text text-anchor="start" x="361" y="-693.9" font-family="Arial" font-size="14.00" fill="#000000">updated_at </text>
<text text-anchor="start" x="434.9326" y="-693.9" font-family="Arial" font-size="14.00" fill="#666666">[timestamp with time zone]</text>
<polygon fill="none" stroke="#000000" stroke-width="3" points="352.5,-681.5 352.5,-899.5 729.5,-899.5 729.5,-681.5 352.5,-681.5"/>
</g>
<!-- public.rooms -->
<g id="node2" class="node">
<title>public.rooms</title>
<polygon fill="#efefef" stroke="transparent" points="199,-327.5 199,-362.5 452,-362.5 452,-327.5 199,-327.5"/>
<polygon fill="none" stroke="#000000" points="199,-327.5 199,-362.5 452,-362.5 452,-327.5 199,-327.5"/>
<text text-anchor="start" x="225.8701" y="-340.3" font-family="Arial Bold" font-size="18.00" fill="#000000">public.rooms</text>
<text text-anchor="start" x="327.8761" y="-340.3" font-family="Arial" font-size="14.00" fill="#000000"> </text>
<text text-anchor="start" x="331.7667" y="-340.3" font-family="Arial" font-size="14.00" fill="#666666">[BASE TABLE]</text>
<polygon fill="none" stroke="#000000" points="199,-297.5 199,-327.5 452,-327.5 452,-297.5 199,-297.5"/>
<text text-anchor="start" x="206" y="-308.9" font-family="Arial" font-size="14.00" fill="#000000">id </text>
<text text-anchor="start" x="220.7798" y="-308.9" font-family="Arial" font-size="14.00" fill="#666666">[bigint]</text>
<polygon fill="none" stroke="#000000" points="199,-267.5 199,-297.5 452,-297.5 452,-267.5 199,-267.5"/>
<text text-anchor="start" x="206" y="-278.9" font-family="Arial" font-size="14.00" fill="#000000">created_at </text>
<text text-anchor="start" x="276.028" y="-278.9" font-family="Arial" font-size="14.00" fill="#666666">[timestamp with time zone]</text>
<polygon fill="none" stroke="#000000" points="199,-237.5 199,-267.5 452,-267.5 452,-237.5 199,-237.5"/>
<text text-anchor="start" x="205.6915" y="-248.9" font-family="Arial" font-size="14.00" fill="#000000">updated_at </text>
<text text-anchor="start" x="279.6241" y="-248.9" font-family="Arial" font-size="14.00" fill="#666666">[timestamp with time zone]</text>
</g>
<!-- public.room_read_managements&#45;&gt;public.rooms -->
<g id="edge1" class="edge">
<title>public.room_read_managements:room_id&#45;&gt;public.rooms:id</title>
<path fill="none" stroke="#000000" d="M343.7642,-786.7013C293.0494,-777.9387 341.4259,-698.8347 354,-637 376.2235,-527.713 429.7765,-515.287 452,-406 460.2808,-365.2779 493.5556,-312.5 452,-312.5"/>
<polygon fill="#000000" stroke="#000000" points="344.0303,-786.722 353.6499,-791.9864 349.0152,-787.111 354,-787.5 354,-787.5 354,-787.5 349.0152,-787.111 354.3501,-783.0136 344.0303,-786.722 344.0303,-786.722"/>
<text text-anchor="start" x="6.7245" y="-797.5" font-family="Arial" font-size="10.00" fill="#000000">FOREIGN KEY (room_id) REFERENCES rooms(id) ON DELETE CASCADE</text>
</g>
<!-- public.users -->
<g id="node3" class="node">
<title>public.users</title>
<polygon fill="#efefef" stroke="transparent" points="556,-522.5 556,-557.5 958,-557.5 958,-522.5 556,-522.5"/>
<polygon fill="none" stroke="#000000" points="556,-522.5 556,-557.5 958,-557.5 958,-522.5 556,-522.5"/>
<text text-anchor="start" x="660.3662" y="-535.3" font-family="Arial Bold" font-size="18.00" fill="#000000">public.users</text>
<text text-anchor="start" x="756.38" y="-535.3" font-family="Arial" font-size="14.00" fill="#000000"> </text>
<text text-anchor="start" x="760.2706" y="-535.3" font-family="Arial" font-size="14.00" fill="#666666">[BASE TABLE]</text>
<polygon fill="none" stroke="#000000" points="556,-492.5 556,-522.5 958,-522.5 958,-492.5 556,-492.5"/>
<text text-anchor="start" x="563" y="-503.9" font-family="Arial" font-size="14.00" fill="#000000">id </text>
<text text-anchor="start" x="577.7798" y="-503.9" font-family="Arial" font-size="14.00" fill="#666666">[bigint]</text>
<polygon fill="none" stroke="#000000" points="556,-462.5 556,-492.5 958,-492.5 958,-462.5 556,-462.5"/>
<text text-anchor="start" x="563" y="-473.9" font-family="Arial" font-size="14.00" fill="#000000">name </text>
<text text-anchor="start" x="601.899" y="-473.9" font-family="Arial" font-size="14.00" fill="#666666">[varchar(50)]</text>
<polygon fill="none" stroke="#000000" points="556,-432.5 556,-462.5 958,-462.5 958,-432.5 556,-432.5"/>
<text text-anchor="start" x="563" y="-443.9" font-family="Arial" font-size="14.00" fill="#000000">email </text>
<text text-anchor="start" x="600.3296" y="-443.9" font-family="Arial" font-size="14.00" fill="#666666">[varchar(100)]</text>
<polygon fill="none" stroke="#000000" points="556,-402.5 556,-432.5 958,-432.5 958,-402.5 556,-402.5"/>
<text text-anchor="start" x="563" y="-413.9" font-family="Arial" font-size="14.00" fill="#000000">role </text>
<text text-anchor="start" x="590.223" y="-413.9" font-family="Arial" font-size="14.00" fill="#666666">[user_role]</text>
<polygon fill="none" stroke="#000000" points="556,-372.5 556,-402.5 958,-402.5 958,-372.5 556,-372.5"/>
<text text-anchor="start" x="563" y="-383.9" font-family="Arial" font-size="14.00" fill="#000000">avatar </text>
<text text-anchor="start" x="605.7896" y="-383.9" font-family="Arial" font-size="14.00" fill="#666666">[varchar]</text>
<polygon fill="none" stroke="#000000" points="556,-342.5 556,-372.5 958,-372.5 958,-342.5 556,-342.5"/>
<text text-anchor="start" x="563" y="-353.9" font-family="Arial" font-size="14.00" fill="#000000">introduction </text>
<text text-anchor="start" x="639.2412" y="-353.9" font-family="Arial" font-size="14.00" fill="#666666">[varchar(4000)]</text>
<polygon fill="none" stroke="#000000" points="556,-312.5 556,-342.5 958,-342.5 958,-312.5 556,-312.5"/>
<text text-anchor="start" x="563" y="-323.9" font-family="Arial" font-size="14.00" fill="#000000">email_verification_status </text>
<text text-anchor="start" x="720.1332" y="-323.9" font-family="Arial" font-size="14.00" fill="#666666">[email_verification_status]</text>
<polygon fill="none" stroke="#000000" points="556,-282.5 556,-312.5 958,-312.5 958,-282.5 556,-282.5"/>
<text text-anchor="start" x="563" y="-293.9" font-family="Arial" font-size="14.00" fill="#000000">email_verification_code </text>
<text text-anchor="start" x="713.1346" y="-293.9" font-family="Arial" font-size="14.00" fill="#666666">[varchar]</text>
<polygon fill="none" stroke="#000000" points="556,-252.5 556,-282.5 958,-282.5 958,-252.5 556,-252.5"/>
<text text-anchor="start" x="562.9138" y="-263.9" font-family="Arial" font-size="14.00" fill="#000000">email_verification_code_expires_at </text>
<text text-anchor="start" x="785.4018" y="-263.9" font-family="Arial" font-size="14.00" fill="#666666">[timestamp with time zone]</text>
<polygon fill="none" stroke="#000000" points="556,-222.5 556,-252.5 958,-252.5 958,-222.5 556,-222.5"/>
<text text-anchor="start" x="563" y="-233.9" font-family="Arial" font-size="14.00" fill="#000000">password_digest </text>
<text text-anchor="start" x="671.9158" y="-233.9" font-family="Arial" font-size="14.00" fill="#666666">[varchar]</text>
<polygon fill="none" stroke="#000000" points="556,-192.5 556,-222.5 958,-222.5 958,-192.5 556,-192.5"/>
<text text-anchor="start" x="563" y="-203.9" font-family="Arial" font-size="14.00" fill="#000000">created_at </text>
<text text-anchor="start" x="633.028" y="-203.9" font-family="Arial" font-size="14.00" fill="#666666">[timestamp with time zone]</text>
<polygon fill="none" stroke="#000000" points="556,-162.5 556,-192.5 958,-192.5 958,-162.5 556,-162.5"/>
<text text-anchor="start" x="563" y="-173.9" font-family="Arial" font-size="14.00" fill="#000000">updated_at </text>
<text text-anchor="start" x="636.9326" y="-173.9" font-family="Arial" font-size="14.00" fill="#666666">[timestamp with time zone]</text>
<polygon fill="none" stroke="#000000" points="556,-132.5 556,-162.5 958,-162.5 958,-132.5 556,-132.5"/>
<text text-anchor="start" x="563" y="-143.9" font-family="Arial" font-size="14.00" fill="#000000">last_sign_in_at </text>
<text text-anchor="start" x="660.2524" y="-143.9" font-family="Arial" font-size="14.00" fill="#666666">[timestamp with time zone]</text>
<polygon fill="none" stroke="#000000" points="556,-102.5 556,-132.5 958,-132.5 958,-102.5 556,-102.5"/>
<text text-anchor="start" x="563" y="-113.9" font-family="Arial" font-size="14.00" fill="#000000">unverified_email </text>
<text text-anchor="start" x="668.7896" y="-113.9" font-family="Arial" font-size="14.00" fill="#666666">[varchar(100)]</text>
<polygon fill="none" stroke="#000000" points="556,-72.5 556,-102.5 958,-102.5 958,-72.5 556,-72.5"/>
<text text-anchor="start" x="563" y="-83.9" font-family="Arial" font-size="14.00" fill="#000000">password_reset_token </text>
<text text-anchor="start" x="707.7082" y="-83.9" font-family="Arial" font-size="14.00" fill="#666666">[varchar]</text>
<polygon fill="none" stroke="#000000" points="556,-42.5 556,-72.5 958,-72.5 958,-42.5 556,-42.5"/>
<text text-anchor="start" x="563" y="-53.9" font-family="Arial" font-size="14.00" fill="#000000">password_reset_token_expires_at </text>
<text text-anchor="start" x="780.0616" y="-53.9" font-family="Arial" font-size="14.00" fill="#666666">[timestamp with time zone]</text>
</g>
<!-- public.room_read_managements&#45;&gt;public.users -->
<g id="edge2" class="edge">
<title>public.room_read_managements:user_id&#45;&gt;public.users:id</title>
<path fill="none" stroke="#000000" d="M737.9738,-756.4306C778.7849,-746.8831 759.46,-675.7264 728,-637 678.755,-576.3808 605.245,-661.6192 556,-601 529.798,-568.746 514.4444,-507.5 556,-507.5"/>
<polygon fill="#000000" stroke="#000000" points="737.943,-756.4338 727.5202,-753.0256 732.9715,-756.9669 728,-757.5 728,-757.5 728,-757.5 732.9715,-756.9669 728.4798,-761.9744 737.943,-756.4338 737.943,-756.4338"/>
<text text-anchor="start" x="735.329" y="-767.5" font-family="Arial" font-size="10.00" fill="#000000">FOREIGN KEY (user_id) REFERENCES users(id) ON DELETE SET NULL</text>
</g>
</g>
</svg>
