<?xml version="1.0" encoding="UTF-8" standalone="no"?>
<!DOCTYPE svg PUBLIC "-//W3C//DTD SVG 1.1//EN"
 "http://www.w3.org/Graphics/SVG/1.1/DTD/svg11.dtd">
<!-- Generated by graphviz version 2.40.1 (20161225.0304)
 -->
<!-- Title: public.entries Pages: 1 -->
<svg width="962pt" height="922pt"
 viewBox="0.00 0.00 962.00 922.00" xmlns="http://www.w3.org/2000/svg" xmlns:xlink="http://www.w3.org/1999/xlink">
<g id="graph0" class="graph" transform="scale(1 1) rotate(0) translate(4 918)">
<title>public.entries</title>
<polygon fill="#ffffff" stroke="transparent" points="-4,4 -4,-918 958,-918 958,4 -4,4"/>
<!-- public.entries -->
<g id="node1" class="node">
<title>public.entries</title>
<polygon fill="#efefef" stroke="transparent" points="354,-832.5 354,-867.5 607,-867.5 607,-832.5 354,-832.5"/>
<polygon fill="none" stroke="#000000" points="354,-832.5 354,-867.5 607,-867.5 607,-832.5 354,-832.5"/>
<text text-anchor="start" x="378.8649" y="-845.3" font-family="Arial Bold" font-size="18.00" fill="#000000">public.entries</text>
<text text-anchor="start" x="484.8813" y="-845.3" font-family="Arial" font-size="14.00" fill="#000000"> </text>
<text text-anchor="start" x="488.7719" y="-845.3" font-family="Arial" font-size="14.00" fill="#666666">[BASE TABLE]</text>
<polygon fill="none" stroke="#000000" points="354,-802.5 354,-832.5 607,-832.5 607,-802.5 354,-802.5"/>
<text text-anchor="start" x="361" y="-813.9" font-family="Arial" font-size="14.00" fill="#000000">id </text>
<text text-anchor="start" x="375.7798" y="-813.9" font-family="Arial" font-size="14.00" fill="#666666">[bigint]</text>
<polygon fill="none" stroke="#000000" points="354,-772.5 354,-802.5 607,-802.5 607,-772.5 354,-772.5"/>
<text text-anchor="start" x="361" y="-783.9" font-family="Arial" font-size="14.00" fill="#000000">room_id </text>
<text text-anchor="start" x="415.4488" y="-783.9" font-family="Arial" font-size="14.00" fill="#666666">[bigint]</text>
<polygon fill="none" stroke="#000000" points="354,-742.5 354,-772.5 607,-772.5 607,-742.5 354,-742.5"/>
<text text-anchor="start" x="361" y="-753.9" font-family="Arial" font-size="14.00" fill="#000000">user_id </text>
<text text-anchor="start" x="410.7882" y="-753.9" font-family="Arial" font-size="14.00" fill="#666666">[bigint]</text>
<polygon fill="none" stroke="#000000" points="354,-712.5 354,-742.5 607,-742.5 607,-712.5 354,-712.5"/>
<text text-anchor="start" x="361" y="-723.9" font-family="Arial" font-size="14.00" fill="#000000">created_at </text>
<text text-anchor="start" x="431.028" y="-723.9" font-family="Arial" font-size="14.00" fill="#666666">[timestamp with time zone]</text>
<polygon fill="none" stroke="#000000" points="354,-682.5 354,-712.5 607,-712.5 607,-682.5 354,-682.5"/>
<text text-anchor="start" x="360.6915" y="-693.9" font-family="Arial" font-size="14.00" fill="#000000">updated_at </text>
<text text-anchor="start" x="434.6241" y="-693.9" font-family="Arial" font-size="14.00" fill="#666666">[timestamp with time zone]</text>
<polygon fill="none" stroke="#000000" stroke-width="3" points="352,-681.5 352,-869.5 608,-869.5 608,-681.5 352,-681.5"/>
</g>
<!-- public.rooms -->
<g id="node2" class="node">
<title>public.rooms</title>
<polygon fill="#efefef" stroke="transparent" points="139,-327.5 139,-362.5 392,-362.5 392,-327.5 139,-327.5"/>
<polygon fill="none" stroke="#000000" points="139,-327.5 139,-362.5 392,-362.5 392,-327.5 139,-327.5"/>
<text text-anchor="start" x="165.8701" y="-340.3" font-family="Arial Bold" font-size="18.00" fill="#000000">public.rooms</text>
<text text-anchor="start" x="267.8761" y="-340.3" font-family="Arial" font-size="14.00" fill="#000000"> </text>
<text text-anchor="start" x="271.7667" y="-340.3" font-family="Arial" font-size="14.00" fill="#666666">[BASE TABLE]</text>
<polygon fill="none" stroke="#000000" points="139,-297.5 139,-327.5 392,-327.5 392,-297.5 139,-297.5"/>
<text text-anchor="start" x="146" y="-308.9" font-family="Arial" font-size="14.00" fill="#000000">id </text>
<text text-anchor="start" x="160.7798" y="-308.9" font-family="Arial" font-size="14.00" fill="#666666">[bigint]</text>
<polygon fill="none" stroke="#000000" points="139,-267.5 139,-297.5 392,-297.5 392,-267.5 139,-267.5"/>
<text text-anchor="start" x="146" y="-278.9" font-family="Arial" font-size="14.00" fill="#000000">created_at </text>
<text text-anchor="start" x="216.028" y="-278.9" font-family="Arial" font-size="14.00" fill="#666666">[timestamp with time zone]</text>
<polygon fill="none" stroke="#000000" points="139,-237.5 139,-267.5 392,-267.5 392,-237.5 139,-237.5"/>
<text text-anchor="start" x="145.6915" y="-248.9" font-family="Arial" font-size="14.00" fill="#000000">updated_at </text>
<text text-anchor="start" x="219.6241" y="-248.9" font-family="Arial" font-size="14.00" fill="#666666">[timestamp with time zone]</text>
</g>
<!-- public.entries&#45;&gt;public.rooms -->
<g id="edge1" class="edge">
<title>public.entries:room_id&#45;&gt;public.rooms:id</title>
<path fill="none" stroke="#000000" d="M344.1195,-785.78C265.2306,-754.6886 494.17,-312.5 392,-312.5"/>
<polygon fill="#000000" stroke="#000000" points="344.1482,-785.7849 353.2282,-791.9333 349.0741,-786.6425 354,-787.5 354,-787.5 354,-787.5 349.0741,-786.6425 354.7718,-783.0667 344.1482,-785.7849 344.1482,-785.7849"/>
<text text-anchor="start" x="6.7245" y="-797.5" font-family="Arial" font-size="10.00" fill="#000000">FOREIGN KEY (room_id) REFERENCES rooms(id) ON DELETE CASCADE</text>
</g>
<!-- public.users -->
<g id="node3" class="node">
<title>public.users</title>
<polygon fill="#efefef" stroke="transparent" points="496,-522.5 496,-557.5 898,-557.5 898,-522.5 496,-522.5"/>
<polygon fill="none" stroke="#000000" points="496,-522.5 496,-557.5 898,-557.5 898,-522.5 496,-522.5"/>
<text text-anchor="start" x="600.3662" y="-535.3" font-family="Arial Bold" font-size="18.00" fill="#000000">public.users</text>
<text text-anchor="start" x="696.38" y="-535.3" font-family="Arial" font-size="14.00" fill="#000000"> </text>
<text text-anchor="start" x="700.2706" y="-535.3" font-family="Arial" font-size="14.00" fill="#666666">[BASE TABLE]</text>
<polygon fill="none" stroke="#000000" points="496,-492.5 496,-522.5 898,-522.5 898,-492.5 496,-492.5"/>
<text text-anchor="start" x="503" y="-503.9" font-family="Arial" font-size="14.00" fill="#000000">id </text>
<text text-anchor="start" x="517.7798" y="-503.9" font-family="Arial" font-size="14.00" fill="#666666">[bigint]</text>
<polygon fill="none" stroke="#000000" points="496,-462.5 496,-492.5 898,-492.5 898,-462.5 496,-462.5"/>
<text text-anchor="start" x="503" y="-473.9" font-family="Arial" font-size="14.00" fill="#000000">name </text>
<text text-anchor="start" x="541.899" y="-473.9" font-family="Arial" font-size="14.00" fill="#666666">[varchar(50)]</text>
<polygon fill="none" stroke="#000000" points="496,-432.5 496,-462.5 898,-462.5 898,-432.5 496,-432.5"/>
<text text-anchor="start" x="503" y="-443.9" font-family="Arial" font-size="14.00" fill="#000000">email </text>
<text text-anchor="start" x="540.3296" y="-443.9" font-family="Arial" font-size="14.00" fill="#666666">[varchar(100)]</text>
<polygon fill="none" stroke="#000000" points="496,-402.5 496,-432.5 898,-432.5 898,-402.5 496,-402.5"/>
<text text-anchor="start" x="503" y="-413.9" font-family="Arial" font-size="14.00" fill="#000000">role </text>
<text text-anchor="start" x="530.223" y="-413.9" font-family="Arial" font-size="14.00" fill="#666666">[user_role]</text>
<polygon fill="none" stroke="#000000" points="496,-372.5 496,-402.5 898,-402.5 898,-372.5 496,-372.5"/>
<text text-anchor="start" x="503" y="-383.9" font-family="Arial" font-size="14.00" fill="#000000">avatar </text>
<text text-anchor="start" x="545.7896" y="-383.9" font-family="Arial" font-size="14.00" fill="#666666">[varchar]</text>
<polygon fill="none" stroke="#000000" points="496,-342.5 496,-372.5 898,-372.5 898,-342.5 496,-342.5"/>
<text text-anchor="start" x="503" y="-353.9" font-family="Arial" font-size="14.00" fill="#000000">introduction </text>
<text text-anchor="start" x="579.2412" y="-353.9" font-family="Arial" font-size="14.00" fill="#666666">[varchar(4000)]</text>
<polygon fill="none" stroke="#000000" points="496,-312.5 496,-342.5 898,-342.5 898,-312.5 496,-312.5"/>
<text text-anchor="start" x="503" y="-323.9" font-family="Arial" font-size="14.00" fill="#000000">email_verification_status </text>
<text text-anchor="start" x="660.1332" y="-323.9" font-family="Arial" font-size="14.00" fill="#666666">[email_verification_status]</text>
<polygon fill="none" stroke="#000000" points="496,-282.5 496,-312.5 898,-312.5 898,-282.5 496,-282.5"/>
<text text-anchor="start" x="503" y="-293.9" font-family="Arial" font-size="14.00" fill="#000000">email_verification_code </text>
<text text-anchor="start" x="653.1346" y="-293.9" font-family="Arial" font-size="14.00" fill="#666666">[varchar]</text>
<polygon fill="none" stroke="#000000" points="496,-252.5 496,-282.5 898,-282.5 898,-252.5 496,-252.5"/>
<text text-anchor="start" x="502.9138" y="-263.9" font-family="Arial" font-size="14.00" fill="#000000">email_verification_code_expires_at </text>
<text text-anchor="start" x="725.4018" y="-263.9" font-family="Arial" font-size="14.00" fill="#666666">[timestamp with time zone]</text>
<polygon fill="none" stroke="#000000" points="496,-222.5 496,-252.5 898,-252.5 898,-222.5 496,-222.5"/>
<text text-anchor="start" x="503" y="-233.9" font-family="Arial" font-size="14.00" fill="#000000">password_digest </text>
<text text-anchor="start" x="611.9158" y="-233.9" font-family="Arial" font-size="14.00" fill="#666666">[varchar]</text>
<polygon fill="none" stroke="#000000" points="496,-192.5 496,-222.5 898,-222.5 898,-192.5 496,-192.5"/>
<text text-anchor="start" x="503" y="-203.9" font-family="Arial" font-size="14.00" fill="#000000">created_at </text>
<text text-anchor="start" x="573.028" y="-203.9" font-family="Arial" font-size="14.00" fill="#666666">[timestamp with time zone]</text>
<polygon fill="none" stroke="#000000" points="496,-162.5 496,-192.5 898,-192.5 898,-162.5 496,-162.5"/>
<text text-anchor="start" x="503" y="-173.9" font-family="Arial" font-size="14.00" fill="#000000">updated_at </text>
<text text-anchor="start" x="576.9326" y="-173.9" font-family="Arial" font-size="14.00" fill="#666666">[timestamp with time zone]</text>
<polygon fill="none" stroke="#000000" points="496,-132.5 496,-162.5 898,-162.5 898,-132.5 496,-132.5"/>
<text text-anchor="start" x="503" y="-143.9" font-family="Arial" font-size="14.00" fill="#000000">last_sign_in_at </text>
<text text-anchor="start" x="600.2524" y="-143.9" font-family="Arial" font-size="14.00" fill="#666666">[timestamp with time zone]</text>
<polygon fill="none" stroke="#000000" points="496,-102.5 496,-132.5 898,-132.5 898,-102.5 496,-102.5"/>
<text text-anchor="start" x="503" y="-113.9" font-family="Arial" font-size="14.00" fill="#000000">unverified_email </text>
<text text-anchor="start" x="608.7896" y="-113.9" font-family="Arial" font-size="14.00" fill="#666666">[varchar(100)]</text>
<polygon fill="none" stroke="#000000" points="496,-72.5 496,-102.5 898,-102.5 898,-72.5 496,-72.5"/>
<text text-anchor="start" x="503" y="-83.9" font-family="Arial" font-size="14.00" fill="#000000">password_reset_token </text>
<text text-anchor="start" x="647.7082" y="-83.9" font-family="Arial" font-size="14.00" fill="#666666">[varchar]</text>
<polygon fill="none" stroke="#000000" points="496,-42.5 496,-72.5 898,-72.5 898,-42.5 496,-42.5"/>
<text text-anchor="start" x="503" y="-53.9" font-family="Arial" font-size="14.00" fill="#000000">password_reset_token_expires_at </text>
<text text-anchor="start" x="720.0616" y="-53.9" font-family="Arial" font-size="14.00" fill="#666666">[timestamp with time zone]</text>
</g>
<!-- public.entries&#45;&gt;public.users -->
<g id="edge2" class="edge">
<title>public.entries:user_id&#45;&gt;public.users:id</title>
<path fill="none" stroke="#000000" d="M617.1983,-756.3939C657.4061,-746.8138 636.2766,-677.273 607,-637 576.5044,-595.0501 526.4956,-642.9499 496,-601 471.5652,-567.3874 454.4444,-507.5 496,-507.5"/>
<polygon fill="#000000" stroke="#000000" points="616.9417,-756.4216 606.5147,-753.0262 611.9708,-756.9608 607,-757.5 607,-757.5 607,-757.5 611.9708,-756.9608 607.4853,-761.9738 616.9417,-756.4216 616.9417,-756.4216"/>
<text text-anchor="start" x="614.329" y="-767.5" font-family="Arial" font-size="10.00" fill="#000000">FOREIGN KEY (user_id) REFERENCES users(id) ON DELETE SET NULL</text>
</g>
</g>
</svg>
