<?xml version="1.0" encoding="UTF-8" standalone="no"?>
<!DOCTYPE svg PUBLIC "-//W3C//DTD SVG 1.1//EN"
 "http://www.w3.org/Graphics/SVG/1.1/DTD/svg11.dtd">
<!-- Generated by graphviz version 2.40.1 (20161225.0304)
 -->
<!-- Title: public.users Pages: 1 -->
<svg width="2261pt" height="1162pt"
 viewBox="0.00 0.00 2261.00 1162.00" xmlns="http://www.w3.org/2000/svg" xmlns:xlink="http://www.w3.org/1999/xlink">
<g id="graph0" class="graph" transform="scale(1 1) rotate(0) translate(4 1158)">
<title>public.users</title>
<polygon fill="#ffffff" stroke="transparent" points="-4,4 -4,-1158 2257,-1158 2257,4 -4,4"/>
<!-- public.users -->
<g id="node1" class="node">
<title>public.users</title>
<polygon fill="#efefef" stroke="transparent" points="909,-435.5 909,-470.5 1315,-470.5 1315,-435.5 909,-435.5"/>
<polygon fill="none" stroke="#000000" points="909,-435.5 909,-470.5 1315,-470.5 1315,-435.5 909,-435.5"/>
<text text-anchor="start" x="1015.3662" y="-448.3" font-family="Arial Bold" font-size="18.00" fill="#000000">public.users</text>
<text text-anchor="start" x="1111.38" y="-448.3" font-family="Arial" font-size="14.00" fill="#000000"> </text>
<text text-anchor="start" x="1115.2706" y="-448.3" font-family="Arial" font-size="14.00" fill="#666666">[BASE TABLE]</text>
<polygon fill="none" stroke="#000000" points="909,-405.5 909,-435.5 1315,-435.5 1315,-405.5 909,-405.5"/>
<text text-anchor="start" x="916" y="-416.9" font-family="Arial" font-size="14.00" fill="#000000">id </text>
<text text-anchor="start" x="930.7798" y="-416.9" font-family="Arial" font-size="14.00" fill="#666666">[varchar]</text>
<polygon fill="none" stroke="#000000" points="909,-375.5 909,-405.5 1315,-405.5 1315,-375.5 909,-375.5"/>
<text text-anchor="start" x="916" y="-386.9" font-family="Arial" font-size="14.00" fill="#000000">name </text>
<text text-anchor="start" x="954.899" y="-386.9" font-family="Arial" font-size="14.00" fill="#666666">[varchar(50)]</text>
<polygon fill="none" stroke="#000000" points="909,-345.5 909,-375.5 1315,-375.5 1315,-345.5 909,-345.5"/>
<text text-anchor="start" x="916" y="-356.9" font-family="Arial" font-size="14.00" fill="#000000">email </text>
<text text-anchor="start" x="953.3296" y="-356.9" font-family="Arial" font-size="14.00" fill="#666666">[varchar(100)]</text>
<polygon fill="none" stroke="#000000" points="909,-315.5 909,-345.5 1315,-345.5 1315,-315.5 909,-315.5"/>
<text text-anchor="start" x="916" y="-326.9" font-family="Arial" font-size="14.00" fill="#000000">role </text>
<text text-anchor="start" x="943.223" y="-326.9" font-family="Arial" font-size="14.00" fill="#666666">[varchar]</text>
<polygon fill="none" stroke="#000000" points="909,-285.5 909,-315.5 1315,-315.5 1315,-285.5 909,-285.5"/>
<text text-anchor="start" x="916" y="-296.9" font-family="Arial" font-size="14.00" fill="#000000">avatar </text>
<text text-anchor="start" x="958.7896" y="-296.9" font-family="Arial" font-size="14.00" fill="#666666">[varchar]</text>
<polygon fill="none" stroke="#000000" points="909,-255.5 909,-285.5 1315,-285.5 1315,-255.5 909,-255.5"/>
<text text-anchor="start" x="916" y="-266.9" font-family="Arial" font-size="14.00" fill="#000000">introduction </text>
<text text-anchor="start" x="992.2412" y="-266.9" font-family="Arial" font-size="14.00" fill="#666666">[varchar(4000)]</text>
<polygon fill="none" stroke="#000000" points="909,-225.5 909,-255.5 1315,-255.5 1315,-225.5 909,-225.5"/>
<text text-anchor="start" x="916" y="-236.9" font-family="Arial" font-size="14.00" fill="#000000">email_verification_status </text>
<text text-anchor="start" x="1073.1332" y="-236.9" font-family="Arial" font-size="14.00" fill="#666666">[varchar]</text>
<polygon fill="none" stroke="#000000" points="909,-195.5 909,-225.5 1315,-225.5 1315,-195.5 909,-195.5"/>
<text text-anchor="start" x="916" y="-206.9" font-family="Arial" font-size="14.00" fill="#000000">email_verification_token </text>
<text text-anchor="start" x="1070.0252" y="-206.9" font-family="Arial" font-size="14.00" fill="#666666">[varchar]</text>
<polygon fill="none" stroke="#000000" points="909,-165.5 909,-195.5 1315,-195.5 1315,-165.5 909,-165.5"/>
<text text-anchor="start" x="915.9685" y="-176.9" font-family="Arial" font-size="14.00" fill="#000000">email_verification_token_expires_at </text>
<text text-anchor="start" x="1142.3471" y="-176.9" font-family="Arial" font-size="14.00" fill="#666666">[timestamp with time zone]</text>
<polygon fill="none" stroke="#000000" points="909,-135.5 909,-165.5 1315,-165.5 1315,-135.5 909,-135.5"/>
<text text-anchor="start" x="916" y="-146.9" font-family="Arial" font-size="14.00" fill="#000000">password_digest </text>
<text text-anchor="start" x="1024.9158" y="-146.9" font-family="Arial" font-size="14.00" fill="#666666">[varchar]</text>
<polygon fill="none" stroke="#000000" points="909,-105.5 909,-135.5 1315,-135.5 1315,-105.5 909,-105.5"/>
<text text-anchor="start" x="916" y="-116.9" font-family="Arial" font-size="14.00" fill="#000000">created_at </text>
<text text-anchor="start" x="986.028" y="-116.9" font-family="Arial" font-size="14.00" fill="#666666">[timestamp with time zone]</text>
<polygon fill="none" stroke="#000000" points="909,-75.5 909,-105.5 1315,-105.5 1315,-75.5 909,-75.5"/>
<text text-anchor="start" x="916" y="-86.9" font-family="Arial" font-size="14.00" fill="#000000">updated_at </text>
<text text-anchor="start" x="989.9326" y="-86.9" font-family="Arial" font-size="14.00" fill="#666666">[timestamp with time zone]</text>
<polygon fill="none" stroke="#000000" points="909,-45.5 909,-75.5 1315,-75.5 1315,-45.5 909,-45.5"/>
<text text-anchor="start" x="916" y="-56.9" font-family="Arial" font-size="14.00" fill="#000000">last_sign_in_at </text>
<text text-anchor="start" x="1013.2524" y="-56.9" font-family="Arial" font-size="14.00" fill="#666666">[timestamp with time zone]</text>
<polygon fill="none" stroke="#000000" stroke-width="3" points="907.5,-44.5 907.5,-472.5 1316.5,-472.5 1316.5,-44.5 907.5,-44.5"/>
</g>
<!-- public.recruitments -->
<g id="node2" class="node">
<title>public.recruitments</title>
<polygon fill="#efefef" stroke="transparent" points="85,-1075.5 85,-1110.5 347,-1110.5 347,-1075.5 85,-1075.5"/>
<polygon fill="none" stroke="#000000" points="85,-1075.5 85,-1110.5 347,-1110.5 347,-1075.5 85,-1075.5"/>
<text text-anchor="start" x="91.8685" y="-1088.3" font-family="Arial Bold" font-size="18.00" fill="#000000">public.recruitments</text>
<text text-anchor="start" x="242.8777" y="-1088.3" font-family="Arial" font-size="14.00" fill="#000000"> </text>
<text text-anchor="start" x="246.7683" y="-1088.3" font-family="Arial" font-size="14.00" fill="#666666">[BASE TABLE]</text>
<polygon fill="none" stroke="#000000" points="85,-1045.5 85,-1075.5 347,-1075.5 347,-1045.5 85,-1045.5"/>
<text text-anchor="start" x="92" y="-1056.9" font-family="Arial" font-size="14.00" fill="#000000">id </text>
<text text-anchor="start" x="106.7798" y="-1056.9" font-family="Arial" font-size="14.00" fill="#666666">[varchar]</text>
<polygon fill="none" stroke="#000000" points="85,-1015.5 85,-1045.5 347,-1045.5 347,-1015.5 85,-1015.5"/>
<text text-anchor="start" x="92" y="-1026.9" font-family="Arial" font-size="14.00" fill="#000000">title </text>
<text text-anchor="start" x="117.6676" y="-1026.9" font-family="Arial" font-size="14.00" fill="#666666">[varchar(60)]</text>
<polygon fill="none" stroke="#000000" points="85,-985.5 85,-1015.5 347,-1015.5 347,-985.5 85,-985.5"/>
<text text-anchor="start" x="92" y="-996.9" font-family="Arial" font-size="14.00" fill="#000000">type </text>
<text text-anchor="start" x="122.3464" y="-996.9" font-family="Arial" font-size="14.00" fill="#666666">[varchar]</text>
<polygon fill="none" stroke="#000000" points="85,-955.5 85,-985.5 347,-985.5 347,-955.5 85,-955.5"/>
<text text-anchor="start" x="92" y="-966.9" font-family="Arial" font-size="14.00" fill="#000000">place </text>
<text text-anchor="start" x="129.345" y="-966.9" font-family="Arial" font-size="14.00" fill="#666666">[varchar]</text>
<polygon fill="none" stroke="#000000" points="85,-925.5 85,-955.5 347,-955.5 347,-925.5 85,-925.5"/>
<text text-anchor="start" x="92" y="-936.9" font-family="Arial" font-size="14.00" fill="#000000">start_at </text>
<text text-anchor="start" x="142.5708" y="-936.9" font-family="Arial" font-size="14.00" fill="#666666">[timestamp with time zone]</text>
<polygon fill="none" stroke="#000000" points="85,-895.5 85,-925.5 347,-925.5 347,-895.5 85,-895.5"/>
<text text-anchor="start" x="92" y="-906.9" font-family="Arial" font-size="14.00" fill="#000000">detail </text>
<text text-anchor="start" x="129.3422" y="-906.9" font-family="Arial" font-size="14.00" fill="#666666">[varchar(10000)]</text>
<polygon fill="none" stroke="#000000" points="85,-865.5 85,-895.5 347,-895.5 347,-865.5 85,-865.5"/>
<text text-anchor="start" x="92" y="-876.9" font-family="Arial" font-size="14.00" fill="#000000">closing_at </text>
<text text-anchor="start" x="158.9074" y="-876.9" font-family="Arial" font-size="14.00" fill="#666666">[timestamp with time zone]</text>
<polygon fill="none" stroke="#000000" points="85,-835.5 85,-865.5 347,-865.5 347,-835.5 85,-835.5"/>
<text text-anchor="start" x="92" y="-846.9" font-family="Arial" font-size="14.00" fill="#000000">competition_id </text>
<text text-anchor="start" x="186.1304" y="-846.9" font-family="Arial" font-size="14.00" fill="#666666">[varchar]</text>
<polygon fill="none" stroke="#000000" points="85,-805.5 85,-835.5 347,-835.5 347,-805.5 85,-805.5"/>
<text text-anchor="start" x="92" y="-816.9" font-family="Arial" font-size="14.00" fill="#000000">prefecture_id </text>
<text text-anchor="start" x="177.5778" y="-816.9" font-family="Arial" font-size="14.00" fill="#666666">[varchar]</text>
<polygon fill="none" stroke="#000000" points="85,-775.5 85,-805.5 347,-805.5 347,-775.5 85,-775.5"/>
<text text-anchor="start" x="92" y="-786.9" font-family="Arial" font-size="14.00" fill="#000000">user_id </text>
<text text-anchor="start" x="141.7882" y="-786.9" font-family="Arial" font-size="14.00" fill="#666666">[varchar]</text>
<polygon fill="none" stroke="#000000" points="85,-745.5 85,-775.5 347,-775.5 347,-745.5 85,-745.5"/>
<text text-anchor="start" x="92" y="-756.9" font-family="Arial" font-size="14.00" fill="#000000">created_at </text>
<text text-anchor="start" x="162.028" y="-756.9" font-family="Arial" font-size="14.00" fill="#666666">[timestamp with time zone]</text>
<polygon fill="none" stroke="#000000" points="85,-715.5 85,-745.5 347,-745.5 347,-715.5 85,-715.5"/>
<text text-anchor="start" x="92" y="-726.9" font-family="Arial" font-size="14.00" fill="#000000">updated_at </text>
<text text-anchor="start" x="165.9326" y="-726.9" font-family="Arial" font-size="14.00" fill="#666666">[timestamp with time zone]</text>
<polygon fill="none" stroke="#000000" points="85,-685.5 85,-715.5 347,-715.5 347,-685.5 85,-685.5"/>
<text text-anchor="start" x="92" y="-696.9" font-family="Arial" font-size="14.00" fill="#000000">location_lat </text>
<text text-anchor="start" x="166.6872" y="-696.9" font-family="Arial" font-size="14.00" fill="#666666">[double precision]</text>
<polygon fill="none" stroke="#000000" points="85,-655.5 85,-685.5 347,-685.5 347,-655.5 85,-655.5"/>
<text text-anchor="start" x="92" y="-666.9" font-family="Arial" font-size="14.00" fill="#000000">location_lng </text>
<text text-anchor="start" x="170.5792" y="-666.9" font-family="Arial" font-size="14.00" fill="#666666">[double precision]</text>
<polygon fill="none" stroke="#000000" points="85,-625.5 85,-655.5 347,-655.5 347,-625.5 85,-625.5"/>
<text text-anchor="start" x="92" y="-636.9" font-family="Arial" font-size="14.00" fill="#000000">status </text>
<text text-anchor="start" x="133.237" y="-636.9" font-family="Arial" font-size="14.00" fill="#666666">[varchar]</text>
<polygon fill="none" stroke="#000000" points="85,-595.5 85,-625.5 347,-625.5 347,-595.5 85,-595.5"/>
<text text-anchor="start" x="91.5302" y="-606.9" font-family="Arial" font-size="14.00" fill="#000000">published_at </text>
<text text-anchor="start" x="174.7854" y="-606.9" font-family="Arial" font-size="14.00" fill="#666666">[timestamp with time zone]</text>
</g>
<!-- public.recruitments&#45;&gt;public.users -->
<g id="edge1" class="edge">
<title>public.recruitments:user_id&#45;&gt;public.users:id</title>
<path fill="none" stroke="#000000" d="M356.9891,-789.9809C446.5856,-779.9896 326.5706,-628.2834 399,-553 480.1843,-468.6167 791.9042,-420.5 909,-420.5"/>
<polygon fill="#000000" stroke="#000000" points="356.9865,-789.9809 346.7664,-786.0061 351.9933,-790.2405 347,-790.5 347,-790.5 347,-790.5 351.9933,-790.2405 347.2336,-794.9939 356.9865,-789.9809 356.9865,-789.9809"/>
<text text-anchor="start" x="7.0535" y="-800.5" font-family="Arial" font-size="10.00" fill="#000000">FOREIGN KEY (user_id) REFERENCES users(id) ON DELETE CASCADE</text>
</g>
<!-- public.stocks -->
<g id="node3" class="node">
<title>public.stocks</title>
<polygon fill="#efefef" stroke="transparent" points="452,-910.5 452,-945.5 705,-945.5 705,-910.5 452,-910.5"/>
<polygon fill="none" stroke="#000000" points="452,-910.5 452,-945.5 705,-945.5 705,-910.5 452,-910.5"/>
<text text-anchor="start" x="478.3643" y="-923.3" font-family="Arial Bold" font-size="18.00" fill="#000000">public.stocks</text>
<text text-anchor="start" x="581.3819" y="-923.3" font-family="Arial" font-size="14.00" fill="#000000"> </text>
<text text-anchor="start" x="585.2725" y="-923.3" font-family="Arial" font-size="14.00" fill="#666666">[BASE TABLE]</text>
<polygon fill="none" stroke="#000000" points="452,-880.5 452,-910.5 705,-910.5 705,-880.5 452,-880.5"/>
<text text-anchor="start" x="459" y="-891.9" font-family="Arial" font-size="14.00" fill="#000000">id </text>
<text text-anchor="start" x="473.7798" y="-891.9" font-family="Arial" font-size="14.00" fill="#666666">[varchar]</text>
<polygon fill="none" stroke="#000000" points="452,-850.5 452,-880.5 705,-880.5 705,-850.5 452,-850.5"/>
<text text-anchor="start" x="459" y="-861.9" font-family="Arial" font-size="14.00" fill="#000000">recruitment_id </text>
<text text-anchor="start" x="551.5624" y="-861.9" font-family="Arial" font-size="14.00" fill="#666666">[varchar]</text>
<polygon fill="none" stroke="#000000" points="452,-820.5 452,-850.5 705,-850.5 705,-820.5 452,-820.5"/>
<text text-anchor="start" x="459" y="-831.9" font-family="Arial" font-size="14.00" fill="#000000">user_id </text>
<text text-anchor="start" x="508.7882" y="-831.9" font-family="Arial" font-size="14.00" fill="#666666">[varchar]</text>
<polygon fill="none" stroke="#000000" points="452,-790.5 452,-820.5 705,-820.5 705,-790.5 452,-790.5"/>
<text text-anchor="start" x="459" y="-801.9" font-family="Arial" font-size="14.00" fill="#000000">created_at </text>
<text text-anchor="start" x="529.028" y="-801.9" font-family="Arial" font-size="14.00" fill="#666666">[timestamp with time zone]</text>
<polygon fill="none" stroke="#000000" points="452,-760.5 452,-790.5 705,-790.5 705,-760.5 452,-760.5"/>
<text text-anchor="start" x="458.6915" y="-771.9" font-family="Arial" font-size="14.00" fill="#000000">updated_at </text>
<text text-anchor="start" x="532.6241" y="-771.9" font-family="Arial" font-size="14.00" fill="#666666">[timestamp with time zone]</text>
</g>
<!-- public.stocks&#45;&gt;public.users -->
<g id="edge2" class="edge">
<title>public.stocks:user_id&#45;&gt;public.users:id</title>
<path fill="none" stroke="#000000" d="M714.8322,-833.387C764.0099,-810.3277 726.2108,-605.2892 756,-553 800.5284,-474.8391 819.045,-420.5 909,-420.5"/>
<polygon fill="#000000" stroke="#000000" points="714.7768,-833.3988 704.0545,-831.1004 709.8884,-834.4494 705,-835.5 705,-835.5 705,-835.5 709.8884,-834.4494 705.9455,-839.8996 714.7768,-833.3988 714.7768,-833.3988"/>
<text text-anchor="start" x="365.0535" y="-845.5" font-family="Arial" font-size="10.00" fill="#000000">FOREIGN KEY (user_id) REFERENCES users(id) ON DELETE CASCADE</text>
</g>
<!-- public.applicants -->
<g id="node4" class="node">
<title>public.applicants</title>
<polygon fill="#efefef" stroke="transparent" points="809,-925.5 809,-960.5 1062,-960.5 1062,-925.5 809,-925.5"/>
<polygon fill="none" stroke="#000000" points="809,-925.5 809,-960.5 1062,-960.5 1062,-925.5 809,-925.5"/>
<text text-anchor="start" x="820.3577" y="-938.3" font-family="Arial Bold" font-size="18.00" fill="#000000">public.applicants</text>
<text text-anchor="start" x="953.3885" y="-938.3" font-family="Arial" font-size="14.00" fill="#000000"> </text>
<text text-anchor="start" x="957.2791" y="-938.3" font-family="Arial" font-size="14.00" fill="#666666">[BASE TABLE]</text>
<polygon fill="none" stroke="#000000" points="809,-895.5 809,-925.5 1062,-925.5 1062,-895.5 809,-895.5"/>
<text text-anchor="start" x="816" y="-906.9" font-family="Arial" font-size="14.00" fill="#000000">id </text>
<text text-anchor="start" x="830.7798" y="-906.9" font-family="Arial" font-size="14.00" fill="#666666">[varchar]</text>
<polygon fill="none" stroke="#000000" points="809,-865.5 809,-895.5 1062,-895.5 1062,-865.5 809,-865.5"/>
<text text-anchor="start" x="816" y="-876.9" font-family="Arial" font-size="14.00" fill="#000000">recruitment_id </text>
<text text-anchor="start" x="908.5624" y="-876.9" font-family="Arial" font-size="14.00" fill="#666666">[varchar]</text>
<polygon fill="none" stroke="#000000" points="809,-835.5 809,-865.5 1062,-865.5 1062,-835.5 809,-835.5"/>
<text text-anchor="start" x="816" y="-846.9" font-family="Arial" font-size="14.00" fill="#000000">user_id </text>
<text text-anchor="start" x="865.7882" y="-846.9" font-family="Arial" font-size="14.00" fill="#666666">[varchar]</text>
<polygon fill="none" stroke="#000000" points="809,-805.5 809,-835.5 1062,-835.5 1062,-805.5 809,-805.5"/>
<text text-anchor="start" x="816" y="-816.9" font-family="Arial" font-size="14.00" fill="#000000">created_at </text>
<text text-anchor="start" x="886.028" y="-816.9" font-family="Arial" font-size="14.00" fill="#666666">[timestamp with time zone]</text>
<polygon fill="none" stroke="#000000" points="809,-775.5 809,-805.5 1062,-805.5 1062,-775.5 809,-775.5"/>
<text text-anchor="start" x="815.6915" y="-786.9" font-family="Arial" font-size="14.00" fill="#000000">updated_at </text>
<text text-anchor="start" x="889.6241" y="-786.9" font-family="Arial" font-size="14.00" fill="#666666">[timestamp with time zone]</text>
<polygon fill="none" stroke="#000000" points="809,-745.5 809,-775.5 1062,-775.5 1062,-745.5 809,-745.5"/>
<text text-anchor="start" x="816" y="-756.9" font-family="Arial" font-size="14.00" fill="#000000">message </text>
<text text-anchor="start" x="876.6816" y="-756.9" font-family="Arial" font-size="14.00" fill="#666666">[varchar(1000)]</text>
</g>
<!-- public.applicants&#45;&gt;public.users -->
<g id="edge3" class="edge">
<title>public.applicants:user_id&#45;&gt;public.users:id</title>
<path fill="none" stroke="#000000" d="M1072.114,-849.6943C1122.7035,-840.8589 1082.8671,-761.2156 1062,-703 1025.8818,-602.2367 945.1182,-617.7633 909,-517 894.5282,-476.6264 866.1111,-420.5 909,-420.5"/>
<polygon fill="#000000" stroke="#000000" points="1071.9684,-849.7058 1061.6426,-846.0142 1066.9842,-850.1029 1062,-850.5 1062,-850.5 1062,-850.5 1066.9842,-850.1029 1062.3574,-854.9858 1071.9684,-849.7058 1071.9684,-849.7058"/>
<text text-anchor="start" x="722.0535" y="-860.5" font-family="Arial" font-size="10.00" fill="#000000">FOREIGN KEY (user_id) REFERENCES users(id) ON DELETE CASCADE</text>
</g>
<!-- public.messages -->
<g id="node5" class="node">
<title>public.messages</title>
<polygon fill="#efefef" stroke="transparent" points="1166,-910.5 1166,-945.5 1411,-945.5 1411,-910.5 1166,-910.5"/>
<polygon fill="none" stroke="#000000" points="1166,-910.5 1166,-945.5 1411,-945.5 1411,-910.5 1166,-910.5"/>
<text text-anchor="start" x="1172.86" y="-923.3" font-family="Arial Bold" font-size="18.00" fill="#000000">public.messages</text>
<text text-anchor="start" x="1306.8862" y="-923.3" font-family="Arial" font-size="14.00" fill="#000000"> </text>
<text text-anchor="start" x="1310.7768" y="-923.3" font-family="Arial" font-size="14.00" fill="#666666">[BASE TABLE]</text>
<polygon fill="none" stroke="#000000" points="1166,-880.5 1166,-910.5 1411,-910.5 1411,-880.5 1166,-880.5"/>
<text text-anchor="start" x="1173" y="-891.9" font-family="Arial" font-size="14.00" fill="#000000">id </text>
<text text-anchor="start" x="1187.7798" y="-891.9" font-family="Arial" font-size="14.00" fill="#666666">[varchar]</text>
<polygon fill="none" stroke="#000000" points="1166,-850.5 1166,-880.5 1411,-880.5 1411,-850.5 1166,-850.5"/>
<text text-anchor="start" x="1173" y="-861.9" font-family="Arial" font-size="14.00" fill="#000000">content </text>
<text text-anchor="start" x="1222.8022" y="-861.9" font-family="Arial" font-size="14.00" fill="#666666">[varchar(1000)]</text>
<polygon fill="none" stroke="#000000" points="1166,-820.5 1166,-850.5 1411,-850.5 1411,-820.5 1166,-820.5"/>
<text text-anchor="start" x="1173" y="-831.9" font-family="Arial" font-size="14.00" fill="#000000">room_id </text>
<text text-anchor="start" x="1227.4488" y="-831.9" font-family="Arial" font-size="14.00" fill="#666666">[varchar]</text>
<polygon fill="none" stroke="#000000" points="1166,-790.5 1166,-820.5 1411,-820.5 1411,-790.5 1166,-790.5"/>
<text text-anchor="start" x="1173" y="-801.9" font-family="Arial" font-size="14.00" fill="#000000">user_id </text>
<text text-anchor="start" x="1222.7882" y="-801.9" font-family="Arial" font-size="14.00" fill="#666666">[varchar]</text>
<polygon fill="none" stroke="#000000" points="1166,-760.5 1166,-790.5 1411,-790.5 1411,-760.5 1166,-760.5"/>
<text text-anchor="start" x="1173" y="-771.9" font-family="Arial" font-size="14.00" fill="#000000">applicant_id </text>
<text text-anchor="start" x="1251.5792" y="-771.9" font-family="Arial" font-size="14.00" fill="#666666">[varchar]</text>
</g>
<!-- public.messages&#45;&gt;public.users -->
<g id="edge4" class="edge">
<title>public.messages:user_id&#45;&gt;public.users:id</title>
<path fill="none" stroke="#000000" d="M1155.5822,-805.0209C1003.3895,-789.8709 1494.7159,-420.5 1315,-420.5"/>
<polygon fill="#000000" stroke="#000000" points="1156.0106,-805.0405 1165.7932,-809.9952 1161.0053,-805.2702 1166,-805.5 1166,-805.5 1166,-805.5 1161.0053,-805.2702 1166.2068,-801.0048 1156.0106,-805.0405 1156.0106,-805.0405"/>
<text text-anchor="start" x="913.079" y="-789.5" font-family="Arial" font-size="10.00" fill="#000000">FOREIGN KEY (user_id) REFERENCES users(id) ON DELETE SET NULL</text>
</g>
<!-- public.entries -->
<g id="node6" class="node">
<title>public.entries</title>
<polygon fill="#efefef" stroke="transparent" points="1515,-880.5 1515,-915.5 1732,-915.5 1732,-880.5 1515,-880.5"/>
<polygon fill="none" stroke="#000000" points="1515,-880.5 1515,-915.5 1732,-915.5 1732,-880.5 1515,-880.5"/>
<text text-anchor="start" x="1521.8649" y="-893.3" font-family="Arial Bold" font-size="18.00" fill="#000000">public.entries</text>
<text text-anchor="start" x="1627.8813" y="-893.3" font-family="Arial" font-size="14.00" fill="#000000"> </text>
<text text-anchor="start" x="1631.7719" y="-893.3" font-family="Arial" font-size="14.00" fill="#666666">[BASE TABLE]</text>
<polygon fill="none" stroke="#000000" points="1515,-850.5 1515,-880.5 1732,-880.5 1732,-850.5 1515,-850.5"/>
<text text-anchor="start" x="1522" y="-861.9" font-family="Arial" font-size="14.00" fill="#000000">id </text>
<text text-anchor="start" x="1536.7798" y="-861.9" font-family="Arial" font-size="14.00" fill="#666666">[varchar]</text>
<polygon fill="none" stroke="#000000" points="1515,-820.5 1515,-850.5 1732,-850.5 1732,-820.5 1515,-820.5"/>
<text text-anchor="start" x="1522" y="-831.9" font-family="Arial" font-size="14.00" fill="#000000">room_id </text>
<text text-anchor="start" x="1576.4488" y="-831.9" font-family="Arial" font-size="14.00" fill="#666666">[varchar]</text>
<polygon fill="none" stroke="#000000" points="1515,-790.5 1515,-820.5 1732,-820.5 1732,-790.5 1515,-790.5"/>
<text text-anchor="start" x="1522" y="-801.9" font-family="Arial" font-size="14.00" fill="#000000">user_id </text>
<text text-anchor="start" x="1571.7882" y="-801.9" font-family="Arial" font-size="14.00" fill="#666666">[varchar]</text>
</g>
<!-- public.entries&#45;&gt;public.users -->
<g id="edge5" class="edge">
<title>public.entries:user_id&#45;&gt;public.users:id</title>
<path fill="none" stroke="#000000" d="M1504.9322,-805.0576C1407.7308,-795.9793 1518.3303,-649.2229 1463,-553 1418.9902,-476.4641 1403.2871,-420.5 1315,-420.5"/>
<polygon fill="#000000" stroke="#000000" points="1505.0096,-805.0609 1514.8024,-809.9957 1510.0048,-805.2804 1515,-805.5 1515,-805.5 1515,-805.5 1510.0048,-805.2804 1515.1976,-801.0043 1505.0096,-805.0609 1505.0096,-805.0609"/>
<text text-anchor="start" x="1262.079" y="-789.5" font-family="Arial" font-size="10.00" fill="#000000">FOREIGN KEY (user_id) REFERENCES users(id) ON DELETE SET NULL</text>
</g>
<!-- public.room_read_managements -->
<g id="node7" class="node">
<title>public.room_read_managements</title>
<polygon fill="#efefef" stroke="transparent" points="1836,-895.5 1836,-930.5 2210,-930.5 2210,-895.5 1836,-895.5"/>
<polygon fill="none" stroke="#000000" points="1836,-895.5 1836,-930.5 2210,-930.5 2210,-895.5 1836,-895.5"/>
<text text-anchor="start" x="1842.8435" y="-908.3" font-family="Arial Bold" font-size="18.00" fill="#000000">public.room_read_managements</text>
<text text-anchor="start" x="2105.9027" y="-908.3" font-family="Arial" font-size="14.00" fill="#000000"> </text>
<text text-anchor="start" x="2109.7933" y="-908.3" font-family="Arial" font-size="14.00" fill="#666666">[BASE TABLE]</text>
<polygon fill="none" stroke="#000000" points="1836,-865.5 1836,-895.5 2210,-895.5 2210,-865.5 1836,-865.5"/>
<text text-anchor="start" x="1843" y="-876.9" font-family="Arial" font-size="14.00" fill="#000000">id </text>
<text text-anchor="start" x="1857.7798" y="-876.9" font-family="Arial" font-size="14.00" fill="#666666">[varchar]</text>
<polygon fill="none" stroke="#000000" points="1836,-835.5 1836,-865.5 2210,-865.5 2210,-835.5 1836,-835.5"/>
<text text-anchor="start" x="1843" y="-846.9" font-family="Arial" font-size="14.00" fill="#000000">last_read_at </text>
<text text-anchor="start" x="1923.9172" y="-846.9" font-family="Arial" font-size="14.00" fill="#666666">[timestamp with time zone]</text>
<polygon fill="none" stroke="#000000" points="1836,-805.5 1836,-835.5 2210,-835.5 2210,-805.5 1836,-805.5"/>
<text text-anchor="start" x="1843" y="-816.9" font-family="Arial" font-size="14.00" fill="#000000">room_id </text>
<text text-anchor="start" x="1897.4488" y="-816.9" font-family="Arial" font-size="14.00" fill="#666666">[varchar]</text>
<polygon fill="none" stroke="#000000" points="1836,-775.5 1836,-805.5 2210,-805.5 2210,-775.5 1836,-775.5"/>
<text text-anchor="start" x="1843" y="-786.9" font-family="Arial" font-size="14.00" fill="#000000">user_id </text>
<text text-anchor="start" x="1892.7882" y="-786.9" font-family="Arial" font-size="14.00" fill="#666666">[varchar]</text>
</g>
<!-- public.room_read_managements&#45;&gt;public.users -->
<g id="edge6" class="edge">
<title>public.room_read_managements:user_id&#45;&gt;public.users:id</title>
<path fill="none" stroke="#000000" d="M1826.0082,-789.9834C1736.3613,-780.0402 1855.629,-629.0453 1784,-553 1709.7426,-474.1642 1423.3016,-420.5 1315,-420.5"/>
<polygon fill="#000000" stroke="#000000" points="1826.0133,-789.9836 1835.7676,-794.994 1831.0067,-790.2418 1836,-790.5 1836,-790.5 1836,-790.5 1831.0067,-790.2418 1836.2324,-786.006 1826.0133,-789.9836 1826.0133,-789.9836"/>
<text text-anchor="start" x="1843.329" y="-800.5" font-family="Arial" font-size="10.00" fill="#000000">FOREIGN KEY (user_id) REFERENCES users(id) ON DELETE SET NULL</text>
</g>
</g>
</svg>
