<?xml version="1.0" encoding="UTF-8" standalone="no"?>
<!DOCTYPE svg PUBLIC "-//W3C//DTD SVG 1.1//EN"
 "http://www.w3.org/Graphics/SVG/1.1/DTD/svg11.dtd">
<!-- Generated by graphviz version 2.40.1 (20161225.0304)
 -->
<!-- Title: public.entries Pages: 1 -->
<svg width="962pt" height="862pt"
 viewBox="0.00 0.00 962.00 862.00" xmlns="http://www.w3.org/2000/svg" xmlns:xlink="http://www.w3.org/1999/xlink">
<g id="graph0" class="graph" transform="scale(1 1) rotate(0) translate(4 858)">
<title>public.entries</title>
<polygon fill="#ffffff" stroke="transparent" points="-4,4 -4,-858 958,-858 958,4 -4,4"/>
<!-- public.entries -->
<g id="node1" class="node">
<title>public.entries</title>
<polygon fill="#efefef" stroke="transparent" points="354,-772.5 354,-807.5 607,-807.5 607,-772.5 354,-772.5"/>
<polygon fill="none" stroke="#000000" points="354,-772.5 354,-807.5 607,-807.5 607,-772.5 354,-772.5"/>
<text text-anchor="start" x="378.8649" y="-785.3" font-family="Arial Bold" font-size="18.00" fill="#000000">public.entries</text>
<text text-anchor="start" x="484.8813" y="-785.3" font-family="Arial" font-size="14.00" fill="#000000"> </text>
<text text-anchor="start" x="488.7719" y="-785.3" font-family="Arial" font-size="14.00" fill="#666666">[BASE TABLE]</text>
<polygon fill="none" stroke="#000000" points="354,-742.5 354,-772.5 607,-772.5 607,-742.5 354,-742.5"/>
<text text-anchor="start" x="361" y="-753.9" font-family="Arial" font-size="14.00" fill="#000000">id </text>
<text text-anchor="start" x="375.7798" y="-753.9" font-family="Arial" font-size="14.00" fill="#666666">[bigint]</text>
<polygon fill="none" stroke="#000000" points="354,-712.5 354,-742.5 607,-742.5 607,-712.5 354,-712.5"/>
<text text-anchor="start" x="361" y="-723.9" font-family="Arial" font-size="14.00" fill="#000000">room_id </text>
<text text-anchor="start" x="415.4488" y="-723.9" font-family="Arial" font-size="14.00" fill="#666666">[bigint]</text>
<polygon fill="none" stroke="#000000" points="354,-682.5 354,-712.5 607,-712.5 607,-682.5 354,-682.5"/>
<text text-anchor="start" x="361" y="-693.9" font-family="Arial" font-size="14.00" fill="#000000">user_id </text>
<text text-anchor="start" x="410.7882" y="-693.9" font-family="Arial" font-size="14.00" fill="#666666">[bigint]</text>
<polygon fill="none" stroke="#000000" points="354,-652.5 354,-682.5 607,-682.5 607,-652.5 354,-652.5"/>
<text text-anchor="start" x="361" y="-663.9" font-family="Arial" font-size="14.00" fill="#000000">created_at </text>
<text text-anchor="start" x="431.028" y="-663.9" font-family="Arial" font-size="14.00" fill="#666666">[timestamp with time zone]</text>
<polygon fill="none" stroke="#000000" points="354,-622.5 354,-652.5 607,-652.5 607,-622.5 354,-622.5"/>
<text text-anchor="start" x="360.6915" y="-633.9" font-family="Arial" font-size="14.00" fill="#000000">updated_at </text>
<text text-anchor="start" x="434.6241" y="-633.9" font-family="Arial" font-size="14.00" fill="#666666">[timestamp with time zone]</text>
<polygon fill="none" stroke="#000000" stroke-width="3" points="352,-621.5 352,-809.5 608,-809.5 608,-621.5 352,-621.5"/>
</g>
<!-- public.rooms -->
<g id="node2" class="node">
<title>public.rooms</title>
<polygon fill="#efefef" stroke="transparent" points="142,-297.5 142,-332.5 395,-332.5 395,-297.5 142,-297.5"/>
<polygon fill="none" stroke="#000000" points="142,-297.5 142,-332.5 395,-332.5 395,-297.5 142,-297.5"/>
<text text-anchor="start" x="168.8701" y="-310.3" font-family="Arial Bold" font-size="18.00" fill="#000000">public.rooms</text>
<text text-anchor="start" x="270.8761" y="-310.3" font-family="Arial" font-size="14.00" fill="#000000"> </text>
<text text-anchor="start" x="274.7667" y="-310.3" font-family="Arial" font-size="14.00" fill="#666666">[BASE TABLE]</text>
<polygon fill="none" stroke="#000000" points="142,-267.5 142,-297.5 395,-297.5 395,-267.5 142,-267.5"/>
<text text-anchor="start" x="149" y="-278.9" font-family="Arial" font-size="14.00" fill="#000000">id </text>
<text text-anchor="start" x="163.7798" y="-278.9" font-family="Arial" font-size="14.00" fill="#666666">[bigint]</text>
<polygon fill="none" stroke="#000000" points="142,-237.5 142,-267.5 395,-267.5 395,-237.5 142,-237.5"/>
<text text-anchor="start" x="149" y="-248.9" font-family="Arial" font-size="14.00" fill="#000000">created_at </text>
<text text-anchor="start" x="219.028" y="-248.9" font-family="Arial" font-size="14.00" fill="#666666">[timestamp with time zone]</text>
<polygon fill="none" stroke="#000000" points="142,-207.5 142,-237.5 395,-237.5 395,-207.5 142,-207.5"/>
<text text-anchor="start" x="148.6915" y="-218.9" font-family="Arial" font-size="14.00" fill="#000000">updated_at </text>
<text text-anchor="start" x="222.6241" y="-218.9" font-family="Arial" font-size="14.00" fill="#666666">[timestamp with time zone]</text>
</g>
<!-- public.entries&#45;&gt;public.rooms -->
<g id="edge1" class="edge">
<title>public.entries:room_id&#45;&gt;public.rooms:id</title>
<path fill="none" stroke="#000000" d="M343.8734,-725.516C272.8951,-693.4134 490.4285,-282.5 395,-282.5"/>
<polygon fill="#000000" stroke="#000000" points="344.1866,-725.5773 353.1348,-731.916 349.0933,-726.5386 354,-727.5 354,-727.5 354,-727.5 349.0933,-726.5386 354.8652,-723.084 344.1866,-725.5773 344.1866,-725.5773"/>
<text text-anchor="start" x="6.7245" y="-737.5" font-family="Arial" font-size="10.00" fill="#000000">FOREIGN KEY (room_id) REFERENCES rooms(id) ON DELETE CASCADE</text>
</g>
<!-- public.users -->
<g id="node3" class="node">
<title>public.users</title>
<polygon fill="#efefef" stroke="transparent" points="499,-462.5 499,-497.5 889,-497.5 889,-462.5 499,-462.5"/>
<polygon fill="none" stroke="#000000" points="499,-462.5 499,-497.5 889,-497.5 889,-462.5 499,-462.5"/>
<text text-anchor="start" x="597.3662" y="-475.3" font-family="Arial Bold" font-size="18.00" fill="#000000">public.users</text>
<text text-anchor="start" x="693.38" y="-475.3" font-family="Arial" font-size="14.00" fill="#000000"> </text>
<text text-anchor="start" x="697.2706" y="-475.3" font-family="Arial" font-size="14.00" fill="#666666">[BASE TABLE]</text>
<polygon fill="none" stroke="#000000" points="499,-432.5 499,-462.5 889,-462.5 889,-432.5 499,-432.5"/>
<text text-anchor="start" x="506" y="-443.9" font-family="Arial" font-size="14.00" fill="#000000">id </text>
<text text-anchor="start" x="520.7798" y="-443.9" font-family="Arial" font-size="14.00" fill="#666666">[bigint]</text>
<polygon fill="none" stroke="#000000" points="499,-402.5 499,-432.5 889,-432.5 889,-402.5 499,-402.5"/>
<text text-anchor="start" x="506" y="-413.9" font-family="Arial" font-size="14.00" fill="#000000">name </text>
<text text-anchor="start" x="544.899" y="-413.9" font-family="Arial" font-size="14.00" fill="#666666">[varchar(50)]</text>
<polygon fill="none" stroke="#000000" points="499,-372.5 499,-402.5 889,-402.5 889,-372.5 499,-372.5"/>
<text text-anchor="start" x="506" y="-383.9" font-family="Arial" font-size="14.00" fill="#000000">email </text>
<text text-anchor="start" x="543.3296" y="-383.9" font-family="Arial" font-size="14.00" fill="#666666">[varchar(100)]</text>
<polygon fill="none" stroke="#000000" points="499,-342.5 499,-372.5 889,-372.5 889,-342.5 499,-342.5"/>
<text text-anchor="start" x="506" y="-353.9" font-family="Arial" font-size="14.00" fill="#000000">role </text>
<text text-anchor="start" x="533.223" y="-353.9" font-family="Arial" font-size="14.00" fill="#666666">[user_role]</text>
<polygon fill="none" stroke="#000000" points="499,-312.5 499,-342.5 889,-342.5 889,-312.5 499,-312.5"/>
<text text-anchor="start" x="506" y="-323.9" font-family="Arial" font-size="14.00" fill="#000000">avatar </text>
<text text-anchor="start" x="548.7896" y="-323.9" font-family="Arial" font-size="14.00" fill="#666666">[varchar]</text>
<polygon fill="none" stroke="#000000" points="499,-282.5 499,-312.5 889,-312.5 889,-282.5 499,-282.5"/>
<text text-anchor="start" x="506" y="-293.9" font-family="Arial" font-size="14.00" fill="#000000">introduction </text>
<text text-anchor="start" x="582.2412" y="-293.9" font-family="Arial" font-size="14.00" fill="#666666">[varchar(4000)]</text>
<polygon fill="none" stroke="#000000" points="499,-252.5 499,-282.5 889,-282.5 889,-252.5 499,-252.5"/>
<text text-anchor="start" x="506" y="-263.9" font-family="Arial" font-size="14.00" fill="#000000">email_verification_status </text>
<text text-anchor="start" x="663.1332" y="-263.9" font-family="Arial" font-size="14.00" fill="#666666">[email_verification_status]</text>
<polygon fill="none" stroke="#000000" points="499,-222.5 499,-252.5 889,-252.5 889,-222.5 499,-222.5"/>
<text text-anchor="start" x="506" y="-233.9" font-family="Arial" font-size="14.00" fill="#000000">email_verification_pin </text>
<text text-anchor="start" x="644.4586" y="-233.9" font-family="Arial" font-size="14.00" fill="#666666">[varchar]</text>
<polygon fill="none" stroke="#000000" points="499,-192.5 499,-222.5 889,-222.5 889,-192.5 499,-192.5"/>
<text text-anchor="start" x="505.7518" y="-203.9" font-family="Arial" font-size="14.00" fill="#000000">email_verification_pin_expires_at </text>
<text text-anchor="start" x="716.5638" y="-203.9" font-family="Arial" font-size="14.00" fill="#666666">[timestamp with time zone]</text>
<polygon fill="none" stroke="#000000" points="499,-162.5 499,-192.5 889,-192.5 889,-162.5 499,-162.5"/>
<text text-anchor="start" x="506" y="-173.9" font-family="Arial" font-size="14.00" fill="#000000">password_digest </text>
<text text-anchor="start" x="614.9158" y="-173.9" font-family="Arial" font-size="14.00" fill="#666666">[varchar]</text>
<polygon fill="none" stroke="#000000" points="499,-132.5 499,-162.5 889,-162.5 889,-132.5 499,-132.5"/>
<text text-anchor="start" x="506" y="-143.9" font-family="Arial" font-size="14.00" fill="#000000">created_at </text>
<text text-anchor="start" x="576.028" y="-143.9" font-family="Arial" font-size="14.00" fill="#666666">[timestamp with time zone]</text>
<polygon fill="none" stroke="#000000" points="499,-102.5 499,-132.5 889,-132.5 889,-102.5 499,-102.5"/>
<text text-anchor="start" x="506" y="-113.9" font-family="Arial" font-size="14.00" fill="#000000">updated_at </text>
<text text-anchor="start" x="579.9326" y="-113.9" font-family="Arial" font-size="14.00" fill="#666666">[timestamp with time zone]</text>
<polygon fill="none" stroke="#000000" points="499,-72.5 499,-102.5 889,-102.5 889,-72.5 499,-72.5"/>
<text text-anchor="start" x="506" y="-83.9" font-family="Arial" font-size="14.00" fill="#000000">last_sign_in_at </text>
<text text-anchor="start" x="603.2524" y="-83.9" font-family="Arial" font-size="14.00" fill="#666666">[timestamp with time zone]</text>
<polygon fill="none" stroke="#000000" points="499,-42.5 499,-72.5 889,-72.5 889,-42.5 499,-42.5"/>
<text text-anchor="start" x="506" y="-53.9" font-family="Arial" font-size="14.00" fill="#000000">unverified_email </text>
<text text-anchor="start" x="611.7896" y="-53.9" font-family="Arial" font-size="14.00" fill="#666666">[varchar(100)]</text>
</g>
<!-- public.entries&#45;&gt;public.users -->
<g id="edge2" class="edge">
<title>public.entries:user_id&#45;&gt;public.users:id</title>
<path fill="none" stroke="#000000" d="M617.1959,-696.3956C657.383,-686.8305 636.1127,-617.3917 607,-577 577.4157,-535.954 528.5843,-582.046 499,-541 474.702,-507.2884 457.4444,-447.5 499,-447.5"/>
<polygon fill="#000000" stroke="#000000" points="616.9419,-696.4231 606.5154,-693.0262 611.9709,-696.9615 607,-697.5 607,-697.5 607,-697.5 611.9709,-696.9615 607.4846,-701.9738 616.9419,-696.4231 616.9419,-696.4231"/>
<text text-anchor="start" x="614.329" y="-707.5" font-family="Arial" font-size="10.00" fill="#000000">FOREIGN KEY (user_id) REFERENCES users(id) ON DELETE SET NULL</text>
</g>
</g>
</svg>
