<?xml version="1.0" encoding="UTF-8" standalone="no"?>
<!DOCTYPE svg PUBLIC "-//W3C//DTD SVG 1.1//EN"
 "http://www.w3.org/Graphics/SVG/1.1/DTD/svg11.dtd">
<!-- Generated by graphviz version 2.40.1 (20161225.0304)
 -->
<!-- Title: public.users Pages: 1 -->
<svg width="3081pt" height="1192pt"
 viewBox="0.00 0.00 3081.00 1192.00" xmlns="http://www.w3.org/2000/svg" xmlns:xlink="http://www.w3.org/1999/xlink">
<g id="graph0" class="graph" transform="scale(1 1) rotate(0) translate(4 1188)">
<title>public.users</title>
<polygon fill="#ffffff" stroke="transparent" points="-4,4 -4,-1188 3077,-1188 3077,4 -4,4"/>
<!-- public.users -->
<g id="node1" class="node">
<title>public.users</title>
<polygon fill="#efefef" stroke="transparent" points="1455,-465.5 1455,-500.5 1845,-500.5 1845,-465.5 1455,-465.5"/>
<polygon fill="none" stroke="#000000" points="1455,-465.5 1455,-500.5 1845,-500.5 1845,-465.5 1455,-465.5"/>
<text text-anchor="start" x="1553.3662" y="-478.3" font-family="Arial Bold" font-size="18.00" fill="#000000">public.users</text>
<text text-anchor="start" x="1649.38" y="-478.3" font-family="Arial" font-size="14.00" fill="#000000"> </text>
<text text-anchor="start" x="1653.2706" y="-478.3" font-family="Arial" font-size="14.00" fill="#666666">[BASE TABLE]</text>
<polygon fill="none" stroke="#000000" points="1455,-435.5 1455,-465.5 1845,-465.5 1845,-435.5 1455,-435.5"/>
<text text-anchor="start" x="1462" y="-446.9" font-family="Arial" font-size="14.00" fill="#000000">id </text>
<text text-anchor="start" x="1476.7798" y="-446.9" font-family="Arial" font-size="14.00" fill="#666666">[bigint]</text>
<polygon fill="none" stroke="#000000" points="1455,-405.5 1455,-435.5 1845,-435.5 1845,-405.5 1455,-405.5"/>
<text text-anchor="start" x="1462" y="-416.9" font-family="Arial" font-size="14.00" fill="#000000">name </text>
<text text-anchor="start" x="1500.899" y="-416.9" font-family="Arial" font-size="14.00" fill="#666666">[varchar(50)]</text>
<polygon fill="none" stroke="#000000" points="1455,-375.5 1455,-405.5 1845,-405.5 1845,-375.5 1455,-375.5"/>
<text text-anchor="start" x="1462" y="-386.9" font-family="Arial" font-size="14.00" fill="#000000">email </text>
<text text-anchor="start" x="1499.3296" y="-386.9" font-family="Arial" font-size="14.00" fill="#666666">[varchar(100)]</text>
<polygon fill="none" stroke="#000000" points="1455,-345.5 1455,-375.5 1845,-375.5 1845,-345.5 1455,-345.5"/>
<text text-anchor="start" x="1462" y="-356.9" font-family="Arial" font-size="14.00" fill="#000000">role </text>
<text text-anchor="start" x="1489.223" y="-356.9" font-family="Arial" font-size="14.00" fill="#666666">[user_role]</text>
<polygon fill="none" stroke="#000000" points="1455,-315.5 1455,-345.5 1845,-345.5 1845,-315.5 1455,-315.5"/>
<text text-anchor="start" x="1462" y="-326.9" font-family="Arial" font-size="14.00" fill="#000000">avatar </text>
<text text-anchor="start" x="1504.7896" y="-326.9" font-family="Arial" font-size="14.00" fill="#666666">[varchar]</text>
<polygon fill="none" stroke="#000000" points="1455,-285.5 1455,-315.5 1845,-315.5 1845,-285.5 1455,-285.5"/>
<text text-anchor="start" x="1462" y="-296.9" font-family="Arial" font-size="14.00" fill="#000000">introduction </text>
<text text-anchor="start" x="1538.2412" y="-296.9" font-family="Arial" font-size="14.00" fill="#666666">[varchar(4000)]</text>
<polygon fill="none" stroke="#000000" points="1455,-255.5 1455,-285.5 1845,-285.5 1845,-255.5 1455,-255.5"/>
<text text-anchor="start" x="1462" y="-266.9" font-family="Arial" font-size="14.00" fill="#000000">email_verification_status </text>
<text text-anchor="start" x="1619.1332" y="-266.9" font-family="Arial" font-size="14.00" fill="#666666">[email_verification_status]</text>
<polygon fill="none" stroke="#000000" points="1455,-225.5 1455,-255.5 1845,-255.5 1845,-225.5 1455,-225.5"/>
<text text-anchor="start" x="1462" y="-236.9" font-family="Arial" font-size="14.00" fill="#000000">email_verification_pin </text>
<text text-anchor="start" x="1600.4586" y="-236.9" font-family="Arial" font-size="14.00" fill="#666666">[varchar]</text>
<polygon fill="none" stroke="#000000" points="1455,-195.5 1455,-225.5 1845,-225.5 1845,-195.5 1455,-195.5"/>
<text text-anchor="start" x="1461.7518" y="-206.9" font-family="Arial" font-size="14.00" fill="#000000">email_verification_pin_expires_at </text>
<text text-anchor="start" x="1672.5638" y="-206.9" font-family="Arial" font-size="14.00" fill="#666666">[timestamp with time zone]</text>
<polygon fill="none" stroke="#000000" points="1455,-165.5 1455,-195.5 1845,-195.5 1845,-165.5 1455,-165.5"/>
<text text-anchor="start" x="1462" y="-176.9" font-family="Arial" font-size="14.00" fill="#000000">password_digest </text>
<text text-anchor="start" x="1570.9158" y="-176.9" font-family="Arial" font-size="14.00" fill="#666666">[varchar]</text>
<polygon fill="none" stroke="#000000" points="1455,-135.5 1455,-165.5 1845,-165.5 1845,-135.5 1455,-135.5"/>
<text text-anchor="start" x="1462" y="-146.9" font-family="Arial" font-size="14.00" fill="#000000">created_at </text>
<text text-anchor="start" x="1532.028" y="-146.9" font-family="Arial" font-size="14.00" fill="#666666">[timestamp with time zone]</text>
<polygon fill="none" stroke="#000000" points="1455,-105.5 1455,-135.5 1845,-135.5 1845,-105.5 1455,-105.5"/>
<text text-anchor="start" x="1462" y="-116.9" font-family="Arial" font-size="14.00" fill="#000000">updated_at </text>
<text text-anchor="start" x="1535.9326" y="-116.9" font-family="Arial" font-size="14.00" fill="#666666">[timestamp with time zone]</text>
<polygon fill="none" stroke="#000000" points="1455,-75.5 1455,-105.5 1845,-105.5 1845,-75.5 1455,-75.5"/>
<text text-anchor="start" x="1462" y="-86.9" font-family="Arial" font-size="14.00" fill="#000000">last_sign_in_at </text>
<text text-anchor="start" x="1559.2524" y="-86.9" font-family="Arial" font-size="14.00" fill="#666666">[timestamp with time zone]</text>
<polygon fill="none" stroke="#000000" points="1455,-45.5 1455,-75.5 1845,-75.5 1845,-45.5 1455,-45.5"/>
<text text-anchor="start" x="1462" y="-56.9" font-family="Arial" font-size="14.00" fill="#000000">unverified_email </text>
<text text-anchor="start" x="1567.7896" y="-56.9" font-family="Arial" font-size="14.00" fill="#666666">[varchar(100)]</text>
<polygon fill="none" stroke="#000000" stroke-width="3" points="1453.5,-44.5 1453.5,-502.5 1846.5,-502.5 1846.5,-44.5 1453.5,-44.5"/>
</g>
<!-- public.recruitments -->
<g id="node2" class="node">
<title>public.recruitments</title>
<polygon fill="#efefef" stroke="transparent" points="85,-1105.5 85,-1140.5 347,-1140.5 347,-1105.5 85,-1105.5"/>
<polygon fill="none" stroke="#000000" points="85,-1105.5 85,-1140.5 347,-1140.5 347,-1105.5 85,-1105.5"/>
<text text-anchor="start" x="91.8685" y="-1118.3" font-family="Arial Bold" font-size="18.00" fill="#000000">public.recruitments</text>
<text text-anchor="start" x="242.8777" y="-1118.3" font-family="Arial" font-size="14.00" fill="#000000"> </text>
<text text-anchor="start" x="246.7683" y="-1118.3" font-family="Arial" font-size="14.00" fill="#666666">[BASE TABLE]</text>
<polygon fill="none" stroke="#000000" points="85,-1075.5 85,-1105.5 347,-1105.5 347,-1075.5 85,-1075.5"/>
<text text-anchor="start" x="92" y="-1086.9" font-family="Arial" font-size="14.00" fill="#000000">id </text>
<text text-anchor="start" x="106.7798" y="-1086.9" font-family="Arial" font-size="14.00" fill="#666666">[bigint]</text>
<polygon fill="none" stroke="#000000" points="85,-1045.5 85,-1075.5 347,-1075.5 347,-1045.5 85,-1045.5"/>
<text text-anchor="start" x="92" y="-1056.9" font-family="Arial" font-size="14.00" fill="#000000">title </text>
<text text-anchor="start" x="117.6676" y="-1056.9" font-family="Arial" font-size="14.00" fill="#666666">[varchar(60)]</text>
<polygon fill="none" stroke="#000000" points="85,-1015.5 85,-1045.5 347,-1045.5 347,-1015.5 85,-1015.5"/>
<text text-anchor="start" x="92" y="-1026.9" font-family="Arial" font-size="14.00" fill="#000000">type </text>
<text text-anchor="start" x="122.3464" y="-1026.9" font-family="Arial" font-size="14.00" fill="#666666">[varchar]</text>
<polygon fill="none" stroke="#000000" points="85,-985.5 85,-1015.5 347,-1015.5 347,-985.5 85,-985.5"/>
<text text-anchor="start" x="92" y="-996.9" font-family="Arial" font-size="14.00" fill="#000000">venue </text>
<text text-anchor="start" x="134.021" y="-996.9" font-family="Arial" font-size="14.00" fill="#666666">[varchar]</text>
<polygon fill="none" stroke="#000000" points="85,-955.5 85,-985.5 347,-985.5 347,-955.5 85,-955.5"/>
<text text-anchor="start" x="92" y="-966.9" font-family="Arial" font-size="14.00" fill="#000000">start_at </text>
<text text-anchor="start" x="142.5708" y="-966.9" font-family="Arial" font-size="14.00" fill="#666666">[timestamp with time zone]</text>
<polygon fill="none" stroke="#000000" points="85,-925.5 85,-955.5 347,-955.5 347,-925.5 85,-925.5"/>
<text text-anchor="start" x="92" y="-936.9" font-family="Arial" font-size="14.00" fill="#000000">detail </text>
<text text-anchor="start" x="129.3422" y="-936.9" font-family="Arial" font-size="14.00" fill="#666666">[varchar(10000)]</text>
<polygon fill="none" stroke="#000000" points="85,-895.5 85,-925.5 347,-925.5 347,-895.5 85,-895.5"/>
<text text-anchor="start" x="92" y="-906.9" font-family="Arial" font-size="14.00" fill="#000000">closing_at </text>
<text text-anchor="start" x="158.9074" y="-906.9" font-family="Arial" font-size="14.00" fill="#666666">[timestamp with time zone]</text>
<polygon fill="none" stroke="#000000" points="85,-865.5 85,-895.5 347,-895.5 347,-865.5 85,-865.5"/>
<text text-anchor="start" x="92" y="-876.9" font-family="Arial" font-size="14.00" fill="#000000">competition_id </text>
<text text-anchor="start" x="186.1304" y="-876.9" font-family="Arial" font-size="14.00" fill="#666666">[bigint]</text>
<polygon fill="none" stroke="#000000" points="85,-835.5 85,-865.5 347,-865.5 347,-835.5 85,-835.5"/>
<text text-anchor="start" x="92" y="-846.9" font-family="Arial" font-size="14.00" fill="#000000">prefecture_id </text>
<text text-anchor="start" x="177.5778" y="-846.9" font-family="Arial" font-size="14.00" fill="#666666">[bigint]</text>
<polygon fill="none" stroke="#000000" points="85,-805.5 85,-835.5 347,-835.5 347,-805.5 85,-805.5"/>
<text text-anchor="start" x="92" y="-816.9" font-family="Arial" font-size="14.00" fill="#000000">user_id </text>
<text text-anchor="start" x="141.7882" y="-816.9" font-family="Arial" font-size="14.00" fill="#666666">[bigint]</text>
<polygon fill="none" stroke="#000000" points="85,-775.5 85,-805.5 347,-805.5 347,-775.5 85,-775.5"/>
<text text-anchor="start" x="92" y="-786.9" font-family="Arial" font-size="14.00" fill="#000000">created_at </text>
<text text-anchor="start" x="162.028" y="-786.9" font-family="Arial" font-size="14.00" fill="#666666">[timestamp with time zone]</text>
<polygon fill="none" stroke="#000000" points="85,-745.5 85,-775.5 347,-775.5 347,-745.5 85,-745.5"/>
<text text-anchor="start" x="92" y="-756.9" font-family="Arial" font-size="14.00" fill="#000000">updated_at </text>
<text text-anchor="start" x="165.9326" y="-756.9" font-family="Arial" font-size="14.00" fill="#666666">[timestamp with time zone]</text>
<polygon fill="none" stroke="#000000" points="85,-715.5 85,-745.5 347,-745.5 347,-715.5 85,-715.5"/>
<text text-anchor="start" x="92" y="-726.9" font-family="Arial" font-size="14.00" fill="#000000">location_lat </text>
<text text-anchor="start" x="166.6872" y="-726.9" font-family="Arial" font-size="14.00" fill="#666666">[double precision]</text>
<polygon fill="none" stroke="#000000" points="85,-685.5 85,-715.5 347,-715.5 347,-685.5 85,-685.5"/>
<text text-anchor="start" x="92" y="-696.9" font-family="Arial" font-size="14.00" fill="#000000">location_lng </text>
<text text-anchor="start" x="170.5792" y="-696.9" font-family="Arial" font-size="14.00" fill="#666666">[double precision]</text>
<polygon fill="none" stroke="#000000" points="85,-655.5 85,-685.5 347,-685.5 347,-655.5 85,-655.5"/>
<text text-anchor="start" x="92" y="-666.9" font-family="Arial" font-size="14.00" fill="#000000">status </text>
<text text-anchor="start" x="133.237" y="-666.9" font-family="Arial" font-size="14.00" fill="#666666">[recruitment_status]</text>
<polygon fill="none" stroke="#000000" points="85,-625.5 85,-655.5 347,-655.5 347,-625.5 85,-625.5"/>
<text text-anchor="start" x="91.5302" y="-636.9" font-family="Arial" font-size="14.00" fill="#000000">published_at </text>
<text text-anchor="start" x="174.7854" y="-636.9" font-family="Arial" font-size="14.00" fill="#666666">[timestamp with time zone]</text>
</g>
<!-- public.recruitments&#45;&gt;public.users -->
<g id="edge1" class="edge">
<title>public.recruitments:user_id&#45;&gt;public.users:id</title>
<path fill="none" stroke="#000000" d="M357.2435,-819.9332C446.0213,-809.3528 321.934,-653.3732 399,-583 486.3235,-503.2601 1336.7466,-450.5 1455,-450.5"/>
<polygon fill="#000000" stroke="#000000" points="356.9847,-819.9475 346.7514,-816.0069 351.9924,-820.2237 347,-820.5 347,-820.5 347,-820.5 351.9924,-820.2237 347.2486,-824.9931 356.9847,-819.9475 356.9847,-819.9475"/>
<text text-anchor="start" x="7.0535" y="-830.5" font-family="Arial" font-size="10.00" fill="#000000">FOREIGN KEY (user_id) REFERENCES users(id) ON DELETE CASCADE</text>
</g>
<!-- public.stocks -->
<g id="node3" class="node">
<title>public.stocks</title>
<polygon fill="#efefef" stroke="transparent" points="452,-940.5 452,-975.5 705,-975.5 705,-940.5 452,-940.5"/>
<polygon fill="none" stroke="#000000" points="452,-940.5 452,-975.5 705,-975.5 705,-940.5 452,-940.5"/>
<text text-anchor="start" x="478.3643" y="-953.3" font-family="Arial Bold" font-size="18.00" fill="#000000">public.stocks</text>
<text text-anchor="start" x="581.3819" y="-953.3" font-family="Arial" font-size="14.00" fill="#000000"> </text>
<text text-anchor="start" x="585.2725" y="-953.3" font-family="Arial" font-size="14.00" fill="#666666">[BASE TABLE]</text>
<polygon fill="none" stroke="#000000" points="452,-910.5 452,-940.5 705,-940.5 705,-910.5 452,-910.5"/>
<text text-anchor="start" x="459" y="-921.9" font-family="Arial" font-size="14.00" fill="#000000">id </text>
<text text-anchor="start" x="473.7798" y="-921.9" font-family="Arial" font-size="14.00" fill="#666666">[bigint]</text>
<polygon fill="none" stroke="#000000" points="452,-880.5 452,-910.5 705,-910.5 705,-880.5 452,-880.5"/>
<text text-anchor="start" x="459" y="-891.9" font-family="Arial" font-size="14.00" fill="#000000">recruitment_id </text>
<text text-anchor="start" x="551.5624" y="-891.9" font-family="Arial" font-size="14.00" fill="#666666">[bigint]</text>
<polygon fill="none" stroke="#000000" points="452,-850.5 452,-880.5 705,-880.5 705,-850.5 452,-850.5"/>
<text text-anchor="start" x="459" y="-861.9" font-family="Arial" font-size="14.00" fill="#000000">user_id </text>
<text text-anchor="start" x="508.7882" y="-861.9" font-family="Arial" font-size="14.00" fill="#666666">[bigint]</text>
<polygon fill="none" stroke="#000000" points="452,-820.5 452,-850.5 705,-850.5 705,-820.5 452,-820.5"/>
<text text-anchor="start" x="459" y="-831.9" font-family="Arial" font-size="14.00" fill="#000000">created_at </text>
<text text-anchor="start" x="529.028" y="-831.9" font-family="Arial" font-size="14.00" fill="#666666">[timestamp with time zone]</text>
<polygon fill="none" stroke="#000000" points="452,-790.5 452,-820.5 705,-820.5 705,-790.5 452,-790.5"/>
<text text-anchor="start" x="458.6915" y="-801.9" font-family="Arial" font-size="14.00" fill="#000000">updated_at </text>
<text text-anchor="start" x="532.6241" y="-801.9" font-family="Arial" font-size="14.00" fill="#666666">[timestamp with time zone]</text>
</g>
<!-- public.stocks&#45;&gt;public.users -->
<g id="edge2" class="edge">
<title>public.stocks:user_id&#45;&gt;public.users:id</title>
<path fill="none" stroke="#000000" d="M715.1449,-865.0449C823.3653,-854.7124 668.7219,-671.043 756,-583 867.3043,-470.7201 1296.9006,-450.5 1455,-450.5"/>
<polygon fill="#000000" stroke="#000000" points="714.99,-865.0518 704.7983,-861.0045 709.995,-865.2759 705,-865.5 705,-865.5 705,-865.5 709.995,-865.2759 705.2017,-869.9955 714.99,-865.0518 714.99,-865.0518"/>
<text text-anchor="start" x="365.0535" y="-875.5" font-family="Arial" font-size="10.00" fill="#000000">FOREIGN KEY (user_id) REFERENCES users(id) ON DELETE CASCADE</text>
</g>
<!-- public.applicants -->
<g id="node4" class="node">
<title>public.applicants</title>
<polygon fill="#efefef" stroke="transparent" points="809,-955.5 809,-990.5 1062,-990.5 1062,-955.5 809,-955.5"/>
<polygon fill="none" stroke="#000000" points="809,-955.5 809,-990.5 1062,-990.5 1062,-955.5 809,-955.5"/>
<text text-anchor="start" x="820.3577" y="-968.3" font-family="Arial Bold" font-size="18.00" fill="#000000">public.applicants</text>
<text text-anchor="start" x="953.3885" y="-968.3" font-family="Arial" font-size="14.00" fill="#000000"> </text>
<text text-anchor="start" x="957.2791" y="-968.3" font-family="Arial" font-size="14.00" fill="#666666">[BASE TABLE]</text>
<polygon fill="none" stroke="#000000" points="809,-925.5 809,-955.5 1062,-955.5 1062,-925.5 809,-925.5"/>
<text text-anchor="start" x="816" y="-936.9" font-family="Arial" font-size="14.00" fill="#000000">id </text>
<text text-anchor="start" x="830.7798" y="-936.9" font-family="Arial" font-size="14.00" fill="#666666">[bigint]</text>
<polygon fill="none" stroke="#000000" points="809,-895.5 809,-925.5 1062,-925.5 1062,-895.5 809,-895.5"/>
<text text-anchor="start" x="816" y="-906.9" font-family="Arial" font-size="14.00" fill="#000000">recruitment_id </text>
<text text-anchor="start" x="908.5624" y="-906.9" font-family="Arial" font-size="14.00" fill="#666666">[bigint]</text>
<polygon fill="none" stroke="#000000" points="809,-865.5 809,-895.5 1062,-895.5 1062,-865.5 809,-865.5"/>
<text text-anchor="start" x="816" y="-876.9" font-family="Arial" font-size="14.00" fill="#000000">user_id </text>
<text text-anchor="start" x="865.7882" y="-876.9" font-family="Arial" font-size="14.00" fill="#666666">[bigint]</text>
<polygon fill="none" stroke="#000000" points="809,-835.5 809,-865.5 1062,-865.5 1062,-835.5 809,-835.5"/>
<text text-anchor="start" x="816" y="-846.9" font-family="Arial" font-size="14.00" fill="#000000">created_at </text>
<text text-anchor="start" x="886.028" y="-846.9" font-family="Arial" font-size="14.00" fill="#666666">[timestamp with time zone]</text>
<polygon fill="none" stroke="#000000" points="809,-805.5 809,-835.5 1062,-835.5 1062,-805.5 809,-805.5"/>
<text text-anchor="start" x="815.6915" y="-816.9" font-family="Arial" font-size="14.00" fill="#000000">updated_at </text>
<text text-anchor="start" x="889.6241" y="-816.9" font-family="Arial" font-size="14.00" fill="#666666">[timestamp with time zone]</text>
<polygon fill="none" stroke="#000000" points="809,-775.5 809,-805.5 1062,-805.5 1062,-775.5 809,-775.5"/>
<text text-anchor="start" x="816" y="-786.9" font-family="Arial" font-size="14.00" fill="#000000">message </text>
<text text-anchor="start" x="876.6816" y="-786.9" font-family="Arial" font-size="14.00" fill="#666666">[varchar(1000)]</text>
</g>
<!-- public.applicants&#45;&gt;public.users -->
<g id="edge3" class="edge">
<title>public.applicants:user_id&#45;&gt;public.users:id</title>
<path fill="none" stroke="#000000" d="M1071.9146,-878.3685C1122.9751,-854.2193 1072.8605,-632.0847 1113,-583 1216.1915,-456.812 1291.9911,-450.5 1455,-450.5"/>
<polygon fill="#000000" stroke="#000000" points="1071.7766,-878.3981 1061.0541,-876.1005 1066.8883,-879.449 1062,-880.5 1062,-880.5 1062,-880.5 1066.8883,-879.449 1062.9459,-884.8995 1071.7766,-878.3981 1071.7766,-878.3981"/>
<text text-anchor="start" x="1069.0535" y="-890.5" font-family="Arial" font-size="10.00" fill="#000000">FOREIGN KEY (user_id) REFERENCES users(id) ON DELETE CASCADE</text>
</g>
<!-- public.messages -->
<g id="node5" class="node">
<title>public.messages</title>
<polygon fill="#efefef" stroke="transparent" points="1166,-970.5 1166,-1005.5 1419,-1005.5 1419,-970.5 1166,-970.5"/>
<polygon fill="none" stroke="#000000" points="1166,-970.5 1166,-1005.5 1419,-1005.5 1419,-970.5 1166,-970.5"/>
<text text-anchor="start" x="1176.86" y="-983.3" font-family="Arial Bold" font-size="18.00" fill="#000000">public.messages</text>
<text text-anchor="start" x="1310.8862" y="-983.3" font-family="Arial" font-size="14.00" fill="#000000"> </text>
<text text-anchor="start" x="1314.7768" y="-983.3" font-family="Arial" font-size="14.00" fill="#666666">[BASE TABLE]</text>
<polygon fill="none" stroke="#000000" points="1166,-940.5 1166,-970.5 1419,-970.5 1419,-940.5 1166,-940.5"/>
<text text-anchor="start" x="1173" y="-951.9" font-family="Arial" font-size="14.00" fill="#000000">id </text>
<text text-anchor="start" x="1187.7798" y="-951.9" font-family="Arial" font-size="14.00" fill="#666666">[bigint]</text>
<polygon fill="none" stroke="#000000" points="1166,-910.5 1166,-940.5 1419,-940.5 1419,-910.5 1166,-910.5"/>
<text text-anchor="start" x="1173" y="-921.9" font-family="Arial" font-size="14.00" fill="#000000">content </text>
<text text-anchor="start" x="1222.8022" y="-921.9" font-family="Arial" font-size="14.00" fill="#666666">[varchar(1000)]</text>
<polygon fill="none" stroke="#000000" points="1166,-880.5 1166,-910.5 1419,-910.5 1419,-880.5 1166,-880.5"/>
<text text-anchor="start" x="1173" y="-891.9" font-family="Arial" font-size="14.00" fill="#000000">room_id </text>
<text text-anchor="start" x="1227.4488" y="-891.9" font-family="Arial" font-size="14.00" fill="#666666">[bigint]</text>
<polygon fill="none" stroke="#000000" points="1166,-850.5 1166,-880.5 1419,-880.5 1419,-850.5 1166,-850.5"/>
<text text-anchor="start" x="1173" y="-861.9" font-family="Arial" font-size="14.00" fill="#000000">user_id </text>
<text text-anchor="start" x="1222.7882" y="-861.9" font-family="Arial" font-size="14.00" fill="#666666">[bigint]</text>
<polygon fill="none" stroke="#000000" points="1166,-820.5 1166,-850.5 1419,-850.5 1419,-820.5 1166,-820.5"/>
<text text-anchor="start" x="1173" y="-831.9" font-family="Arial" font-size="14.00" fill="#000000">applicant_id </text>
<text text-anchor="start" x="1251.5792" y="-831.9" font-family="Arial" font-size="14.00" fill="#666666">[bigint]</text>
<polygon fill="none" stroke="#000000" points="1166,-790.5 1166,-820.5 1419,-820.5 1419,-790.5 1166,-790.5"/>
<text text-anchor="start" x="1173" y="-801.9" font-family="Arial" font-size="14.00" fill="#000000">created_at </text>
<text text-anchor="start" x="1243.028" y="-801.9" font-family="Arial" font-size="14.00" fill="#666666">[timestamp with time zone]</text>
<polygon fill="none" stroke="#000000" points="1166,-760.5 1166,-790.5 1419,-790.5 1419,-760.5 1166,-760.5"/>
<text text-anchor="start" x="1172.6915" y="-771.9" font-family="Arial" font-size="14.00" fill="#000000">updated_at </text>
<text text-anchor="start" x="1246.6241" y="-771.9" font-family="Arial" font-size="14.00" fill="#666666">[timestamp with time zone]</text>
</g>
<!-- public.messages&#45;&gt;public.users -->
<g id="edge4" class="edge">
<title>public.messages:user_id&#45;&gt;public.users:id</title>
<path fill="none" stroke="#000000" d="M1429.2038,-863.4628C1499.7413,-832.1552 1366.2282,-450.5 1455,-450.5"/>
<polygon fill="#000000" stroke="#000000" points="1428.8065,-863.5421 1418.1189,-861.0871 1423.9032,-864.521 1419,-865.5 1419,-865.5 1419,-865.5 1423.9032,-864.521 1419.8811,-869.9129 1428.8065,-863.5421 1428.8065,-863.5421"/>
<text text-anchor="start" x="1426.329" y="-875.5" font-family="Arial" font-size="10.00" fill="#000000">FOREIGN KEY (user_id) REFERENCES users(id) ON DELETE SET NULL</text>
</g>
<!-- public.entries -->
<g id="node6" class="node">
<title>public.entries</title>
<polygon fill="#efefef" stroke="transparent" points="1523,-940.5 1523,-975.5 1776,-975.5 1776,-940.5 1523,-940.5"/>
<polygon fill="none" stroke="#000000" points="1523,-940.5 1523,-975.5 1776,-975.5 1776,-940.5 1523,-940.5"/>
<text text-anchor="start" x="1547.8649" y="-953.3" font-family="Arial Bold" font-size="18.00" fill="#000000">public.entries</text>
<text text-anchor="start" x="1653.8813" y="-953.3" font-family="Arial" font-size="14.00" fill="#000000"> </text>
<text text-anchor="start" x="1657.7719" y="-953.3" font-family="Arial" font-size="14.00" fill="#666666">[BASE TABLE]</text>
<polygon fill="none" stroke="#000000" points="1523,-910.5 1523,-940.5 1776,-940.5 1776,-910.5 1523,-910.5"/>
<text text-anchor="start" x="1530" y="-921.9" font-family="Arial" font-size="14.00" fill="#000000">id </text>
<text text-anchor="start" x="1544.7798" y="-921.9" font-family="Arial" font-size="14.00" fill="#666666">[bigint]</text>
<polygon fill="none" stroke="#000000" points="1523,-880.5 1523,-910.5 1776,-910.5 1776,-880.5 1523,-880.5"/>
<text text-anchor="start" x="1530" y="-891.9" font-family="Arial" font-size="14.00" fill="#000000">room_id </text>
<text text-anchor="start" x="1584.4488" y="-891.9" font-family="Arial" font-size="14.00" fill="#666666">[bigint]</text>
<polygon fill="none" stroke="#000000" points="1523,-850.5 1523,-880.5 1776,-880.5 1776,-850.5 1523,-850.5"/>
<text text-anchor="start" x="1530" y="-861.9" font-family="Arial" font-size="14.00" fill="#000000">user_id </text>
<text text-anchor="start" x="1579.7882" y="-861.9" font-family="Arial" font-size="14.00" fill="#666666">[bigint]</text>
<polygon fill="none" stroke="#000000" points="1523,-820.5 1523,-850.5 1776,-850.5 1776,-820.5 1523,-820.5"/>
<text text-anchor="start" x="1530" y="-831.9" font-family="Arial" font-size="14.00" fill="#000000">created_at </text>
<text text-anchor="start" x="1600.028" y="-831.9" font-family="Arial" font-size="14.00" fill="#666666">[timestamp with time zone]</text>
<polygon fill="none" stroke="#000000" points="1523,-790.5 1523,-820.5 1776,-820.5 1776,-790.5 1523,-790.5"/>
<text text-anchor="start" x="1529.6915" y="-801.9" font-family="Arial" font-size="14.00" fill="#000000">updated_at </text>
<text text-anchor="start" x="1603.6241" y="-801.9" font-family="Arial" font-size="14.00" fill="#666666">[timestamp with time zone]</text>
</g>
<!-- public.entries&#45;&gt;public.users -->
<g id="edge5" class="edge">
<title>public.entries:user_id&#45;&gt;public.users:id</title>
<path fill="none" stroke="#000000" d="M1786.3527,-864.3533C1824.2344,-854.9841 1799.419,-790.2956 1776,-748 1694.4618,-600.7392 1536.5382,-694.2608 1455,-547 1434.2246,-509.4788 1412.1111,-450.5 1455,-450.5"/>
<polygon fill="#000000" stroke="#000000" points="1785.9392,-864.399 1775.5046,-861.0274 1780.9696,-864.9495 1776,-865.5 1776,-865.5 1776,-865.5 1780.9696,-864.9495 1776.4954,-869.9726 1785.9392,-864.399 1785.9392,-864.399"/>
<text text-anchor="start" x="1783.329" y="-875.5" font-family="Arial" font-size="10.00" fill="#000000">FOREIGN KEY (user_id) REFERENCES users(id) ON DELETE SET NULL</text>
</g>
<!-- public.room_read_managements -->
<g id="node7" class="node">
<title>public.room_read_managements</title>
<polygon fill="#efefef" stroke="transparent" points="1880,-955.5 1880,-990.5 2254,-990.5 2254,-955.5 1880,-955.5"/>
<polygon fill="none" stroke="#000000" points="1880,-955.5 1880,-990.5 2254,-990.5 2254,-955.5 1880,-955.5"/>
<text text-anchor="start" x="1886.8435" y="-968.3" font-family="Arial Bold" font-size="18.00" fill="#000000">public.room_read_managements</text>
<text text-anchor="start" x="2149.9027" y="-968.3" font-family="Arial" font-size="14.00" fill="#000000"> </text>
<text text-anchor="start" x="2153.7933" y="-968.3" font-family="Arial" font-size="14.00" fill="#666666">[BASE TABLE]</text>
<polygon fill="none" stroke="#000000" points="1880,-925.5 1880,-955.5 2254,-955.5 2254,-925.5 1880,-925.5"/>
<text text-anchor="start" x="1887" y="-936.9" font-family="Arial" font-size="14.00" fill="#000000">id </text>
<text text-anchor="start" x="1901.7798" y="-936.9" font-family="Arial" font-size="14.00" fill="#666666">[bigint]</text>
<polygon fill="none" stroke="#000000" points="1880,-895.5 1880,-925.5 2254,-925.5 2254,-895.5 1880,-895.5"/>
<text text-anchor="start" x="1887" y="-906.9" font-family="Arial" font-size="14.00" fill="#000000">last_read_at </text>
<text text-anchor="start" x="1967.9172" y="-906.9" font-family="Arial" font-size="14.00" fill="#666666">[timestamp with time zone]</text>
<polygon fill="none" stroke="#000000" points="1880,-865.5 1880,-895.5 2254,-895.5 2254,-865.5 1880,-865.5"/>
<text text-anchor="start" x="1887" y="-876.9" font-family="Arial" font-size="14.00" fill="#000000">room_id </text>
<text text-anchor="start" x="1941.4488" y="-876.9" font-family="Arial" font-size="14.00" fill="#666666">[bigint]</text>
<polygon fill="none" stroke="#000000" points="1880,-835.5 1880,-865.5 2254,-865.5 2254,-835.5 1880,-835.5"/>
<text text-anchor="start" x="1887" y="-846.9" font-family="Arial" font-size="14.00" fill="#000000">user_id </text>
<text text-anchor="start" x="1936.7882" y="-846.9" font-family="Arial" font-size="14.00" fill="#666666">[bigint]</text>
<polygon fill="none" stroke="#000000" points="1880,-805.5 1880,-835.5 2254,-835.5 2254,-805.5 1880,-805.5"/>
<text text-anchor="start" x="1887" y="-816.9" font-family="Arial" font-size="14.00" fill="#000000">created_at </text>
<text text-anchor="start" x="1957.028" y="-816.9" font-family="Arial" font-size="14.00" fill="#666666">[timestamp with time zone]</text>
<polygon fill="none" stroke="#000000" points="1880,-775.5 1880,-805.5 2254,-805.5 2254,-775.5 1880,-775.5"/>
<text text-anchor="start" x="1887" y="-786.9" font-family="Arial" font-size="14.00" fill="#000000">updated_at </text>
<text text-anchor="start" x="1960.9326" y="-786.9" font-family="Arial" font-size="14.00" fill="#666666">[timestamp with time zone]</text>
</g>
<!-- public.room_read_managements&#45;&gt;public.users -->
<g id="edge6" class="edge">
<title>public.room_read_managements:user_id&#45;&gt;public.users:id</title>
<path fill="none" stroke="#000000" d="M1870.1629,-848.5365C1802.148,-818.3604 1930.5688,-450.5 1845,-450.5"/>
<polygon fill="#000000" stroke="#000000" points="1870.1934,-848.5425 1879.1191,-854.9129 1875.0967,-849.5212 1880,-850.5 1880,-850.5 1880,-850.5 1875.0967,-849.5212 1880.8809,-846.0871 1870.1934,-848.5425 1870.1934,-848.5425"/>
<text text-anchor="start" x="1887.329" y="-834.5" font-family="Arial" font-size="10.00" fill="#000000">FOREIGN KEY (user_id) REFERENCES users(id) ON DELETE SET NULL</text>
</g>
<!-- public.relationships -->
<g id="node8" class="node">
<title>public.relationships</title>
<polygon fill="#efefef" stroke="transparent" points="2358,-940.5 2358,-975.5 2622,-975.5 2622,-940.5 2358,-940.5"/>
<polygon fill="none" stroke="#000000" points="2358,-940.5 2358,-975.5 2622,-975.5 2622,-940.5 2358,-940.5"/>
<text text-anchor="start" x="2364.8614" y="-953.3" font-family="Arial Bold" font-size="18.00" fill="#000000">public.relationships</text>
<text text-anchor="start" x="2517.8848" y="-953.3" font-family="Arial" font-size="14.00" fill="#000000"> </text>
<text text-anchor="start" x="2521.7754" y="-953.3" font-family="Arial" font-size="14.00" fill="#666666">[BASE TABLE]</text>
<polygon fill="none" stroke="#000000" points="2358,-910.5 2358,-940.5 2622,-940.5 2622,-910.5 2358,-910.5"/>
<text text-anchor="start" x="2365" y="-921.9" font-family="Arial" font-size="14.00" fill="#000000">id </text>
<text text-anchor="start" x="2379.7798" y="-921.9" font-family="Arial" font-size="14.00" fill="#666666">[bigint]</text>
<polygon fill="none" stroke="#000000" points="2358,-880.5 2358,-910.5 2622,-910.5 2622,-880.5 2358,-880.5"/>
<text text-anchor="start" x="2365" y="-891.9" font-family="Arial" font-size="14.00" fill="#000000">follower_id </text>
<text text-anchor="start" x="2435.7812" y="-891.9" font-family="Arial" font-size="14.00" fill="#666666">[bigint]</text>
<polygon fill="none" stroke="#000000" points="2358,-850.5 2358,-880.5 2622,-880.5 2622,-850.5 2358,-850.5"/>
<text text-anchor="start" x="2365" y="-861.9" font-family="Arial" font-size="14.00" fill="#000000">followed_id </text>
<text text-anchor="start" x="2438.9032" y="-861.9" font-family="Arial" font-size="14.00" fill="#666666">[bigint]</text>
<polygon fill="none" stroke="#000000" points="2358,-820.5 2358,-850.5 2622,-850.5 2622,-820.5 2358,-820.5"/>
<text text-anchor="start" x="2365" y="-831.9" font-family="Arial" font-size="14.00" fill="#000000">created_at </text>
<text text-anchor="start" x="2435.028" y="-831.9" font-family="Arial" font-size="14.00" fill="#666666">[timestamp with time zone]</text>
<polygon fill="none" stroke="#000000" points="2358,-790.5 2358,-820.5 2622,-820.5 2622,-790.5 2358,-790.5"/>
<text text-anchor="start" x="2365" y="-801.9" font-family="Arial" font-size="14.00" fill="#000000">updated_at </text>
<text text-anchor="start" x="2438.9326" y="-801.9" font-family="Arial" font-size="14.00" fill="#666666">[timestamp with time zone]</text>
</g>
<!-- public.relationships&#45;&gt;public.users -->
<g id="edge7" class="edge">
<title>public.relationships:followed_id&#45;&gt;public.users:id</title>
<path fill="none" stroke="#000000" d="M2347.8369,-865.0542C2239.2795,-854.9309 2389.3218,-674.9006 2306,-583 2234.4041,-504.0325 1951.5919,-450.5 1845,-450.5"/>
<polygon fill="#000000" stroke="#000000" points="2348.0096,-865.0617 2357.8028,-869.9957 2353.0048,-865.2809 2358,-865.5 2358,-865.5 2358,-865.5 2353.0048,-865.2809 2358.1972,-861.0043 2348.0096,-865.0617 2348.0096,-865.0617"/>
<text text-anchor="start" x="2365.441" y="-875.5" font-family="Arial" font-size="10.00" fill="#000000">FOREIGN KEY (followed_id) REFERENCES users(id) ON DELETE CASCADE</text>
</g>
<!-- public.relationships&#45;&gt;public.users -->
<g id="edge8" class="edge">
<title>public.relationships:follower_id&#45;&gt;public.users:id</title>
<path fill="none" stroke="#000000" d="M2347.9579,-893.3999C2294.1694,-868.661 2350.3672,-632.7864 2306,-583 2235.0836,-503.4217 1951.5919,-450.5 1845,-450.5"/>
<polygon fill="#000000" stroke="#000000" points="2348.2118,-893.4529 2357.0788,-899.9047 2353.1059,-894.4765 2358,-895.5 2358,-895.5 2358,-895.5 2353.1059,-894.4765 2358.9212,-891.0953 2348.2118,-893.4529 2348.2118,-893.4529"/>
<text text-anchor="start" x="2364.556" y="-905.5" font-family="Arial" font-size="10.00" fill="#000000">FOREIGN KEY (follower_id) REFERENCES users(id) ON DELETE CASCADE</text>
</g>
<!-- public.authentications -->
<g id="node9" class="node">
<title>public.authentications</title>
<polygon fill="#efefef" stroke="transparent" points="2726,-955.5 2726,-990.5 3010,-990.5 3010,-955.5 2726,-955.5"/>
<polygon fill="none" stroke="#000000" points="2726,-955.5 2726,-990.5 3010,-990.5 3010,-955.5 2726,-955.5"/>
<text text-anchor="start" x="2732.8462" y="-968.3" font-family="Arial Bold" font-size="18.00" fill="#000000">public.authentications</text>
<text text-anchor="start" x="2905.9" y="-968.3" font-family="Arial" font-size="14.00" fill="#000000"> </text>
<text text-anchor="start" x="2909.7906" y="-968.3" font-family="Arial" font-size="14.00" fill="#666666">[BASE TABLE]</text>
<polygon fill="none" stroke="#000000" points="2726,-925.5 2726,-955.5 3010,-955.5 3010,-925.5 2726,-925.5"/>
<text text-anchor="start" x="2733" y="-936.9" font-family="Arial" font-size="14.00" fill="#000000">id </text>
<text text-anchor="start" x="2747.7798" y="-936.9" font-family="Arial" font-size="14.00" fill="#666666">[bigint]</text>
<polygon fill="none" stroke="#000000" points="2726,-895.5 2726,-925.5 3010,-925.5 3010,-895.5 2726,-895.5"/>
<text text-anchor="start" x="2733" y="-906.9" font-family="Arial" font-size="14.00" fill="#000000">provider </text>
<text text-anchor="start" x="2787.4488" y="-906.9" font-family="Arial" font-size="14.00" fill="#666666">[auth_provider]</text>
<polygon fill="none" stroke="#000000" points="2726,-865.5 2726,-895.5 3010,-895.5 3010,-865.5 2726,-865.5"/>
<text text-anchor="start" x="2733" y="-876.9" font-family="Arial" font-size="14.00" fill="#000000">uid </text>
<text text-anchor="start" x="2755.5624" y="-876.9" font-family="Arial" font-size="14.00" fill="#666666">[varchar]</text>
<polygon fill="none" stroke="#000000" points="2726,-835.5 2726,-865.5 3010,-865.5 3010,-835.5 2726,-835.5"/>
<text text-anchor="start" x="2733" y="-846.9" font-family="Arial" font-size="14.00" fill="#000000">user_id </text>
<text text-anchor="start" x="2782.7882" y="-846.9" font-family="Arial" font-size="14.00" fill="#666666">[bigint]</text>
<polygon fill="none" stroke="#000000" points="2726,-805.5 2726,-835.5 3010,-835.5 3010,-805.5 2726,-805.5"/>
<text text-anchor="start" x="2733" y="-816.9" font-family="Arial" font-size="14.00" fill="#000000">created_at </text>
<text text-anchor="start" x="2803.028" y="-816.9" font-family="Arial" font-size="14.00" fill="#666666">[timestamp with time zone]</text>
<polygon fill="none" stroke="#000000" points="2726,-775.5 2726,-805.5 3010,-805.5 3010,-775.5 2726,-775.5"/>
<text text-anchor="start" x="2733" y="-786.9" font-family="Arial" font-size="14.00" fill="#000000">updated_at </text>
<text text-anchor="start" x="2806.9326" y="-786.9" font-family="Arial" font-size="14.00" fill="#666666">[timestamp with time zone]</text>
</g>
<!-- public.authentications&#45;&gt;public.users -->
<g id="edge9" class="edge">
<title>public.authentications:user_id&#45;&gt;public.users:id</title>
<path fill="none" stroke="#000000" d="M2715.7483,-850.0038C2614.1188,-839.4922 2758.4278,-664.6452 2674,-583 2539.8903,-453.3104 2031.5605,-450.5 1845,-450.5"/>
<polygon fill="#000000" stroke="#000000" points="2716.0117,-850.0165 2725.7824,-854.9947 2721.0058,-850.2583 2726,-850.5 2726,-850.5 2726,-850.5 2721.0058,-850.2583 2726.2176,-846.0053 2716.0117,-850.0165 2716.0117,-850.0165"/>
<text text-anchor="start" x="2733.0535" y="-860.5" font-family="Arial" font-size="10.00" fill="#000000">FOREIGN KEY (user_id) REFERENCES users(id) ON DELETE CASCADE</text>
</g>
</g>
</svg>
