<?xml version="1.0" encoding="UTF-8" standalone="no"?>
<!DOCTYPE svg PUBLIC "-//W3C//DTD SVG 1.1//EN"
 "http://www.w3.org/Graphics/SVG/1.1/DTD/svg11.dtd">
<!-- Generated by graphviz version 2.40.1 (20161225.0304)
 -->
<!-- Title: public.messages Pages: 1 -->
<svg width="1215pt" height="832pt"
 viewBox="0.00 0.00 1215.00 832.00" xmlns="http://www.w3.org/2000/svg" xmlns:xlink="http://www.w3.org/1999/xlink">
<g id="graph0" class="graph" transform="scale(1 1) rotate(0) translate(4 828)">
<title>public.messages</title>
<polygon fill="#ffffff" stroke="transparent" points="-4,4 -4,-828 1211,-828 1211,4 -4,4"/>
<!-- public.messages -->
<g id="node1" class="node">
<title>public.messages</title>
<polygon fill="#efefef" stroke="transparent" points="480.5,-742.5 480.5,-777.5 725.5,-777.5 725.5,-742.5 480.5,-742.5"/>
<polygon fill="none" stroke="#000000" points="480.5,-742.5 480.5,-777.5 725.5,-777.5 725.5,-742.5 480.5,-742.5"/>
<text text-anchor="start" x="487.36" y="-755.3" font-family="Arial Bold" font-size="18.00" fill="#000000">public.messages</text>
<text text-anchor="start" x="621.3862" y="-755.3" font-family="Arial" font-size="14.00" fill="#000000"> </text>
<text text-anchor="start" x="625.2768" y="-755.3" font-family="Arial" font-size="14.00" fill="#666666">[BASE TABLE]</text>
<polygon fill="none" stroke="#000000" points="480.5,-712.5 480.5,-742.5 725.5,-742.5 725.5,-712.5 480.5,-712.5"/>
<text text-anchor="start" x="487.5" y="-723.9" font-family="Arial" font-size="14.00" fill="#000000">id </text>
<text text-anchor="start" x="502.2798" y="-723.9" font-family="Arial" font-size="14.00" fill="#666666">[varchar]</text>
<polygon fill="none" stroke="#000000" points="480.5,-682.5 480.5,-712.5 725.5,-712.5 725.5,-682.5 480.5,-682.5"/>
<text text-anchor="start" x="487.5" y="-693.9" font-family="Arial" font-size="14.00" fill="#000000">content </text>
<text text-anchor="start" x="537.3022" y="-693.9" font-family="Arial" font-size="14.00" fill="#666666">[varchar(1000)]</text>
<polygon fill="none" stroke="#000000" points="480.5,-652.5 480.5,-682.5 725.5,-682.5 725.5,-652.5 480.5,-652.5"/>
<text text-anchor="start" x="487.5" y="-663.9" font-family="Arial" font-size="14.00" fill="#000000">room_id </text>
<text text-anchor="start" x="541.9488" y="-663.9" font-family="Arial" font-size="14.00" fill="#666666">[varchar]</text>
<polygon fill="none" stroke="#000000" points="480.5,-622.5 480.5,-652.5 725.5,-652.5 725.5,-622.5 480.5,-622.5"/>
<text text-anchor="start" x="487.5" y="-633.9" font-family="Arial" font-size="14.00" fill="#000000">user_id </text>
<text text-anchor="start" x="537.2882" y="-633.9" font-family="Arial" font-size="14.00" fill="#666666">[varchar]</text>
<polygon fill="none" stroke="#000000" points="480.5,-592.5 480.5,-622.5 725.5,-622.5 725.5,-592.5 480.5,-592.5"/>
<text text-anchor="start" x="487.5" y="-603.9" font-family="Arial" font-size="14.00" fill="#000000">applicant_id </text>
<text text-anchor="start" x="566.0792" y="-603.9" font-family="Arial" font-size="14.00" fill="#666666">[varchar]</text>
<polygon fill="none" stroke="#000000" stroke-width="3" points="478.5,-591.5 478.5,-779.5 726.5,-779.5 726.5,-591.5 478.5,-591.5"/>
</g>
<!-- public.rooms -->
<g id="node2" class="node">
<title>public.rooms</title>
<polygon fill="#efefef" stroke="transparent" points="43.5,-282.5 43.5,-317.5 296.5,-317.5 296.5,-282.5 43.5,-282.5"/>
<polygon fill="none" stroke="#000000" points="43.5,-282.5 43.5,-317.5 296.5,-317.5 296.5,-282.5 43.5,-282.5"/>
<text text-anchor="start" x="70.3701" y="-295.3" font-family="Arial Bold" font-size="18.00" fill="#000000">public.rooms</text>
<text text-anchor="start" x="172.3761" y="-295.3" font-family="Arial" font-size="14.00" fill="#000000"> </text>
<text text-anchor="start" x="176.2667" y="-295.3" font-family="Arial" font-size="14.00" fill="#666666">[BASE TABLE]</text>
<polygon fill="none" stroke="#000000" points="43.5,-252.5 43.5,-282.5 296.5,-282.5 296.5,-252.5 43.5,-252.5"/>
<text text-anchor="start" x="50.5" y="-263.9" font-family="Arial" font-size="14.00" fill="#000000">id </text>
<text text-anchor="start" x="65.2798" y="-263.9" font-family="Arial" font-size="14.00" fill="#666666">[varchar]</text>
<polygon fill="none" stroke="#000000" points="43.5,-222.5 43.5,-252.5 296.5,-252.5 296.5,-222.5 43.5,-222.5"/>
<text text-anchor="start" x="50.5" y="-233.9" font-family="Arial" font-size="14.00" fill="#000000">created_at </text>
<text text-anchor="start" x="120.528" y="-233.9" font-family="Arial" font-size="14.00" fill="#666666">[timestamp with time zone]</text>
<polygon fill="none" stroke="#000000" points="43.5,-192.5 43.5,-222.5 296.5,-222.5 296.5,-192.5 43.5,-192.5"/>
<text text-anchor="start" x="50.1915" y="-203.9" font-family="Arial" font-size="14.00" fill="#000000">updated_at </text>
<text text-anchor="start" x="124.1241" y="-203.9" font-family="Arial" font-size="14.00" fill="#666666">[timestamp with time zone]</text>
</g>
<!-- public.messages&#45;&gt;public.rooms -->
<g id="edge1" class="edge">
<title>public.messages:room_id&#45;&gt;public.rooms:id</title>
<path fill="none" stroke="#000000" d="M470.2411,-667.1617C389.3711,-661.6468 386.9681,-589.5222 348.5,-511 324.1574,-461.3112 351.8312,-267.5 296.5,-267.5"/>
<polygon fill="#000000" stroke="#000000" points="470.5054,-667.1703 480.3516,-671.9976 475.5027,-667.3352 480.5,-667.5 480.5,-667.5 480.5,-667.5 475.5027,-667.3352 480.6484,-663.0024 470.5054,-667.1703 470.5054,-667.1703"/>
<text text-anchor="start" x="133.2245" y="-677.5" font-family="Arial" font-size="10.00" fill="#000000">FOREIGN KEY (room_id) REFERENCES rooms(id) ON DELETE CASCADE</text>
</g>
<!-- public.users -->
<g id="node3" class="node">
<title>public.users</title>
<polygon fill="#efefef" stroke="transparent" points="400.5,-432.5 400.5,-467.5 806.5,-467.5 806.5,-432.5 400.5,-432.5"/>
<polygon fill="none" stroke="#000000" points="400.5,-432.5 400.5,-467.5 806.5,-467.5 806.5,-432.5 400.5,-432.5"/>
<text text-anchor="start" x="506.8662" y="-445.3" font-family="Arial Bold" font-size="18.00" fill="#000000">public.users</text>
<text text-anchor="start" x="602.88" y="-445.3" font-family="Arial" font-size="14.00" fill="#000000"> </text>
<text text-anchor="start" x="606.7706" y="-445.3" font-family="Arial" font-size="14.00" fill="#666666">[BASE TABLE]</text>
<polygon fill="none" stroke="#000000" points="400.5,-402.5 400.5,-432.5 806.5,-432.5 806.5,-402.5 400.5,-402.5"/>
<text text-anchor="start" x="407.5" y="-413.9" font-family="Arial" font-size="14.00" fill="#000000">id </text>
<text text-anchor="start" x="422.2798" y="-413.9" font-family="Arial" font-size="14.00" fill="#666666">[varchar]</text>
<polygon fill="none" stroke="#000000" points="400.5,-372.5 400.5,-402.5 806.5,-402.5 806.5,-372.5 400.5,-372.5"/>
<text text-anchor="start" x="407.5" y="-383.9" font-family="Arial" font-size="14.00" fill="#000000">name </text>
<text text-anchor="start" x="446.399" y="-383.9" font-family="Arial" font-size="14.00" fill="#666666">[varchar(50)]</text>
<polygon fill="none" stroke="#000000" points="400.5,-342.5 400.5,-372.5 806.5,-372.5 806.5,-342.5 400.5,-342.5"/>
<text text-anchor="start" x="407.5" y="-353.9" font-family="Arial" font-size="14.00" fill="#000000">email </text>
<text text-anchor="start" x="444.8296" y="-353.9" font-family="Arial" font-size="14.00" fill="#666666">[varchar(100)]</text>
<polygon fill="none" stroke="#000000" points="400.5,-312.5 400.5,-342.5 806.5,-342.5 806.5,-312.5 400.5,-312.5"/>
<text text-anchor="start" x="407.5" y="-323.9" font-family="Arial" font-size="14.00" fill="#000000">role </text>
<text text-anchor="start" x="434.723" y="-323.9" font-family="Arial" font-size="14.00" fill="#666666">[varchar]</text>
<polygon fill="none" stroke="#000000" points="400.5,-282.5 400.5,-312.5 806.5,-312.5 806.5,-282.5 400.5,-282.5"/>
<text text-anchor="start" x="407.5" y="-293.9" font-family="Arial" font-size="14.00" fill="#000000">avatar </text>
<text text-anchor="start" x="450.2896" y="-293.9" font-family="Arial" font-size="14.00" fill="#666666">[varchar]</text>
<polygon fill="none" stroke="#000000" points="400.5,-252.5 400.5,-282.5 806.5,-282.5 806.5,-252.5 400.5,-252.5"/>
<text text-anchor="start" x="407.5" y="-263.9" font-family="Arial" font-size="14.00" fill="#000000">introduction </text>
<text text-anchor="start" x="483.7412" y="-263.9" font-family="Arial" font-size="14.00" fill="#666666">[varchar(4000)]</text>
<polygon fill="none" stroke="#000000" points="400.5,-222.5 400.5,-252.5 806.5,-252.5 806.5,-222.5 400.5,-222.5"/>
<text text-anchor="start" x="407.5" y="-233.9" font-family="Arial" font-size="14.00" fill="#000000">email_verification_status </text>
<text text-anchor="start" x="564.6332" y="-233.9" font-family="Arial" font-size="14.00" fill="#666666">[varchar]</text>
<polygon fill="none" stroke="#000000" points="400.5,-192.5 400.5,-222.5 806.5,-222.5 806.5,-192.5 400.5,-192.5"/>
<text text-anchor="start" x="407.5" y="-203.9" font-family="Arial" font-size="14.00" fill="#000000">email_verification_token </text>
<text text-anchor="start" x="561.5252" y="-203.9" font-family="Arial" font-size="14.00" fill="#666666">[varchar]</text>
<polygon fill="none" stroke="#000000" points="400.5,-162.5 400.5,-192.5 806.5,-192.5 806.5,-162.5 400.5,-162.5"/>
<text text-anchor="start" x="407.4685" y="-173.9" font-family="Arial" font-size="14.00" fill="#000000">email_verification_token_expires_at </text>
<text text-anchor="start" x="633.8471" y="-173.9" font-family="Arial" font-size="14.00" fill="#666666">[timestamp with time zone]</text>
<polygon fill="none" stroke="#000000" points="400.5,-132.5 400.5,-162.5 806.5,-162.5 806.5,-132.5 400.5,-132.5"/>
<text text-anchor="start" x="407.5" y="-143.9" font-family="Arial" font-size="14.00" fill="#000000">password_digest </text>
<text text-anchor="start" x="516.4158" y="-143.9" font-family="Arial" font-size="14.00" fill="#666666">[varchar]</text>
<polygon fill="none" stroke="#000000" points="400.5,-102.5 400.5,-132.5 806.5,-132.5 806.5,-102.5 400.5,-102.5"/>
<text text-anchor="start" x="407.5" y="-113.9" font-family="Arial" font-size="14.00" fill="#000000">created_at </text>
<text text-anchor="start" x="477.528" y="-113.9" font-family="Arial" font-size="14.00" fill="#666666">[timestamp with time zone]</text>
<polygon fill="none" stroke="#000000" points="400.5,-72.5 400.5,-102.5 806.5,-102.5 806.5,-72.5 400.5,-72.5"/>
<text text-anchor="start" x="407.5" y="-83.9" font-family="Arial" font-size="14.00" fill="#000000">updated_at </text>
<text text-anchor="start" x="481.4326" y="-83.9" font-family="Arial" font-size="14.00" fill="#666666">[timestamp with time zone]</text>
<polygon fill="none" stroke="#000000" points="400.5,-42.5 400.5,-72.5 806.5,-72.5 806.5,-42.5 400.5,-42.5"/>
<text text-anchor="start" x="407.5" y="-53.9" font-family="Arial" font-size="14.00" fill="#000000">last_sign_in_at </text>
<text text-anchor="start" x="504.7524" y="-53.9" font-family="Arial" font-size="14.00" fill="#666666">[timestamp with time zone]</text>
</g>
<!-- public.messages&#45;&gt;public.users -->
<g id="edge2" class="edge">
<title>public.messages:user_id&#45;&gt;public.users:id</title>
<path fill="none" stroke="#000000" d="M735.4319,-635.979C763.0931,-626.4186 749.8148,-574.1568 725.5,-547 677.0297,-492.8642 448.9703,-565.1358 400.5,-511 372.7805,-480.0405 358.9444,-417.5 400.5,-417.5"/>
<polygon fill="#000000" stroke="#000000" points="735.3848,-635.9861 724.8187,-633.0519 730.4424,-636.7431 725.5,-637.5 725.5,-637.5 725.5,-637.5 730.4424,-636.7431 726.1813,-641.9481 735.3848,-635.9861 735.3848,-635.9861"/>
<text text-anchor="start" x="732.829" y="-647.5" font-family="Arial" font-size="10.00" fill="#000000">FOREIGN KEY (user_id) REFERENCES users(id) ON DELETE SET NULL</text>
</g>
<!-- public.applicants -->
<g id="node4" class="node">
<title>public.applicants</title>
<polygon fill="#efefef" stroke="transparent" points="911.5,-327.5 911.5,-362.5 1164.5,-362.5 1164.5,-327.5 911.5,-327.5"/>
<polygon fill="none" stroke="#000000" points="911.5,-327.5 911.5,-362.5 1164.5,-362.5 1164.5,-327.5 911.5,-327.5"/>
<text text-anchor="start" x="922.8577" y="-340.3" font-family="Arial Bold" font-size="18.00" fill="#000000">public.applicants</text>
<text text-anchor="start" x="1055.8885" y="-340.3" font-family="Arial" font-size="14.00" fill="#000000"> </text>
<text text-anchor="start" x="1059.7791" y="-340.3" font-family="Arial" font-size="14.00" fill="#666666">[BASE TABLE]</text>
<polygon fill="none" stroke="#000000" points="911.5,-297.5 911.5,-327.5 1164.5,-327.5 1164.5,-297.5 911.5,-297.5"/>
<text text-anchor="start" x="918.5" y="-308.9" font-family="Arial" font-size="14.00" fill="#000000">id </text>
<text text-anchor="start" x="933.2798" y="-308.9" font-family="Arial" font-size="14.00" fill="#666666">[varchar]</text>
<polygon fill="none" stroke="#000000" points="911.5,-267.5 911.5,-297.5 1164.5,-297.5 1164.5,-267.5 911.5,-267.5"/>
<text text-anchor="start" x="918.5" y="-278.9" font-family="Arial" font-size="14.00" fill="#000000">recruitment_id </text>
<text text-anchor="start" x="1011.0624" y="-278.9" font-family="Arial" font-size="14.00" fill="#666666">[varchar]</text>
<polygon fill="none" stroke="#000000" points="911.5,-237.5 911.5,-267.5 1164.5,-267.5 1164.5,-237.5 911.5,-237.5"/>
<text text-anchor="start" x="918.5" y="-248.9" font-family="Arial" font-size="14.00" fill="#000000">user_id </text>
<text text-anchor="start" x="968.2882" y="-248.9" font-family="Arial" font-size="14.00" fill="#666666">[varchar]</text>
<polygon fill="none" stroke="#000000" points="911.5,-207.5 911.5,-237.5 1164.5,-237.5 1164.5,-207.5 911.5,-207.5"/>
<text text-anchor="start" x="918.5" y="-218.9" font-family="Arial" font-size="14.00" fill="#000000">created_at </text>
<text text-anchor="start" x="988.528" y="-218.9" font-family="Arial" font-size="14.00" fill="#666666">[timestamp with time zone]</text>
<polygon fill="none" stroke="#000000" points="911.5,-177.5 911.5,-207.5 1164.5,-207.5 1164.5,-177.5 911.5,-177.5"/>
<text text-anchor="start" x="918.1915" y="-188.9" font-family="Arial" font-size="14.00" fill="#000000">updated_at </text>
<text text-anchor="start" x="992.1241" y="-188.9" font-family="Arial" font-size="14.00" fill="#666666">[timestamp with time zone]</text>
<polygon fill="none" stroke="#000000" points="911.5,-147.5 911.5,-177.5 1164.5,-177.5 1164.5,-147.5 911.5,-147.5"/>
<text text-anchor="start" x="918.5" y="-158.9" font-family="Arial" font-size="14.00" fill="#000000">message </text>
<text text-anchor="start" x="979.1816" y="-158.9" font-family="Arial" font-size="14.00" fill="#666666">[varchar(1000)]</text>
</g>
<!-- public.messages&#45;&gt;public.applicants -->
<g id="edge3" class="edge">
<title>public.messages:applicant_id&#45;&gt;public.applicants:id</title>
<path fill="none" stroke="#000000" d="M735.8177,-607.2418C800.403,-603.8974 819.1613,-568.253 858.5,-511 910.211,-435.7405 820.1872,-312.5 911.5,-312.5"/>
<polygon fill="#000000" stroke="#000000" points="735.4969,-607.2497 725.3874,-603.0014 730.4984,-607.3748 725.5,-607.5 725.5,-607.5 725.5,-607.5 730.4984,-607.3748 725.6126,-611.9986 735.4969,-607.2497 735.4969,-607.2497"/>
<text text-anchor="start" x="732.9885" y="-617.5" font-family="Arial" font-size="10.00" fill="#000000">FOREIGN KEY (applicant_id) REFERENCES applicants(id) ON DELETE CASCADE</text>
</g>
</g>
</svg>
