<?xml version="1.0" encoding="UTF-8" standalone="no"?>
<!DOCTYPE svg PUBLIC "-//W3C//DTD SVG 1.1//EN"
 "http://www.w3.org/Graphics/SVG/1.1/DTD/svg11.dtd">
<!-- Generated by graphviz version 2.40.1 (20161225.0304)
 -->
<!-- Title: public.messages Pages: 1 -->
<svg width="1199pt" height="922pt"
 viewBox="0.00 0.00 1199.00 922.00" xmlns="http://www.w3.org/2000/svg" xmlns:xlink="http://www.w3.org/1999/xlink">
<g id="graph0" class="graph" transform="scale(1 1) rotate(0) translate(4 918)">
<title>public.messages</title>
<polygon fill="#ffffff" stroke="transparent" points="-4,4 -4,-918 1195,-918 1195,4 -4,4"/>
<!-- public.messages -->
<g id="node1" class="node">
<title>public.messages</title>
<polygon fill="#efefef" stroke="transparent" points="468.5,-832.5 468.5,-867.5 721.5,-867.5 721.5,-832.5 468.5,-832.5"/>
<polygon fill="none" stroke="#000000" points="468.5,-832.5 468.5,-867.5 721.5,-867.5 721.5,-832.5 468.5,-832.5"/>
<text text-anchor="start" x="479.36" y="-845.3" font-family="Arial Bold" font-size="18.00" fill="#000000">public.messages</text>
<text text-anchor="start" x="613.3862" y="-845.3" font-family="Arial" font-size="14.00" fill="#000000"> </text>
<text text-anchor="start" x="617.2768" y="-845.3" font-family="Arial" font-size="14.00" fill="#666666">[BASE TABLE]</text>
<polygon fill="none" stroke="#000000" points="468.5,-802.5 468.5,-832.5 721.5,-832.5 721.5,-802.5 468.5,-802.5"/>
<text text-anchor="start" x="475.5" y="-813.9" font-family="Arial" font-size="14.00" fill="#000000">id </text>
<text text-anchor="start" x="490.2798" y="-813.9" font-family="Arial" font-size="14.00" fill="#666666">[bigint]</text>
<polygon fill="none" stroke="#000000" points="468.5,-772.5 468.5,-802.5 721.5,-802.5 721.5,-772.5 468.5,-772.5"/>
<text text-anchor="start" x="475.5" y="-783.9" font-family="Arial" font-size="14.00" fill="#000000">content </text>
<text text-anchor="start" x="525.3022" y="-783.9" font-family="Arial" font-size="14.00" fill="#666666">[varchar(1000)]</text>
<polygon fill="none" stroke="#000000" points="468.5,-742.5 468.5,-772.5 721.5,-772.5 721.5,-742.5 468.5,-742.5"/>
<text text-anchor="start" x="475.5" y="-753.9" font-family="Arial" font-size="14.00" fill="#000000">room_id </text>
<text text-anchor="start" x="529.9488" y="-753.9" font-family="Arial" font-size="14.00" fill="#666666">[bigint]</text>
<polygon fill="none" stroke="#000000" points="468.5,-712.5 468.5,-742.5 721.5,-742.5 721.5,-712.5 468.5,-712.5"/>
<text text-anchor="start" x="475.5" y="-723.9" font-family="Arial" font-size="14.00" fill="#000000">user_id </text>
<text text-anchor="start" x="525.2882" y="-723.9" font-family="Arial" font-size="14.00" fill="#666666">[bigint]</text>
<polygon fill="none" stroke="#000000" points="468.5,-682.5 468.5,-712.5 721.5,-712.5 721.5,-682.5 468.5,-682.5"/>
<text text-anchor="start" x="475.5" y="-693.9" font-family="Arial" font-size="14.00" fill="#000000">applicant_id </text>
<text text-anchor="start" x="554.0792" y="-693.9" font-family="Arial" font-size="14.00" fill="#666666">[bigint]</text>
<polygon fill="none" stroke="#000000" points="468.5,-652.5 468.5,-682.5 721.5,-682.5 721.5,-652.5 468.5,-652.5"/>
<text text-anchor="start" x="475.5" y="-663.9" font-family="Arial" font-size="14.00" fill="#000000">created_at </text>
<text text-anchor="start" x="545.528" y="-663.9" font-family="Arial" font-size="14.00" fill="#666666">[timestamp with time zone]</text>
<polygon fill="none" stroke="#000000" points="468.5,-622.5 468.5,-652.5 721.5,-652.5 721.5,-622.5 468.5,-622.5"/>
<text text-anchor="start" x="475.1915" y="-633.9" font-family="Arial" font-size="14.00" fill="#000000">updated_at </text>
<text text-anchor="start" x="549.1241" y="-633.9" font-family="Arial" font-size="14.00" fill="#666666">[timestamp with time zone]</text>
<polygon fill="none" stroke="#000000" stroke-width="3" points="466.5,-621.5 466.5,-869.5 722.5,-869.5 722.5,-621.5 466.5,-621.5"/>
</g>
<!-- public.rooms -->
<g id="node2" class="node">
<title>public.rooms</title>
<polygon fill="#efefef" stroke="transparent" points="43.5,-297.5 43.5,-332.5 296.5,-332.5 296.5,-297.5 43.5,-297.5"/>
<polygon fill="none" stroke="#000000" points="43.5,-297.5 43.5,-332.5 296.5,-332.5 296.5,-297.5 43.5,-297.5"/>
<text text-anchor="start" x="70.3701" y="-310.3" font-family="Arial Bold" font-size="18.00" fill="#000000">public.rooms</text>
<text text-anchor="start" x="172.3761" y="-310.3" font-family="Arial" font-size="14.00" fill="#000000"> </text>
<text text-anchor="start" x="176.2667" y="-310.3" font-family="Arial" font-size="14.00" fill="#666666">[BASE TABLE]</text>
<polygon fill="none" stroke="#000000" points="43.5,-267.5 43.5,-297.5 296.5,-297.5 296.5,-267.5 43.5,-267.5"/>
<text text-anchor="start" x="50.5" y="-278.9" font-family="Arial" font-size="14.00" fill="#000000">id </text>
<text text-anchor="start" x="65.2798" y="-278.9" font-family="Arial" font-size="14.00" fill="#666666">[bigint]</text>
<polygon fill="none" stroke="#000000" points="43.5,-237.5 43.5,-267.5 296.5,-267.5 296.5,-237.5 43.5,-237.5"/>
<text text-anchor="start" x="50.5" y="-248.9" font-family="Arial" font-size="14.00" fill="#000000">created_at </text>
<text text-anchor="start" x="120.528" y="-248.9" font-family="Arial" font-size="14.00" fill="#666666">[timestamp with time zone]</text>
<polygon fill="none" stroke="#000000" points="43.5,-207.5 43.5,-237.5 296.5,-237.5 296.5,-207.5 43.5,-207.5"/>
<text text-anchor="start" x="50.1915" y="-218.9" font-family="Arial" font-size="14.00" fill="#000000">updated_at </text>
<text text-anchor="start" x="124.1241" y="-218.9" font-family="Arial" font-size="14.00" fill="#666666">[timestamp with time zone]</text>
</g>
<!-- public.messages&#45;&gt;public.rooms -->
<g id="edge1" class="edge">
<title>public.messages:room_id&#45;&gt;public.rooms:id</title>
<path fill="none" stroke="#000000" d="M458.287,-757.1513C360.2204,-750.2115 385.2394,-640.9293 348.5,-541 328.2805,-486.0039 355.0952,-282.5 296.5,-282.5"/>
<polygon fill="#000000" stroke="#000000" points="458.5058,-757.1587 468.3464,-761.9974 463.5029,-757.3293 468.5,-757.5 468.5,-757.5 468.5,-757.5 463.5029,-757.3293 468.6536,-753.0026 458.5058,-757.1587 458.5058,-757.1587"/>
<text text-anchor="start" x="121.2245" y="-767.5" font-family="Arial" font-size="10.00" fill="#000000">FOREIGN KEY (room_id) REFERENCES rooms(id) ON DELETE CASCADE</text>
</g>
<!-- public.users -->
<g id="node3" class="node">
<title>public.users</title>
<polygon fill="#efefef" stroke="transparent" points="400.5,-462.5 400.5,-497.5 790.5,-497.5 790.5,-462.5 400.5,-462.5"/>
<polygon fill="none" stroke="#000000" points="400.5,-462.5 400.5,-497.5 790.5,-497.5 790.5,-462.5 400.5,-462.5"/>
<text text-anchor="start" x="498.8662" y="-475.3" font-family="Arial Bold" font-size="18.00" fill="#000000">public.users</text>
<text text-anchor="start" x="594.88" y="-475.3" font-family="Arial" font-size="14.00" fill="#000000"> </text>
<text text-anchor="start" x="598.7706" y="-475.3" font-family="Arial" font-size="14.00" fill="#666666">[BASE TABLE]</text>
<polygon fill="none" stroke="#000000" points="400.5,-432.5 400.5,-462.5 790.5,-462.5 790.5,-432.5 400.5,-432.5"/>
<text text-anchor="start" x="407.5" y="-443.9" font-family="Arial" font-size="14.00" fill="#000000">id </text>
<text text-anchor="start" x="422.2798" y="-443.9" font-family="Arial" font-size="14.00" fill="#666666">[bigint]</text>
<polygon fill="none" stroke="#000000" points="400.5,-402.5 400.5,-432.5 790.5,-432.5 790.5,-402.5 400.5,-402.5"/>
<text text-anchor="start" x="407.5" y="-413.9" font-family="Arial" font-size="14.00" fill="#000000">name </text>
<text text-anchor="start" x="446.399" y="-413.9" font-family="Arial" font-size="14.00" fill="#666666">[varchar(50)]</text>
<polygon fill="none" stroke="#000000" points="400.5,-372.5 400.5,-402.5 790.5,-402.5 790.5,-372.5 400.5,-372.5"/>
<text text-anchor="start" x="407.5" y="-383.9" font-family="Arial" font-size="14.00" fill="#000000">email </text>
<text text-anchor="start" x="444.8296" y="-383.9" font-family="Arial" font-size="14.00" fill="#666666">[varchar(100)]</text>
<polygon fill="none" stroke="#000000" points="400.5,-342.5 400.5,-372.5 790.5,-372.5 790.5,-342.5 400.5,-342.5"/>
<text text-anchor="start" x="407.5" y="-353.9" font-family="Arial" font-size="14.00" fill="#000000">role </text>
<text text-anchor="start" x="434.723" y="-353.9" font-family="Arial" font-size="14.00" fill="#666666">[user_role]</text>
<polygon fill="none" stroke="#000000" points="400.5,-312.5 400.5,-342.5 790.5,-342.5 790.5,-312.5 400.5,-312.5"/>
<text text-anchor="start" x="407.5" y="-323.9" font-family="Arial" font-size="14.00" fill="#000000">avatar </text>
<text text-anchor="start" x="450.2896" y="-323.9" font-family="Arial" font-size="14.00" fill="#666666">[varchar]</text>
<polygon fill="none" stroke="#000000" points="400.5,-282.5 400.5,-312.5 790.5,-312.5 790.5,-282.5 400.5,-282.5"/>
<text text-anchor="start" x="407.5" y="-293.9" font-family="Arial" font-size="14.00" fill="#000000">introduction </text>
<text text-anchor="start" x="483.7412" y="-293.9" font-family="Arial" font-size="14.00" fill="#666666">[varchar(4000)]</text>
<polygon fill="none" stroke="#000000" points="400.5,-252.5 400.5,-282.5 790.5,-282.5 790.5,-252.5 400.5,-252.5"/>
<text text-anchor="start" x="407.5" y="-263.9" font-family="Arial" font-size="14.00" fill="#000000">email_verification_status </text>
<text text-anchor="start" x="564.6332" y="-263.9" font-family="Arial" font-size="14.00" fill="#666666">[email_verification_status]</text>
<polygon fill="none" stroke="#000000" points="400.5,-222.5 400.5,-252.5 790.5,-252.5 790.5,-222.5 400.5,-222.5"/>
<text text-anchor="start" x="407.5" y="-233.9" font-family="Arial" font-size="14.00" fill="#000000">email_verification_pin </text>
<text text-anchor="start" x="545.9586" y="-233.9" font-family="Arial" font-size="14.00" fill="#666666">[varchar]</text>
<polygon fill="none" stroke="#000000" points="400.5,-192.5 400.5,-222.5 790.5,-222.5 790.5,-192.5 400.5,-192.5"/>
<text text-anchor="start" x="407.2518" y="-203.9" font-family="Arial" font-size="14.00" fill="#000000">email_verification_pin_expires_at </text>
<text text-anchor="start" x="618.0638" y="-203.9" font-family="Arial" font-size="14.00" fill="#666666">[timestamp with time zone]</text>
<polygon fill="none" stroke="#000000" points="400.5,-162.5 400.5,-192.5 790.5,-192.5 790.5,-162.5 400.5,-162.5"/>
<text text-anchor="start" x="407.5" y="-173.9" font-family="Arial" font-size="14.00" fill="#000000">password_digest </text>
<text text-anchor="start" x="516.4158" y="-173.9" font-family="Arial" font-size="14.00" fill="#666666">[varchar]</text>
<polygon fill="none" stroke="#000000" points="400.5,-132.5 400.5,-162.5 790.5,-162.5 790.5,-132.5 400.5,-132.5"/>
<text text-anchor="start" x="407.5" y="-143.9" font-family="Arial" font-size="14.00" fill="#000000">created_at </text>
<text text-anchor="start" x="477.528" y="-143.9" font-family="Arial" font-size="14.00" fill="#666666">[timestamp with time zone]</text>
<polygon fill="none" stroke="#000000" points="400.5,-102.5 400.5,-132.5 790.5,-132.5 790.5,-102.5 400.5,-102.5"/>
<text text-anchor="start" x="407.5" y="-113.9" font-family="Arial" font-size="14.00" fill="#000000">updated_at </text>
<text text-anchor="start" x="481.4326" y="-113.9" font-family="Arial" font-size="14.00" fill="#666666">[timestamp with time zone]</text>
<polygon fill="none" stroke="#000000" points="400.5,-72.5 400.5,-102.5 790.5,-102.5 790.5,-72.5 400.5,-72.5"/>
<text text-anchor="start" x="407.5" y="-83.9" font-family="Arial" font-size="14.00" fill="#000000">last_sign_in_at </text>
<text text-anchor="start" x="504.7524" y="-83.9" font-family="Arial" font-size="14.00" fill="#666666">[timestamp with time zone]</text>
<polygon fill="none" stroke="#000000" points="400.5,-42.5 400.5,-72.5 790.5,-72.5 790.5,-42.5 400.5,-42.5"/>
<text text-anchor="start" x="407.5" y="-53.9" font-family="Arial" font-size="14.00" fill="#000000">unverified_email </text>
<text text-anchor="start" x="513.2896" y="-53.9" font-family="Arial" font-size="14.00" fill="#666666">[varchar(100)]</text>
</g>
<!-- public.messages&#45;&gt;public.users -->
<g id="edge2" class="edge">
<title>public.messages:user_id&#45;&gt;public.users:id</title>
<path fill="none" stroke="#000000" d="M731.6846,-726.6218C785.8827,-716.6447 763.6459,-624.1367 721.5,-577 625.8109,-469.9795 496.1891,-648.0205 400.5,-541 372.8016,-510.0216 358.9444,-447.5 400.5,-447.5"/>
<polygon fill="#000000" stroke="#000000" points="731.463,-726.6409 721.1134,-723.0166 726.4815,-727.0704 721.5,-727.5 721.5,-727.5 721.5,-727.5 726.4815,-727.0704 721.8866,-731.9834 731.463,-726.6409 731.463,-726.6409"/>
<text text-anchor="start" x="728.829" y="-737.5" font-family="Arial" font-size="10.00" fill="#000000">FOREIGN KEY (user_id) REFERENCES users(id) ON DELETE SET NULL</text>
</g>
<!-- public.applicants -->
<g id="node4" class="node">
<title>public.applicants</title>
<polygon fill="#efefef" stroke="transparent" points="895.5,-342.5 895.5,-377.5 1148.5,-377.5 1148.5,-342.5 895.5,-342.5"/>
<polygon fill="none" stroke="#000000" points="895.5,-342.5 895.5,-377.5 1148.5,-377.5 1148.5,-342.5 895.5,-342.5"/>
<text text-anchor="start" x="906.8577" y="-355.3" font-family="Arial Bold" font-size="18.00" fill="#000000">public.applicants</text>
<text text-anchor="start" x="1039.8885" y="-355.3" font-family="Arial" font-size="14.00" fill="#000000"> </text>
<text text-anchor="start" x="1043.7791" y="-355.3" font-family="Arial" font-size="14.00" fill="#666666">[BASE TABLE]</text>
<polygon fill="none" stroke="#000000" points="895.5,-312.5 895.5,-342.5 1148.5,-342.5 1148.5,-312.5 895.5,-312.5"/>
<text text-anchor="start" x="902.5" y="-323.9" font-family="Arial" font-size="14.00" fill="#000000">id </text>
<text text-anchor="start" x="917.2798" y="-323.9" font-family="Arial" font-size="14.00" fill="#666666">[bigint]</text>
<polygon fill="none" stroke="#000000" points="895.5,-282.5 895.5,-312.5 1148.5,-312.5 1148.5,-282.5 895.5,-282.5"/>
<text text-anchor="start" x="902.5" y="-293.9" font-family="Arial" font-size="14.00" fill="#000000">recruitment_id </text>
<text text-anchor="start" x="995.0624" y="-293.9" font-family="Arial" font-size="14.00" fill="#666666">[bigint]</text>
<polygon fill="none" stroke="#000000" points="895.5,-252.5 895.5,-282.5 1148.5,-282.5 1148.5,-252.5 895.5,-252.5"/>
<text text-anchor="start" x="902.5" y="-263.9" font-family="Arial" font-size="14.00" fill="#000000">user_id </text>
<text text-anchor="start" x="952.2882" y="-263.9" font-family="Arial" font-size="14.00" fill="#666666">[bigint]</text>
<polygon fill="none" stroke="#000000" points="895.5,-222.5 895.5,-252.5 1148.5,-252.5 1148.5,-222.5 895.5,-222.5"/>
<text text-anchor="start" x="902.5" y="-233.9" font-family="Arial" font-size="14.00" fill="#000000">created_at </text>
<text text-anchor="start" x="972.528" y="-233.9" font-family="Arial" font-size="14.00" fill="#666666">[timestamp with time zone]</text>
<polygon fill="none" stroke="#000000" points="895.5,-192.5 895.5,-222.5 1148.5,-222.5 1148.5,-192.5 895.5,-192.5"/>
<text text-anchor="start" x="902.1915" y="-203.9" font-family="Arial" font-size="14.00" fill="#000000">updated_at </text>
<text text-anchor="start" x="976.1241" y="-203.9" font-family="Arial" font-size="14.00" fill="#666666">[timestamp with time zone]</text>
<polygon fill="none" stroke="#000000" points="895.5,-162.5 895.5,-192.5 1148.5,-192.5 1148.5,-162.5 895.5,-162.5"/>
<text text-anchor="start" x="902.5" y="-173.9" font-family="Arial" font-size="14.00" fill="#000000">message </text>
<text text-anchor="start" x="963.1816" y="-173.9" font-family="Arial" font-size="14.00" fill="#666666">[varchar(1000)]</text>
</g>
<!-- public.messages&#45;&gt;public.applicants -->
<g id="edge3" class="edge">
<title>public.messages:applicant_id&#45;&gt;public.applicants:id</title>
<path fill="none" stroke="#000000" d="M731.8577,-697.1148C809.0654,-691.151 805.7697,-616.8934 842.5,-541 885.0915,-452.9959 797.7311,-327.5 895.5,-327.5"/>
<polygon fill="#000000" stroke="#000000" points="731.4931,-697.1283 721.3327,-693.0031 726.4965,-697.3141 721.5,-697.5 721.5,-697.5 721.5,-697.5 726.4965,-697.3141 721.6673,-701.9969 731.4931,-697.1283 731.4931,-697.1283"/>
<text text-anchor="start" x="728.9885" y="-707.5" font-family="Arial" font-size="10.00" fill="#000000">FOREIGN KEY (applicant_id) REFERENCES applicants(id) ON DELETE CASCADE</text>
</g>
</g>
</svg>
