<?xml version="1.0" encoding="UTF-8" standalone="no"?>
<!DOCTYPE svg PUBLIC "-//W3C//DTD SVG 1.1//EN"
 "http://www.w3.org/Graphics/SVG/1.1/DTD/svg11.dtd">
<!-- Generated by graphviz version 2.40.1 (20161225.0304)
 -->
<!-- Title: public.recruitments Pages: 1 -->
<svg width="1285pt" height="1589pt"
 viewBox="0.00 0.00 1285.00 1589.00" xmlns="http://www.w3.org/2000/svg" xmlns:xlink="http://www.w3.org/1999/xlink">
<g id="graph0" class="graph" transform="scale(1 1) rotate(0) translate(4 1585)">
<title>public.recruitments</title>
<polygon fill="#ffffff" stroke="transparent" points="-4,4 -4,-1585 1281,-1585 1281,4 -4,4"/>
<!-- public.recruitments -->
<g id="node1" class="node">
<title>public.recruitments</title>
<polygon fill="#efefef" stroke="transparent" points="508,-1162.5 508,-1197.5 770,-1197.5 770,-1162.5 508,-1162.5"/>
<polygon fill="none" stroke="#000000" points="508,-1162.5 508,-1197.5 770,-1197.5 770,-1162.5 508,-1162.5"/>
<text text-anchor="start" x="514.8685" y="-1175.3" font-family="Arial Bold" font-size="18.00" fill="#000000">public.recruitments</text>
<text text-anchor="start" x="665.8777" y="-1175.3" font-family="Arial" font-size="14.00" fill="#000000"> </text>
<text text-anchor="start" x="669.7683" y="-1175.3" font-family="Arial" font-size="14.00" fill="#666666">[BASE TABLE]</text>
<polygon fill="none" stroke="#000000" points="508,-1132.5 508,-1162.5 770,-1162.5 770,-1132.5 508,-1132.5"/>
<text text-anchor="start" x="515" y="-1143.9" font-family="Arial" font-size="14.00" fill="#000000">id </text>
<text text-anchor="start" x="529.7798" y="-1143.9" font-family="Arial" font-size="14.00" fill="#666666">[bigint]</text>
<polygon fill="none" stroke="#000000" points="508,-1102.5 508,-1132.5 770,-1132.5 770,-1102.5 508,-1102.5"/>
<text text-anchor="start" x="515" y="-1113.9" font-family="Arial" font-size="14.00" fill="#000000">title </text>
<text text-anchor="start" x="540.6676" y="-1113.9" font-family="Arial" font-size="14.00" fill="#666666">[varchar(60)]</text>
<polygon fill="none" stroke="#000000" points="508,-1072.5 508,-1102.5 770,-1102.5 770,-1072.5 508,-1072.5"/>
<text text-anchor="start" x="515" y="-1083.9" font-family="Arial" font-size="14.00" fill="#000000">type </text>
<text text-anchor="start" x="545.3464" y="-1083.9" font-family="Arial" font-size="14.00" fill="#666666">[varchar]</text>
<polygon fill="none" stroke="#000000" points="508,-1042.5 508,-1072.5 770,-1072.5 770,-1042.5 508,-1042.5"/>
<text text-anchor="start" x="515" y="-1053.9" font-family="Arial" font-size="14.00" fill="#000000">venue </text>
<text text-anchor="start" x="557.021" y="-1053.9" font-family="Arial" font-size="14.00" fill="#666666">[varchar]</text>
<polygon fill="none" stroke="#000000" points="508,-1012.5 508,-1042.5 770,-1042.5 770,-1012.5 508,-1012.5"/>
<text text-anchor="start" x="515" y="-1023.9" font-family="Arial" font-size="14.00" fill="#000000">start_at </text>
<text text-anchor="start" x="565.5708" y="-1023.9" font-family="Arial" font-size="14.00" fill="#666666">[timestamp with time zone]</text>
<polygon fill="none" stroke="#000000" points="508,-982.5 508,-1012.5 770,-1012.5 770,-982.5 508,-982.5"/>
<text text-anchor="start" x="515" y="-993.9" font-family="Arial" font-size="14.00" fill="#000000">detail </text>
<text text-anchor="start" x="552.3422" y="-993.9" font-family="Arial" font-size="14.00" fill="#666666">[varchar(10000)]</text>
<polygon fill="none" stroke="#000000" points="508,-952.5 508,-982.5 770,-982.5 770,-952.5 508,-952.5"/>
<text text-anchor="start" x="515" y="-963.9" font-family="Arial" font-size="14.00" fill="#000000">closing_at </text>
<text text-anchor="start" x="581.9074" y="-963.9" font-family="Arial" font-size="14.00" fill="#666666">[timestamp with time zone]</text>
<polygon fill="none" stroke="#000000" points="508,-922.5 508,-952.5 770,-952.5 770,-922.5 508,-922.5"/>
<text text-anchor="start" x="515" y="-933.9" font-family="Arial" font-size="14.00" fill="#000000">prefecture_id </text>
<text text-anchor="start" x="600.5778" y="-933.9" font-family="Arial" font-size="14.00" fill="#666666">[bigint]</text>
<polygon fill="none" stroke="#000000" points="508,-892.5 508,-922.5 770,-922.5 770,-892.5 508,-892.5"/>
<text text-anchor="start" x="515" y="-903.9" font-family="Arial" font-size="14.00" fill="#000000">user_id </text>
<text text-anchor="start" x="564.7882" y="-903.9" font-family="Arial" font-size="14.00" fill="#666666">[bigint]</text>
<polygon fill="none" stroke="#000000" points="508,-862.5 508,-892.5 770,-892.5 770,-862.5 508,-862.5"/>
<text text-anchor="start" x="515" y="-873.9" font-family="Arial" font-size="14.00" fill="#000000">created_at </text>
<text text-anchor="start" x="585.028" y="-873.9" font-family="Arial" font-size="14.00" fill="#666666">[timestamp with time zone]</text>
<polygon fill="none" stroke="#000000" points="508,-832.5 508,-862.5 770,-862.5 770,-832.5 508,-832.5"/>
<text text-anchor="start" x="515" y="-843.9" font-family="Arial" font-size="14.00" fill="#000000">updated_at </text>
<text text-anchor="start" x="588.9326" y="-843.9" font-family="Arial" font-size="14.00" fill="#666666">[timestamp with time zone]</text>
<polygon fill="none" stroke="#000000" points="508,-802.5 508,-832.5 770,-832.5 770,-802.5 508,-802.5"/>
<text text-anchor="start" x="515" y="-813.9" font-family="Arial" font-size="14.00" fill="#000000">location_lat </text>
<text text-anchor="start" x="589.6872" y="-813.9" font-family="Arial" font-size="14.00" fill="#666666">[double precision]</text>
<polygon fill="none" stroke="#000000" points="508,-772.5 508,-802.5 770,-802.5 770,-772.5 508,-772.5"/>
<text text-anchor="start" x="515" y="-783.9" font-family="Arial" font-size="14.00" fill="#000000">location_lng </text>
<text text-anchor="start" x="593.5792" y="-783.9" font-family="Arial" font-size="14.00" fill="#666666">[double precision]</text>
<polygon fill="none" stroke="#000000" points="508,-742.5 508,-772.5 770,-772.5 770,-742.5 508,-742.5"/>
<text text-anchor="start" x="515" y="-753.9" font-family="Arial" font-size="14.00" fill="#000000">status </text>
<text text-anchor="start" x="556.237" y="-753.9" font-family="Arial" font-size="14.00" fill="#666666">[recruitment_status]</text>
<polygon fill="none" stroke="#000000" points="508,-712.5 508,-742.5 770,-742.5 770,-712.5 508,-712.5"/>
<text text-anchor="start" x="514.5302" y="-723.9" font-family="Arial" font-size="14.00" fill="#000000">published_at </text>
<text text-anchor="start" x="597.7854" y="-723.9" font-family="Arial" font-size="14.00" fill="#666666">[timestamp with time zone]</text>
<polygon fill="none" stroke="#000000" points="508,-682.5 508,-712.5 770,-712.5 770,-682.5 508,-682.5"/>
<text text-anchor="start" x="515" y="-693.9" font-family="Arial" font-size="14.00" fill="#000000">sport_id </text>
<text text-anchor="start" x="568.6788" y="-693.9" font-family="Arial" font-size="14.00" fill="#666666">[bigint]</text>
<polygon fill="none" stroke="#000000" stroke-width="3" points="506.5,-681.5 506.5,-1199.5 771.5,-1199.5 771.5,-681.5 506.5,-681.5"/>
</g>
<!-- public.prefectures -->
<g id="node5" class="node">
<title>public.prefectures</title>
<polygon fill="#efefef" stroke="transparent" points="81,-342.5 81,-377.5 334,-377.5 334,-342.5 81,-342.5"/>
<polygon fill="none" stroke="#000000" points="81,-342.5 81,-377.5 334,-377.5 334,-342.5 81,-342.5"/>
<text text-anchor="start" x="87.8586" y="-355.3" font-family="Arial Bold" font-size="18.00" fill="#000000">public.prefectures</text>
<text text-anchor="start" x="229.8876" y="-355.3" font-family="Arial" font-size="14.00" fill="#000000"> </text>
<text text-anchor="start" x="233.7782" y="-355.3" font-family="Arial" font-size="14.00" fill="#666666">[BASE TABLE]</text>
<polygon fill="none" stroke="#000000" points="81,-312.5 81,-342.5 334,-342.5 334,-312.5 81,-312.5"/>
<text text-anchor="start" x="88" y="-323.9" font-family="Arial" font-size="14.00" fill="#000000">id </text>
<text text-anchor="start" x="102.7798" y="-323.9" font-family="Arial" font-size="14.00" fill="#666666">[bigint]</text>
<polygon fill="none" stroke="#000000" points="81,-282.5 81,-312.5 334,-312.5 334,-282.5 81,-282.5"/>
<text text-anchor="start" x="88" y="-293.9" font-family="Arial" font-size="14.00" fill="#000000">name </text>
<text text-anchor="start" x="126.899" y="-293.9" font-family="Arial" font-size="14.00" fill="#666666">[varchar]</text>
<polygon fill="none" stroke="#000000" points="81,-252.5 81,-282.5 334,-282.5 334,-252.5 81,-252.5"/>
<text text-anchor="start" x="88" y="-263.9" font-family="Arial" font-size="14.00" fill="#000000">created_at </text>
<text text-anchor="start" x="158.028" y="-263.9" font-family="Arial" font-size="14.00" fill="#666666">[timestamp with time zone]</text>
<polygon fill="none" stroke="#000000" points="81,-222.5 81,-252.5 334,-252.5 334,-222.5 81,-222.5"/>
<text text-anchor="start" x="87.6915" y="-233.9" font-family="Arial" font-size="14.00" fill="#000000">updated_at </text>
<text text-anchor="start" x="161.6241" y="-233.9" font-family="Arial" font-size="14.00" fill="#666666">[timestamp with time zone]</text>
</g>
<!-- public.recruitments&#45;&gt;public.prefectures -->
<g id="edge4" class="edge">
<title>public.recruitments:prefecture_id&#45;&gt;public.prefectures:id</title>
<path fill="none" stroke="#000000" d="M497.6372,-937.2253C352.4144,-929.2902 427.1568,-750.9632 386,-601 369.6264,-541.3395 395.8665,-327.5 334,-327.5"/>
<polygon fill="#000000" stroke="#000000" points="498.0035,-937.2349 507.8807,-941.9984 503.0018,-937.3675 508,-937.5 508,-937.5 508,-937.5 503.0018,-937.3675 508.1193,-933.0016 498.0035,-937.2349 498.0035,-937.2349"/>
<text text-anchor="start" x="114.66" y="-947.5" font-family="Arial" font-size="10.00" fill="#000000">FOREIGN KEY (prefecture_id) REFERENCES prefectures(id) ON DELETE RESTRICT</text>
</g>
<!-- public.users -->
<g id="node6" class="node">
<title>public.users</title>
<polygon fill="#efefef" stroke="transparent" points="438,-522.5 438,-557.5 840,-557.5 840,-522.5 438,-522.5"/>
<polygon fill="none" stroke="#000000" points="438,-522.5 438,-557.5 840,-557.5 840,-522.5 438,-522.5"/>
<text text-anchor="start" x="542.3662" y="-535.3" font-family="Arial Bold" font-size="18.00" fill="#000000">public.users</text>
<text text-anchor="start" x="638.38" y="-535.3" font-family="Arial" font-size="14.00" fill="#000000"> </text>
<text text-anchor="start" x="642.2706" y="-535.3" font-family="Arial" font-size="14.00" fill="#666666">[BASE TABLE]</text>
<polygon fill="none" stroke="#000000" points="438,-492.5 438,-522.5 840,-522.5 840,-492.5 438,-492.5"/>
<text text-anchor="start" x="445" y="-503.9" font-family="Arial" font-size="14.00" fill="#000000">id </text>
<text text-anchor="start" x="459.7798" y="-503.9" font-family="Arial" font-size="14.00" fill="#666666">[bigint]</text>
<polygon fill="none" stroke="#000000" points="438,-462.5 438,-492.5 840,-492.5 840,-462.5 438,-462.5"/>
<text text-anchor="start" x="445" y="-473.9" font-family="Arial" font-size="14.00" fill="#000000">name </text>
<text text-anchor="start" x="483.899" y="-473.9" font-family="Arial" font-size="14.00" fill="#666666">[varchar(50)]</text>
<polygon fill="none" stroke="#000000" points="438,-432.5 438,-462.5 840,-462.5 840,-432.5 438,-432.5"/>
<text text-anchor="start" x="445" y="-443.9" font-family="Arial" font-size="14.00" fill="#000000">email </text>
<text text-anchor="start" x="482.3296" y="-443.9" font-family="Arial" font-size="14.00" fill="#666666">[varchar(100)]</text>
<polygon fill="none" stroke="#000000" points="438,-402.5 438,-432.5 840,-432.5 840,-402.5 438,-402.5"/>
<text text-anchor="start" x="445" y="-413.9" font-family="Arial" font-size="14.00" fill="#000000">role </text>
<text text-anchor="start" x="472.223" y="-413.9" font-family="Arial" font-size="14.00" fill="#666666">[user_role]</text>
<polygon fill="none" stroke="#000000" points="438,-372.5 438,-402.5 840,-402.5 840,-372.5 438,-372.5"/>
<text text-anchor="start" x="445" y="-383.9" font-family="Arial" font-size="14.00" fill="#000000">avatar </text>
<text text-anchor="start" x="487.7896" y="-383.9" font-family="Arial" font-size="14.00" fill="#666666">[varchar]</text>
<polygon fill="none" stroke="#000000" points="438,-342.5 438,-372.5 840,-372.5 840,-342.5 438,-342.5"/>
<text text-anchor="start" x="445" y="-353.9" font-family="Arial" font-size="14.00" fill="#000000">introduction </text>
<text text-anchor="start" x="521.2412" y="-353.9" font-family="Arial" font-size="14.00" fill="#666666">[varchar(4000)]</text>
<polygon fill="none" stroke="#000000" points="438,-312.5 438,-342.5 840,-342.5 840,-312.5 438,-312.5"/>
<text text-anchor="start" x="445" y="-323.9" font-family="Arial" font-size="14.00" fill="#000000">email_verification_status </text>
<text text-anchor="start" x="602.1332" y="-323.9" font-family="Arial" font-size="14.00" fill="#666666">[email_verification_status]</text>
<polygon fill="none" stroke="#000000" points="438,-282.5 438,-312.5 840,-312.5 840,-282.5 438,-282.5"/>
<text text-anchor="start" x="445" y="-293.9" font-family="Arial" font-size="14.00" fill="#000000">email_verification_code </text>
<text text-anchor="start" x="595.1346" y="-293.9" font-family="Arial" font-size="14.00" fill="#666666">[varchar]</text>
<polygon fill="none" stroke="#000000" points="438,-252.5 438,-282.5 840,-282.5 840,-252.5 438,-252.5"/>
<text text-anchor="start" x="444.9138" y="-263.9" font-family="Arial" font-size="14.00" fill="#000000">email_verification_code_expires_at </text>
<text text-anchor="start" x="667.4018" y="-263.9" font-family="Arial" font-size="14.00" fill="#666666">[timestamp with time zone]</text>
<polygon fill="none" stroke="#000000" points="438,-222.5 438,-252.5 840,-252.5 840,-222.5 438,-222.5"/>
<text text-anchor="start" x="445" y="-233.9" font-family="Arial" font-size="14.00" fill="#000000">password_digest </text>
<text text-anchor="start" x="553.9158" y="-233.9" font-family="Arial" font-size="14.00" fill="#666666">[varchar]</text>
<polygon fill="none" stroke="#000000" points="438,-192.5 438,-222.5 840,-222.5 840,-192.5 438,-192.5"/>
<text text-anchor="start" x="445" y="-203.9" font-family="Arial" font-size="14.00" fill="#000000">created_at </text>
<text text-anchor="start" x="515.028" y="-203.9" font-family="Arial" font-size="14.00" fill="#666666">[timestamp with time zone]</text>
<polygon fill="none" stroke="#000000" points="438,-162.5 438,-192.5 840,-192.5 840,-162.5 438,-162.5"/>
<text text-anchor="start" x="445" y="-173.9" font-family="Arial" font-size="14.00" fill="#000000">updated_at </text>
<text text-anchor="start" x="518.9326" y="-173.9" font-family="Arial" font-size="14.00" fill="#666666">[timestamp with time zone]</text>
<polygon fill="none" stroke="#000000" points="438,-132.5 438,-162.5 840,-162.5 840,-132.5 438,-132.5"/>
<text text-anchor="start" x="445" y="-143.9" font-family="Arial" font-size="14.00" fill="#000000">last_sign_in_at </text>
<text text-anchor="start" x="542.2524" y="-143.9" font-family="Arial" font-size="14.00" fill="#666666">[timestamp with time zone]</text>
<polygon fill="none" stroke="#000000" points="438,-102.5 438,-132.5 840,-132.5 840,-102.5 438,-102.5"/>
<text text-anchor="start" x="445" y="-113.9" font-family="Arial" font-size="14.00" fill="#000000">unverified_email </text>
<text text-anchor="start" x="550.7896" y="-113.9" font-family="Arial" font-size="14.00" fill="#666666">[varchar(100)]</text>
<polygon fill="none" stroke="#000000" points="438,-72.5 438,-102.5 840,-102.5 840,-72.5 438,-72.5"/>
<text text-anchor="start" x="445" y="-83.9" font-family="Arial" font-size="14.00" fill="#000000">password_reset_token </text>
<text text-anchor="start" x="589.7082" y="-83.9" font-family="Arial" font-size="14.00" fill="#666666">[varchar]</text>
<polygon fill="none" stroke="#000000" points="438,-42.5 438,-72.5 840,-72.5 840,-42.5 438,-42.5"/>
<text text-anchor="start" x="445" y="-53.9" font-family="Arial" font-size="14.00" fill="#000000">password_reset_token_expires_at </text>
<text text-anchor="start" x="662.0616" y="-53.9" font-family="Arial" font-size="14.00" fill="#666666">[timestamp with time zone]</text>
</g>
<!-- public.recruitments&#45;&gt;public.users -->
<g id="edge5" class="edge">
<title>public.recruitments:user_id&#45;&gt;public.users:id</title>
<path fill="none" stroke="#000000" d="M779.9554,-905.8884C865.2144,-878.3633 926.891,-507.5 840,-507.5"/>
<polygon fill="#000000" stroke="#000000" points="779.8715,-905.9019 769.2808,-903.0578 774.9357,-906.7009 770,-907.5 770,-907.5 770,-907.5 774.9357,-906.7009 770.7192,-911.9422 779.8715,-905.9019 779.8715,-905.9019"/>
<text text-anchor="start" x="777.0535" y="-917.5" font-family="Arial" font-size="10.00" fill="#000000">FOREIGN KEY (user_id) REFERENCES users(id) ON DELETE CASCADE</text>
</g>
<!-- public.sports -->
<g id="node7" class="node">
<title>public.sports</title>
<polygon fill="#efefef" stroke="transparent" points="945,-342.5 945,-377.5 1198,-377.5 1198,-342.5 945,-342.5"/>
<polygon fill="none" stroke="#000000" points="945,-342.5 945,-377.5 1198,-377.5 1198,-342.5 945,-342.5"/>
<text text-anchor="start" x="972.3651" y="-355.3" font-family="Arial Bold" font-size="18.00" fill="#000000">public.sports</text>
<text text-anchor="start" x="1073.3811" y="-355.3" font-family="Arial" font-size="14.00" fill="#000000"> </text>
<text text-anchor="start" x="1077.2717" y="-355.3" font-family="Arial" font-size="14.00" fill="#666666">[BASE TABLE]</text>
<polygon fill="none" stroke="#000000" points="945,-312.5 945,-342.5 1198,-342.5 1198,-312.5 945,-312.5"/>
<text text-anchor="start" x="952" y="-323.9" font-family="Arial" font-size="14.00" fill="#000000">id </text>
<text text-anchor="start" x="966.7798" y="-323.9" font-family="Arial" font-size="14.00" fill="#666666">[bigint]</text>
<polygon fill="none" stroke="#000000" points="945,-282.5 945,-312.5 1198,-312.5 1198,-282.5 945,-282.5"/>
<text text-anchor="start" x="952" y="-293.9" font-family="Arial" font-size="14.00" fill="#000000">name </text>
<text text-anchor="start" x="990.899" y="-293.9" font-family="Arial" font-size="14.00" fill="#666666">[varchar]</text>
<polygon fill="none" stroke="#000000" points="945,-252.5 945,-282.5 1198,-282.5 1198,-252.5 945,-252.5"/>
<text text-anchor="start" x="952" y="-263.9" font-family="Arial" font-size="14.00" fill="#000000">created_at </text>
<text text-anchor="start" x="1022.028" y="-263.9" font-family="Arial" font-size="14.00" fill="#666666">[timestamp with time zone]</text>
<polygon fill="none" stroke="#000000" points="945,-222.5 945,-252.5 1198,-252.5 1198,-222.5 945,-222.5"/>
<text text-anchor="start" x="951.6915" y="-233.9" font-family="Arial" font-size="14.00" fill="#000000">updated_at </text>
<text text-anchor="start" x="1025.6241" y="-233.9" font-family="Arial" font-size="14.00" fill="#666666">[timestamp with time zone]</text>
</g>
<!-- public.recruitments&#45;&gt;public.sports -->
<g id="edge6" class="edge">
<title>public.recruitments:sport_id&#45;&gt;public.sports:id</title>
<path fill="none" stroke="#000000" d="M780.1376,-697.2125C840.9032,-693.6422 857.8959,-657.0653 892,-601 924.1735,-548.1084 883.0916,-327.5 945,-327.5"/>
<polygon fill="#000000" stroke="#000000" points="779.996,-697.2164 769.8724,-693.0018 774.998,-697.3582 770,-697.5 770,-697.5 770,-697.5 774.998,-697.3582 770.1276,-701.9982 779.996,-697.2164 779.996,-697.2164"/>
<text text-anchor="start" x="777.445" y="-707.5" font-family="Arial" font-size="10.00" fill="#000000">FOREIGN KEY (sport_id) REFERENCES sports(id) ON DELETE RESTRICT</text>
</g>
<!-- public.stocks -->
<g id="node2" class="node">
<title>public.stocks</title>
<polygon fill="#efefef" stroke="transparent" points="155,-1487.5 155,-1522.5 408,-1522.5 408,-1487.5 155,-1487.5"/>
<polygon fill="none" stroke="#000000" points="155,-1487.5 155,-1522.5 408,-1522.5 408,-1487.5 155,-1487.5"/>
<text text-anchor="start" x="181.3643" y="-1500.3" font-family="Arial Bold" font-size="18.00" fill="#000000">public.stocks</text>
<text text-anchor="start" x="284.3819" y="-1500.3" font-family="Arial" font-size="14.00" fill="#000000"> </text>
<text text-anchor="start" x="288.2725" y="-1500.3" font-family="Arial" font-size="14.00" fill="#666666">[BASE TABLE]</text>
<polygon fill="none" stroke="#000000" points="155,-1457.5 155,-1487.5 408,-1487.5 408,-1457.5 155,-1457.5"/>
<text text-anchor="start" x="162" y="-1468.9" font-family="Arial" font-size="14.00" fill="#000000">id </text>
<text text-anchor="start" x="176.7798" y="-1468.9" font-family="Arial" font-size="14.00" fill="#666666">[bigint]</text>
<polygon fill="none" stroke="#000000" points="155,-1427.5 155,-1457.5 408,-1457.5 408,-1427.5 155,-1427.5"/>
<text text-anchor="start" x="162" y="-1438.9" font-family="Arial" font-size="14.00" fill="#000000">recruitment_id </text>
<text text-anchor="start" x="254.5624" y="-1438.9" font-family="Arial" font-size="14.00" fill="#666666">[bigint]</text>
<polygon fill="none" stroke="#000000" points="155,-1397.5 155,-1427.5 408,-1427.5 408,-1397.5 155,-1397.5"/>
<text text-anchor="start" x="162" y="-1408.9" font-family="Arial" font-size="14.00" fill="#000000">user_id </text>
<text text-anchor="start" x="211.7882" y="-1408.9" font-family="Arial" font-size="14.00" fill="#666666">[bigint]</text>
<polygon fill="none" stroke="#000000" points="155,-1367.5 155,-1397.5 408,-1397.5 408,-1367.5 155,-1367.5"/>
<text text-anchor="start" x="162" y="-1378.9" font-family="Arial" font-size="14.00" fill="#000000">created_at </text>
<text text-anchor="start" x="232.028" y="-1378.9" font-family="Arial" font-size="14.00" fill="#666666">[timestamp with time zone]</text>
<polygon fill="none" stroke="#000000" points="155,-1337.5 155,-1367.5 408,-1367.5 408,-1337.5 155,-1337.5"/>
<text text-anchor="start" x="161.6915" y="-1348.9" font-family="Arial" font-size="14.00" fill="#000000">updated_at </text>
<text text-anchor="start" x="235.6241" y="-1348.9" font-family="Arial" font-size="14.00" fill="#666666">[timestamp with time zone]</text>
</g>
<!-- public.stocks&#45;&gt;public.recruitments -->
<g id="edge1" class="edge">
<title>public.stocks:recruitment_id&#45;&gt;public.recruitments:id</title>
<path fill="none" stroke="#000000" d="M418.2183,-1441.8629C479.07,-1433.672 435.7261,-1348.1341 459,-1280 479.2958,-1220.5841 445.2133,-1147.5 508,-1147.5"/>
<polygon fill="#000000" stroke="#000000" points="417.9806,-1441.8776 407.7199,-1438.0087 412.9903,-1442.1888 408,-1442.5 408,-1442.5 408,-1442.5 412.9903,-1442.1888 408.2801,-1446.9913 417.9806,-1441.8776 417.9806,-1441.8776"/>
<text text-anchor="start" x="6.5005" y="-1452.5" font-family="Arial" font-size="10.00" fill="#000000">FOREIGN KEY (recruitment_id) REFERENCES recruitments(id) ON DELETE CASCADE</text>
</g>
<!-- public.applicants -->
<g id="node3" class="node">
<title>public.applicants</title>
<polygon fill="#efefef" stroke="transparent" points="512,-1502.5 512,-1537.5 765,-1537.5 765,-1502.5 512,-1502.5"/>
<polygon fill="none" stroke="#000000" points="512,-1502.5 512,-1537.5 765,-1537.5 765,-1502.5 512,-1502.5"/>
<text text-anchor="start" x="523.3577" y="-1515.3" font-family="Arial Bold" font-size="18.00" fill="#000000">public.applicants</text>
<text text-anchor="start" x="656.3885" y="-1515.3" font-family="Arial" font-size="14.00" fill="#000000"> </text>
<text text-anchor="start" x="660.2791" y="-1515.3" font-family="Arial" font-size="14.00" fill="#666666">[BASE TABLE]</text>
<polygon fill="none" stroke="#000000" points="512,-1472.5 512,-1502.5 765,-1502.5 765,-1472.5 512,-1472.5"/>
<text text-anchor="start" x="519" y="-1483.9" font-family="Arial" font-size="14.00" fill="#000000">id </text>
<text text-anchor="start" x="533.7798" y="-1483.9" font-family="Arial" font-size="14.00" fill="#666666">[bigint]</text>
<polygon fill="none" stroke="#000000" points="512,-1442.5 512,-1472.5 765,-1472.5 765,-1442.5 512,-1442.5"/>
<text text-anchor="start" x="519" y="-1453.9" font-family="Arial" font-size="14.00" fill="#000000">recruitment_id </text>
<text text-anchor="start" x="611.5624" y="-1453.9" font-family="Arial" font-size="14.00" fill="#666666">[bigint]</text>
<polygon fill="none" stroke="#000000" points="512,-1412.5 512,-1442.5 765,-1442.5 765,-1412.5 512,-1412.5"/>
<text text-anchor="start" x="519" y="-1423.9" font-family="Arial" font-size="14.00" fill="#000000">user_id </text>
<text text-anchor="start" x="568.7882" y="-1423.9" font-family="Arial" font-size="14.00" fill="#666666">[bigint]</text>
<polygon fill="none" stroke="#000000" points="512,-1382.5 512,-1412.5 765,-1412.5 765,-1382.5 512,-1382.5"/>
<text text-anchor="start" x="519" y="-1393.9" font-family="Arial" font-size="14.00" fill="#000000">created_at </text>
<text text-anchor="start" x="589.028" y="-1393.9" font-family="Arial" font-size="14.00" fill="#666666">[timestamp with time zone]</text>
<polygon fill="none" stroke="#000000" points="512,-1352.5 512,-1382.5 765,-1382.5 765,-1352.5 512,-1352.5"/>
<text text-anchor="start" x="518.6915" y="-1363.9" font-family="Arial" font-size="14.00" fill="#000000">updated_at </text>
<text text-anchor="start" x="592.6241" y="-1363.9" font-family="Arial" font-size="14.00" fill="#666666">[timestamp with time zone]</text>
<polygon fill="none" stroke="#000000" points="512,-1322.5 512,-1352.5 765,-1352.5 765,-1322.5 512,-1322.5"/>
<text text-anchor="start" x="519" y="-1333.9" font-family="Arial" font-size="14.00" fill="#000000">message </text>
<text text-anchor="start" x="579.6816" y="-1333.9" font-family="Arial" font-size="14.00" fill="#666666">[varchar(1000)]</text>
</g>
<!-- public.applicants&#45;&gt;public.recruitments -->
<g id="edge2" class="edge">
<title>public.applicants:recruitment_id&#45;&gt;public.recruitments:id</title>
<path fill="none" stroke="#000000" d="M774.9971,-1456.8018C841.4026,-1447.0188 814.4437,-1336.8524 765,-1280 689.3121,-1192.9709 583.6879,-1331.0291 508,-1244 479.855,-1211.6377 465.1111,-1147.5 508,-1147.5"/>
<polygon fill="#000000" stroke="#000000" points="774.9757,-1456.8032 764.6864,-1453.0109 769.9879,-1457.1516 765,-1457.5 765,-1457.5 765,-1457.5 769.9879,-1457.1516 765.3136,-1461.9891 774.9757,-1456.8032 774.9757,-1456.8032"/>
<text text-anchor="start" x="771.5005" y="-1467.5" font-family="Arial" font-size="10.00" fill="#000000">FOREIGN KEY (recruitment_id) REFERENCES recruitments(id) ON DELETE CASCADE</text>
</g>
<!-- public.recruitment_tags -->
<g id="node4" class="node">
<title>public.recruitment_tags</title>
<polygon fill="#efefef" stroke="transparent" points="869,-1487.5 869,-1522.5 1166,-1522.5 1166,-1487.5 869,-1487.5"/>
<polygon fill="none" stroke="#000000" points="869,-1487.5 869,-1522.5 1166,-1522.5 1166,-1487.5 869,-1487.5"/>
<text text-anchor="start" x="875.8581" y="-1500.3" font-family="Arial Bold" font-size="18.00" fill="#000000">public.recruitment_tags</text>
<text text-anchor="start" x="1061.8881" y="-1500.3" font-family="Arial" font-size="14.00" fill="#000000"> </text>
<text text-anchor="start" x="1065.7787" y="-1500.3" font-family="Arial" font-size="14.00" fill="#666666">[BASE TABLE]</text>
<polygon fill="none" stroke="#000000" points="869,-1457.5 869,-1487.5 1166,-1487.5 1166,-1457.5 869,-1457.5"/>
<text text-anchor="start" x="876" y="-1468.9" font-family="Arial" font-size="14.00" fill="#000000">id </text>
<text text-anchor="start" x="890.7798" y="-1468.9" font-family="Arial" font-size="14.00" fill="#666666">[bigint]</text>
<polygon fill="none" stroke="#000000" points="869,-1427.5 869,-1457.5 1166,-1457.5 1166,-1427.5 869,-1427.5"/>
<text text-anchor="start" x="876" y="-1438.9" font-family="Arial" font-size="14.00" fill="#000000">recruitment_id </text>
<text text-anchor="start" x="968.5624" y="-1438.9" font-family="Arial" font-size="14.00" fill="#666666">[bigint]</text>
<polygon fill="none" stroke="#000000" points="869,-1397.5 869,-1427.5 1166,-1427.5 1166,-1397.5 869,-1397.5"/>
<text text-anchor="start" x="876" y="-1408.9" font-family="Arial" font-size="14.00" fill="#000000">tag_id </text>
<text text-anchor="start" x="918.0182" y="-1408.9" font-family="Arial" font-size="14.00" fill="#666666">[bigint]</text>
<polygon fill="none" stroke="#000000" points="869,-1367.5 869,-1397.5 1166,-1397.5 1166,-1367.5 869,-1367.5"/>
<text text-anchor="start" x="876" y="-1378.9" font-family="Arial" font-size="14.00" fill="#000000">created_at </text>
<text text-anchor="start" x="946.028" y="-1378.9" font-family="Arial" font-size="14.00" fill="#666666">[timestamp with time zone]</text>
<polygon fill="none" stroke="#000000" points="869,-1337.5 869,-1367.5 1166,-1367.5 1166,-1337.5 869,-1337.5"/>
<text text-anchor="start" x="876" y="-1348.9" font-family="Arial" font-size="14.00" fill="#000000">updated_at </text>
<text text-anchor="start" x="949.9326" y="-1348.9" font-family="Arial" font-size="14.00" fill="#666666">[timestamp with time zone]</text>
</g>
<!-- public.recruitment_tags&#45;&gt;public.recruitments -->
<g id="edge3" class="edge">
<title>public.recruitment_tags:recruitment_id&#45;&gt;public.recruitments:id</title>
<path fill="none" stroke="#000000" d="M858.9334,-1440.1254C803.6944,-1412.2071 835.5021,-1147.5 770,-1147.5"/>
<polygon fill="#000000" stroke="#000000" points="859.2671,-1440.2041 867.9668,-1446.8798 864.1336,-1441.352 869,-1442.5 869,-1442.5 869,-1442.5 864.1336,-1441.352 870.0332,-1438.1202 859.2671,-1440.2041 859.2671,-1440.2041"/>
<text text-anchor="start" x="875.5005" y="-1426.5" font-family="Arial" font-size="10.00" fill="#000000">FOREIGN KEY (recruitment_id) REFERENCES recruitments(id) ON DELETE CASCADE</text>
</g>
</g>
</svg>
