<?xml version="1.0" encoding="UTF-8" standalone="no"?>
<!DOCTYPE svg PUBLIC "-//W3C//DTD SVG 1.1//EN"
 "http://www.w3.org/Graphics/SVG/1.1/DTD/svg11.dtd">
<!-- Generated by graphviz version 2.40.1 (20161225.0304)
 -->
<!-- Title: public.room_read_managements Pages: 1 -->
<svg width="1083pt" height="862pt"
 viewBox="0.00 0.00 1083.00 862.00" xmlns="http://www.w3.org/2000/svg" xmlns:xlink="http://www.w3.org/1999/xlink">
<g id="graph0" class="graph" transform="scale(1 1) rotate(0) translate(4 858)">
<title>public.room_read_managements</title>
<polygon fill="#ffffff" stroke="transparent" points="-4,4 -4,-858 1079,-858 1079,4 -4,4"/>
<!-- public.room_read_managements -->
<g id="node1" class="node">
<title>public.room_read_managements</title>
<polygon fill="#efefef" stroke="transparent" points="354,-772.5 354,-807.5 728,-807.5 728,-772.5 354,-772.5"/>
<polygon fill="none" stroke="#000000" points="354,-772.5 354,-807.5 728,-807.5 728,-772.5 354,-772.5"/>
<text text-anchor="start" x="360.8435" y="-785.3" font-family="Arial Bold" font-size="18.00" fill="#000000">public.room_read_managements</text>
<text text-anchor="start" x="623.9027" y="-785.3" font-family="Arial" font-size="14.00" fill="#000000"> </text>
<text text-anchor="start" x="627.7933" y="-785.3" font-family="Arial" font-size="14.00" fill="#666666">[BASE TABLE]</text>
<polygon fill="none" stroke="#000000" points="354,-742.5 354,-772.5 728,-772.5 728,-742.5 354,-742.5"/>
<text text-anchor="start" x="361" y="-753.9" font-family="Arial" font-size="14.00" fill="#000000">id </text>
<text text-anchor="start" x="375.7798" y="-753.9" font-family="Arial" font-size="14.00" fill="#666666">[bigint]</text>
<polygon fill="none" stroke="#000000" points="354,-712.5 354,-742.5 728,-742.5 728,-712.5 354,-712.5"/>
<text text-anchor="start" x="361" y="-723.9" font-family="Arial" font-size="14.00" fill="#000000">last_read_at </text>
<text text-anchor="start" x="441.9172" y="-723.9" font-family="Arial" font-size="14.00" fill="#666666">[timestamp with time zone]</text>
<polygon fill="none" stroke="#000000" points="354,-682.5 354,-712.5 728,-712.5 728,-682.5 354,-682.5"/>
<text text-anchor="start" x="361" y="-693.9" font-family="Arial" font-size="14.00" fill="#000000">room_id </text>
<text text-anchor="start" x="415.4488" y="-693.9" font-family="Arial" font-size="14.00" fill="#666666">[bigint]</text>
<polygon fill="none" stroke="#000000" points="354,-652.5 354,-682.5 728,-682.5 728,-652.5 354,-652.5"/>
<text text-anchor="start" x="361" y="-663.9" font-family="Arial" font-size="14.00" fill="#000000">user_id </text>
<text text-anchor="start" x="410.7882" y="-663.9" font-family="Arial" font-size="14.00" fill="#666666">[bigint]</text>
<polygon fill="none" stroke="#000000" points="354,-622.5 354,-652.5 728,-652.5 728,-622.5 354,-622.5"/>
<text text-anchor="start" x="361" y="-633.9" font-family="Arial" font-size="14.00" fill="#000000">created_at </text>
<text text-anchor="start" x="431.028" y="-633.9" font-family="Arial" font-size="14.00" fill="#666666">[timestamp with time zone]</text>
<polygon fill="none" stroke="#000000" points="354,-592.5 354,-622.5 728,-622.5 728,-592.5 354,-592.5"/>
<text text-anchor="start" x="361" y="-603.9" font-family="Arial" font-size="14.00" fill="#000000">updated_at </text>
<text text-anchor="start" x="434.9326" y="-603.9" font-family="Arial" font-size="14.00" fill="#666666">[timestamp with time zone]</text>
<polygon fill="none" stroke="#000000" stroke-width="3" points="352.5,-591.5 352.5,-809.5 729.5,-809.5 729.5,-591.5 352.5,-591.5"/>
</g>
<!-- public.rooms -->
<g id="node2" class="node">
<title>public.rooms</title>
<polygon fill="#efefef" stroke="transparent" points="198,-282.5 198,-317.5 451,-317.5 451,-282.5 198,-282.5"/>
<polygon fill="none" stroke="#000000" points="198,-282.5 198,-317.5 451,-317.5 451,-282.5 198,-282.5"/>
<text text-anchor="start" x="224.8701" y="-295.3" font-family="Arial Bold" font-size="18.00" fill="#000000">public.rooms</text>
<text text-anchor="start" x="326.8761" y="-295.3" font-family="Arial" font-size="14.00" fill="#000000"> </text>
<text text-anchor="start" x="330.7667" y="-295.3" font-family="Arial" font-size="14.00" fill="#666666">[BASE TABLE]</text>
<polygon fill="none" stroke="#000000" points="198,-252.5 198,-282.5 451,-282.5 451,-252.5 198,-252.5"/>
<text text-anchor="start" x="205" y="-263.9" font-family="Arial" font-size="14.00" fill="#000000">id </text>
<text text-anchor="start" x="219.7798" y="-263.9" font-family="Arial" font-size="14.00" fill="#666666">[bigint]</text>
<polygon fill="none" stroke="#000000" points="198,-222.5 198,-252.5 451,-252.5 451,-222.5 198,-222.5"/>
<text text-anchor="start" x="205" y="-233.9" font-family="Arial" font-size="14.00" fill="#000000">created_at </text>
<text text-anchor="start" x="275.028" y="-233.9" font-family="Arial" font-size="14.00" fill="#666666">[timestamp with time zone]</text>
<polygon fill="none" stroke="#000000" points="198,-192.5 198,-222.5 451,-222.5 451,-192.5 198,-192.5"/>
<text text-anchor="start" x="204.6915" y="-203.9" font-family="Arial" font-size="14.00" fill="#000000">updated_at </text>
<text text-anchor="start" x="278.6241" y="-203.9" font-family="Arial" font-size="14.00" fill="#666666">[timestamp with time zone]</text>
</g>
<!-- public.room_read_managements&#45;&gt;public.rooms -->
<g id="edge1" class="edge">
<title>public.room_read_managements:room_id&#45;&gt;public.rooms:id</title>
<path fill="none" stroke="#000000" d="M343.7406,-696.6961C292.7722,-687.8766 338.9793,-608.2864 354,-547 376.1935,-456.4473 428.8065,-451.5527 451,-361 460.8921,-320.639 492.5556,-267.5 451,-267.5"/>
<polygon fill="#000000" stroke="#000000" points="344.0306,-696.7187 353.6484,-701.9862 349.0153,-697.1093 354,-697.5 354,-697.5 354,-697.5 349.0153,-697.1093 354.3516,-693.0138 344.0306,-696.7187 344.0306,-696.7187"/>
<text text-anchor="start" x="6.7245" y="-707.5" font-family="Arial" font-size="10.00" fill="#000000">FOREIGN KEY (room_id) REFERENCES rooms(id) ON DELETE CASCADE</text>
</g>
<!-- public.users -->
<g id="node3" class="node">
<title>public.users</title>
<polygon fill="#efefef" stroke="transparent" points="555,-432.5 555,-467.5 961,-467.5 961,-432.5 555,-432.5"/>
<polygon fill="none" stroke="#000000" points="555,-432.5 555,-467.5 961,-467.5 961,-432.5 555,-432.5"/>
<text text-anchor="start" x="661.3662" y="-445.3" font-family="Arial Bold" font-size="18.00" fill="#000000">public.users</text>
<text text-anchor="start" x="757.38" y="-445.3" font-family="Arial" font-size="14.00" fill="#000000"> </text>
<text text-anchor="start" x="761.2706" y="-445.3" font-family="Arial" font-size="14.00" fill="#666666">[BASE TABLE]</text>
<polygon fill="none" stroke="#000000" points="555,-402.5 555,-432.5 961,-432.5 961,-402.5 555,-402.5"/>
<text text-anchor="start" x="562" y="-413.9" font-family="Arial" font-size="14.00" fill="#000000">id </text>
<text text-anchor="start" x="576.7798" y="-413.9" font-family="Arial" font-size="14.00" fill="#666666">[bigint]</text>
<polygon fill="none" stroke="#000000" points="555,-372.5 555,-402.5 961,-402.5 961,-372.5 555,-372.5"/>
<text text-anchor="start" x="562" y="-383.9" font-family="Arial" font-size="14.00" fill="#000000">name </text>
<text text-anchor="start" x="600.899" y="-383.9" font-family="Arial" font-size="14.00" fill="#666666">[varchar(50)]</text>
<polygon fill="none" stroke="#000000" points="555,-342.5 555,-372.5 961,-372.5 961,-342.5 555,-342.5"/>
<text text-anchor="start" x="562" y="-353.9" font-family="Arial" font-size="14.00" fill="#000000">email </text>
<text text-anchor="start" x="599.3296" y="-353.9" font-family="Arial" font-size="14.00" fill="#666666">[varchar(100)]</text>
<polygon fill="none" stroke="#000000" points="555,-312.5 555,-342.5 961,-342.5 961,-312.5 555,-312.5"/>
<text text-anchor="start" x="562" y="-323.9" font-family="Arial" font-size="14.00" fill="#000000">role </text>
<text text-anchor="start" x="589.223" y="-323.9" font-family="Arial" font-size="14.00" fill="#666666">[varchar]</text>
<polygon fill="none" stroke="#000000" points="555,-282.5 555,-312.5 961,-312.5 961,-282.5 555,-282.5"/>
<text text-anchor="start" x="562" y="-293.9" font-family="Arial" font-size="14.00" fill="#000000">avatar </text>
<text text-anchor="start" x="604.7896" y="-293.9" font-family="Arial" font-size="14.00" fill="#666666">[varchar]</text>
<polygon fill="none" stroke="#000000" points="555,-252.5 555,-282.5 961,-282.5 961,-252.5 555,-252.5"/>
<text text-anchor="start" x="562" y="-263.9" font-family="Arial" font-size="14.00" fill="#000000">introduction </text>
<text text-anchor="start" x="638.2412" y="-263.9" font-family="Arial" font-size="14.00" fill="#666666">[varchar(4000)]</text>
<polygon fill="none" stroke="#000000" points="555,-222.5 555,-252.5 961,-252.5 961,-222.5 555,-222.5"/>
<text text-anchor="start" x="562" y="-233.9" font-family="Arial" font-size="14.00" fill="#000000">email_verification_status </text>
<text text-anchor="start" x="719.1332" y="-233.9" font-family="Arial" font-size="14.00" fill="#666666">[varchar]</text>
<polygon fill="none" stroke="#000000" points="555,-192.5 555,-222.5 961,-222.5 961,-192.5 555,-192.5"/>
<text text-anchor="start" x="562" y="-203.9" font-family="Arial" font-size="14.00" fill="#000000">email_verification_token </text>
<text text-anchor="start" x="716.0252" y="-203.9" font-family="Arial" font-size="14.00" fill="#666666">[varchar]</text>
<polygon fill="none" stroke="#000000" points="555,-162.5 555,-192.5 961,-192.5 961,-162.5 555,-162.5"/>
<text text-anchor="start" x="561.9685" y="-173.9" font-family="Arial" font-size="14.00" fill="#000000">email_verification_token_expires_at </text>
<text text-anchor="start" x="788.3471" y="-173.9" font-family="Arial" font-size="14.00" fill="#666666">[timestamp with time zone]</text>
<polygon fill="none" stroke="#000000" points="555,-132.5 555,-162.5 961,-162.5 961,-132.5 555,-132.5"/>
<text text-anchor="start" x="562" y="-143.9" font-family="Arial" font-size="14.00" fill="#000000">password_digest </text>
<text text-anchor="start" x="670.9158" y="-143.9" font-family="Arial" font-size="14.00" fill="#666666">[varchar]</text>
<polygon fill="none" stroke="#000000" points="555,-102.5 555,-132.5 961,-132.5 961,-102.5 555,-102.5"/>
<text text-anchor="start" x="562" y="-113.9" font-family="Arial" font-size="14.00" fill="#000000">created_at </text>
<text text-anchor="start" x="632.028" y="-113.9" font-family="Arial" font-size="14.00" fill="#666666">[timestamp with time zone]</text>
<polygon fill="none" stroke="#000000" points="555,-72.5 555,-102.5 961,-102.5 961,-72.5 555,-72.5"/>
<text text-anchor="start" x="562" y="-83.9" font-family="Arial" font-size="14.00" fill="#000000">updated_at </text>
<text text-anchor="start" x="635.9326" y="-83.9" font-family="Arial" font-size="14.00" fill="#666666">[timestamp with time zone]</text>
<polygon fill="none" stroke="#000000" points="555,-42.5 555,-72.5 961,-72.5 961,-42.5 555,-42.5"/>
<text text-anchor="start" x="562" y="-53.9" font-family="Arial" font-size="14.00" fill="#000000">last_sign_in_at </text>
<text text-anchor="start" x="659.2524" y="-53.9" font-family="Arial" font-size="14.00" fill="#666666">[timestamp with time zone]</text>
</g>
<!-- public.room_read_managements&#45;&gt;public.users -->
<g id="edge2" class="edge">
<title>public.room_read_managements:user_id&#45;&gt;public.users:id</title>
<path fill="none" stroke="#000000" d="M737.9742,-666.4303C778.788,-656.8806 759.4825,-585.7081 728,-547 678.4454,-486.0719 604.5546,-571.9281 555,-511 528.7793,-478.7612 513.4444,-417.5 555,-417.5"/>
<polygon fill="#000000" stroke="#000000" points="737.943,-666.4336 727.5201,-663.0257 732.9715,-666.9668 728,-667.5 728,-667.5 728,-667.5 732.9715,-666.9668 728.4799,-671.9743 737.943,-666.4336 737.943,-666.4336"/>
<text text-anchor="start" x="735.329" y="-677.5" font-family="Arial" font-size="10.00" fill="#000000">FOREIGN KEY (user_id) REFERENCES users(id) ON DELETE SET NULL</text>
</g>
</g>
</svg>
