<?xml version="1.0" encoding="UTF-8" standalone="no"?>
<!DOCTYPE svg PUBLIC "-//W3C//DTD SVG 1.1//EN"
 "http://www.w3.org/Graphics/SVG/1.1/DTD/svg11.dtd">
<!-- Generated by graphviz version 2.40.1 (20161225.0304)
 -->
<!-- Title: public.applicants Pages: 1 -->
<svg width="1016pt" height="1259pt"
 viewBox="0.00 0.00 1016.00 1259.00" xmlns="http://www.w3.org/2000/svg" xmlns:xlink="http://www.w3.org/1999/xlink">
<g id="graph0" class="graph" transform="scale(1 1) rotate(0) translate(4 1255)">
<title>public.applicants</title>
<polygon fill="#ffffff" stroke="transparent" points="-4,4 -4,-1255 1012,-1255 1012,4 -4,4"/>
<!-- public.applicants -->
<g id="node1" class="node">
<title>public.applicants</title>
<polygon fill="#efefef" stroke="transparent" points="408,-862.5 408,-897.5 661,-897.5 661,-862.5 408,-862.5"/>
<polygon fill="none" stroke="#000000" points="408,-862.5 408,-897.5 661,-897.5 661,-862.5 408,-862.5"/>
<text text-anchor="start" x="419.3577" y="-875.3" font-family="Arial Bold" font-size="18.00" fill="#000000">public.applicants</text>
<text text-anchor="start" x="552.3885" y="-875.3" font-family="Arial" font-size="14.00" fill="#000000"> </text>
<text text-anchor="start" x="556.2791" y="-875.3" font-family="Arial" font-size="14.00" fill="#666666">[BASE TABLE]</text>
<polygon fill="none" stroke="#000000" points="408,-832.5 408,-862.5 661,-862.5 661,-832.5 408,-832.5"/>
<text text-anchor="start" x="415" y="-843.9" font-family="Arial" font-size="14.00" fill="#000000">id </text>
<text text-anchor="start" x="429.7798" y="-843.9" font-family="Arial" font-size="14.00" fill="#666666">[varchar]</text>
<polygon fill="none" stroke="#000000" points="408,-802.5 408,-832.5 661,-832.5 661,-802.5 408,-802.5"/>
<text text-anchor="start" x="415" y="-813.9" font-family="Arial" font-size="14.00" fill="#000000">recruitment_id </text>
<text text-anchor="start" x="507.5624" y="-813.9" font-family="Arial" font-size="14.00" fill="#666666">[varchar]</text>
<polygon fill="none" stroke="#000000" points="408,-772.5 408,-802.5 661,-802.5 661,-772.5 408,-772.5"/>
<text text-anchor="start" x="415" y="-783.9" font-family="Arial" font-size="14.00" fill="#000000">user_id </text>
<text text-anchor="start" x="464.7882" y="-783.9" font-family="Arial" font-size="14.00" fill="#666666">[varchar]</text>
<polygon fill="none" stroke="#000000" points="408,-742.5 408,-772.5 661,-772.5 661,-742.5 408,-742.5"/>
<text text-anchor="start" x="415" y="-753.9" font-family="Arial" font-size="14.00" fill="#000000">created_at </text>
<text text-anchor="start" x="485.028" y="-753.9" font-family="Arial" font-size="14.00" fill="#666666">[timestamp with time zone]</text>
<polygon fill="none" stroke="#000000" points="408,-712.5 408,-742.5 661,-742.5 661,-712.5 408,-712.5"/>
<text text-anchor="start" x="414.6915" y="-723.9" font-family="Arial" font-size="14.00" fill="#000000">updated_at </text>
<text text-anchor="start" x="488.6241" y="-723.9" font-family="Arial" font-size="14.00" fill="#666666">[timestamp with time zone]</text>
<polygon fill="none" stroke="#000000" points="408,-682.5 408,-712.5 661,-712.5 661,-682.5 408,-682.5"/>
<text text-anchor="start" x="415" y="-693.9" font-family="Arial" font-size="14.00" fill="#000000">message </text>
<text text-anchor="start" x="475.6816" y="-693.9" font-family="Arial" font-size="14.00" fill="#666666">[varchar(1000)]</text>
<polygon fill="none" stroke="#000000" stroke-width="3" points="406,-681.5 406,-899.5 662,-899.5 662,-681.5 406,-681.5"/>
</g>
<!-- public.recruitments -->
<g id="node3" class="node">
<title>public.recruitments</title>
<polygon fill="#efefef" stroke="transparent" points="185,-522.5 185,-557.5 447,-557.5 447,-522.5 185,-522.5"/>
<polygon fill="none" stroke="#000000" points="185,-522.5 185,-557.5 447,-557.5 447,-522.5 185,-522.5"/>
<text text-anchor="start" x="191.8685" y="-535.3" font-family="Arial Bold" font-size="18.00" fill="#000000">public.recruitments</text>
<text text-anchor="start" x="342.8777" y="-535.3" font-family="Arial" font-size="14.00" fill="#000000"> </text>
<text text-anchor="start" x="346.7683" y="-535.3" font-family="Arial" font-size="14.00" fill="#666666">[BASE TABLE]</text>
<polygon fill="none" stroke="#000000" points="185,-492.5 185,-522.5 447,-522.5 447,-492.5 185,-492.5"/>
<text text-anchor="start" x="192" y="-503.9" font-family="Arial" font-size="14.00" fill="#000000">id </text>
<text text-anchor="start" x="206.7798" y="-503.9" font-family="Arial" font-size="14.00" fill="#666666">[varchar]</text>
<polygon fill="none" stroke="#000000" points="185,-462.5 185,-492.5 447,-492.5 447,-462.5 185,-462.5"/>
<text text-anchor="start" x="192" y="-473.9" font-family="Arial" font-size="14.00" fill="#000000">title </text>
<text text-anchor="start" x="217.6676" y="-473.9" font-family="Arial" font-size="14.00" fill="#666666">[varchar(60)]</text>
<polygon fill="none" stroke="#000000" points="185,-432.5 185,-462.5 447,-462.5 447,-432.5 185,-432.5"/>
<text text-anchor="start" x="192" y="-443.9" font-family="Arial" font-size="14.00" fill="#000000">type </text>
<text text-anchor="start" x="222.3464" y="-443.9" font-family="Arial" font-size="14.00" fill="#666666">[varchar]</text>
<polygon fill="none" stroke="#000000" points="185,-402.5 185,-432.5 447,-432.5 447,-402.5 185,-402.5"/>
<text text-anchor="start" x="192" y="-413.9" font-family="Arial" font-size="14.00" fill="#000000">place </text>
<text text-anchor="start" x="229.345" y="-413.9" font-family="Arial" font-size="14.00" fill="#666666">[varchar]</text>
<polygon fill="none" stroke="#000000" points="185,-372.5 185,-402.5 447,-402.5 447,-372.5 185,-372.5"/>
<text text-anchor="start" x="192" y="-383.9" font-family="Arial" font-size="14.00" fill="#000000">start_at </text>
<text text-anchor="start" x="242.5708" y="-383.9" font-family="Arial" font-size="14.00" fill="#666666">[timestamp with time zone]</text>
<polygon fill="none" stroke="#000000" points="185,-342.5 185,-372.5 447,-372.5 447,-342.5 185,-342.5"/>
<text text-anchor="start" x="192" y="-353.9" font-family="Arial" font-size="14.00" fill="#000000">detail </text>
<text text-anchor="start" x="229.3422" y="-353.9" font-family="Arial" font-size="14.00" fill="#666666">[varchar(10000)]</text>
<polygon fill="none" stroke="#000000" points="185,-312.5 185,-342.5 447,-342.5 447,-312.5 185,-312.5"/>
<text text-anchor="start" x="192" y="-323.9" font-family="Arial" font-size="14.00" fill="#000000">closing_at </text>
<text text-anchor="start" x="258.9074" y="-323.9" font-family="Arial" font-size="14.00" fill="#666666">[timestamp with time zone]</text>
<polygon fill="none" stroke="#000000" points="185,-282.5 185,-312.5 447,-312.5 447,-282.5 185,-282.5"/>
<text text-anchor="start" x="192" y="-293.9" font-family="Arial" font-size="14.00" fill="#000000">competition_id </text>
<text text-anchor="start" x="286.1304" y="-293.9" font-family="Arial" font-size="14.00" fill="#666666">[varchar]</text>
<polygon fill="none" stroke="#000000" points="185,-252.5 185,-282.5 447,-282.5 447,-252.5 185,-252.5"/>
<text text-anchor="start" x="192" y="-263.9" font-family="Arial" font-size="14.00" fill="#000000">prefecture_id </text>
<text text-anchor="start" x="277.5778" y="-263.9" font-family="Arial" font-size="14.00" fill="#666666">[varchar]</text>
<polygon fill="none" stroke="#000000" points="185,-222.5 185,-252.5 447,-252.5 447,-222.5 185,-222.5"/>
<text text-anchor="start" x="192" y="-233.9" font-family="Arial" font-size="14.00" fill="#000000">user_id </text>
<text text-anchor="start" x="241.7882" y="-233.9" font-family="Arial" font-size="14.00" fill="#666666">[varchar]</text>
<polygon fill="none" stroke="#000000" points="185,-192.5 185,-222.5 447,-222.5 447,-192.5 185,-192.5"/>
<text text-anchor="start" x="192" y="-203.9" font-family="Arial" font-size="14.00" fill="#000000">created_at </text>
<text text-anchor="start" x="262.028" y="-203.9" font-family="Arial" font-size="14.00" fill="#666666">[timestamp with time zone]</text>
<polygon fill="none" stroke="#000000" points="185,-162.5 185,-192.5 447,-192.5 447,-162.5 185,-162.5"/>
<text text-anchor="start" x="192" y="-173.9" font-family="Arial" font-size="14.00" fill="#000000">updated_at </text>
<text text-anchor="start" x="265.9326" y="-173.9" font-family="Arial" font-size="14.00" fill="#666666">[timestamp with time zone]</text>
<polygon fill="none" stroke="#000000" points="185,-132.5 185,-162.5 447,-162.5 447,-132.5 185,-132.5"/>
<text text-anchor="start" x="192" y="-143.9" font-family="Arial" font-size="14.00" fill="#000000">location_lat </text>
<text text-anchor="start" x="266.6872" y="-143.9" font-family="Arial" font-size="14.00" fill="#666666">[double precision]</text>
<polygon fill="none" stroke="#000000" points="185,-102.5 185,-132.5 447,-132.5 447,-102.5 185,-102.5"/>
<text text-anchor="start" x="192" y="-113.9" font-family="Arial" font-size="14.00" fill="#000000">location_lng </text>
<text text-anchor="start" x="270.5792" y="-113.9" font-family="Arial" font-size="14.00" fill="#666666">[double precision]</text>
<polygon fill="none" stroke="#000000" points="185,-72.5 185,-102.5 447,-102.5 447,-72.5 185,-72.5"/>
<text text-anchor="start" x="192" y="-83.9" font-family="Arial" font-size="14.00" fill="#000000">status </text>
<text text-anchor="start" x="233.237" y="-83.9" font-family="Arial" font-size="14.00" fill="#666666">[varchar]</text>
<polygon fill="none" stroke="#000000" points="185,-42.5 185,-72.5 447,-72.5 447,-42.5 185,-42.5"/>
<text text-anchor="start" x="191.5302" y="-53.9" font-family="Arial" font-size="14.00" fill="#000000">published_at </text>
<text text-anchor="start" x="274.7854" y="-53.9" font-family="Arial" font-size="14.00" fill="#666666">[timestamp with time zone]</text>
</g>
<!-- public.applicants&#45;&gt;public.recruitments -->
<g id="edge2" class="edge">
<title>public.applicants:recruitment_id&#45;&gt;public.recruitments:id</title>
<path fill="none" stroke="#000000" d="M397.9523,-816.8649C332.0625,-807.9532 377.2704,-707.1861 408,-637 417.461,-615.3913 437.539,-622.6087 447,-601 463.6668,-562.9332 488.5556,-507.5 447,-507.5"/>
<polygon fill="#000000" stroke="#000000" points="398.0199,-816.8691 407.7161,-821.991 403.01,-817.1845 408,-817.5 408,-817.5 408,-817.5 403.01,-817.1845 408.2839,-813.009 398.0199,-816.8691 398.0199,-816.8691"/>
<text text-anchor="start" x="6.5005" y="-827.5" font-family="Arial" font-size="10.00" fill="#000000">FOREIGN KEY (recruitment_id) REFERENCES recruitments(id) ON DELETE CASCADE</text>
</g>
<!-- public.users -->
<g id="node4" class="node">
<title>public.users</title>
<polygon fill="#efefef" stroke="transparent" points="551,-477.5 551,-512.5 957,-512.5 957,-477.5 551,-477.5"/>
<polygon fill="none" stroke="#000000" points="551,-477.5 551,-512.5 957,-512.5 957,-477.5 551,-477.5"/>
<text text-anchor="start" x="657.3662" y="-490.3" font-family="Arial Bold" font-size="18.00" fill="#000000">public.users</text>
<text text-anchor="start" x="753.38" y="-490.3" font-family="Arial" font-size="14.00" fill="#000000"> </text>
<text text-anchor="start" x="757.2706" y="-490.3" font-family="Arial" font-size="14.00" fill="#666666">[BASE TABLE]</text>
<polygon fill="none" stroke="#000000" points="551,-447.5 551,-477.5 957,-477.5 957,-447.5 551,-447.5"/>
<text text-anchor="start" x="558" y="-458.9" font-family="Arial" font-size="14.00" fill="#000000">id </text>
<text text-anchor="start" x="572.7798" y="-458.9" font-family="Arial" font-size="14.00" fill="#666666">[varchar]</text>
<polygon fill="none" stroke="#000000" points="551,-417.5 551,-447.5 957,-447.5 957,-417.5 551,-417.5"/>
<text text-anchor="start" x="558" y="-428.9" font-family="Arial" font-size="14.00" fill="#000000">name </text>
<text text-anchor="start" x="596.899" y="-428.9" font-family="Arial" font-size="14.00" fill="#666666">[varchar(50)]</text>
<polygon fill="none" stroke="#000000" points="551,-387.5 551,-417.5 957,-417.5 957,-387.5 551,-387.5"/>
<text text-anchor="start" x="558" y="-398.9" font-family="Arial" font-size="14.00" fill="#000000">email </text>
<text text-anchor="start" x="595.3296" y="-398.9" font-family="Arial" font-size="14.00" fill="#666666">[varchar(100)]</text>
<polygon fill="none" stroke="#000000" points="551,-357.5 551,-387.5 957,-387.5 957,-357.5 551,-357.5"/>
<text text-anchor="start" x="558" y="-368.9" font-family="Arial" font-size="14.00" fill="#000000">role </text>
<text text-anchor="start" x="585.223" y="-368.9" font-family="Arial" font-size="14.00" fill="#666666">[varchar]</text>
<polygon fill="none" stroke="#000000" points="551,-327.5 551,-357.5 957,-357.5 957,-327.5 551,-327.5"/>
<text text-anchor="start" x="558" y="-338.9" font-family="Arial" font-size="14.00" fill="#000000">avatar </text>
<text text-anchor="start" x="600.7896" y="-338.9" font-family="Arial" font-size="14.00" fill="#666666">[varchar]</text>
<polygon fill="none" stroke="#000000" points="551,-297.5 551,-327.5 957,-327.5 957,-297.5 551,-297.5"/>
<text text-anchor="start" x="558" y="-308.9" font-family="Arial" font-size="14.00" fill="#000000">introduction </text>
<text text-anchor="start" x="634.2412" y="-308.9" font-family="Arial" font-size="14.00" fill="#666666">[varchar(4000)]</text>
<polygon fill="none" stroke="#000000" points="551,-267.5 551,-297.5 957,-297.5 957,-267.5 551,-267.5"/>
<text text-anchor="start" x="558" y="-278.9" font-family="Arial" font-size="14.00" fill="#000000">email_verification_status </text>
<text text-anchor="start" x="715.1332" y="-278.9" font-family="Arial" font-size="14.00" fill="#666666">[varchar]</text>
<polygon fill="none" stroke="#000000" points="551,-237.5 551,-267.5 957,-267.5 957,-237.5 551,-237.5"/>
<text text-anchor="start" x="558" y="-248.9" font-family="Arial" font-size="14.00" fill="#000000">email_verification_token </text>
<text text-anchor="start" x="712.0252" y="-248.9" font-family="Arial" font-size="14.00" fill="#666666">[varchar]</text>
<polygon fill="none" stroke="#000000" points="551,-207.5 551,-237.5 957,-237.5 957,-207.5 551,-207.5"/>
<text text-anchor="start" x="557.9685" y="-218.9" font-family="Arial" font-size="14.00" fill="#000000">email_verification_token_expires_at </text>
<text text-anchor="start" x="784.3471" y="-218.9" font-family="Arial" font-size="14.00" fill="#666666">[timestamp with time zone]</text>
<polygon fill="none" stroke="#000000" points="551,-177.5 551,-207.5 957,-207.5 957,-177.5 551,-177.5"/>
<text text-anchor="start" x="558" y="-188.9" font-family="Arial" font-size="14.00" fill="#000000">password_digest </text>
<text text-anchor="start" x="666.9158" y="-188.9" font-family="Arial" font-size="14.00" fill="#666666">[varchar]</text>
<polygon fill="none" stroke="#000000" points="551,-147.5 551,-177.5 957,-177.5 957,-147.5 551,-147.5"/>
<text text-anchor="start" x="558" y="-158.9" font-family="Arial" font-size="14.00" fill="#000000">created_at </text>
<text text-anchor="start" x="628.028" y="-158.9" font-family="Arial" font-size="14.00" fill="#666666">[timestamp with time zone]</text>
<polygon fill="none" stroke="#000000" points="551,-117.5 551,-147.5 957,-147.5 957,-117.5 551,-117.5"/>
<text text-anchor="start" x="558" y="-128.9" font-family="Arial" font-size="14.00" fill="#000000">updated_at </text>
<text text-anchor="start" x="631.9326" y="-128.9" font-family="Arial" font-size="14.00" fill="#666666">[timestamp with time zone]</text>
<polygon fill="none" stroke="#000000" points="551,-87.5 551,-117.5 957,-117.5 957,-87.5 551,-87.5"/>
<text text-anchor="start" x="558" y="-98.9" font-family="Arial" font-size="14.00" fill="#000000">last_sign_in_at </text>
<text text-anchor="start" x="655.2524" y="-98.9" font-family="Arial" font-size="14.00" fill="#666666">[timestamp with time zone]</text>
</g>
<!-- public.applicants&#45;&gt;public.users -->
<g id="edge3" class="edge">
<title>public.applicants:user_id&#45;&gt;public.users:id</title>
<path fill="none" stroke="#000000" d="M671.0624,-786.7052C723.893,-777.6613 689.5259,-693.4307 661,-637 633.6099,-582.816 578.3901,-610.184 551,-556 532.2527,-518.9136 509.4444,-462.5 551,-462.5"/>
<polygon fill="#000000" stroke="#000000" points="670.969,-786.7125 660.6456,-783.014 665.9845,-787.1063 661,-787.5 661,-787.5 661,-787.5 665.9845,-787.1063 661.3544,-791.986 670.969,-786.7125 670.969,-786.7125"/>
<text text-anchor="start" x="668.0535" y="-797.5" font-family="Arial" font-size="10.00" fill="#000000">FOREIGN KEY (user_id) REFERENCES users(id) ON DELETE CASCADE</text>
</g>
<!-- public.messages -->
<g id="node2" class="node">
<title>public.messages</title>
<polygon fill="#efefef" stroke="transparent" points="412,-1172.5 412,-1207.5 657,-1207.5 657,-1172.5 412,-1172.5"/>
<polygon fill="none" stroke="#000000" points="412,-1172.5 412,-1207.5 657,-1207.5 657,-1172.5 412,-1172.5"/>
<text text-anchor="start" x="418.86" y="-1185.3" font-family="Arial Bold" font-size="18.00" fill="#000000">public.messages</text>
<text text-anchor="start" x="552.8862" y="-1185.3" font-family="Arial" font-size="14.00" fill="#000000"> </text>
<text text-anchor="start" x="556.7768" y="-1185.3" font-family="Arial" font-size="14.00" fill="#666666">[BASE TABLE]</text>
<polygon fill="none" stroke="#000000" points="412,-1142.5 412,-1172.5 657,-1172.5 657,-1142.5 412,-1142.5"/>
<text text-anchor="start" x="419" y="-1153.9" font-family="Arial" font-size="14.00" fill="#000000">id </text>
<text text-anchor="start" x="433.7798" y="-1153.9" font-family="Arial" font-size="14.00" fill="#666666">[varchar]</text>
<polygon fill="none" stroke="#000000" points="412,-1112.5 412,-1142.5 657,-1142.5 657,-1112.5 412,-1112.5"/>
<text text-anchor="start" x="419" y="-1123.9" font-family="Arial" font-size="14.00" fill="#000000">content </text>
<text text-anchor="start" x="468.8022" y="-1123.9" font-family="Arial" font-size="14.00" fill="#666666">[varchar(1000)]</text>
<polygon fill="none" stroke="#000000" points="412,-1082.5 412,-1112.5 657,-1112.5 657,-1082.5 412,-1082.5"/>
<text text-anchor="start" x="419" y="-1093.9" font-family="Arial" font-size="14.00" fill="#000000">room_id </text>
<text text-anchor="start" x="473.4488" y="-1093.9" font-family="Arial" font-size="14.00" fill="#666666">[varchar]</text>
<polygon fill="none" stroke="#000000" points="412,-1052.5 412,-1082.5 657,-1082.5 657,-1052.5 412,-1052.5"/>
<text text-anchor="start" x="419" y="-1063.9" font-family="Arial" font-size="14.00" fill="#000000">user_id </text>
<text text-anchor="start" x="468.7882" y="-1063.9" font-family="Arial" font-size="14.00" fill="#666666">[varchar]</text>
<polygon fill="none" stroke="#000000" points="412,-1022.5 412,-1052.5 657,-1052.5 657,-1022.5 412,-1022.5"/>
<text text-anchor="start" x="419" y="-1033.9" font-family="Arial" font-size="14.00" fill="#000000">applicant_id </text>
<text text-anchor="start" x="497.5792" y="-1033.9" font-family="Arial" font-size="14.00" fill="#666666">[varchar]</text>
</g>
<!-- public.messages&#45;&gt;public.applicants -->
<g id="edge1" class="edge">
<title>public.messages:applicant_id&#45;&gt;public.applicants:id</title>
<path fill="none" stroke="#000000" d="M534.1172,-1012.2649C524.4737,-961.0004 438.4816,-998.6755 408,-944 387.1157,-906.5393 365.1111,-847.5 408,-847.5"/>
<polygon fill="#000000" stroke="#000000" points="534.1406,-1012.537 530.5166,-1022.8867 534.5703,-1017.5185 535,-1022.5 535,-1022.5 535,-1022.5 534.5703,-1017.5185 539.4834,-1022.1133 534.1406,-1012.537 534.1406,-1012.537"/>
<text text-anchor="start" x="542.4885" y="-1032.5" font-family="Arial" font-size="10.00" fill="#000000">FOREIGN KEY (applicant_id) REFERENCES applicants(id) ON DELETE CASCADE</text>
</g>
</g>
</svg>
