<?xml version="1.0" encoding="UTF-8" standalone="no"?>
<!DOCTYPE svg PUBLIC "-//W3C//DTD SVG 1.1//EN"
 "http://www.w3.org/Graphics/SVG/1.1/DTD/svg11.dtd">
<!-- Generated by graphviz version 2.40.1 (20161225.0304)
 -->
<!-- Title: public.messages Pages: 1 -->
<svg width="954pt" height="802pt"
 viewBox="0.00 0.00 954.00 802.00" xmlns="http://www.w3.org/2000/svg" xmlns:xlink="http://www.w3.org/1999/xlink">
<g id="graph0" class="graph" transform="scale(1 1) rotate(0) translate(4 798)">
<title>public.messages</title>
<polygon fill="#ffffff" stroke="transparent" points="-4,4 -4,-798 950,-798 950,4 -4,4"/>
<!-- public.messages -->
<g id="node1" class="node">
<title>public.messages</title>
<polygon fill="#efefef" stroke="transparent" points="354,-712.5 354,-747.5 599,-747.5 599,-712.5 354,-712.5"/>
<polygon fill="none" stroke="#000000" points="354,-712.5 354,-747.5 599,-747.5 599,-712.5 354,-712.5"/>
<text text-anchor="start" x="360.86" y="-725.3" font-family="Arial Bold" font-size="18.00" fill="#000000">public.messages</text>
<text text-anchor="start" x="494.8862" y="-725.3" font-family="Arial" font-size="14.00" fill="#000000"> </text>
<text text-anchor="start" x="498.7768" y="-725.3" font-family="Arial" font-size="14.00" fill="#666666">[BASE TABLE]</text>
<polygon fill="none" stroke="#000000" points="354,-682.5 354,-712.5 599,-712.5 599,-682.5 354,-682.5"/>
<text text-anchor="start" x="361" y="-693.9" font-family="Arial" font-size="14.00" fill="#000000">id </text>
<text text-anchor="start" x="375.7798" y="-693.9" font-family="Arial" font-size="14.00" fill="#666666">[varchar]</text>
<polygon fill="none" stroke="#000000" points="354,-652.5 354,-682.5 599,-682.5 599,-652.5 354,-652.5"/>
<text text-anchor="start" x="361" y="-663.9" font-family="Arial" font-size="14.00" fill="#000000">content </text>
<text text-anchor="start" x="410.8022" y="-663.9" font-family="Arial" font-size="14.00" fill="#666666">[varchar(1000)]</text>
<polygon fill="none" stroke="#000000" points="354,-622.5 354,-652.5 599,-652.5 599,-622.5 354,-622.5"/>
<text text-anchor="start" x="361" y="-633.9" font-family="Arial" font-size="14.00" fill="#000000">room_id </text>
<text text-anchor="start" x="415.4488" y="-633.9" font-family="Arial" font-size="14.00" fill="#666666">[varchar]</text>
<polygon fill="none" stroke="#000000" points="354,-592.5 354,-622.5 599,-622.5 599,-592.5 354,-592.5"/>
<text text-anchor="start" x="361" y="-603.9" font-family="Arial" font-size="14.00" fill="#000000">user_id </text>
<text text-anchor="start" x="410.7882" y="-603.9" font-family="Arial" font-size="14.00" fill="#666666">[varchar]</text>
<polygon fill="none" stroke="#000000" stroke-width="3" points="352,-591.5 352,-749.5 600,-749.5 600,-591.5 352,-591.5"/>
</g>
<!-- public.rooms -->
<g id="node2" class="node">
<title>public.rooms</title>
<polygon fill="#efefef" stroke="transparent" points="134,-282.5 134,-317.5 387,-317.5 387,-282.5 134,-282.5"/>
<polygon fill="none" stroke="#000000" points="134,-282.5 134,-317.5 387,-317.5 387,-282.5 134,-282.5"/>
<text text-anchor="start" x="160.8701" y="-295.3" font-family="Arial Bold" font-size="18.00" fill="#000000">public.rooms</text>
<text text-anchor="start" x="262.8761" y="-295.3" font-family="Arial" font-size="14.00" fill="#000000"> </text>
<text text-anchor="start" x="266.7667" y="-295.3" font-family="Arial" font-size="14.00" fill="#666666">[BASE TABLE]</text>
<polygon fill="none" stroke="#000000" points="134,-252.5 134,-282.5 387,-282.5 387,-252.5 134,-252.5"/>
<text text-anchor="start" x="141" y="-263.9" font-family="Arial" font-size="14.00" fill="#000000">id </text>
<text text-anchor="start" x="155.7798" y="-263.9" font-family="Arial" font-size="14.00" fill="#666666">[varchar]</text>
<polygon fill="none" stroke="#000000" points="134,-222.5 134,-252.5 387,-252.5 387,-222.5 134,-222.5"/>
<text text-anchor="start" x="141" y="-233.9" font-family="Arial" font-size="14.00" fill="#000000">created_at </text>
<text text-anchor="start" x="211.028" y="-233.9" font-family="Arial" font-size="14.00" fill="#666666">[timestamp with time zone]</text>
<polygon fill="none" stroke="#000000" points="134,-192.5 134,-222.5 387,-222.5 387,-192.5 134,-192.5"/>
<text text-anchor="start" x="140.6915" y="-203.9" font-family="Arial" font-size="14.00" fill="#000000">updated_at </text>
<text text-anchor="start" x="214.6241" y="-203.9" font-family="Arial" font-size="14.00" fill="#666666">[timestamp with time zone]</text>
</g>
<!-- public.messages&#45;&gt;public.rooms -->
<g id="edge1" class="edge">
<title>public.messages:room_id&#45;&gt;public.rooms:id</title>
<path fill="none" stroke="#000000" d="M343.6629,-636.9484C204.9517,-621.0656 548.389,-267.5 387,-267.5"/>
<polygon fill="#000000" stroke="#000000" points="344.0142,-636.9671 353.7602,-641.9936 349.0071,-637.2335 354,-637.5 354,-637.5 354,-637.5 349.0071,-637.2335 354.2398,-633.0064 344.0142,-636.9671 344.0142,-636.9671"/>
<text text-anchor="start" x="6.7245" y="-647.5" font-family="Arial" font-size="10.00" fill="#000000">FOREIGN KEY (room_id) REFERENCES rooms(id) ON DELETE CASCADE</text>
</g>
<!-- public.users -->
<g id="node3" class="node">
<title>public.users</title>
<polygon fill="#efefef" stroke="transparent" points="491,-432.5 491,-467.5 897,-467.5 897,-432.5 491,-432.5"/>
<polygon fill="none" stroke="#000000" points="491,-432.5 491,-467.5 897,-467.5 897,-432.5 491,-432.5"/>
<text text-anchor="start" x="597.3662" y="-445.3" font-family="Arial Bold" font-size="18.00" fill="#000000">public.users</text>
<text text-anchor="start" x="693.38" y="-445.3" font-family="Arial" font-size="14.00" fill="#000000"> </text>
<text text-anchor="start" x="697.2706" y="-445.3" font-family="Arial" font-size="14.00" fill="#666666">[BASE TABLE]</text>
<polygon fill="none" stroke="#000000" points="491,-402.5 491,-432.5 897,-432.5 897,-402.5 491,-402.5"/>
<text text-anchor="start" x="498" y="-413.9" font-family="Arial" font-size="14.00" fill="#000000">id </text>
<text text-anchor="start" x="512.7798" y="-413.9" font-family="Arial" font-size="14.00" fill="#666666">[varchar]</text>
<polygon fill="none" stroke="#000000" points="491,-372.5 491,-402.5 897,-402.5 897,-372.5 491,-372.5"/>
<text text-anchor="start" x="498" y="-383.9" font-family="Arial" font-size="14.00" fill="#000000">name </text>
<text text-anchor="start" x="536.899" y="-383.9" font-family="Arial" font-size="14.00" fill="#666666">[varchar(50)]</text>
<polygon fill="none" stroke="#000000" points="491,-342.5 491,-372.5 897,-372.5 897,-342.5 491,-342.5"/>
<text text-anchor="start" x="498" y="-353.9" font-family="Arial" font-size="14.00" fill="#000000">email </text>
<text text-anchor="start" x="535.3296" y="-353.9" font-family="Arial" font-size="14.00" fill="#666666">[varchar(100)]</text>
<polygon fill="none" stroke="#000000" points="491,-312.5 491,-342.5 897,-342.5 897,-312.5 491,-312.5"/>
<text text-anchor="start" x="498" y="-323.9" font-family="Arial" font-size="14.00" fill="#000000">role </text>
<text text-anchor="start" x="525.223" y="-323.9" font-family="Arial" font-size="14.00" fill="#666666">[varchar]</text>
<polygon fill="none" stroke="#000000" points="491,-282.5 491,-312.5 897,-312.5 897,-282.5 491,-282.5"/>
<text text-anchor="start" x="498" y="-293.9" font-family="Arial" font-size="14.00" fill="#000000">avatar </text>
<text text-anchor="start" x="540.7896" y="-293.9" font-family="Arial" font-size="14.00" fill="#666666">[varchar]</text>
<polygon fill="none" stroke="#000000" points="491,-252.5 491,-282.5 897,-282.5 897,-252.5 491,-252.5"/>
<text text-anchor="start" x="498" y="-263.9" font-family="Arial" font-size="14.00" fill="#000000">introduction </text>
<text text-anchor="start" x="574.2412" y="-263.9" font-family="Arial" font-size="14.00" fill="#666666">[varchar(4000)]</text>
<polygon fill="none" stroke="#000000" points="491,-222.5 491,-252.5 897,-252.5 897,-222.5 491,-222.5"/>
<text text-anchor="start" x="498" y="-233.9" font-family="Arial" font-size="14.00" fill="#000000">email_verification_status </text>
<text text-anchor="start" x="655.1332" y="-233.9" font-family="Arial" font-size="14.00" fill="#666666">[varchar]</text>
<polygon fill="none" stroke="#000000" points="491,-192.5 491,-222.5 897,-222.5 897,-192.5 491,-192.5"/>
<text text-anchor="start" x="498" y="-203.9" font-family="Arial" font-size="14.00" fill="#000000">email_verification_token </text>
<text text-anchor="start" x="652.0252" y="-203.9" font-family="Arial" font-size="14.00" fill="#666666">[varchar]</text>
<polygon fill="none" stroke="#000000" points="491,-162.5 491,-192.5 897,-192.5 897,-162.5 491,-162.5"/>
<text text-anchor="start" x="497.9685" y="-173.9" font-family="Arial" font-size="14.00" fill="#000000">email_verification_token_expires_at </text>
<text text-anchor="start" x="724.3471" y="-173.9" font-family="Arial" font-size="14.00" fill="#666666">[timestamp with time zone]</text>
<polygon fill="none" stroke="#000000" points="491,-132.5 491,-162.5 897,-162.5 897,-132.5 491,-132.5"/>
<text text-anchor="start" x="498" y="-143.9" font-family="Arial" font-size="14.00" fill="#000000">password_digest </text>
<text text-anchor="start" x="606.9158" y="-143.9" font-family="Arial" font-size="14.00" fill="#666666">[varchar]</text>
<polygon fill="none" stroke="#000000" points="491,-102.5 491,-132.5 897,-132.5 897,-102.5 491,-102.5"/>
<text text-anchor="start" x="498" y="-113.9" font-family="Arial" font-size="14.00" fill="#000000">created_at </text>
<text text-anchor="start" x="568.028" y="-113.9" font-family="Arial" font-size="14.00" fill="#666666">[timestamp with time zone]</text>
<polygon fill="none" stroke="#000000" points="491,-72.5 491,-102.5 897,-102.5 897,-72.5 491,-72.5"/>
<text text-anchor="start" x="498" y="-83.9" font-family="Arial" font-size="14.00" fill="#000000">updated_at </text>
<text text-anchor="start" x="571.9326" y="-83.9" font-family="Arial" font-size="14.00" fill="#666666">[timestamp with time zone]</text>
<polygon fill="none" stroke="#000000" points="491,-42.5 491,-72.5 897,-72.5 897,-42.5 491,-42.5"/>
<text text-anchor="start" x="498" y="-53.9" font-family="Arial" font-size="14.00" fill="#000000">last_sign_in_at </text>
<text text-anchor="start" x="595.2524" y="-53.9" font-family="Arial" font-size="14.00" fill="#666666">[timestamp with time zone]</text>
</g>
<!-- public.messages&#45;&gt;public.users -->
<g id="edge2" class="edge">
<title>public.messages:user_id&#45;&gt;public.users:id</title>
<path fill="none" stroke="#000000" d="M608.9447,-604.8785C622.2881,-595.8224 612.2656,-565.4051 599,-547 569.4157,-505.954 520.5843,-552.046 491,-511 466.702,-477.2884 449.4444,-417.5 491,-417.5"/>
<polygon fill="#000000" stroke="#000000" points="608.6697,-604.9509 597.8529,-603.1487 603.8348,-606.2254 599,-607.5 599,-607.5 599,-607.5 603.8348,-606.2254 600.1471,-611.8513 608.6697,-604.9509 608.6697,-604.9509"/>
<text text-anchor="start" x="606.329" y="-617.5" font-family="Arial" font-size="10.00" fill="#000000">FOREIGN KEY (user_id) REFERENCES users(id) ON DELETE SET NULL</text>
</g>
</g>
</svg>
