<?xml version="1.0" encoding="UTF-8" standalone="no"?>
<!DOCTYPE svg PUBLIC "-//W3C//DTD SVG 1.1//EN"
 "http://www.w3.org/Graphics/SVG/1.1/DTD/svg11.dtd">
<!-- Generated by graphviz version 2.40.1 (20161225.0304)
 -->
<!-- Title: public.users Pages: 1 -->
<svg width="3081pt" height="1252pt"
 viewBox="0.00 0.00 3081.00 1252.00" xmlns="http://www.w3.org/2000/svg" xmlns:xlink="http://www.w3.org/1999/xlink">
<g id="graph0" class="graph" transform="scale(1 1) rotate(0) translate(4 1248)">
<title>public.users</title>
<polygon fill="#ffffff" stroke="transparent" points="-4,4 -4,-1248 3077,-1248 3077,4 -4,4"/>
<!-- public.users -->
<g id="node1" class="node">
<title>public.users</title>
<polygon fill="#efefef" stroke="transparent" points="1449,-525.5 1449,-560.5 1851,-560.5 1851,-525.5 1449,-525.5"/>
<polygon fill="none" stroke="#000000" points="1449,-525.5 1449,-560.5 1851,-560.5 1851,-525.5 1449,-525.5"/>
<text text-anchor="start" x="1553.3662" y="-538.3" font-family="Arial Bold" font-size="18.00" fill="#000000">public.users</text>
<text text-anchor="start" x="1649.38" y="-538.3" font-family="Arial" font-size="14.00" fill="#000000"> </text>
<text text-anchor="start" x="1653.2706" y="-538.3" font-family="Arial" font-size="14.00" fill="#666666">[BASE TABLE]</text>
<polygon fill="none" stroke="#000000" points="1449,-495.5 1449,-525.5 1851,-525.5 1851,-495.5 1449,-495.5"/>
<text text-anchor="start" x="1456" y="-506.9" font-family="Arial" font-size="14.00" fill="#000000">id </text>
<text text-anchor="start" x="1470.7798" y="-506.9" font-family="Arial" font-size="14.00" fill="#666666">[bigint]</text>
<polygon fill="none" stroke="#000000" points="1449,-465.5 1449,-495.5 1851,-495.5 1851,-465.5 1449,-465.5"/>
<text text-anchor="start" x="1456" y="-476.9" font-family="Arial" font-size="14.00" fill="#000000">name </text>
<text text-anchor="start" x="1494.899" y="-476.9" font-family="Arial" font-size="14.00" fill="#666666">[varchar(50)]</text>
<polygon fill="none" stroke="#000000" points="1449,-435.5 1449,-465.5 1851,-465.5 1851,-435.5 1449,-435.5"/>
<text text-anchor="start" x="1456" y="-446.9" font-family="Arial" font-size="14.00" fill="#000000">email </text>
<text text-anchor="start" x="1493.3296" y="-446.9" font-family="Arial" font-size="14.00" fill="#666666">[varchar(100)]</text>
<polygon fill="none" stroke="#000000" points="1449,-405.5 1449,-435.5 1851,-435.5 1851,-405.5 1449,-405.5"/>
<text text-anchor="start" x="1456" y="-416.9" font-family="Arial" font-size="14.00" fill="#000000">role </text>
<text text-anchor="start" x="1483.223" y="-416.9" font-family="Arial" font-size="14.00" fill="#666666">[user_role]</text>
<polygon fill="none" stroke="#000000" points="1449,-375.5 1449,-405.5 1851,-405.5 1851,-375.5 1449,-375.5"/>
<text text-anchor="start" x="1456" y="-386.9" font-family="Arial" font-size="14.00" fill="#000000">avatar </text>
<text text-anchor="start" x="1498.7896" y="-386.9" font-family="Arial" font-size="14.00" fill="#666666">[varchar]</text>
<polygon fill="none" stroke="#000000" points="1449,-345.5 1449,-375.5 1851,-375.5 1851,-345.5 1449,-345.5"/>
<text text-anchor="start" x="1456" y="-356.9" font-family="Arial" font-size="14.00" fill="#000000">introduction </text>
<text text-anchor="start" x="1532.2412" y="-356.9" font-family="Arial" font-size="14.00" fill="#666666">[varchar(4000)]</text>
<polygon fill="none" stroke="#000000" points="1449,-315.5 1449,-345.5 1851,-345.5 1851,-315.5 1449,-315.5"/>
<text text-anchor="start" x="1456" y="-326.9" font-family="Arial" font-size="14.00" fill="#000000">email_verification_status </text>
<text text-anchor="start" x="1613.1332" y="-326.9" font-family="Arial" font-size="14.00" fill="#666666">[email_verification_status]</text>
<polygon fill="none" stroke="#000000" points="1449,-285.5 1449,-315.5 1851,-315.5 1851,-285.5 1449,-285.5"/>
<text text-anchor="start" x="1456" y="-296.9" font-family="Arial" font-size="14.00" fill="#000000">email_verification_code </text>
<text text-anchor="start" x="1606.1346" y="-296.9" font-family="Arial" font-size="14.00" fill="#666666">[varchar]</text>
<polygon fill="none" stroke="#000000" points="1449,-255.5 1449,-285.5 1851,-285.5 1851,-255.5 1449,-255.5"/>
<text text-anchor="start" x="1455.9138" y="-266.9" font-family="Arial" font-size="14.00" fill="#000000">email_verification_code_expires_at </text>
<text text-anchor="start" x="1678.4018" y="-266.9" font-family="Arial" font-size="14.00" fill="#666666">[timestamp with time zone]</text>
<polygon fill="none" stroke="#000000" points="1449,-225.5 1449,-255.5 1851,-255.5 1851,-225.5 1449,-225.5"/>
<text text-anchor="start" x="1456" y="-236.9" font-family="Arial" font-size="14.00" fill="#000000">password_digest </text>
<text text-anchor="start" x="1564.9158" y="-236.9" font-family="Arial" font-size="14.00" fill="#666666">[varchar]</text>
<polygon fill="none" stroke="#000000" points="1449,-195.5 1449,-225.5 1851,-225.5 1851,-195.5 1449,-195.5"/>
<text text-anchor="start" x="1456" y="-206.9" font-family="Arial" font-size="14.00" fill="#000000">created_at </text>
<text text-anchor="start" x="1526.028" y="-206.9" font-family="Arial" font-size="14.00" fill="#666666">[timestamp with time zone]</text>
<polygon fill="none" stroke="#000000" points="1449,-165.5 1449,-195.5 1851,-195.5 1851,-165.5 1449,-165.5"/>
<text text-anchor="start" x="1456" y="-176.9" font-family="Arial" font-size="14.00" fill="#000000">updated_at </text>
<text text-anchor="start" x="1529.9326" y="-176.9" font-family="Arial" font-size="14.00" fill="#666666">[timestamp with time zone]</text>
<polygon fill="none" stroke="#000000" points="1449,-135.5 1449,-165.5 1851,-165.5 1851,-135.5 1449,-135.5"/>
<text text-anchor="start" x="1456" y="-146.9" font-family="Arial" font-size="14.00" fill="#000000">last_sign_in_at </text>
<text text-anchor="start" x="1553.2524" y="-146.9" font-family="Arial" font-size="14.00" fill="#666666">[timestamp with time zone]</text>
<polygon fill="none" stroke="#000000" points="1449,-105.5 1449,-135.5 1851,-135.5 1851,-105.5 1449,-105.5"/>
<text text-anchor="start" x="1456" y="-116.9" font-family="Arial" font-size="14.00" fill="#000000">unverified_email </text>
<text text-anchor="start" x="1561.7896" y="-116.9" font-family="Arial" font-size="14.00" fill="#666666">[varchar(100)]</text>
<polygon fill="none" stroke="#000000" points="1449,-75.5 1449,-105.5 1851,-105.5 1851,-75.5 1449,-75.5"/>
<text text-anchor="start" x="1456" y="-86.9" font-family="Arial" font-size="14.00" fill="#000000">password_reset_token </text>
<text text-anchor="start" x="1600.7082" y="-86.9" font-family="Arial" font-size="14.00" fill="#666666">[varchar]</text>
<polygon fill="none" stroke="#000000" points="1449,-45.5 1449,-75.5 1851,-75.5 1851,-45.5 1449,-45.5"/>
<text text-anchor="start" x="1456" y="-56.9" font-family="Arial" font-size="14.00" fill="#000000">password_reset_token_expires_at </text>
<text text-anchor="start" x="1673.0616" y="-56.9" font-family="Arial" font-size="14.00" fill="#666666">[timestamp with time zone]</text>
<polygon fill="none" stroke="#000000" stroke-width="3" points="1447.5,-44.5 1447.5,-562.5 1852.5,-562.5 1852.5,-44.5 1447.5,-44.5"/>
</g>
<!-- public.recruitments -->
<g id="node2" class="node">
<title>public.recruitments</title>
<polygon fill="#efefef" stroke="transparent" points="85,-1165.5 85,-1200.5 347,-1200.5 347,-1165.5 85,-1165.5"/>
<polygon fill="none" stroke="#000000" points="85,-1165.5 85,-1200.5 347,-1200.5 347,-1165.5 85,-1165.5"/>
<text text-anchor="start" x="91.8685" y="-1178.3" font-family="Arial Bold" font-size="18.00" fill="#000000">public.recruitments</text>
<text text-anchor="start" x="242.8777" y="-1178.3" font-family="Arial" font-size="14.00" fill="#000000"> </text>
<text text-anchor="start" x="246.7683" y="-1178.3" font-family="Arial" font-size="14.00" fill="#666666">[BASE TABLE]</text>
<polygon fill="none" stroke="#000000" points="85,-1135.5 85,-1165.5 347,-1165.5 347,-1135.5 85,-1135.5"/>
<text text-anchor="start" x="92" y="-1146.9" font-family="Arial" font-size="14.00" fill="#000000">id </text>
<text text-anchor="start" x="106.7798" y="-1146.9" font-family="Arial" font-size="14.00" fill="#666666">[bigint]</text>
<polygon fill="none" stroke="#000000" points="85,-1105.5 85,-1135.5 347,-1135.5 347,-1105.5 85,-1105.5"/>
<text text-anchor="start" x="92" y="-1116.9" font-family="Arial" font-size="14.00" fill="#000000">title </text>
<text text-anchor="start" x="117.6676" y="-1116.9" font-family="Arial" font-size="14.00" fill="#666666">[varchar(60)]</text>
<polygon fill="none" stroke="#000000" points="85,-1075.5 85,-1105.5 347,-1105.5 347,-1075.5 85,-1075.5"/>
<text text-anchor="start" x="92" y="-1086.9" font-family="Arial" font-size="14.00" fill="#000000">type </text>
<text text-anchor="start" x="122.3464" y="-1086.9" font-family="Arial" font-size="14.00" fill="#666666">[varchar]</text>
<polygon fill="none" stroke="#000000" points="85,-1045.5 85,-1075.5 347,-1075.5 347,-1045.5 85,-1045.5"/>
<text text-anchor="start" x="92" y="-1056.9" font-family="Arial" font-size="14.00" fill="#000000">venue </text>
<text text-anchor="start" x="134.021" y="-1056.9" font-family="Arial" font-size="14.00" fill="#666666">[varchar]</text>
<polygon fill="none" stroke="#000000" points="85,-1015.5 85,-1045.5 347,-1045.5 347,-1015.5 85,-1015.5"/>
<text text-anchor="start" x="92" y="-1026.9" font-family="Arial" font-size="14.00" fill="#000000">start_at </text>
<text text-anchor="start" x="142.5708" y="-1026.9" font-family="Arial" font-size="14.00" fill="#666666">[timestamp with time zone]</text>
<polygon fill="none" stroke="#000000" points="85,-985.5 85,-1015.5 347,-1015.5 347,-985.5 85,-985.5"/>
<text text-anchor="start" x="92" y="-996.9" font-family="Arial" font-size="14.00" fill="#000000">detail </text>
<text text-anchor="start" x="129.3422" y="-996.9" font-family="Arial" font-size="14.00" fill="#666666">[varchar(10000)]</text>
<polygon fill="none" stroke="#000000" points="85,-955.5 85,-985.5 347,-985.5 347,-955.5 85,-955.5"/>
<text text-anchor="start" x="92" y="-966.9" font-family="Arial" font-size="14.00" fill="#000000">closing_at </text>
<text text-anchor="start" x="158.9074" y="-966.9" font-family="Arial" font-size="14.00" fill="#666666">[timestamp with time zone]</text>
<polygon fill="none" stroke="#000000" points="85,-925.5 85,-955.5 347,-955.5 347,-925.5 85,-925.5"/>
<text text-anchor="start" x="92" y="-936.9" font-family="Arial" font-size="14.00" fill="#000000">prefecture_id </text>
<text text-anchor="start" x="177.5778" y="-936.9" font-family="Arial" font-size="14.00" fill="#666666">[bigint]</text>
<polygon fill="none" stroke="#000000" points="85,-895.5 85,-925.5 347,-925.5 347,-895.5 85,-895.5"/>
<text text-anchor="start" x="92" y="-906.9" font-family="Arial" font-size="14.00" fill="#000000">user_id </text>
<text text-anchor="start" x="141.7882" y="-906.9" font-family="Arial" font-size="14.00" fill="#666666">[bigint]</text>
<polygon fill="none" stroke="#000000" points="85,-865.5 85,-895.5 347,-895.5 347,-865.5 85,-865.5"/>
<text text-anchor="start" x="92" y="-876.9" font-family="Arial" font-size="14.00" fill="#000000">created_at </text>
<text text-anchor="start" x="162.028" y="-876.9" font-family="Arial" font-size="14.00" fill="#666666">[timestamp with time zone]</text>
<polygon fill="none" stroke="#000000" points="85,-835.5 85,-865.5 347,-865.5 347,-835.5 85,-835.5"/>
<text text-anchor="start" x="92" y="-846.9" font-family="Arial" font-size="14.00" fill="#000000">updated_at </text>
<text text-anchor="start" x="165.9326" y="-846.9" font-family="Arial" font-size="14.00" fill="#666666">[timestamp with time zone]</text>
<polygon fill="none" stroke="#000000" points="85,-805.5 85,-835.5 347,-835.5 347,-805.5 85,-805.5"/>
<text text-anchor="start" x="92" y="-816.9" font-family="Arial" font-size="14.00" fill="#000000">location_lat </text>
<text text-anchor="start" x="166.6872" y="-816.9" font-family="Arial" font-size="14.00" fill="#666666">[double precision]</text>
<polygon fill="none" stroke="#000000" points="85,-775.5 85,-805.5 347,-805.5 347,-775.5 85,-775.5"/>
<text text-anchor="start" x="92" y="-786.9" font-family="Arial" font-size="14.00" fill="#000000">location_lng </text>
<text text-anchor="start" x="170.5792" y="-786.9" font-family="Arial" font-size="14.00" fill="#666666">[double precision]</text>
<polygon fill="none" stroke="#000000" points="85,-745.5 85,-775.5 347,-775.5 347,-745.5 85,-745.5"/>
<text text-anchor="start" x="92" y="-756.9" font-family="Arial" font-size="14.00" fill="#000000">status </text>
<text text-anchor="start" x="133.237" y="-756.9" font-family="Arial" font-size="14.00" fill="#666666">[recruitment_status]</text>
<polygon fill="none" stroke="#000000" points="85,-715.5 85,-745.5 347,-745.5 347,-715.5 85,-715.5"/>
<text text-anchor="start" x="91.5302" y="-726.9" font-family="Arial" font-size="14.00" fill="#000000">published_at </text>
<text text-anchor="start" x="174.7854" y="-726.9" font-family="Arial" font-size="14.00" fill="#666666">[timestamp with time zone]</text>
<polygon fill="none" stroke="#000000" points="85,-685.5 85,-715.5 347,-715.5 347,-685.5 85,-685.5"/>
<text text-anchor="start" x="92" y="-696.9" font-family="Arial" font-size="14.00" fill="#000000">sport_id </text>
<text text-anchor="start" x="145.6788" y="-696.9" font-family="Arial" font-size="14.00" fill="#666666">[bigint]</text>
</g>
<!-- public.recruitments&#45;&gt;public.users -->
<g id="edge1" class="edge">
<title>public.recruitments:user_id&#45;&gt;public.users:id</title>
<path fill="none" stroke="#000000" d="M357.248,-910C458.8004,-899.4073 313.2381,-723.2427 399,-643 484.8671,-562.6589 1331.4081,-510.5 1449,-510.5"/>
<polygon fill="#000000" stroke="#000000" points="356.9881,-910.0126 346.7807,-906.0053 351.9941,-910.2563 347,-910.5 347,-910.5 347,-910.5 351.9941,-910.2563 347.2193,-914.9947 356.9881,-910.0126 356.9881,-910.0126"/>
<text text-anchor="start" x="7.0535" y="-920.5" font-family="Arial" font-size="10.00" fill="#000000">FOREIGN KEY (user_id) REFERENCES users(id) ON DELETE CASCADE</text>
</g>
<!-- public.stocks -->
<g id="node3" class="node">
<title>public.stocks</title>
<polygon fill="#efefef" stroke="transparent" points="452,-1000.5 452,-1035.5 705,-1035.5 705,-1000.5 452,-1000.5"/>
<polygon fill="none" stroke="#000000" points="452,-1000.5 452,-1035.5 705,-1035.5 705,-1000.5 452,-1000.5"/>
<text text-anchor="start" x="478.3643" y="-1013.3" font-family="Arial Bold" font-size="18.00" fill="#000000">public.stocks</text>
<text text-anchor="start" x="581.3819" y="-1013.3" font-family="Arial" font-size="14.00" fill="#000000"> </text>
<text text-anchor="start" x="585.2725" y="-1013.3" font-family="Arial" font-size="14.00" fill="#666666">[BASE TABLE]</text>
<polygon fill="none" stroke="#000000" points="452,-970.5 452,-1000.5 705,-1000.5 705,-970.5 452,-970.5"/>
<text text-anchor="start" x="459" y="-981.9" font-family="Arial" font-size="14.00" fill="#000000">id </text>
<text text-anchor="start" x="473.7798" y="-981.9" font-family="Arial" font-size="14.00" fill="#666666">[bigint]</text>
<polygon fill="none" stroke="#000000" points="452,-940.5 452,-970.5 705,-970.5 705,-940.5 452,-940.5"/>
<text text-anchor="start" x="459" y="-951.9" font-family="Arial" font-size="14.00" fill="#000000">recruitment_id </text>
<text text-anchor="start" x="551.5624" y="-951.9" font-family="Arial" font-size="14.00" fill="#666666">[bigint]</text>
<polygon fill="none" stroke="#000000" points="452,-910.5 452,-940.5 705,-940.5 705,-910.5 452,-910.5"/>
<text text-anchor="start" x="459" y="-921.9" font-family="Arial" font-size="14.00" fill="#000000">user_id </text>
<text text-anchor="start" x="508.7882" y="-921.9" font-family="Arial" font-size="14.00" fill="#666666">[bigint]</text>
<polygon fill="none" stroke="#000000" points="452,-880.5 452,-910.5 705,-910.5 705,-880.5 452,-880.5"/>
<text text-anchor="start" x="459" y="-891.9" font-family="Arial" font-size="14.00" fill="#000000">created_at </text>
<text text-anchor="start" x="529.028" y="-891.9" font-family="Arial" font-size="14.00" fill="#666666">[timestamp with time zone]</text>
<polygon fill="none" stroke="#000000" points="452,-850.5 452,-880.5 705,-880.5 705,-850.5 452,-850.5"/>
<text text-anchor="start" x="458.6915" y="-861.9" font-family="Arial" font-size="14.00" fill="#000000">updated_at </text>
<text text-anchor="start" x="532.6241" y="-861.9" font-family="Arial" font-size="14.00" fill="#666666">[timestamp with time zone]</text>
</g>
<!-- public.stocks&#45;&gt;public.users -->
<g id="edge2" class="edge">
<title>public.stocks:user_id&#45;&gt;public.users:id</title>
<path fill="none" stroke="#000000" d="M715.145,-925.0451C823.3692,-914.7163 668.7917,-731.1121 756,-643 866.294,-531.5629 1292.2104,-510.5 1449,-510.5"/>
<polygon fill="#000000" stroke="#000000" points="714.99,-925.052 704.7984,-921.0045 709.995,-925.276 705,-925.5 705,-925.5 705,-925.5 709.995,-925.276 705.2016,-929.9955 714.99,-925.052 714.99,-925.052"/>
<text text-anchor="start" x="365.0535" y="-935.5" font-family="Arial" font-size="10.00" fill="#000000">FOREIGN KEY (user_id) REFERENCES users(id) ON DELETE CASCADE</text>
</g>
<!-- public.applicants -->
<g id="node4" class="node">
<title>public.applicants</title>
<polygon fill="#efefef" stroke="transparent" points="809,-1015.5 809,-1050.5 1062,-1050.5 1062,-1015.5 809,-1015.5"/>
<polygon fill="none" stroke="#000000" points="809,-1015.5 809,-1050.5 1062,-1050.5 1062,-1015.5 809,-1015.5"/>
<text text-anchor="start" x="820.3577" y="-1028.3" font-family="Arial Bold" font-size="18.00" fill="#000000">public.applicants</text>
<text text-anchor="start" x="953.3885" y="-1028.3" font-family="Arial" font-size="14.00" fill="#000000"> </text>
<text text-anchor="start" x="957.2791" y="-1028.3" font-family="Arial" font-size="14.00" fill="#666666">[BASE TABLE]</text>
<polygon fill="none" stroke="#000000" points="809,-985.5 809,-1015.5 1062,-1015.5 1062,-985.5 809,-985.5"/>
<text text-anchor="start" x="816" y="-996.9" font-family="Arial" font-size="14.00" fill="#000000">id </text>
<text text-anchor="start" x="830.7798" y="-996.9" font-family="Arial" font-size="14.00" fill="#666666">[bigint]</text>
<polygon fill="none" stroke="#000000" points="809,-955.5 809,-985.5 1062,-985.5 1062,-955.5 809,-955.5"/>
<text text-anchor="start" x="816" y="-966.9" font-family="Arial" font-size="14.00" fill="#000000">recruitment_id </text>
<text text-anchor="start" x="908.5624" y="-966.9" font-family="Arial" font-size="14.00" fill="#666666">[bigint]</text>
<polygon fill="none" stroke="#000000" points="809,-925.5 809,-955.5 1062,-955.5 1062,-925.5 809,-925.5"/>
<text text-anchor="start" x="816" y="-936.9" font-family="Arial" font-size="14.00" fill="#000000">user_id </text>
<text text-anchor="start" x="865.7882" y="-936.9" font-family="Arial" font-size="14.00" fill="#666666">[bigint]</text>
<polygon fill="none" stroke="#000000" points="809,-895.5 809,-925.5 1062,-925.5 1062,-895.5 809,-895.5"/>
<text text-anchor="start" x="816" y="-906.9" font-family="Arial" font-size="14.00" fill="#000000">created_at </text>
<text text-anchor="start" x="886.028" y="-906.9" font-family="Arial" font-size="14.00" fill="#666666">[timestamp with time zone]</text>
<polygon fill="none" stroke="#000000" points="809,-865.5 809,-895.5 1062,-895.5 1062,-865.5 809,-865.5"/>
<text text-anchor="start" x="815.6915" y="-876.9" font-family="Arial" font-size="14.00" fill="#000000">updated_at </text>
<text text-anchor="start" x="889.6241" y="-876.9" font-family="Arial" font-size="14.00" fill="#666666">[timestamp with time zone]</text>
<polygon fill="none" stroke="#000000" points="809,-835.5 809,-865.5 1062,-865.5 1062,-835.5 809,-835.5"/>
<text text-anchor="start" x="816" y="-846.9" font-family="Arial" font-size="14.00" fill="#000000">message </text>
<text text-anchor="start" x="876.6816" y="-846.9" font-family="Arial" font-size="14.00" fill="#666666">[varchar(1000)]</text>
</g>
<!-- public.applicants&#45;&gt;public.users -->
<g id="edge3" class="edge">
<title>public.applicants:user_id&#45;&gt;public.users:id</title>
<path fill="none" stroke="#000000" d="M1071.9159,-938.3696C1122.9912,-914.2325 1073.008,-692.2049 1113,-643 1214.2459,-518.4303 1288.4748,-510.5 1449,-510.5"/>
<polygon fill="#000000" stroke="#000000" points="1071.7769,-938.3994 1061.0547,-936.1004 1066.8884,-939.4497 1062,-940.5 1062,-940.5 1062,-940.5 1066.8884,-939.4497 1062.9453,-944.8996 1071.7769,-938.3994 1071.7769,-938.3994"/>
<text text-anchor="start" x="1069.0535" y="-950.5" font-family="Arial" font-size="10.00" fill="#000000">FOREIGN KEY (user_id) REFERENCES users(id) ON DELETE CASCADE</text>
</g>
<!-- public.messages -->
<g id="node5" class="node">
<title>public.messages</title>
<polygon fill="#efefef" stroke="transparent" points="1166,-1030.5 1166,-1065.5 1419,-1065.5 1419,-1030.5 1166,-1030.5"/>
<polygon fill="none" stroke="#000000" points="1166,-1030.5 1166,-1065.5 1419,-1065.5 1419,-1030.5 1166,-1030.5"/>
<text text-anchor="start" x="1176.86" y="-1043.3" font-family="Arial Bold" font-size="18.00" fill="#000000">public.messages</text>
<text text-anchor="start" x="1310.8862" y="-1043.3" font-family="Arial" font-size="14.00" fill="#000000"> </text>
<text text-anchor="start" x="1314.7768" y="-1043.3" font-family="Arial" font-size="14.00" fill="#666666">[BASE TABLE]</text>
<polygon fill="none" stroke="#000000" points="1166,-1000.5 1166,-1030.5 1419,-1030.5 1419,-1000.5 1166,-1000.5"/>
<text text-anchor="start" x="1173" y="-1011.9" font-family="Arial" font-size="14.00" fill="#000000">id </text>
<text text-anchor="start" x="1187.7798" y="-1011.9" font-family="Arial" font-size="14.00" fill="#666666">[bigint]</text>
<polygon fill="none" stroke="#000000" points="1166,-970.5 1166,-1000.5 1419,-1000.5 1419,-970.5 1166,-970.5"/>
<text text-anchor="start" x="1173" y="-981.9" font-family="Arial" font-size="14.00" fill="#000000">content </text>
<text text-anchor="start" x="1222.8022" y="-981.9" font-family="Arial" font-size="14.00" fill="#666666">[varchar(1000)]</text>
<polygon fill="none" stroke="#000000" points="1166,-940.5 1166,-970.5 1419,-970.5 1419,-940.5 1166,-940.5"/>
<text text-anchor="start" x="1173" y="-951.9" font-family="Arial" font-size="14.00" fill="#000000">room_id </text>
<text text-anchor="start" x="1227.4488" y="-951.9" font-family="Arial" font-size="14.00" fill="#666666">[bigint]</text>
<polygon fill="none" stroke="#000000" points="1166,-910.5 1166,-940.5 1419,-940.5 1419,-910.5 1166,-910.5"/>
<text text-anchor="start" x="1173" y="-921.9" font-family="Arial" font-size="14.00" fill="#000000">user_id </text>
<text text-anchor="start" x="1222.7882" y="-921.9" font-family="Arial" font-size="14.00" fill="#666666">[bigint]</text>
<polygon fill="none" stroke="#000000" points="1166,-880.5 1166,-910.5 1419,-910.5 1419,-880.5 1166,-880.5"/>
<text text-anchor="start" x="1173" y="-891.9" font-family="Arial" font-size="14.00" fill="#000000">applicant_id </text>
<text text-anchor="start" x="1251.5792" y="-891.9" font-family="Arial" font-size="14.00" fill="#666666">[bigint]</text>
<polygon fill="none" stroke="#000000" points="1166,-850.5 1166,-880.5 1419,-880.5 1419,-850.5 1166,-850.5"/>
<text text-anchor="start" x="1173" y="-861.9" font-family="Arial" font-size="14.00" fill="#000000">created_at </text>
<text text-anchor="start" x="1243.028" y="-861.9" font-family="Arial" font-size="14.00" fill="#666666">[timestamp with time zone]</text>
<polygon fill="none" stroke="#000000" points="1166,-820.5 1166,-850.5 1419,-850.5 1419,-820.5 1166,-820.5"/>
<text text-anchor="start" x="1172.6915" y="-831.9" font-family="Arial" font-size="14.00" fill="#000000">updated_at </text>
<text text-anchor="start" x="1246.6241" y="-831.9" font-family="Arial" font-size="14.00" fill="#666666">[timestamp with time zone]</text>
</g>
<!-- public.messages&#45;&gt;public.users -->
<g id="edge4" class="edge">
<title>public.messages:user_id&#45;&gt;public.users:id</title>
<path fill="none" stroke="#000000" d="M1429.1629,-923.4628C1499.1703,-892.1552 1360.3296,-510.5 1449,-510.5"/>
<polygon fill="#000000" stroke="#000000" points="1428.805,-923.5345 1418.1155,-921.0878 1423.9025,-924.5172 1419,-925.5 1419,-925.5 1419,-925.5 1423.9025,-924.5172 1419.8845,-929.9122 1428.805,-923.5345 1428.805,-923.5345"/>
<text text-anchor="start" x="1426.329" y="-935.5" font-family="Arial" font-size="10.00" fill="#000000">FOREIGN KEY (user_id) REFERENCES users(id) ON DELETE SET NULL</text>
</g>
<!-- public.entries -->
<g id="node6" class="node">
<title>public.entries</title>
<polygon fill="#efefef" stroke="transparent" points="1523,-1000.5 1523,-1035.5 1776,-1035.5 1776,-1000.5 1523,-1000.5"/>
<polygon fill="none" stroke="#000000" points="1523,-1000.5 1523,-1035.5 1776,-1035.5 1776,-1000.5 1523,-1000.5"/>
<text text-anchor="start" x="1547.8649" y="-1013.3" font-family="Arial Bold" font-size="18.00" fill="#000000">public.entries</text>
<text text-anchor="start" x="1653.8813" y="-1013.3" font-family="Arial" font-size="14.00" fill="#000000"> </text>
<text text-anchor="start" x="1657.7719" y="-1013.3" font-family="Arial" font-size="14.00" fill="#666666">[BASE TABLE]</text>
<polygon fill="none" stroke="#000000" points="1523,-970.5 1523,-1000.5 1776,-1000.5 1776,-970.5 1523,-970.5"/>
<text text-anchor="start" x="1530" y="-981.9" font-family="Arial" font-size="14.00" fill="#000000">id </text>
<text text-anchor="start" x="1544.7798" y="-981.9" font-family="Arial" font-size="14.00" fill="#666666">[bigint]</text>
<polygon fill="none" stroke="#000000" points="1523,-940.5 1523,-970.5 1776,-970.5 1776,-940.5 1523,-940.5"/>
<text text-anchor="start" x="1530" y="-951.9" font-family="Arial" font-size="14.00" fill="#000000">room_id </text>
<text text-anchor="start" x="1584.4488" y="-951.9" font-family="Arial" font-size="14.00" fill="#666666">[bigint]</text>
<polygon fill="none" stroke="#000000" points="1523,-910.5 1523,-940.5 1776,-940.5 1776,-910.5 1523,-910.5"/>
<text text-anchor="start" x="1530" y="-921.9" font-family="Arial" font-size="14.00" fill="#000000">user_id </text>
<text text-anchor="start" x="1579.7882" y="-921.9" font-family="Arial" font-size="14.00" fill="#666666">[bigint]</text>
<polygon fill="none" stroke="#000000" points="1523,-880.5 1523,-910.5 1776,-910.5 1776,-880.5 1523,-880.5"/>
<text text-anchor="start" x="1530" y="-891.9" font-family="Arial" font-size="14.00" fill="#000000">created_at </text>
<text text-anchor="start" x="1600.028" y="-891.9" font-family="Arial" font-size="14.00" fill="#666666">[timestamp with time zone]</text>
<polygon fill="none" stroke="#000000" points="1523,-850.5 1523,-880.5 1776,-880.5 1776,-850.5 1523,-850.5"/>
<text text-anchor="start" x="1529.6915" y="-861.9" font-family="Arial" font-size="14.00" fill="#000000">updated_at </text>
<text text-anchor="start" x="1603.6241" y="-861.9" font-family="Arial" font-size="14.00" fill="#666666">[timestamp with time zone]</text>
</g>
<!-- public.entries&#45;&gt;public.users -->
<g id="edge5" class="edge">
<title>public.entries:user_id&#45;&gt;public.users:id</title>
<path fill="none" stroke="#000000" d="M1786.3556,-924.3517C1824.2604,-914.9696 1799.5943,-850.1981 1776,-808 1692.7458,-659.1008 1532.2542,-755.8992 1449,-607 1428.0691,-569.5653 1406.1111,-510.5 1449,-510.5"/>
<polygon fill="#000000" stroke="#000000" points="1785.9391,-924.3978 1775.504,-921.0274 1780.9695,-924.9489 1776,-925.5 1776,-925.5 1776,-925.5 1780.9695,-924.9489 1776.496,-929.9726 1785.9391,-924.3978 1785.9391,-924.3978"/>
<text text-anchor="start" x="1783.329" y="-935.5" font-family="Arial" font-size="10.00" fill="#000000">FOREIGN KEY (user_id) REFERENCES users(id) ON DELETE SET NULL</text>
</g>
<!-- public.room_read_managements -->
<g id="node7" class="node">
<title>public.room_read_managements</title>
<polygon fill="#efefef" stroke="transparent" points="1880,-1015.5 1880,-1050.5 2254,-1050.5 2254,-1015.5 1880,-1015.5"/>
<polygon fill="none" stroke="#000000" points="1880,-1015.5 1880,-1050.5 2254,-1050.5 2254,-1015.5 1880,-1015.5"/>
<text text-anchor="start" x="1886.8435" y="-1028.3" font-family="Arial Bold" font-size="18.00" fill="#000000">public.room_read_managements</text>
<text text-anchor="start" x="2149.9027" y="-1028.3" font-family="Arial" font-size="14.00" fill="#000000"> </text>
<text text-anchor="start" x="2153.7933" y="-1028.3" font-family="Arial" font-size="14.00" fill="#666666">[BASE TABLE]</text>
<polygon fill="none" stroke="#000000" points="1880,-985.5 1880,-1015.5 2254,-1015.5 2254,-985.5 1880,-985.5"/>
<text text-anchor="start" x="1887" y="-996.9" font-family="Arial" font-size="14.00" fill="#000000">id </text>
<text text-anchor="start" x="1901.7798" y="-996.9" font-family="Arial" font-size="14.00" fill="#666666">[bigint]</text>
<polygon fill="none" stroke="#000000" points="1880,-955.5 1880,-985.5 2254,-985.5 2254,-955.5 1880,-955.5"/>
<text text-anchor="start" x="1887" y="-966.9" font-family="Arial" font-size="14.00" fill="#000000">last_read_at </text>
<text text-anchor="start" x="1967.9172" y="-966.9" font-family="Arial" font-size="14.00" fill="#666666">[timestamp with time zone]</text>
<polygon fill="none" stroke="#000000" points="1880,-925.5 1880,-955.5 2254,-955.5 2254,-925.5 1880,-925.5"/>
<text text-anchor="start" x="1887" y="-936.9" font-family="Arial" font-size="14.00" fill="#000000">room_id </text>
<text text-anchor="start" x="1941.4488" y="-936.9" font-family="Arial" font-size="14.00" fill="#666666">[bigint]</text>
<polygon fill="none" stroke="#000000" points="1880,-895.5 1880,-925.5 2254,-925.5 2254,-895.5 1880,-895.5"/>
<text text-anchor="start" x="1887" y="-906.9" font-family="Arial" font-size="14.00" fill="#000000">user_id </text>
<text text-anchor="start" x="1936.7882" y="-906.9" font-family="Arial" font-size="14.00" fill="#666666">[bigint]</text>
<polygon fill="none" stroke="#000000" points="1880,-865.5 1880,-895.5 2254,-895.5 2254,-865.5 1880,-865.5"/>
<text text-anchor="start" x="1887" y="-876.9" font-family="Arial" font-size="14.00" fill="#000000">created_at </text>
<text text-anchor="start" x="1957.028" y="-876.9" font-family="Arial" font-size="14.00" fill="#666666">[timestamp with time zone]</text>
<polygon fill="none" stroke="#000000" points="1880,-835.5 1880,-865.5 2254,-865.5 2254,-835.5 1880,-835.5"/>
<text text-anchor="start" x="1887" y="-846.9" font-family="Arial" font-size="14.00" fill="#000000">updated_at </text>
<text text-anchor="start" x="1960.9326" y="-846.9" font-family="Arial" font-size="14.00" fill="#666666">[timestamp with time zone]</text>
</g>
<!-- public.room_read_managements&#45;&gt;public.users -->
<g id="edge6" class="edge">
<title>public.room_read_managements:user_id&#45;&gt;public.users:id</title>
<path fill="none" stroke="#000000" d="M1869.7941,-908.3479C1803.2634,-876.8635 1936.2927,-510.5 1851,-510.5"/>
<polygon fill="#000000" stroke="#000000" points="1870.2152,-908.4366 1879.0715,-914.9032 1875.1076,-909.4683 1880,-910.5 1880,-910.5 1880,-910.5 1875.1076,-909.4683 1880.9285,-906.0968 1870.2152,-908.4366 1870.2152,-908.4366"/>
<text text-anchor="start" x="1887.329" y="-894.5" font-family="Arial" font-size="10.00" fill="#000000">FOREIGN KEY (user_id) REFERENCES users(id) ON DELETE SET NULL</text>
</g>
<!-- public.relationships -->
<g id="node8" class="node">
<title>public.relationships</title>
<polygon fill="#efefef" stroke="transparent" points="2358,-1000.5 2358,-1035.5 2622,-1035.5 2622,-1000.5 2358,-1000.5"/>
<polygon fill="none" stroke="#000000" points="2358,-1000.5 2358,-1035.5 2622,-1035.5 2622,-1000.5 2358,-1000.5"/>
<text text-anchor="start" x="2364.8614" y="-1013.3" font-family="Arial Bold" font-size="18.00" fill="#000000">public.relationships</text>
<text text-anchor="start" x="2517.8848" y="-1013.3" font-family="Arial" font-size="14.00" fill="#000000"> </text>
<text text-anchor="start" x="2521.7754" y="-1013.3" font-family="Arial" font-size="14.00" fill="#666666">[BASE TABLE]</text>
<polygon fill="none" stroke="#000000" points="2358,-970.5 2358,-1000.5 2622,-1000.5 2622,-970.5 2358,-970.5"/>
<text text-anchor="start" x="2365" y="-981.9" font-family="Arial" font-size="14.00" fill="#000000">id </text>
<text text-anchor="start" x="2379.7798" y="-981.9" font-family="Arial" font-size="14.00" fill="#666666">[bigint]</text>
<polygon fill="none" stroke="#000000" points="2358,-940.5 2358,-970.5 2622,-970.5 2622,-940.5 2358,-940.5"/>
<text text-anchor="start" x="2365" y="-951.9" font-family="Arial" font-size="14.00" fill="#000000">follower_id </text>
<text text-anchor="start" x="2435.7812" y="-951.9" font-family="Arial" font-size="14.00" fill="#666666">[bigint]</text>
<polygon fill="none" stroke="#000000" points="2358,-910.5 2358,-940.5 2622,-940.5 2622,-910.5 2358,-910.5"/>
<text text-anchor="start" x="2365" y="-921.9" font-family="Arial" font-size="14.00" fill="#000000">followed_id </text>
<text text-anchor="start" x="2438.9032" y="-921.9" font-family="Arial" font-size="14.00" fill="#666666">[bigint]</text>
<polygon fill="none" stroke="#000000" points="2358,-880.5 2358,-910.5 2622,-910.5 2622,-880.5 2358,-880.5"/>
<text text-anchor="start" x="2365" y="-891.9" font-family="Arial" font-size="14.00" fill="#000000">created_at </text>
<text text-anchor="start" x="2435.028" y="-891.9" font-family="Arial" font-size="14.00" fill="#666666">[timestamp with time zone]</text>
<polygon fill="none" stroke="#000000" points="2358,-850.5 2358,-880.5 2622,-880.5 2622,-850.5 2358,-850.5"/>
<text text-anchor="start" x="2365" y="-861.9" font-family="Arial" font-size="14.00" fill="#000000">updated_at </text>
<text text-anchor="start" x="2438.9326" y="-861.9" font-family="Arial" font-size="14.00" fill="#666666">[timestamp with time zone]</text>
</g>
<!-- public.relationships&#45;&gt;public.users -->
<g id="edge7" class="edge">
<title>public.relationships:followed_id&#45;&gt;public.users:id</title>
<path fill="none" stroke="#000000" d="M2347.8365,-925.0546C2239.2704,-914.9392 2389.1609,-735.0462 2306,-643 2235.4009,-564.8578 1956.3111,-510.5 1851,-510.5"/>
<polygon fill="#000000" stroke="#000000" points="2348.0096,-925.0621 2357.8029,-929.9957 2353.0048,-925.281 2358,-925.5 2358,-925.5 2358,-925.5 2353.0048,-925.281 2358.1971,-921.0043 2348.0096,-925.0621 2348.0096,-925.0621"/>
<text text-anchor="start" x="2365.441" y="-935.5" font-family="Arial" font-size="10.00" fill="#000000">FOREIGN KEY (followed_id) REFERENCES users(id) ON DELETE CASCADE</text>
</g>
<!-- public.relationships&#45;&gt;public.users -->
<g id="edge8" class="edge">
<title>public.relationships:follower_id&#45;&gt;public.users:id</title>
<path fill="none" stroke="#000000" d="M2347.9571,-953.4006C2294.1603,-928.6691 2350.2801,-692.8639 2306,-643 2236.0733,-564.2555 1956.3111,-510.5 1851,-510.5"/>
<polygon fill="#000000" stroke="#000000" points="2348.2116,-953.4537 2357.0792,-959.9048 2353.1058,-954.4768 2358,-955.5 2358,-955.5 2358,-955.5 2353.1058,-954.4768 2358.9208,-951.0952 2348.2116,-953.4537 2348.2116,-953.4537"/>
<text text-anchor="start" x="2364.556" y="-965.5" font-family="Arial" font-size="10.00" fill="#000000">FOREIGN KEY (follower_id) REFERENCES users(id) ON DELETE CASCADE</text>
</g>
<!-- public.authentications -->
<g id="node9" class="node">
<title>public.authentications</title>
<polygon fill="#efefef" stroke="transparent" points="2726,-1015.5 2726,-1050.5 3010,-1050.5 3010,-1015.5 2726,-1015.5"/>
<polygon fill="none" stroke="#000000" points="2726,-1015.5 2726,-1050.5 3010,-1050.5 3010,-1015.5 2726,-1015.5"/>
<text text-anchor="start" x="2732.8462" y="-1028.3" font-family="Arial Bold" font-size="18.00" fill="#000000">public.authentications</text>
<text text-anchor="start" x="2905.9" y="-1028.3" font-family="Arial" font-size="14.00" fill="#000000"> </text>
<text text-anchor="start" x="2909.7906" y="-1028.3" font-family="Arial" font-size="14.00" fill="#666666">[BASE TABLE]</text>
<polygon fill="none" stroke="#000000" points="2726,-985.5 2726,-1015.5 3010,-1015.5 3010,-985.5 2726,-985.5"/>
<text text-anchor="start" x="2733" y="-996.9" font-family="Arial" font-size="14.00" fill="#000000">id </text>
<text text-anchor="start" x="2747.7798" y="-996.9" font-family="Arial" font-size="14.00" fill="#666666">[bigint]</text>
<polygon fill="none" stroke="#000000" points="2726,-955.5 2726,-985.5 3010,-985.5 3010,-955.5 2726,-955.5"/>
<text text-anchor="start" x="2733" y="-966.9" font-family="Arial" font-size="14.00" fill="#000000">provider </text>
<text text-anchor="start" x="2787.4488" y="-966.9" font-family="Arial" font-size="14.00" fill="#666666">[auth_provider]</text>
<polygon fill="none" stroke="#000000" points="2726,-925.5 2726,-955.5 3010,-955.5 3010,-925.5 2726,-925.5"/>
<text text-anchor="start" x="2733" y="-936.9" font-family="Arial" font-size="14.00" fill="#000000">uid </text>
<text text-anchor="start" x="2755.5624" y="-936.9" font-family="Arial" font-size="14.00" fill="#666666">[varchar]</text>
<polygon fill="none" stroke="#000000" points="2726,-895.5 2726,-925.5 3010,-925.5 3010,-895.5 2726,-895.5"/>
<text text-anchor="start" x="2733" y="-906.9" font-family="Arial" font-size="14.00" fill="#000000">user_id </text>
<text text-anchor="start" x="2782.7882" y="-906.9" font-family="Arial" font-size="14.00" fill="#666666">[bigint]</text>
<polygon fill="none" stroke="#000000" points="2726,-865.5 2726,-895.5 3010,-895.5 3010,-865.5 2726,-865.5"/>
<text text-anchor="start" x="2733" y="-876.9" font-family="Arial" font-size="14.00" fill="#000000">created_at </text>
<text text-anchor="start" x="2803.028" y="-876.9" font-family="Arial" font-size="14.00" fill="#666666">[timestamp with time zone]</text>
<polygon fill="none" stroke="#000000" points="2726,-835.5 2726,-865.5 3010,-865.5 3010,-835.5 2726,-835.5"/>
<text text-anchor="start" x="2733" y="-846.9" font-family="Arial" font-size="14.00" fill="#000000">updated_at </text>
<text text-anchor="start" x="2806.9326" y="-846.9" font-family="Arial" font-size="14.00" fill="#666666">[timestamp with time zone]</text>
</g>
<!-- public.authentications&#45;&gt;public.users -->
<g id="edge9" class="edge">
<title>public.authentications:user_id&#45;&gt;public.users:id</title>
<path fill="none" stroke="#000000" d="M2715.7482,-910.004C2614.116,-899.4951 2758.3814,-724.6931 2674,-643 2540.9099,-514.1499 2036.2439,-510.5 1851,-510.5"/>
<polygon fill="#000000" stroke="#000000" points="2716.0117,-910.0166 2725.7825,-914.9947 2721.0058,-910.2583 2726,-910.5 2726,-910.5 2726,-910.5 2721.0058,-910.2583 2726.2175,-906.0053 2716.0117,-910.0166 2716.0117,-910.0166"/>
<text text-anchor="start" x="2733.0535" y="-920.5" font-family="Arial" font-size="10.00" fill="#000000">FOREIGN KEY (user_id) REFERENCES users(id) ON DELETE CASCADE</text>
</g>
</g>
</svg>
