<?xml version="1.0" encoding="UTF-8" standalone="no"?>
<!DOCTYPE svg PUBLIC "-//W3C//DTD SVG 1.1//EN"
 "http://www.w3.org/Graphics/SVG/1.1/DTD/svg11.dtd">
<!-- Generated by graphviz version 2.40.1 (20161225.0304)
 -->
<!-- Title: public.sports Pages: 1 -->
<svg width="537pt" height="892pt"
 viewBox="0.00 0.00 537.00 892.00" xmlns="http://www.w3.org/2000/svg" xmlns:xlink="http://www.w3.org/1999/xlink">
<g id="graph0" class="graph" transform="scale(1 1) rotate(0) translate(4 888)">
<title>public.sports</title>
<polygon fill="#ffffff" stroke="transparent" points="-4,4 -4,-888 533,-888 533,4 -4,4"/>
<!-- public.sports -->
<g id="node1" class="node">
<title>public.sports</title>
<polygon fill="#efefef" stroke="transparent" points="228,-165.5 228,-200.5 481,-200.5 481,-165.5 228,-165.5"/>
<polygon fill="none" stroke="#000000" points="228,-165.5 228,-200.5 481,-200.5 481,-165.5 228,-165.5"/>
<text text-anchor="start" x="255.3651" y="-178.3" font-family="Arial Bold" font-size="18.00" fill="#000000">public.sports</text>
<text text-anchor="start" x="356.3811" y="-178.3" font-family="Arial" font-size="14.00" fill="#000000"> </text>
<text text-anchor="start" x="360.2717" y="-178.3" font-family="Arial" font-size="14.00" fill="#666666">[BASE TABLE]</text>
<polygon fill="none" stroke="#000000" points="228,-135.5 228,-165.5 481,-165.5 481,-135.5 228,-135.5"/>
<text text-anchor="start" x="235" y="-146.9" font-family="Arial" font-size="14.00" fill="#000000">id </text>
<text text-anchor="start" x="249.7798" y="-146.9" font-family="Arial" font-size="14.00" fill="#666666">[bigint]</text>
<polygon fill="none" stroke="#000000" points="228,-105.5 228,-135.5 481,-135.5 481,-105.5 228,-105.5"/>
<text text-anchor="start" x="235" y="-116.9" font-family="Arial" font-size="14.00" fill="#000000">name </text>
<text text-anchor="start" x="273.899" y="-116.9" font-family="Arial" font-size="14.00" fill="#666666">[varchar]</text>
<polygon fill="none" stroke="#000000" points="228,-75.5 228,-105.5 481,-105.5 481,-75.5 228,-75.5"/>
<text text-anchor="start" x="235" y="-86.9" font-family="Arial" font-size="14.00" fill="#000000">created_at </text>
<text text-anchor="start" x="305.028" y="-86.9" font-family="Arial" font-size="14.00" fill="#666666">[timestamp with time zone]</text>
<polygon fill="none" stroke="#000000" points="228,-45.5 228,-75.5 481,-75.5 481,-45.5 228,-45.5"/>
<text text-anchor="start" x="234.6915" y="-56.9" font-family="Arial" font-size="14.00" fill="#000000">updated_at </text>
<text text-anchor="start" x="308.6241" y="-56.9" font-family="Arial" font-size="14.00" fill="#666666">[timestamp with time zone]</text>
<polygon fill="none" stroke="#000000" stroke-width="3" points="226,-44.5 226,-202.5 482,-202.5 482,-44.5 226,-44.5"/>
</g>
<!-- public.recruitments -->
<g id="node2" class="node">
<title>public.recruitments</title>
<polygon fill="#efefef" stroke="transparent" points="224,-805.5 224,-840.5 486,-840.5 486,-805.5 224,-805.5"/>
<polygon fill="none" stroke="#000000" points="224,-805.5 224,-840.5 486,-840.5 486,-805.5 224,-805.5"/>
<text text-anchor="start" x="230.8685" y="-818.3" font-family="Arial Bold" font-size="18.00" fill="#000000">public.recruitments</text>
<text text-anchor="start" x="381.8777" y="-818.3" font-family="Arial" font-size="14.00" fill="#000000"> </text>
<text text-anchor="start" x="385.7683" y="-818.3" font-family="Arial" font-size="14.00" fill="#666666">[BASE TABLE]</text>
<polygon fill="none" stroke="#000000" points="224,-775.5 224,-805.5 486,-805.5 486,-775.5 224,-775.5"/>
<text text-anchor="start" x="231" y="-786.9" font-family="Arial" font-size="14.00" fill="#000000">id </text>
<text text-anchor="start" x="245.7798" y="-786.9" font-family="Arial" font-size="14.00" fill="#666666">[bigint]</text>
<polygon fill="none" stroke="#000000" points="224,-745.5 224,-775.5 486,-775.5 486,-745.5 224,-745.5"/>
<text text-anchor="start" x="231" y="-756.9" font-family="Arial" font-size="14.00" fill="#000000">title </text>
<text text-anchor="start" x="256.6676" y="-756.9" font-family="Arial" font-size="14.00" fill="#666666">[varchar(60)]</text>
<polygon fill="none" stroke="#000000" points="224,-715.5 224,-745.5 486,-745.5 486,-715.5 224,-715.5"/>
<text text-anchor="start" x="231" y="-726.9" font-family="Arial" font-size="14.00" fill="#000000">type </text>
<text text-anchor="start" x="261.3464" y="-726.9" font-family="Arial" font-size="14.00" fill="#666666">[varchar]</text>
<polygon fill="none" stroke="#000000" points="224,-685.5 224,-715.5 486,-715.5 486,-685.5 224,-685.5"/>
<text text-anchor="start" x="231" y="-696.9" font-family="Arial" font-size="14.00" fill="#000000">venue </text>
<text text-anchor="start" x="273.021" y="-696.9" font-family="Arial" font-size="14.00" fill="#666666">[varchar]</text>
<polygon fill="none" stroke="#000000" points="224,-655.5 224,-685.5 486,-685.5 486,-655.5 224,-655.5"/>
<text text-anchor="start" x="231" y="-666.9" font-family="Arial" font-size="14.00" fill="#000000">start_at </text>
<text text-anchor="start" x="281.5708" y="-666.9" font-family="Arial" font-size="14.00" fill="#666666">[timestamp with time zone]</text>
<polygon fill="none" stroke="#000000" points="224,-625.5 224,-655.5 486,-655.5 486,-625.5 224,-625.5"/>
<text text-anchor="start" x="231" y="-636.9" font-family="Arial" font-size="14.00" fill="#000000">detail </text>
<text text-anchor="start" x="268.3422" y="-636.9" font-family="Arial" font-size="14.00" fill="#666666">[varchar(10000)]</text>
<polygon fill="none" stroke="#000000" points="224,-595.5 224,-625.5 486,-625.5 486,-595.5 224,-595.5"/>
<text text-anchor="start" x="231" y="-606.9" font-family="Arial" font-size="14.00" fill="#000000">closing_at </text>
<text text-anchor="start" x="297.9074" y="-606.9" font-family="Arial" font-size="14.00" fill="#666666">[timestamp with time zone]</text>
<polygon fill="none" stroke="#000000" points="224,-565.5 224,-595.5 486,-595.5 486,-565.5 224,-565.5"/>
<text text-anchor="start" x="231" y="-576.9" font-family="Arial" font-size="14.00" fill="#000000">prefecture_id </text>
<text text-anchor="start" x="316.5778" y="-576.9" font-family="Arial" font-size="14.00" fill="#666666">[bigint]</text>
<polygon fill="none" stroke="#000000" points="224,-535.5 224,-565.5 486,-565.5 486,-535.5 224,-535.5"/>
<text text-anchor="start" x="231" y="-546.9" font-family="Arial" font-size="14.00" fill="#000000">user_id </text>
<text text-anchor="start" x="280.7882" y="-546.9" font-family="Arial" font-size="14.00" fill="#666666">[bigint]</text>
<polygon fill="none" stroke="#000000" points="224,-505.5 224,-535.5 486,-535.5 486,-505.5 224,-505.5"/>
<text text-anchor="start" x="231" y="-516.9" font-family="Arial" font-size="14.00" fill="#000000">created_at </text>
<text text-anchor="start" x="301.028" y="-516.9" font-family="Arial" font-size="14.00" fill="#666666">[timestamp with time zone]</text>
<polygon fill="none" stroke="#000000" points="224,-475.5 224,-505.5 486,-505.5 486,-475.5 224,-475.5"/>
<text text-anchor="start" x="231" y="-486.9" font-family="Arial" font-size="14.00" fill="#000000">updated_at </text>
<text text-anchor="start" x="304.9326" y="-486.9" font-family="Arial" font-size="14.00" fill="#666666">[timestamp with time zone]</text>
<polygon fill="none" stroke="#000000" points="224,-445.5 224,-475.5 486,-475.5 486,-445.5 224,-445.5"/>
<text text-anchor="start" x="231" y="-456.9" font-family="Arial" font-size="14.00" fill="#000000">location_lat </text>
<text text-anchor="start" x="305.6872" y="-456.9" font-family="Arial" font-size="14.00" fill="#666666">[double precision]</text>
<polygon fill="none" stroke="#000000" points="224,-415.5 224,-445.5 486,-445.5 486,-415.5 224,-415.5"/>
<text text-anchor="start" x="231" y="-426.9" font-family="Arial" font-size="14.00" fill="#000000">location_lng </text>
<text text-anchor="start" x="309.5792" y="-426.9" font-family="Arial" font-size="14.00" fill="#666666">[double precision]</text>
<polygon fill="none" stroke="#000000" points="224,-385.5 224,-415.5 486,-415.5 486,-385.5 224,-385.5"/>
<text text-anchor="start" x="231" y="-396.9" font-family="Arial" font-size="14.00" fill="#000000">status </text>
<text text-anchor="start" x="272.237" y="-396.9" font-family="Arial" font-size="14.00" fill="#666666">[recruitment_status]</text>
<polygon fill="none" stroke="#000000" points="224,-355.5 224,-385.5 486,-385.5 486,-355.5 224,-355.5"/>
<text text-anchor="start" x="230.5302" y="-366.9" font-family="Arial" font-size="14.00" fill="#000000">published_at </text>
<text text-anchor="start" x="313.7854" y="-366.9" font-family="Arial" font-size="14.00" fill="#666666">[timestamp with time zone]</text>
<polygon fill="none" stroke="#000000" points="224,-325.5 224,-355.5 486,-355.5 486,-325.5 224,-325.5"/>
<text text-anchor="start" x="231" y="-336.9" font-family="Arial" font-size="14.00" fill="#000000">sport_id </text>
<text text-anchor="start" x="284.6788" y="-336.9" font-family="Arial" font-size="14.00" fill="#666666">[bigint]</text>
</g>
<!-- public.recruitments&#45;&gt;public.sports -->
<g id="edge1" class="edge">
<title>public.recruitments:sport_id&#45;&gt;public.sports:id</title>
<path fill="none" stroke="#000000" d="M355.8761,-315.3195C365.4468,-264.3073 450.7882,-301.4179 481,-247 501.818,-209.5024 523.8889,-150.5 481,-150.5"/>
<polygon fill="#000000" stroke="#000000" points="355.8575,-315.5368 350.5166,-325.1141 355.4288,-320.5184 355,-325.5 355,-325.5 355,-325.5 355.4288,-320.5184 359.4834,-325.8859 355.8575,-315.5368 355.8575,-315.5368"/>
<text text-anchor="start" x="7.445" y="-335.5" font-family="Arial" font-size="10.00" fill="#000000">FOREIGN KEY (sport_id) REFERENCES sports(id) ON DELETE RESTRICT</text>
</g>
</g>
</svg>
