<?xml version="1.0" encoding="UTF-8" standalone="no"?>
<!DOCTYPE svg PUBLIC "-//W3C//DTD SVG 1.1//EN"
 "http://www.w3.org/Graphics/SVG/1.1/DTD/svg11.dtd">
<!-- Generated by graphviz version 2.40.1 (20161225.0304)
 -->
<!-- Title: public.applicants Pages: 1 -->
<svg width="1016pt" height="1319pt"
 viewBox="0.00 0.00 1016.00 1319.00" xmlns="http://www.w3.org/2000/svg" xmlns:xlink="http://www.w3.org/1999/xlink">
<g id="graph0" class="graph" transform="scale(1 1) rotate(0) translate(4 1315)">
<title>public.applicants</title>
<polygon fill="#ffffff" stroke="transparent" points="-4,4 -4,-1315 1012,-1315 1012,4 -4,4"/>
<!-- public.applicants -->
<g id="node1" class="node">
<title>public.applicants</title>
<polygon fill="#efefef" stroke="transparent" points="408,-862.5 408,-897.5 661,-897.5 661,-862.5 408,-862.5"/>
<polygon fill="none" stroke="#000000" points="408,-862.5 408,-897.5 661,-897.5 661,-862.5 408,-862.5"/>
<text text-anchor="start" x="419.3577" y="-875.3" font-family="Arial Bold" font-size="18.00" fill="#000000">public.applicants</text>
<text text-anchor="start" x="552.3885" y="-875.3" font-family="Arial" font-size="14.00" fill="#000000"> </text>
<text text-anchor="start" x="556.2791" y="-875.3" font-family="Arial" font-size="14.00" fill="#666666">[BASE TABLE]</text>
<polygon fill="none" stroke="#000000" points="408,-832.5 408,-862.5 661,-862.5 661,-832.5 408,-832.5"/>
<text text-anchor="start" x="415" y="-843.9" font-family="Arial" font-size="14.00" fill="#000000">id </text>
<text text-anchor="start" x="429.7798" y="-843.9" font-family="Arial" font-size="14.00" fill="#666666">[bigint]</text>
<polygon fill="none" stroke="#000000" points="408,-802.5 408,-832.5 661,-832.5 661,-802.5 408,-802.5"/>
<text text-anchor="start" x="415" y="-813.9" font-family="Arial" font-size="14.00" fill="#000000">recruitment_id </text>
<text text-anchor="start" x="507.5624" y="-813.9" font-family="Arial" font-size="14.00" fill="#666666">[bigint]</text>
<polygon fill="none" stroke="#000000" points="408,-772.5 408,-802.5 661,-802.5 661,-772.5 408,-772.5"/>
<text text-anchor="start" x="415" y="-783.9" font-family="Arial" font-size="14.00" fill="#000000">user_id </text>
<text text-anchor="start" x="464.7882" y="-783.9" font-family="Arial" font-size="14.00" fill="#666666">[bigint]</text>
<polygon fill="none" stroke="#000000" points="408,-742.5 408,-772.5 661,-772.5 661,-742.5 408,-742.5"/>
<text text-anchor="start" x="415" y="-753.9" font-family="Arial" font-size="14.00" fill="#000000">created_at </text>
<text text-anchor="start" x="485.028" y="-753.9" font-family="Arial" font-size="14.00" fill="#666666">[timestamp with time zone]</text>
<polygon fill="none" stroke="#000000" points="408,-712.5 408,-742.5 661,-742.5 661,-712.5 408,-712.5"/>
<text text-anchor="start" x="414.6915" y="-723.9" font-family="Arial" font-size="14.00" fill="#000000">updated_at </text>
<text text-anchor="start" x="488.6241" y="-723.9" font-family="Arial" font-size="14.00" fill="#666666">[timestamp with time zone]</text>
<polygon fill="none" stroke="#000000" points="408,-682.5 408,-712.5 661,-712.5 661,-682.5 408,-682.5"/>
<text text-anchor="start" x="415" y="-693.9" font-family="Arial" font-size="14.00" fill="#000000">message </text>
<text text-anchor="start" x="475.6816" y="-693.9" font-family="Arial" font-size="14.00" fill="#666666">[varchar(1000)]</text>
<polygon fill="none" stroke="#000000" stroke-width="3" points="406,-681.5 406,-899.5 662,-899.5 662,-681.5 406,-681.5"/>
</g>
<!-- public.recruitments -->
<g id="node3" class="node">
<title>public.recruitments</title>
<polygon fill="#efefef" stroke="transparent" points="186,-522.5 186,-557.5 448,-557.5 448,-522.5 186,-522.5"/>
<polygon fill="none" stroke="#000000" points="186,-522.5 186,-557.5 448,-557.5 448,-522.5 186,-522.5"/>
<text text-anchor="start" x="192.8685" y="-535.3" font-family="Arial Bold" font-size="18.00" fill="#000000">public.recruitments</text>
<text text-anchor="start" x="343.8777" y="-535.3" font-family="Arial" font-size="14.00" fill="#000000"> </text>
<text text-anchor="start" x="347.7683" y="-535.3" font-family="Arial" font-size="14.00" fill="#666666">[BASE TABLE]</text>
<polygon fill="none" stroke="#000000" points="186,-492.5 186,-522.5 448,-522.5 448,-492.5 186,-492.5"/>
<text text-anchor="start" x="193" y="-503.9" font-family="Arial" font-size="14.00" fill="#000000">id </text>
<text text-anchor="start" x="207.7798" y="-503.9" font-family="Arial" font-size="14.00" fill="#666666">[bigint]</text>
<polygon fill="none" stroke="#000000" points="186,-462.5 186,-492.5 448,-492.5 448,-462.5 186,-462.5"/>
<text text-anchor="start" x="193" y="-473.9" font-family="Arial" font-size="14.00" fill="#000000">title </text>
<text text-anchor="start" x="218.6676" y="-473.9" font-family="Arial" font-size="14.00" fill="#666666">[varchar(60)]</text>
<polygon fill="none" stroke="#000000" points="186,-432.5 186,-462.5 448,-462.5 448,-432.5 186,-432.5"/>
<text text-anchor="start" x="193" y="-443.9" font-family="Arial" font-size="14.00" fill="#000000">type </text>
<text text-anchor="start" x="223.3464" y="-443.9" font-family="Arial" font-size="14.00" fill="#666666">[varchar]</text>
<polygon fill="none" stroke="#000000" points="186,-402.5 186,-432.5 448,-432.5 448,-402.5 186,-402.5"/>
<text text-anchor="start" x="193" y="-413.9" font-family="Arial" font-size="14.00" fill="#000000">venue </text>
<text text-anchor="start" x="235.021" y="-413.9" font-family="Arial" font-size="14.00" fill="#666666">[varchar]</text>
<polygon fill="none" stroke="#000000" points="186,-372.5 186,-402.5 448,-402.5 448,-372.5 186,-372.5"/>
<text text-anchor="start" x="193" y="-383.9" font-family="Arial" font-size="14.00" fill="#000000">start_at </text>
<text text-anchor="start" x="243.5708" y="-383.9" font-family="Arial" font-size="14.00" fill="#666666">[timestamp with time zone]</text>
<polygon fill="none" stroke="#000000" points="186,-342.5 186,-372.5 448,-372.5 448,-342.5 186,-342.5"/>
<text text-anchor="start" x="193" y="-353.9" font-family="Arial" font-size="14.00" fill="#000000">detail </text>
<text text-anchor="start" x="230.3422" y="-353.9" font-family="Arial" font-size="14.00" fill="#666666">[varchar(10000)]</text>
<polygon fill="none" stroke="#000000" points="186,-312.5 186,-342.5 448,-342.5 448,-312.5 186,-312.5"/>
<text text-anchor="start" x="193" y="-323.9" font-family="Arial" font-size="14.00" fill="#000000">closing_at </text>
<text text-anchor="start" x="259.9074" y="-323.9" font-family="Arial" font-size="14.00" fill="#666666">[timestamp with time zone]</text>
<polygon fill="none" stroke="#000000" points="186,-282.5 186,-312.5 448,-312.5 448,-282.5 186,-282.5"/>
<text text-anchor="start" x="193" y="-293.9" font-family="Arial" font-size="14.00" fill="#000000">prefecture_id </text>
<text text-anchor="start" x="278.5778" y="-293.9" font-family="Arial" font-size="14.00" fill="#666666">[bigint]</text>
<polygon fill="none" stroke="#000000" points="186,-252.5 186,-282.5 448,-282.5 448,-252.5 186,-252.5"/>
<text text-anchor="start" x="193" y="-263.9" font-family="Arial" font-size="14.00" fill="#000000">user_id </text>
<text text-anchor="start" x="242.7882" y="-263.9" font-family="Arial" font-size="14.00" fill="#666666">[bigint]</text>
<polygon fill="none" stroke="#000000" points="186,-222.5 186,-252.5 448,-252.5 448,-222.5 186,-222.5"/>
<text text-anchor="start" x="193" y="-233.9" font-family="Arial" font-size="14.00" fill="#000000">created_at </text>
<text text-anchor="start" x="263.028" y="-233.9" font-family="Arial" font-size="14.00" fill="#666666">[timestamp with time zone]</text>
<polygon fill="none" stroke="#000000" points="186,-192.5 186,-222.5 448,-222.5 448,-192.5 186,-192.5"/>
<text text-anchor="start" x="193" y="-203.9" font-family="Arial" font-size="14.00" fill="#000000">updated_at </text>
<text text-anchor="start" x="266.9326" y="-203.9" font-family="Arial" font-size="14.00" fill="#666666">[timestamp with time zone]</text>
<polygon fill="none" stroke="#000000" points="186,-162.5 186,-192.5 448,-192.5 448,-162.5 186,-162.5"/>
<text text-anchor="start" x="193" y="-173.9" font-family="Arial" font-size="14.00" fill="#000000">location_lat </text>
<text text-anchor="start" x="267.6872" y="-173.9" font-family="Arial" font-size="14.00" fill="#666666">[double precision]</text>
<polygon fill="none" stroke="#000000" points="186,-132.5 186,-162.5 448,-162.5 448,-132.5 186,-132.5"/>
<text text-anchor="start" x="193" y="-143.9" font-family="Arial" font-size="14.00" fill="#000000">location_lng </text>
<text text-anchor="start" x="271.5792" y="-143.9" font-family="Arial" font-size="14.00" fill="#666666">[double precision]</text>
<polygon fill="none" stroke="#000000" points="186,-102.5 186,-132.5 448,-132.5 448,-102.5 186,-102.5"/>
<text text-anchor="start" x="193" y="-113.9" font-family="Arial" font-size="14.00" fill="#000000">status </text>
<text text-anchor="start" x="234.237" y="-113.9" font-family="Arial" font-size="14.00" fill="#666666">[recruitment_status]</text>
<polygon fill="none" stroke="#000000" points="186,-72.5 186,-102.5 448,-102.5 448,-72.5 186,-72.5"/>
<text text-anchor="start" x="192.5302" y="-83.9" font-family="Arial" font-size="14.00" fill="#000000">published_at </text>
<text text-anchor="start" x="275.7854" y="-83.9" font-family="Arial" font-size="14.00" fill="#666666">[timestamp with time zone]</text>
<polygon fill="none" stroke="#000000" points="186,-42.5 186,-72.5 448,-72.5 448,-42.5 186,-42.5"/>
<text text-anchor="start" x="193" y="-53.9" font-family="Arial" font-size="14.00" fill="#000000">sport_id </text>
<text text-anchor="start" x="246.6788" y="-53.9" font-family="Arial" font-size="14.00" fill="#666666">[bigint]</text>
</g>
<!-- public.applicants&#45;&gt;public.recruitments -->
<g id="edge2" class="edge">
<title>public.applicants:recruitment_id&#45;&gt;public.recruitments:id</title>
<path fill="none" stroke="#000000" d="M397.9496,-816.8637C332.0228,-807.9357 376.8286,-706.991 408,-637 417.7306,-615.1513 438.2694,-622.8487 448,-601 464.9064,-563.039 489.5556,-507.5 448,-507.5"/>
<polygon fill="#000000" stroke="#000000" points="398.02,-816.8681 407.7156,-821.991 403.01,-817.184 408,-817.5 408,-817.5 408,-817.5 403.01,-817.184 408.2844,-813.009 398.02,-816.8681 398.02,-816.8681"/>
<text text-anchor="start" x="6.5005" y="-827.5" font-family="Arial" font-size="10.00" fill="#000000">FOREIGN KEY (recruitment_id) REFERENCES recruitments(id) ON DELETE CASCADE</text>
</g>
<!-- public.users -->
<g id="node4" class="node">
<title>public.users</title>
<polygon fill="#efefef" stroke="transparent" points="552,-522.5 552,-557.5 954,-557.5 954,-522.5 552,-522.5"/>
<polygon fill="none" stroke="#000000" points="552,-522.5 552,-557.5 954,-557.5 954,-522.5 552,-522.5"/>
<text text-anchor="start" x="656.3662" y="-535.3" font-family="Arial Bold" font-size="18.00" fill="#000000">public.users</text>
<text text-anchor="start" x="752.38" y="-535.3" font-family="Arial" font-size="14.00" fill="#000000"> </text>
<text text-anchor="start" x="756.2706" y="-535.3" font-family="Arial" font-size="14.00" fill="#666666">[BASE TABLE]</text>
<polygon fill="none" stroke="#000000" points="552,-492.5 552,-522.5 954,-522.5 954,-492.5 552,-492.5"/>
<text text-anchor="start" x="559" y="-503.9" font-family="Arial" font-size="14.00" fill="#000000">id </text>
<text text-anchor="start" x="573.7798" y="-503.9" font-family="Arial" font-size="14.00" fill="#666666">[bigint]</text>
<polygon fill="none" stroke="#000000" points="552,-462.5 552,-492.5 954,-492.5 954,-462.5 552,-462.5"/>
<text text-anchor="start" x="559" y="-473.9" font-family="Arial" font-size="14.00" fill="#000000">name </text>
<text text-anchor="start" x="597.899" y="-473.9" font-family="Arial" font-size="14.00" fill="#666666">[varchar(50)]</text>
<polygon fill="none" stroke="#000000" points="552,-432.5 552,-462.5 954,-462.5 954,-432.5 552,-432.5"/>
<text text-anchor="start" x="559" y="-443.9" font-family="Arial" font-size="14.00" fill="#000000">email </text>
<text text-anchor="start" x="596.3296" y="-443.9" font-family="Arial" font-size="14.00" fill="#666666">[varchar(100)]</text>
<polygon fill="none" stroke="#000000" points="552,-402.5 552,-432.5 954,-432.5 954,-402.5 552,-402.5"/>
<text text-anchor="start" x="559" y="-413.9" font-family="Arial" font-size="14.00" fill="#000000">role </text>
<text text-anchor="start" x="586.223" y="-413.9" font-family="Arial" font-size="14.00" fill="#666666">[user_role]</text>
<polygon fill="none" stroke="#000000" points="552,-372.5 552,-402.5 954,-402.5 954,-372.5 552,-372.5"/>
<text text-anchor="start" x="559" y="-383.9" font-family="Arial" font-size="14.00" fill="#000000">avatar </text>
<text text-anchor="start" x="601.7896" y="-383.9" font-family="Arial" font-size="14.00" fill="#666666">[varchar]</text>
<polygon fill="none" stroke="#000000" points="552,-342.5 552,-372.5 954,-372.5 954,-342.5 552,-342.5"/>
<text text-anchor="start" x="559" y="-353.9" font-family="Arial" font-size="14.00" fill="#000000">introduction </text>
<text text-anchor="start" x="635.2412" y="-353.9" font-family="Arial" font-size="14.00" fill="#666666">[varchar(4000)]</text>
<polygon fill="none" stroke="#000000" points="552,-312.5 552,-342.5 954,-342.5 954,-312.5 552,-312.5"/>
<text text-anchor="start" x="559" y="-323.9" font-family="Arial" font-size="14.00" fill="#000000">email_verification_status </text>
<text text-anchor="start" x="716.1332" y="-323.9" font-family="Arial" font-size="14.00" fill="#666666">[email_verification_status]</text>
<polygon fill="none" stroke="#000000" points="552,-282.5 552,-312.5 954,-312.5 954,-282.5 552,-282.5"/>
<text text-anchor="start" x="559" y="-293.9" font-family="Arial" font-size="14.00" fill="#000000">email_verification_code </text>
<text text-anchor="start" x="709.1346" y="-293.9" font-family="Arial" font-size="14.00" fill="#666666">[varchar]</text>
<polygon fill="none" stroke="#000000" points="552,-252.5 552,-282.5 954,-282.5 954,-252.5 552,-252.5"/>
<text text-anchor="start" x="558.9138" y="-263.9" font-family="Arial" font-size="14.00" fill="#000000">email_verification_code_expires_at </text>
<text text-anchor="start" x="781.4018" y="-263.9" font-family="Arial" font-size="14.00" fill="#666666">[timestamp with time zone]</text>
<polygon fill="none" stroke="#000000" points="552,-222.5 552,-252.5 954,-252.5 954,-222.5 552,-222.5"/>
<text text-anchor="start" x="559" y="-233.9" font-family="Arial" font-size="14.00" fill="#000000">password_digest </text>
<text text-anchor="start" x="667.9158" y="-233.9" font-family="Arial" font-size="14.00" fill="#666666">[varchar]</text>
<polygon fill="none" stroke="#000000" points="552,-192.5 552,-222.5 954,-222.5 954,-192.5 552,-192.5"/>
<text text-anchor="start" x="559" y="-203.9" font-family="Arial" font-size="14.00" fill="#000000">created_at </text>
<text text-anchor="start" x="629.028" y="-203.9" font-family="Arial" font-size="14.00" fill="#666666">[timestamp with time zone]</text>
<polygon fill="none" stroke="#000000" points="552,-162.5 552,-192.5 954,-192.5 954,-162.5 552,-162.5"/>
<text text-anchor="start" x="559" y="-173.9" font-family="Arial" font-size="14.00" fill="#000000">updated_at </text>
<text text-anchor="start" x="632.9326" y="-173.9" font-family="Arial" font-size="14.00" fill="#666666">[timestamp with time zone]</text>
<polygon fill="none" stroke="#000000" points="552,-132.5 552,-162.5 954,-162.5 954,-132.5 552,-132.5"/>
<text text-anchor="start" x="559" y="-143.9" font-family="Arial" font-size="14.00" fill="#000000">last_sign_in_at </text>
<text text-anchor="start" x="656.2524" y="-143.9" font-family="Arial" font-size="14.00" fill="#666666">[timestamp with time zone]</text>
<polygon fill="none" stroke="#000000" points="552,-102.5 552,-132.5 954,-132.5 954,-102.5 552,-102.5"/>
<text text-anchor="start" x="559" y="-113.9" font-family="Arial" font-size="14.00" fill="#000000">unverified_email </text>
<text text-anchor="start" x="664.7896" y="-113.9" font-family="Arial" font-size="14.00" fill="#666666">[varchar(100)]</text>
<polygon fill="none" stroke="#000000" points="552,-72.5 552,-102.5 954,-102.5 954,-72.5 552,-72.5"/>
<text text-anchor="start" x="559" y="-83.9" font-family="Arial" font-size="14.00" fill="#000000">password_reset_token </text>
<text text-anchor="start" x="703.7082" y="-83.9" font-family="Arial" font-size="14.00" fill="#666666">[varchar]</text>
<polygon fill="none" stroke="#000000" points="552,-42.5 552,-72.5 954,-72.5 954,-42.5 552,-42.5"/>
<text text-anchor="start" x="559" y="-53.9" font-family="Arial" font-size="14.00" fill="#000000">password_reset_token_expires_at </text>
<text text-anchor="start" x="776.0616" y="-53.9" font-family="Arial" font-size="14.00" fill="#666666">[timestamp with time zone]</text>
</g>
<!-- public.applicants&#45;&gt;public.users -->
<g id="edge3" class="edge">
<title>public.applicants:user_id&#45;&gt;public.users:id</title>
<path fill="none" stroke="#000000" d="M671.1389,-786.6587C724.8245,-777.094 698.0424,-688.2446 661,-637 631.1121,-595.653 581.8879,-642.347 552,-601 527.6556,-567.3219 510.4444,-507.5 552,-507.5"/>
<polygon fill="#000000" stroke="#000000" points="670.9658,-786.673 660.6278,-783.0154 665.9829,-787.0865 661,-787.5 661,-787.5 661,-787.5 665.9829,-787.0865 661.3722,-791.9846 670.9658,-786.673 670.9658,-786.673"/>
<text text-anchor="start" x="668.0535" y="-797.5" font-family="Arial" font-size="10.00" fill="#000000">FOREIGN KEY (user_id) REFERENCES users(id) ON DELETE CASCADE</text>
</g>
<!-- public.messages -->
<g id="node2" class="node">
<title>public.messages</title>
<polygon fill="#efefef" stroke="transparent" points="408,-1232.5 408,-1267.5 661,-1267.5 661,-1232.5 408,-1232.5"/>
<polygon fill="none" stroke="#000000" points="408,-1232.5 408,-1267.5 661,-1267.5 661,-1232.5 408,-1232.5"/>
<text text-anchor="start" x="418.86" y="-1245.3" font-family="Arial Bold" font-size="18.00" fill="#000000">public.messages</text>
<text text-anchor="start" x="552.8862" y="-1245.3" font-family="Arial" font-size="14.00" fill="#000000"> </text>
<text text-anchor="start" x="556.7768" y="-1245.3" font-family="Arial" font-size="14.00" fill="#666666">[BASE TABLE]</text>
<polygon fill="none" stroke="#000000" points="408,-1202.5 408,-1232.5 661,-1232.5 661,-1202.5 408,-1202.5"/>
<text text-anchor="start" x="415" y="-1213.9" font-family="Arial" font-size="14.00" fill="#000000">id </text>
<text text-anchor="start" x="429.7798" y="-1213.9" font-family="Arial" font-size="14.00" fill="#666666">[bigint]</text>
<polygon fill="none" stroke="#000000" points="408,-1172.5 408,-1202.5 661,-1202.5 661,-1172.5 408,-1172.5"/>
<text text-anchor="start" x="415" y="-1183.9" font-family="Arial" font-size="14.00" fill="#000000">content </text>
<text text-anchor="start" x="464.8022" y="-1183.9" font-family="Arial" font-size="14.00" fill="#666666">[varchar(1000)]</text>
<polygon fill="none" stroke="#000000" points="408,-1142.5 408,-1172.5 661,-1172.5 661,-1142.5 408,-1142.5"/>
<text text-anchor="start" x="415" y="-1153.9" font-family="Arial" font-size="14.00" fill="#000000">room_id </text>
<text text-anchor="start" x="469.4488" y="-1153.9" font-family="Arial" font-size="14.00" fill="#666666">[bigint]</text>
<polygon fill="none" stroke="#000000" points="408,-1112.5 408,-1142.5 661,-1142.5 661,-1112.5 408,-1112.5"/>
<text text-anchor="start" x="415" y="-1123.9" font-family="Arial" font-size="14.00" fill="#000000">user_id </text>
<text text-anchor="start" x="464.7882" y="-1123.9" font-family="Arial" font-size="14.00" fill="#666666">[bigint]</text>
<polygon fill="none" stroke="#000000" points="408,-1082.5 408,-1112.5 661,-1112.5 661,-1082.5 408,-1082.5"/>
<text text-anchor="start" x="415" y="-1093.9" font-family="Arial" font-size="14.00" fill="#000000">applicant_id </text>
<text text-anchor="start" x="493.5792" y="-1093.9" font-family="Arial" font-size="14.00" fill="#666666">[bigint]</text>
<polygon fill="none" stroke="#000000" points="408,-1052.5 408,-1082.5 661,-1082.5 661,-1052.5 408,-1052.5"/>
<text text-anchor="start" x="415" y="-1063.9" font-family="Arial" font-size="14.00" fill="#000000">created_at </text>
<text text-anchor="start" x="485.028" y="-1063.9" font-family="Arial" font-size="14.00" fill="#666666">[timestamp with time zone]</text>
<polygon fill="none" stroke="#000000" points="408,-1022.5 408,-1052.5 661,-1052.5 661,-1022.5 408,-1022.5"/>
<text text-anchor="start" x="414.6915" y="-1033.9" font-family="Arial" font-size="14.00" fill="#000000">updated_at </text>
<text text-anchor="start" x="488.6241" y="-1033.9" font-family="Arial" font-size="14.00" fill="#666666">[timestamp with time zone]</text>
</g>
<!-- public.messages&#45;&gt;public.applicants -->
<g id="edge1" class="edge">
<title>public.messages:applicant_id&#45;&gt;public.applicants:id</title>
<path fill="none" stroke="#000000" d="M397.9089,-1096.7828C296.9974,-1082.1191 300.3611,-847.5 408,-847.5"/>
<polygon fill="#000000" stroke="#000000" points="398.0252,-1096.791 407.681,-1101.9887 403.0126,-1097.1455 408,-1097.5 408,-1097.5 408,-1097.5 403.0126,-1097.1455 408.319,-1093.0113 398.0252,-1096.791 398.0252,-1096.791"/>
<text text-anchor="start" x="26.4885" y="-1107.5" font-family="Arial" font-size="10.00" fill="#000000">FOREIGN KEY (applicant_id) REFERENCES applicants(id) ON DELETE CASCADE</text>
</g>
</g>
</svg>
