<?xml version="1.0" encoding="UTF-8" standalone="no"?>
<!DOCTYPE svg PUBLIC "-//W3C//DTD SVG 1.1//EN"
 "http://www.w3.org/Graphics/SVG/1.1/DTD/svg11.dtd">
<!-- Generated by graphviz version 2.40.1 (20161225.0304)
 -->
<!-- Title: public.applicants Pages: 1 -->
<svg width="1016pt" height="1319pt"
 viewBox="0.00 0.00 1016.00 1319.00" xmlns="http://www.w3.org/2000/svg" xmlns:xlink="http://www.w3.org/1999/xlink">
<g id="graph0" class="graph" transform="scale(1 1) rotate(0) translate(4 1315)">
<title>public.applicants</title>
<polygon fill="#ffffff" stroke="transparent" points="-4,4 -4,-1315 1012,-1315 1012,4 -4,4"/>
<!-- public.applicants -->
<g id="node1" class="node">
<title>public.applicants</title>
<polygon fill="#efefef" stroke="transparent" points="408,-862.5 408,-897.5 661,-897.5 661,-862.5 408,-862.5"/>
<polygon fill="none" stroke="#000000" points="408,-862.5 408,-897.5 661,-897.5 661,-862.5 408,-862.5"/>
<text text-anchor="start" x="419.3577" y="-875.3" font-family="Arial Bold" font-size="18.00" fill="#000000">public.applicants</text>
<text text-anchor="start" x="552.3885" y="-875.3" font-family="Arial" font-size="14.00" fill="#000000"> </text>
<text text-anchor="start" x="556.2791" y="-875.3" font-family="Arial" font-size="14.00" fill="#666666">[BASE TABLE]</text>
<polygon fill="none" stroke="#000000" points="408,-832.5 408,-862.5 661,-862.5 661,-832.5 408,-832.5"/>
<text text-anchor="start" x="415" y="-843.9" font-family="Arial" font-size="14.00" fill="#000000">id </text>
<text text-anchor="start" x="429.7798" y="-843.9" font-family="Arial" font-size="14.00" fill="#666666">[bigint]</text>
<polygon fill="none" stroke="#000000" points="408,-802.5 408,-832.5 661,-832.5 661,-802.5 408,-802.5"/>
<text text-anchor="start" x="415" y="-813.9" font-family="Arial" font-size="14.00" fill="#000000">recruitment_id </text>
<text text-anchor="start" x="507.5624" y="-813.9" font-family="Arial" font-size="14.00" fill="#666666">[bigint]</text>
<polygon fill="none" stroke="#000000" points="408,-772.5 408,-802.5 661,-802.5 661,-772.5 408,-772.5"/>
<text text-anchor="start" x="415" y="-783.9" font-family="Arial" font-size="14.00" fill="#000000">user_id </text>
<text text-anchor="start" x="464.7882" y="-783.9" font-family="Arial" font-size="14.00" fill="#666666">[bigint]</text>
<polygon fill="none" stroke="#000000" points="408,-742.5 408,-772.5 661,-772.5 661,-742.5 408,-742.5"/>
<text text-anchor="start" x="415" y="-753.9" font-family="Arial" font-size="14.00" fill="#000000">created_at </text>
<text text-anchor="start" x="485.028" y="-753.9" font-family="Arial" font-size="14.00" fill="#666666">[timestamp with time zone]</text>
<polygon fill="none" stroke="#000000" points="408,-712.5 408,-742.5 661,-742.5 661,-712.5 408,-712.5"/>
<text text-anchor="start" x="414.6915" y="-723.9" font-family="Arial" font-size="14.00" fill="#000000">updated_at </text>
<text text-anchor="start" x="488.6241" y="-723.9" font-family="Arial" font-size="14.00" fill="#666666">[timestamp with time zone]</text>
<polygon fill="none" stroke="#000000" points="408,-682.5 408,-712.5 661,-712.5 661,-682.5 408,-682.5"/>
<text text-anchor="start" x="415" y="-693.9" font-family="Arial" font-size="14.00" fill="#000000">message </text>
<text text-anchor="start" x="475.6816" y="-693.9" font-family="Arial" font-size="14.00" fill="#666666">[varchar(1000)]</text>
<polygon fill="none" stroke="#000000" stroke-width="3" points="406,-681.5 406,-899.5 662,-899.5 662,-681.5 406,-681.5"/>
</g>
<!-- public.recruitments -->
<g id="node3" class="node">
<title>public.recruitments</title>
<polygon fill="#efefef" stroke="transparent" points="189,-522.5 189,-557.5 451,-557.5 451,-522.5 189,-522.5"/>
<polygon fill="none" stroke="#000000" points="189,-522.5 189,-557.5 451,-557.5 451,-522.5 189,-522.5"/>
<text text-anchor="start" x="195.8685" y="-535.3" font-family="Arial Bold" font-size="18.00" fill="#000000">public.recruitments</text>
<text text-anchor="start" x="346.8777" y="-535.3" font-family="Arial" font-size="14.00" fill="#000000"> </text>
<text text-anchor="start" x="350.7683" y="-535.3" font-family="Arial" font-size="14.00" fill="#666666">[BASE TABLE]</text>
<polygon fill="none" stroke="#000000" points="189,-492.5 189,-522.5 451,-522.5 451,-492.5 189,-492.5"/>
<text text-anchor="start" x="196" y="-503.9" font-family="Arial" font-size="14.00" fill="#000000">id </text>
<text text-anchor="start" x="210.7798" y="-503.9" font-family="Arial" font-size="14.00" fill="#666666">[bigint]</text>
<polygon fill="none" stroke="#000000" points="189,-462.5 189,-492.5 451,-492.5 451,-462.5 189,-462.5"/>
<text text-anchor="start" x="196" y="-473.9" font-family="Arial" font-size="14.00" fill="#000000">title </text>
<text text-anchor="start" x="221.6676" y="-473.9" font-family="Arial" font-size="14.00" fill="#666666">[varchar(60)]</text>
<polygon fill="none" stroke="#000000" points="189,-432.5 189,-462.5 451,-462.5 451,-432.5 189,-432.5"/>
<text text-anchor="start" x="196" y="-443.9" font-family="Arial" font-size="14.00" fill="#000000">type </text>
<text text-anchor="start" x="226.3464" y="-443.9" font-family="Arial" font-size="14.00" fill="#666666">[varchar]</text>
<polygon fill="none" stroke="#000000" points="189,-402.5 189,-432.5 451,-432.5 451,-402.5 189,-402.5"/>
<text text-anchor="start" x="196" y="-413.9" font-family="Arial" font-size="14.00" fill="#000000">venue </text>
<text text-anchor="start" x="238.021" y="-413.9" font-family="Arial" font-size="14.00" fill="#666666">[varchar]</text>
<polygon fill="none" stroke="#000000" points="189,-372.5 189,-402.5 451,-402.5 451,-372.5 189,-372.5"/>
<text text-anchor="start" x="196" y="-383.9" font-family="Arial" font-size="14.00" fill="#000000">start_at </text>
<text text-anchor="start" x="246.5708" y="-383.9" font-family="Arial" font-size="14.00" fill="#666666">[timestamp with time zone]</text>
<polygon fill="none" stroke="#000000" points="189,-342.5 189,-372.5 451,-372.5 451,-342.5 189,-342.5"/>
<text text-anchor="start" x="196" y="-353.9" font-family="Arial" font-size="14.00" fill="#000000">detail </text>
<text text-anchor="start" x="233.3422" y="-353.9" font-family="Arial" font-size="14.00" fill="#666666">[varchar(10000)]</text>
<polygon fill="none" stroke="#000000" points="189,-312.5 189,-342.5 451,-342.5 451,-312.5 189,-312.5"/>
<text text-anchor="start" x="196" y="-323.9" font-family="Arial" font-size="14.00" fill="#000000">closing_at </text>
<text text-anchor="start" x="262.9074" y="-323.9" font-family="Arial" font-size="14.00" fill="#666666">[timestamp with time zone]</text>
<polygon fill="none" stroke="#000000" points="189,-282.5 189,-312.5 451,-312.5 451,-282.5 189,-282.5"/>
<text text-anchor="start" x="196" y="-293.9" font-family="Arial" font-size="14.00" fill="#000000">competition_id </text>
<text text-anchor="start" x="290.1304" y="-293.9" font-family="Arial" font-size="14.00" fill="#666666">[bigint]</text>
<polygon fill="none" stroke="#000000" points="189,-252.5 189,-282.5 451,-282.5 451,-252.5 189,-252.5"/>
<text text-anchor="start" x="196" y="-263.9" font-family="Arial" font-size="14.00" fill="#000000">prefecture_id </text>
<text text-anchor="start" x="281.5778" y="-263.9" font-family="Arial" font-size="14.00" fill="#666666">[bigint]</text>
<polygon fill="none" stroke="#000000" points="189,-222.5 189,-252.5 451,-252.5 451,-222.5 189,-222.5"/>
<text text-anchor="start" x="196" y="-233.9" font-family="Arial" font-size="14.00" fill="#000000">user_id </text>
<text text-anchor="start" x="245.7882" y="-233.9" font-family="Arial" font-size="14.00" fill="#666666">[bigint]</text>
<polygon fill="none" stroke="#000000" points="189,-192.5 189,-222.5 451,-222.5 451,-192.5 189,-192.5"/>
<text text-anchor="start" x="196" y="-203.9" font-family="Arial" font-size="14.00" fill="#000000">created_at </text>
<text text-anchor="start" x="266.028" y="-203.9" font-family="Arial" font-size="14.00" fill="#666666">[timestamp with time zone]</text>
<polygon fill="none" stroke="#000000" points="189,-162.5 189,-192.5 451,-192.5 451,-162.5 189,-162.5"/>
<text text-anchor="start" x="196" y="-173.9" font-family="Arial" font-size="14.00" fill="#000000">updated_at </text>
<text text-anchor="start" x="269.9326" y="-173.9" font-family="Arial" font-size="14.00" fill="#666666">[timestamp with time zone]</text>
<polygon fill="none" stroke="#000000" points="189,-132.5 189,-162.5 451,-162.5 451,-132.5 189,-132.5"/>
<text text-anchor="start" x="196" y="-143.9" font-family="Arial" font-size="14.00" fill="#000000">location_lat </text>
<text text-anchor="start" x="270.6872" y="-143.9" font-family="Arial" font-size="14.00" fill="#666666">[double precision]</text>
<polygon fill="none" stroke="#000000" points="189,-102.5 189,-132.5 451,-132.5 451,-102.5 189,-102.5"/>
<text text-anchor="start" x="196" y="-113.9" font-family="Arial" font-size="14.00" fill="#000000">location_lng </text>
<text text-anchor="start" x="274.5792" y="-113.9" font-family="Arial" font-size="14.00" fill="#666666">[double precision]</text>
<polygon fill="none" stroke="#000000" points="189,-72.5 189,-102.5 451,-102.5 451,-72.5 189,-72.5"/>
<text text-anchor="start" x="196" y="-83.9" font-family="Arial" font-size="14.00" fill="#000000">status </text>
<text text-anchor="start" x="237.237" y="-83.9" font-family="Arial" font-size="14.00" fill="#666666">[recruitment_status]</text>
<polygon fill="none" stroke="#000000" points="189,-42.5 189,-72.5 451,-72.5 451,-42.5 189,-42.5"/>
<text text-anchor="start" x="195.5302" y="-53.9" font-family="Arial" font-size="14.00" fill="#000000">published_at </text>
<text text-anchor="start" x="278.7854" y="-53.9" font-family="Arial" font-size="14.00" fill="#666666">[timestamp with time zone]</text>
</g>
<!-- public.applicants&#45;&gt;public.recruitments -->
<g id="edge2" class="edge">
<title>public.applicants:recruitment_id&#45;&gt;public.recruitments:id</title>
<path fill="none" stroke="#000000" d="M397.942,-816.8603C331.9107,-807.8846 375.5811,-706.4219 408,-637 418.5461,-614.4165 440.4539,-623.5835 451,-601 468.583,-563.3476 492.5556,-507.5 451,-507.5"/>
<polygon fill="#000000" stroke="#000000" points="398.0202,-816.8651 407.7143,-821.9909 403.0101,-817.1826 408,-817.5 408,-817.5 408,-817.5 403.0101,-817.1826 408.2857,-813.0091 398.0202,-816.8651 398.0202,-816.8651"/>
<text text-anchor="start" x="6.5005" y="-827.5" font-family="Arial" font-size="10.00" fill="#000000">FOREIGN KEY (recruitment_id) REFERENCES recruitments(id) ON DELETE CASCADE</text>
</g>
<!-- public.users -->
<g id="node4" class="node">
<title>public.users</title>
<polygon fill="#efefef" stroke="transparent" points="555,-492.5 555,-527.5 945,-527.5 945,-492.5 555,-492.5"/>
<polygon fill="none" stroke="#000000" points="555,-492.5 555,-527.5 945,-527.5 945,-492.5 555,-492.5"/>
<text text-anchor="start" x="653.3662" y="-505.3" font-family="Arial Bold" font-size="18.00" fill="#000000">public.users</text>
<text text-anchor="start" x="749.38" y="-505.3" font-family="Arial" font-size="14.00" fill="#000000"> </text>
<text text-anchor="start" x="753.2706" y="-505.3" font-family="Arial" font-size="14.00" fill="#666666">[BASE TABLE]</text>
<polygon fill="none" stroke="#000000" points="555,-462.5 555,-492.5 945,-492.5 945,-462.5 555,-462.5"/>
<text text-anchor="start" x="562" y="-473.9" font-family="Arial" font-size="14.00" fill="#000000">id </text>
<text text-anchor="start" x="576.7798" y="-473.9" font-family="Arial" font-size="14.00" fill="#666666">[bigint]</text>
<polygon fill="none" stroke="#000000" points="555,-432.5 555,-462.5 945,-462.5 945,-432.5 555,-432.5"/>
<text text-anchor="start" x="562" y="-443.9" font-family="Arial" font-size="14.00" fill="#000000">name </text>
<text text-anchor="start" x="600.899" y="-443.9" font-family="Arial" font-size="14.00" fill="#666666">[varchar(50)]</text>
<polygon fill="none" stroke="#000000" points="555,-402.5 555,-432.5 945,-432.5 945,-402.5 555,-402.5"/>
<text text-anchor="start" x="562" y="-413.9" font-family="Arial" font-size="14.00" fill="#000000">email </text>
<text text-anchor="start" x="599.3296" y="-413.9" font-family="Arial" font-size="14.00" fill="#666666">[varchar(100)]</text>
<polygon fill="none" stroke="#000000" points="555,-372.5 555,-402.5 945,-402.5 945,-372.5 555,-372.5"/>
<text text-anchor="start" x="562" y="-383.9" font-family="Arial" font-size="14.00" fill="#000000">role </text>
<text text-anchor="start" x="589.223" y="-383.9" font-family="Arial" font-size="14.00" fill="#666666">[user_role]</text>
<polygon fill="none" stroke="#000000" points="555,-342.5 555,-372.5 945,-372.5 945,-342.5 555,-342.5"/>
<text text-anchor="start" x="562" y="-353.9" font-family="Arial" font-size="14.00" fill="#000000">avatar </text>
<text text-anchor="start" x="604.7896" y="-353.9" font-family="Arial" font-size="14.00" fill="#666666">[varchar]</text>
<polygon fill="none" stroke="#000000" points="555,-312.5 555,-342.5 945,-342.5 945,-312.5 555,-312.5"/>
<text text-anchor="start" x="562" y="-323.9" font-family="Arial" font-size="14.00" fill="#000000">introduction </text>
<text text-anchor="start" x="638.2412" y="-323.9" font-family="Arial" font-size="14.00" fill="#666666">[varchar(4000)]</text>
<polygon fill="none" stroke="#000000" points="555,-282.5 555,-312.5 945,-312.5 945,-282.5 555,-282.5"/>
<text text-anchor="start" x="562" y="-293.9" font-family="Arial" font-size="14.00" fill="#000000">email_verification_status </text>
<text text-anchor="start" x="719.1332" y="-293.9" font-family="Arial" font-size="14.00" fill="#666666">[email_verification_status]</text>
<polygon fill="none" stroke="#000000" points="555,-252.5 555,-282.5 945,-282.5 945,-252.5 555,-252.5"/>
<text text-anchor="start" x="562" y="-263.9" font-family="Arial" font-size="14.00" fill="#000000">email_verification_pin </text>
<text text-anchor="start" x="700.4586" y="-263.9" font-family="Arial" font-size="14.00" fill="#666666">[varchar]</text>
<polygon fill="none" stroke="#000000" points="555,-222.5 555,-252.5 945,-252.5 945,-222.5 555,-222.5"/>
<text text-anchor="start" x="561.7518" y="-233.9" font-family="Arial" font-size="14.00" fill="#000000">email_verification_pin_expires_at </text>
<text text-anchor="start" x="772.5638" y="-233.9" font-family="Arial" font-size="14.00" fill="#666666">[timestamp with time zone]</text>
<polygon fill="none" stroke="#000000" points="555,-192.5 555,-222.5 945,-222.5 945,-192.5 555,-192.5"/>
<text text-anchor="start" x="562" y="-203.9" font-family="Arial" font-size="14.00" fill="#000000">password_digest </text>
<text text-anchor="start" x="670.9158" y="-203.9" font-family="Arial" font-size="14.00" fill="#666666">[varchar]</text>
<polygon fill="none" stroke="#000000" points="555,-162.5 555,-192.5 945,-192.5 945,-162.5 555,-162.5"/>
<text text-anchor="start" x="562" y="-173.9" font-family="Arial" font-size="14.00" fill="#000000">created_at </text>
<text text-anchor="start" x="632.028" y="-173.9" font-family="Arial" font-size="14.00" fill="#666666">[timestamp with time zone]</text>
<polygon fill="none" stroke="#000000" points="555,-132.5 555,-162.5 945,-162.5 945,-132.5 555,-132.5"/>
<text text-anchor="start" x="562" y="-143.9" font-family="Arial" font-size="14.00" fill="#000000">updated_at </text>
<text text-anchor="start" x="635.9326" y="-143.9" font-family="Arial" font-size="14.00" fill="#666666">[timestamp with time zone]</text>
<polygon fill="none" stroke="#000000" points="555,-102.5 555,-132.5 945,-132.5 945,-102.5 555,-102.5"/>
<text text-anchor="start" x="562" y="-113.9" font-family="Arial" font-size="14.00" fill="#000000">last_sign_in_at </text>
<text text-anchor="start" x="659.2524" y="-113.9" font-family="Arial" font-size="14.00" fill="#666666">[timestamp with time zone]</text>
<polygon fill="none" stroke="#000000" points="555,-72.5 555,-102.5 945,-102.5 945,-72.5 555,-72.5"/>
<text text-anchor="start" x="562" y="-83.9" font-family="Arial" font-size="14.00" fill="#000000">unverified_email </text>
<text text-anchor="start" x="667.7896" y="-83.9" font-family="Arial" font-size="14.00" fill="#666666">[varchar(100)]</text>
</g>
<!-- public.applicants&#45;&gt;public.users -->
<g id="edge3" class="edge">
<title>public.applicants:user_id&#45;&gt;public.users:id</title>
<path fill="none" stroke="#000000" d="M671.0819,-786.6949C724.1307,-777.5352 691.6993,-692.2784 661,-637 634.0557,-588.4829 581.9443,-619.5171 555,-571 534.8243,-534.6709 513.4444,-477.5 555,-477.5"/>
<polygon fill="#000000" stroke="#000000" points="670.9683,-786.7039 660.6417,-783.0143 665.9841,-787.1019 661,-787.5 661,-787.5 661,-787.5 665.9841,-787.1019 661.3583,-791.9857 670.9683,-786.7039 670.9683,-786.7039"/>
<text text-anchor="start" x="668.0535" y="-797.5" font-family="Arial" font-size="10.00" fill="#000000">FOREIGN KEY (user_id) REFERENCES users(id) ON DELETE CASCADE</text>
</g>
<!-- public.messages -->
<g id="node2" class="node">
<title>public.messages</title>
<polygon fill="#efefef" stroke="transparent" points="408,-1232.5 408,-1267.5 661,-1267.5 661,-1232.5 408,-1232.5"/>
<polygon fill="none" stroke="#000000" points="408,-1232.5 408,-1267.5 661,-1267.5 661,-1232.5 408,-1232.5"/>
<text text-anchor="start" x="418.86" y="-1245.3" font-family="Arial Bold" font-size="18.00" fill="#000000">public.messages</text>
<text text-anchor="start" x="552.8862" y="-1245.3" font-family="Arial" font-size="14.00" fill="#000000"> </text>
<text text-anchor="start" x="556.7768" y="-1245.3" font-family="Arial" font-size="14.00" fill="#666666">[BASE TABLE]</text>
<polygon fill="none" stroke="#000000" points="408,-1202.5 408,-1232.5 661,-1232.5 661,-1202.5 408,-1202.5"/>
<text text-anchor="start" x="415" y="-1213.9" font-family="Arial" font-size="14.00" fill="#000000">id </text>
<text text-anchor="start" x="429.7798" y="-1213.9" font-family="Arial" font-size="14.00" fill="#666666">[bigint]</text>
<polygon fill="none" stroke="#000000" points="408,-1172.5 408,-1202.5 661,-1202.5 661,-1172.5 408,-1172.5"/>
<text text-anchor="start" x="415" y="-1183.9" font-family="Arial" font-size="14.00" fill="#000000">content </text>
<text text-anchor="start" x="464.8022" y="-1183.9" font-family="Arial" font-size="14.00" fill="#666666">[varchar(1000)]</text>
<polygon fill="none" stroke="#000000" points="408,-1142.5 408,-1172.5 661,-1172.5 661,-1142.5 408,-1142.5"/>
<text text-anchor="start" x="415" y="-1153.9" font-family="Arial" font-size="14.00" fill="#000000">room_id </text>
<text text-anchor="start" x="469.4488" y="-1153.9" font-family="Arial" font-size="14.00" fill="#666666">[bigint]</text>
<polygon fill="none" stroke="#000000" points="408,-1112.5 408,-1142.5 661,-1142.5 661,-1112.5 408,-1112.5"/>
<text text-anchor="start" x="415" y="-1123.9" font-family="Arial" font-size="14.00" fill="#000000">user_id </text>
<text text-anchor="start" x="464.7882" y="-1123.9" font-family="Arial" font-size="14.00" fill="#666666">[bigint]</text>
<polygon fill="none" stroke="#000000" points="408,-1082.5 408,-1112.5 661,-1112.5 661,-1082.5 408,-1082.5"/>
<text text-anchor="start" x="415" y="-1093.9" font-family="Arial" font-size="14.00" fill="#000000">applicant_id </text>
<text text-anchor="start" x="493.5792" y="-1093.9" font-family="Arial" font-size="14.00" fill="#666666">[bigint]</text>
<polygon fill="none" stroke="#000000" points="408,-1052.5 408,-1082.5 661,-1082.5 661,-1052.5 408,-1052.5"/>
<text text-anchor="start" x="415" y="-1063.9" font-family="Arial" font-size="14.00" fill="#000000">created_at </text>
<text text-anchor="start" x="485.028" y="-1063.9" font-family="Arial" font-size="14.00" fill="#666666">[timestamp with time zone]</text>
<polygon fill="none" stroke="#000000" points="408,-1022.5 408,-1052.5 661,-1052.5 661,-1022.5 408,-1022.5"/>
<text text-anchor="start" x="414.6915" y="-1033.9" font-family="Arial" font-size="14.00" fill="#000000">updated_at </text>
<text text-anchor="start" x="488.6241" y="-1033.9" font-family="Arial" font-size="14.00" fill="#666666">[timestamp with time zone]</text>
</g>
<!-- public.messages&#45;&gt;public.applicants -->
<g id="edge1" class="edge">
<title>public.messages:applicant_id&#45;&gt;public.applicants:id</title>
<path fill="none" stroke="#000000" d="M397.9089,-1096.7828C296.9974,-1082.1191 300.3611,-847.5 408,-847.5"/>
<polygon fill="#000000" stroke="#000000" points="398.0252,-1096.791 407.681,-1101.9887 403.0126,-1097.1455 408,-1097.5 408,-1097.5 408,-1097.5 403.0126,-1097.1455 408.319,-1093.0113 398.0252,-1096.791 398.0252,-1096.791"/>
<text text-anchor="start" x="26.4885" y="-1107.5" font-family="Arial" font-size="10.00" fill="#000000">FOREIGN KEY (applicant_id) REFERENCES applicants(id) ON DELETE CASCADE</text>
</g>
</g>
</svg>
