<?xml version="1.0" encoding="UTF-8" standalone="no"?>
<!DOCTYPE svg PUBLIC "-//W3C//DTD SVG 1.1//EN"
 "http://www.w3.org/Graphics/SVG/1.1/DTD/svg11.dtd">
<!-- Generated by graphviz version 2.40.1 (20161225.0304)
 -->
<!-- Title: public.authentications Pages: 1 -->
<svg width="735pt" height="892pt"
 viewBox="0.00 0.00 735.00 892.00" xmlns="http://www.w3.org/2000/svg" xmlns:xlink="http://www.w3.org/1999/xlink">
<g id="graph0" class="graph" transform="scale(1 1) rotate(0) translate(4 888)">
<title>public.authentications</title>
<polygon fill="#ffffff" stroke="transparent" points="-4,4 -4,-888 731,-888 731,4 -4,4"/>
<!-- public.authentications -->
<g id="node1" class="node">
<title>public.authentications</title>
<polygon fill="#efefef" stroke="transparent" points="96,-802.5 96,-837.5 380,-837.5 380,-802.5 96,-802.5"/>
<polygon fill="none" stroke="#000000" points="96,-802.5 96,-837.5 380,-837.5 380,-802.5 96,-802.5"/>
<text text-anchor="start" x="102.8462" y="-815.3" font-family="Arial Bold" font-size="18.00" fill="#000000">public.authentications</text>
<text text-anchor="start" x="275.9" y="-815.3" font-family="Arial" font-size="14.00" fill="#000000"> </text>
<text text-anchor="start" x="279.7906" y="-815.3" font-family="Arial" font-size="14.00" fill="#666666">[BASE TABLE]</text>
<polygon fill="none" stroke="#000000" points="96,-772.5 96,-802.5 380,-802.5 380,-772.5 96,-772.5"/>
<text text-anchor="start" x="103" y="-783.9" font-family="Arial" font-size="14.00" fill="#000000">id </text>
<text text-anchor="start" x="117.7798" y="-783.9" font-family="Arial" font-size="14.00" fill="#666666">[bigint]</text>
<polygon fill="none" stroke="#000000" points="96,-742.5 96,-772.5 380,-772.5 380,-742.5 96,-742.5"/>
<text text-anchor="start" x="103" y="-753.9" font-family="Arial" font-size="14.00" fill="#000000">provider </text>
<text text-anchor="start" x="157.4488" y="-753.9" font-family="Arial" font-size="14.00" fill="#666666">[auth_provider]</text>
<polygon fill="none" stroke="#000000" points="96,-712.5 96,-742.5 380,-742.5 380,-712.5 96,-712.5"/>
<text text-anchor="start" x="103" y="-723.9" font-family="Arial" font-size="14.00" fill="#000000">uid </text>
<text text-anchor="start" x="125.5624" y="-723.9" font-family="Arial" font-size="14.00" fill="#666666">[varchar]</text>
<polygon fill="none" stroke="#000000" points="96,-682.5 96,-712.5 380,-712.5 380,-682.5 96,-682.5"/>
<text text-anchor="start" x="103" y="-693.9" font-family="Arial" font-size="14.00" fill="#000000">user_id </text>
<text text-anchor="start" x="152.7882" y="-693.9" font-family="Arial" font-size="14.00" fill="#666666">[bigint]</text>
<polygon fill="none" stroke="#000000" points="96,-652.5 96,-682.5 380,-682.5 380,-652.5 96,-652.5"/>
<text text-anchor="start" x="103" y="-663.9" font-family="Arial" font-size="14.00" fill="#000000">created_at </text>
<text text-anchor="start" x="173.028" y="-663.9" font-family="Arial" font-size="14.00" fill="#666666">[timestamp with time zone]</text>
<polygon fill="none" stroke="#000000" points="96,-622.5 96,-652.5 380,-652.5 380,-622.5 96,-622.5"/>
<text text-anchor="start" x="103" y="-633.9" font-family="Arial" font-size="14.00" fill="#000000">updated_at </text>
<text text-anchor="start" x="176.9326" y="-633.9" font-family="Arial" font-size="14.00" fill="#666666">[timestamp with time zone]</text>
<polygon fill="none" stroke="#000000" stroke-width="3" points="94.5,-621.5 94.5,-839.5 381.5,-839.5 381.5,-621.5 94.5,-621.5"/>
</g>
<!-- public.users -->
<g id="node2" class="node">
<title>public.users</title>
<polygon fill="#efefef" stroke="transparent" points="43,-462.5 43,-497.5 433,-497.5 433,-462.5 43,-462.5"/>
<polygon fill="none" stroke="#000000" points="43,-462.5 43,-497.5 433,-497.5 433,-462.5 43,-462.5"/>
<text text-anchor="start" x="141.3662" y="-475.3" font-family="Arial Bold" font-size="18.00" fill="#000000">public.users</text>
<text text-anchor="start" x="237.38" y="-475.3" font-family="Arial" font-size="14.00" fill="#000000"> </text>
<text text-anchor="start" x="241.2706" y="-475.3" font-family="Arial" font-size="14.00" fill="#666666">[BASE TABLE]</text>
<polygon fill="none" stroke="#000000" points="43,-432.5 43,-462.5 433,-462.5 433,-432.5 43,-432.5"/>
<text text-anchor="start" x="50" y="-443.9" font-family="Arial" font-size="14.00" fill="#000000">id </text>
<text text-anchor="start" x="64.7798" y="-443.9" font-family="Arial" font-size="14.00" fill="#666666">[bigint]</text>
<polygon fill="none" stroke="#000000" points="43,-402.5 43,-432.5 433,-432.5 433,-402.5 43,-402.5"/>
<text text-anchor="start" x="50" y="-413.9" font-family="Arial" font-size="14.00" fill="#000000">name </text>
<text text-anchor="start" x="88.899" y="-413.9" font-family="Arial" font-size="14.00" fill="#666666">[varchar(50)]</text>
<polygon fill="none" stroke="#000000" points="43,-372.5 43,-402.5 433,-402.5 433,-372.5 43,-372.5"/>
<text text-anchor="start" x="50" y="-383.9" font-family="Arial" font-size="14.00" fill="#000000">email </text>
<text text-anchor="start" x="87.3296" y="-383.9" font-family="Arial" font-size="14.00" fill="#666666">[varchar(100)]</text>
<polygon fill="none" stroke="#000000" points="43,-342.5 43,-372.5 433,-372.5 433,-342.5 43,-342.5"/>
<text text-anchor="start" x="50" y="-353.9" font-family="Arial" font-size="14.00" fill="#000000">role </text>
<text text-anchor="start" x="77.223" y="-353.9" font-family="Arial" font-size="14.00" fill="#666666">[user_role]</text>
<polygon fill="none" stroke="#000000" points="43,-312.5 43,-342.5 433,-342.5 433,-312.5 43,-312.5"/>
<text text-anchor="start" x="50" y="-323.9" font-family="Arial" font-size="14.00" fill="#000000">avatar </text>
<text text-anchor="start" x="92.7896" y="-323.9" font-family="Arial" font-size="14.00" fill="#666666">[varchar]</text>
<polygon fill="none" stroke="#000000" points="43,-282.5 43,-312.5 433,-312.5 433,-282.5 43,-282.5"/>
<text text-anchor="start" x="50" y="-293.9" font-family="Arial" font-size="14.00" fill="#000000">introduction </text>
<text text-anchor="start" x="126.2412" y="-293.9" font-family="Arial" font-size="14.00" fill="#666666">[varchar(4000)]</text>
<polygon fill="none" stroke="#000000" points="43,-252.5 43,-282.5 433,-282.5 433,-252.5 43,-252.5"/>
<text text-anchor="start" x="50" y="-263.9" font-family="Arial" font-size="14.00" fill="#000000">email_verification_status </text>
<text text-anchor="start" x="207.1332" y="-263.9" font-family="Arial" font-size="14.00" fill="#666666">[email_verification_status]</text>
<polygon fill="none" stroke="#000000" points="43,-222.5 43,-252.5 433,-252.5 433,-222.5 43,-222.5"/>
<text text-anchor="start" x="50" y="-233.9" font-family="Arial" font-size="14.00" fill="#000000">email_verification_pin </text>
<text text-anchor="start" x="188.4586" y="-233.9" font-family="Arial" font-size="14.00" fill="#666666">[varchar]</text>
<polygon fill="none" stroke="#000000" points="43,-192.5 43,-222.5 433,-222.5 433,-192.5 43,-192.5"/>
<text text-anchor="start" x="49.7518" y="-203.9" font-family="Arial" font-size="14.00" fill="#000000">email_verification_pin_expires_at </text>
<text text-anchor="start" x="260.5638" y="-203.9" font-family="Arial" font-size="14.00" fill="#666666">[timestamp with time zone]</text>
<polygon fill="none" stroke="#000000" points="43,-162.5 43,-192.5 433,-192.5 433,-162.5 43,-162.5"/>
<text text-anchor="start" x="50" y="-173.9" font-family="Arial" font-size="14.00" fill="#000000">password_digest </text>
<text text-anchor="start" x="158.9158" y="-173.9" font-family="Arial" font-size="14.00" fill="#666666">[varchar]</text>
<polygon fill="none" stroke="#000000" points="43,-132.5 43,-162.5 433,-162.5 433,-132.5 43,-132.5"/>
<text text-anchor="start" x="50" y="-143.9" font-family="Arial" font-size="14.00" fill="#000000">created_at </text>
<text text-anchor="start" x="120.028" y="-143.9" font-family="Arial" font-size="14.00" fill="#666666">[timestamp with time zone]</text>
<polygon fill="none" stroke="#000000" points="43,-102.5 43,-132.5 433,-132.5 433,-102.5 43,-102.5"/>
<text text-anchor="start" x="50" y="-113.9" font-family="Arial" font-size="14.00" fill="#000000">updated_at </text>
<text text-anchor="start" x="123.9326" y="-113.9" font-family="Arial" font-size="14.00" fill="#666666">[timestamp with time zone]</text>
<polygon fill="none" stroke="#000000" points="43,-72.5 43,-102.5 433,-102.5 433,-72.5 43,-72.5"/>
<text text-anchor="start" x="50" y="-83.9" font-family="Arial" font-size="14.00" fill="#000000">last_sign_in_at </text>
<text text-anchor="start" x="147.2524" y="-83.9" font-family="Arial" font-size="14.00" fill="#666666">[timestamp with time zone]</text>
<polygon fill="none" stroke="#000000" points="43,-42.5 43,-72.5 433,-72.5 433,-42.5 43,-42.5"/>
<text text-anchor="start" x="50" y="-53.9" font-family="Arial" font-size="14.00" fill="#000000">unverified_email </text>
<text text-anchor="start" x="155.7896" y="-53.9" font-family="Arial" font-size="14.00" fill="#666666">[varchar(100)]</text>
</g>
<!-- public.authentications&#45;&gt;public.users -->
<g id="edge1" class="edge">
<title>public.authentications:user_id&#45;&gt;public.users:id</title>
<path fill="none" stroke="#000000" d="M389.9223,-695.0257C442.6243,-669.0614 486.4627,-447.5 433,-447.5"/>
<polygon fill="#000000" stroke="#000000" points="389.7029,-695.0803 378.9111,-693.1337 384.8514,-696.2902 380,-697.5 380,-697.5 380,-697.5 384.8514,-696.2902 381.0889,-701.8663 389.7029,-695.0803 389.7029,-695.0803"/>
<text text-anchor="start" x="387.0535" y="-707.5" font-family="Arial" font-size="10.00" fill="#000000">FOREIGN KEY (user_id) REFERENCES users(id) ON DELETE CASCADE</text>
</g>
</g>
</svg>
