<?xml version="1.0" encoding="UTF-8" standalone="no"?>
<!DOCTYPE svg PUBLIC "-//W3C//DTD SVG 1.1//EN"
 "http://www.w3.org/Graphics/SVG/1.1/DTD/svg11.dtd">
<!-- Generated by graphviz version 2.40.1 (20161225.0304)
 -->
<!-- Title: public.users Pages: 1 -->
<svg width="2305pt" height="1162pt"
 viewBox="0.00 0.00 2305.00 1162.00" xmlns="http://www.w3.org/2000/svg" xmlns:xlink="http://www.w3.org/1999/xlink">
<g id="graph0" class="graph" transform="scale(1 1) rotate(0) translate(4 1158)">
<title>public.users</title>
<polygon fill="#ffffff" stroke="transparent" points="-4,4 -4,-1158 2301,-1158 2301,4 -4,4"/>
<!-- public.users -->
<g id="node1" class="node">
<title>public.users</title>
<polygon fill="#efefef" stroke="transparent" points="911,-435.5 911,-470.5 1317,-470.5 1317,-435.5 911,-435.5"/>
<polygon fill="none" stroke="#000000" points="911,-435.5 911,-470.5 1317,-470.5 1317,-435.5 911,-435.5"/>
<text text-anchor="start" x="1017.3662" y="-448.3" font-family="Arial Bold" font-size="18.00" fill="#000000">public.users</text>
<text text-anchor="start" x="1113.38" y="-448.3" font-family="Arial" font-size="14.00" fill="#000000"> </text>
<text text-anchor="start" x="1117.2706" y="-448.3" font-family="Arial" font-size="14.00" fill="#666666">[BASE TABLE]</text>
<polygon fill="none" stroke="#000000" points="911,-405.5 911,-435.5 1317,-435.5 1317,-405.5 911,-405.5"/>
<text text-anchor="start" x="918" y="-416.9" font-family="Arial" font-size="14.00" fill="#000000">id </text>
<text text-anchor="start" x="932.7798" y="-416.9" font-family="Arial" font-size="14.00" fill="#666666">[varchar]</text>
<polygon fill="none" stroke="#000000" points="911,-375.5 911,-405.5 1317,-405.5 1317,-375.5 911,-375.5"/>
<text text-anchor="start" x="918" y="-386.9" font-family="Arial" font-size="14.00" fill="#000000">name </text>
<text text-anchor="start" x="956.899" y="-386.9" font-family="Arial" font-size="14.00" fill="#666666">[varchar(50)]</text>
<polygon fill="none" stroke="#000000" points="911,-345.5 911,-375.5 1317,-375.5 1317,-345.5 911,-345.5"/>
<text text-anchor="start" x="918" y="-356.9" font-family="Arial" font-size="14.00" fill="#000000">email </text>
<text text-anchor="start" x="955.3296" y="-356.9" font-family="Arial" font-size="14.00" fill="#666666">[varchar(100)]</text>
<polygon fill="none" stroke="#000000" points="911,-315.5 911,-345.5 1317,-345.5 1317,-315.5 911,-315.5"/>
<text text-anchor="start" x="918" y="-326.9" font-family="Arial" font-size="14.00" fill="#000000">role </text>
<text text-anchor="start" x="945.223" y="-326.9" font-family="Arial" font-size="14.00" fill="#666666">[varchar]</text>
<polygon fill="none" stroke="#000000" points="911,-285.5 911,-315.5 1317,-315.5 1317,-285.5 911,-285.5"/>
<text text-anchor="start" x="918" y="-296.9" font-family="Arial" font-size="14.00" fill="#000000">avatar </text>
<text text-anchor="start" x="960.7896" y="-296.9" font-family="Arial" font-size="14.00" fill="#666666">[varchar]</text>
<polygon fill="none" stroke="#000000" points="911,-255.5 911,-285.5 1317,-285.5 1317,-255.5 911,-255.5"/>
<text text-anchor="start" x="918" y="-266.9" font-family="Arial" font-size="14.00" fill="#000000">introduction </text>
<text text-anchor="start" x="994.2412" y="-266.9" font-family="Arial" font-size="14.00" fill="#666666">[varchar(4000)]</text>
<polygon fill="none" stroke="#000000" points="911,-225.5 911,-255.5 1317,-255.5 1317,-225.5 911,-225.5"/>
<text text-anchor="start" x="918" y="-236.9" font-family="Arial" font-size="14.00" fill="#000000">email_verification_status </text>
<text text-anchor="start" x="1075.1332" y="-236.9" font-family="Arial" font-size="14.00" fill="#666666">[varchar]</text>
<polygon fill="none" stroke="#000000" points="911,-195.5 911,-225.5 1317,-225.5 1317,-195.5 911,-195.5"/>
<text text-anchor="start" x="918" y="-206.9" font-family="Arial" font-size="14.00" fill="#000000">email_verification_token </text>
<text text-anchor="start" x="1072.0252" y="-206.9" font-family="Arial" font-size="14.00" fill="#666666">[varchar]</text>
<polygon fill="none" stroke="#000000" points="911,-165.5 911,-195.5 1317,-195.5 1317,-165.5 911,-165.5"/>
<text text-anchor="start" x="917.9685" y="-176.9" font-family="Arial" font-size="14.00" fill="#000000">email_verification_token_expires_at </text>
<text text-anchor="start" x="1144.3471" y="-176.9" font-family="Arial" font-size="14.00" fill="#666666">[timestamp with time zone]</text>
<polygon fill="none" stroke="#000000" points="911,-135.5 911,-165.5 1317,-165.5 1317,-135.5 911,-135.5"/>
<text text-anchor="start" x="918" y="-146.9" font-family="Arial" font-size="14.00" fill="#000000">password_digest </text>
<text text-anchor="start" x="1026.9158" y="-146.9" font-family="Arial" font-size="14.00" fill="#666666">[varchar]</text>
<polygon fill="none" stroke="#000000" points="911,-105.5 911,-135.5 1317,-135.5 1317,-105.5 911,-105.5"/>
<text text-anchor="start" x="918" y="-116.9" font-family="Arial" font-size="14.00" fill="#000000">created_at </text>
<text text-anchor="start" x="988.028" y="-116.9" font-family="Arial" font-size="14.00" fill="#666666">[timestamp with time zone]</text>
<polygon fill="none" stroke="#000000" points="911,-75.5 911,-105.5 1317,-105.5 1317,-75.5 911,-75.5"/>
<text text-anchor="start" x="918" y="-86.9" font-family="Arial" font-size="14.00" fill="#000000">updated_at </text>
<text text-anchor="start" x="991.9326" y="-86.9" font-family="Arial" font-size="14.00" fill="#666666">[timestamp with time zone]</text>
<polygon fill="none" stroke="#000000" points="911,-45.5 911,-75.5 1317,-75.5 1317,-45.5 911,-45.5"/>
<text text-anchor="start" x="918" y="-56.9" font-family="Arial" font-size="14.00" fill="#000000">last_sign_in_at </text>
<text text-anchor="start" x="1015.2524" y="-56.9" font-family="Arial" font-size="14.00" fill="#666666">[timestamp with time zone]</text>
<polygon fill="none" stroke="#000000" stroke-width="3" points="909.5,-44.5 909.5,-472.5 1318.5,-472.5 1318.5,-44.5 909.5,-44.5"/>
</g>
<!-- public.recruitments -->
<g id="node2" class="node">
<title>public.recruitments</title>
<polygon fill="#efefef" stroke="transparent" points="85,-1075.5 85,-1110.5 347,-1110.5 347,-1075.5 85,-1075.5"/>
<polygon fill="none" stroke="#000000" points="85,-1075.5 85,-1110.5 347,-1110.5 347,-1075.5 85,-1075.5"/>
<text text-anchor="start" x="91.8685" y="-1088.3" font-family="Arial Bold" font-size="18.00" fill="#000000">public.recruitments</text>
<text text-anchor="start" x="242.8777" y="-1088.3" font-family="Arial" font-size="14.00" fill="#000000"> </text>
<text text-anchor="start" x="246.7683" y="-1088.3" font-family="Arial" font-size="14.00" fill="#666666">[BASE TABLE]</text>
<polygon fill="none" stroke="#000000" points="85,-1045.5 85,-1075.5 347,-1075.5 347,-1045.5 85,-1045.5"/>
<text text-anchor="start" x="92" y="-1056.9" font-family="Arial" font-size="14.00" fill="#000000">id </text>
<text text-anchor="start" x="106.7798" y="-1056.9" font-family="Arial" font-size="14.00" fill="#666666">[varchar]</text>
<polygon fill="none" stroke="#000000" points="85,-1015.5 85,-1045.5 347,-1045.5 347,-1015.5 85,-1015.5"/>
<text text-anchor="start" x="92" y="-1026.9" font-family="Arial" font-size="14.00" fill="#000000">title </text>
<text text-anchor="start" x="117.6676" y="-1026.9" font-family="Arial" font-size="14.00" fill="#666666">[varchar(60)]</text>
<polygon fill="none" stroke="#000000" points="85,-985.5 85,-1015.5 347,-1015.5 347,-985.5 85,-985.5"/>
<text text-anchor="start" x="92" y="-996.9" font-family="Arial" font-size="14.00" fill="#000000">type </text>
<text text-anchor="start" x="122.3464" y="-996.9" font-family="Arial" font-size="14.00" fill="#666666">[varchar]</text>
<polygon fill="none" stroke="#000000" points="85,-955.5 85,-985.5 347,-985.5 347,-955.5 85,-955.5"/>
<text text-anchor="start" x="92" y="-966.9" font-family="Arial" font-size="14.00" fill="#000000">place </text>
<text text-anchor="start" x="129.345" y="-966.9" font-family="Arial" font-size="14.00" fill="#666666">[varchar]</text>
<polygon fill="none" stroke="#000000" points="85,-925.5 85,-955.5 347,-955.5 347,-925.5 85,-925.5"/>
<text text-anchor="start" x="92" y="-936.9" font-family="Arial" font-size="14.00" fill="#000000">start_at </text>
<text text-anchor="start" x="142.5708" y="-936.9" font-family="Arial" font-size="14.00" fill="#666666">[timestamp with time zone]</text>
<polygon fill="none" stroke="#000000" points="85,-895.5 85,-925.5 347,-925.5 347,-895.5 85,-895.5"/>
<text text-anchor="start" x="92" y="-906.9" font-family="Arial" font-size="14.00" fill="#000000">detail </text>
<text text-anchor="start" x="129.3422" y="-906.9" font-family="Arial" font-size="14.00" fill="#666666">[varchar(10000)]</text>
<polygon fill="none" stroke="#000000" points="85,-865.5 85,-895.5 347,-895.5 347,-865.5 85,-865.5"/>
<text text-anchor="start" x="92" y="-876.9" font-family="Arial" font-size="14.00" fill="#000000">closing_at </text>
<text text-anchor="start" x="158.9074" y="-876.9" font-family="Arial" font-size="14.00" fill="#666666">[timestamp with time zone]</text>
<polygon fill="none" stroke="#000000" points="85,-835.5 85,-865.5 347,-865.5 347,-835.5 85,-835.5"/>
<text text-anchor="start" x="92" y="-846.9" font-family="Arial" font-size="14.00" fill="#000000">competition_id </text>
<text text-anchor="start" x="186.1304" y="-846.9" font-family="Arial" font-size="14.00" fill="#666666">[varchar]</text>
<polygon fill="none" stroke="#000000" points="85,-805.5 85,-835.5 347,-835.5 347,-805.5 85,-805.5"/>
<text text-anchor="start" x="92" y="-816.9" font-family="Arial" font-size="14.00" fill="#000000">prefecture_id </text>
<text text-anchor="start" x="177.5778" y="-816.9" font-family="Arial" font-size="14.00" fill="#666666">[varchar]</text>
<polygon fill="none" stroke="#000000" points="85,-775.5 85,-805.5 347,-805.5 347,-775.5 85,-775.5"/>
<text text-anchor="start" x="92" y="-786.9" font-family="Arial" font-size="14.00" fill="#000000">user_id </text>
<text text-anchor="start" x="141.7882" y="-786.9" font-family="Arial" font-size="14.00" fill="#666666">[varchar]</text>
<polygon fill="none" stroke="#000000" points="85,-745.5 85,-775.5 347,-775.5 347,-745.5 85,-745.5"/>
<text text-anchor="start" x="92" y="-756.9" font-family="Arial" font-size="14.00" fill="#000000">created_at </text>
<text text-anchor="start" x="162.028" y="-756.9" font-family="Arial" font-size="14.00" fill="#666666">[timestamp with time zone]</text>
<polygon fill="none" stroke="#000000" points="85,-715.5 85,-745.5 347,-745.5 347,-715.5 85,-715.5"/>
<text text-anchor="start" x="92" y="-726.9" font-family="Arial" font-size="14.00" fill="#000000">updated_at </text>
<text text-anchor="start" x="165.9326" y="-726.9" font-family="Arial" font-size="14.00" fill="#666666">[timestamp with time zone]</text>
<polygon fill="none" stroke="#000000" points="85,-685.5 85,-715.5 347,-715.5 347,-685.5 85,-685.5"/>
<text text-anchor="start" x="92" y="-696.9" font-family="Arial" font-size="14.00" fill="#000000">location_lat </text>
<text text-anchor="start" x="166.6872" y="-696.9" font-family="Arial" font-size="14.00" fill="#666666">[double precision]</text>
<polygon fill="none" stroke="#000000" points="85,-655.5 85,-685.5 347,-685.5 347,-655.5 85,-655.5"/>
<text text-anchor="start" x="92" y="-666.9" font-family="Arial" font-size="14.00" fill="#000000">location_lng </text>
<text text-anchor="start" x="170.5792" y="-666.9" font-family="Arial" font-size="14.00" fill="#666666">[double precision]</text>
<polygon fill="none" stroke="#000000" points="85,-625.5 85,-655.5 347,-655.5 347,-625.5 85,-625.5"/>
<text text-anchor="start" x="92" y="-636.9" font-family="Arial" font-size="14.00" fill="#000000">status </text>
<text text-anchor="start" x="133.237" y="-636.9" font-family="Arial" font-size="14.00" fill="#666666">[varchar]</text>
<polygon fill="none" stroke="#000000" points="85,-595.5 85,-625.5 347,-625.5 347,-595.5 85,-595.5"/>
<text text-anchor="start" x="91.5302" y="-606.9" font-family="Arial" font-size="14.00" fill="#000000">published_at </text>
<text text-anchor="start" x="174.7854" y="-606.9" font-family="Arial" font-size="14.00" fill="#666666">[timestamp with time zone]</text>
</g>
<!-- public.recruitments&#45;&gt;public.users -->
<g id="edge1" class="edge">
<title>public.recruitments:user_id&#45;&gt;public.users:id</title>
<path fill="none" stroke="#000000" d="M356.989,-789.9808C446.5832,-779.9873 326.5348,-628.249 399,-553 480.5228,-468.3454 793.474,-420.5 911,-420.5"/>
<polygon fill="#000000" stroke="#000000" points="356.9865,-789.9808 346.7664,-786.0061 351.9933,-790.2404 347,-790.5 347,-790.5 347,-790.5 351.9933,-790.2404 347.2336,-794.9939 356.9865,-789.9808 356.9865,-789.9808"/>
<text text-anchor="start" x="7.0535" y="-800.5" font-family="Arial" font-size="10.00" fill="#000000">FOREIGN KEY (user_id) REFERENCES users(id) ON DELETE CASCADE</text>
</g>
<!-- public.stocks -->
<g id="node3" class="node">
<title>public.stocks</title>
<polygon fill="#efefef" stroke="transparent" points="452,-910.5 452,-945.5 705,-945.5 705,-910.5 452,-910.5"/>
<polygon fill="none" stroke="#000000" points="452,-910.5 452,-945.5 705,-945.5 705,-910.5 452,-910.5"/>
<text text-anchor="start" x="478.3643" y="-923.3" font-family="Arial Bold" font-size="18.00" fill="#000000">public.stocks</text>
<text text-anchor="start" x="581.3819" y="-923.3" font-family="Arial" font-size="14.00" fill="#000000"> </text>
<text text-anchor="start" x="585.2725" y="-923.3" font-family="Arial" font-size="14.00" fill="#666666">[BASE TABLE]</text>
<polygon fill="none" stroke="#000000" points="452,-880.5 452,-910.5 705,-910.5 705,-880.5 452,-880.5"/>
<text text-anchor="start" x="459" y="-891.9" font-family="Arial" font-size="14.00" fill="#000000">id </text>
<text text-anchor="start" x="473.7798" y="-891.9" font-family="Arial" font-size="14.00" fill="#666666">[varchar]</text>
<polygon fill="none" stroke="#000000" points="452,-850.5 452,-880.5 705,-880.5 705,-850.5 452,-850.5"/>
<text text-anchor="start" x="459" y="-861.9" font-family="Arial" font-size="14.00" fill="#000000">recruitment_id </text>
<text text-anchor="start" x="551.5624" y="-861.9" font-family="Arial" font-size="14.00" fill="#666666">[varchar]</text>
<polygon fill="none" stroke="#000000" points="452,-820.5 452,-850.5 705,-850.5 705,-820.5 452,-820.5"/>
<text text-anchor="start" x="459" y="-831.9" font-family="Arial" font-size="14.00" fill="#000000">user_id </text>
<text text-anchor="start" x="508.7882" y="-831.9" font-family="Arial" font-size="14.00" fill="#666666">[varchar]</text>
<polygon fill="none" stroke="#000000" points="452,-790.5 452,-820.5 705,-820.5 705,-790.5 452,-790.5"/>
<text text-anchor="start" x="459" y="-801.9" font-family="Arial" font-size="14.00" fill="#000000">created_at </text>
<text text-anchor="start" x="529.028" y="-801.9" font-family="Arial" font-size="14.00" fill="#666666">[timestamp with time zone]</text>
<polygon fill="none" stroke="#000000" points="452,-760.5 452,-790.5 705,-790.5 705,-760.5 452,-760.5"/>
<text text-anchor="start" x="458.6915" y="-771.9" font-family="Arial" font-size="14.00" fill="#000000">updated_at </text>
<text text-anchor="start" x="532.6241" y="-771.9" font-family="Arial" font-size="14.00" fill="#666666">[timestamp with time zone]</text>
</g>
<!-- public.stocks&#45;&gt;public.users -->
<g id="edge2" class="edge">
<title>public.stocks:user_id&#45;&gt;public.users:id</title>
<path fill="none" stroke="#000000" d="M714.8306,-833.3861C763.9909,-810.3169 726.0431,-605.1932 756,-553 801.1145,-474.3981 820.3712,-420.5 911,-420.5"/>
<polygon fill="#000000" stroke="#000000" points="714.7765,-833.3976 704.0539,-831.1006 709.8883,-834.4488 705,-835.5 705,-835.5 705,-835.5 709.8883,-834.4488 705.9461,-839.8994 714.7765,-833.3976 714.7765,-833.3976"/>
<text text-anchor="start" x="365.0535" y="-845.5" font-family="Arial" font-size="10.00" fill="#000000">FOREIGN KEY (user_id) REFERENCES users(id) ON DELETE CASCADE</text>
</g>
<!-- public.applicants -->
<g id="node4" class="node">
<title>public.applicants</title>
<polygon fill="#efefef" stroke="transparent" points="809,-925.5 809,-960.5 1062,-960.5 1062,-925.5 809,-925.5"/>
<polygon fill="none" stroke="#000000" points="809,-925.5 809,-960.5 1062,-960.5 1062,-925.5 809,-925.5"/>
<text text-anchor="start" x="820.3577" y="-938.3" font-family="Arial Bold" font-size="18.00" fill="#000000">public.applicants</text>
<text text-anchor="start" x="953.3885" y="-938.3" font-family="Arial" font-size="14.00" fill="#000000"> </text>
<text text-anchor="start" x="957.2791" y="-938.3" font-family="Arial" font-size="14.00" fill="#666666">[BASE TABLE]</text>
<polygon fill="none" stroke="#000000" points="809,-895.5 809,-925.5 1062,-925.5 1062,-895.5 809,-895.5"/>
<text text-anchor="start" x="816" y="-906.9" font-family="Arial" font-size="14.00" fill="#000000">id </text>
<text text-anchor="start" x="830.7798" y="-906.9" font-family="Arial" font-size="14.00" fill="#666666">[varchar]</text>
<polygon fill="none" stroke="#000000" points="809,-865.5 809,-895.5 1062,-895.5 1062,-865.5 809,-865.5"/>
<text text-anchor="start" x="816" y="-876.9" font-family="Arial" font-size="14.00" fill="#000000">recruitment_id </text>
<text text-anchor="start" x="908.5624" y="-876.9" font-family="Arial" font-size="14.00" fill="#666666">[varchar]</text>
<polygon fill="none" stroke="#000000" points="809,-835.5 809,-865.5 1062,-865.5 1062,-835.5 809,-835.5"/>
<text text-anchor="start" x="816" y="-846.9" font-family="Arial" font-size="14.00" fill="#000000">user_id </text>
<text text-anchor="start" x="865.7882" y="-846.9" font-family="Arial" font-size="14.00" fill="#666666">[varchar]</text>
<polygon fill="none" stroke="#000000" points="809,-805.5 809,-835.5 1062,-835.5 1062,-805.5 809,-805.5"/>
<text text-anchor="start" x="816" y="-816.9" font-family="Arial" font-size="14.00" fill="#000000">created_at </text>
<text text-anchor="start" x="886.028" y="-816.9" font-family="Arial" font-size="14.00" fill="#666666">[timestamp with time zone]</text>
<polygon fill="none" stroke="#000000" points="809,-775.5 809,-805.5 1062,-805.5 1062,-775.5 809,-775.5"/>
<text text-anchor="start" x="815.6915" y="-786.9" font-family="Arial" font-size="14.00" fill="#000000">updated_at </text>
<text text-anchor="start" x="889.6241" y="-786.9" font-family="Arial" font-size="14.00" fill="#666666">[timestamp with time zone]</text>
<polygon fill="none" stroke="#000000" points="809,-745.5 809,-775.5 1062,-775.5 1062,-745.5 809,-745.5"/>
<text text-anchor="start" x="816" y="-756.9" font-family="Arial" font-size="14.00" fill="#000000">message </text>
<text text-anchor="start" x="876.6816" y="-756.9" font-family="Arial" font-size="14.00" fill="#666666">[varchar(1000)]</text>
</g>
<!-- public.applicants&#45;&gt;public.users -->
<g id="edge3" class="edge">
<title>public.applicants:user_id&#45;&gt;public.users:id</title>
<path fill="none" stroke="#000000" d="M1072.1122,-849.6949C1122.6822,-840.8665 1082.6794,-761.2825 1062,-703 1026.3949,-602.6508 946.6051,-617.3492 911,-517 896.6585,-476.58 868.1111,-420.5 911,-420.5"/>
<polygon fill="#000000" stroke="#000000" points="1071.9685,-849.7063 1061.6428,-846.0142 1066.9842,-850.1031 1062,-850.5 1062,-850.5 1062,-850.5 1066.9842,-850.1031 1062.3572,-854.9858 1071.9685,-849.7063 1071.9685,-849.7063"/>
<text text-anchor="start" x="722.0535" y="-860.5" font-family="Arial" font-size="10.00" fill="#000000">FOREIGN KEY (user_id) REFERENCES users(id) ON DELETE CASCADE</text>
</g>
<!-- public.messages -->
<g id="node5" class="node">
<title>public.messages</title>
<polygon fill="#efefef" stroke="transparent" points="1166,-940.5 1166,-975.5 1419,-975.5 1419,-940.5 1166,-940.5"/>
<polygon fill="none" stroke="#000000" points="1166,-940.5 1166,-975.5 1419,-975.5 1419,-940.5 1166,-940.5"/>
<text text-anchor="start" x="1176.86" y="-953.3" font-family="Arial Bold" font-size="18.00" fill="#000000">public.messages</text>
<text text-anchor="start" x="1310.8862" y="-953.3" font-family="Arial" font-size="14.00" fill="#000000"> </text>
<text text-anchor="start" x="1314.7768" y="-953.3" font-family="Arial" font-size="14.00" fill="#666666">[BASE TABLE]</text>
<polygon fill="none" stroke="#000000" points="1166,-910.5 1166,-940.5 1419,-940.5 1419,-910.5 1166,-910.5"/>
<text text-anchor="start" x="1173" y="-921.9" font-family="Arial" font-size="14.00" fill="#000000">id </text>
<text text-anchor="start" x="1187.7798" y="-921.9" font-family="Arial" font-size="14.00" fill="#666666">[varchar]</text>
<polygon fill="none" stroke="#000000" points="1166,-880.5 1166,-910.5 1419,-910.5 1419,-880.5 1166,-880.5"/>
<text text-anchor="start" x="1173" y="-891.9" font-family="Arial" font-size="14.00" fill="#000000">content </text>
<text text-anchor="start" x="1222.8022" y="-891.9" font-family="Arial" font-size="14.00" fill="#666666">[varchar(1000)]</text>
<polygon fill="none" stroke="#000000" points="1166,-850.5 1166,-880.5 1419,-880.5 1419,-850.5 1166,-850.5"/>
<text text-anchor="start" x="1173" y="-861.9" font-family="Arial" font-size="14.00" fill="#000000">room_id </text>
<text text-anchor="start" x="1227.4488" y="-861.9" font-family="Arial" font-size="14.00" fill="#666666">[varchar]</text>
<polygon fill="none" stroke="#000000" points="1166,-820.5 1166,-850.5 1419,-850.5 1419,-820.5 1166,-820.5"/>
<text text-anchor="start" x="1173" y="-831.9" font-family="Arial" font-size="14.00" fill="#000000">user_id </text>
<text text-anchor="start" x="1222.7882" y="-831.9" font-family="Arial" font-size="14.00" fill="#666666">[varchar]</text>
<polygon fill="none" stroke="#000000" points="1166,-790.5 1166,-820.5 1419,-820.5 1419,-790.5 1166,-790.5"/>
<text text-anchor="start" x="1173" y="-801.9" font-family="Arial" font-size="14.00" fill="#000000">applicant_id </text>
<text text-anchor="start" x="1251.5792" y="-801.9" font-family="Arial" font-size="14.00" fill="#666666">[varchar]</text>
<polygon fill="none" stroke="#000000" points="1166,-760.5 1166,-790.5 1419,-790.5 1419,-760.5 1166,-760.5"/>
<text text-anchor="start" x="1173" y="-771.9" font-family="Arial" font-size="14.00" fill="#000000">created_at </text>
<text text-anchor="start" x="1243.028" y="-771.9" font-family="Arial" font-size="14.00" fill="#666666">[timestamp with time zone]</text>
<polygon fill="none" stroke="#000000" points="1166,-730.5 1166,-760.5 1419,-760.5 1419,-730.5 1166,-730.5"/>
<text text-anchor="start" x="1172.6915" y="-741.9" font-family="Arial" font-size="14.00" fill="#000000">updated_at </text>
<text text-anchor="start" x="1246.6241" y="-741.9" font-family="Arial" font-size="14.00" fill="#666666">[timestamp with time zone]</text>
</g>
<!-- public.messages&#45;&gt;public.users -->
<g id="edge4" class="edge">
<title>public.messages:user_id&#45;&gt;public.users:id</title>
<path fill="none" stroke="#000000" d="M1155.8762,-834.6907C1105.1814,-825.8166 1144.1171,-745.8414 1166,-688 1201.8767,-593.1698 1281.1233,-611.8302 1317,-517 1332.1762,-476.8859 1359.8889,-420.5 1317,-420.5"/>
<polygon fill="#000000" stroke="#000000" points="1156.0318,-834.703 1165.6414,-839.9857 1161.0159,-835.1015 1166,-835.5 1166,-835.5 1166,-835.5 1161.0159,-835.1015 1166.3586,-831.0143 1156.0318,-834.703 1156.0318,-834.703"/>
<text text-anchor="start" x="913.079" y="-819.5" font-family="Arial" font-size="10.00" fill="#000000">FOREIGN KEY (user_id) REFERENCES users(id) ON DELETE SET NULL</text>
</g>
<!-- public.entries -->
<g id="node6" class="node">
<title>public.entries</title>
<polygon fill="#efefef" stroke="transparent" points="1523,-910.5 1523,-945.5 1776,-945.5 1776,-910.5 1523,-910.5"/>
<polygon fill="none" stroke="#000000" points="1523,-910.5 1523,-945.5 1776,-945.5 1776,-910.5 1523,-910.5"/>
<text text-anchor="start" x="1547.8649" y="-923.3" font-family="Arial Bold" font-size="18.00" fill="#000000">public.entries</text>
<text text-anchor="start" x="1653.8813" y="-923.3" font-family="Arial" font-size="14.00" fill="#000000"> </text>
<text text-anchor="start" x="1657.7719" y="-923.3" font-family="Arial" font-size="14.00" fill="#666666">[BASE TABLE]</text>
<polygon fill="none" stroke="#000000" points="1523,-880.5 1523,-910.5 1776,-910.5 1776,-880.5 1523,-880.5"/>
<text text-anchor="start" x="1530" y="-891.9" font-family="Arial" font-size="14.00" fill="#000000">id </text>
<text text-anchor="start" x="1544.7798" y="-891.9" font-family="Arial" font-size="14.00" fill="#666666">[varchar]</text>
<polygon fill="none" stroke="#000000" points="1523,-850.5 1523,-880.5 1776,-880.5 1776,-850.5 1523,-850.5"/>
<text text-anchor="start" x="1530" y="-861.9" font-family="Arial" font-size="14.00" fill="#000000">room_id </text>
<text text-anchor="start" x="1584.4488" y="-861.9" font-family="Arial" font-size="14.00" fill="#666666">[varchar]</text>
<polygon fill="none" stroke="#000000" points="1523,-820.5 1523,-850.5 1776,-850.5 1776,-820.5 1523,-820.5"/>
<text text-anchor="start" x="1530" y="-831.9" font-family="Arial" font-size="14.00" fill="#000000">user_id </text>
<text text-anchor="start" x="1579.7882" y="-831.9" font-family="Arial" font-size="14.00" fill="#666666">[varchar]</text>
<polygon fill="none" stroke="#000000" points="1523,-790.5 1523,-820.5 1776,-820.5 1776,-790.5 1523,-790.5"/>
<text text-anchor="start" x="1530" y="-801.9" font-family="Arial" font-size="14.00" fill="#000000">created_at </text>
<text text-anchor="start" x="1600.028" y="-801.9" font-family="Arial" font-size="14.00" fill="#666666">[timestamp with time zone]</text>
<polygon fill="none" stroke="#000000" points="1523,-760.5 1523,-790.5 1776,-790.5 1776,-760.5 1523,-760.5"/>
<text text-anchor="start" x="1529.6915" y="-771.9" font-family="Arial" font-size="14.00" fill="#000000">updated_at </text>
<text text-anchor="start" x="1603.6241" y="-771.9" font-family="Arial" font-size="14.00" fill="#666666">[timestamp with time zone]</text>
</g>
<!-- public.entries&#45;&gt;public.users -->
<g id="edge5" class="edge">
<title>public.entries:user_id&#45;&gt;public.users:id</title>
<path fill="none" stroke="#000000" d="M1513.1544,-833.3864C1463.8663,-810.3202 1500.9816,-605.2224 1471,-553 1426.0445,-474.6958 1407.2914,-420.5 1317,-420.5"/>
<polygon fill="#000000" stroke="#000000" points="1513.2228,-833.401 1522.0554,-839.8998 1518.1114,-834.4505 1523,-835.5 1523,-835.5 1523,-835.5 1518.1114,-834.4505 1523.9446,-831.1002 1513.2228,-833.401 1513.2228,-833.401"/>
<text text-anchor="start" x="1270.079" y="-819.5" font-family="Arial" font-size="10.00" fill="#000000">FOREIGN KEY (user_id) REFERENCES users(id) ON DELETE SET NULL</text>
</g>
<!-- public.room_read_managements -->
<g id="node7" class="node">
<title>public.room_read_managements</title>
<polygon fill="#efefef" stroke="transparent" points="1880,-925.5 1880,-960.5 2254,-960.5 2254,-925.5 1880,-925.5"/>
<polygon fill="none" stroke="#000000" points="1880,-925.5 1880,-960.5 2254,-960.5 2254,-925.5 1880,-925.5"/>
<text text-anchor="start" x="1886.8435" y="-938.3" font-family="Arial Bold" font-size="18.00" fill="#000000">public.room_read_managements</text>
<text text-anchor="start" x="2149.9027" y="-938.3" font-family="Arial" font-size="14.00" fill="#000000"> </text>
<text text-anchor="start" x="2153.7933" y="-938.3" font-family="Arial" font-size="14.00" fill="#666666">[BASE TABLE]</text>
<polygon fill="none" stroke="#000000" points="1880,-895.5 1880,-925.5 2254,-925.5 2254,-895.5 1880,-895.5"/>
<text text-anchor="start" x="1887" y="-906.9" font-family="Arial" font-size="14.00" fill="#000000">id </text>
<text text-anchor="start" x="1901.7798" y="-906.9" font-family="Arial" font-size="14.00" fill="#666666">[varchar]</text>
<polygon fill="none" stroke="#000000" points="1880,-865.5 1880,-895.5 2254,-895.5 2254,-865.5 1880,-865.5"/>
<text text-anchor="start" x="1887" y="-876.9" font-family="Arial" font-size="14.00" fill="#000000">last_read_at </text>
<text text-anchor="start" x="1967.9172" y="-876.9" font-family="Arial" font-size="14.00" fill="#666666">[timestamp with time zone]</text>
<polygon fill="none" stroke="#000000" points="1880,-835.5 1880,-865.5 2254,-865.5 2254,-835.5 1880,-835.5"/>
<text text-anchor="start" x="1887" y="-846.9" font-family="Arial" font-size="14.00" fill="#000000">room_id </text>
<text text-anchor="start" x="1941.4488" y="-846.9" font-family="Arial" font-size="14.00" fill="#666666">[varchar]</text>
<polygon fill="none" stroke="#000000" points="1880,-805.5 1880,-835.5 2254,-835.5 2254,-805.5 1880,-805.5"/>
<text text-anchor="start" x="1887" y="-816.9" font-family="Arial" font-size="14.00" fill="#000000">user_id </text>
<text text-anchor="start" x="1936.7882" y="-816.9" font-family="Arial" font-size="14.00" fill="#666666">[varchar]</text>
<polygon fill="none" stroke="#000000" points="1880,-775.5 1880,-805.5 2254,-805.5 2254,-775.5 1880,-775.5"/>
<text text-anchor="start" x="1887" y="-786.9" font-family="Arial" font-size="14.00" fill="#000000">created_at </text>
<text text-anchor="start" x="1957.028" y="-786.9" font-family="Arial" font-size="14.00" fill="#666666">[timestamp with time zone]</text>
<polygon fill="none" stroke="#000000" points="1880,-745.5 1880,-775.5 2254,-775.5 2254,-745.5 1880,-745.5"/>
<text text-anchor="start" x="1887" y="-756.9" font-family="Arial" font-size="14.00" fill="#000000">updated_at </text>
<text text-anchor="start" x="1960.9326" y="-756.9" font-family="Arial" font-size="14.00" fill="#666666">[timestamp with time zone]</text>
</g>
<!-- public.room_read_managements&#45;&gt;public.users -->
<g id="edge6" class="edge">
<title>public.room_read_managements:user_id&#45;&gt;public.users:id</title>
<path fill="none" stroke="#000000" d="M1869.7374,-820.0146C1767.8777,-809.7299 1908.4466,-638.5707 1828,-553 1747.6472,-467.5291 1434.3109,-420.5 1317,-420.5"/>
<polygon fill="#000000" stroke="#000000" points="1870.0112,-820.0275 1879.7874,-824.995 1875.0056,-820.2637 1880,-820.5 1880,-820.5 1880,-820.5 1875.0056,-820.2637 1880.2126,-816.005 1870.0112,-820.0275 1870.0112,-820.0275"/>
<text text-anchor="start" x="1887.329" y="-830.5" font-family="Arial" font-size="10.00" fill="#000000">FOREIGN KEY (user_id) REFERENCES users(id) ON DELETE SET NULL</text>
</g>
</g>
</svg>
