<?xml version="1.0" encoding="UTF-8" standalone="no"?>
<!DOCTYPE svg PUBLIC "-//W3C//DTD SVG 1.1//EN"
 "http://www.w3.org/Graphics/SVG/1.1/DTD/svg11.dtd">
<!-- Generated by graphviz version 2.40.1 (20161225.0304)
 -->
<!-- Title: public.stocks Pages: 1 -->
<svg width="1016pt" height="922pt"
 viewBox="0.00 0.00 1016.00 922.00" xmlns="http://www.w3.org/2000/svg" xmlns:xlink="http://www.w3.org/1999/xlink">
<g id="graph0" class="graph" transform="scale(1 1) rotate(0) translate(4 918)">
<title>public.stocks</title>
<polygon fill="#ffffff" stroke="transparent" points="-4,4 -4,-918 1012,-918 1012,4 -4,4"/>
<!-- public.stocks -->
<g id="node1" class="node">
<title>public.stocks</title>
<polygon fill="#efefef" stroke="transparent" points="408,-832.5 408,-867.5 661,-867.5 661,-832.5 408,-832.5"/>
<polygon fill="none" stroke="#000000" points="408,-832.5 408,-867.5 661,-867.5 661,-832.5 408,-832.5"/>
<text text-anchor="start" x="434.3643" y="-845.3" font-family="Arial Bold" font-size="18.00" fill="#000000">public.stocks</text>
<text text-anchor="start" x="537.3819" y="-845.3" font-family="Arial" font-size="14.00" fill="#000000"> </text>
<text text-anchor="start" x="541.2725" y="-845.3" font-family="Arial" font-size="14.00" fill="#666666">[BASE TABLE]</text>
<polygon fill="none" stroke="#000000" points="408,-802.5 408,-832.5 661,-832.5 661,-802.5 408,-802.5"/>
<text text-anchor="start" x="415" y="-813.9" font-family="Arial" font-size="14.00" fill="#000000">id </text>
<text text-anchor="start" x="429.7798" y="-813.9" font-family="Arial" font-size="14.00" fill="#666666">[bigint]</text>
<polygon fill="none" stroke="#000000" points="408,-772.5 408,-802.5 661,-802.5 661,-772.5 408,-772.5"/>
<text text-anchor="start" x="415" y="-783.9" font-family="Arial" font-size="14.00" fill="#000000">recruitment_id </text>
<text text-anchor="start" x="507.5624" y="-783.9" font-family="Arial" font-size="14.00" fill="#666666">[bigint]</text>
<polygon fill="none" stroke="#000000" points="408,-742.5 408,-772.5 661,-772.5 661,-742.5 408,-742.5"/>
<text text-anchor="start" x="415" y="-753.9" font-family="Arial" font-size="14.00" fill="#000000">user_id </text>
<text text-anchor="start" x="464.7882" y="-753.9" font-family="Arial" font-size="14.00" fill="#666666">[bigint]</text>
<polygon fill="none" stroke="#000000" points="408,-712.5 408,-742.5 661,-742.5 661,-712.5 408,-712.5"/>
<text text-anchor="start" x="415" y="-723.9" font-family="Arial" font-size="14.00" fill="#000000">created_at </text>
<text text-anchor="start" x="485.028" y="-723.9" font-family="Arial" font-size="14.00" fill="#666666">[timestamp with time zone]</text>
<polygon fill="none" stroke="#000000" points="408,-682.5 408,-712.5 661,-712.5 661,-682.5 408,-682.5"/>
<text text-anchor="start" x="414.6915" y="-693.9" font-family="Arial" font-size="14.00" fill="#000000">updated_at </text>
<text text-anchor="start" x="488.6241" y="-693.9" font-family="Arial" font-size="14.00" fill="#666666">[timestamp with time zone]</text>
<polygon fill="none" stroke="#000000" stroke-width="3" points="406,-681.5 406,-869.5 662,-869.5 662,-681.5 406,-681.5"/>
</g>
<!-- public.recruitments -->
<g id="node2" class="node">
<title>public.recruitments</title>
<polygon fill="#efefef" stroke="transparent" points="189,-522.5 189,-557.5 451,-557.5 451,-522.5 189,-522.5"/>
<polygon fill="none" stroke="#000000" points="189,-522.5 189,-557.5 451,-557.5 451,-522.5 189,-522.5"/>
<text text-anchor="start" x="195.8685" y="-535.3" font-family="Arial Bold" font-size="18.00" fill="#000000">public.recruitments</text>
<text text-anchor="start" x="346.8777" y="-535.3" font-family="Arial" font-size="14.00" fill="#000000"> </text>
<text text-anchor="start" x="350.7683" y="-535.3" font-family="Arial" font-size="14.00" fill="#666666">[BASE TABLE]</text>
<polygon fill="none" stroke="#000000" points="189,-492.5 189,-522.5 451,-522.5 451,-492.5 189,-492.5"/>
<text text-anchor="start" x="196" y="-503.9" font-family="Arial" font-size="14.00" fill="#000000">id </text>
<text text-anchor="start" x="210.7798" y="-503.9" font-family="Arial" font-size="14.00" fill="#666666">[bigint]</text>
<polygon fill="none" stroke="#000000" points="189,-462.5 189,-492.5 451,-492.5 451,-462.5 189,-462.5"/>
<text text-anchor="start" x="196" y="-473.9" font-family="Arial" font-size="14.00" fill="#000000">title </text>
<text text-anchor="start" x="221.6676" y="-473.9" font-family="Arial" font-size="14.00" fill="#666666">[varchar(60)]</text>
<polygon fill="none" stroke="#000000" points="189,-432.5 189,-462.5 451,-462.5 451,-432.5 189,-432.5"/>
<text text-anchor="start" x="196" y="-443.9" font-family="Arial" font-size="14.00" fill="#000000">type </text>
<text text-anchor="start" x="226.3464" y="-443.9" font-family="Arial" font-size="14.00" fill="#666666">[varchar]</text>
<polygon fill="none" stroke="#000000" points="189,-402.5 189,-432.5 451,-432.5 451,-402.5 189,-402.5"/>
<text text-anchor="start" x="196" y="-413.9" font-family="Arial" font-size="14.00" fill="#000000">venue </text>
<text text-anchor="start" x="238.021" y="-413.9" font-family="Arial" font-size="14.00" fill="#666666">[varchar]</text>
<polygon fill="none" stroke="#000000" points="189,-372.5 189,-402.5 451,-402.5 451,-372.5 189,-372.5"/>
<text text-anchor="start" x="196" y="-383.9" font-family="Arial" font-size="14.00" fill="#000000">start_at </text>
<text text-anchor="start" x="246.5708" y="-383.9" font-family="Arial" font-size="14.00" fill="#666666">[timestamp with time zone]</text>
<polygon fill="none" stroke="#000000" points="189,-342.5 189,-372.5 451,-372.5 451,-342.5 189,-342.5"/>
<text text-anchor="start" x="196" y="-353.9" font-family="Arial" font-size="14.00" fill="#000000">detail </text>
<text text-anchor="start" x="233.3422" y="-353.9" font-family="Arial" font-size="14.00" fill="#666666">[varchar(10000)]</text>
<polygon fill="none" stroke="#000000" points="189,-312.5 189,-342.5 451,-342.5 451,-312.5 189,-312.5"/>
<text text-anchor="start" x="196" y="-323.9" font-family="Arial" font-size="14.00" fill="#000000">closing_at </text>
<text text-anchor="start" x="262.9074" y="-323.9" font-family="Arial" font-size="14.00" fill="#666666">[timestamp with time zone]</text>
<polygon fill="none" stroke="#000000" points="189,-282.5 189,-312.5 451,-312.5 451,-282.5 189,-282.5"/>
<text text-anchor="start" x="196" y="-293.9" font-family="Arial" font-size="14.00" fill="#000000">competition_id </text>
<text text-anchor="start" x="290.1304" y="-293.9" font-family="Arial" font-size="14.00" fill="#666666">[bigint]</text>
<polygon fill="none" stroke="#000000" points="189,-252.5 189,-282.5 451,-282.5 451,-252.5 189,-252.5"/>
<text text-anchor="start" x="196" y="-263.9" font-family="Arial" font-size="14.00" fill="#000000">prefecture_id </text>
<text text-anchor="start" x="281.5778" y="-263.9" font-family="Arial" font-size="14.00" fill="#666666">[bigint]</text>
<polygon fill="none" stroke="#000000" points="189,-222.5 189,-252.5 451,-252.5 451,-222.5 189,-222.5"/>
<text text-anchor="start" x="196" y="-233.9" font-family="Arial" font-size="14.00" fill="#000000">user_id </text>
<text text-anchor="start" x="245.7882" y="-233.9" font-family="Arial" font-size="14.00" fill="#666666">[bigint]</text>
<polygon fill="none" stroke="#000000" points="189,-192.5 189,-222.5 451,-222.5 451,-192.5 189,-192.5"/>
<text text-anchor="start" x="196" y="-203.9" font-family="Arial" font-size="14.00" fill="#000000">created_at </text>
<text text-anchor="start" x="266.028" y="-203.9" font-family="Arial" font-size="14.00" fill="#666666">[timestamp with time zone]</text>
<polygon fill="none" stroke="#000000" points="189,-162.5 189,-192.5 451,-192.5 451,-162.5 189,-162.5"/>
<text text-anchor="start" x="196" y="-173.9" font-family="Arial" font-size="14.00" fill="#000000">updated_at </text>
<text text-anchor="start" x="269.9326" y="-173.9" font-family="Arial" font-size="14.00" fill="#666666">[timestamp with time zone]</text>
<polygon fill="none" stroke="#000000" points="189,-132.5 189,-162.5 451,-162.5 451,-132.5 189,-132.5"/>
<text text-anchor="start" x="196" y="-143.9" font-family="Arial" font-size="14.00" fill="#000000">location_lat </text>
<text text-anchor="start" x="270.6872" y="-143.9" font-family="Arial" font-size="14.00" fill="#666666">[double precision]</text>
<polygon fill="none" stroke="#000000" points="189,-102.5 189,-132.5 451,-132.5 451,-102.5 189,-102.5"/>
<text text-anchor="start" x="196" y="-113.9" font-family="Arial" font-size="14.00" fill="#000000">location_lng </text>
<text text-anchor="start" x="274.5792" y="-113.9" font-family="Arial" font-size="14.00" fill="#666666">[double precision]</text>
<polygon fill="none" stroke="#000000" points="189,-72.5 189,-102.5 451,-102.5 451,-72.5 189,-72.5"/>
<text text-anchor="start" x="196" y="-83.9" font-family="Arial" font-size="14.00" fill="#000000">status </text>
<text text-anchor="start" x="237.237" y="-83.9" font-family="Arial" font-size="14.00" fill="#666666">[recruitment_status]</text>
<polygon fill="none" stroke="#000000" points="189,-42.5 189,-72.5 451,-72.5 451,-42.5 189,-42.5"/>
<text text-anchor="start" x="195.5302" y="-53.9" font-family="Arial" font-size="14.00" fill="#000000">published_at </text>
<text text-anchor="start" x="278.7854" y="-53.9" font-family="Arial" font-size="14.00" fill="#666666">[timestamp with time zone]</text>
</g>
<!-- public.stocks&#45;&gt;public.recruitments -->
<g id="edge1" class="edge">
<title>public.stocks:recruitment_id&#45;&gt;public.recruitments:id</title>
<path fill="none" stroke="#000000" d="M397.9535,-786.713C345.3008,-777.7555 381.2457,-694.2918 408,-637 418.5461,-614.4165 440.4539,-623.5835 451,-601 468.583,-563.3476 492.5556,-507.5 451,-507.5"/>
<polygon fill="#000000" stroke="#000000" points="398.0305,-786.7189 407.6485,-791.9863 403.0153,-787.1094 408,-787.5 408,-787.5 408,-787.5 403.0153,-787.1094 408.3515,-783.0137 398.0305,-786.7189 398.0305,-786.7189"/>
<text text-anchor="start" x="6.5005" y="-797.5" font-family="Arial" font-size="10.00" fill="#000000">FOREIGN KEY (recruitment_id) REFERENCES recruitments(id) ON DELETE CASCADE</text>
</g>
<!-- public.users -->
<g id="node3" class="node">
<title>public.users</title>
<polygon fill="#efefef" stroke="transparent" points="555,-492.5 555,-527.5 945,-527.5 945,-492.5 555,-492.5"/>
<polygon fill="none" stroke="#000000" points="555,-492.5 555,-527.5 945,-527.5 945,-492.5 555,-492.5"/>
<text text-anchor="start" x="653.3662" y="-505.3" font-family="Arial Bold" font-size="18.00" fill="#000000">public.users</text>
<text text-anchor="start" x="749.38" y="-505.3" font-family="Arial" font-size="14.00" fill="#000000"> </text>
<text text-anchor="start" x="753.2706" y="-505.3" font-family="Arial" font-size="14.00" fill="#666666">[BASE TABLE]</text>
<polygon fill="none" stroke="#000000" points="555,-462.5 555,-492.5 945,-492.5 945,-462.5 555,-462.5"/>
<text text-anchor="start" x="562" y="-473.9" font-family="Arial" font-size="14.00" fill="#000000">id </text>
<text text-anchor="start" x="576.7798" y="-473.9" font-family="Arial" font-size="14.00" fill="#666666">[bigint]</text>
<polygon fill="none" stroke="#000000" points="555,-432.5 555,-462.5 945,-462.5 945,-432.5 555,-432.5"/>
<text text-anchor="start" x="562" y="-443.9" font-family="Arial" font-size="14.00" fill="#000000">name </text>
<text text-anchor="start" x="600.899" y="-443.9" font-family="Arial" font-size="14.00" fill="#666666">[varchar(50)]</text>
<polygon fill="none" stroke="#000000" points="555,-402.5 555,-432.5 945,-432.5 945,-402.5 555,-402.5"/>
<text text-anchor="start" x="562" y="-413.9" font-family="Arial" font-size="14.00" fill="#000000">email </text>
<text text-anchor="start" x="599.3296" y="-413.9" font-family="Arial" font-size="14.00" fill="#666666">[varchar(100)]</text>
<polygon fill="none" stroke="#000000" points="555,-372.5 555,-402.5 945,-402.5 945,-372.5 555,-372.5"/>
<text text-anchor="start" x="562" y="-383.9" font-family="Arial" font-size="14.00" fill="#000000">role </text>
<text text-anchor="start" x="589.223" y="-383.9" font-family="Arial" font-size="14.00" fill="#666666">[user_role]</text>
<polygon fill="none" stroke="#000000" points="555,-342.5 555,-372.5 945,-372.5 945,-342.5 555,-342.5"/>
<text text-anchor="start" x="562" y="-353.9" font-family="Arial" font-size="14.00" fill="#000000">avatar </text>
<text text-anchor="start" x="604.7896" y="-353.9" font-family="Arial" font-size="14.00" fill="#666666">[varchar]</text>
<polygon fill="none" stroke="#000000" points="555,-312.5 555,-342.5 945,-342.5 945,-312.5 555,-312.5"/>
<text text-anchor="start" x="562" y="-323.9" font-family="Arial" font-size="14.00" fill="#000000">introduction </text>
<text text-anchor="start" x="638.2412" y="-323.9" font-family="Arial" font-size="14.00" fill="#666666">[varchar(4000)]</text>
<polygon fill="none" stroke="#000000" points="555,-282.5 555,-312.5 945,-312.5 945,-282.5 555,-282.5"/>
<text text-anchor="start" x="562" y="-293.9" font-family="Arial" font-size="14.00" fill="#000000">email_verification_status </text>
<text text-anchor="start" x="719.1332" y="-293.9" font-family="Arial" font-size="14.00" fill="#666666">[email_verification_status]</text>
<polygon fill="none" stroke="#000000" points="555,-252.5 555,-282.5 945,-282.5 945,-252.5 555,-252.5"/>
<text text-anchor="start" x="562" y="-263.9" font-family="Arial" font-size="14.00" fill="#000000">email_verification_pin </text>
<text text-anchor="start" x="700.4586" y="-263.9" font-family="Arial" font-size="14.00" fill="#666666">[varchar]</text>
<polygon fill="none" stroke="#000000" points="555,-222.5 555,-252.5 945,-252.5 945,-222.5 555,-222.5"/>
<text text-anchor="start" x="561.7518" y="-233.9" font-family="Arial" font-size="14.00" fill="#000000">email_verification_pin_expires_at </text>
<text text-anchor="start" x="772.5638" y="-233.9" font-family="Arial" font-size="14.00" fill="#666666">[timestamp with time zone]</text>
<polygon fill="none" stroke="#000000" points="555,-192.5 555,-222.5 945,-222.5 945,-192.5 555,-192.5"/>
<text text-anchor="start" x="562" y="-203.9" font-family="Arial" font-size="14.00" fill="#000000">password_digest </text>
<text text-anchor="start" x="670.9158" y="-203.9" font-family="Arial" font-size="14.00" fill="#666666">[varchar]</text>
<polygon fill="none" stroke="#000000" points="555,-162.5 555,-192.5 945,-192.5 945,-162.5 555,-162.5"/>
<text text-anchor="start" x="562" y="-173.9" font-family="Arial" font-size="14.00" fill="#000000">created_at </text>
<text text-anchor="start" x="632.028" y="-173.9" font-family="Arial" font-size="14.00" fill="#666666">[timestamp with time zone]</text>
<polygon fill="none" stroke="#000000" points="555,-132.5 555,-162.5 945,-162.5 945,-132.5 555,-132.5"/>
<text text-anchor="start" x="562" y="-143.9" font-family="Arial" font-size="14.00" fill="#000000">updated_at </text>
<text text-anchor="start" x="635.9326" y="-143.9" font-family="Arial" font-size="14.00" fill="#666666">[timestamp with time zone]</text>
<polygon fill="none" stroke="#000000" points="555,-102.5 555,-132.5 945,-132.5 945,-102.5 555,-102.5"/>
<text text-anchor="start" x="562" y="-113.9" font-family="Arial" font-size="14.00" fill="#000000">last_sign_in_at </text>
<text text-anchor="start" x="659.2524" y="-113.9" font-family="Arial" font-size="14.00" fill="#666666">[timestamp with time zone]</text>
<polygon fill="none" stroke="#000000" points="555,-72.5 555,-102.5 945,-102.5 945,-72.5 555,-72.5"/>
<text text-anchor="start" x="562" y="-83.9" font-family="Arial" font-size="14.00" fill="#000000">unverified_email </text>
<text text-anchor="start" x="667.7896" y="-83.9" font-family="Arial" font-size="14.00" fill="#666666">[varchar(100)]</text>
</g>
<!-- public.stocks&#45;&gt;public.users -->
<g id="edge2" class="edge">
<title>public.stocks:user_id&#45;&gt;public.users:id</title>
<path fill="none" stroke="#000000" d="M671.1226,-756.4422C710.6885,-747.2715 685.1736,-680.5279 661,-637 634.0557,-588.4829 581.9443,-619.5171 555,-571 534.8243,-534.6709 513.4444,-477.5 555,-477.5"/>
<polygon fill="#000000" stroke="#000000" points="670.9458,-756.4605 660.5322,-753.0244 665.9729,-756.9803 661,-757.5 661,-757.5 661,-757.5 665.9729,-756.9803 661.4678,-761.9756 670.9458,-756.4605 670.9458,-756.4605"/>
<text text-anchor="start" x="668.0535" y="-767.5" font-family="Arial" font-size="10.00" fill="#000000">FOREIGN KEY (user_id) REFERENCES users(id) ON DELETE CASCADE</text>
</g>
</g>
</svg>
