<?xml version="1.0" encoding="UTF-8" standalone="no"?>
<!DOCTYPE svg PUBLIC "-//W3C//DTD SVG 1.1//EN"
 "http://www.w3.org/Graphics/SVG/1.1/DTD/svg11.dtd">
<!-- Generated by graphviz version 2.40.1 (20161225.0304)
 -->
<!-- Title: public.entries Pages: 1 -->
<svg width="934pt" height="772pt"
 viewBox="0.00 0.00 934.00 772.00" xmlns="http://www.w3.org/2000/svg" xmlns:xlink="http://www.w3.org/1999/xlink">
<g id="graph0" class="graph" transform="scale(1 1) rotate(0) translate(4 768)">
<title>public.entries</title>
<polygon fill="#ffffff" stroke="transparent" points="-4,4 -4,-768 930,-768 930,4 -4,4"/>
<!-- public.entries -->
<g id="node1" class="node">
<title>public.entries</title>
<polygon fill="#efefef" stroke="transparent" points="354,-682.5 354,-717.5 571,-717.5 571,-682.5 354,-682.5"/>
<polygon fill="none" stroke="#000000" points="354,-682.5 354,-717.5 571,-717.5 571,-682.5 354,-682.5"/>
<text text-anchor="start" x="360.8649" y="-695.3" font-family="Arial Bold" font-size="18.00" fill="#000000">public.entries</text>
<text text-anchor="start" x="466.8813" y="-695.3" font-family="Arial" font-size="14.00" fill="#000000"> </text>
<text text-anchor="start" x="470.7719" y="-695.3" font-family="Arial" font-size="14.00" fill="#666666">[BASE TABLE]</text>
<polygon fill="none" stroke="#000000" points="354,-652.5 354,-682.5 571,-682.5 571,-652.5 354,-652.5"/>
<text text-anchor="start" x="361" y="-663.9" font-family="Arial" font-size="14.00" fill="#000000">id </text>
<text text-anchor="start" x="375.7798" y="-663.9" font-family="Arial" font-size="14.00" fill="#666666">[varchar]</text>
<polygon fill="none" stroke="#000000" points="354,-622.5 354,-652.5 571,-652.5 571,-622.5 354,-622.5"/>
<text text-anchor="start" x="361" y="-633.9" font-family="Arial" font-size="14.00" fill="#000000">room_id </text>
<text text-anchor="start" x="415.4488" y="-633.9" font-family="Arial" font-size="14.00" fill="#666666">[varchar]</text>
<polygon fill="none" stroke="#000000" points="354,-592.5 354,-622.5 571,-622.5 571,-592.5 354,-592.5"/>
<text text-anchor="start" x="361" y="-603.9" font-family="Arial" font-size="14.00" fill="#000000">user_id </text>
<text text-anchor="start" x="410.7882" y="-603.9" font-family="Arial" font-size="14.00" fill="#666666">[varchar]</text>
<polygon fill="none" stroke="#000000" stroke-width="3" points="352,-591.5 352,-719.5 572,-719.5 572,-591.5 352,-591.5"/>
</g>
<!-- public.rooms -->
<g id="node2" class="node">
<title>public.rooms</title>
<polygon fill="#efefef" stroke="transparent" points="120,-282.5 120,-317.5 373,-317.5 373,-282.5 120,-282.5"/>
<polygon fill="none" stroke="#000000" points="120,-282.5 120,-317.5 373,-317.5 373,-282.5 120,-282.5"/>
<text text-anchor="start" x="146.8701" y="-295.3" font-family="Arial Bold" font-size="18.00" fill="#000000">public.rooms</text>
<text text-anchor="start" x="248.8761" y="-295.3" font-family="Arial" font-size="14.00" fill="#000000"> </text>
<text text-anchor="start" x="252.7667" y="-295.3" font-family="Arial" font-size="14.00" fill="#666666">[BASE TABLE]</text>
<polygon fill="none" stroke="#000000" points="120,-252.5 120,-282.5 373,-282.5 373,-252.5 120,-252.5"/>
<text text-anchor="start" x="127" y="-263.9" font-family="Arial" font-size="14.00" fill="#000000">id </text>
<text text-anchor="start" x="141.7798" y="-263.9" font-family="Arial" font-size="14.00" fill="#666666">[varchar]</text>
<polygon fill="none" stroke="#000000" points="120,-222.5 120,-252.5 373,-252.5 373,-222.5 120,-222.5"/>
<text text-anchor="start" x="127" y="-233.9" font-family="Arial" font-size="14.00" fill="#000000">created_at </text>
<text text-anchor="start" x="197.028" y="-233.9" font-family="Arial" font-size="14.00" fill="#666666">[timestamp with time zone]</text>
<polygon fill="none" stroke="#000000" points="120,-192.5 120,-222.5 373,-222.5 373,-192.5 120,-192.5"/>
<text text-anchor="start" x="126.6915" y="-203.9" font-family="Arial" font-size="14.00" fill="#000000">updated_at </text>
<text text-anchor="start" x="200.6241" y="-203.9" font-family="Arial" font-size="14.00" fill="#666666">[timestamp with time zone]</text>
</g>
<!-- public.entries&#45;&gt;public.rooms -->
<g id="edge1" class="edge">
<title>public.entries:room_id&#45;&gt;public.rooms:id</title>
<path fill="none" stroke="#000000" d="M343.6694,-636.9484C204.7274,-621.0656 533.9627,-267.5 373,-267.5"/>
<polygon fill="#000000" stroke="#000000" points="344.0142,-636.9667 353.76,-641.9936 349.0071,-637.2334 354,-637.5 354,-637.5 354,-637.5 349.0071,-637.2334 354.24,-633.0064 344.0142,-636.9667 344.0142,-636.9667"/>
<text text-anchor="start" x="6.7245" y="-647.5" font-family="Arial" font-size="10.00" fill="#000000">FOREIGN KEY (room_id) REFERENCES rooms(id) ON DELETE CASCADE</text>
</g>
<!-- public.users -->
<g id="node3" class="node">
<title>public.users</title>
<polygon fill="#efefef" stroke="transparent" points="477,-432.5 477,-467.5 883,-467.5 883,-432.5 477,-432.5"/>
<polygon fill="none" stroke="#000000" points="477,-432.5 477,-467.5 883,-467.5 883,-432.5 477,-432.5"/>
<text text-anchor="start" x="583.3662" y="-445.3" font-family="Arial Bold" font-size="18.00" fill="#000000">public.users</text>
<text text-anchor="start" x="679.38" y="-445.3" font-family="Arial" font-size="14.00" fill="#000000"> </text>
<text text-anchor="start" x="683.2706" y="-445.3" font-family="Arial" font-size="14.00" fill="#666666">[BASE TABLE]</text>
<polygon fill="none" stroke="#000000" points="477,-402.5 477,-432.5 883,-432.5 883,-402.5 477,-402.5"/>
<text text-anchor="start" x="484" y="-413.9" font-family="Arial" font-size="14.00" fill="#000000">id </text>
<text text-anchor="start" x="498.7798" y="-413.9" font-family="Arial" font-size="14.00" fill="#666666">[varchar]</text>
<polygon fill="none" stroke="#000000" points="477,-372.5 477,-402.5 883,-402.5 883,-372.5 477,-372.5"/>
<text text-anchor="start" x="484" y="-383.9" font-family="Arial" font-size="14.00" fill="#000000">name </text>
<text text-anchor="start" x="522.899" y="-383.9" font-family="Arial" font-size="14.00" fill="#666666">[varchar(50)]</text>
<polygon fill="none" stroke="#000000" points="477,-342.5 477,-372.5 883,-372.5 883,-342.5 477,-342.5"/>
<text text-anchor="start" x="484" y="-353.9" font-family="Arial" font-size="14.00" fill="#000000">email </text>
<text text-anchor="start" x="521.3296" y="-353.9" font-family="Arial" font-size="14.00" fill="#666666">[varchar(100)]</text>
<polygon fill="none" stroke="#000000" points="477,-312.5 477,-342.5 883,-342.5 883,-312.5 477,-312.5"/>
<text text-anchor="start" x="484" y="-323.9" font-family="Arial" font-size="14.00" fill="#000000">role </text>
<text text-anchor="start" x="511.223" y="-323.9" font-family="Arial" font-size="14.00" fill="#666666">[varchar]</text>
<polygon fill="none" stroke="#000000" points="477,-282.5 477,-312.5 883,-312.5 883,-282.5 477,-282.5"/>
<text text-anchor="start" x="484" y="-293.9" font-family="Arial" font-size="14.00" fill="#000000">avatar </text>
<text text-anchor="start" x="526.7896" y="-293.9" font-family="Arial" font-size="14.00" fill="#666666">[varchar]</text>
<polygon fill="none" stroke="#000000" points="477,-252.5 477,-282.5 883,-282.5 883,-252.5 477,-252.5"/>
<text text-anchor="start" x="484" y="-263.9" font-family="Arial" font-size="14.00" fill="#000000">introduction </text>
<text text-anchor="start" x="560.2412" y="-263.9" font-family="Arial" font-size="14.00" fill="#666666">[varchar(4000)]</text>
<polygon fill="none" stroke="#000000" points="477,-222.5 477,-252.5 883,-252.5 883,-222.5 477,-222.5"/>
<text text-anchor="start" x="484" y="-233.9" font-family="Arial" font-size="14.00" fill="#000000">email_verification_status </text>
<text text-anchor="start" x="641.1332" y="-233.9" font-family="Arial" font-size="14.00" fill="#666666">[varchar]</text>
<polygon fill="none" stroke="#000000" points="477,-192.5 477,-222.5 883,-222.5 883,-192.5 477,-192.5"/>
<text text-anchor="start" x="484" y="-203.9" font-family="Arial" font-size="14.00" fill="#000000">email_verification_token </text>
<text text-anchor="start" x="638.0252" y="-203.9" font-family="Arial" font-size="14.00" fill="#666666">[varchar]</text>
<polygon fill="none" stroke="#000000" points="477,-162.5 477,-192.5 883,-192.5 883,-162.5 477,-162.5"/>
<text text-anchor="start" x="483.9685" y="-173.9" font-family="Arial" font-size="14.00" fill="#000000">email_verification_token_expires_at </text>
<text text-anchor="start" x="710.3471" y="-173.9" font-family="Arial" font-size="14.00" fill="#666666">[timestamp with time zone]</text>
<polygon fill="none" stroke="#000000" points="477,-132.5 477,-162.5 883,-162.5 883,-132.5 477,-132.5"/>
<text text-anchor="start" x="484" y="-143.9" font-family="Arial" font-size="14.00" fill="#000000">password_digest </text>
<text text-anchor="start" x="592.9158" y="-143.9" font-family="Arial" font-size="14.00" fill="#666666">[varchar]</text>
<polygon fill="none" stroke="#000000" points="477,-102.5 477,-132.5 883,-132.5 883,-102.5 477,-102.5"/>
<text text-anchor="start" x="484" y="-113.9" font-family="Arial" font-size="14.00" fill="#000000">created_at </text>
<text text-anchor="start" x="554.028" y="-113.9" font-family="Arial" font-size="14.00" fill="#666666">[timestamp with time zone]</text>
<polygon fill="none" stroke="#000000" points="477,-72.5 477,-102.5 883,-102.5 883,-72.5 477,-72.5"/>
<text text-anchor="start" x="484" y="-83.9" font-family="Arial" font-size="14.00" fill="#000000">updated_at </text>
<text text-anchor="start" x="557.9326" y="-83.9" font-family="Arial" font-size="14.00" fill="#666666">[timestamp with time zone]</text>
<polygon fill="none" stroke="#000000" points="477,-42.5 477,-72.5 883,-72.5 883,-42.5 477,-42.5"/>
<text text-anchor="start" x="484" y="-53.9" font-family="Arial" font-size="14.00" fill="#000000">last_sign_in_at </text>
<text text-anchor="start" x="581.2524" y="-53.9" font-family="Arial" font-size="14.00" fill="#666666">[timestamp with time zone]</text>
</g>
<!-- public.entries&#45;&gt;public.users -->
<g id="edge2" class="edge">
<title>public.entries:user_id&#45;&gt;public.users:id</title>
<path fill="none" stroke="#000000" d="M580.9148,-604.8995C594.1606,-595.9122 583.8576,-565.6924 571,-547 545.6466,-510.141 502.3534,-547.859 477,-511 453.4495,-476.7621 435.4444,-417.5 477,-417.5"/>
<polygon fill="#000000" stroke="#000000" points="580.6728,-604.9629 569.8583,-603.1472 575.8364,-606.2314 571,-607.5 571,-607.5 571,-607.5 575.8364,-606.2314 572.1417,-611.8528 580.6728,-604.9629 580.6728,-604.9629"/>
<text text-anchor="start" x="578.329" y="-617.5" font-family="Arial" font-size="10.00" fill="#000000">FOREIGN KEY (user_id) REFERENCES users(id) ON DELETE SET NULL</text>
</g>
</g>
</svg>
