<?xml version="1.0" encoding="UTF-8" standalone="no"?>
<!DOCTYPE svg PUBLIC "-//W3C//DTD SVG 1.1//EN"
 "http://www.w3.org/Graphics/SVG/1.1/DTD/svg11.dtd">
<!-- Generated by graphviz version 2.40.1 (20161225.0304)
 -->
<!-- Title: public.relationships Pages: 1 -->
<svg width="743pt" height="862pt"
 viewBox="0.00 0.00 743.00 862.00" xmlns="http://www.w3.org/2000/svg" xmlns:xlink="http://www.w3.org/1999/xlink">
<g id="graph0" class="graph" transform="scale(1 1) rotate(0) translate(4 858)">
<title>public.relationships</title>
<polygon fill="#ffffff" stroke="transparent" points="-4,4 -4,-858 739,-858 739,4 -4,4"/>
<!-- public.relationships -->
<g id="node1" class="node">
<title>public.relationships</title>
<polygon fill="#efefef" stroke="transparent" points="106,-772.5 106,-807.5 370,-807.5 370,-772.5 106,-772.5"/>
<polygon fill="none" stroke="#000000" points="106,-772.5 106,-807.5 370,-807.5 370,-772.5 106,-772.5"/>
<text text-anchor="start" x="112.8614" y="-785.3" font-family="Arial Bold" font-size="18.00" fill="#000000">public.relationships</text>
<text text-anchor="start" x="265.8848" y="-785.3" font-family="Arial" font-size="14.00" fill="#000000"> </text>
<text text-anchor="start" x="269.7754" y="-785.3" font-family="Arial" font-size="14.00" fill="#666666">[BASE TABLE]</text>
<polygon fill="none" stroke="#000000" points="106,-742.5 106,-772.5 370,-772.5 370,-742.5 106,-742.5"/>
<text text-anchor="start" x="113" y="-753.9" font-family="Arial" font-size="14.00" fill="#000000">id </text>
<text text-anchor="start" x="127.7798" y="-753.9" font-family="Arial" font-size="14.00" fill="#666666">[bigint]</text>
<polygon fill="none" stroke="#000000" points="106,-712.5 106,-742.5 370,-742.5 370,-712.5 106,-712.5"/>
<text text-anchor="start" x="113" y="-723.9" font-family="Arial" font-size="14.00" fill="#000000">follower_id </text>
<text text-anchor="start" x="183.7812" y="-723.9" font-family="Arial" font-size="14.00" fill="#666666">[bigint]</text>
<polygon fill="none" stroke="#000000" points="106,-682.5 106,-712.5 370,-712.5 370,-682.5 106,-682.5"/>
<text text-anchor="start" x="113" y="-693.9" font-family="Arial" font-size="14.00" fill="#000000">followed_id </text>
<text text-anchor="start" x="186.9032" y="-693.9" font-family="Arial" font-size="14.00" fill="#666666">[bigint]</text>
<polygon fill="none" stroke="#000000" points="106,-652.5 106,-682.5 370,-682.5 370,-652.5 106,-652.5"/>
<text text-anchor="start" x="113" y="-663.9" font-family="Arial" font-size="14.00" fill="#000000">created_at </text>
<text text-anchor="start" x="183.028" y="-663.9" font-family="Arial" font-size="14.00" fill="#666666">[timestamp with time zone]</text>
<polygon fill="none" stroke="#000000" points="106,-622.5 106,-652.5 370,-652.5 370,-622.5 106,-622.5"/>
<text text-anchor="start" x="113" y="-633.9" font-family="Arial" font-size="14.00" fill="#000000">updated_at </text>
<text text-anchor="start" x="186.9326" y="-633.9" font-family="Arial" font-size="14.00" fill="#666666">[timestamp with time zone]</text>
<polygon fill="none" stroke="#000000" stroke-width="3" points="104.5,-621.5 104.5,-809.5 371.5,-809.5 371.5,-621.5 104.5,-621.5"/>
</g>
<!-- public.users -->
<g id="node2" class="node">
<title>public.users</title>
<polygon fill="#efefef" stroke="transparent" points="43,-462.5 43,-497.5 433,-497.5 433,-462.5 43,-462.5"/>
<polygon fill="none" stroke="#000000" points="43,-462.5 43,-497.5 433,-497.5 433,-462.5 43,-462.5"/>
<text text-anchor="start" x="141.3662" y="-475.3" font-family="Arial Bold" font-size="18.00" fill="#000000">public.users</text>
<text text-anchor="start" x="237.38" y="-475.3" font-family="Arial" font-size="14.00" fill="#000000"> </text>
<text text-anchor="start" x="241.2706" y="-475.3" font-family="Arial" font-size="14.00" fill="#666666">[BASE TABLE]</text>
<polygon fill="none" stroke="#000000" points="43,-432.5 43,-462.5 433,-462.5 433,-432.5 43,-432.5"/>
<text text-anchor="start" x="50" y="-443.9" font-family="Arial" font-size="14.00" fill="#000000">id </text>
<text text-anchor="start" x="64.7798" y="-443.9" font-family="Arial" font-size="14.00" fill="#666666">[bigint]</text>
<polygon fill="none" stroke="#000000" points="43,-402.5 43,-432.5 433,-432.5 433,-402.5 43,-402.5"/>
<text text-anchor="start" x="50" y="-413.9" font-family="Arial" font-size="14.00" fill="#000000">name </text>
<text text-anchor="start" x="88.899" y="-413.9" font-family="Arial" font-size="14.00" fill="#666666">[varchar(50)]</text>
<polygon fill="none" stroke="#000000" points="43,-372.5 43,-402.5 433,-402.5 433,-372.5 43,-372.5"/>
<text text-anchor="start" x="50" y="-383.9" font-family="Arial" font-size="14.00" fill="#000000">email </text>
<text text-anchor="start" x="87.3296" y="-383.9" font-family="Arial" font-size="14.00" fill="#666666">[varchar(100)]</text>
<polygon fill="none" stroke="#000000" points="43,-342.5 43,-372.5 433,-372.5 433,-342.5 43,-342.5"/>
<text text-anchor="start" x="50" y="-353.9" font-family="Arial" font-size="14.00" fill="#000000">role </text>
<text text-anchor="start" x="77.223" y="-353.9" font-family="Arial" font-size="14.00" fill="#666666">[user_role]</text>
<polygon fill="none" stroke="#000000" points="43,-312.5 43,-342.5 433,-342.5 433,-312.5 43,-312.5"/>
<text text-anchor="start" x="50" y="-323.9" font-family="Arial" font-size="14.00" fill="#000000">avatar </text>
<text text-anchor="start" x="92.7896" y="-323.9" font-family="Arial" font-size="14.00" fill="#666666">[varchar]</text>
<polygon fill="none" stroke="#000000" points="43,-282.5 43,-312.5 433,-312.5 433,-282.5 43,-282.5"/>
<text text-anchor="start" x="50" y="-293.9" font-family="Arial" font-size="14.00" fill="#000000">introduction </text>
<text text-anchor="start" x="126.2412" y="-293.9" font-family="Arial" font-size="14.00" fill="#666666">[varchar(4000)]</text>
<polygon fill="none" stroke="#000000" points="43,-252.5 43,-282.5 433,-282.5 433,-252.5 43,-252.5"/>
<text text-anchor="start" x="50" y="-263.9" font-family="Arial" font-size="14.00" fill="#000000">email_verification_status </text>
<text text-anchor="start" x="207.1332" y="-263.9" font-family="Arial" font-size="14.00" fill="#666666">[email_verification_status]</text>
<polygon fill="none" stroke="#000000" points="43,-222.5 43,-252.5 433,-252.5 433,-222.5 43,-222.5"/>
<text text-anchor="start" x="50" y="-233.9" font-family="Arial" font-size="14.00" fill="#000000">email_verification_pin </text>
<text text-anchor="start" x="188.4586" y="-233.9" font-family="Arial" font-size="14.00" fill="#666666">[varchar]</text>
<polygon fill="none" stroke="#000000" points="43,-192.5 43,-222.5 433,-222.5 433,-192.5 43,-192.5"/>
<text text-anchor="start" x="49.7518" y="-203.9" font-family="Arial" font-size="14.00" fill="#000000">email_verification_pin_expires_at </text>
<text text-anchor="start" x="260.5638" y="-203.9" font-family="Arial" font-size="14.00" fill="#666666">[timestamp with time zone]</text>
<polygon fill="none" stroke="#000000" points="43,-162.5 43,-192.5 433,-192.5 433,-162.5 43,-162.5"/>
<text text-anchor="start" x="50" y="-173.9" font-family="Arial" font-size="14.00" fill="#000000">password_digest </text>
<text text-anchor="start" x="158.9158" y="-173.9" font-family="Arial" font-size="14.00" fill="#666666">[varchar]</text>
<polygon fill="none" stroke="#000000" points="43,-132.5 43,-162.5 433,-162.5 433,-132.5 43,-132.5"/>
<text text-anchor="start" x="50" y="-143.9" font-family="Arial" font-size="14.00" fill="#000000">created_at </text>
<text text-anchor="start" x="120.028" y="-143.9" font-family="Arial" font-size="14.00" fill="#666666">[timestamp with time zone]</text>
<polygon fill="none" stroke="#000000" points="43,-102.5 43,-132.5 433,-132.5 433,-102.5 43,-102.5"/>
<text text-anchor="start" x="50" y="-113.9" font-family="Arial" font-size="14.00" fill="#000000">updated_at </text>
<text text-anchor="start" x="123.9326" y="-113.9" font-family="Arial" font-size="14.00" fill="#666666">[timestamp with time zone]</text>
<polygon fill="none" stroke="#000000" points="43,-72.5 43,-102.5 433,-102.5 433,-72.5 43,-72.5"/>
<text text-anchor="start" x="50" y="-83.9" font-family="Arial" font-size="14.00" fill="#000000">last_sign_in_at </text>
<text text-anchor="start" x="147.2524" y="-83.9" font-family="Arial" font-size="14.00" fill="#666666">[timestamp with time zone]</text>
<polygon fill="none" stroke="#000000" points="43,-42.5 43,-72.5 433,-72.5 433,-42.5 43,-42.5"/>
<text text-anchor="start" x="50" y="-53.9" font-family="Arial" font-size="14.00" fill="#000000">unverified_email </text>
<text text-anchor="start" x="155.7896" y="-53.9" font-family="Arial" font-size="14.00" fill="#666666">[varchar(100)]</text>
</g>
<!-- public.relationships&#45;&gt;public.users -->
<g id="edge1" class="edge">
<title>public.relationships:follower_id&#45;&gt;public.users:id</title>
<path fill="none" stroke="#000000" d="M380.0649,-725.2462C440.0698,-698.7474 493.4145,-447.5 433,-447.5"/>
<polygon fill="#000000" stroke="#000000" points="379.7583,-725.3147 369.0166,-723.1088 374.8792,-726.4074 370,-727.5 370,-727.5 370,-727.5 374.8792,-726.4074 370.9834,-731.8912 379.7583,-725.3147 379.7583,-725.3147"/>
<text text-anchor="start" x="376.556" y="-737.5" font-family="Arial" font-size="10.00" fill="#000000">FOREIGN KEY (follower_id) REFERENCES users(id) ON DELETE CASCADE</text>
</g>
<!-- public.relationships&#45;&gt;public.users -->
<g id="edge2" class="edge">
<title>public.relationships:followed_id&#45;&gt;public.users:id</title>
<path fill="none" stroke="#000000" d="M379.7673,-695.1847C434.0432,-669.9817 487.0473,-447.5 433,-447.5"/>
<polygon fill="#000000" stroke="#000000" points="379.7304,-695.1934 368.962,-693.1213 374.8652,-696.3467 370,-697.5 370,-697.5 370,-697.5 374.8652,-696.3467 371.038,-701.8787 379.7304,-695.1934 379.7304,-695.1934"/>
<text text-anchor="start" x="377.441" y="-707.5" font-family="Arial" font-size="10.00" fill="#000000">FOREIGN KEY (followed_id) REFERENCES users(id) ON DELETE CASCADE</text>
</g>
</g>
</svg>
