<?xml version="1.0" encoding="UTF-8" standalone="no"?>
<!DOCTYPE svg PUBLIC "-//W3C//DTD SVG 1.1//EN"
 "http://www.w3.org/Graphics/SVG/1.1/DTD/svg11.dtd">
<!-- Generated by graphviz version 2.40.1 (20161225.0304)
 -->
<!-- Title: public.room_read_managements Pages: 1 -->
<svg width="1083pt" height="892pt"
 viewBox="0.00 0.00 1083.00 892.00" xmlns="http://www.w3.org/2000/svg" xmlns:xlink="http://www.w3.org/1999/xlink">
<g id="graph0" class="graph" transform="scale(1 1) rotate(0) translate(4 888)">
<title>public.room_read_managements</title>
<polygon fill="#ffffff" stroke="transparent" points="-4,4 -4,-888 1079,-888 1079,4 -4,4"/>
<!-- public.room_read_managements -->
<g id="node1" class="node">
<title>public.room_read_managements</title>
<polygon fill="#efefef" stroke="transparent" points="354,-802.5 354,-837.5 728,-837.5 728,-802.5 354,-802.5"/>
<polygon fill="none" stroke="#000000" points="354,-802.5 354,-837.5 728,-837.5 728,-802.5 354,-802.5"/>
<text text-anchor="start" x="360.8435" y="-815.3" font-family="Arial Bold" font-size="18.00" fill="#000000">public.room_read_managements</text>
<text text-anchor="start" x="623.9027" y="-815.3" font-family="Arial" font-size="14.00" fill="#000000"> </text>
<text text-anchor="start" x="627.7933" y="-815.3" font-family="Arial" font-size="14.00" fill="#666666">[BASE TABLE]</text>
<polygon fill="none" stroke="#000000" points="354,-772.5 354,-802.5 728,-802.5 728,-772.5 354,-772.5"/>
<text text-anchor="start" x="361" y="-783.9" font-family="Arial" font-size="14.00" fill="#000000">id </text>
<text text-anchor="start" x="375.7798" y="-783.9" font-family="Arial" font-size="14.00" fill="#666666">[bigint]</text>
<polygon fill="none" stroke="#000000" points="354,-742.5 354,-772.5 728,-772.5 728,-742.5 354,-742.5"/>
<text text-anchor="start" x="361" y="-753.9" font-family="Arial" font-size="14.00" fill="#000000">last_read_at </text>
<text text-anchor="start" x="441.9172" y="-753.9" font-family="Arial" font-size="14.00" fill="#666666">[timestamp with time zone]</text>
<polygon fill="none" stroke="#000000" points="354,-712.5 354,-742.5 728,-742.5 728,-712.5 354,-712.5"/>
<text text-anchor="start" x="361" y="-723.9" font-family="Arial" font-size="14.00" fill="#000000">room_id </text>
<text text-anchor="start" x="415.4488" y="-723.9" font-family="Arial" font-size="14.00" fill="#666666">[bigint]</text>
<polygon fill="none" stroke="#000000" points="354,-682.5 354,-712.5 728,-712.5 728,-682.5 354,-682.5"/>
<text text-anchor="start" x="361" y="-693.9" font-family="Arial" font-size="14.00" fill="#000000">user_id </text>
<text text-anchor="start" x="410.7882" y="-693.9" font-family="Arial" font-size="14.00" fill="#666666">[bigint]</text>
<polygon fill="none" stroke="#000000" points="354,-652.5 354,-682.5 728,-682.5 728,-652.5 354,-652.5"/>
<text text-anchor="start" x="361" y="-663.9" font-family="Arial" font-size="14.00" fill="#000000">created_at </text>
<text text-anchor="start" x="431.028" y="-663.9" font-family="Arial" font-size="14.00" fill="#666666">[timestamp with time zone]</text>
<polygon fill="none" stroke="#000000" points="354,-622.5 354,-652.5 728,-652.5 728,-622.5 354,-622.5"/>
<text text-anchor="start" x="361" y="-633.9" font-family="Arial" font-size="14.00" fill="#000000">updated_at </text>
<text text-anchor="start" x="434.9326" y="-633.9" font-family="Arial" font-size="14.00" fill="#666666">[timestamp with time zone]</text>
<polygon fill="none" stroke="#000000" stroke-width="3" points="352.5,-621.5 352.5,-839.5 729.5,-839.5 729.5,-621.5 352.5,-621.5"/>
</g>
<!-- public.rooms -->
<g id="node2" class="node">
<title>public.rooms</title>
<polygon fill="#efefef" stroke="transparent" points="202,-297.5 202,-332.5 455,-332.5 455,-297.5 202,-297.5"/>
<polygon fill="none" stroke="#000000" points="202,-297.5 202,-332.5 455,-332.5 455,-297.5 202,-297.5"/>
<text text-anchor="start" x="228.8701" y="-310.3" font-family="Arial Bold" font-size="18.00" fill="#000000">public.rooms</text>
<text text-anchor="start" x="330.8761" y="-310.3" font-family="Arial" font-size="14.00" fill="#000000"> </text>
<text text-anchor="start" x="334.7667" y="-310.3" font-family="Arial" font-size="14.00" fill="#666666">[BASE TABLE]</text>
<polygon fill="none" stroke="#000000" points="202,-267.5 202,-297.5 455,-297.5 455,-267.5 202,-267.5"/>
<text text-anchor="start" x="209" y="-278.9" font-family="Arial" font-size="14.00" fill="#000000">id </text>
<text text-anchor="start" x="223.7798" y="-278.9" font-family="Arial" font-size="14.00" fill="#666666">[bigint]</text>
<polygon fill="none" stroke="#000000" points="202,-237.5 202,-267.5 455,-267.5 455,-237.5 202,-237.5"/>
<text text-anchor="start" x="209" y="-248.9" font-family="Arial" font-size="14.00" fill="#000000">created_at </text>
<text text-anchor="start" x="279.028" y="-248.9" font-family="Arial" font-size="14.00" fill="#666666">[timestamp with time zone]</text>
<polygon fill="none" stroke="#000000" points="202,-207.5 202,-237.5 455,-237.5 455,-207.5 202,-207.5"/>
<text text-anchor="start" x="208.6915" y="-218.9" font-family="Arial" font-size="14.00" fill="#000000">updated_at </text>
<text text-anchor="start" x="282.6241" y="-218.9" font-family="Arial" font-size="14.00" fill="#666666">[timestamp with time zone]</text>
</g>
<!-- public.room_read_managements&#45;&gt;public.rooms -->
<g id="edge1" class="edge">
<title>public.room_read_managements:room_id&#45;&gt;public.rooms:id</title>
<path fill="none" stroke="#000000" d="M343.7451,-726.6971C292.8246,-717.8892 339.4415,-638.3978 354,-577 377.0668,-479.7201 431.9332,-473.2799 455,-376 464.5877,-335.5656 496.5556,-282.5 455,-282.5"/>
<polygon fill="#000000" stroke="#000000" points="344.0305,-726.7194 353.6487,-731.9863 349.0153,-727.1097 354,-727.5 354,-727.5 354,-727.5 349.0153,-727.1097 354.3513,-723.0137 344.0305,-726.7194 344.0305,-726.7194"/>
<text text-anchor="start" x="6.7245" y="-737.5" font-family="Arial" font-size="10.00" fill="#000000">FOREIGN KEY (room_id) REFERENCES rooms(id) ON DELETE CASCADE</text>
</g>
<!-- public.users -->
<g id="node3" class="node">
<title>public.users</title>
<polygon fill="#efefef" stroke="transparent" points="559,-462.5 559,-497.5 949,-497.5 949,-462.5 559,-462.5"/>
<polygon fill="none" stroke="#000000" points="559,-462.5 559,-497.5 949,-497.5 949,-462.5 559,-462.5"/>
<text text-anchor="start" x="657.3662" y="-475.3" font-family="Arial Bold" font-size="18.00" fill="#000000">public.users</text>
<text text-anchor="start" x="753.38" y="-475.3" font-family="Arial" font-size="14.00" fill="#000000"> </text>
<text text-anchor="start" x="757.2706" y="-475.3" font-family="Arial" font-size="14.00" fill="#666666">[BASE TABLE]</text>
<polygon fill="none" stroke="#000000" points="559,-432.5 559,-462.5 949,-462.5 949,-432.5 559,-432.5"/>
<text text-anchor="start" x="566" y="-443.9" font-family="Arial" font-size="14.00" fill="#000000">id </text>
<text text-anchor="start" x="580.7798" y="-443.9" font-family="Arial" font-size="14.00" fill="#666666">[bigint]</text>
<polygon fill="none" stroke="#000000" points="559,-402.5 559,-432.5 949,-432.5 949,-402.5 559,-402.5"/>
<text text-anchor="start" x="566" y="-413.9" font-family="Arial" font-size="14.00" fill="#000000">name </text>
<text text-anchor="start" x="604.899" y="-413.9" font-family="Arial" font-size="14.00" fill="#666666">[varchar(50)]</text>
<polygon fill="none" stroke="#000000" points="559,-372.5 559,-402.5 949,-402.5 949,-372.5 559,-372.5"/>
<text text-anchor="start" x="566" y="-383.9" font-family="Arial" font-size="14.00" fill="#000000">email </text>
<text text-anchor="start" x="603.3296" y="-383.9" font-family="Arial" font-size="14.00" fill="#666666">[varchar(100)]</text>
<polygon fill="none" stroke="#000000" points="559,-342.5 559,-372.5 949,-372.5 949,-342.5 559,-342.5"/>
<text text-anchor="start" x="566" y="-353.9" font-family="Arial" font-size="14.00" fill="#000000">role </text>
<text text-anchor="start" x="593.223" y="-353.9" font-family="Arial" font-size="14.00" fill="#666666">[user_role]</text>
<polygon fill="none" stroke="#000000" points="559,-312.5 559,-342.5 949,-342.5 949,-312.5 559,-312.5"/>
<text text-anchor="start" x="566" y="-323.9" font-family="Arial" font-size="14.00" fill="#000000">avatar </text>
<text text-anchor="start" x="608.7896" y="-323.9" font-family="Arial" font-size="14.00" fill="#666666">[varchar]</text>
<polygon fill="none" stroke="#000000" points="559,-282.5 559,-312.5 949,-312.5 949,-282.5 559,-282.5"/>
<text text-anchor="start" x="566" y="-293.9" font-family="Arial" font-size="14.00" fill="#000000">introduction </text>
<text text-anchor="start" x="642.2412" y="-293.9" font-family="Arial" font-size="14.00" fill="#666666">[varchar(4000)]</text>
<polygon fill="none" stroke="#000000" points="559,-252.5 559,-282.5 949,-282.5 949,-252.5 559,-252.5"/>
<text text-anchor="start" x="566" y="-263.9" font-family="Arial" font-size="14.00" fill="#000000">email_verification_status </text>
<text text-anchor="start" x="723.1332" y="-263.9" font-family="Arial" font-size="14.00" fill="#666666">[email_verification_status]</text>
<polygon fill="none" stroke="#000000" points="559,-222.5 559,-252.5 949,-252.5 949,-222.5 559,-222.5"/>
<text text-anchor="start" x="566" y="-233.9" font-family="Arial" font-size="14.00" fill="#000000">email_verification_pin </text>
<text text-anchor="start" x="704.4586" y="-233.9" font-family="Arial" font-size="14.00" fill="#666666">[varchar]</text>
<polygon fill="none" stroke="#000000" points="559,-192.5 559,-222.5 949,-222.5 949,-192.5 559,-192.5"/>
<text text-anchor="start" x="565.7518" y="-203.9" font-family="Arial" font-size="14.00" fill="#000000">email_verification_pin_expires_at </text>
<text text-anchor="start" x="776.5638" y="-203.9" font-family="Arial" font-size="14.00" fill="#666666">[timestamp with time zone]</text>
<polygon fill="none" stroke="#000000" points="559,-162.5 559,-192.5 949,-192.5 949,-162.5 559,-162.5"/>
<text text-anchor="start" x="566" y="-173.9" font-family="Arial" font-size="14.00" fill="#000000">password_digest </text>
<text text-anchor="start" x="674.9158" y="-173.9" font-family="Arial" font-size="14.00" fill="#666666">[varchar]</text>
<polygon fill="none" stroke="#000000" points="559,-132.5 559,-162.5 949,-162.5 949,-132.5 559,-132.5"/>
<text text-anchor="start" x="566" y="-143.9" font-family="Arial" font-size="14.00" fill="#000000">created_at </text>
<text text-anchor="start" x="636.028" y="-143.9" font-family="Arial" font-size="14.00" fill="#666666">[timestamp with time zone]</text>
<polygon fill="none" stroke="#000000" points="559,-102.5 559,-132.5 949,-132.5 949,-102.5 559,-102.5"/>
<text text-anchor="start" x="566" y="-113.9" font-family="Arial" font-size="14.00" fill="#000000">updated_at </text>
<text text-anchor="start" x="639.9326" y="-113.9" font-family="Arial" font-size="14.00" fill="#666666">[timestamp with time zone]</text>
<polygon fill="none" stroke="#000000" points="559,-72.5 559,-102.5 949,-102.5 949,-72.5 559,-72.5"/>
<text text-anchor="start" x="566" y="-83.9" font-family="Arial" font-size="14.00" fill="#000000">last_sign_in_at </text>
<text text-anchor="start" x="663.2524" y="-83.9" font-family="Arial" font-size="14.00" fill="#666666">[timestamp with time zone]</text>
<polygon fill="none" stroke="#000000" points="559,-42.5 559,-72.5 949,-72.5 949,-42.5 559,-42.5"/>
<text text-anchor="start" x="566" y="-53.9" font-family="Arial" font-size="14.00" fill="#000000">unverified_email </text>
<text text-anchor="start" x="671.7896" y="-53.9" font-family="Arial" font-size="14.00" fill="#666666">[varchar(100)]</text>
</g>
<!-- public.room_read_managements&#45;&gt;public.users -->
<g id="edge2" class="edge">
<title>public.room_read_managements:user_id&#45;&gt;public.users:id</title>
<path fill="none" stroke="#000000" d="M737.9729,-696.4314C778.7755,-686.8907 759.3911,-615.7823 728,-577 679.6837,-517.3074 607.3163,-600.6926 559,-541 532.8554,-508.6995 517.4444,-447.5 559,-447.5"/>
<polygon fill="#000000" stroke="#000000" points="737.9431,-696.4345 727.5205,-693.0256 732.9715,-696.9672 728,-697.5 728,-697.5 728,-697.5 732.9715,-696.9672 728.4795,-701.9744 737.9431,-696.4345 737.9431,-696.4345"/>
<text text-anchor="start" x="735.329" y="-707.5" font-family="Arial" font-size="10.00" fill="#000000">FOREIGN KEY (user_id) REFERENCES users(id) ON DELETE SET NULL</text>
</g>
</g>
</svg>
