<?xml version="1.0" encoding="UTF-8" standalone="no"?>
<!DOCTYPE svg PUBLIC "-//W3C//DTD SVG 1.1//EN"
 "http://www.w3.org/Graphics/SVG/1.1/DTD/svg11.dtd">
<!-- Generated by graphviz version 2.40.1 (20161225.0304)
 -->
<!-- Title: public.users Pages: 1 -->
<svg width="2261pt" height="1162pt"
 viewBox="0.00 0.00 2261.00 1162.00" xmlns="http://www.w3.org/2000/svg" xmlns:xlink="http://www.w3.org/1999/xlink">
<g id="graph0" class="graph" transform="scale(1 1) rotate(0) translate(4 1158)">
<title>public.users</title>
<polygon fill="#ffffff" stroke="transparent" points="-4,4 -4,-1158 2257,-1158 2257,4 -4,4"/>
<!-- public.users -->
<g id="node1" class="node">
<title>public.users</title>
<polygon fill="#efefef" stroke="transparent" points="733,-435.5 733,-470.5 1139,-470.5 1139,-435.5 733,-435.5"/>
<polygon fill="none" stroke="#000000" points="733,-435.5 733,-470.5 1139,-470.5 1139,-435.5 733,-435.5"/>
<text text-anchor="start" x="839.3662" y="-448.3" font-family="Arial Bold" font-size="18.00" fill="#000000">public.users</text>
<text text-anchor="start" x="935.38" y="-448.3" font-family="Arial" font-size="14.00" fill="#000000"> </text>
<text text-anchor="start" x="939.2706" y="-448.3" font-family="Arial" font-size="14.00" fill="#666666">[BASE TABLE]</text>
<polygon fill="none" stroke="#000000" points="733,-405.5 733,-435.5 1139,-435.5 1139,-405.5 733,-405.5"/>
<text text-anchor="start" x="740" y="-416.9" font-family="Arial" font-size="14.00" fill="#000000">id </text>
<text text-anchor="start" x="754.7798" y="-416.9" font-family="Arial" font-size="14.00" fill="#666666">[varchar]</text>
<polygon fill="none" stroke="#000000" points="733,-375.5 733,-405.5 1139,-405.5 1139,-375.5 733,-375.5"/>
<text text-anchor="start" x="740" y="-386.9" font-family="Arial" font-size="14.00" fill="#000000">name </text>
<text text-anchor="start" x="778.899" y="-386.9" font-family="Arial" font-size="14.00" fill="#666666">[varchar(50)]</text>
<polygon fill="none" stroke="#000000" points="733,-345.5 733,-375.5 1139,-375.5 1139,-345.5 733,-345.5"/>
<text text-anchor="start" x="740" y="-356.9" font-family="Arial" font-size="14.00" fill="#000000">email </text>
<text text-anchor="start" x="777.3296" y="-356.9" font-family="Arial" font-size="14.00" fill="#666666">[varchar(100)]</text>
<polygon fill="none" stroke="#000000" points="733,-315.5 733,-345.5 1139,-345.5 1139,-315.5 733,-315.5"/>
<text text-anchor="start" x="740" y="-326.9" font-family="Arial" font-size="14.00" fill="#000000">role </text>
<text text-anchor="start" x="767.223" y="-326.9" font-family="Arial" font-size="14.00" fill="#666666">[varchar]</text>
<polygon fill="none" stroke="#000000" points="733,-285.5 733,-315.5 1139,-315.5 1139,-285.5 733,-285.5"/>
<text text-anchor="start" x="740" y="-296.9" font-family="Arial" font-size="14.00" fill="#000000">avatar </text>
<text text-anchor="start" x="782.7896" y="-296.9" font-family="Arial" font-size="14.00" fill="#666666">[varchar]</text>
<polygon fill="none" stroke="#000000" points="733,-255.5 733,-285.5 1139,-285.5 1139,-255.5 733,-255.5"/>
<text text-anchor="start" x="740" y="-266.9" font-family="Arial" font-size="14.00" fill="#000000">introduction </text>
<text text-anchor="start" x="816.2412" y="-266.9" font-family="Arial" font-size="14.00" fill="#666666">[varchar(4000)]</text>
<polygon fill="none" stroke="#000000" points="733,-225.5 733,-255.5 1139,-255.5 1139,-225.5 733,-225.5"/>
<text text-anchor="start" x="740" y="-236.9" font-family="Arial" font-size="14.00" fill="#000000">email_verification_status </text>
<text text-anchor="start" x="897.1332" y="-236.9" font-family="Arial" font-size="14.00" fill="#666666">[varchar]</text>
<polygon fill="none" stroke="#000000" points="733,-195.5 733,-225.5 1139,-225.5 1139,-195.5 733,-195.5"/>
<text text-anchor="start" x="740" y="-206.9" font-family="Arial" font-size="14.00" fill="#000000">email_verification_token </text>
<text text-anchor="start" x="894.0252" y="-206.9" font-family="Arial" font-size="14.00" fill="#666666">[varchar]</text>
<polygon fill="none" stroke="#000000" points="733,-165.5 733,-195.5 1139,-195.5 1139,-165.5 733,-165.5"/>
<text text-anchor="start" x="739.9685" y="-176.9" font-family="Arial" font-size="14.00" fill="#000000">email_verification_token_expires_at </text>
<text text-anchor="start" x="966.3471" y="-176.9" font-family="Arial" font-size="14.00" fill="#666666">[timestamp with time zone]</text>
<polygon fill="none" stroke="#000000" points="733,-135.5 733,-165.5 1139,-165.5 1139,-135.5 733,-135.5"/>
<text text-anchor="start" x="740" y="-146.9" font-family="Arial" font-size="14.00" fill="#000000">password_digest </text>
<text text-anchor="start" x="848.9158" y="-146.9" font-family="Arial" font-size="14.00" fill="#666666">[varchar]</text>
<polygon fill="none" stroke="#000000" points="733,-105.5 733,-135.5 1139,-135.5 1139,-105.5 733,-105.5"/>
<text text-anchor="start" x="740" y="-116.9" font-family="Arial" font-size="14.00" fill="#000000">created_at </text>
<text text-anchor="start" x="810.028" y="-116.9" font-family="Arial" font-size="14.00" fill="#666666">[timestamp with time zone]</text>
<polygon fill="none" stroke="#000000" points="733,-75.5 733,-105.5 1139,-105.5 1139,-75.5 733,-75.5"/>
<text text-anchor="start" x="740" y="-86.9" font-family="Arial" font-size="14.00" fill="#000000">updated_at </text>
<text text-anchor="start" x="813.9326" y="-86.9" font-family="Arial" font-size="14.00" fill="#666666">[timestamp with time zone]</text>
<polygon fill="none" stroke="#000000" points="733,-45.5 733,-75.5 1139,-75.5 1139,-45.5 733,-45.5"/>
<text text-anchor="start" x="740" y="-56.9" font-family="Arial" font-size="14.00" fill="#000000">last_sign_in_at </text>
<text text-anchor="start" x="837.2524" y="-56.9" font-family="Arial" font-size="14.00" fill="#666666">[timestamp with time zone]</text>
<polygon fill="none" stroke="#000000" stroke-width="3" points="731.5,-44.5 731.5,-472.5 1140.5,-472.5 1140.5,-44.5 731.5,-44.5"/>
</g>
<!-- public.recruitments -->
<g id="node2" class="node">
<title>public.recruitments</title>
<polygon fill="#efefef" stroke="transparent" points="85,-1075.5 85,-1110.5 347,-1110.5 347,-1075.5 85,-1075.5"/>
<polygon fill="none" stroke="#000000" points="85,-1075.5 85,-1110.5 347,-1110.5 347,-1075.5 85,-1075.5"/>
<text text-anchor="start" x="91.8685" y="-1088.3" font-family="Arial Bold" font-size="18.00" fill="#000000">public.recruitments</text>
<text text-anchor="start" x="242.8777" y="-1088.3" font-family="Arial" font-size="14.00" fill="#000000"> </text>
<text text-anchor="start" x="246.7683" y="-1088.3" font-family="Arial" font-size="14.00" fill="#666666">[BASE TABLE]</text>
<polygon fill="none" stroke="#000000" points="85,-1045.5 85,-1075.5 347,-1075.5 347,-1045.5 85,-1045.5"/>
<text text-anchor="start" x="92" y="-1056.9" font-family="Arial" font-size="14.00" fill="#000000">id </text>
<text text-anchor="start" x="106.7798" y="-1056.9" font-family="Arial" font-size="14.00" fill="#666666">[varchar]</text>
<polygon fill="none" stroke="#000000" points="85,-1015.5 85,-1045.5 347,-1045.5 347,-1015.5 85,-1015.5"/>
<text text-anchor="start" x="92" y="-1026.9" font-family="Arial" font-size="14.00" fill="#000000">title </text>
<text text-anchor="start" x="117.6676" y="-1026.9" font-family="Arial" font-size="14.00" fill="#666666">[varchar(60)]</text>
<polygon fill="none" stroke="#000000" points="85,-985.5 85,-1015.5 347,-1015.5 347,-985.5 85,-985.5"/>
<text text-anchor="start" x="92" y="-996.9" font-family="Arial" font-size="14.00" fill="#000000">type </text>
<text text-anchor="start" x="122.3464" y="-996.9" font-family="Arial" font-size="14.00" fill="#666666">[varchar]</text>
<polygon fill="none" stroke="#000000" points="85,-955.5 85,-985.5 347,-985.5 347,-955.5 85,-955.5"/>
<text text-anchor="start" x="92" y="-966.9" font-family="Arial" font-size="14.00" fill="#000000">place </text>
<text text-anchor="start" x="129.345" y="-966.9" font-family="Arial" font-size="14.00" fill="#666666">[varchar]</text>
<polygon fill="none" stroke="#000000" points="85,-925.5 85,-955.5 347,-955.5 347,-925.5 85,-925.5"/>
<text text-anchor="start" x="92" y="-936.9" font-family="Arial" font-size="14.00" fill="#000000">start_at </text>
<text text-anchor="start" x="142.5708" y="-936.9" font-family="Arial" font-size="14.00" fill="#666666">[timestamp with time zone]</text>
<polygon fill="none" stroke="#000000" points="85,-895.5 85,-925.5 347,-925.5 347,-895.5 85,-895.5"/>
<text text-anchor="start" x="92" y="-906.9" font-family="Arial" font-size="14.00" fill="#000000">detail </text>
<text text-anchor="start" x="129.3422" y="-906.9" font-family="Arial" font-size="14.00" fill="#666666">[varchar(10000)]</text>
<polygon fill="none" stroke="#000000" points="85,-865.5 85,-895.5 347,-895.5 347,-865.5 85,-865.5"/>
<text text-anchor="start" x="92" y="-876.9" font-family="Arial" font-size="14.00" fill="#000000">closing_at </text>
<text text-anchor="start" x="158.9074" y="-876.9" font-family="Arial" font-size="14.00" fill="#666666">[timestamp with time zone]</text>
<polygon fill="none" stroke="#000000" points="85,-835.5 85,-865.5 347,-865.5 347,-835.5 85,-835.5"/>
<text text-anchor="start" x="92" y="-846.9" font-family="Arial" font-size="14.00" fill="#000000">competition_id </text>
<text text-anchor="start" x="186.1304" y="-846.9" font-family="Arial" font-size="14.00" fill="#666666">[varchar]</text>
<polygon fill="none" stroke="#000000" points="85,-805.5 85,-835.5 347,-835.5 347,-805.5 85,-805.5"/>
<text text-anchor="start" x="92" y="-816.9" font-family="Arial" font-size="14.00" fill="#000000">prefecture_id </text>
<text text-anchor="start" x="177.5778" y="-816.9" font-family="Arial" font-size="14.00" fill="#666666">[varchar]</text>
<polygon fill="none" stroke="#000000" points="85,-775.5 85,-805.5 347,-805.5 347,-775.5 85,-775.5"/>
<text text-anchor="start" x="92" y="-786.9" font-family="Arial" font-size="14.00" fill="#000000">user_id </text>
<text text-anchor="start" x="141.7882" y="-786.9" font-family="Arial" font-size="14.00" fill="#666666">[varchar]</text>
<polygon fill="none" stroke="#000000" points="85,-745.5 85,-775.5 347,-775.5 347,-745.5 85,-745.5"/>
<text text-anchor="start" x="92" y="-756.9" font-family="Arial" font-size="14.00" fill="#000000">created_at </text>
<text text-anchor="start" x="162.028" y="-756.9" font-family="Arial" font-size="14.00" fill="#666666">[timestamp with time zone]</text>
<polygon fill="none" stroke="#000000" points="85,-715.5 85,-745.5 347,-745.5 347,-715.5 85,-715.5"/>
<text text-anchor="start" x="92" y="-726.9" font-family="Arial" font-size="14.00" fill="#000000">updated_at </text>
<text text-anchor="start" x="165.9326" y="-726.9" font-family="Arial" font-size="14.00" fill="#666666">[timestamp with time zone]</text>
<polygon fill="none" stroke="#000000" points="85,-685.5 85,-715.5 347,-715.5 347,-685.5 85,-685.5"/>
<text text-anchor="start" x="92" y="-696.9" font-family="Arial" font-size="14.00" fill="#000000">location_lat </text>
<text text-anchor="start" x="166.6872" y="-696.9" font-family="Arial" font-size="14.00" fill="#666666">[double precision]</text>
<polygon fill="none" stroke="#000000" points="85,-655.5 85,-685.5 347,-685.5 347,-655.5 85,-655.5"/>
<text text-anchor="start" x="92" y="-666.9" font-family="Arial" font-size="14.00" fill="#000000">location_lng </text>
<text text-anchor="start" x="170.5792" y="-666.9" font-family="Arial" font-size="14.00" fill="#666666">[double precision]</text>
<polygon fill="none" stroke="#000000" points="85,-625.5 85,-655.5 347,-655.5 347,-625.5 85,-625.5"/>
<text text-anchor="start" x="92" y="-636.9" font-family="Arial" font-size="14.00" fill="#000000">status </text>
<text text-anchor="start" x="133.237" y="-636.9" font-family="Arial" font-size="14.00" fill="#666666">[varchar]</text>
<polygon fill="none" stroke="#000000" points="85,-595.5 85,-625.5 347,-625.5 347,-595.5 85,-595.5"/>
<text text-anchor="start" x="91.5302" y="-606.9" font-family="Arial" font-size="14.00" fill="#000000">published_at </text>
<text text-anchor="start" x="174.7854" y="-606.9" font-family="Arial" font-size="14.00" fill="#666666">[timestamp with time zone]</text>
</g>
<!-- public.recruitments&#45;&gt;public.users -->
<g id="edge1" class="edge">
<title>public.recruitments:user_id&#45;&gt;public.users:id</title>
<path fill="none" stroke="#000000" d="M357.1194,-789.8706C436.9724,-779.0847 322.627,-632.2873 390,-553 493.4097,-431.3033 564.3014,-420.5 733,-420.5"/>
<polygon fill="#000000" stroke="#000000" points="356.9807,-789.8792 346.7206,-786.0087 351.9904,-790.1896 347,-790.5 347,-790.5 347,-790.5 351.9904,-790.1896 347.2794,-794.9913 356.9807,-789.8792 356.9807,-789.8792"/>
<text text-anchor="start" x="7.0535" y="-800.5" font-family="Arial" font-size="10.00" fill="#000000">FOREIGN KEY (user_id) REFERENCES users(id) ON DELETE CASCADE</text>
</g>
<!-- public.recruitments&#45;&gt;public.users -->
<g id="edge7" class="edge">
<title>public.recruitments:user_id&#45;&gt;public.users:id</title>
<path fill="none" stroke="#000000" stroke-dasharray="5,2" d="M357.5649,-790.0251C456.1441,-780.5846 340.2832,-632.6918 408,-553 511.3087,-431.4222 582.1629,-420.5212 732.5587,-420.5"/>
<polygon fill="#000000" stroke="#000000" points="357.3315,-790.0358 347.1336,-786.0044 352.3369,-790.2677 347.3422,-790.4996 347.3422,-790.4996 347.3422,-790.4996 352.3369,-790.2677 347.5509,-794.9947 357.3315,-790.0358 357.3315,-790.0358"/>
<text text-anchor="start" x="354.6667" y="-800.4996" font-family="Arial" font-size="10.00" fill="#000000">Additional Relation</text>
</g>
<!-- public.stocks -->
<g id="node3" class="node">
<title>public.stocks</title>
<polygon fill="#efefef" stroke="transparent" points="452,-910.5 452,-945.5 705,-945.5 705,-910.5 452,-910.5"/>
<polygon fill="none" stroke="#000000" points="452,-910.5 452,-945.5 705,-945.5 705,-910.5 452,-910.5"/>
<text text-anchor="start" x="478.3643" y="-923.3" font-family="Arial Bold" font-size="18.00" fill="#000000">public.stocks</text>
<text text-anchor="start" x="581.3819" y="-923.3" font-family="Arial" font-size="14.00" fill="#000000"> </text>
<text text-anchor="start" x="585.2725" y="-923.3" font-family="Arial" font-size="14.00" fill="#666666">[BASE TABLE]</text>
<polygon fill="none" stroke="#000000" points="452,-880.5 452,-910.5 705,-910.5 705,-880.5 452,-880.5"/>
<text text-anchor="start" x="459" y="-891.9" font-family="Arial" font-size="14.00" fill="#000000">id </text>
<text text-anchor="start" x="473.7798" y="-891.9" font-family="Arial" font-size="14.00" fill="#666666">[varchar]</text>
<polygon fill="none" stroke="#000000" points="452,-850.5 452,-880.5 705,-880.5 705,-850.5 452,-850.5"/>
<text text-anchor="start" x="459" y="-861.9" font-family="Arial" font-size="14.00" fill="#000000">recruitment_id </text>
<text text-anchor="start" x="551.5624" y="-861.9" font-family="Arial" font-size="14.00" fill="#666666">[varchar]</text>
<polygon fill="none" stroke="#000000" points="452,-820.5 452,-850.5 705,-850.5 705,-820.5 452,-820.5"/>
<text text-anchor="start" x="459" y="-831.9" font-family="Arial" font-size="14.00" fill="#000000">user_id </text>
<text text-anchor="start" x="508.7882" y="-831.9" font-family="Arial" font-size="14.00" fill="#666666">[varchar]</text>
<polygon fill="none" stroke="#000000" points="452,-790.5 452,-820.5 705,-820.5 705,-790.5 452,-790.5"/>
<text text-anchor="start" x="459" y="-801.9" font-family="Arial" font-size="14.00" fill="#000000">created_at </text>
<text text-anchor="start" x="529.028" y="-801.9" font-family="Arial" font-size="14.00" fill="#666666">[timestamp with time zone]</text>
<polygon fill="none" stroke="#000000" points="452,-760.5 452,-790.5 705,-790.5 705,-760.5 452,-760.5"/>
<text text-anchor="start" x="458.6915" y="-771.9" font-family="Arial" font-size="14.00" fill="#000000">updated_at </text>
<text text-anchor="start" x="532.6241" y="-771.9" font-family="Arial" font-size="14.00" fill="#666666">[timestamp with time zone]</text>
</g>
<!-- public.stocks&#45;&gt;public.users -->
<g id="edge2" class="edge">
<title>public.stocks:user_id&#45;&gt;public.users:id</title>
<path fill="none" stroke="#000000" d="M715.1497,-833.4628C784.9835,-802.1552 644.3593,-420.5 733,-420.5"/>
<polygon fill="#000000" stroke="#000000" points="714.8045,-833.532 704.1144,-831.088 709.9022,-834.516 705,-835.5 705,-835.5 705,-835.5 709.9022,-834.516 705.8856,-839.912 714.8045,-833.532 714.8045,-833.532"/>
<text text-anchor="start" x="365.0535" y="-845.5" font-family="Arial" font-size="10.00" fill="#000000">FOREIGN KEY (user_id) REFERENCES users(id) ON DELETE CASCADE</text>
</g>
<!-- public.applicants -->
<g id="node4" class="node">
<title>public.applicants</title>
<polygon fill="#efefef" stroke="transparent" points="809,-925.5 809,-960.5 1062,-960.5 1062,-925.5 809,-925.5"/>
<polygon fill="none" stroke="#000000" points="809,-925.5 809,-960.5 1062,-960.5 1062,-925.5 809,-925.5"/>
<text text-anchor="start" x="820.3577" y="-938.3" font-family="Arial Bold" font-size="18.00" fill="#000000">public.applicants</text>
<text text-anchor="start" x="953.3885" y="-938.3" font-family="Arial" font-size="14.00" fill="#000000"> </text>
<text text-anchor="start" x="957.2791" y="-938.3" font-family="Arial" font-size="14.00" fill="#666666">[BASE TABLE]</text>
<polygon fill="none" stroke="#000000" points="809,-895.5 809,-925.5 1062,-925.5 1062,-895.5 809,-895.5"/>
<text text-anchor="start" x="816" y="-906.9" font-family="Arial" font-size="14.00" fill="#000000">id </text>
<text text-anchor="start" x="830.7798" y="-906.9" font-family="Arial" font-size="14.00" fill="#666666">[varchar]</text>
<polygon fill="none" stroke="#000000" points="809,-865.5 809,-895.5 1062,-895.5 1062,-865.5 809,-865.5"/>
<text text-anchor="start" x="816" y="-876.9" font-family="Arial" font-size="14.00" fill="#000000">recruitment_id </text>
<text text-anchor="start" x="908.5624" y="-876.9" font-family="Arial" font-size="14.00" fill="#666666">[varchar]</text>
<polygon fill="none" stroke="#000000" points="809,-835.5 809,-865.5 1062,-865.5 1062,-835.5 809,-835.5"/>
<text text-anchor="start" x="816" y="-846.9" font-family="Arial" font-size="14.00" fill="#000000">user_id </text>
<text text-anchor="start" x="865.7882" y="-846.9" font-family="Arial" font-size="14.00" fill="#666666">[varchar]</text>
<polygon fill="none" stroke="#000000" points="809,-805.5 809,-835.5 1062,-835.5 1062,-805.5 809,-805.5"/>
<text text-anchor="start" x="816" y="-816.9" font-family="Arial" font-size="14.00" fill="#000000">created_at </text>
<text text-anchor="start" x="886.028" y="-816.9" font-family="Arial" font-size="14.00" fill="#666666">[timestamp with time zone]</text>
<polygon fill="none" stroke="#000000" points="809,-775.5 809,-805.5 1062,-805.5 1062,-775.5 809,-775.5"/>
<text text-anchor="start" x="815.6915" y="-786.9" font-family="Arial" font-size="14.00" fill="#000000">updated_at </text>
<text text-anchor="start" x="889.6241" y="-786.9" font-family="Arial" font-size="14.00" fill="#666666">[timestamp with time zone]</text>
<polygon fill="none" stroke="#000000" points="809,-745.5 809,-775.5 1062,-775.5 1062,-745.5 809,-745.5"/>
<text text-anchor="start" x="816" y="-756.9" font-family="Arial" font-size="14.00" fill="#000000">message </text>
<text text-anchor="start" x="876.6816" y="-756.9" font-family="Arial" font-size="14.00" fill="#666666">[varchar(1000)]</text>
</g>
<!-- public.applicants&#45;&gt;public.users -->
<g id="edge3" class="edge">
<title>public.applicants:user_id&#45;&gt;public.users:id</title>
<path fill="none" stroke="#000000" d="M1072.2131,-849.6481C1123.8699,-840.3153 1093.1632,-756.4167 1062,-703 977.3566,-557.9131 817.6434,-662.0869 733,-517 711.3878,-479.9545 690.1111,-420.5 733,-420.5"/>
<polygon fill="#000000" stroke="#000000" points="1071.9654,-849.6687 1061.6259,-846.0156 1066.9827,-850.0843 1062,-850.5 1062,-850.5 1062,-850.5 1066.9827,-850.0843 1062.3741,-854.9844 1071.9654,-849.6687 1071.9654,-849.6687"/>
<text text-anchor="start" x="722.0535" y="-860.5" font-family="Arial" font-size="10.00" fill="#000000">FOREIGN KEY (user_id) REFERENCES users(id) ON DELETE CASCADE</text>
</g>
<!-- public.messages -->
<g id="node5" class="node">
<title>public.messages</title>
<polygon fill="#efefef" stroke="transparent" points="1166,-895.5 1166,-930.5 1411,-930.5 1411,-895.5 1166,-895.5"/>
<polygon fill="none" stroke="#000000" points="1166,-895.5 1166,-930.5 1411,-930.5 1411,-895.5 1166,-895.5"/>
<text text-anchor="start" x="1172.86" y="-908.3" font-family="Arial Bold" font-size="18.00" fill="#000000">public.messages</text>
<text text-anchor="start" x="1306.8862" y="-908.3" font-family="Arial" font-size="14.00" fill="#000000"> </text>
<text text-anchor="start" x="1310.7768" y="-908.3" font-family="Arial" font-size="14.00" fill="#666666">[BASE TABLE]</text>
<polygon fill="none" stroke="#000000" points="1166,-865.5 1166,-895.5 1411,-895.5 1411,-865.5 1166,-865.5"/>
<text text-anchor="start" x="1173" y="-876.9" font-family="Arial" font-size="14.00" fill="#000000">id </text>
<text text-anchor="start" x="1187.7798" y="-876.9" font-family="Arial" font-size="14.00" fill="#666666">[varchar]</text>
<polygon fill="none" stroke="#000000" points="1166,-835.5 1166,-865.5 1411,-865.5 1411,-835.5 1166,-835.5"/>
<text text-anchor="start" x="1173" y="-846.9" font-family="Arial" font-size="14.00" fill="#000000">content </text>
<text text-anchor="start" x="1222.8022" y="-846.9" font-family="Arial" font-size="14.00" fill="#666666">[varchar(1000)]</text>
<polygon fill="none" stroke="#000000" points="1166,-805.5 1166,-835.5 1411,-835.5 1411,-805.5 1166,-805.5"/>
<text text-anchor="start" x="1173" y="-816.9" font-family="Arial" font-size="14.00" fill="#000000">room_id </text>
<text text-anchor="start" x="1227.4488" y="-816.9" font-family="Arial" font-size="14.00" fill="#666666">[varchar]</text>
<polygon fill="none" stroke="#000000" points="1166,-775.5 1166,-805.5 1411,-805.5 1411,-775.5 1166,-775.5"/>
<text text-anchor="start" x="1173" y="-786.9" font-family="Arial" font-size="14.00" fill="#000000">user_id </text>
<text text-anchor="start" x="1222.7882" y="-786.9" font-family="Arial" font-size="14.00" fill="#666666">[varchar]</text>
</g>
<!-- public.messages&#45;&gt;public.users -->
<g id="edge4" class="edge">
<title>public.messages:user_id&#45;&gt;public.users:id</title>
<path fill="none" stroke="#000000" d="M1156.0111,-789.995C1013.9118,-774.7723 1300.3393,-420.5 1139,-420.5"/>
<polygon fill="#000000" stroke="#000000" points="1156.0128,-789.995 1165.7727,-794.9943 1161.0064,-790.2475 1166,-790.5 1166,-790.5 1166,-790.5 1161.0064,-790.2475 1166.2273,-786.0057 1156.0128,-789.995 1156.0128,-789.995"/>
<text text-anchor="start" x="913.079" y="-774.5" font-family="Arial" font-size="10.00" fill="#000000">FOREIGN KEY (user_id) REFERENCES users(id) ON DELETE SET NULL</text>
</g>
<!-- public.entries -->
<g id="node6" class="node">
<title>public.entries</title>
<polygon fill="#efefef" stroke="transparent" points="1515,-880.5 1515,-915.5 1732,-915.5 1732,-880.5 1515,-880.5"/>
<polygon fill="none" stroke="#000000" points="1515,-880.5 1515,-915.5 1732,-915.5 1732,-880.5 1515,-880.5"/>
<text text-anchor="start" x="1521.8649" y="-893.3" font-family="Arial Bold" font-size="18.00" fill="#000000">public.entries</text>
<text text-anchor="start" x="1627.8813" y="-893.3" font-family="Arial" font-size="14.00" fill="#000000"> </text>
<text text-anchor="start" x="1631.7719" y="-893.3" font-family="Arial" font-size="14.00" fill="#666666">[BASE TABLE]</text>
<polygon fill="none" stroke="#000000" points="1515,-850.5 1515,-880.5 1732,-880.5 1732,-850.5 1515,-850.5"/>
<text text-anchor="start" x="1522" y="-861.9" font-family="Arial" font-size="14.00" fill="#000000">id </text>
<text text-anchor="start" x="1536.7798" y="-861.9" font-family="Arial" font-size="14.00" fill="#666666">[varchar]</text>
<polygon fill="none" stroke="#000000" points="1515,-820.5 1515,-850.5 1732,-850.5 1732,-820.5 1515,-820.5"/>
<text text-anchor="start" x="1522" y="-831.9" font-family="Arial" font-size="14.00" fill="#000000">room_id </text>
<text text-anchor="start" x="1576.4488" y="-831.9" font-family="Arial" font-size="14.00" fill="#666666">[varchar]</text>
<polygon fill="none" stroke="#000000" points="1515,-790.5 1515,-820.5 1732,-820.5 1732,-790.5 1515,-790.5"/>
<text text-anchor="start" x="1522" y="-801.9" font-family="Arial" font-size="14.00" fill="#000000">user_id </text>
<text text-anchor="start" x="1571.7882" y="-801.9" font-family="Arial" font-size="14.00" fill="#666666">[varchar]</text>
</g>
<!-- public.entries&#45;&gt;public.users -->
<g id="edge5" class="edge">
<title>public.entries:user_id&#45;&gt;public.users:id</title>
<path fill="none" stroke="#000000" d="M1504.9778,-805.0259C1408.7038,-795.3031 1533.8972,-638.4041 1463,-553 1363.6286,-433.2953 1294.576,-420.5 1139,-420.5"/>
<polygon fill="#000000" stroke="#000000" points="1505.0112,-805.0274 1514.7873,-809.995 1510.0056,-805.2637 1515,-805.5 1515,-805.5 1515,-805.5 1510.0056,-805.2637 1515.2127,-801.005 1505.0112,-805.0274 1505.0112,-805.0274"/>
<text text-anchor="start" x="1522.329" y="-815.5" font-family="Arial" font-size="10.00" fill="#000000">FOREIGN KEY (user_id) REFERENCES users(id) ON DELETE SET NULL</text>
</g>
<!-- public.room_read_managements -->
<g id="node7" class="node">
<title>public.room_read_managements</title>
<polygon fill="#efefef" stroke="transparent" points="1836,-895.5 1836,-930.5 2210,-930.5 2210,-895.5 1836,-895.5"/>
<polygon fill="none" stroke="#000000" points="1836,-895.5 1836,-930.5 2210,-930.5 2210,-895.5 1836,-895.5"/>
<text text-anchor="start" x="1842.8435" y="-908.3" font-family="Arial Bold" font-size="18.00" fill="#000000">public.room_read_managements</text>
<text text-anchor="start" x="2105.9027" y="-908.3" font-family="Arial" font-size="14.00" fill="#000000"> </text>
<text text-anchor="start" x="2109.7933" y="-908.3" font-family="Arial" font-size="14.00" fill="#666666">[BASE TABLE]</text>
<polygon fill="none" stroke="#000000" points="1836,-865.5 1836,-895.5 2210,-895.5 2210,-865.5 1836,-865.5"/>
<text text-anchor="start" x="1843" y="-876.9" font-family="Arial" font-size="14.00" fill="#000000">id </text>
<text text-anchor="start" x="1857.7798" y="-876.9" font-family="Arial" font-size="14.00" fill="#666666">[varchar]</text>
<polygon fill="none" stroke="#000000" points="1836,-835.5 1836,-865.5 2210,-865.5 2210,-835.5 1836,-835.5"/>
<text text-anchor="start" x="1843" y="-846.9" font-family="Arial" font-size="14.00" fill="#000000">last_read_at </text>
<text text-anchor="start" x="1923.9172" y="-846.9" font-family="Arial" font-size="14.00" fill="#666666">[timestamp with time zone]</text>
<polygon fill="none" stroke="#000000" points="1836,-805.5 1836,-835.5 2210,-835.5 2210,-805.5 1836,-805.5"/>
<text text-anchor="start" x="1843" y="-816.9" font-family="Arial" font-size="14.00" fill="#000000">room_id </text>
<text text-anchor="start" x="1897.4488" y="-816.9" font-family="Arial" font-size="14.00" fill="#666666">[varchar]</text>
<polygon fill="none" stroke="#000000" points="1836,-775.5 1836,-805.5 2210,-805.5 2210,-775.5 1836,-775.5"/>
<text text-anchor="start" x="1843" y="-786.9" font-family="Arial" font-size="14.00" fill="#000000">user_id </text>
<text text-anchor="start" x="1892.7882" y="-786.9" font-family="Arial" font-size="14.00" fill="#666666">[varchar]</text>
</g>
<!-- public.room_read_managements&#45;&gt;public.users -->
<g id="edge6" class="edge">
<title>public.room_read_managements:user_id&#45;&gt;public.users:id</title>
<path fill="none" stroke="#000000" d="M1825.7467,-789.9435C1736.7876,-779.554 1858.2714,-626.3166 1784,-553 1679.8644,-450.2031 1285.3264,-420.5 1139,-420.5"/>
<polygon fill="#000000" stroke="#000000" points="1826.0147,-789.958 1835.7561,-794.9934 1831.0073,-790.229 1836,-790.5 1836,-790.5 1836,-790.5 1831.0073,-790.229 1836.2439,-786.0066 1826.0147,-789.958 1826.0147,-789.958"/>
<text text-anchor="start" x="1583.079" y="-774.5" font-family="Arial" font-size="10.00" fill="#000000">FOREIGN KEY (user_id) REFERENCES users(id) ON DELETE SET NULL</text>
</g>
</g>
</svg>
