<?xml version="1.0" encoding="UTF-8" standalone="no"?>
<!DOCTYPE svg PUBLIC "-//W3C//DTD SVG 1.1//EN"
 "http://www.w3.org/Graphics/SVG/1.1/DTD/svg11.dtd">
<!-- Generated by graphviz version 2.40.1 (20161225.0304)
 -->
<!-- Title: public.stocks Pages: 1 -->
<svg width="1016pt" height="922pt"
 viewBox="0.00 0.00 1016.00 922.00" xmlns="http://www.w3.org/2000/svg" xmlns:xlink="http://www.w3.org/1999/xlink">
<g id="graph0" class="graph" transform="scale(1 1) rotate(0) translate(4 918)">
<title>public.stocks</title>
<polygon fill="#ffffff" stroke="transparent" points="-4,4 -4,-918 1012,-918 1012,4 -4,4"/>
<!-- public.stocks -->
<g id="node1" class="node">
<title>public.stocks</title>
<polygon fill="#efefef" stroke="transparent" points="408,-832.5 408,-867.5 661,-867.5 661,-832.5 408,-832.5"/>
<polygon fill="none" stroke="#000000" points="408,-832.5 408,-867.5 661,-867.5 661,-832.5 408,-832.5"/>
<text text-anchor="start" x="434.3643" y="-845.3" font-family="Arial Bold" font-size="18.00" fill="#000000">public.stocks</text>
<text text-anchor="start" x="537.3819" y="-845.3" font-family="Arial" font-size="14.00" fill="#000000"> </text>
<text text-anchor="start" x="541.2725" y="-845.3" font-family="Arial" font-size="14.00" fill="#666666">[BASE TABLE]</text>
<polygon fill="none" stroke="#000000" points="408,-802.5 408,-832.5 661,-832.5 661,-802.5 408,-802.5"/>
<text text-anchor="start" x="415" y="-813.9" font-family="Arial" font-size="14.00" fill="#000000">id </text>
<text text-anchor="start" x="429.7798" y="-813.9" font-family="Arial" font-size="14.00" fill="#666666">[varchar]</text>
<polygon fill="none" stroke="#000000" points="408,-772.5 408,-802.5 661,-802.5 661,-772.5 408,-772.5"/>
<text text-anchor="start" x="415" y="-783.9" font-family="Arial" font-size="14.00" fill="#000000">recruitment_id </text>
<text text-anchor="start" x="507.5624" y="-783.9" font-family="Arial" font-size="14.00" fill="#666666">[varchar]</text>
<polygon fill="none" stroke="#000000" points="408,-742.5 408,-772.5 661,-772.5 661,-742.5 408,-742.5"/>
<text text-anchor="start" x="415" y="-753.9" font-family="Arial" font-size="14.00" fill="#000000">user_id </text>
<text text-anchor="start" x="464.7882" y="-753.9" font-family="Arial" font-size="14.00" fill="#666666">[varchar]</text>
<polygon fill="none" stroke="#000000" points="408,-712.5 408,-742.5 661,-742.5 661,-712.5 408,-712.5"/>
<text text-anchor="start" x="415" y="-723.9" font-family="Arial" font-size="14.00" fill="#000000">created_at </text>
<text text-anchor="start" x="485.028" y="-723.9" font-family="Arial" font-size="14.00" fill="#666666">[timestamp with time zone]</text>
<polygon fill="none" stroke="#000000" points="408,-682.5 408,-712.5 661,-712.5 661,-682.5 408,-682.5"/>
<text text-anchor="start" x="414.6915" y="-693.9" font-family="Arial" font-size="14.00" fill="#000000">updated_at </text>
<text text-anchor="start" x="488.6241" y="-693.9" font-family="Arial" font-size="14.00" fill="#666666">[timestamp with time zone]</text>
<polygon fill="none" stroke="#000000" stroke-width="3" points="406,-681.5 406,-869.5 662,-869.5 662,-681.5 406,-681.5"/>
</g>
<!-- public.recruitments -->
<g id="node2" class="node">
<title>public.recruitments</title>
<polygon fill="#efefef" stroke="transparent" points="185,-522.5 185,-557.5 447,-557.5 447,-522.5 185,-522.5"/>
<polygon fill="none" stroke="#000000" points="185,-522.5 185,-557.5 447,-557.5 447,-522.5 185,-522.5"/>
<text text-anchor="start" x="191.8685" y="-535.3" font-family="Arial Bold" font-size="18.00" fill="#000000">public.recruitments</text>
<text text-anchor="start" x="342.8777" y="-535.3" font-family="Arial" font-size="14.00" fill="#000000"> </text>
<text text-anchor="start" x="346.7683" y="-535.3" font-family="Arial" font-size="14.00" fill="#666666">[BASE TABLE]</text>
<polygon fill="none" stroke="#000000" points="185,-492.5 185,-522.5 447,-522.5 447,-492.5 185,-492.5"/>
<text text-anchor="start" x="192" y="-503.9" font-family="Arial" font-size="14.00" fill="#000000">id </text>
<text text-anchor="start" x="206.7798" y="-503.9" font-family="Arial" font-size="14.00" fill="#666666">[varchar]</text>
<polygon fill="none" stroke="#000000" points="185,-462.5 185,-492.5 447,-492.5 447,-462.5 185,-462.5"/>
<text text-anchor="start" x="192" y="-473.9" font-family="Arial" font-size="14.00" fill="#000000">title </text>
<text text-anchor="start" x="217.6676" y="-473.9" font-family="Arial" font-size="14.00" fill="#666666">[varchar(60)]</text>
<polygon fill="none" stroke="#000000" points="185,-432.5 185,-462.5 447,-462.5 447,-432.5 185,-432.5"/>
<text text-anchor="start" x="192" y="-443.9" font-family="Arial" font-size="14.00" fill="#000000">type </text>
<text text-anchor="start" x="222.3464" y="-443.9" font-family="Arial" font-size="14.00" fill="#666666">[varchar]</text>
<polygon fill="none" stroke="#000000" points="185,-402.5 185,-432.5 447,-432.5 447,-402.5 185,-402.5"/>
<text text-anchor="start" x="192" y="-413.9" font-family="Arial" font-size="14.00" fill="#000000">place </text>
<text text-anchor="start" x="229.345" y="-413.9" font-family="Arial" font-size="14.00" fill="#666666">[varchar]</text>
<polygon fill="none" stroke="#000000" points="185,-372.5 185,-402.5 447,-402.5 447,-372.5 185,-372.5"/>
<text text-anchor="start" x="192" y="-383.9" font-family="Arial" font-size="14.00" fill="#000000">start_at </text>
<text text-anchor="start" x="242.5708" y="-383.9" font-family="Arial" font-size="14.00" fill="#666666">[timestamp with time zone]</text>
<polygon fill="none" stroke="#000000" points="185,-342.5 185,-372.5 447,-372.5 447,-342.5 185,-342.5"/>
<text text-anchor="start" x="192" y="-353.9" font-family="Arial" font-size="14.00" fill="#000000">detail </text>
<text text-anchor="start" x="229.3422" y="-353.9" font-family="Arial" font-size="14.00" fill="#666666">[varchar(10000)]</text>
<polygon fill="none" stroke="#000000" points="185,-312.5 185,-342.5 447,-342.5 447,-312.5 185,-312.5"/>
<text text-anchor="start" x="192" y="-323.9" font-family="Arial" font-size="14.00" fill="#000000">closing_at </text>
<text text-anchor="start" x="258.9074" y="-323.9" font-family="Arial" font-size="14.00" fill="#666666">[timestamp with time zone]</text>
<polygon fill="none" stroke="#000000" points="185,-282.5 185,-312.5 447,-312.5 447,-282.5 185,-282.5"/>
<text text-anchor="start" x="192" y="-293.9" font-family="Arial" font-size="14.00" fill="#000000">competition_id </text>
<text text-anchor="start" x="286.1304" y="-293.9" font-family="Arial" font-size="14.00" fill="#666666">[varchar]</text>
<polygon fill="none" stroke="#000000" points="185,-252.5 185,-282.5 447,-282.5 447,-252.5 185,-252.5"/>
<text text-anchor="start" x="192" y="-263.9" font-family="Arial" font-size="14.00" fill="#000000">prefecture_id </text>
<text text-anchor="start" x="277.5778" y="-263.9" font-family="Arial" font-size="14.00" fill="#666666">[varchar]</text>
<polygon fill="none" stroke="#000000" points="185,-222.5 185,-252.5 447,-252.5 447,-222.5 185,-222.5"/>
<text text-anchor="start" x="192" y="-233.9" font-family="Arial" font-size="14.00" fill="#000000">user_id </text>
<text text-anchor="start" x="241.7882" y="-233.9" font-family="Arial" font-size="14.00" fill="#666666">[varchar]</text>
<polygon fill="none" stroke="#000000" points="185,-192.5 185,-222.5 447,-222.5 447,-192.5 185,-192.5"/>
<text text-anchor="start" x="192" y="-203.9" font-family="Arial" font-size="14.00" fill="#000000">created_at </text>
<text text-anchor="start" x="262.028" y="-203.9" font-family="Arial" font-size="14.00" fill="#666666">[timestamp with time zone]</text>
<polygon fill="none" stroke="#000000" points="185,-162.5 185,-192.5 447,-192.5 447,-162.5 185,-162.5"/>
<text text-anchor="start" x="192" y="-173.9" font-family="Arial" font-size="14.00" fill="#000000">updated_at </text>
<text text-anchor="start" x="265.9326" y="-173.9" font-family="Arial" font-size="14.00" fill="#666666">[timestamp with time zone]</text>
<polygon fill="none" stroke="#000000" points="185,-132.5 185,-162.5 447,-162.5 447,-132.5 185,-132.5"/>
<text text-anchor="start" x="192" y="-143.9" font-family="Arial" font-size="14.00" fill="#000000">location_lat </text>
<text text-anchor="start" x="266.6872" y="-143.9" font-family="Arial" font-size="14.00" fill="#666666">[double precision]</text>
<polygon fill="none" stroke="#000000" points="185,-102.5 185,-132.5 447,-132.5 447,-102.5 185,-102.5"/>
<text text-anchor="start" x="192" y="-113.9" font-family="Arial" font-size="14.00" fill="#000000">location_lng </text>
<text text-anchor="start" x="270.5792" y="-113.9" font-family="Arial" font-size="14.00" fill="#666666">[double precision]</text>
<polygon fill="none" stroke="#000000" points="185,-72.5 185,-102.5 447,-102.5 447,-72.5 185,-72.5"/>
<text text-anchor="start" x="192" y="-83.9" font-family="Arial" font-size="14.00" fill="#000000">status </text>
<text text-anchor="start" x="233.237" y="-83.9" font-family="Arial" font-size="14.00" fill="#666666">[varchar]</text>
<polygon fill="none" stroke="#000000" points="185,-42.5 185,-72.5 447,-72.5 447,-42.5 185,-42.5"/>
<text text-anchor="start" x="191.5302" y="-53.9" font-family="Arial" font-size="14.00" fill="#000000">published_at </text>
<text text-anchor="start" x="274.7854" y="-53.9" font-family="Arial" font-size="14.00" fill="#666666">[timestamp with time zone]</text>
</g>
<!-- public.stocks&#45;&gt;public.recruitments -->
<g id="edge1" class="edge">
<title>public.stocks:recruitment_id&#45;&gt;public.recruitments:id</title>
<path fill="none" stroke="#000000" d="M397.966,-786.7186C345.4533,-777.8244 382.6398,-694.9224 408,-637 417.461,-615.3913 437.539,-622.6087 447,-601 463.6668,-562.9332 488.5556,-507.5 447,-507.5"/>
<polygon fill="#000000" stroke="#000000" points="398.0302,-786.7235 407.6506,-791.9864 403.0151,-787.1118 408,-787.5 408,-787.5 408,-787.5 403.0151,-787.1118 408.3494,-783.0136 398.0302,-786.7235 398.0302,-786.7235"/>
<text text-anchor="start" x="6.5005" y="-797.5" font-family="Arial" font-size="10.00" fill="#000000">FOREIGN KEY (recruitment_id) REFERENCES recruitments(id) ON DELETE CASCADE</text>
</g>
<!-- public.users -->
<g id="node3" class="node">
<title>public.users</title>
<polygon fill="#efefef" stroke="transparent" points="551,-477.5 551,-512.5 957,-512.5 957,-477.5 551,-477.5"/>
<polygon fill="none" stroke="#000000" points="551,-477.5 551,-512.5 957,-512.5 957,-477.5 551,-477.5"/>
<text text-anchor="start" x="657.3662" y="-490.3" font-family="Arial Bold" font-size="18.00" fill="#000000">public.users</text>
<text text-anchor="start" x="753.38" y="-490.3" font-family="Arial" font-size="14.00" fill="#000000"> </text>
<text text-anchor="start" x="757.2706" y="-490.3" font-family="Arial" font-size="14.00" fill="#666666">[BASE TABLE]</text>
<polygon fill="none" stroke="#000000" points="551,-447.5 551,-477.5 957,-477.5 957,-447.5 551,-447.5"/>
<text text-anchor="start" x="558" y="-458.9" font-family="Arial" font-size="14.00" fill="#000000">id </text>
<text text-anchor="start" x="572.7798" y="-458.9" font-family="Arial" font-size="14.00" fill="#666666">[varchar]</text>
<polygon fill="none" stroke="#000000" points="551,-417.5 551,-447.5 957,-447.5 957,-417.5 551,-417.5"/>
<text text-anchor="start" x="558" y="-428.9" font-family="Arial" font-size="14.00" fill="#000000">name </text>
<text text-anchor="start" x="596.899" y="-428.9" font-family="Arial" font-size="14.00" fill="#666666">[varchar(50)]</text>
<polygon fill="none" stroke="#000000" points="551,-387.5 551,-417.5 957,-417.5 957,-387.5 551,-387.5"/>
<text text-anchor="start" x="558" y="-398.9" font-family="Arial" font-size="14.00" fill="#000000">email </text>
<text text-anchor="start" x="595.3296" y="-398.9" font-family="Arial" font-size="14.00" fill="#666666">[varchar(100)]</text>
<polygon fill="none" stroke="#000000" points="551,-357.5 551,-387.5 957,-387.5 957,-357.5 551,-357.5"/>
<text text-anchor="start" x="558" y="-368.9" font-family="Arial" font-size="14.00" fill="#000000">role </text>
<text text-anchor="start" x="585.223" y="-368.9" font-family="Arial" font-size="14.00" fill="#666666">[varchar]</text>
<polygon fill="none" stroke="#000000" points="551,-327.5 551,-357.5 957,-357.5 957,-327.5 551,-327.5"/>
<text text-anchor="start" x="558" y="-338.9" font-family="Arial" font-size="14.00" fill="#000000">avatar </text>
<text text-anchor="start" x="600.7896" y="-338.9" font-family="Arial" font-size="14.00" fill="#666666">[varchar]</text>
<polygon fill="none" stroke="#000000" points="551,-297.5 551,-327.5 957,-327.5 957,-297.5 551,-297.5"/>
<text text-anchor="start" x="558" y="-308.9" font-family="Arial" font-size="14.00" fill="#000000">introduction </text>
<text text-anchor="start" x="634.2412" y="-308.9" font-family="Arial" font-size="14.00" fill="#666666">[varchar(4000)]</text>
<polygon fill="none" stroke="#000000" points="551,-267.5 551,-297.5 957,-297.5 957,-267.5 551,-267.5"/>
<text text-anchor="start" x="558" y="-278.9" font-family="Arial" font-size="14.00" fill="#000000">email_verification_status </text>
<text text-anchor="start" x="715.1332" y="-278.9" font-family="Arial" font-size="14.00" fill="#666666">[varchar]</text>
<polygon fill="none" stroke="#000000" points="551,-237.5 551,-267.5 957,-267.5 957,-237.5 551,-237.5"/>
<text text-anchor="start" x="558" y="-248.9" font-family="Arial" font-size="14.00" fill="#000000">email_verification_token </text>
<text text-anchor="start" x="712.0252" y="-248.9" font-family="Arial" font-size="14.00" fill="#666666">[varchar]</text>
<polygon fill="none" stroke="#000000" points="551,-207.5 551,-237.5 957,-237.5 957,-207.5 551,-207.5"/>
<text text-anchor="start" x="557.9685" y="-218.9" font-family="Arial" font-size="14.00" fill="#000000">email_verification_token_expires_at </text>
<text text-anchor="start" x="784.3471" y="-218.9" font-family="Arial" font-size="14.00" fill="#666666">[timestamp with time zone]</text>
<polygon fill="none" stroke="#000000" points="551,-177.5 551,-207.5 957,-207.5 957,-177.5 551,-177.5"/>
<text text-anchor="start" x="558" y="-188.9" font-family="Arial" font-size="14.00" fill="#000000">password_digest </text>
<text text-anchor="start" x="666.9158" y="-188.9" font-family="Arial" font-size="14.00" fill="#666666">[varchar]</text>
<polygon fill="none" stroke="#000000" points="551,-147.5 551,-177.5 957,-177.5 957,-147.5 551,-147.5"/>
<text text-anchor="start" x="558" y="-158.9" font-family="Arial" font-size="14.00" fill="#000000">created_at </text>
<text text-anchor="start" x="628.028" y="-158.9" font-family="Arial" font-size="14.00" fill="#666666">[timestamp with time zone]</text>
<polygon fill="none" stroke="#000000" points="551,-117.5 551,-147.5 957,-147.5 957,-117.5 551,-117.5"/>
<text text-anchor="start" x="558" y="-128.9" font-family="Arial" font-size="14.00" fill="#000000">updated_at </text>
<text text-anchor="start" x="631.9326" y="-128.9" font-family="Arial" font-size="14.00" fill="#666666">[timestamp with time zone]</text>
<polygon fill="none" stroke="#000000" points="551,-87.5 551,-117.5 957,-117.5 957,-87.5 551,-87.5"/>
<text text-anchor="start" x="558" y="-98.9" font-family="Arial" font-size="14.00" fill="#000000">last_sign_in_at </text>
<text text-anchor="start" x="655.2524" y="-98.9" font-family="Arial" font-size="14.00" fill="#666666">[timestamp with time zone]</text>
</g>
<!-- public.stocks&#45;&gt;public.users -->
<g id="edge2" class="edge">
<title>public.stocks:user_id&#45;&gt;public.users:id</title>
<path fill="none" stroke="#000000" d="M671.0972,-756.4556C710.4478,-747.3991 683.4621,-681.4352 661,-637 633.6099,-582.816 578.3901,-610.184 551,-556 532.2527,-518.9136 509.4444,-462.5 551,-462.5"/>
<polygon fill="#000000" stroke="#000000" points="670.9469,-756.4711 660.537,-753.0239 665.9735,-756.9855 661,-757.5 661,-757.5 661,-757.5 665.9735,-756.9855 661.463,-761.9761 670.9469,-756.4711 670.9469,-756.4711"/>
<text text-anchor="start" x="668.0535" y="-767.5" font-family="Arial" font-size="10.00" fill="#000000">FOREIGN KEY (user_id) REFERENCES users(id) ON DELETE CASCADE</text>
</g>
</g>
</svg>
