<?xml version="1.0" encoding="UTF-8" standalone="no"?>
<!DOCTYPE svg PUBLIC "-//W3C//DTD SVG 1.1//EN"
 "http://www.w3.org/Graphics/SVG/1.1/DTD/svg11.dtd">
<!-- Generated by graphviz version 2.40.1 (20161225.0304)
 -->
<!-- Title: public.recruitments Pages: 1 -->
<svg width="1401pt" height="1499pt"
 viewBox="0.00 0.00 1401.00 1499.00" xmlns="http://www.w3.org/2000/svg" xmlns:xlink="http://www.w3.org/1999/xlink">
<g id="graph0" class="graph" transform="scale(1 1) rotate(0) translate(4 1495)">
<title>public.recruitments</title>
<polygon fill="#ffffff" stroke="transparent" points="-4,4 -4,-1495 1397,-1495 1397,4 -4,4"/>
<!-- public.recruitments -->
<g id="node1" class="node">
<title>public.recruitments</title>
<polygon fill="#efefef" stroke="transparent" points="624,-1072.5 624,-1107.5 886,-1107.5 886,-1072.5 624,-1072.5"/>
<polygon fill="none" stroke="#000000" points="624,-1072.5 624,-1107.5 886,-1107.5 886,-1072.5 624,-1072.5"/>
<text text-anchor="start" x="630.8685" y="-1085.3" font-family="Arial Bold" font-size="18.00" fill="#000000">public.recruitments</text>
<text text-anchor="start" x="781.8777" y="-1085.3" font-family="Arial" font-size="14.00" fill="#000000"> </text>
<text text-anchor="start" x="785.7683" y="-1085.3" font-family="Arial" font-size="14.00" fill="#666666">[BASE TABLE]</text>
<polygon fill="none" stroke="#000000" points="624,-1042.5 624,-1072.5 886,-1072.5 886,-1042.5 624,-1042.5"/>
<text text-anchor="start" x="631" y="-1053.9" font-family="Arial" font-size="14.00" fill="#000000">id </text>
<text text-anchor="start" x="645.7798" y="-1053.9" font-family="Arial" font-size="14.00" fill="#666666">[varchar]</text>
<polygon fill="none" stroke="#000000" points="624,-1012.5 624,-1042.5 886,-1042.5 886,-1012.5 624,-1012.5"/>
<text text-anchor="start" x="631" y="-1023.9" font-family="Arial" font-size="14.00" fill="#000000">title </text>
<text text-anchor="start" x="656.6676" y="-1023.9" font-family="Arial" font-size="14.00" fill="#666666">[varchar(60)]</text>
<polygon fill="none" stroke="#000000" points="624,-982.5 624,-1012.5 886,-1012.5 886,-982.5 624,-982.5"/>
<text text-anchor="start" x="631" y="-993.9" font-family="Arial" font-size="14.00" fill="#000000">type </text>
<text text-anchor="start" x="661.3464" y="-993.9" font-family="Arial" font-size="14.00" fill="#666666">[varchar]</text>
<polygon fill="none" stroke="#000000" points="624,-952.5 624,-982.5 886,-982.5 886,-952.5 624,-952.5"/>
<text text-anchor="start" x="631" y="-963.9" font-family="Arial" font-size="14.00" fill="#000000">place </text>
<text text-anchor="start" x="668.345" y="-963.9" font-family="Arial" font-size="14.00" fill="#666666">[varchar]</text>
<polygon fill="none" stroke="#000000" points="624,-922.5 624,-952.5 886,-952.5 886,-922.5 624,-922.5"/>
<text text-anchor="start" x="631" y="-933.9" font-family="Arial" font-size="14.00" fill="#000000">start_at </text>
<text text-anchor="start" x="681.5708" y="-933.9" font-family="Arial" font-size="14.00" fill="#666666">[timestamp with time zone]</text>
<polygon fill="none" stroke="#000000" points="624,-892.5 624,-922.5 886,-922.5 886,-892.5 624,-892.5"/>
<text text-anchor="start" x="631" y="-903.9" font-family="Arial" font-size="14.00" fill="#000000">detail </text>
<text text-anchor="start" x="668.3422" y="-903.9" font-family="Arial" font-size="14.00" fill="#666666">[varchar(10000)]</text>
<polygon fill="none" stroke="#000000" points="624,-862.5 624,-892.5 886,-892.5 886,-862.5 624,-862.5"/>
<text text-anchor="start" x="631" y="-873.9" font-family="Arial" font-size="14.00" fill="#000000">closing_at </text>
<text text-anchor="start" x="697.9074" y="-873.9" font-family="Arial" font-size="14.00" fill="#666666">[timestamp with time zone]</text>
<polygon fill="none" stroke="#000000" points="624,-832.5 624,-862.5 886,-862.5 886,-832.5 624,-832.5"/>
<text text-anchor="start" x="631" y="-843.9" font-family="Arial" font-size="14.00" fill="#000000">competition_id </text>
<text text-anchor="start" x="725.1304" y="-843.9" font-family="Arial" font-size="14.00" fill="#666666">[varchar]</text>
<polygon fill="none" stroke="#000000" points="624,-802.5 624,-832.5 886,-832.5 886,-802.5 624,-802.5"/>
<text text-anchor="start" x="631" y="-813.9" font-family="Arial" font-size="14.00" fill="#000000">prefecture_id </text>
<text text-anchor="start" x="716.5778" y="-813.9" font-family="Arial" font-size="14.00" fill="#666666">[varchar]</text>
<polygon fill="none" stroke="#000000" points="624,-772.5 624,-802.5 886,-802.5 886,-772.5 624,-772.5"/>
<text text-anchor="start" x="631" y="-783.9" font-family="Arial" font-size="14.00" fill="#000000">user_id </text>
<text text-anchor="start" x="680.7882" y="-783.9" font-family="Arial" font-size="14.00" fill="#666666">[varchar]</text>
<polygon fill="none" stroke="#000000" points="624,-742.5 624,-772.5 886,-772.5 886,-742.5 624,-742.5"/>
<text text-anchor="start" x="631" y="-753.9" font-family="Arial" font-size="14.00" fill="#000000">created_at </text>
<text text-anchor="start" x="701.028" y="-753.9" font-family="Arial" font-size="14.00" fill="#666666">[timestamp with time zone]</text>
<polygon fill="none" stroke="#000000" points="624,-712.5 624,-742.5 886,-742.5 886,-712.5 624,-712.5"/>
<text text-anchor="start" x="631" y="-723.9" font-family="Arial" font-size="14.00" fill="#000000">updated_at </text>
<text text-anchor="start" x="704.9326" y="-723.9" font-family="Arial" font-size="14.00" fill="#666666">[timestamp with time zone]</text>
<polygon fill="none" stroke="#000000" points="624,-682.5 624,-712.5 886,-712.5 886,-682.5 624,-682.5"/>
<text text-anchor="start" x="631" y="-693.9" font-family="Arial" font-size="14.00" fill="#000000">location_lat </text>
<text text-anchor="start" x="705.6872" y="-693.9" font-family="Arial" font-size="14.00" fill="#666666">[double precision]</text>
<polygon fill="none" stroke="#000000" points="624,-652.5 624,-682.5 886,-682.5 886,-652.5 624,-652.5"/>
<text text-anchor="start" x="631" y="-663.9" font-family="Arial" font-size="14.00" fill="#000000">location_lng </text>
<text text-anchor="start" x="709.5792" y="-663.9" font-family="Arial" font-size="14.00" fill="#666666">[double precision]</text>
<polygon fill="none" stroke="#000000" points="624,-622.5 624,-652.5 886,-652.5 886,-622.5 624,-622.5"/>
<text text-anchor="start" x="631" y="-633.9" font-family="Arial" font-size="14.00" fill="#000000">status </text>
<text text-anchor="start" x="672.237" y="-633.9" font-family="Arial" font-size="14.00" fill="#666666">[varchar]</text>
<polygon fill="none" stroke="#000000" points="624,-592.5 624,-622.5 886,-622.5 886,-592.5 624,-592.5"/>
<text text-anchor="start" x="630.5302" y="-603.9" font-family="Arial" font-size="14.00" fill="#000000">published_at </text>
<text text-anchor="start" x="713.7854" y="-603.9" font-family="Arial" font-size="14.00" fill="#666666">[timestamp with time zone]</text>
<polygon fill="none" stroke="#000000" stroke-width="3" points="622.5,-591.5 622.5,-1109.5 887.5,-1109.5 887.5,-591.5 622.5,-591.5"/>
</g>
<!-- public.competitions -->
<g id="node5" class="node">
<title>public.competitions</title>
<polygon fill="#efefef" stroke="transparent" points="43,-297.5 43,-332.5 307,-332.5 307,-297.5 43,-297.5"/>
<polygon fill="none" stroke="#000000" points="43,-297.5 43,-332.5 307,-332.5 307,-297.5 43,-297.5"/>
<text text-anchor="start" x="49.8605" y="-310.3" font-family="Arial Bold" font-size="18.00" fill="#000000">public.competitions</text>
<text text-anchor="start" x="202.8857" y="-310.3" font-family="Arial" font-size="14.00" fill="#000000"> </text>
<text text-anchor="start" x="206.7763" y="-310.3" font-family="Arial" font-size="14.00" fill="#666666">[BASE TABLE]</text>
<polygon fill="none" stroke="#000000" points="43,-267.5 43,-297.5 307,-297.5 307,-267.5 43,-267.5"/>
<text text-anchor="start" x="50" y="-278.9" font-family="Arial" font-size="14.00" fill="#000000">id </text>
<text text-anchor="start" x="64.7798" y="-278.9" font-family="Arial" font-size="14.00" fill="#666666">[varchar]</text>
<polygon fill="none" stroke="#000000" points="43,-237.5 43,-267.5 307,-267.5 307,-237.5 43,-237.5"/>
<text text-anchor="start" x="50" y="-248.9" font-family="Arial" font-size="14.00" fill="#000000">name </text>
<text text-anchor="start" x="88.899" y="-248.9" font-family="Arial" font-size="14.00" fill="#666666">[varchar]</text>
<polygon fill="none" stroke="#000000" points="43,-207.5 43,-237.5 307,-237.5 307,-207.5 43,-207.5"/>
<text text-anchor="start" x="50" y="-218.9" font-family="Arial" font-size="14.00" fill="#000000">created_at </text>
<text text-anchor="start" x="120.028" y="-218.9" font-family="Arial" font-size="14.00" fill="#666666">[timestamp with time zone]</text>
<polygon fill="none" stroke="#000000" points="43,-177.5 43,-207.5 307,-207.5 307,-177.5 43,-177.5"/>
<text text-anchor="start" x="50" y="-188.9" font-family="Arial" font-size="14.00" fill="#000000">updated_at </text>
<text text-anchor="start" x="123.9326" y="-188.9" font-family="Arial" font-size="14.00" fill="#666666">[timestamp with time zone]</text>
</g>
<!-- public.recruitments&#45;&gt;public.competitions -->
<g id="edge4" class="edge">
<title>public.recruitments:competition_id&#45;&gt;public.competitions:id</title>
<path fill="none" stroke="#000000" d="M613.8744,-847.3396C433.8734,-841.5463 439.5345,-679.6864 359,-511 314.1272,-417.0102 411.1521,-282.5 307,-282.5"/>
<polygon fill="#000000" stroke="#000000" points="614.0013,-847.3416 623.9287,-851.9994 619.0006,-847.4208 624,-847.5 624,-847.5 624,-847.5 619.0006,-847.4208 624.0713,-843.0006 614.0013,-847.3416 614.0013,-847.3416"/>
<text text-anchor="start" x="218.551" y="-857.5" font-family="Arial" font-size="10.00" fill="#000000">FOREIGN KEY (competition_id) REFERENCES competitions(id) ON DELETE RESTRICT</text>
</g>
<!-- public.prefectures -->
<g id="node6" class="node">
<title>public.prefectures</title>
<polygon fill="#efefef" stroke="transparent" points="412,-297.5 412,-332.5 665,-332.5 665,-297.5 412,-297.5"/>
<polygon fill="none" stroke="#000000" points="412,-297.5 412,-332.5 665,-332.5 665,-297.5 412,-297.5"/>
<text text-anchor="start" x="418.8586" y="-310.3" font-family="Arial Bold" font-size="18.00" fill="#000000">public.prefectures</text>
<text text-anchor="start" x="560.8876" y="-310.3" font-family="Arial" font-size="14.00" fill="#000000"> </text>
<text text-anchor="start" x="564.7782" y="-310.3" font-family="Arial" font-size="14.00" fill="#666666">[BASE TABLE]</text>
<polygon fill="none" stroke="#000000" points="412,-267.5 412,-297.5 665,-297.5 665,-267.5 412,-267.5"/>
<text text-anchor="start" x="419" y="-278.9" font-family="Arial" font-size="14.00" fill="#000000">id </text>
<text text-anchor="start" x="433.7798" y="-278.9" font-family="Arial" font-size="14.00" fill="#666666">[varchar]</text>
<polygon fill="none" stroke="#000000" points="412,-237.5 412,-267.5 665,-267.5 665,-237.5 412,-237.5"/>
<text text-anchor="start" x="419" y="-248.9" font-family="Arial" font-size="14.00" fill="#000000">name </text>
<text text-anchor="start" x="457.899" y="-248.9" font-family="Arial" font-size="14.00" fill="#666666">[varchar]</text>
<polygon fill="none" stroke="#000000" points="412,-207.5 412,-237.5 665,-237.5 665,-207.5 412,-207.5"/>
<text text-anchor="start" x="419" y="-218.9" font-family="Arial" font-size="14.00" fill="#000000">created_at </text>
<text text-anchor="start" x="489.028" y="-218.9" font-family="Arial" font-size="14.00" fill="#666666">[timestamp with time zone]</text>
<polygon fill="none" stroke="#000000" points="412,-177.5 412,-207.5 665,-207.5 665,-177.5 412,-177.5"/>
<text text-anchor="start" x="418.6915" y="-188.9" font-family="Arial" font-size="14.00" fill="#000000">updated_at </text>
<text text-anchor="start" x="492.6241" y="-188.9" font-family="Arial" font-size="14.00" fill="#666666">[timestamp with time zone]</text>
</g>
<!-- public.recruitments&#45;&gt;public.prefectures -->
<g id="edge5" class="edge">
<title>public.recruitments:prefecture_id&#45;&gt;public.prefectures:id</title>
<path fill="none" stroke="#000000" d="M613.9865,-817.2738C434.4305,-808.8742 642.2729,-568.2638 665,-376 669.8782,-334.7318 706.5556,-282.5 665,-282.5"/>
<polygon fill="#000000" stroke="#000000" points="614.0026,-817.274 623.8983,-821.9989 619.0013,-817.387 624,-817.5 624,-817.5 624,-817.5 619.0013,-817.387 624.1017,-813.0011 614.0026,-817.274 614.0026,-817.274"/>
<text text-anchor="start" x="230.66" y="-827.5" font-family="Arial" font-size="10.00" fill="#000000">FOREIGN KEY (prefecture_id) REFERENCES prefectures(id) ON DELETE RESTRICT</text>
</g>
<!-- public.users -->
<g id="node7" class="node">
<title>public.users</title>
<polygon fill="#efefef" stroke="transparent" points="769,-432.5 769,-467.5 1175,-467.5 1175,-432.5 769,-432.5"/>
<polygon fill="none" stroke="#000000" points="769,-432.5 769,-467.5 1175,-467.5 1175,-432.5 769,-432.5"/>
<text text-anchor="start" x="875.3662" y="-445.3" font-family="Arial Bold" font-size="18.00" fill="#000000">public.users</text>
<text text-anchor="start" x="971.38" y="-445.3" font-family="Arial" font-size="14.00" fill="#000000"> </text>
<text text-anchor="start" x="975.2706" y="-445.3" font-family="Arial" font-size="14.00" fill="#666666">[BASE TABLE]</text>
<polygon fill="none" stroke="#000000" points="769,-402.5 769,-432.5 1175,-432.5 1175,-402.5 769,-402.5"/>
<text text-anchor="start" x="776" y="-413.9" font-family="Arial" font-size="14.00" fill="#000000">id </text>
<text text-anchor="start" x="790.7798" y="-413.9" font-family="Arial" font-size="14.00" fill="#666666">[varchar]</text>
<polygon fill="none" stroke="#000000" points="769,-372.5 769,-402.5 1175,-402.5 1175,-372.5 769,-372.5"/>
<text text-anchor="start" x="776" y="-383.9" font-family="Arial" font-size="14.00" fill="#000000">name </text>
<text text-anchor="start" x="814.899" y="-383.9" font-family="Arial" font-size="14.00" fill="#666666">[varchar(50)]</text>
<polygon fill="none" stroke="#000000" points="769,-342.5 769,-372.5 1175,-372.5 1175,-342.5 769,-342.5"/>
<text text-anchor="start" x="776" y="-353.9" font-family="Arial" font-size="14.00" fill="#000000">email </text>
<text text-anchor="start" x="813.3296" y="-353.9" font-family="Arial" font-size="14.00" fill="#666666">[varchar(100)]</text>
<polygon fill="none" stroke="#000000" points="769,-312.5 769,-342.5 1175,-342.5 1175,-312.5 769,-312.5"/>
<text text-anchor="start" x="776" y="-323.9" font-family="Arial" font-size="14.00" fill="#000000">role </text>
<text text-anchor="start" x="803.223" y="-323.9" font-family="Arial" font-size="14.00" fill="#666666">[varchar]</text>
<polygon fill="none" stroke="#000000" points="769,-282.5 769,-312.5 1175,-312.5 1175,-282.5 769,-282.5"/>
<text text-anchor="start" x="776" y="-293.9" font-family="Arial" font-size="14.00" fill="#000000">avatar </text>
<text text-anchor="start" x="818.7896" y="-293.9" font-family="Arial" font-size="14.00" fill="#666666">[varchar]</text>
<polygon fill="none" stroke="#000000" points="769,-252.5 769,-282.5 1175,-282.5 1175,-252.5 769,-252.5"/>
<text text-anchor="start" x="776" y="-263.9" font-family="Arial" font-size="14.00" fill="#000000">introduction </text>
<text text-anchor="start" x="852.2412" y="-263.9" font-family="Arial" font-size="14.00" fill="#666666">[varchar(4000)]</text>
<polygon fill="none" stroke="#000000" points="769,-222.5 769,-252.5 1175,-252.5 1175,-222.5 769,-222.5"/>
<text text-anchor="start" x="776" y="-233.9" font-family="Arial" font-size="14.00" fill="#000000">email_verification_status </text>
<text text-anchor="start" x="933.1332" y="-233.9" font-family="Arial" font-size="14.00" fill="#666666">[varchar]</text>
<polygon fill="none" stroke="#000000" points="769,-192.5 769,-222.5 1175,-222.5 1175,-192.5 769,-192.5"/>
<text text-anchor="start" x="776" y="-203.9" font-family="Arial" font-size="14.00" fill="#000000">email_verification_token </text>
<text text-anchor="start" x="930.0252" y="-203.9" font-family="Arial" font-size="14.00" fill="#666666">[varchar]</text>
<polygon fill="none" stroke="#000000" points="769,-162.5 769,-192.5 1175,-192.5 1175,-162.5 769,-162.5"/>
<text text-anchor="start" x="775.9685" y="-173.9" font-family="Arial" font-size="14.00" fill="#000000">email_verification_token_expires_at </text>
<text text-anchor="start" x="1002.3471" y="-173.9" font-family="Arial" font-size="14.00" fill="#666666">[timestamp with time zone]</text>
<polygon fill="none" stroke="#000000" points="769,-132.5 769,-162.5 1175,-162.5 1175,-132.5 769,-132.5"/>
<text text-anchor="start" x="776" y="-143.9" font-family="Arial" font-size="14.00" fill="#000000">password_digest </text>
<text text-anchor="start" x="884.9158" y="-143.9" font-family="Arial" font-size="14.00" fill="#666666">[varchar]</text>
<polygon fill="none" stroke="#000000" points="769,-102.5 769,-132.5 1175,-132.5 1175,-102.5 769,-102.5"/>
<text text-anchor="start" x="776" y="-113.9" font-family="Arial" font-size="14.00" fill="#000000">created_at </text>
<text text-anchor="start" x="846.028" y="-113.9" font-family="Arial" font-size="14.00" fill="#666666">[timestamp with time zone]</text>
<polygon fill="none" stroke="#000000" points="769,-72.5 769,-102.5 1175,-102.5 1175,-72.5 769,-72.5"/>
<text text-anchor="start" x="776" y="-83.9" font-family="Arial" font-size="14.00" fill="#000000">updated_at </text>
<text text-anchor="start" x="849.9326" y="-83.9" font-family="Arial" font-size="14.00" fill="#666666">[timestamp with time zone]</text>
<polygon fill="none" stroke="#000000" points="769,-42.5 769,-72.5 1175,-72.5 1175,-42.5 769,-42.5"/>
<text text-anchor="start" x="776" y="-53.9" font-family="Arial" font-size="14.00" fill="#000000">last_sign_in_at </text>
<text text-anchor="start" x="873.2524" y="-53.9" font-family="Arial" font-size="14.00" fill="#666666">[timestamp with time zone]</text>
</g>
<!-- public.recruitments&#45;&gt;public.users -->
<g id="edge6" class="edge">
<title>public.recruitments:user_id&#45;&gt;public.users:id</title>
<path fill="none" stroke="#000000" d="M896.0634,-786.9053C980.7273,-776.423 938.2084,-629.8736 877,-547 844.6774,-503.2365 792.3226,-554.7635 760,-511 735.3118,-477.5731 718.4444,-417.5 769,-417.5"/>
<polygon fill="#000000" stroke="#000000" points="895.9826,-786.91 885.7345,-783.0078 890.9913,-787.205 886,-787.5 886,-787.5 886,-787.5 890.9913,-787.205 886.2655,-791.9922 895.9826,-786.91 895.9826,-786.91"/>
<text text-anchor="start" x="893.0535" y="-797.5" font-family="Arial" font-size="10.00" fill="#000000">FOREIGN KEY (user_id) REFERENCES users(id) ON DELETE CASCADE</text>
</g>
<!-- public.recruitments&#45;&gt;public.users -->
<g id="edge7" class="edge">
<title>public.recruitments:user_id&#45;&gt;public.users:id</title>
<path fill="none" stroke="#000000" stroke-dasharray="5,2" d="M896.3928,-787.0549C999.1602,-777.9185 956.5203,-630.296 895,-547 862.6774,-503.2365 810.3226,-554.7635 778,-511 753.4082,-477.7037 736.5763,-417.9689 768.6207,-417.5027"/>
<polygon fill="#000000" stroke="#000000" points="896.3293,-787.0577 886.1402,-783.004 891.3342,-787.2786 886.3391,-787.4996 886.3391,-787.4996 886.3391,-787.4996 891.3342,-787.2786 886.5379,-791.9952 896.3293,-787.0577 896.3293,-787.0577"/>
<text text-anchor="start" x="893.6636" y="-771.4996" font-family="Arial" font-size="10.00" fill="#000000">Additional Relation</text>
</g>
<!-- public.stocks -->
<g id="node2" class="node">
<title>public.stocks</title>
<polygon fill="#efefef" stroke="transparent" points="271,-1397.5 271,-1432.5 524,-1432.5 524,-1397.5 271,-1397.5"/>
<polygon fill="none" stroke="#000000" points="271,-1397.5 271,-1432.5 524,-1432.5 524,-1397.5 271,-1397.5"/>
<text text-anchor="start" x="297.3643" y="-1410.3" font-family="Arial Bold" font-size="18.00" fill="#000000">public.stocks</text>
<text text-anchor="start" x="400.3819" y="-1410.3" font-family="Arial" font-size="14.00" fill="#000000"> </text>
<text text-anchor="start" x="404.2725" y="-1410.3" font-family="Arial" font-size="14.00" fill="#666666">[BASE TABLE]</text>
<polygon fill="none" stroke="#000000" points="271,-1367.5 271,-1397.5 524,-1397.5 524,-1367.5 271,-1367.5"/>
<text text-anchor="start" x="278" y="-1378.9" font-family="Arial" font-size="14.00" fill="#000000">id </text>
<text text-anchor="start" x="292.7798" y="-1378.9" font-family="Arial" font-size="14.00" fill="#666666">[varchar]</text>
<polygon fill="none" stroke="#000000" points="271,-1337.5 271,-1367.5 524,-1367.5 524,-1337.5 271,-1337.5"/>
<text text-anchor="start" x="278" y="-1348.9" font-family="Arial" font-size="14.00" fill="#000000">recruitment_id </text>
<text text-anchor="start" x="370.5624" y="-1348.9" font-family="Arial" font-size="14.00" fill="#666666">[varchar]</text>
<polygon fill="none" stroke="#000000" points="271,-1307.5 271,-1337.5 524,-1337.5 524,-1307.5 271,-1307.5"/>
<text text-anchor="start" x="278" y="-1318.9" font-family="Arial" font-size="14.00" fill="#000000">user_id </text>
<text text-anchor="start" x="327.7882" y="-1318.9" font-family="Arial" font-size="14.00" fill="#666666">[varchar]</text>
<polygon fill="none" stroke="#000000" points="271,-1277.5 271,-1307.5 524,-1307.5 524,-1277.5 271,-1277.5"/>
<text text-anchor="start" x="278" y="-1288.9" font-family="Arial" font-size="14.00" fill="#000000">created_at </text>
<text text-anchor="start" x="348.028" y="-1288.9" font-family="Arial" font-size="14.00" fill="#666666">[timestamp with time zone]</text>
<polygon fill="none" stroke="#000000" points="271,-1247.5 271,-1277.5 524,-1277.5 524,-1247.5 271,-1247.5"/>
<text text-anchor="start" x="277.6915" y="-1258.9" font-family="Arial" font-size="14.00" fill="#000000">updated_at </text>
<text text-anchor="start" x="351.6241" y="-1258.9" font-family="Arial" font-size="14.00" fill="#666666">[timestamp with time zone]</text>
</g>
<!-- public.stocks&#45;&gt;public.recruitments -->
<g id="edge1" class="edge">
<title>public.stocks:recruitment_id&#45;&gt;public.recruitments:id</title>
<path fill="none" stroke="#000000" d="M534.2183,-1351.8629C595.07,-1343.672 551.7261,-1258.1341 575,-1190 595.2958,-1130.5841 561.2133,-1057.5 624,-1057.5"/>
<polygon fill="#000000" stroke="#000000" points="533.9806,-1351.8776 523.7199,-1348.0087 528.9903,-1352.1888 524,-1352.5 524,-1352.5 524,-1352.5 528.9903,-1352.1888 524.2801,-1356.9913 533.9806,-1351.8776 533.9806,-1351.8776"/>
<text text-anchor="start" x="122.5005" y="-1362.5" font-family="Arial" font-size="10.00" fill="#000000">FOREIGN KEY (recruitment_id) REFERENCES recruitments(id) ON DELETE CASCADE</text>
</g>
<!-- public.applicants -->
<g id="node3" class="node">
<title>public.applicants</title>
<polygon fill="#efefef" stroke="transparent" points="628,-1412.5 628,-1447.5 881,-1447.5 881,-1412.5 628,-1412.5"/>
<polygon fill="none" stroke="#000000" points="628,-1412.5 628,-1447.5 881,-1447.5 881,-1412.5 628,-1412.5"/>
<text text-anchor="start" x="639.3577" y="-1425.3" font-family="Arial Bold" font-size="18.00" fill="#000000">public.applicants</text>
<text text-anchor="start" x="772.3885" y="-1425.3" font-family="Arial" font-size="14.00" fill="#000000"> </text>
<text text-anchor="start" x="776.2791" y="-1425.3" font-family="Arial" font-size="14.00" fill="#666666">[BASE TABLE]</text>
<polygon fill="none" stroke="#000000" points="628,-1382.5 628,-1412.5 881,-1412.5 881,-1382.5 628,-1382.5"/>
<text text-anchor="start" x="635" y="-1393.9" font-family="Arial" font-size="14.00" fill="#000000">id </text>
<text text-anchor="start" x="649.7798" y="-1393.9" font-family="Arial" font-size="14.00" fill="#666666">[varchar]</text>
<polygon fill="none" stroke="#000000" points="628,-1352.5 628,-1382.5 881,-1382.5 881,-1352.5 628,-1352.5"/>
<text text-anchor="start" x="635" y="-1363.9" font-family="Arial" font-size="14.00" fill="#000000">recruitment_id </text>
<text text-anchor="start" x="727.5624" y="-1363.9" font-family="Arial" font-size="14.00" fill="#666666">[varchar]</text>
<polygon fill="none" stroke="#000000" points="628,-1322.5 628,-1352.5 881,-1352.5 881,-1322.5 628,-1322.5"/>
<text text-anchor="start" x="635" y="-1333.9" font-family="Arial" font-size="14.00" fill="#000000">user_id </text>
<text text-anchor="start" x="684.7882" y="-1333.9" font-family="Arial" font-size="14.00" fill="#666666">[varchar]</text>
<polygon fill="none" stroke="#000000" points="628,-1292.5 628,-1322.5 881,-1322.5 881,-1292.5 628,-1292.5"/>
<text text-anchor="start" x="635" y="-1303.9" font-family="Arial" font-size="14.00" fill="#000000">created_at </text>
<text text-anchor="start" x="705.028" y="-1303.9" font-family="Arial" font-size="14.00" fill="#666666">[timestamp with time zone]</text>
<polygon fill="none" stroke="#000000" points="628,-1262.5 628,-1292.5 881,-1292.5 881,-1262.5 628,-1262.5"/>
<text text-anchor="start" x="634.6915" y="-1273.9" font-family="Arial" font-size="14.00" fill="#000000">updated_at </text>
<text text-anchor="start" x="708.6241" y="-1273.9" font-family="Arial" font-size="14.00" fill="#666666">[timestamp with time zone]</text>
<polygon fill="none" stroke="#000000" points="628,-1232.5 628,-1262.5 881,-1262.5 881,-1232.5 628,-1232.5"/>
<text text-anchor="start" x="635" y="-1243.9" font-family="Arial" font-size="14.00" fill="#000000">message </text>
<text text-anchor="start" x="695.6816" y="-1243.9" font-family="Arial" font-size="14.00" fill="#666666">[varchar(1000)]</text>
</g>
<!-- public.applicants&#45;&gt;public.recruitments -->
<g id="edge2" class="edge">
<title>public.applicants:recruitment_id&#45;&gt;public.recruitments:id</title>
<path fill="none" stroke="#000000" d="M890.9971,-1366.8018C957.4026,-1357.0188 930.4437,-1246.8524 881,-1190 805.3121,-1102.9709 699.6879,-1241.0291 624,-1154 595.855,-1121.6377 581.1111,-1057.5 624,-1057.5"/>
<polygon fill="#000000" stroke="#000000" points="890.9757,-1366.8032 880.6864,-1363.0109 885.9879,-1367.1516 881,-1367.5 881,-1367.5 881,-1367.5 885.9879,-1367.1516 881.3136,-1371.9891 890.9757,-1366.8032 890.9757,-1366.8032"/>
<text text-anchor="start" x="887.5005" y="-1377.5" font-family="Arial" font-size="10.00" fill="#000000">FOREIGN KEY (recruitment_id) REFERENCES recruitments(id) ON DELETE CASCADE</text>
</g>
<!-- public.recruitment_tags -->
<g id="node4" class="node">
<title>public.recruitment_tags</title>
<polygon fill="#efefef" stroke="transparent" points="985,-1397.5 985,-1432.5 1282,-1432.5 1282,-1397.5 985,-1397.5"/>
<polygon fill="none" stroke="#000000" points="985,-1397.5 985,-1432.5 1282,-1432.5 1282,-1397.5 985,-1397.5"/>
<text text-anchor="start" x="991.8581" y="-1410.3" font-family="Arial Bold" font-size="18.00" fill="#000000">public.recruitment_tags</text>
<text text-anchor="start" x="1177.8881" y="-1410.3" font-family="Arial" font-size="14.00" fill="#000000"> </text>
<text text-anchor="start" x="1181.7787" y="-1410.3" font-family="Arial" font-size="14.00" fill="#666666">[BASE TABLE]</text>
<polygon fill="none" stroke="#000000" points="985,-1367.5 985,-1397.5 1282,-1397.5 1282,-1367.5 985,-1367.5"/>
<text text-anchor="start" x="992" y="-1378.9" font-family="Arial" font-size="14.00" fill="#000000">id </text>
<text text-anchor="start" x="1006.7798" y="-1378.9" font-family="Arial" font-size="14.00" fill="#666666">[varchar]</text>
<polygon fill="none" stroke="#000000" points="985,-1337.5 985,-1367.5 1282,-1367.5 1282,-1337.5 985,-1337.5"/>
<text text-anchor="start" x="992" y="-1348.9" font-family="Arial" font-size="14.00" fill="#000000">recruitment_id </text>
<text text-anchor="start" x="1084.5624" y="-1348.9" font-family="Arial" font-size="14.00" fill="#666666">[varchar]</text>
<polygon fill="none" stroke="#000000" points="985,-1307.5 985,-1337.5 1282,-1337.5 1282,-1307.5 985,-1307.5"/>
<text text-anchor="start" x="992" y="-1318.9" font-family="Arial" font-size="14.00" fill="#000000">tag_id </text>
<text text-anchor="start" x="1034.0182" y="-1318.9" font-family="Arial" font-size="14.00" fill="#666666">[varchar]</text>
<polygon fill="none" stroke="#000000" points="985,-1277.5 985,-1307.5 1282,-1307.5 1282,-1277.5 985,-1277.5"/>
<text text-anchor="start" x="992" y="-1288.9" font-family="Arial" font-size="14.00" fill="#000000">created_at </text>
<text text-anchor="start" x="1062.028" y="-1288.9" font-family="Arial" font-size="14.00" fill="#666666">[timestamp with time zone]</text>
<polygon fill="none" stroke="#000000" points="985,-1247.5 985,-1277.5 1282,-1277.5 1282,-1247.5 985,-1247.5"/>
<text text-anchor="start" x="992" y="-1258.9" font-family="Arial" font-size="14.00" fill="#000000">updated_at </text>
<text text-anchor="start" x="1065.9326" y="-1258.9" font-family="Arial" font-size="14.00" fill="#666666">[timestamp with time zone]</text>
</g>
<!-- public.recruitment_tags&#45;&gt;public.recruitments -->
<g id="edge3" class="edge">
<title>public.recruitment_tags:recruitment_id&#45;&gt;public.recruitments:id</title>
<path fill="none" stroke="#000000" d="M974.9334,-1350.1254C919.6944,-1322.2071 951.5021,-1057.5 886,-1057.5"/>
<polygon fill="#000000" stroke="#000000" points="975.2671,-1350.2041 983.9668,-1356.8798 980.1336,-1351.352 985,-1352.5 985,-1352.5 985,-1352.5 980.1336,-1351.352 986.0332,-1348.1202 975.2671,-1350.2041 975.2671,-1350.2041"/>
<text text-anchor="start" x="991.5005" y="-1336.5" font-family="Arial" font-size="10.00" fill="#000000">FOREIGN KEY (recruitment_id) REFERENCES recruitments(id) ON DELETE CASCADE</text>
</g>
</g>
</svg>
