<?xml version="1.0" encoding="UTF-8" standalone="no"?>
<!DOCTYPE svg PUBLIC "-//W3C//DTD SVG 1.1//EN"
 "http://www.w3.org/Graphics/SVG/1.1/DTD/svg11.dtd">
<!-- Generated by graphviz version 2.40.1 (20161225.0304)
 -->
<!-- Title: public.recruitments Pages: 1 -->
<svg width="1310pt" height="1529pt"
 viewBox="0.00 0.00 1310.00 1529.00" xmlns="http://www.w3.org/2000/svg" xmlns:xlink="http://www.w3.org/1999/xlink">
<g id="graph0" class="graph" transform="scale(1 1) rotate(0) translate(4 1525)">
<title>public.recruitments</title>
<polygon fill="#ffffff" stroke="transparent" points="-4,4 -4,-1525 1306,-1525 1306,4 -4,4"/>
<!-- public.recruitments -->
<g id="node1" class="node">
<title>public.recruitments</title>
<polygon fill="#efefef" stroke="transparent" points="508,-1102.5 508,-1137.5 770,-1137.5 770,-1102.5 508,-1102.5"/>
<polygon fill="none" stroke="#000000" points="508,-1102.5 508,-1137.5 770,-1137.5 770,-1102.5 508,-1102.5"/>
<text text-anchor="start" x="514.8685" y="-1115.3" font-family="Arial Bold" font-size="18.00" fill="#000000">public.recruitments</text>
<text text-anchor="start" x="665.8777" y="-1115.3" font-family="Arial" font-size="14.00" fill="#000000"> </text>
<text text-anchor="start" x="669.7683" y="-1115.3" font-family="Arial" font-size="14.00" fill="#666666">[BASE TABLE]</text>
<polygon fill="none" stroke="#000000" points="508,-1072.5 508,-1102.5 770,-1102.5 770,-1072.5 508,-1072.5"/>
<text text-anchor="start" x="515" y="-1083.9" font-family="Arial" font-size="14.00" fill="#000000">id </text>
<text text-anchor="start" x="529.7798" y="-1083.9" font-family="Arial" font-size="14.00" fill="#666666">[bigint]</text>
<polygon fill="none" stroke="#000000" points="508,-1042.5 508,-1072.5 770,-1072.5 770,-1042.5 508,-1042.5"/>
<text text-anchor="start" x="515" y="-1053.9" font-family="Arial" font-size="14.00" fill="#000000">title </text>
<text text-anchor="start" x="540.6676" y="-1053.9" font-family="Arial" font-size="14.00" fill="#666666">[varchar(60)]</text>
<polygon fill="none" stroke="#000000" points="508,-1012.5 508,-1042.5 770,-1042.5 770,-1012.5 508,-1012.5"/>
<text text-anchor="start" x="515" y="-1023.9" font-family="Arial" font-size="14.00" fill="#000000">type </text>
<text text-anchor="start" x="545.3464" y="-1023.9" font-family="Arial" font-size="14.00" fill="#666666">[varchar]</text>
<polygon fill="none" stroke="#000000" points="508,-982.5 508,-1012.5 770,-1012.5 770,-982.5 508,-982.5"/>
<text text-anchor="start" x="515" y="-993.9" font-family="Arial" font-size="14.00" fill="#000000">venue </text>
<text text-anchor="start" x="557.021" y="-993.9" font-family="Arial" font-size="14.00" fill="#666666">[varchar]</text>
<polygon fill="none" stroke="#000000" points="508,-952.5 508,-982.5 770,-982.5 770,-952.5 508,-952.5"/>
<text text-anchor="start" x="515" y="-963.9" font-family="Arial" font-size="14.00" fill="#000000">start_at </text>
<text text-anchor="start" x="565.5708" y="-963.9" font-family="Arial" font-size="14.00" fill="#666666">[timestamp with time zone]</text>
<polygon fill="none" stroke="#000000" points="508,-922.5 508,-952.5 770,-952.5 770,-922.5 508,-922.5"/>
<text text-anchor="start" x="515" y="-933.9" font-family="Arial" font-size="14.00" fill="#000000">detail </text>
<text text-anchor="start" x="552.3422" y="-933.9" font-family="Arial" font-size="14.00" fill="#666666">[varchar(10000)]</text>
<polygon fill="none" stroke="#000000" points="508,-892.5 508,-922.5 770,-922.5 770,-892.5 508,-892.5"/>
<text text-anchor="start" x="515" y="-903.9" font-family="Arial" font-size="14.00" fill="#000000">closing_at </text>
<text text-anchor="start" x="581.9074" y="-903.9" font-family="Arial" font-size="14.00" fill="#666666">[timestamp with time zone]</text>
<polygon fill="none" stroke="#000000" points="508,-862.5 508,-892.5 770,-892.5 770,-862.5 508,-862.5"/>
<text text-anchor="start" x="515" y="-873.9" font-family="Arial" font-size="14.00" fill="#000000">competition_id </text>
<text text-anchor="start" x="609.1304" y="-873.9" font-family="Arial" font-size="14.00" fill="#666666">[bigint]</text>
<polygon fill="none" stroke="#000000" points="508,-832.5 508,-862.5 770,-862.5 770,-832.5 508,-832.5"/>
<text text-anchor="start" x="515" y="-843.9" font-family="Arial" font-size="14.00" fill="#000000">prefecture_id </text>
<text text-anchor="start" x="600.5778" y="-843.9" font-family="Arial" font-size="14.00" fill="#666666">[bigint]</text>
<polygon fill="none" stroke="#000000" points="508,-802.5 508,-832.5 770,-832.5 770,-802.5 508,-802.5"/>
<text text-anchor="start" x="515" y="-813.9" font-family="Arial" font-size="14.00" fill="#000000">user_id </text>
<text text-anchor="start" x="564.7882" y="-813.9" font-family="Arial" font-size="14.00" fill="#666666">[bigint]</text>
<polygon fill="none" stroke="#000000" points="508,-772.5 508,-802.5 770,-802.5 770,-772.5 508,-772.5"/>
<text text-anchor="start" x="515" y="-783.9" font-family="Arial" font-size="14.00" fill="#000000">created_at </text>
<text text-anchor="start" x="585.028" y="-783.9" font-family="Arial" font-size="14.00" fill="#666666">[timestamp with time zone]</text>
<polygon fill="none" stroke="#000000" points="508,-742.5 508,-772.5 770,-772.5 770,-742.5 508,-742.5"/>
<text text-anchor="start" x="515" y="-753.9" font-family="Arial" font-size="14.00" fill="#000000">updated_at </text>
<text text-anchor="start" x="588.9326" y="-753.9" font-family="Arial" font-size="14.00" fill="#666666">[timestamp with time zone]</text>
<polygon fill="none" stroke="#000000" points="508,-712.5 508,-742.5 770,-742.5 770,-712.5 508,-712.5"/>
<text text-anchor="start" x="515" y="-723.9" font-family="Arial" font-size="14.00" fill="#000000">location_lat </text>
<text text-anchor="start" x="589.6872" y="-723.9" font-family="Arial" font-size="14.00" fill="#666666">[double precision]</text>
<polygon fill="none" stroke="#000000" points="508,-682.5 508,-712.5 770,-712.5 770,-682.5 508,-682.5"/>
<text text-anchor="start" x="515" y="-693.9" font-family="Arial" font-size="14.00" fill="#000000">location_lng </text>
<text text-anchor="start" x="593.5792" y="-693.9" font-family="Arial" font-size="14.00" fill="#666666">[double precision]</text>
<polygon fill="none" stroke="#000000" points="508,-652.5 508,-682.5 770,-682.5 770,-652.5 508,-652.5"/>
<text text-anchor="start" x="515" y="-663.9" font-family="Arial" font-size="14.00" fill="#000000">status </text>
<text text-anchor="start" x="556.237" y="-663.9" font-family="Arial" font-size="14.00" fill="#666666">[recruitment_status]</text>
<polygon fill="none" stroke="#000000" points="508,-622.5 508,-652.5 770,-652.5 770,-622.5 508,-622.5"/>
<text text-anchor="start" x="514.5302" y="-633.9" font-family="Arial" font-size="14.00" fill="#000000">published_at </text>
<text text-anchor="start" x="597.7854" y="-633.9" font-family="Arial" font-size="14.00" fill="#666666">[timestamp with time zone]</text>
<polygon fill="none" stroke="#000000" stroke-width="3" points="506.5,-621.5 506.5,-1139.5 771.5,-1139.5 771.5,-621.5 506.5,-621.5"/>
</g>
<!-- public.competitions -->
<g id="node5" class="node">
<title>public.competitions</title>
<polygon fill="#efefef" stroke="transparent" points="143,-312.5 143,-347.5 407,-347.5 407,-312.5 143,-312.5"/>
<polygon fill="none" stroke="#000000" points="143,-312.5 143,-347.5 407,-347.5 407,-312.5 143,-312.5"/>
<text text-anchor="start" x="149.8605" y="-325.3" font-family="Arial Bold" font-size="18.00" fill="#000000">public.competitions</text>
<text text-anchor="start" x="302.8857" y="-325.3" font-family="Arial" font-size="14.00" fill="#000000"> </text>
<text text-anchor="start" x="306.7763" y="-325.3" font-family="Arial" font-size="14.00" fill="#666666">[BASE TABLE]</text>
<polygon fill="none" stroke="#000000" points="143,-282.5 143,-312.5 407,-312.5 407,-282.5 143,-282.5"/>
<text text-anchor="start" x="150" y="-293.9" font-family="Arial" font-size="14.00" fill="#000000">id </text>
<text text-anchor="start" x="164.7798" y="-293.9" font-family="Arial" font-size="14.00" fill="#666666">[bigint]</text>
<polygon fill="none" stroke="#000000" points="143,-252.5 143,-282.5 407,-282.5 407,-252.5 143,-252.5"/>
<text text-anchor="start" x="150" y="-263.9" font-family="Arial" font-size="14.00" fill="#000000">name </text>
<text text-anchor="start" x="188.899" y="-263.9" font-family="Arial" font-size="14.00" fill="#666666">[varchar]</text>
<polygon fill="none" stroke="#000000" points="143,-222.5 143,-252.5 407,-252.5 407,-222.5 143,-222.5"/>
<text text-anchor="start" x="150" y="-233.9" font-family="Arial" font-size="14.00" fill="#000000">created_at </text>
<text text-anchor="start" x="220.028" y="-233.9" font-family="Arial" font-size="14.00" fill="#666666">[timestamp with time zone]</text>
<polygon fill="none" stroke="#000000" points="143,-192.5 143,-222.5 407,-222.5 407,-192.5 143,-192.5"/>
<text text-anchor="start" x="150" y="-203.9" font-family="Arial" font-size="14.00" fill="#000000">updated_at </text>
<text text-anchor="start" x="223.9326" y="-203.9" font-family="Arial" font-size="14.00" fill="#666666">[timestamp with time zone]</text>
</g>
<!-- public.recruitments&#45;&gt;public.competitions -->
<g id="edge4" class="edge">
<title>public.recruitments:competition_id&#45;&gt;public.competitions:id</title>
<path fill="none" stroke="#000000" d="M498.7464,-873.1649C445.3696,-820.0894 469.0924,-297.5 407,-297.5"/>
<polygon fill="#000000" stroke="#000000" points="498.9445,-873.2576 506.0909,-881.575 503.4722,-875.3788 508,-877.5 508,-877.5 508,-877.5 503.4722,-875.3788 509.9091,-873.425 498.9445,-873.2576 498.9445,-873.2576"/>
<text text-anchor="start" x="102.551" y="-887.5" font-family="Arial" font-size="10.00" fill="#000000">FOREIGN KEY (competition_id) REFERENCES competitions(id) ON DELETE RESTRICT</text>
</g>
<!-- public.prefectures -->
<g id="node6" class="node">
<title>public.prefectures</title>
<polygon fill="#efefef" stroke="transparent" points="512,-312.5 512,-347.5 765,-347.5 765,-312.5 512,-312.5"/>
<polygon fill="none" stroke="#000000" points="512,-312.5 512,-347.5 765,-347.5 765,-312.5 512,-312.5"/>
<text text-anchor="start" x="518.8586" y="-325.3" font-family="Arial Bold" font-size="18.00" fill="#000000">public.prefectures</text>
<text text-anchor="start" x="660.8876" y="-325.3" font-family="Arial" font-size="14.00" fill="#000000"> </text>
<text text-anchor="start" x="664.7782" y="-325.3" font-family="Arial" font-size="14.00" fill="#666666">[BASE TABLE]</text>
<polygon fill="none" stroke="#000000" points="512,-282.5 512,-312.5 765,-312.5 765,-282.5 512,-282.5"/>
<text text-anchor="start" x="519" y="-293.9" font-family="Arial" font-size="14.00" fill="#000000">id </text>
<text text-anchor="start" x="533.7798" y="-293.9" font-family="Arial" font-size="14.00" fill="#666666">[bigint]</text>
<polygon fill="none" stroke="#000000" points="512,-252.5 512,-282.5 765,-282.5 765,-252.5 512,-252.5"/>
<text text-anchor="start" x="519" y="-263.9" font-family="Arial" font-size="14.00" fill="#000000">name </text>
<text text-anchor="start" x="557.899" y="-263.9" font-family="Arial" font-size="14.00" fill="#666666">[varchar]</text>
<polygon fill="none" stroke="#000000" points="512,-222.5 512,-252.5 765,-252.5 765,-222.5 512,-222.5"/>
<text text-anchor="start" x="519" y="-233.9" font-family="Arial" font-size="14.00" fill="#000000">created_at </text>
<text text-anchor="start" x="589.028" y="-233.9" font-family="Arial" font-size="14.00" fill="#666666">[timestamp with time zone]</text>
<polygon fill="none" stroke="#000000" points="512,-192.5 512,-222.5 765,-222.5 765,-192.5 512,-192.5"/>
<text text-anchor="start" x="518.6915" y="-203.9" font-family="Arial" font-size="14.00" fill="#000000">updated_at </text>
<text text-anchor="start" x="592.6241" y="-203.9" font-family="Arial" font-size="14.00" fill="#666666">[timestamp with time zone]</text>
</g>
<!-- public.recruitments&#45;&gt;public.prefectures -->
<g id="edge5" class="edge">
<title>public.recruitments:prefecture_id&#45;&gt;public.prefectures:id</title>
<path fill="none" stroke="#000000" d="M497.907,-847.0847C391.6089,-837.9723 454.9236,-680.9318 508,-577 572.1274,-451.4286 700.8726,-516.5714 765,-391 783.8999,-353.9911 806.5556,-297.5 765,-297.5"/>
<polygon fill="#000000" stroke="#000000" points="498.0085,-847.0888 507.815,-851.9962 503.0042,-847.2944 508,-847.5 508,-847.5 508,-847.5 503.0042,-847.2944 508.185,-843.0038 498.0085,-847.0888 498.0085,-847.0888"/>
<text text-anchor="start" x="114.66" y="-857.5" font-family="Arial" font-size="10.00" fill="#000000">FOREIGN KEY (prefecture_id) REFERENCES prefectures(id) ON DELETE RESTRICT</text>
</g>
<!-- public.users -->
<g id="node7" class="node">
<title>public.users</title>
<polygon fill="#efefef" stroke="transparent" points="869,-462.5 869,-497.5 1259,-497.5 1259,-462.5 869,-462.5"/>
<polygon fill="none" stroke="#000000" points="869,-462.5 869,-497.5 1259,-497.5 1259,-462.5 869,-462.5"/>
<text text-anchor="start" x="967.3662" y="-475.3" font-family="Arial Bold" font-size="18.00" fill="#000000">public.users</text>
<text text-anchor="start" x="1063.38" y="-475.3" font-family="Arial" font-size="14.00" fill="#000000"> </text>
<text text-anchor="start" x="1067.2706" y="-475.3" font-family="Arial" font-size="14.00" fill="#666666">[BASE TABLE]</text>
<polygon fill="none" stroke="#000000" points="869,-432.5 869,-462.5 1259,-462.5 1259,-432.5 869,-432.5"/>
<text text-anchor="start" x="876" y="-443.9" font-family="Arial" font-size="14.00" fill="#000000">id </text>
<text text-anchor="start" x="890.7798" y="-443.9" font-family="Arial" font-size="14.00" fill="#666666">[bigint]</text>
<polygon fill="none" stroke="#000000" points="869,-402.5 869,-432.5 1259,-432.5 1259,-402.5 869,-402.5"/>
<text text-anchor="start" x="876" y="-413.9" font-family="Arial" font-size="14.00" fill="#000000">name </text>
<text text-anchor="start" x="914.899" y="-413.9" font-family="Arial" font-size="14.00" fill="#666666">[varchar(50)]</text>
<polygon fill="none" stroke="#000000" points="869,-372.5 869,-402.5 1259,-402.5 1259,-372.5 869,-372.5"/>
<text text-anchor="start" x="876" y="-383.9" font-family="Arial" font-size="14.00" fill="#000000">email </text>
<text text-anchor="start" x="913.3296" y="-383.9" font-family="Arial" font-size="14.00" fill="#666666">[varchar(100)]</text>
<polygon fill="none" stroke="#000000" points="869,-342.5 869,-372.5 1259,-372.5 1259,-342.5 869,-342.5"/>
<text text-anchor="start" x="876" y="-353.9" font-family="Arial" font-size="14.00" fill="#000000">role </text>
<text text-anchor="start" x="903.223" y="-353.9" font-family="Arial" font-size="14.00" fill="#666666">[user_role]</text>
<polygon fill="none" stroke="#000000" points="869,-312.5 869,-342.5 1259,-342.5 1259,-312.5 869,-312.5"/>
<text text-anchor="start" x="876" y="-323.9" font-family="Arial" font-size="14.00" fill="#000000">avatar </text>
<text text-anchor="start" x="918.7896" y="-323.9" font-family="Arial" font-size="14.00" fill="#666666">[varchar]</text>
<polygon fill="none" stroke="#000000" points="869,-282.5 869,-312.5 1259,-312.5 1259,-282.5 869,-282.5"/>
<text text-anchor="start" x="876" y="-293.9" font-family="Arial" font-size="14.00" fill="#000000">introduction </text>
<text text-anchor="start" x="952.2412" y="-293.9" font-family="Arial" font-size="14.00" fill="#666666">[varchar(4000)]</text>
<polygon fill="none" stroke="#000000" points="869,-252.5 869,-282.5 1259,-282.5 1259,-252.5 869,-252.5"/>
<text text-anchor="start" x="876" y="-263.9" font-family="Arial" font-size="14.00" fill="#000000">email_verification_status </text>
<text text-anchor="start" x="1033.1332" y="-263.9" font-family="Arial" font-size="14.00" fill="#666666">[email_verification_status]</text>
<polygon fill="none" stroke="#000000" points="869,-222.5 869,-252.5 1259,-252.5 1259,-222.5 869,-222.5"/>
<text text-anchor="start" x="876" y="-233.9" font-family="Arial" font-size="14.00" fill="#000000">email_verification_pin </text>
<text text-anchor="start" x="1014.4586" y="-233.9" font-family="Arial" font-size="14.00" fill="#666666">[varchar]</text>
<polygon fill="none" stroke="#000000" points="869,-192.5 869,-222.5 1259,-222.5 1259,-192.5 869,-192.5"/>
<text text-anchor="start" x="875.7518" y="-203.9" font-family="Arial" font-size="14.00" fill="#000000">email_verification_pin_expires_at </text>
<text text-anchor="start" x="1086.5638" y="-203.9" font-family="Arial" font-size="14.00" fill="#666666">[timestamp with time zone]</text>
<polygon fill="none" stroke="#000000" points="869,-162.5 869,-192.5 1259,-192.5 1259,-162.5 869,-162.5"/>
<text text-anchor="start" x="876" y="-173.9" font-family="Arial" font-size="14.00" fill="#000000">password_digest </text>
<text text-anchor="start" x="984.9158" y="-173.9" font-family="Arial" font-size="14.00" fill="#666666">[varchar]</text>
<polygon fill="none" stroke="#000000" points="869,-132.5 869,-162.5 1259,-162.5 1259,-132.5 869,-132.5"/>
<text text-anchor="start" x="876" y="-143.9" font-family="Arial" font-size="14.00" fill="#000000">created_at </text>
<text text-anchor="start" x="946.028" y="-143.9" font-family="Arial" font-size="14.00" fill="#666666">[timestamp with time zone]</text>
<polygon fill="none" stroke="#000000" points="869,-102.5 869,-132.5 1259,-132.5 1259,-102.5 869,-102.5"/>
<text text-anchor="start" x="876" y="-113.9" font-family="Arial" font-size="14.00" fill="#000000">updated_at </text>
<text text-anchor="start" x="949.9326" y="-113.9" font-family="Arial" font-size="14.00" fill="#666666">[timestamp with time zone]</text>
<polygon fill="none" stroke="#000000" points="869,-72.5 869,-102.5 1259,-102.5 1259,-72.5 869,-72.5"/>
<text text-anchor="start" x="876" y="-83.9" font-family="Arial" font-size="14.00" fill="#000000">last_sign_in_at </text>
<text text-anchor="start" x="973.2524" y="-83.9" font-family="Arial" font-size="14.00" fill="#666666">[timestamp with time zone]</text>
<polygon fill="none" stroke="#000000" points="869,-42.5 869,-72.5 1259,-72.5 1259,-42.5 869,-42.5"/>
<text text-anchor="start" x="876" y="-53.9" font-family="Arial" font-size="14.00" fill="#000000">unverified_email </text>
<text text-anchor="start" x="981.7896" y="-53.9" font-family="Arial" font-size="14.00" fill="#666666">[varchar(100)]</text>
</g>
<!-- public.recruitments&#45;&gt;public.users -->
<g id="edge6" class="edge">
<title>public.recruitments:user_id&#45;&gt;public.users:id</title>
<path fill="none" stroke="#000000" d="M780.1306,-815.5093C849.282,-786.3863 787.5427,-447.5 869,-447.5"/>
<polygon fill="#000000" stroke="#000000" points="779.8124,-815.5718 769.1323,-813.0844 774.9062,-816.5359 770,-817.5 770,-817.5 770,-817.5 774.9062,-816.5359 770.8677,-821.9156 779.8124,-815.5718 779.8124,-815.5718"/>
<text text-anchor="start" x="777.0535" y="-827.5" font-family="Arial" font-size="10.00" fill="#000000">FOREIGN KEY (user_id) REFERENCES users(id) ON DELETE CASCADE</text>
</g>
<!-- public.stocks -->
<g id="node2" class="node">
<title>public.stocks</title>
<polygon fill="#efefef" stroke="transparent" points="155,-1427.5 155,-1462.5 408,-1462.5 408,-1427.5 155,-1427.5"/>
<polygon fill="none" stroke="#000000" points="155,-1427.5 155,-1462.5 408,-1462.5 408,-1427.5 155,-1427.5"/>
<text text-anchor="start" x="181.3643" y="-1440.3" font-family="Arial Bold" font-size="18.00" fill="#000000">public.stocks</text>
<text text-anchor="start" x="284.3819" y="-1440.3" font-family="Arial" font-size="14.00" fill="#000000"> </text>
<text text-anchor="start" x="288.2725" y="-1440.3" font-family="Arial" font-size="14.00" fill="#666666">[BASE TABLE]</text>
<polygon fill="none" stroke="#000000" points="155,-1397.5 155,-1427.5 408,-1427.5 408,-1397.5 155,-1397.5"/>
<text text-anchor="start" x="162" y="-1408.9" font-family="Arial" font-size="14.00" fill="#000000">id </text>
<text text-anchor="start" x="176.7798" y="-1408.9" font-family="Arial" font-size="14.00" fill="#666666">[bigint]</text>
<polygon fill="none" stroke="#000000" points="155,-1367.5 155,-1397.5 408,-1397.5 408,-1367.5 155,-1367.5"/>
<text text-anchor="start" x="162" y="-1378.9" font-family="Arial" font-size="14.00" fill="#000000">recruitment_id </text>
<text text-anchor="start" x="254.5624" y="-1378.9" font-family="Arial" font-size="14.00" fill="#666666">[bigint]</text>
<polygon fill="none" stroke="#000000" points="155,-1337.5 155,-1367.5 408,-1367.5 408,-1337.5 155,-1337.5"/>
<text text-anchor="start" x="162" y="-1348.9" font-family="Arial" font-size="14.00" fill="#000000">user_id </text>
<text text-anchor="start" x="211.7882" y="-1348.9" font-family="Arial" font-size="14.00" fill="#666666">[bigint]</text>
<polygon fill="none" stroke="#000000" points="155,-1307.5 155,-1337.5 408,-1337.5 408,-1307.5 155,-1307.5"/>
<text text-anchor="start" x="162" y="-1318.9" font-family="Arial" font-size="14.00" fill="#000000">created_at </text>
<text text-anchor="start" x="232.028" y="-1318.9" font-family="Arial" font-size="14.00" fill="#666666">[timestamp with time zone]</text>
<polygon fill="none" stroke="#000000" points="155,-1277.5 155,-1307.5 408,-1307.5 408,-1277.5 155,-1277.5"/>
<text text-anchor="start" x="161.6915" y="-1288.9" font-family="Arial" font-size="14.00" fill="#000000">updated_at </text>
<text text-anchor="start" x="235.6241" y="-1288.9" font-family="Arial" font-size="14.00" fill="#666666">[timestamp with time zone]</text>
</g>
<!-- public.stocks&#45;&gt;public.recruitments -->
<g id="edge1" class="edge">
<title>public.stocks:recruitment_id&#45;&gt;public.recruitments:id</title>
<path fill="none" stroke="#000000" d="M418.2183,-1381.8629C479.07,-1373.672 435.7261,-1288.1341 459,-1220 479.2958,-1160.5841 445.2133,-1087.5 508,-1087.5"/>
<polygon fill="#000000" stroke="#000000" points="417.9806,-1381.8776 407.7199,-1378.0087 412.9903,-1382.1888 408,-1382.5 408,-1382.5 408,-1382.5 412.9903,-1382.1888 408.2801,-1386.9913 417.9806,-1381.8776 417.9806,-1381.8776"/>
<text text-anchor="start" x="6.5005" y="-1392.5" font-family="Arial" font-size="10.00" fill="#000000">FOREIGN KEY (recruitment_id) REFERENCES recruitments(id) ON DELETE CASCADE</text>
</g>
<!-- public.applicants -->
<g id="node3" class="node">
<title>public.applicants</title>
<polygon fill="#efefef" stroke="transparent" points="512,-1442.5 512,-1477.5 765,-1477.5 765,-1442.5 512,-1442.5"/>
<polygon fill="none" stroke="#000000" points="512,-1442.5 512,-1477.5 765,-1477.5 765,-1442.5 512,-1442.5"/>
<text text-anchor="start" x="523.3577" y="-1455.3" font-family="Arial Bold" font-size="18.00" fill="#000000">public.applicants</text>
<text text-anchor="start" x="656.3885" y="-1455.3" font-family="Arial" font-size="14.00" fill="#000000"> </text>
<text text-anchor="start" x="660.2791" y="-1455.3" font-family="Arial" font-size="14.00" fill="#666666">[BASE TABLE]</text>
<polygon fill="none" stroke="#000000" points="512,-1412.5 512,-1442.5 765,-1442.5 765,-1412.5 512,-1412.5"/>
<text text-anchor="start" x="519" y="-1423.9" font-family="Arial" font-size="14.00" fill="#000000">id </text>
<text text-anchor="start" x="533.7798" y="-1423.9" font-family="Arial" font-size="14.00" fill="#666666">[bigint]</text>
<polygon fill="none" stroke="#000000" points="512,-1382.5 512,-1412.5 765,-1412.5 765,-1382.5 512,-1382.5"/>
<text text-anchor="start" x="519" y="-1393.9" font-family="Arial" font-size="14.00" fill="#000000">recruitment_id </text>
<text text-anchor="start" x="611.5624" y="-1393.9" font-family="Arial" font-size="14.00" fill="#666666">[bigint]</text>
<polygon fill="none" stroke="#000000" points="512,-1352.5 512,-1382.5 765,-1382.5 765,-1352.5 512,-1352.5"/>
<text text-anchor="start" x="519" y="-1363.9" font-family="Arial" font-size="14.00" fill="#000000">user_id </text>
<text text-anchor="start" x="568.7882" y="-1363.9" font-family="Arial" font-size="14.00" fill="#666666">[bigint]</text>
<polygon fill="none" stroke="#000000" points="512,-1322.5 512,-1352.5 765,-1352.5 765,-1322.5 512,-1322.5"/>
<text text-anchor="start" x="519" y="-1333.9" font-family="Arial" font-size="14.00" fill="#000000">created_at </text>
<text text-anchor="start" x="589.028" y="-1333.9" font-family="Arial" font-size="14.00" fill="#666666">[timestamp with time zone]</text>
<polygon fill="none" stroke="#000000" points="512,-1292.5 512,-1322.5 765,-1322.5 765,-1292.5 512,-1292.5"/>
<text text-anchor="start" x="518.6915" y="-1303.9" font-family="Arial" font-size="14.00" fill="#000000">updated_at </text>
<text text-anchor="start" x="592.6241" y="-1303.9" font-family="Arial" font-size="14.00" fill="#666666">[timestamp with time zone]</text>
<polygon fill="none" stroke="#000000" points="512,-1262.5 512,-1292.5 765,-1292.5 765,-1262.5 512,-1262.5"/>
<text text-anchor="start" x="519" y="-1273.9" font-family="Arial" font-size="14.00" fill="#000000">message </text>
<text text-anchor="start" x="579.6816" y="-1273.9" font-family="Arial" font-size="14.00" fill="#666666">[varchar(1000)]</text>
</g>
<!-- public.applicants&#45;&gt;public.recruitments -->
<g id="edge2" class="edge">
<title>public.applicants:recruitment_id&#45;&gt;public.recruitments:id</title>
<path fill="none" stroke="#000000" d="M774.9971,-1396.8018C841.4026,-1387.0188 814.4437,-1276.8524 765,-1220 689.3121,-1132.9709 583.6879,-1271.0291 508,-1184 479.855,-1151.6377 465.1111,-1087.5 508,-1087.5"/>
<polygon fill="#000000" stroke="#000000" points="774.9757,-1396.8032 764.6864,-1393.0109 769.9879,-1397.1516 765,-1397.5 765,-1397.5 765,-1397.5 769.9879,-1397.1516 765.3136,-1401.9891 774.9757,-1396.8032 774.9757,-1396.8032"/>
<text text-anchor="start" x="771.5005" y="-1407.5" font-family="Arial" font-size="10.00" fill="#000000">FOREIGN KEY (recruitment_id) REFERENCES recruitments(id) ON DELETE CASCADE</text>
</g>
<!-- public.recruitment_tags -->
<g id="node4" class="node">
<title>public.recruitment_tags</title>
<polygon fill="#efefef" stroke="transparent" points="869,-1427.5 869,-1462.5 1166,-1462.5 1166,-1427.5 869,-1427.5"/>
<polygon fill="none" stroke="#000000" points="869,-1427.5 869,-1462.5 1166,-1462.5 1166,-1427.5 869,-1427.5"/>
<text text-anchor="start" x="875.8581" y="-1440.3" font-family="Arial Bold" font-size="18.00" fill="#000000">public.recruitment_tags</text>
<text text-anchor="start" x="1061.8881" y="-1440.3" font-family="Arial" font-size="14.00" fill="#000000"> </text>
<text text-anchor="start" x="1065.7787" y="-1440.3" font-family="Arial" font-size="14.00" fill="#666666">[BASE TABLE]</text>
<polygon fill="none" stroke="#000000" points="869,-1397.5 869,-1427.5 1166,-1427.5 1166,-1397.5 869,-1397.5"/>
<text text-anchor="start" x="876" y="-1408.9" font-family="Arial" font-size="14.00" fill="#000000">id </text>
<text text-anchor="start" x="890.7798" y="-1408.9" font-family="Arial" font-size="14.00" fill="#666666">[bigint]</text>
<polygon fill="none" stroke="#000000" points="869,-1367.5 869,-1397.5 1166,-1397.5 1166,-1367.5 869,-1367.5"/>
<text text-anchor="start" x="876" y="-1378.9" font-family="Arial" font-size="14.00" fill="#000000">recruitment_id </text>
<text text-anchor="start" x="968.5624" y="-1378.9" font-family="Arial" font-size="14.00" fill="#666666">[bigint]</text>
<polygon fill="none" stroke="#000000" points="869,-1337.5 869,-1367.5 1166,-1367.5 1166,-1337.5 869,-1337.5"/>
<text text-anchor="start" x="876" y="-1348.9" font-family="Arial" font-size="14.00" fill="#000000">tag_id </text>
<text text-anchor="start" x="918.0182" y="-1348.9" font-family="Arial" font-size="14.00" fill="#666666">[bigint]</text>
<polygon fill="none" stroke="#000000" points="869,-1307.5 869,-1337.5 1166,-1337.5 1166,-1307.5 869,-1307.5"/>
<text text-anchor="start" x="876" y="-1318.9" font-family="Arial" font-size="14.00" fill="#000000">created_at </text>
<text text-anchor="start" x="946.028" y="-1318.9" font-family="Arial" font-size="14.00" fill="#666666">[timestamp with time zone]</text>
<polygon fill="none" stroke="#000000" points="869,-1277.5 869,-1307.5 1166,-1307.5 1166,-1277.5 869,-1277.5"/>
<text text-anchor="start" x="876" y="-1288.9" font-family="Arial" font-size="14.00" fill="#000000">updated_at </text>
<text text-anchor="start" x="949.9326" y="-1288.9" font-family="Arial" font-size="14.00" fill="#666666">[timestamp with time zone]</text>
</g>
<!-- public.recruitment_tags&#45;&gt;public.recruitments -->
<g id="edge3" class="edge">
<title>public.recruitment_tags:recruitment_id&#45;&gt;public.recruitments:id</title>
<path fill="none" stroke="#000000" d="M858.9334,-1380.1254C803.6944,-1352.2071 835.5021,-1087.5 770,-1087.5"/>
<polygon fill="#000000" stroke="#000000" points="859.2671,-1380.2041 867.9668,-1386.8798 864.1336,-1381.352 869,-1382.5 869,-1382.5 869,-1382.5 864.1336,-1381.352 870.0332,-1378.1202 859.2671,-1380.2041 859.2671,-1380.2041"/>
<text text-anchor="start" x="875.5005" y="-1366.5" font-family="Arial" font-size="10.00" fill="#000000">FOREIGN KEY (recruitment_id) REFERENCES recruitments(id) ON DELETE CASCADE</text>
</g>
</g>
</svg>
