<?xml version="1.0" encoding="UTF-8" standalone="no"?>
<!DOCTYPE svg PUBLIC "-//W3C//DTD SVG 1.1//EN"
 "http://www.w3.org/Graphics/SVG/1.1/DTD/svg11.dtd">
<!-- Generated by graphviz version 2.40.1 (20161225.0304)
 -->
<!-- Title: public.entries Pages: 1 -->
<svg width="962pt" height="832pt"
 viewBox="0.00 0.00 962.00 832.00" xmlns="http://www.w3.org/2000/svg" xmlns:xlink="http://www.w3.org/1999/xlink">
<g id="graph0" class="graph" transform="scale(1 1) rotate(0) translate(4 828)">
<title>public.entries</title>
<polygon fill="#ffffff" stroke="transparent" points="-4,4 -4,-828 958,-828 958,4 -4,4"/>
<!-- public.entries -->
<g id="node1" class="node">
<title>public.entries</title>
<polygon fill="#efefef" stroke="transparent" points="354,-742.5 354,-777.5 607,-777.5 607,-742.5 354,-742.5"/>
<polygon fill="none" stroke="#000000" points="354,-742.5 354,-777.5 607,-777.5 607,-742.5 354,-742.5"/>
<text text-anchor="start" x="378.8649" y="-755.3" font-family="Arial Bold" font-size="18.00" fill="#000000">public.entries</text>
<text text-anchor="start" x="484.8813" y="-755.3" font-family="Arial" font-size="14.00" fill="#000000"> </text>
<text text-anchor="start" x="488.7719" y="-755.3" font-family="Arial" font-size="14.00" fill="#666666">[BASE TABLE]</text>
<polygon fill="none" stroke="#000000" points="354,-712.5 354,-742.5 607,-742.5 607,-712.5 354,-712.5"/>
<text text-anchor="start" x="361" y="-723.9" font-family="Arial" font-size="14.00" fill="#000000">id </text>
<text text-anchor="start" x="375.7798" y="-723.9" font-family="Arial" font-size="14.00" fill="#666666">[bigint]</text>
<polygon fill="none" stroke="#000000" points="354,-682.5 354,-712.5 607,-712.5 607,-682.5 354,-682.5"/>
<text text-anchor="start" x="361" y="-693.9" font-family="Arial" font-size="14.00" fill="#000000">room_id </text>
<text text-anchor="start" x="415.4488" y="-693.9" font-family="Arial" font-size="14.00" fill="#666666">[bigint]</text>
<polygon fill="none" stroke="#000000" points="354,-652.5 354,-682.5 607,-682.5 607,-652.5 354,-652.5"/>
<text text-anchor="start" x="361" y="-663.9" font-family="Arial" font-size="14.00" fill="#000000">user_id </text>
<text text-anchor="start" x="410.7882" y="-663.9" font-family="Arial" font-size="14.00" fill="#666666">[bigint]</text>
<polygon fill="none" stroke="#000000" points="354,-622.5 354,-652.5 607,-652.5 607,-622.5 354,-622.5"/>
<text text-anchor="start" x="361" y="-633.9" font-family="Arial" font-size="14.00" fill="#000000">created_at </text>
<text text-anchor="start" x="431.028" y="-633.9" font-family="Arial" font-size="14.00" fill="#666666">[timestamp with time zone]</text>
<polygon fill="none" stroke="#000000" points="354,-592.5 354,-622.5 607,-622.5 607,-592.5 354,-592.5"/>
<text text-anchor="start" x="360.6915" y="-603.9" font-family="Arial" font-size="14.00" fill="#000000">updated_at </text>
<text text-anchor="start" x="434.6241" y="-603.9" font-family="Arial" font-size="14.00" fill="#666666">[timestamp with time zone]</text>
<polygon fill="none" stroke="#000000" stroke-width="3" points="352,-591.5 352,-779.5 608,-779.5 608,-591.5 352,-591.5"/>
</g>
<!-- public.rooms -->
<g id="node2" class="node">
<title>public.rooms</title>
<polygon fill="#efefef" stroke="transparent" points="138,-282.5 138,-317.5 391,-317.5 391,-282.5 138,-282.5"/>
<polygon fill="none" stroke="#000000" points="138,-282.5 138,-317.5 391,-317.5 391,-282.5 138,-282.5"/>
<text text-anchor="start" x="164.8701" y="-295.3" font-family="Arial Bold" font-size="18.00" fill="#000000">public.rooms</text>
<text text-anchor="start" x="266.8761" y="-295.3" font-family="Arial" font-size="14.00" fill="#000000"> </text>
<text text-anchor="start" x="270.7667" y="-295.3" font-family="Arial" font-size="14.00" fill="#666666">[BASE TABLE]</text>
<polygon fill="none" stroke="#000000" points="138,-252.5 138,-282.5 391,-282.5 391,-252.5 138,-252.5"/>
<text text-anchor="start" x="145" y="-263.9" font-family="Arial" font-size="14.00" fill="#000000">id </text>
<text text-anchor="start" x="159.7798" y="-263.9" font-family="Arial" font-size="14.00" fill="#666666">[bigint]</text>
<polygon fill="none" stroke="#000000" points="138,-222.5 138,-252.5 391,-252.5 391,-222.5 138,-222.5"/>
<text text-anchor="start" x="145" y="-233.9" font-family="Arial" font-size="14.00" fill="#000000">created_at </text>
<text text-anchor="start" x="215.028" y="-233.9" font-family="Arial" font-size="14.00" fill="#666666">[timestamp with time zone]</text>
<polygon fill="none" stroke="#000000" points="138,-192.5 138,-222.5 391,-222.5 391,-192.5 138,-192.5"/>
<text text-anchor="start" x="144.6915" y="-203.9" font-family="Arial" font-size="14.00" fill="#000000">updated_at </text>
<text text-anchor="start" x="218.6241" y="-203.9" font-family="Arial" font-size="14.00" fill="#666666">[timestamp with time zone]</text>
</g>
<!-- public.entries&#45;&gt;public.rooms -->
<g id="edge1" class="edge">
<title>public.entries:room_id&#45;&gt;public.rooms:id</title>
<path fill="none" stroke="#000000" d="M343.9474,-697.0614C177.5813,-681.691 579.2582,-267.5 391,-267.5"/>
<polygon fill="#000000" stroke="#000000" points="344.0095,-697.064 353.8038,-701.9957 349.0048,-697.282 354,-697.5 354,-697.5 354,-697.5 349.0048,-697.282 354.1962,-693.0043 344.0095,-697.064 344.0095,-697.064"/>
<text text-anchor="start" x="6.7245" y="-707.5" font-family="Arial" font-size="10.00" fill="#000000">FOREIGN KEY (room_id) REFERENCES rooms(id) ON DELETE CASCADE</text>
</g>
<!-- public.users -->
<g id="node3" class="node">
<title>public.users</title>
<polygon fill="#efefef" stroke="transparent" points="495,-432.5 495,-467.5 901,-467.5 901,-432.5 495,-432.5"/>
<polygon fill="none" stroke="#000000" points="495,-432.5 495,-467.5 901,-467.5 901,-432.5 495,-432.5"/>
<text text-anchor="start" x="601.3662" y="-445.3" font-family="Arial Bold" font-size="18.00" fill="#000000">public.users</text>
<text text-anchor="start" x="697.38" y="-445.3" font-family="Arial" font-size="14.00" fill="#000000"> </text>
<text text-anchor="start" x="701.2706" y="-445.3" font-family="Arial" font-size="14.00" fill="#666666">[BASE TABLE]</text>
<polygon fill="none" stroke="#000000" points="495,-402.5 495,-432.5 901,-432.5 901,-402.5 495,-402.5"/>
<text text-anchor="start" x="502" y="-413.9" font-family="Arial" font-size="14.00" fill="#000000">id </text>
<text text-anchor="start" x="516.7798" y="-413.9" font-family="Arial" font-size="14.00" fill="#666666">[bigint]</text>
<polygon fill="none" stroke="#000000" points="495,-372.5 495,-402.5 901,-402.5 901,-372.5 495,-372.5"/>
<text text-anchor="start" x="502" y="-383.9" font-family="Arial" font-size="14.00" fill="#000000">name </text>
<text text-anchor="start" x="540.899" y="-383.9" font-family="Arial" font-size="14.00" fill="#666666">[varchar(50)]</text>
<polygon fill="none" stroke="#000000" points="495,-342.5 495,-372.5 901,-372.5 901,-342.5 495,-342.5"/>
<text text-anchor="start" x="502" y="-353.9" font-family="Arial" font-size="14.00" fill="#000000">email </text>
<text text-anchor="start" x="539.3296" y="-353.9" font-family="Arial" font-size="14.00" fill="#666666">[varchar(100)]</text>
<polygon fill="none" stroke="#000000" points="495,-312.5 495,-342.5 901,-342.5 901,-312.5 495,-312.5"/>
<text text-anchor="start" x="502" y="-323.9" font-family="Arial" font-size="14.00" fill="#000000">role </text>
<text text-anchor="start" x="529.223" y="-323.9" font-family="Arial" font-size="14.00" fill="#666666">[varchar]</text>
<polygon fill="none" stroke="#000000" points="495,-282.5 495,-312.5 901,-312.5 901,-282.5 495,-282.5"/>
<text text-anchor="start" x="502" y="-293.9" font-family="Arial" font-size="14.00" fill="#000000">avatar </text>
<text text-anchor="start" x="544.7896" y="-293.9" font-family="Arial" font-size="14.00" fill="#666666">[varchar]</text>
<polygon fill="none" stroke="#000000" points="495,-252.5 495,-282.5 901,-282.5 901,-252.5 495,-252.5"/>
<text text-anchor="start" x="502" y="-263.9" font-family="Arial" font-size="14.00" fill="#000000">introduction </text>
<text text-anchor="start" x="578.2412" y="-263.9" font-family="Arial" font-size="14.00" fill="#666666">[varchar(4000)]</text>
<polygon fill="none" stroke="#000000" points="495,-222.5 495,-252.5 901,-252.5 901,-222.5 495,-222.5"/>
<text text-anchor="start" x="502" y="-233.9" font-family="Arial" font-size="14.00" fill="#000000">email_verification_status </text>
<text text-anchor="start" x="659.1332" y="-233.9" font-family="Arial" font-size="14.00" fill="#666666">[varchar]</text>
<polygon fill="none" stroke="#000000" points="495,-192.5 495,-222.5 901,-222.5 901,-192.5 495,-192.5"/>
<text text-anchor="start" x="502" y="-203.9" font-family="Arial" font-size="14.00" fill="#000000">email_verification_token </text>
<text text-anchor="start" x="656.0252" y="-203.9" font-family="Arial" font-size="14.00" fill="#666666">[varchar]</text>
<polygon fill="none" stroke="#000000" points="495,-162.5 495,-192.5 901,-192.5 901,-162.5 495,-162.5"/>
<text text-anchor="start" x="501.9685" y="-173.9" font-family="Arial" font-size="14.00" fill="#000000">email_verification_token_expires_at </text>
<text text-anchor="start" x="728.3471" y="-173.9" font-family="Arial" font-size="14.00" fill="#666666">[timestamp with time zone]</text>
<polygon fill="none" stroke="#000000" points="495,-132.5 495,-162.5 901,-162.5 901,-132.5 495,-132.5"/>
<text text-anchor="start" x="502" y="-143.9" font-family="Arial" font-size="14.00" fill="#000000">password_digest </text>
<text text-anchor="start" x="610.9158" y="-143.9" font-family="Arial" font-size="14.00" fill="#666666">[varchar]</text>
<polygon fill="none" stroke="#000000" points="495,-102.5 495,-132.5 901,-132.5 901,-102.5 495,-102.5"/>
<text text-anchor="start" x="502" y="-113.9" font-family="Arial" font-size="14.00" fill="#000000">created_at </text>
<text text-anchor="start" x="572.028" y="-113.9" font-family="Arial" font-size="14.00" fill="#666666">[timestamp with time zone]</text>
<polygon fill="none" stroke="#000000" points="495,-72.5 495,-102.5 901,-102.5 901,-72.5 495,-72.5"/>
<text text-anchor="start" x="502" y="-83.9" font-family="Arial" font-size="14.00" fill="#000000">updated_at </text>
<text text-anchor="start" x="575.9326" y="-83.9" font-family="Arial" font-size="14.00" fill="#666666">[timestamp with time zone]</text>
<polygon fill="none" stroke="#000000" points="495,-42.5 495,-72.5 901,-72.5 901,-42.5 495,-42.5"/>
<text text-anchor="start" x="502" y="-53.9" font-family="Arial" font-size="14.00" fill="#000000">last_sign_in_at </text>
<text text-anchor="start" x="599.2524" y="-53.9" font-family="Arial" font-size="14.00" fill="#666666">[timestamp with time zone]</text>
</g>
<!-- public.entries&#45;&gt;public.users -->
<g id="edge2" class="edge">
<title>public.entries:user_id&#45;&gt;public.users:id</title>
<path fill="none" stroke="#000000" d="M617.1991,-666.3933C657.4135,-656.8084 636.3294,-587.2346 607,-547 576.2002,-504.7484 525.7998,-553.2516 495,-511 470.5212,-477.4195 453.4444,-417.5 495,-417.5"/>
<polygon fill="#000000" stroke="#000000" points="616.9416,-666.4212 606.5145,-663.0263 611.9708,-666.9606 607,-667.5 607,-667.5 607,-667.5 611.9708,-666.9606 607.4855,-671.9737 616.9416,-666.4212 616.9416,-666.4212"/>
<text text-anchor="start" x="614.329" y="-677.5" font-family="Arial" font-size="10.00" fill="#000000">FOREIGN KEY (user_id) REFERENCES users(id) ON DELETE SET NULL</text>
</g>
</g>
</svg>
