<?xml version="1.0" encoding="UTF-8" standalone="no"?>
<!DOCTYPE svg PUBLIC "-//W3C//DTD SVG 1.1//EN"
 "http://www.w3.org/Graphics/SVG/1.1/DTD/svg11.dtd">
<!-- Generated by graphviz version 2.40.1 (20161225.0304)
 -->
<!-- Title: public.competitions Pages: 1 -->
<svg width="729pt" height="892pt"
 viewBox="0.00 0.00 729.00 892.00" xmlns="http://www.w3.org/2000/svg" xmlns:xlink="http://www.w3.org/1999/xlink">
<g id="graph0" class="graph" transform="scale(1 1) rotate(0) translate(4 888)">
<title>public.competitions</title>
<polygon fill="#ffffff" stroke="transparent" points="-4,4 -4,-888 725,-888 725,4 -4,4"/>
<!-- public.competitions -->
<g id="node1" class="node">
<title>public.competitions</title>
<polygon fill="#efefef" stroke="transparent" points="46,-165.5 46,-200.5 310,-200.5 310,-165.5 46,-165.5"/>
<polygon fill="none" stroke="#000000" points="46,-165.5 46,-200.5 310,-200.5 310,-165.5 46,-165.5"/>
<text text-anchor="start" x="52.8605" y="-178.3" font-family="Arial Bold" font-size="18.00" fill="#000000">public.competitions</text>
<text text-anchor="start" x="205.8857" y="-178.3" font-family="Arial" font-size="14.00" fill="#000000"> </text>
<text text-anchor="start" x="209.7763" y="-178.3" font-family="Arial" font-size="14.00" fill="#666666">[BASE TABLE]</text>
<polygon fill="none" stroke="#000000" points="46,-135.5 46,-165.5 310,-165.5 310,-135.5 46,-135.5"/>
<text text-anchor="start" x="53" y="-146.9" font-family="Arial" font-size="14.00" fill="#000000">id </text>
<text text-anchor="start" x="67.7798" y="-146.9" font-family="Arial" font-size="14.00" fill="#666666">[varchar]</text>
<polygon fill="none" stroke="#000000" points="46,-105.5 46,-135.5 310,-135.5 310,-105.5 46,-105.5"/>
<text text-anchor="start" x="53" y="-116.9" font-family="Arial" font-size="14.00" fill="#000000">name </text>
<text text-anchor="start" x="91.899" y="-116.9" font-family="Arial" font-size="14.00" fill="#666666">[varchar]</text>
<polygon fill="none" stroke="#000000" points="46,-75.5 46,-105.5 310,-105.5 310,-75.5 46,-75.5"/>
<text text-anchor="start" x="53" y="-86.9" font-family="Arial" font-size="14.00" fill="#000000">created_at </text>
<text text-anchor="start" x="123.028" y="-86.9" font-family="Arial" font-size="14.00" fill="#666666">[timestamp with time zone]</text>
<polygon fill="none" stroke="#000000" points="46,-45.5 46,-75.5 310,-75.5 310,-45.5 46,-45.5"/>
<text text-anchor="start" x="53" y="-56.9" font-family="Arial" font-size="14.00" fill="#000000">updated_at </text>
<text text-anchor="start" x="126.9326" y="-56.9" font-family="Arial" font-size="14.00" fill="#666666">[timestamp with time zone]</text>
<polygon fill="none" stroke="#000000" stroke-width="3" points="44.5,-44.5 44.5,-202.5 311.5,-202.5 311.5,-44.5 44.5,-44.5"/>
</g>
<!-- public.recruitments -->
<g id="node2" class="node">
<title>public.recruitments</title>
<polygon fill="#efefef" stroke="transparent" points="47,-805.5 47,-840.5 309,-840.5 309,-805.5 47,-805.5"/>
<polygon fill="none" stroke="#000000" points="47,-805.5 47,-840.5 309,-840.5 309,-805.5 47,-805.5"/>
<text text-anchor="start" x="53.8685" y="-818.3" font-family="Arial Bold" font-size="18.00" fill="#000000">public.recruitments</text>
<text text-anchor="start" x="204.8777" y="-818.3" font-family="Arial" font-size="14.00" fill="#000000"> </text>
<text text-anchor="start" x="208.7683" y="-818.3" font-family="Arial" font-size="14.00" fill="#666666">[BASE TABLE]</text>
<polygon fill="none" stroke="#000000" points="47,-775.5 47,-805.5 309,-805.5 309,-775.5 47,-775.5"/>
<text text-anchor="start" x="54" y="-786.9" font-family="Arial" font-size="14.00" fill="#000000">id </text>
<text text-anchor="start" x="68.7798" y="-786.9" font-family="Arial" font-size="14.00" fill="#666666">[varchar]</text>
<polygon fill="none" stroke="#000000" points="47,-745.5 47,-775.5 309,-775.5 309,-745.5 47,-745.5"/>
<text text-anchor="start" x="54" y="-756.9" font-family="Arial" font-size="14.00" fill="#000000">title </text>
<text text-anchor="start" x="79.6676" y="-756.9" font-family="Arial" font-size="14.00" fill="#666666">[varchar(60)]</text>
<polygon fill="none" stroke="#000000" points="47,-715.5 47,-745.5 309,-745.5 309,-715.5 47,-715.5"/>
<text text-anchor="start" x="54" y="-726.9" font-family="Arial" font-size="14.00" fill="#000000">type </text>
<text text-anchor="start" x="84.3464" y="-726.9" font-family="Arial" font-size="14.00" fill="#666666">[varchar]</text>
<polygon fill="none" stroke="#000000" points="47,-685.5 47,-715.5 309,-715.5 309,-685.5 47,-685.5"/>
<text text-anchor="start" x="54" y="-696.9" font-family="Arial" font-size="14.00" fill="#000000">place </text>
<text text-anchor="start" x="91.345" y="-696.9" font-family="Arial" font-size="14.00" fill="#666666">[varchar]</text>
<polygon fill="none" stroke="#000000" points="47,-655.5 47,-685.5 309,-685.5 309,-655.5 47,-655.5"/>
<text text-anchor="start" x="54" y="-666.9" font-family="Arial" font-size="14.00" fill="#000000">start_at </text>
<text text-anchor="start" x="104.5708" y="-666.9" font-family="Arial" font-size="14.00" fill="#666666">[timestamp with time zone]</text>
<polygon fill="none" stroke="#000000" points="47,-625.5 47,-655.5 309,-655.5 309,-625.5 47,-625.5"/>
<text text-anchor="start" x="54" y="-636.9" font-family="Arial" font-size="14.00" fill="#000000">detail </text>
<text text-anchor="start" x="91.3422" y="-636.9" font-family="Arial" font-size="14.00" fill="#666666">[varchar(10000)]</text>
<polygon fill="none" stroke="#000000" points="47,-595.5 47,-625.5 309,-625.5 309,-595.5 47,-595.5"/>
<text text-anchor="start" x="54" y="-606.9" font-family="Arial" font-size="14.00" fill="#000000">closing_at </text>
<text text-anchor="start" x="120.9074" y="-606.9" font-family="Arial" font-size="14.00" fill="#666666">[timestamp with time zone]</text>
<polygon fill="none" stroke="#000000" points="47,-565.5 47,-595.5 309,-595.5 309,-565.5 47,-565.5"/>
<text text-anchor="start" x="54" y="-576.9" font-family="Arial" font-size="14.00" fill="#000000">competition_id </text>
<text text-anchor="start" x="148.1304" y="-576.9" font-family="Arial" font-size="14.00" fill="#666666">[varchar]</text>
<polygon fill="none" stroke="#000000" points="47,-535.5 47,-565.5 309,-565.5 309,-535.5 47,-535.5"/>
<text text-anchor="start" x="54" y="-546.9" font-family="Arial" font-size="14.00" fill="#000000">prefecture_id </text>
<text text-anchor="start" x="139.5778" y="-546.9" font-family="Arial" font-size="14.00" fill="#666666">[varchar]</text>
<polygon fill="none" stroke="#000000" points="47,-505.5 47,-535.5 309,-535.5 309,-505.5 47,-505.5"/>
<text text-anchor="start" x="54" y="-516.9" font-family="Arial" font-size="14.00" fill="#000000">user_id </text>
<text text-anchor="start" x="103.7882" y="-516.9" font-family="Arial" font-size="14.00" fill="#666666">[varchar]</text>
<polygon fill="none" stroke="#000000" points="47,-475.5 47,-505.5 309,-505.5 309,-475.5 47,-475.5"/>
<text text-anchor="start" x="54" y="-486.9" font-family="Arial" font-size="14.00" fill="#000000">created_at </text>
<text text-anchor="start" x="124.028" y="-486.9" font-family="Arial" font-size="14.00" fill="#666666">[timestamp with time zone]</text>
<polygon fill="none" stroke="#000000" points="47,-445.5 47,-475.5 309,-475.5 309,-445.5 47,-445.5"/>
<text text-anchor="start" x="54" y="-456.9" font-family="Arial" font-size="14.00" fill="#000000">updated_at </text>
<text text-anchor="start" x="127.9326" y="-456.9" font-family="Arial" font-size="14.00" fill="#666666">[timestamp with time zone]</text>
<polygon fill="none" stroke="#000000" points="47,-415.5 47,-445.5 309,-445.5 309,-415.5 47,-415.5"/>
<text text-anchor="start" x="54" y="-426.9" font-family="Arial" font-size="14.00" fill="#000000">location_lat </text>
<text text-anchor="start" x="128.6872" y="-426.9" font-family="Arial" font-size="14.00" fill="#666666">[double precision]</text>
<polygon fill="none" stroke="#000000" points="47,-385.5 47,-415.5 309,-415.5 309,-385.5 47,-385.5"/>
<text text-anchor="start" x="54" y="-396.9" font-family="Arial" font-size="14.00" fill="#000000">location_lng </text>
<text text-anchor="start" x="132.5792" y="-396.9" font-family="Arial" font-size="14.00" fill="#666666">[double precision]</text>
<polygon fill="none" stroke="#000000" points="47,-355.5 47,-385.5 309,-385.5 309,-355.5 47,-355.5"/>
<text text-anchor="start" x="54" y="-366.9" font-family="Arial" font-size="14.00" fill="#000000">status </text>
<text text-anchor="start" x="95.237" y="-366.9" font-family="Arial" font-size="14.00" fill="#666666">[varchar]</text>
<polygon fill="none" stroke="#000000" points="47,-325.5 47,-355.5 309,-355.5 309,-325.5 47,-325.5"/>
<text text-anchor="start" x="53.5302" y="-336.9" font-family="Arial" font-size="14.00" fill="#000000">published_at </text>
<text text-anchor="start" x="136.7854" y="-336.9" font-family="Arial" font-size="14.00" fill="#666666">[timestamp with time zone]</text>
</g>
<!-- public.recruitments&#45;&gt;public.competitions -->
<g id="edge1" class="edge">
<title>public.recruitments:competition_id&#45;&gt;public.competitions:id</title>
<path fill="none" stroke="#000000" d="M318.9877,-578.8564C404.502,-549.9872 402.1031,-150.5 310,-150.5"/>
<polygon fill="#000000" stroke="#000000" points="318.8673,-578.8761 308.2692,-576.0597 313.9336,-579.688 309,-580.5 309,-580.5 309,-580.5 313.9336,-579.688 309.7308,-584.9403 318.8673,-578.8761 318.8673,-578.8761"/>
<text text-anchor="start" x="315.551" y="-590.5" font-family="Arial" font-size="10.00" fill="#000000">FOREIGN KEY (competition_id) REFERENCES competitions(id) ON DELETE RESTRICT</text>
</g>
</g>
</svg>
