<?xml version="1.0" encoding="UTF-8" standalone="no"?>
<!DOCTYPE svg PUBLIC "-//W3C//DTD SVG 1.1//EN"
 "http://www.w3.org/Graphics/SVG/1.1/DTD/svg11.dtd">
<!-- Generated by graphviz version 2.40.1 (20161225.0304)
 -->
<!-- Title: connefut_db Pages: 1 -->
<svg width="2322pt" height="1860pt"
 viewBox="0.00 0.00 2322.00 1860.00" xmlns="http://www.w3.org/2000/svg" xmlns:xlink="http://www.w3.org/1999/xlink">
<g id="graph0" class="graph" transform="scale(1 1) rotate(0) translate(4 1856)">
<title>connefut_db</title>
<polygon fill="#ffffff" stroke="transparent" points="-4,4 -4,-1856 2318,-1856 2318,4 -4,4"/>
<!-- public.schema_migrations -->
<g id="node1" class="node">
<title>public.schema_migrations</title>
<polygon fill="#efefef" stroke="transparent" points="868,-1698.5 868,-1733.5 1187,-1733.5 1187,-1698.5 868,-1698.5"/>
<polygon fill="none" stroke="#000000" points="868,-1698.5 868,-1733.5 1187,-1733.5 1187,-1698.5 868,-1698.5"/>
<text text-anchor="start" x="874.8601" y="-1711.3" font-family="Arial Bold" font-size="18.00" fill="#000000">public.schema_migrations</text>
<text text-anchor="start" x="1082.8861" y="-1711.3" font-family="Arial" font-size="14.00" fill="#000000"> </text>
<text text-anchor="start" x="1086.7767" y="-1711.3" font-family="Arial" font-size="14.00" fill="#666666">[BASE TABLE]</text>
<polygon fill="none" stroke="#000000" points="868,-1668.5 868,-1698.5 1187,-1698.5 1187,-1668.5 868,-1668.5"/>
<text text-anchor="start" x="875" y="-1679.9" font-family="Arial" font-size="14.00" fill="#000000">version </text>
<text text-anchor="start" x="924.0056" y="-1679.9" font-family="Arial" font-size="14.00" fill="#666666">[bigint]</text>
<polygon fill="none" stroke="#000000" points="868,-1638.5 868,-1668.5 1187,-1668.5 1187,-1638.5 868,-1638.5"/>
<text text-anchor="start" x="875" y="-1649.9" font-family="Arial" font-size="14.00" fill="#000000">dirty </text>
<text text-anchor="start" x="905.331" y="-1649.9" font-family="Arial" font-size="14.00" fill="#666666">[boolean]</text>
</g>
<!-- public.users -->
<g id="node2" class="node">
<title>public.users</title>
<polygon fill="#efefef" stroke="transparent" points="1200,-432.5 1200,-467.5 1606,-467.5 1606,-432.5 1200,-432.5"/>
<polygon fill="none" stroke="#000000" points="1200,-432.5 1200,-467.5 1606,-467.5 1606,-432.5 1200,-432.5"/>
<text text-anchor="start" x="1306.3662" y="-445.3" font-family="Arial Bold" font-size="18.00" fill="#000000">public.users</text>
<text text-anchor="start" x="1402.38" y="-445.3" font-family="Arial" font-size="14.00" fill="#000000"> </text>
<text text-anchor="start" x="1406.2706" y="-445.3" font-family="Arial" font-size="14.00" fill="#666666">[BASE TABLE]</text>
<polygon fill="none" stroke="#000000" points="1200,-402.5 1200,-432.5 1606,-432.5 1606,-402.5 1200,-402.5"/>
<text text-anchor="start" x="1207" y="-413.9" font-family="Arial" font-size="14.00" fill="#000000">id </text>
<text text-anchor="start" x="1221.7798" y="-413.9" font-family="Arial" font-size="14.00" fill="#666666">[bigint]</text>
<polygon fill="none" stroke="#000000" points="1200,-372.5 1200,-402.5 1606,-402.5 1606,-372.5 1200,-372.5"/>
<text text-anchor="start" x="1207" y="-383.9" font-family="Arial" font-size="14.00" fill="#000000">name </text>
<text text-anchor="start" x="1245.899" y="-383.9" font-family="Arial" font-size="14.00" fill="#666666">[varchar(50)]</text>
<polygon fill="none" stroke="#000000" points="1200,-342.5 1200,-372.5 1606,-372.5 1606,-342.5 1200,-342.5"/>
<text text-anchor="start" x="1207" y="-353.9" font-family="Arial" font-size="14.00" fill="#000000">email </text>
<text text-anchor="start" x="1244.3296" y="-353.9" font-family="Arial" font-size="14.00" fill="#666666">[varchar(100)]</text>
<polygon fill="none" stroke="#000000" points="1200,-312.5 1200,-342.5 1606,-342.5 1606,-312.5 1200,-312.5"/>
<text text-anchor="start" x="1207" y="-323.9" font-family="Arial" font-size="14.00" fill="#000000">role </text>
<text text-anchor="start" x="1234.223" y="-323.9" font-family="Arial" font-size="14.00" fill="#666666">[varchar]</text>
<polygon fill="none" stroke="#000000" points="1200,-282.5 1200,-312.5 1606,-312.5 1606,-282.5 1200,-282.5"/>
<text text-anchor="start" x="1207" y="-293.9" font-family="Arial" font-size="14.00" fill="#000000">avatar </text>
<text text-anchor="start" x="1249.7896" y="-293.9" font-family="Arial" font-size="14.00" fill="#666666">[varchar]</text>
<polygon fill="none" stroke="#000000" points="1200,-252.5 1200,-282.5 1606,-282.5 1606,-252.5 1200,-252.5"/>
<text text-anchor="start" x="1207" y="-263.9" font-family="Arial" font-size="14.00" fill="#000000">introduction </text>
<text text-anchor="start" x="1283.2412" y="-263.9" font-family="Arial" font-size="14.00" fill="#666666">[varchar(4000)]</text>
<polygon fill="none" stroke="#000000" points="1200,-222.5 1200,-252.5 1606,-252.5 1606,-222.5 1200,-222.5"/>
<text text-anchor="start" x="1207" y="-233.9" font-family="Arial" font-size="14.00" fill="#000000">email_verification_status </text>
<text text-anchor="start" x="1364.1332" y="-233.9" font-family="Arial" font-size="14.00" fill="#666666">[varchar]</text>
<polygon fill="none" stroke="#000000" points="1200,-192.5 1200,-222.5 1606,-222.5 1606,-192.5 1200,-192.5"/>
<text text-anchor="start" x="1207" y="-203.9" font-family="Arial" font-size="14.00" fill="#000000">email_verification_token </text>
<text text-anchor="start" x="1361.0252" y="-203.9" font-family="Arial" font-size="14.00" fill="#666666">[varchar]</text>
<polygon fill="none" stroke="#000000" points="1200,-162.5 1200,-192.5 1606,-192.5 1606,-162.5 1200,-162.5"/>
<text text-anchor="start" x="1206.9685" y="-173.9" font-family="Arial" font-size="14.00" fill="#000000">email_verification_token_expires_at </text>
<text text-anchor="start" x="1433.3471" y="-173.9" font-family="Arial" font-size="14.00" fill="#666666">[timestamp with time zone]</text>
<polygon fill="none" stroke="#000000" points="1200,-132.5 1200,-162.5 1606,-162.5 1606,-132.5 1200,-132.5"/>
<text text-anchor="start" x="1207" y="-143.9" font-family="Arial" font-size="14.00" fill="#000000">password_digest </text>
<text text-anchor="start" x="1315.9158" y="-143.9" font-family="Arial" font-size="14.00" fill="#666666">[varchar]</text>
<polygon fill="none" stroke="#000000" points="1200,-102.5 1200,-132.5 1606,-132.5 1606,-102.5 1200,-102.5"/>
<text text-anchor="start" x="1207" y="-113.9" font-family="Arial" font-size="14.00" fill="#000000">created_at </text>
<text text-anchor="start" x="1277.028" y="-113.9" font-family="Arial" font-size="14.00" fill="#666666">[timestamp with time zone]</text>
<polygon fill="none" stroke="#000000" points="1200,-72.5 1200,-102.5 1606,-102.5 1606,-72.5 1200,-72.5"/>
<text text-anchor="start" x="1207" y="-83.9" font-family="Arial" font-size="14.00" fill="#000000">updated_at </text>
<text text-anchor="start" x="1280.9326" y="-83.9" font-family="Arial" font-size="14.00" fill="#666666">[timestamp with time zone]</text>
<polygon fill="none" stroke="#000000" points="1200,-42.5 1200,-72.5 1606,-72.5 1606,-42.5 1200,-42.5"/>
<text text-anchor="start" x="1207" y="-53.9" font-family="Arial" font-size="14.00" fill="#000000">last_sign_in_at </text>
<text text-anchor="start" x="1304.2524" y="-53.9" font-family="Arial" font-size="14.00" fill="#666666">[timestamp with time zone]</text>
</g>
<!-- public.prefectures -->
<g id="node3" class="node">
<title>public.prefectures</title>
<polygon fill="#efefef" stroke="transparent" points="418,-297.5 418,-332.5 671,-332.5 671,-297.5 418,-297.5"/>
<polygon fill="none" stroke="#000000" points="418,-297.5 418,-332.5 671,-332.5 671,-297.5 418,-297.5"/>
<text text-anchor="start" x="424.8586" y="-310.3" font-family="Arial Bold" font-size="18.00" fill="#000000">public.prefectures</text>
<text text-anchor="start" x="566.8876" y="-310.3" font-family="Arial" font-size="14.00" fill="#000000"> </text>
<text text-anchor="start" x="570.7782" y="-310.3" font-family="Arial" font-size="14.00" fill="#666666">[BASE TABLE]</text>
<polygon fill="none" stroke="#000000" points="418,-267.5 418,-297.5 671,-297.5 671,-267.5 418,-267.5"/>
<text text-anchor="start" x="425" y="-278.9" font-family="Arial" font-size="14.00" fill="#000000">id </text>
<text text-anchor="start" x="439.7798" y="-278.9" font-family="Arial" font-size="14.00" fill="#666666">[bigint]</text>
<polygon fill="none" stroke="#000000" points="418,-237.5 418,-267.5 671,-267.5 671,-237.5 418,-237.5"/>
<text text-anchor="start" x="425" y="-248.9" font-family="Arial" font-size="14.00" fill="#000000">name </text>
<text text-anchor="start" x="463.899" y="-248.9" font-family="Arial" font-size="14.00" fill="#666666">[varchar]</text>
<polygon fill="none" stroke="#000000" points="418,-207.5 418,-237.5 671,-237.5 671,-207.5 418,-207.5"/>
<text text-anchor="start" x="425" y="-218.9" font-family="Arial" font-size="14.00" fill="#000000">created_at </text>
<text text-anchor="start" x="495.028" y="-218.9" font-family="Arial" font-size="14.00" fill="#666666">[timestamp with time zone]</text>
<polygon fill="none" stroke="#000000" points="418,-177.5 418,-207.5 671,-207.5 671,-177.5 418,-177.5"/>
<text text-anchor="start" x="424.6915" y="-188.9" font-family="Arial" font-size="14.00" fill="#000000">updated_at </text>
<text text-anchor="start" x="498.6241" y="-188.9" font-family="Arial" font-size="14.00" fill="#666666">[timestamp with time zone]</text>
</g>
<!-- public.competitions -->
<g id="node4" class="node">
<title>public.competitions</title>
<polygon fill="#efefef" stroke="transparent" points="775,-297.5 775,-332.5 1039,-332.5 1039,-297.5 775,-297.5"/>
<polygon fill="none" stroke="#000000" points="775,-297.5 775,-332.5 1039,-332.5 1039,-297.5 775,-297.5"/>
<text text-anchor="start" x="781.8605" y="-310.3" font-family="Arial Bold" font-size="18.00" fill="#000000">public.competitions</text>
<text text-anchor="start" x="934.8857" y="-310.3" font-family="Arial" font-size="14.00" fill="#000000"> </text>
<text text-anchor="start" x="938.7763" y="-310.3" font-family="Arial" font-size="14.00" fill="#666666">[BASE TABLE]</text>
<polygon fill="none" stroke="#000000" points="775,-267.5 775,-297.5 1039,-297.5 1039,-267.5 775,-267.5"/>
<text text-anchor="start" x="782" y="-278.9" font-family="Arial" font-size="14.00" fill="#000000">id </text>
<text text-anchor="start" x="796.7798" y="-278.9" font-family="Arial" font-size="14.00" fill="#666666">[bigint]</text>
<polygon fill="none" stroke="#000000" points="775,-237.5 775,-267.5 1039,-267.5 1039,-237.5 775,-237.5"/>
<text text-anchor="start" x="782" y="-248.9" font-family="Arial" font-size="14.00" fill="#000000">name </text>
<text text-anchor="start" x="820.899" y="-248.9" font-family="Arial" font-size="14.00" fill="#666666">[varchar]</text>
<polygon fill="none" stroke="#000000" points="775,-207.5 775,-237.5 1039,-237.5 1039,-207.5 775,-207.5"/>
<text text-anchor="start" x="782" y="-218.9" font-family="Arial" font-size="14.00" fill="#000000">created_at </text>
<text text-anchor="start" x="852.028" y="-218.9" font-family="Arial" font-size="14.00" fill="#666666">[timestamp with time zone]</text>
<polygon fill="none" stroke="#000000" points="775,-177.5 775,-207.5 1039,-207.5 1039,-177.5 775,-177.5"/>
<text text-anchor="start" x="782" y="-188.9" font-family="Arial" font-size="14.00" fill="#000000">updated_at </text>
<text text-anchor="start" x="855.9326" y="-188.9" font-family="Arial" font-size="14.00" fill="#666666">[timestamp with time zone]</text>
</g>
<!-- public.recruitments -->
<g id="node5" class="node">
<title>public.recruitments</title>
<polygon fill="#efefef" stroke="transparent" points="747,-1069.5 747,-1104.5 1009,-1104.5 1009,-1069.5 747,-1069.5"/>
<polygon fill="none" stroke="#000000" points="747,-1069.5 747,-1104.5 1009,-1104.5 1009,-1069.5 747,-1069.5"/>
<text text-anchor="start" x="753.8685" y="-1082.3" font-family="Arial Bold" font-size="18.00" fill="#000000">public.recruitments</text>
<text text-anchor="start" x="904.8777" y="-1082.3" font-family="Arial" font-size="14.00" fill="#000000"> </text>
<text text-anchor="start" x="908.7683" y="-1082.3" font-family="Arial" font-size="14.00" fill="#666666">[BASE TABLE]</text>
<polygon fill="none" stroke="#000000" points="747,-1039.5 747,-1069.5 1009,-1069.5 1009,-1039.5 747,-1039.5"/>
<text text-anchor="start" x="754" y="-1050.9" font-family="Arial" font-size="14.00" fill="#000000">id </text>
<text text-anchor="start" x="768.7798" y="-1050.9" font-family="Arial" font-size="14.00" fill="#666666">[bigint]</text>
<polygon fill="none" stroke="#000000" points="747,-1009.5 747,-1039.5 1009,-1039.5 1009,-1009.5 747,-1009.5"/>
<text text-anchor="start" x="754" y="-1020.9" font-family="Arial" font-size="14.00" fill="#000000">title </text>
<text text-anchor="start" x="779.6676" y="-1020.9" font-family="Arial" font-size="14.00" fill="#666666">[varchar(60)]</text>
<polygon fill="none" stroke="#000000" points="747,-979.5 747,-1009.5 1009,-1009.5 1009,-979.5 747,-979.5"/>
<text text-anchor="start" x="754" y="-990.9" font-family="Arial" font-size="14.00" fill="#000000">type </text>
<text text-anchor="start" x="784.3464" y="-990.9" font-family="Arial" font-size="14.00" fill="#666666">[varchar]</text>
<polygon fill="none" stroke="#000000" points="747,-949.5 747,-979.5 1009,-979.5 1009,-949.5 747,-949.5"/>
<text text-anchor="start" x="754" y="-960.9" font-family="Arial" font-size="14.00" fill="#000000">place </text>
<text text-anchor="start" x="791.345" y="-960.9" font-family="Arial" font-size="14.00" fill="#666666">[varchar]</text>
<polygon fill="none" stroke="#000000" points="747,-919.5 747,-949.5 1009,-949.5 1009,-919.5 747,-919.5"/>
<text text-anchor="start" x="754" y="-930.9" font-family="Arial" font-size="14.00" fill="#000000">start_at </text>
<text text-anchor="start" x="804.5708" y="-930.9" font-family="Arial" font-size="14.00" fill="#666666">[timestamp with time zone]</text>
<polygon fill="none" stroke="#000000" points="747,-889.5 747,-919.5 1009,-919.5 1009,-889.5 747,-889.5"/>
<text text-anchor="start" x="754" y="-900.9" font-family="Arial" font-size="14.00" fill="#000000">detail </text>
<text text-anchor="start" x="791.3422" y="-900.9" font-family="Arial" font-size="14.00" fill="#666666">[varchar(10000)]</text>
<polygon fill="none" stroke="#000000" points="747,-859.5 747,-889.5 1009,-889.5 1009,-859.5 747,-859.5"/>
<text text-anchor="start" x="754" y="-870.9" font-family="Arial" font-size="14.00" fill="#000000">closing_at </text>
<text text-anchor="start" x="820.9074" y="-870.9" font-family="Arial" font-size="14.00" fill="#666666">[timestamp with time zone]</text>
<polygon fill="none" stroke="#000000" points="747,-829.5 747,-859.5 1009,-859.5 1009,-829.5 747,-829.5"/>
<text text-anchor="start" x="754" y="-840.9" font-family="Arial" font-size="14.00" fill="#000000">competition_id </text>
<text text-anchor="start" x="848.1304" y="-840.9" font-family="Arial" font-size="14.00" fill="#666666">[bigint]</text>
<polygon fill="none" stroke="#000000" points="747,-799.5 747,-829.5 1009,-829.5 1009,-799.5 747,-799.5"/>
<text text-anchor="start" x="754" y="-810.9" font-family="Arial" font-size="14.00" fill="#000000">prefecture_id </text>
<text text-anchor="start" x="839.5778" y="-810.9" font-family="Arial" font-size="14.00" fill="#666666">[bigint]</text>
<polygon fill="none" stroke="#000000" points="747,-769.5 747,-799.5 1009,-799.5 1009,-769.5 747,-769.5"/>
<text text-anchor="start" x="754" y="-780.9" font-family="Arial" font-size="14.00" fill="#000000">user_id </text>
<text text-anchor="start" x="803.7882" y="-780.9" font-family="Arial" font-size="14.00" fill="#666666">[bigint]</text>
<polygon fill="none" stroke="#000000" points="747,-739.5 747,-769.5 1009,-769.5 1009,-739.5 747,-739.5"/>
<text text-anchor="start" x="754" y="-750.9" font-family="Arial" font-size="14.00" fill="#000000">created_at </text>
<text text-anchor="start" x="824.028" y="-750.9" font-family="Arial" font-size="14.00" fill="#666666">[timestamp with time zone]</text>
<polygon fill="none" stroke="#000000" points="747,-709.5 747,-739.5 1009,-739.5 1009,-709.5 747,-709.5"/>
<text text-anchor="start" x="754" y="-720.9" font-family="Arial" font-size="14.00" fill="#000000">updated_at </text>
<text text-anchor="start" x="827.9326" y="-720.9" font-family="Arial" font-size="14.00" fill="#666666">[timestamp with time zone]</text>
<polygon fill="none" stroke="#000000" points="747,-679.5 747,-709.5 1009,-709.5 1009,-679.5 747,-679.5"/>
<text text-anchor="start" x="754" y="-690.9" font-family="Arial" font-size="14.00" fill="#000000">location_lat </text>
<text text-anchor="start" x="828.6872" y="-690.9" font-family="Arial" font-size="14.00" fill="#666666">[double precision]</text>
<polygon fill="none" stroke="#000000" points="747,-649.5 747,-679.5 1009,-679.5 1009,-649.5 747,-649.5"/>
<text text-anchor="start" x="754" y="-660.9" font-family="Arial" font-size="14.00" fill="#000000">location_lng </text>
<text text-anchor="start" x="832.5792" y="-660.9" font-family="Arial" font-size="14.00" fill="#666666">[double precision]</text>
<polygon fill="none" stroke="#000000" points="747,-619.5 747,-649.5 1009,-649.5 1009,-619.5 747,-619.5"/>
<text text-anchor="start" x="754" y="-630.9" font-family="Arial" font-size="14.00" fill="#000000">status </text>
<text text-anchor="start" x="795.237" y="-630.9" font-family="Arial" font-size="14.00" fill="#666666">[varchar]</text>
<polygon fill="none" stroke="#000000" points="747,-589.5 747,-619.5 1009,-619.5 1009,-589.5 747,-589.5"/>
<text text-anchor="start" x="753.5302" y="-600.9" font-family="Arial" font-size="14.00" fill="#000000">published_at </text>
<text text-anchor="start" x="836.7854" y="-600.9" font-family="Arial" font-size="14.00" fill="#666666">[timestamp with time zone]</text>
</g>
<!-- public.recruitments&#45;&gt;public.users -->
<g id="edge1" class="edge">
<title>public.recruitments:user_id&#45;&gt;public.users:id</title>
<path fill="none" stroke="#000000" d="M1019.1174,-784.1058C1186.2775,-770.6555 1019.6229,-417.5 1200,-417.5"/>
<polygon fill="#000000" stroke="#000000" points="1018.9924,-784.1106 1008.8248,-780.0034 1013.9962,-784.3053 1009,-784.5 1009,-784.5 1009,-784.5 1013.9962,-784.3053 1009.1752,-788.9966 1018.9924,-784.1106 1018.9924,-784.1106"/>
<text text-anchor="start" x="1016.0535" y="-794.5" font-family="Arial" font-size="10.00" fill="#000000">FOREIGN KEY (user_id) REFERENCES users(id) ON DELETE CASCADE</text>
</g>
<!-- public.recruitments&#45;&gt;public.prefectures -->
<g id="edge2" class="edge">
<title>public.recruitments:prefecture_id&#45;&gt;public.prefectures:id</title>
<path fill="none" stroke="#000000" d="M736.9144,-813.0668C637.1786,-782.7766 786.8071,-282.5 671,-282.5"/>
<polygon fill="#000000" stroke="#000000" points="737.0995,-813.093 746.3669,-818.9552 742.0497,-813.7965 747,-814.5 747,-814.5 747,-814.5 742.0497,-813.7965 747.6331,-810.0448 737.0995,-813.093 737.0995,-813.093"/>
<text text-anchor="start" x="753.66" y="-824.5" font-family="Arial" font-size="10.00" fill="#000000">FOREIGN KEY (prefecture_id) REFERENCES prefectures(id) ON DELETE RESTRICT</text>
</g>
<!-- public.recruitments&#45;&gt;public.competitions -->
<g id="edge3" class="edge">
<title>public.recruitments:competition_id&#45;&gt;public.competitions:id</title>
<path fill="none" stroke="#000000" d="M1019.0363,-844.1298C1137.4152,-835.0715 1067.2865,-661.7851 1009,-547 950.68,-432.1489 833.32,-490.8511 775,-376 756.1853,-338.9477 733.4444,-282.5 775,-282.5"/>
<polygon fill="#000000" stroke="#000000" points="1018.9932,-844.1313 1008.8341,-840.0031 1013.9966,-844.3157 1009,-844.5 1009,-844.5 1009,-844.5 1013.9966,-844.3157 1009.1659,-848.9969 1018.9932,-844.1313 1018.9932,-844.1313"/>
<text text-anchor="start" x="1015.551" y="-854.5" font-family="Arial" font-size="10.00" fill="#000000">FOREIGN KEY (competition_id) REFERENCES competitions(id) ON DELETE RESTRICT</text>
</g>
<!-- public.stocks -->
<g id="node6" class="node">
<title>public.stocks</title>
<polygon fill="#efefef" stroke="transparent" points="1094,-1391.5 1094,-1426.5 1347,-1426.5 1347,-1391.5 1094,-1391.5"/>
<polygon fill="none" stroke="#000000" points="1094,-1391.5 1094,-1426.5 1347,-1426.5 1347,-1391.5 1094,-1391.5"/>
<text text-anchor="start" x="1120.3643" y="-1404.3" font-family="Arial Bold" font-size="18.00" fill="#000000">public.stocks</text>
<text text-anchor="start" x="1223.3819" y="-1404.3" font-family="Arial" font-size="14.00" fill="#000000"> </text>
<text text-anchor="start" x="1227.2725" y="-1404.3" font-family="Arial" font-size="14.00" fill="#666666">[BASE TABLE]</text>
<polygon fill="none" stroke="#000000" points="1094,-1361.5 1094,-1391.5 1347,-1391.5 1347,-1361.5 1094,-1361.5"/>
<text text-anchor="start" x="1101" y="-1372.9" font-family="Arial" font-size="14.00" fill="#000000">id </text>
<text text-anchor="start" x="1115.7798" y="-1372.9" font-family="Arial" font-size="14.00" fill="#666666">[bigint]</text>
<polygon fill="none" stroke="#000000" points="1094,-1331.5 1094,-1361.5 1347,-1361.5 1347,-1331.5 1094,-1331.5"/>
<text text-anchor="start" x="1101" y="-1342.9" font-family="Arial" font-size="14.00" fill="#000000">recruitment_id </text>
<text text-anchor="start" x="1193.5624" y="-1342.9" font-family="Arial" font-size="14.00" fill="#666666">[bigint]</text>
<polygon fill="none" stroke="#000000" points="1094,-1301.5 1094,-1331.5 1347,-1331.5 1347,-1301.5 1094,-1301.5"/>
<text text-anchor="start" x="1101" y="-1312.9" font-family="Arial" font-size="14.00" fill="#000000">user_id </text>
<text text-anchor="start" x="1150.7882" y="-1312.9" font-family="Arial" font-size="14.00" fill="#666666">[bigint]</text>
<polygon fill="none" stroke="#000000" points="1094,-1271.5 1094,-1301.5 1347,-1301.5 1347,-1271.5 1094,-1271.5"/>
<text text-anchor="start" x="1101" y="-1282.9" font-family="Arial" font-size="14.00" fill="#000000">created_at </text>
<text text-anchor="start" x="1171.028" y="-1282.9" font-family="Arial" font-size="14.00" fill="#666666">[timestamp with time zone]</text>
<polygon fill="none" stroke="#000000" points="1094,-1241.5 1094,-1271.5 1347,-1271.5 1347,-1241.5 1094,-1241.5"/>
<text text-anchor="start" x="1100.6915" y="-1252.9" font-family="Arial" font-size="14.00" fill="#000000">updated_at </text>
<text text-anchor="start" x="1174.6241" y="-1252.9" font-family="Arial" font-size="14.00" fill="#666666">[timestamp with time zone]</text>
</g>
<!-- public.stocks&#45;&gt;public.users -->
<g id="edge4" class="edge">
<title>public.stocks:user_id&#45;&gt;public.users:id</title>
<path fill="none" stroke="#000000" d="M1357.0496,-1315.4489C1392.5121,-1306.8425 1352.079,-1247.0788 1347,-1199 1314.1516,-888.0507 1232.8484,-821.9493 1200,-511 1195.6344,-469.6744 1158.4444,-417.5 1200,-417.5"/>
<polygon fill="#000000" stroke="#000000" points="1356.9457,-1315.4596 1346.5318,-1312.0244 1351.9729,-1315.9798 1347,-1316.5 1347,-1316.5 1347,-1316.5 1351.9729,-1315.9798 1347.4682,-1320.9756 1356.9457,-1315.4596 1356.9457,-1315.4596"/>
<text text-anchor="start" x="1354.0535" y="-1326.5" font-family="Arial" font-size="10.00" fill="#000000">FOREIGN KEY (user_id) REFERENCES users(id) ON DELETE CASCADE</text>
</g>
<!-- public.stocks&#45;&gt;public.recruitments -->
<g id="edge5" class="edge">
<title>public.stocks:recruitment_id&#45;&gt;public.recruitments:id</title>
<path fill="none" stroke="#000000" d="M1083.965,-1345.9017C968.3859,-1331.3046 1140.6006,-1054.5 1009,-1054.5"/>
<polygon fill="#000000" stroke="#000000" points="1084.0177,-1345.9047 1093.7321,-1350.992 1089.0089,-1346.2024 1094,-1346.5 1094,-1346.5 1094,-1346.5 1089.0089,-1346.2024 1094.2679,-1342.008 1084.0177,-1345.9047 1084.0177,-1345.9047"/>
<text text-anchor="start" x="1100.5005" y="-1356.5" font-family="Arial" font-size="10.00" fill="#000000">FOREIGN KEY (recruitment_id) REFERENCES recruitments(id) ON DELETE CASCADE</text>
</g>
<!-- public.applicants -->
<g id="node7" class="node">
<title>public.applicants</title>
<polygon fill="#efefef" stroke="transparent" points="737,-1406.5 737,-1441.5 990,-1441.5 990,-1406.5 737,-1406.5"/>
<polygon fill="none" stroke="#000000" points="737,-1406.5 737,-1441.5 990,-1441.5 990,-1406.5 737,-1406.5"/>
<text text-anchor="start" x="748.3577" y="-1419.3" font-family="Arial Bold" font-size="18.00" fill="#000000">public.applicants</text>
<text text-anchor="start" x="881.3885" y="-1419.3" font-family="Arial" font-size="14.00" fill="#000000"> </text>
<text text-anchor="start" x="885.2791" y="-1419.3" font-family="Arial" font-size="14.00" fill="#666666">[BASE TABLE]</text>
<polygon fill="none" stroke="#000000" points="737,-1376.5 737,-1406.5 990,-1406.5 990,-1376.5 737,-1376.5"/>
<text text-anchor="start" x="744" y="-1387.9" font-family="Arial" font-size="14.00" fill="#000000">id </text>
<text text-anchor="start" x="758.7798" y="-1387.9" font-family="Arial" font-size="14.00" fill="#666666">[bigint]</text>
<polygon fill="none" stroke="#000000" points="737,-1346.5 737,-1376.5 990,-1376.5 990,-1346.5 737,-1346.5"/>
<text text-anchor="start" x="744" y="-1357.9" font-family="Arial" font-size="14.00" fill="#000000">recruitment_id </text>
<text text-anchor="start" x="836.5624" y="-1357.9" font-family="Arial" font-size="14.00" fill="#666666">[bigint]</text>
<polygon fill="none" stroke="#000000" points="737,-1316.5 737,-1346.5 990,-1346.5 990,-1316.5 737,-1316.5"/>
<text text-anchor="start" x="744" y="-1327.9" font-family="Arial" font-size="14.00" fill="#000000">user_id </text>
<text text-anchor="start" x="793.7882" y="-1327.9" font-family="Arial" font-size="14.00" fill="#666666">[bigint]</text>
<polygon fill="none" stroke="#000000" points="737,-1286.5 737,-1316.5 990,-1316.5 990,-1286.5 737,-1286.5"/>
<text text-anchor="start" x="744" y="-1297.9" font-family="Arial" font-size="14.00" fill="#000000">created_at </text>
<text text-anchor="start" x="814.028" y="-1297.9" font-family="Arial" font-size="14.00" fill="#666666">[timestamp with time zone]</text>
<polygon fill="none" stroke="#000000" points="737,-1256.5 737,-1286.5 990,-1286.5 990,-1256.5 737,-1256.5"/>
<text text-anchor="start" x="743.6915" y="-1267.9" font-family="Arial" font-size="14.00" fill="#000000">updated_at </text>
<text text-anchor="start" x="817.6241" y="-1267.9" font-family="Arial" font-size="14.00" fill="#666666">[timestamp with time zone]</text>
<polygon fill="none" stroke="#000000" points="737,-1226.5 737,-1256.5 990,-1256.5 990,-1226.5 737,-1226.5"/>
<text text-anchor="start" x="744" y="-1237.9" font-family="Arial" font-size="14.00" fill="#000000">message </text>
<text text-anchor="start" x="804.6816" y="-1237.9" font-family="Arial" font-size="14.00" fill="#666666">[varchar(1000)]</text>
</g>
<!-- public.applicants&#45;&gt;public.users -->
<g id="edge6" class="edge">
<title>public.applicants:user_id&#45;&gt;public.users:id</title>
<path fill="none" stroke="#000000" d="M1000.0337,-1330.8132C1054.6522,-1322.6812 1014.208,-1243.9953 1041,-1184 1048.4633,-1167.2874 1054.7657,-1165.2089 1061,-1148 1117.2844,-992.635 1034.754,-417.5 1200,-417.5"/>
<polygon fill="#000000" stroke="#000000" points="999.9767,-1330.817 989.6927,-1327.0105 994.9883,-1331.1585 990,-1331.5 990,-1331.5 990,-1331.5 994.9883,-1331.1585 990.3073,-1335.9895 999.9767,-1330.817 999.9767,-1330.817"/>
<text text-anchor="start" x="650.0535" y="-1341.5" font-family="Arial" font-size="10.00" fill="#000000">FOREIGN KEY (user_id) REFERENCES users(id) ON DELETE CASCADE</text>
</g>
<!-- public.applicants&#45;&gt;public.recruitments -->
<g id="edge7" class="edge">
<title>public.applicants:recruitment_id&#45;&gt;public.recruitments:id</title>
<path fill="none" stroke="#000000" d="M999.9958,-1360.803C1066.3824,-1351.0363 1039.2186,-1241.0474 990,-1184 918.6798,-1101.3354 818.3202,-1230.6646 747,-1148 719.8541,-1116.5363 705.4444,-1054.5 747,-1054.5"/>
<polygon fill="#000000" stroke="#000000" points="999.9758,-1360.8043 989.6869,-1357.0109 994.9879,-1361.1521 990,-1361.5 990,-1361.5 990,-1361.5 994.9879,-1361.1521 990.3131,-1365.9891 999.9758,-1360.8043 999.9758,-1360.8043"/>
<text text-anchor="start" x="588.5005" y="-1371.5" font-family="Arial" font-size="10.00" fill="#000000">FOREIGN KEY (recruitment_id) REFERENCES recruitments(id) ON DELETE CASCADE</text>
</g>
<!-- public.tags -->
<g id="node8" class="node">
<title>public.tags</title>
<polygon fill="#efefef" stroke="transparent" points="358,-889.5 358,-924.5 611,-924.5 611,-889.5 358,-889.5"/>
<polygon fill="none" stroke="#000000" points="358,-889.5 358,-924.5 611,-924.5 611,-889.5 358,-889.5"/>
<text text-anchor="start" x="392.8612" y="-902.3" font-family="Arial Bold" font-size="18.00" fill="#000000">public.tags</text>
<text text-anchor="start" x="478.885" y="-902.3" font-family="Arial" font-size="14.00" fill="#000000"> </text>
<text text-anchor="start" x="482.7756" y="-902.3" font-family="Arial" font-size="14.00" fill="#666666">[BASE TABLE]</text>
<polygon fill="none" stroke="#000000" points="358,-859.5 358,-889.5 611,-889.5 611,-859.5 358,-859.5"/>
<text text-anchor="start" x="365" y="-870.9" font-family="Arial" font-size="14.00" fill="#000000">id </text>
<text text-anchor="start" x="379.7798" y="-870.9" font-family="Arial" font-size="14.00" fill="#666666">[bigint]</text>
<polygon fill="none" stroke="#000000" points="358,-829.5 358,-859.5 611,-859.5 611,-829.5 358,-829.5"/>
<text text-anchor="start" x="365" y="-840.9" font-family="Arial" font-size="14.00" fill="#000000">name </text>
<text text-anchor="start" x="403.899" y="-840.9" font-family="Arial" font-size="14.00" fill="#666666">[varchar]</text>
<polygon fill="none" stroke="#000000" points="358,-799.5 358,-829.5 611,-829.5 611,-799.5 358,-799.5"/>
<text text-anchor="start" x="365" y="-810.9" font-family="Arial" font-size="14.00" fill="#000000">created_at </text>
<text text-anchor="start" x="435.028" y="-810.9" font-family="Arial" font-size="14.00" fill="#666666">[timestamp with time zone]</text>
<polygon fill="none" stroke="#000000" points="358,-769.5 358,-799.5 611,-799.5 611,-769.5 358,-769.5"/>
<text text-anchor="start" x="364.6915" y="-780.9" font-family="Arial" font-size="14.00" fill="#000000">updated_at </text>
<text text-anchor="start" x="438.6241" y="-780.9" font-family="Arial" font-size="14.00" fill="#666666">[timestamp with time zone]</text>
</g>
<!-- public.recruitment_tags -->
<g id="node9" class="node">
<title>public.recruitment_tags</title>
<polygon fill="#efefef" stroke="transparent" points="336,-1391.5 336,-1426.5 633,-1426.5 633,-1391.5 336,-1391.5"/>
<polygon fill="none" stroke="#000000" points="336,-1391.5 336,-1426.5 633,-1426.5 633,-1391.5 336,-1391.5"/>
<text text-anchor="start" x="342.8581" y="-1404.3" font-family="Arial Bold" font-size="18.00" fill="#000000">public.recruitment_tags</text>
<text text-anchor="start" x="528.8881" y="-1404.3" font-family="Arial" font-size="14.00" fill="#000000"> </text>
<text text-anchor="start" x="532.7787" y="-1404.3" font-family="Arial" font-size="14.00" fill="#666666">[BASE TABLE]</text>
<polygon fill="none" stroke="#000000" points="336,-1361.5 336,-1391.5 633,-1391.5 633,-1361.5 336,-1361.5"/>
<text text-anchor="start" x="343" y="-1372.9" font-family="Arial" font-size="14.00" fill="#000000">id </text>
<text text-anchor="start" x="357.7798" y="-1372.9" font-family="Arial" font-size="14.00" fill="#666666">[bigint]</text>
<polygon fill="none" stroke="#000000" points="336,-1331.5 336,-1361.5 633,-1361.5 633,-1331.5 336,-1331.5"/>
<text text-anchor="start" x="343" y="-1342.9" font-family="Arial" font-size="14.00" fill="#000000">recruitment_id </text>
<text text-anchor="start" x="435.5624" y="-1342.9" font-family="Arial" font-size="14.00" fill="#666666">[bigint]</text>
<polygon fill="none" stroke="#000000" points="336,-1301.5 336,-1331.5 633,-1331.5 633,-1301.5 336,-1301.5"/>
<text text-anchor="start" x="343" y="-1312.9" font-family="Arial" font-size="14.00" fill="#000000">tag_id </text>
<text text-anchor="start" x="385.0182" y="-1312.9" font-family="Arial" font-size="14.00" fill="#666666">[bigint]</text>
<polygon fill="none" stroke="#000000" points="336,-1271.5 336,-1301.5 633,-1301.5 633,-1271.5 336,-1271.5"/>
<text text-anchor="start" x="343" y="-1282.9" font-family="Arial" font-size="14.00" fill="#000000">created_at </text>
<text text-anchor="start" x="413.028" y="-1282.9" font-family="Arial" font-size="14.00" fill="#666666">[timestamp with time zone]</text>
<polygon fill="none" stroke="#000000" points="336,-1241.5 336,-1271.5 633,-1271.5 633,-1241.5 336,-1241.5"/>
<text text-anchor="start" x="343" y="-1252.9" font-family="Arial" font-size="14.00" fill="#000000">updated_at </text>
<text text-anchor="start" x="416.9326" y="-1252.9" font-family="Arial" font-size="14.00" fill="#666666">[timestamp with time zone]</text>
</g>
<!-- public.recruitment_tags&#45;&gt;public.recruitments -->
<g id="edge8" class="edge">
<title>public.recruitment_tags:recruitment_id&#45;&gt;public.recruitments:id</title>
<path fill="none" stroke="#000000" d="M643.1945,-1345.8541C703.745,-1337.552 657.3979,-1250.9049 684,-1184 707.6483,-1124.524 682.995,-1054.5 747,-1054.5"/>
<polygon fill="#000000" stroke="#000000" points="642.98,-1345.8676 632.7154,-1342.009 637.99,-1346.1838 633,-1346.5 633,-1346.5 633,-1346.5 637.99,-1346.1838 633.2846,-1350.991 642.98,-1345.8676 642.98,-1345.8676"/>
<text text-anchor="start" x="231.5005" y="-1330.5" font-family="Arial" font-size="10.00" fill="#000000">FOREIGN KEY (recruitment_id) REFERENCES recruitments(id) ON DELETE CASCADE</text>
</g>
<!-- public.recruitment_tags&#45;&gt;public.tags -->
<g id="edge9" class="edge">
<title>public.recruitment_tags:tag_id&#45;&gt;public.tags:id</title>
<path fill="none" stroke="#000000" d="M326.0721,-1314.8995C239.2974,-1285.9682 263.1136,-874.5 358,-874.5"/>
<polygon fill="#000000" stroke="#000000" points="326.1275,-1314.9084 335.2838,-1320.9426 331.0637,-1315.7042 336,-1316.5 336,-1316.5 336,-1316.5 331.0637,-1315.7042 336.7162,-1312.0574 326.1275,-1314.9084 326.1275,-1314.9084"/>
<text text-anchor="start" x="6.6035" y="-1300.5" font-family="Arial" font-size="10.00" fill="#000000">FOREIGN KEY (tag_id) REFERENCES tags(id) ON DELETE CASCADE</text>
</g>
<!-- public.rooms -->
<g id="node10" class="node">
<title>public.rooms</title>
<polygon fill="#efefef" stroke="transparent" points="1960,-282.5 1960,-317.5 2213,-317.5 2213,-282.5 1960,-282.5"/>
<polygon fill="none" stroke="#000000" points="1960,-282.5 1960,-317.5 2213,-317.5 2213,-282.5 1960,-282.5"/>
<text text-anchor="start" x="1986.8701" y="-295.3" font-family="Arial Bold" font-size="18.00" fill="#000000">public.rooms</text>
<text text-anchor="start" x="2088.8761" y="-295.3" font-family="Arial" font-size="14.00" fill="#000000"> </text>
<text text-anchor="start" x="2092.7667" y="-295.3" font-family="Arial" font-size="14.00" fill="#666666">[BASE TABLE]</text>
<polygon fill="none" stroke="#000000" points="1960,-252.5 1960,-282.5 2213,-282.5 2213,-252.5 1960,-252.5"/>
<text text-anchor="start" x="1967" y="-263.9" font-family="Arial" font-size="14.00" fill="#000000">id </text>
<text text-anchor="start" x="1981.7798" y="-263.9" font-family="Arial" font-size="14.00" fill="#666666">[bigint]</text>
<polygon fill="none" stroke="#000000" points="1960,-222.5 1960,-252.5 2213,-252.5 2213,-222.5 1960,-222.5"/>
<text text-anchor="start" x="1967" y="-233.9" font-family="Arial" font-size="14.00" fill="#000000">created_at </text>
<text text-anchor="start" x="2037.028" y="-233.9" font-family="Arial" font-size="14.00" fill="#666666">[timestamp with time zone]</text>
<polygon fill="none" stroke="#000000" points="1960,-192.5 1960,-222.5 2213,-222.5 2213,-192.5 1960,-192.5"/>
<text text-anchor="start" x="1966.6915" y="-203.9" font-family="Arial" font-size="14.00" fill="#000000">updated_at </text>
<text text-anchor="start" x="2040.6241" y="-203.9" font-family="Arial" font-size="14.00" fill="#666666">[timestamp with time zone]</text>
</g>
<!-- public.messages -->
<g id="node11" class="node">
<title>public.messages</title>
<polygon fill="#efefef" stroke="transparent" points="1291,-1773.5 1291,-1808.5 1544,-1808.5 1544,-1773.5 1291,-1773.5"/>
<polygon fill="none" stroke="#000000" points="1291,-1773.5 1291,-1808.5 1544,-1808.5 1544,-1773.5 1291,-1773.5"/>
<text text-anchor="start" x="1301.86" y="-1786.3" font-family="Arial Bold" font-size="18.00" fill="#000000">public.messages</text>
<text text-anchor="start" x="1435.8862" y="-1786.3" font-family="Arial" font-size="14.00" fill="#000000"> </text>
<text text-anchor="start" x="1439.7768" y="-1786.3" font-family="Arial" font-size="14.00" fill="#666666">[BASE TABLE]</text>
<polygon fill="none" stroke="#000000" points="1291,-1743.5 1291,-1773.5 1544,-1773.5 1544,-1743.5 1291,-1743.5"/>
<text text-anchor="start" x="1298" y="-1754.9" font-family="Arial" font-size="14.00" fill="#000000">id </text>
<text text-anchor="start" x="1312.7798" y="-1754.9" font-family="Arial" font-size="14.00" fill="#666666">[bigint]</text>
<polygon fill="none" stroke="#000000" points="1291,-1713.5 1291,-1743.5 1544,-1743.5 1544,-1713.5 1291,-1713.5"/>
<text text-anchor="start" x="1298" y="-1724.9" font-family="Arial" font-size="14.00" fill="#000000">content </text>
<text text-anchor="start" x="1347.8022" y="-1724.9" font-family="Arial" font-size="14.00" fill="#666666">[varchar(1000)]</text>
<polygon fill="none" stroke="#000000" points="1291,-1683.5 1291,-1713.5 1544,-1713.5 1544,-1683.5 1291,-1683.5"/>
<text text-anchor="start" x="1298" y="-1694.9" font-family="Arial" font-size="14.00" fill="#000000">room_id </text>
<text text-anchor="start" x="1352.4488" y="-1694.9" font-family="Arial" font-size="14.00" fill="#666666">[bigint]</text>
<polygon fill="none" stroke="#000000" points="1291,-1653.5 1291,-1683.5 1544,-1683.5 1544,-1653.5 1291,-1653.5"/>
<text text-anchor="start" x="1298" y="-1664.9" font-family="Arial" font-size="14.00" fill="#000000">user_id </text>
<text text-anchor="start" x="1347.7882" y="-1664.9" font-family="Arial" font-size="14.00" fill="#666666">[bigint]</text>
<polygon fill="none" stroke="#000000" points="1291,-1623.5 1291,-1653.5 1544,-1653.5 1544,-1623.5 1291,-1623.5"/>
<text text-anchor="start" x="1298" y="-1634.9" font-family="Arial" font-size="14.00" fill="#000000">applicant_id </text>
<text text-anchor="start" x="1376.5792" y="-1634.9" font-family="Arial" font-size="14.00" fill="#666666">[bigint]</text>
<polygon fill="none" stroke="#000000" points="1291,-1593.5 1291,-1623.5 1544,-1623.5 1544,-1593.5 1291,-1593.5"/>
<text text-anchor="start" x="1298" y="-1604.9" font-family="Arial" font-size="14.00" fill="#000000">created_at </text>
<text text-anchor="start" x="1368.028" y="-1604.9" font-family="Arial" font-size="14.00" fill="#666666">[timestamp with time zone]</text>
<polygon fill="none" stroke="#000000" points="1291,-1563.5 1291,-1593.5 1544,-1593.5 1544,-1563.5 1291,-1563.5"/>
<text text-anchor="start" x="1297.6915" y="-1574.9" font-family="Arial" font-size="14.00" fill="#000000">updated_at </text>
<text text-anchor="start" x="1371.6241" y="-1574.9" font-family="Arial" font-size="14.00" fill="#666666">[timestamp with time zone]</text>
</g>
<!-- public.messages&#45;&gt;public.users -->
<g id="edge10" class="edge">
<title>public.messages:user_id&#45;&gt;public.users:id</title>
<path fill="none" stroke="#000000" d="M1554.0019,-1667.7226C1603.3833,-1659.1916 1553.213,-1582.1523 1544,-1521 1518.156,-1349.4579 1454.844,-1319.5421 1429,-1148 1389.207,-883.8696 1259.9912,-753.8438 1429,-547 1479.7937,-484.8354 1555.2063,-573.1646 1606,-511 1632.2934,-478.8205 1647.5556,-417.5 1606,-417.5"/>
<polygon fill="#000000" stroke="#000000" points="1553.9699,-1667.7249 1543.6512,-1664.0135 1548.985,-1668.1125 1544,-1668.5 1544,-1668.5 1544,-1668.5 1548.985,-1668.1125 1544.3488,-1672.9865 1553.9699,-1667.7249 1553.9699,-1667.7249"/>
<text text-anchor="start" x="1551.329" y="-1678.5" font-family="Arial" font-size="10.00" fill="#000000">FOREIGN KEY (user_id) REFERENCES users(id) ON DELETE SET NULL</text>
</g>
<!-- public.messages&#45;&gt;public.applicants -->
<g id="edge11" class="edge">
<title>public.messages:applicant_id&#45;&gt;public.applicants:id</title>
<path fill="none" stroke="#000000" d="M1280.9396,-1637.4504C1239.8564,-1627.7898 1280.1241,-1553.957 1238,-1521 1167.8999,-1466.1553 1113.1229,-1537.1561 1041,-1485 1002.6432,-1457.262 1037.3354,-1391.5 990,-1391.5"/>
<polygon fill="#000000" stroke="#000000" points="1281.054,-1637.4622 1290.533,-1642.9757 1286.027,-1637.9811 1291,-1638.5 1291,-1638.5 1291,-1638.5 1286.027,-1637.9811 1291.467,-1634.0243 1281.054,-1637.4622 1281.054,-1637.4622"/>
<text text-anchor="start" x="1298.4885" y="-1648.5" font-family="Arial" font-size="10.00" fill="#000000">FOREIGN KEY (applicant_id) REFERENCES applicants(id) ON DELETE CASCADE</text>
</g>
<!-- public.messages&#45;&gt;public.rooms -->
<g id="edge12" class="edge">
<title>public.messages:room_id&#45;&gt;public.rooms:id</title>
<path fill="none" stroke="#000000" d="M1554.2775,-1698.4586C1949.5502,-1695.2554 2087.7761,-1506.2905 2265,-1148 2308.4514,-1060.1551 2311.0038,-267.5 2213,-267.5"/>
<polygon fill="#000000" stroke="#000000" points="1553.9999,-1698.4596 1543.9818,-1694 1549,-1698.4798 1544,-1698.5 1544,-1698.5 1544,-1698.5 1549,-1698.4798 1544.0182,-1703 1553.9999,-1698.4596 1553.9999,-1698.4596"/>
<text text-anchor="start" x="1550.7245" y="-1708.5" font-family="Arial" font-size="10.00" fill="#000000">FOREIGN KEY (room_id) REFERENCES rooms(id) ON DELETE CASCADE</text>
</g>
<!-- public.entries -->
<g id="node12" class="node">
<title>public.entries</title>
<polygon fill="#efefef" stroke="transparent" points="1960,-904.5 1960,-939.5 2213,-939.5 2213,-904.5 1960,-904.5"/>
<polygon fill="none" stroke="#000000" points="1960,-904.5 1960,-939.5 2213,-939.5 2213,-904.5 1960,-904.5"/>
<text text-anchor="start" x="1984.8649" y="-917.3" font-family="Arial Bold" font-size="18.00" fill="#000000">public.entries</text>
<text text-anchor="start" x="2090.8813" y="-917.3" font-family="Arial" font-size="14.00" fill="#000000"> </text>
<text text-anchor="start" x="2094.7719" y="-917.3" font-family="Arial" font-size="14.00" fill="#666666">[BASE TABLE]</text>
<polygon fill="none" stroke="#000000" points="1960,-874.5 1960,-904.5 2213,-904.5 2213,-874.5 1960,-874.5"/>
<text text-anchor="start" x="1967" y="-885.9" font-family="Arial" font-size="14.00" fill="#000000">id </text>
<text text-anchor="start" x="1981.7798" y="-885.9" font-family="Arial" font-size="14.00" fill="#666666">[bigint]</text>
<polygon fill="none" stroke="#000000" points="1960,-844.5 1960,-874.5 2213,-874.5 2213,-844.5 1960,-844.5"/>
<text text-anchor="start" x="1967" y="-855.9" font-family="Arial" font-size="14.00" fill="#000000">room_id </text>
<text text-anchor="start" x="2021.4488" y="-855.9" font-family="Arial" font-size="14.00" fill="#666666">[bigint]</text>
<polygon fill="none" stroke="#000000" points="1960,-814.5 1960,-844.5 2213,-844.5 2213,-814.5 1960,-814.5"/>
<text text-anchor="start" x="1967" y="-825.9" font-family="Arial" font-size="14.00" fill="#000000">user_id </text>
<text text-anchor="start" x="2016.7882" y="-825.9" font-family="Arial" font-size="14.00" fill="#666666">[bigint]</text>
<polygon fill="none" stroke="#000000" points="1960,-784.5 1960,-814.5 2213,-814.5 2213,-784.5 1960,-784.5"/>
<text text-anchor="start" x="1967" y="-795.9" font-family="Arial" font-size="14.00" fill="#000000">created_at </text>
<text text-anchor="start" x="2037.028" y="-795.9" font-family="Arial" font-size="14.00" fill="#666666">[timestamp with time zone]</text>
<polygon fill="none" stroke="#000000" points="1960,-754.5 1960,-784.5 2213,-784.5 2213,-754.5 1960,-754.5"/>
<text text-anchor="start" x="1966.6915" y="-765.9" font-family="Arial" font-size="14.00" fill="#000000">updated_at </text>
<text text-anchor="start" x="2040.6241" y="-765.9" font-family="Arial" font-size="14.00" fill="#666666">[timestamp with time zone]</text>
</g>
<!-- public.entries&#45;&gt;public.users -->
<g id="edge13" class="edge">
<title>public.entries:user_id&#45;&gt;public.users:id</title>
<path fill="none" stroke="#000000" d="M1949.8141,-829.0663C1840.821,-819.2146 1984.5653,-643.9095 1907,-547 1815.9964,-433.3009 1751.6336,-417.5 1606,-417.5"/>
<polygon fill="#000000" stroke="#000000" points="1950.0091,-829.0745 1959.8085,-833.9959 1955.0045,-829.2872 1960,-829.5 1960,-829.5 1960,-829.5 1955.0045,-829.2872 1960.1915,-825.0041 1950.0091,-829.0745 1950.0091,-829.0745"/>
<text text-anchor="start" x="1967.329" y="-839.5" font-family="Arial" font-size="10.00" fill="#000000">FOREIGN KEY (user_id) REFERENCES users(id) ON DELETE SET NULL</text>
</g>
<!-- public.entries&#45;&gt;public.rooms -->
<g id="edge14" class="edge">
<title>public.entries:room_id&#45;&gt;public.rooms:id</title>
<path fill="none" stroke="#000000" d="M1950.8351,-855.4035C1894.379,-803.0989 1897.434,-267.5 1960,-267.5"/>
<polygon fill="#000000" stroke="#000000" points="1950.8705,-855.4193 1958.1637,-863.6083 1955.4352,-857.4596 1960,-859.5 1960,-859.5 1960,-859.5 1955.4352,-857.4596 1961.8363,-855.3917 1950.8705,-855.4193 1950.8705,-855.4193"/>
<text text-anchor="start" x="1966.7245" y="-869.5" font-family="Arial" font-size="10.00" fill="#000000">FOREIGN KEY (room_id) REFERENCES rooms(id) ON DELETE CASCADE</text>
</g>
<!-- public.room_read_managements -->
<g id="node13" class="node">
<title>public.room_read_managements</title>
<polygon fill="#efefef" stroke="transparent" points="1481,-919.5 1481,-954.5 1855,-954.5 1855,-919.5 1481,-919.5"/>
<polygon fill="none" stroke="#000000" points="1481,-919.5 1481,-954.5 1855,-954.5 1855,-919.5 1481,-919.5"/>
<text text-anchor="start" x="1487.8435" y="-932.3" font-family="Arial Bold" font-size="18.00" fill="#000000">public.room_read_managements</text>
<text text-anchor="start" x="1750.9027" y="-932.3" font-family="Arial" font-size="14.00" fill="#000000"> </text>
<text text-anchor="start" x="1754.7933" y="-932.3" font-family="Arial" font-size="14.00" fill="#666666">[BASE TABLE]</text>
<polygon fill="none" stroke="#000000" points="1481,-889.5 1481,-919.5 1855,-919.5 1855,-889.5 1481,-889.5"/>
<text text-anchor="start" x="1488" y="-900.9" font-family="Arial" font-size="14.00" fill="#000000">id </text>
<text text-anchor="start" x="1502.7798" y="-900.9" font-family="Arial" font-size="14.00" fill="#666666">[bigint]</text>
<polygon fill="none" stroke="#000000" points="1481,-859.5 1481,-889.5 1855,-889.5 1855,-859.5 1481,-859.5"/>
<text text-anchor="start" x="1488" y="-870.9" font-family="Arial" font-size="14.00" fill="#000000">last_read_at </text>
<text text-anchor="start" x="1568.9172" y="-870.9" font-family="Arial" font-size="14.00" fill="#666666">[timestamp with time zone]</text>
<polygon fill="none" stroke="#000000" points="1481,-829.5 1481,-859.5 1855,-859.5 1855,-829.5 1481,-829.5"/>
<text text-anchor="start" x="1488" y="-840.9" font-family="Arial" font-size="14.00" fill="#000000">room_id </text>
<text text-anchor="start" x="1542.4488" y="-840.9" font-family="Arial" font-size="14.00" fill="#666666">[bigint]</text>
<polygon fill="none" stroke="#000000" points="1481,-799.5 1481,-829.5 1855,-829.5 1855,-799.5 1481,-799.5"/>
<text text-anchor="start" x="1488" y="-810.9" font-family="Arial" font-size="14.00" fill="#000000">user_id </text>
<text text-anchor="start" x="1537.7882" y="-810.9" font-family="Arial" font-size="14.00" fill="#666666">[bigint]</text>
<polygon fill="none" stroke="#000000" points="1481,-769.5 1481,-799.5 1855,-799.5 1855,-769.5 1481,-769.5"/>
<text text-anchor="start" x="1488" y="-780.9" font-family="Arial" font-size="14.00" fill="#000000">created_at </text>
<text text-anchor="start" x="1558.028" y="-780.9" font-family="Arial" font-size="14.00" fill="#666666">[timestamp with time zone]</text>
<polygon fill="none" stroke="#000000" points="1481,-739.5 1481,-769.5 1855,-769.5 1855,-739.5 1481,-739.5"/>
<text text-anchor="start" x="1488" y="-750.9" font-family="Arial" font-size="14.00" fill="#000000">updated_at </text>
<text text-anchor="start" x="1561.9326" y="-750.9" font-family="Arial" font-size="14.00" fill="#666666">[timestamp with time zone]</text>
</g>
<!-- public.room_read_managements&#45;&gt;public.users -->
<g id="edge15" class="edge">
<title>public.room_read_managements:user_id&#45;&gt;public.users:id</title>
<path fill="none" stroke="#000000" d="M1470.8014,-813.4186C1434.1495,-804.5704 1466.9041,-743.2458 1481,-697 1520.6753,-566.833 1742.0793,-417.5 1606,-417.5"/>
<polygon fill="#000000" stroke="#000000" points="1471.0557,-813.4455 1480.5255,-818.9749 1476.0279,-813.9727 1481,-814.5 1481,-814.5 1481,-814.5 1476.0279,-813.9727 1481.4745,-810.0251 1471.0557,-813.4455 1471.0557,-813.4455"/>
<text text-anchor="start" x="1141.329" y="-824.5" font-family="Arial" font-size="10.00" fill="#000000">FOREIGN KEY (user_id) REFERENCES users(id) ON DELETE SET NULL</text>
</g>
<!-- public.room_read_managements&#45;&gt;public.rooms -->
<g id="edge16" class="edge">
<title>public.room_read_managements:room_id&#45;&gt;public.rooms:id</title>
<path fill="none" stroke="#000000" d="M1864.8643,-842.6274C1919.4969,-820.5508 1896.6041,-609.5817 1908,-547 1930.6363,-422.6904 1833.6462,-267.5 1960,-267.5"/>
<polygon fill="#000000" stroke="#000000" points="1864.8245,-842.6349 1854.1607,-840.079 1859.9123,-843.5674 1855,-844.5 1855,-844.5 1855,-844.5 1859.9123,-843.5674 1855.8393,-848.921 1864.8245,-842.6349 1864.8245,-842.6349"/>
<text text-anchor="start" x="1507.7245" y="-854.5" font-family="Arial" font-size="10.00" fill="#000000">FOREIGN KEY (room_id) REFERENCES rooms(id) ON DELETE CASCADE</text>
</g>
</g>
</svg>
