<?xml version="1.0" encoding="UTF-8" standalone="no"?>
<!DOCTYPE svg PUBLIC "-//W3C//DTD SVG 1.1//EN"
 "http://www.w3.org/Graphics/SVG/1.1/DTD/svg11.dtd">
<!-- Generated by graphviz version 2.40.1 (20161225.0304)
 -->
<!-- Title: connefut_db Pages: 1 -->
<svg width="2510pt" height="1493pt"
 viewBox="0.00 0.00 2510.00 1493.00" xmlns="http://www.w3.org/2000/svg" xmlns:xlink="http://www.w3.org/1999/xlink">
<g id="graph0" class="graph" transform="scale(1 1) rotate(0) translate(4 1489)">
<title>connefut_db</title>
<polygon fill="#ffffff" stroke="transparent" points="-4,4 -4,-1489 2506,-1489 2506,4 -4,4"/>
<!-- public.schema_migrations -->
<g id="node1" class="node">
<title>public.schema_migrations</title>
<polygon fill="#efefef" stroke="transparent" points="43.5,-1346.5 43.5,-1381.5 362.5,-1381.5 362.5,-1346.5 43.5,-1346.5"/>
<polygon fill="none" stroke="#000000" points="43.5,-1346.5 43.5,-1381.5 362.5,-1381.5 362.5,-1346.5 43.5,-1346.5"/>
<text text-anchor="start" x="50.3601" y="-1359.3" font-family="Arial Bold" font-size="18.00" fill="#000000">public.schema_migrations</text>
<text text-anchor="start" x="258.3861" y="-1359.3" font-family="Arial" font-size="14.00" fill="#000000"> </text>
<text text-anchor="start" x="262.2767" y="-1359.3" font-family="Arial" font-size="14.00" fill="#666666">[BASE TABLE]</text>
<polygon fill="none" stroke="#000000" points="43.5,-1316.5 43.5,-1346.5 362.5,-1346.5 362.5,-1316.5 43.5,-1316.5"/>
<text text-anchor="start" x="50.5" y="-1327.9" font-family="Arial" font-size="14.00" fill="#000000">version </text>
<text text-anchor="start" x="99.5056" y="-1327.9" font-family="Arial" font-size="14.00" fill="#666666">[bigint]</text>
<polygon fill="none" stroke="#000000" points="43.5,-1286.5 43.5,-1316.5 362.5,-1316.5 362.5,-1286.5 43.5,-1286.5"/>
<text text-anchor="start" x="50.5" y="-1297.9" font-family="Arial" font-size="14.00" fill="#000000">dirty </text>
<text text-anchor="start" x="80.831" y="-1297.9" font-family="Arial" font-size="14.00" fill="#666666">[boolean]</text>
</g>
<!-- public.users -->
<g id="node2" class="node">
<title>public.users</title>
<polygon fill="#efefef" stroke="transparent" points="977.5,-432.5 977.5,-467.5 1383.5,-467.5 1383.5,-432.5 977.5,-432.5"/>
<polygon fill="none" stroke="#000000" points="977.5,-432.5 977.5,-467.5 1383.5,-467.5 1383.5,-432.5 977.5,-432.5"/>
<text text-anchor="start" x="1083.8662" y="-445.3" font-family="Arial Bold" font-size="18.00" fill="#000000">public.users</text>
<text text-anchor="start" x="1179.88" y="-445.3" font-family="Arial" font-size="14.00" fill="#000000"> </text>
<text text-anchor="start" x="1183.7706" y="-445.3" font-family="Arial" font-size="14.00" fill="#666666">[BASE TABLE]</text>
<polygon fill="none" stroke="#000000" points="977.5,-402.5 977.5,-432.5 1383.5,-432.5 1383.5,-402.5 977.5,-402.5"/>
<text text-anchor="start" x="984.5" y="-413.9" font-family="Arial" font-size="14.00" fill="#000000">id </text>
<text text-anchor="start" x="999.2798" y="-413.9" font-family="Arial" font-size="14.00" fill="#666666">[varchar]</text>
<polygon fill="none" stroke="#000000" points="977.5,-372.5 977.5,-402.5 1383.5,-402.5 1383.5,-372.5 977.5,-372.5"/>
<text text-anchor="start" x="984.5" y="-383.9" font-family="Arial" font-size="14.00" fill="#000000">name </text>
<text text-anchor="start" x="1023.399" y="-383.9" font-family="Arial" font-size="14.00" fill="#666666">[varchar(50)]</text>
<polygon fill="none" stroke="#000000" points="977.5,-342.5 977.5,-372.5 1383.5,-372.5 1383.5,-342.5 977.5,-342.5"/>
<text text-anchor="start" x="984.5" y="-353.9" font-family="Arial" font-size="14.00" fill="#000000">email </text>
<text text-anchor="start" x="1021.8296" y="-353.9" font-family="Arial" font-size="14.00" fill="#666666">[varchar(100)]</text>
<polygon fill="none" stroke="#000000" points="977.5,-312.5 977.5,-342.5 1383.5,-342.5 1383.5,-312.5 977.5,-312.5"/>
<text text-anchor="start" x="984.5" y="-323.9" font-family="Arial" font-size="14.00" fill="#000000">role </text>
<text text-anchor="start" x="1011.723" y="-323.9" font-family="Arial" font-size="14.00" fill="#666666">[varchar]</text>
<polygon fill="none" stroke="#000000" points="977.5,-282.5 977.5,-312.5 1383.5,-312.5 1383.5,-282.5 977.5,-282.5"/>
<text text-anchor="start" x="984.5" y="-293.9" font-family="Arial" font-size="14.00" fill="#000000">avatar </text>
<text text-anchor="start" x="1027.2896" y="-293.9" font-family="Arial" font-size="14.00" fill="#666666">[varchar]</text>
<polygon fill="none" stroke="#000000" points="977.5,-252.5 977.5,-282.5 1383.5,-282.5 1383.5,-252.5 977.5,-252.5"/>
<text text-anchor="start" x="984.5" y="-263.9" font-family="Arial" font-size="14.00" fill="#000000">introduction </text>
<text text-anchor="start" x="1060.7412" y="-263.9" font-family="Arial" font-size="14.00" fill="#666666">[varchar(4000)]</text>
<polygon fill="none" stroke="#000000" points="977.5,-222.5 977.5,-252.5 1383.5,-252.5 1383.5,-222.5 977.5,-222.5"/>
<text text-anchor="start" x="984.5" y="-233.9" font-family="Arial" font-size="14.00" fill="#000000">email_verification_status </text>
<text text-anchor="start" x="1141.6332" y="-233.9" font-family="Arial" font-size="14.00" fill="#666666">[varchar]</text>
<polygon fill="none" stroke="#000000" points="977.5,-192.5 977.5,-222.5 1383.5,-222.5 1383.5,-192.5 977.5,-192.5"/>
<text text-anchor="start" x="984.5" y="-203.9" font-family="Arial" font-size="14.00" fill="#000000">email_verification_token </text>
<text text-anchor="start" x="1138.5252" y="-203.9" font-family="Arial" font-size="14.00" fill="#666666">[varchar]</text>
<polygon fill="none" stroke="#000000" points="977.5,-162.5 977.5,-192.5 1383.5,-192.5 1383.5,-162.5 977.5,-162.5"/>
<text text-anchor="start" x="984.4685" y="-173.9" font-family="Arial" font-size="14.00" fill="#000000">email_verification_token_expires_at </text>
<text text-anchor="start" x="1210.8471" y="-173.9" font-family="Arial" font-size="14.00" fill="#666666">[timestamp with time zone]</text>
<polygon fill="none" stroke="#000000" points="977.5,-132.5 977.5,-162.5 1383.5,-162.5 1383.5,-132.5 977.5,-132.5"/>
<text text-anchor="start" x="984.5" y="-143.9" font-family="Arial" font-size="14.00" fill="#000000">password_digest </text>
<text text-anchor="start" x="1093.4158" y="-143.9" font-family="Arial" font-size="14.00" fill="#666666">[varchar]</text>
<polygon fill="none" stroke="#000000" points="977.5,-102.5 977.5,-132.5 1383.5,-132.5 1383.5,-102.5 977.5,-102.5"/>
<text text-anchor="start" x="984.5" y="-113.9" font-family="Arial" font-size="14.00" fill="#000000">created_at </text>
<text text-anchor="start" x="1054.528" y="-113.9" font-family="Arial" font-size="14.00" fill="#666666">[timestamp with time zone]</text>
<polygon fill="none" stroke="#000000" points="977.5,-72.5 977.5,-102.5 1383.5,-102.5 1383.5,-72.5 977.5,-72.5"/>
<text text-anchor="start" x="984.5" y="-83.9" font-family="Arial" font-size="14.00" fill="#000000">updated_at </text>
<text text-anchor="start" x="1058.4326" y="-83.9" font-family="Arial" font-size="14.00" fill="#666666">[timestamp with time zone]</text>
<polygon fill="none" stroke="#000000" points="977.5,-42.5 977.5,-72.5 1383.5,-72.5 1383.5,-42.5 977.5,-42.5"/>
<text text-anchor="start" x="984.5" y="-53.9" font-family="Arial" font-size="14.00" fill="#000000">last_sign_in_at </text>
<text text-anchor="start" x="1081.7524" y="-53.9" font-family="Arial" font-size="14.00" fill="#666666">[timestamp with time zone]</text>
</g>
<!-- public.prefectures -->
<g id="node3" class="node">
<title>public.prefectures</title>
<polygon fill="#efefef" stroke="transparent" points="252.5,-297.5 252.5,-332.5 505.5,-332.5 505.5,-297.5 252.5,-297.5"/>
<polygon fill="none" stroke="#000000" points="252.5,-297.5 252.5,-332.5 505.5,-332.5 505.5,-297.5 252.5,-297.5"/>
<text text-anchor="start" x="259.3586" y="-310.3" font-family="Arial Bold" font-size="18.00" fill="#000000">public.prefectures</text>
<text text-anchor="start" x="401.3876" y="-310.3" font-family="Arial" font-size="14.00" fill="#000000"> </text>
<text text-anchor="start" x="405.2782" y="-310.3" font-family="Arial" font-size="14.00" fill="#666666">[BASE TABLE]</text>
<polygon fill="none" stroke="#000000" points="252.5,-267.5 252.5,-297.5 505.5,-297.5 505.5,-267.5 252.5,-267.5"/>
<text text-anchor="start" x="259.5" y="-278.9" font-family="Arial" font-size="14.00" fill="#000000">id </text>
<text text-anchor="start" x="274.2798" y="-278.9" font-family="Arial" font-size="14.00" fill="#666666">[varchar]</text>
<polygon fill="none" stroke="#000000" points="252.5,-237.5 252.5,-267.5 505.5,-267.5 505.5,-237.5 252.5,-237.5"/>
<text text-anchor="start" x="259.5" y="-248.9" font-family="Arial" font-size="14.00" fill="#000000">name </text>
<text text-anchor="start" x="298.399" y="-248.9" font-family="Arial" font-size="14.00" fill="#666666">[varchar]</text>
<polygon fill="none" stroke="#000000" points="252.5,-207.5 252.5,-237.5 505.5,-237.5 505.5,-207.5 252.5,-207.5"/>
<text text-anchor="start" x="259.5" y="-218.9" font-family="Arial" font-size="14.00" fill="#000000">created_at </text>
<text text-anchor="start" x="329.528" y="-218.9" font-family="Arial" font-size="14.00" fill="#666666">[timestamp with time zone]</text>
<polygon fill="none" stroke="#000000" points="252.5,-177.5 252.5,-207.5 505.5,-207.5 505.5,-177.5 252.5,-177.5"/>
<text text-anchor="start" x="259.1915" y="-188.9" font-family="Arial" font-size="14.00" fill="#000000">updated_at </text>
<text text-anchor="start" x="333.1241" y="-188.9" font-family="Arial" font-size="14.00" fill="#666666">[timestamp with time zone]</text>
</g>
<!-- public.competitions -->
<g id="node4" class="node">
<title>public.competitions</title>
<polygon fill="#efefef" stroke="transparent" points="609.5,-297.5 609.5,-332.5 873.5,-332.5 873.5,-297.5 609.5,-297.5"/>
<polygon fill="none" stroke="#000000" points="609.5,-297.5 609.5,-332.5 873.5,-332.5 873.5,-297.5 609.5,-297.5"/>
<text text-anchor="start" x="616.3605" y="-310.3" font-family="Arial Bold" font-size="18.00" fill="#000000">public.competitions</text>
<text text-anchor="start" x="769.3857" y="-310.3" font-family="Arial" font-size="14.00" fill="#000000"> </text>
<text text-anchor="start" x="773.2763" y="-310.3" font-family="Arial" font-size="14.00" fill="#666666">[BASE TABLE]</text>
<polygon fill="none" stroke="#000000" points="609.5,-267.5 609.5,-297.5 873.5,-297.5 873.5,-267.5 609.5,-267.5"/>
<text text-anchor="start" x="616.5" y="-278.9" font-family="Arial" font-size="14.00" fill="#000000">id </text>
<text text-anchor="start" x="631.2798" y="-278.9" font-family="Arial" font-size="14.00" fill="#666666">[varchar]</text>
<polygon fill="none" stroke="#000000" points="609.5,-237.5 609.5,-267.5 873.5,-267.5 873.5,-237.5 609.5,-237.5"/>
<text text-anchor="start" x="616.5" y="-248.9" font-family="Arial" font-size="14.00" fill="#000000">name </text>
<text text-anchor="start" x="655.399" y="-248.9" font-family="Arial" font-size="14.00" fill="#666666">[varchar]</text>
<polygon fill="none" stroke="#000000" points="609.5,-207.5 609.5,-237.5 873.5,-237.5 873.5,-207.5 609.5,-207.5"/>
<text text-anchor="start" x="616.5" y="-218.9" font-family="Arial" font-size="14.00" fill="#000000">created_at </text>
<text text-anchor="start" x="686.528" y="-218.9" font-family="Arial" font-size="14.00" fill="#666666">[timestamp with time zone]</text>
<polygon fill="none" stroke="#000000" points="609.5,-177.5 609.5,-207.5 873.5,-207.5 873.5,-177.5 609.5,-177.5"/>
<text text-anchor="start" x="616.5" y="-188.9" font-family="Arial" font-size="14.00" fill="#000000">updated_at </text>
<text text-anchor="start" x="690.4326" y="-188.9" font-family="Arial" font-size="14.00" fill="#666666">[timestamp with time zone]</text>
</g>
<!-- public.recruitments -->
<g id="node5" class="node">
<title>public.recruitments</title>
<polygon fill="#efefef" stroke="transparent" points="652.5,-1069.5 652.5,-1104.5 914.5,-1104.5 914.5,-1069.5 652.5,-1069.5"/>
<polygon fill="none" stroke="#000000" points="652.5,-1069.5 652.5,-1104.5 914.5,-1104.5 914.5,-1069.5 652.5,-1069.5"/>
<text text-anchor="start" x="659.3685" y="-1082.3" font-family="Arial Bold" font-size="18.00" fill="#000000">public.recruitments</text>
<text text-anchor="start" x="810.3777" y="-1082.3" font-family="Arial" font-size="14.00" fill="#000000"> </text>
<text text-anchor="start" x="814.2683" y="-1082.3" font-family="Arial" font-size="14.00" fill="#666666">[BASE TABLE]</text>
<polygon fill="none" stroke="#000000" points="652.5,-1039.5 652.5,-1069.5 914.5,-1069.5 914.5,-1039.5 652.5,-1039.5"/>
<text text-anchor="start" x="659.5" y="-1050.9" font-family="Arial" font-size="14.00" fill="#000000">id </text>
<text text-anchor="start" x="674.2798" y="-1050.9" font-family="Arial" font-size="14.00" fill="#666666">[varchar]</text>
<polygon fill="none" stroke="#000000" points="652.5,-1009.5 652.5,-1039.5 914.5,-1039.5 914.5,-1009.5 652.5,-1009.5"/>
<text text-anchor="start" x="659.5" y="-1020.9" font-family="Arial" font-size="14.00" fill="#000000">title </text>
<text text-anchor="start" x="685.1676" y="-1020.9" font-family="Arial" font-size="14.00" fill="#666666">[varchar(60)]</text>
<polygon fill="none" stroke="#000000" points="652.5,-979.5 652.5,-1009.5 914.5,-1009.5 914.5,-979.5 652.5,-979.5"/>
<text text-anchor="start" x="659.5" y="-990.9" font-family="Arial" font-size="14.00" fill="#000000">type </text>
<text text-anchor="start" x="689.8464" y="-990.9" font-family="Arial" font-size="14.00" fill="#666666">[varchar]</text>
<polygon fill="none" stroke="#000000" points="652.5,-949.5 652.5,-979.5 914.5,-979.5 914.5,-949.5 652.5,-949.5"/>
<text text-anchor="start" x="659.5" y="-960.9" font-family="Arial" font-size="14.00" fill="#000000">place </text>
<text text-anchor="start" x="696.845" y="-960.9" font-family="Arial" font-size="14.00" fill="#666666">[varchar]</text>
<polygon fill="none" stroke="#000000" points="652.5,-919.5 652.5,-949.5 914.5,-949.5 914.5,-919.5 652.5,-919.5"/>
<text text-anchor="start" x="659.5" y="-930.9" font-family="Arial" font-size="14.00" fill="#000000">start_at </text>
<text text-anchor="start" x="710.0708" y="-930.9" font-family="Arial" font-size="14.00" fill="#666666">[timestamp with time zone]</text>
<polygon fill="none" stroke="#000000" points="652.5,-889.5 652.5,-919.5 914.5,-919.5 914.5,-889.5 652.5,-889.5"/>
<text text-anchor="start" x="659.5" y="-900.9" font-family="Arial" font-size="14.00" fill="#000000">detail </text>
<text text-anchor="start" x="696.8422" y="-900.9" font-family="Arial" font-size="14.00" fill="#666666">[varchar(10000)]</text>
<polygon fill="none" stroke="#000000" points="652.5,-859.5 652.5,-889.5 914.5,-889.5 914.5,-859.5 652.5,-859.5"/>
<text text-anchor="start" x="659.5" y="-870.9" font-family="Arial" font-size="14.00" fill="#000000">closing_at </text>
<text text-anchor="start" x="726.4074" y="-870.9" font-family="Arial" font-size="14.00" fill="#666666">[timestamp with time zone]</text>
<polygon fill="none" stroke="#000000" points="652.5,-829.5 652.5,-859.5 914.5,-859.5 914.5,-829.5 652.5,-829.5"/>
<text text-anchor="start" x="659.5" y="-840.9" font-family="Arial" font-size="14.00" fill="#000000">competition_id </text>
<text text-anchor="start" x="753.6304" y="-840.9" font-family="Arial" font-size="14.00" fill="#666666">[varchar]</text>
<polygon fill="none" stroke="#000000" points="652.5,-799.5 652.5,-829.5 914.5,-829.5 914.5,-799.5 652.5,-799.5"/>
<text text-anchor="start" x="659.5" y="-810.9" font-family="Arial" font-size="14.00" fill="#000000">prefecture_id </text>
<text text-anchor="start" x="745.0778" y="-810.9" font-family="Arial" font-size="14.00" fill="#666666">[varchar]</text>
<polygon fill="none" stroke="#000000" points="652.5,-769.5 652.5,-799.5 914.5,-799.5 914.5,-769.5 652.5,-769.5"/>
<text text-anchor="start" x="659.5" y="-780.9" font-family="Arial" font-size="14.00" fill="#000000">user_id </text>
<text text-anchor="start" x="709.2882" y="-780.9" font-family="Arial" font-size="14.00" fill="#666666">[varchar]</text>
<polygon fill="none" stroke="#000000" points="652.5,-739.5 652.5,-769.5 914.5,-769.5 914.5,-739.5 652.5,-739.5"/>
<text text-anchor="start" x="659.5" y="-750.9" font-family="Arial" font-size="14.00" fill="#000000">created_at </text>
<text text-anchor="start" x="729.528" y="-750.9" font-family="Arial" font-size="14.00" fill="#666666">[timestamp with time zone]</text>
<polygon fill="none" stroke="#000000" points="652.5,-709.5 652.5,-739.5 914.5,-739.5 914.5,-709.5 652.5,-709.5"/>
<text text-anchor="start" x="659.5" y="-720.9" font-family="Arial" font-size="14.00" fill="#000000">updated_at </text>
<text text-anchor="start" x="733.4326" y="-720.9" font-family="Arial" font-size="14.00" fill="#666666">[timestamp with time zone]</text>
<polygon fill="none" stroke="#000000" points="652.5,-679.5 652.5,-709.5 914.5,-709.5 914.5,-679.5 652.5,-679.5"/>
<text text-anchor="start" x="659.5" y="-690.9" font-family="Arial" font-size="14.00" fill="#000000">location_lat </text>
<text text-anchor="start" x="734.1872" y="-690.9" font-family="Arial" font-size="14.00" fill="#666666">[double precision]</text>
<polygon fill="none" stroke="#000000" points="652.5,-649.5 652.5,-679.5 914.5,-679.5 914.5,-649.5 652.5,-649.5"/>
<text text-anchor="start" x="659.5" y="-660.9" font-family="Arial" font-size="14.00" fill="#000000">location_lng </text>
<text text-anchor="start" x="738.0792" y="-660.9" font-family="Arial" font-size="14.00" fill="#666666">[double precision]</text>
<polygon fill="none" stroke="#000000" points="652.5,-619.5 652.5,-649.5 914.5,-649.5 914.5,-619.5 652.5,-619.5"/>
<text text-anchor="start" x="659.5" y="-630.9" font-family="Arial" font-size="14.00" fill="#000000">status </text>
<text text-anchor="start" x="700.737" y="-630.9" font-family="Arial" font-size="14.00" fill="#666666">[varchar]</text>
<polygon fill="none" stroke="#000000" points="652.5,-589.5 652.5,-619.5 914.5,-619.5 914.5,-589.5 652.5,-589.5"/>
<text text-anchor="start" x="659.0302" y="-600.9" font-family="Arial" font-size="14.00" fill="#000000">published_at </text>
<text text-anchor="start" x="742.2854" y="-600.9" font-family="Arial" font-size="14.00" fill="#666666">[timestamp with time zone]</text>
</g>
<!-- public.recruitments&#45;&gt;public.users -->
<g id="edge1" class="edge">
<title>public.recruitments:user_id&#45;&gt;public.users:id</title>
<path fill="none" stroke="#000000" d="M924.5638,-782.3447C988.4136,-752.2679 898.4688,-417.5 977.5,-417.5"/>
<polygon fill="#000000" stroke="#000000" points="924.2783,-782.4058 913.5576,-780.0998 919.3891,-783.4529 914.5,-784.5 914.5,-784.5 914.5,-784.5 919.3891,-783.4529 915.4424,-788.9002 924.2783,-782.4058 924.2783,-782.4058"/>
<text text-anchor="start" x="921.5535" y="-794.5" font-family="Arial" font-size="10.00" fill="#000000">FOREIGN KEY (user_id) REFERENCES users(id) ON DELETE CASCADE</text>
</g>
<!-- public.recruitments&#45;&gt;public.prefectures -->
<g id="edge2" class="edge">
<title>public.recruitments:prefecture_id&#45;&gt;public.prefectures:id</title>
<path fill="none" stroke="#000000" d="M642.1622,-814.1802C515.3033,-806.0373 593.3871,-643.9971 557.5,-511 543.9333,-460.7222 557.576,-282.5 505.5,-282.5"/>
<polygon fill="#000000" stroke="#000000" points="642.5048,-814.1907 652.3608,-818.9978 647.5024,-814.3453 652.5,-814.5 652.5,-814.5 652.5,-814.5 647.5024,-814.3453 652.6392,-810.0022 642.5048,-814.1907 642.5048,-814.1907"/>
<text text-anchor="start" x="259.16" y="-824.5" font-family="Arial" font-size="10.00" fill="#000000">FOREIGN KEY (prefecture_id) REFERENCES prefectures(id) ON DELETE RESTRICT</text>
</g>
<!-- public.recruitments&#45;&gt;public.competitions -->
<g id="edge3" class="edge">
<title>public.recruitments:competition_id&#45;&gt;public.competitions:id</title>
<path fill="none" stroke="#000000" d="M642.467,-844.1315C524.1682,-835.1131 595.7946,-662.5743 652.5,-547 707.2039,-435.5052 818.7961,-487.4948 873.5,-376 891.8043,-338.693 915.0556,-282.5 873.5,-282.5"/>
<polygon fill="#000000" stroke="#000000" points="642.5067,-844.1328 652.3348,-848.997 647.5034,-844.3164 652.5,-844.5 652.5,-844.5 652.5,-844.5 647.5034,-844.3164 652.6652,-840.003 642.5067,-844.1328 642.5067,-844.1328"/>
<text text-anchor="start" x="247.051" y="-854.5" font-family="Arial" font-size="10.00" fill="#000000">FOREIGN KEY (competition_id) REFERENCES competitions(id) ON DELETE RESTRICT</text>
</g>
<!-- public.stocks -->
<g id="node6" class="node">
<title>public.stocks</title>
<polygon fill="#efefef" stroke="transparent" points="846.5,-1391.5 846.5,-1426.5 1099.5,-1426.5 1099.5,-1391.5 846.5,-1391.5"/>
<polygon fill="none" stroke="#000000" points="846.5,-1391.5 846.5,-1426.5 1099.5,-1426.5 1099.5,-1391.5 846.5,-1391.5"/>
<text text-anchor="start" x="872.8643" y="-1404.3" font-family="Arial Bold" font-size="18.00" fill="#000000">public.stocks</text>
<text text-anchor="start" x="975.8819" y="-1404.3" font-family="Arial" font-size="14.00" fill="#000000"> </text>
<text text-anchor="start" x="979.7725" y="-1404.3" font-family="Arial" font-size="14.00" fill="#666666">[BASE TABLE]</text>
<polygon fill="none" stroke="#000000" points="846.5,-1361.5 846.5,-1391.5 1099.5,-1391.5 1099.5,-1361.5 846.5,-1361.5"/>
<text text-anchor="start" x="853.5" y="-1372.9" font-family="Arial" font-size="14.00" fill="#000000">id </text>
<text text-anchor="start" x="868.2798" y="-1372.9" font-family="Arial" font-size="14.00" fill="#666666">[varchar]</text>
<polygon fill="none" stroke="#000000" points="846.5,-1331.5 846.5,-1361.5 1099.5,-1361.5 1099.5,-1331.5 846.5,-1331.5"/>
<text text-anchor="start" x="853.5" y="-1342.9" font-family="Arial" font-size="14.00" fill="#000000">recruitment_id </text>
<text text-anchor="start" x="946.0624" y="-1342.9" font-family="Arial" font-size="14.00" fill="#666666">[varchar]</text>
<polygon fill="none" stroke="#000000" points="846.5,-1301.5 846.5,-1331.5 1099.5,-1331.5 1099.5,-1301.5 846.5,-1301.5"/>
<text text-anchor="start" x="853.5" y="-1312.9" font-family="Arial" font-size="14.00" fill="#000000">user_id </text>
<text text-anchor="start" x="903.2882" y="-1312.9" font-family="Arial" font-size="14.00" fill="#666666">[varchar]</text>
<polygon fill="none" stroke="#000000" points="846.5,-1271.5 846.5,-1301.5 1099.5,-1301.5 1099.5,-1271.5 846.5,-1271.5"/>
<text text-anchor="start" x="853.5" y="-1282.9" font-family="Arial" font-size="14.00" fill="#000000">created_at </text>
<text text-anchor="start" x="923.528" y="-1282.9" font-family="Arial" font-size="14.00" fill="#666666">[timestamp with time zone]</text>
<polygon fill="none" stroke="#000000" points="846.5,-1241.5 846.5,-1271.5 1099.5,-1271.5 1099.5,-1241.5 846.5,-1241.5"/>
<text text-anchor="start" x="853.1915" y="-1252.9" font-family="Arial" font-size="14.00" fill="#000000">updated_at </text>
<text text-anchor="start" x="927.1241" y="-1252.9" font-family="Arial" font-size="14.00" fill="#666666">[timestamp with time zone]</text>
</g>
<!-- public.stocks&#45;&gt;public.users -->
<g id="edge4" class="edge">
<title>public.stocks:user_id&#45;&gt;public.users:id</title>
<path fill="none" stroke="#000000" d="M1109.8758,-1315.34C1147.942,-1305.8646 1124.3174,-1240.4905 1099.5,-1199 1074.9005,-1157.8739 1029.965,-1188.5959 1004.5,-1148 993.7099,-1130.7986 957.1945,-417.5 977.5,-417.5"/>
<polygon fill="#000000" stroke="#000000" points="1109.4381,-1315.3888 1099,-1312.0279 1104.469,-1315.9444 1099.5,-1316.5 1099.5,-1316.5 1099.5,-1316.5 1104.469,-1315.9444 1100,-1320.9721 1109.4381,-1315.3888 1109.4381,-1315.3888"/>
<text text-anchor="start" x="1106.5535" y="-1326.5" font-family="Arial" font-size="10.00" fill="#000000">FOREIGN KEY (user_id) REFERENCES users(id) ON DELETE CASCADE</text>
</g>
<!-- public.stocks&#45;&gt;public.recruitments -->
<g id="edge5" class="edge">
<title>public.stocks:recruitment_id&#45;&gt;public.recruitments:id</title>
<path fill="none" stroke="#000000" d="M836.3206,-1345.6664C785.0274,-1336.5302 818.8432,-1254.3136 846.5,-1199 863.3947,-1165.2105 897.6053,-1181.7895 914.5,-1148 933.0842,-1110.8316 956.0556,-1054.5 914.5,-1054.5"/>
<polygon fill="#000000" stroke="#000000" points="836.5334,-1345.6837 846.1327,-1350.985 841.5167,-1346.0918 846.5,-1346.5 846.5,-1346.5 846.5,-1346.5 841.5167,-1346.0918 846.8673,-1342.015 836.5334,-1345.6837 836.5334,-1345.6837"/>
<text text-anchor="start" x="853.0005" y="-1356.5" font-family="Arial" font-size="10.00" fill="#000000">FOREIGN KEY (recruitment_id) REFERENCES recruitments(id) ON DELETE CASCADE</text>
</g>
<!-- public.applicants -->
<g id="node7" class="node">
<title>public.applicants</title>
<polygon fill="#efefef" stroke="transparent" points="466.5,-1406.5 466.5,-1441.5 719.5,-1441.5 719.5,-1406.5 466.5,-1406.5"/>
<polygon fill="none" stroke="#000000" points="466.5,-1406.5 466.5,-1441.5 719.5,-1441.5 719.5,-1406.5 466.5,-1406.5"/>
<text text-anchor="start" x="477.8577" y="-1419.3" font-family="Arial Bold" font-size="18.00" fill="#000000">public.applicants</text>
<text text-anchor="start" x="610.8885" y="-1419.3" font-family="Arial" font-size="14.00" fill="#000000"> </text>
<text text-anchor="start" x="614.7791" y="-1419.3" font-family="Arial" font-size="14.00" fill="#666666">[BASE TABLE]</text>
<polygon fill="none" stroke="#000000" points="466.5,-1376.5 466.5,-1406.5 719.5,-1406.5 719.5,-1376.5 466.5,-1376.5"/>
<text text-anchor="start" x="473.5" y="-1387.9" font-family="Arial" font-size="14.00" fill="#000000">id </text>
<text text-anchor="start" x="488.2798" y="-1387.9" font-family="Arial" font-size="14.00" fill="#666666">[varchar]</text>
<polygon fill="none" stroke="#000000" points="466.5,-1346.5 466.5,-1376.5 719.5,-1376.5 719.5,-1346.5 466.5,-1346.5"/>
<text text-anchor="start" x="473.5" y="-1357.9" font-family="Arial" font-size="14.00" fill="#000000">recruitment_id </text>
<text text-anchor="start" x="566.0624" y="-1357.9" font-family="Arial" font-size="14.00" fill="#666666">[varchar]</text>
<polygon fill="none" stroke="#000000" points="466.5,-1316.5 466.5,-1346.5 719.5,-1346.5 719.5,-1316.5 466.5,-1316.5"/>
<text text-anchor="start" x="473.5" y="-1327.9" font-family="Arial" font-size="14.00" fill="#000000">user_id </text>
<text text-anchor="start" x="523.2882" y="-1327.9" font-family="Arial" font-size="14.00" fill="#666666">[varchar]</text>
<polygon fill="none" stroke="#000000" points="466.5,-1286.5 466.5,-1316.5 719.5,-1316.5 719.5,-1286.5 466.5,-1286.5"/>
<text text-anchor="start" x="473.5" y="-1297.9" font-family="Arial" font-size="14.00" fill="#000000">created_at </text>
<text text-anchor="start" x="543.528" y="-1297.9" font-family="Arial" font-size="14.00" fill="#666666">[timestamp with time zone]</text>
<polygon fill="none" stroke="#000000" points="466.5,-1256.5 466.5,-1286.5 719.5,-1286.5 719.5,-1256.5 466.5,-1256.5"/>
<text text-anchor="start" x="473.1915" y="-1267.9" font-family="Arial" font-size="14.00" fill="#000000">updated_at </text>
<text text-anchor="start" x="547.1241" y="-1267.9" font-family="Arial" font-size="14.00" fill="#666666">[timestamp with time zone]</text>
<polygon fill="none" stroke="#000000" points="466.5,-1226.5 466.5,-1256.5 719.5,-1256.5 719.5,-1226.5 466.5,-1226.5"/>
<text text-anchor="start" x="473.5" y="-1237.9" font-family="Arial" font-size="14.00" fill="#000000">message </text>
<text text-anchor="start" x="534.1816" y="-1237.9" font-family="Arial" font-size="14.00" fill="#666666">[varchar(1000)]</text>
</g>
<!-- public.applicants&#45;&gt;public.users -->
<g id="edge6" class="edge">
<title>public.applicants:user_id&#45;&gt;public.users:id</title>
<path fill="none" stroke="#000000" d="M458.9113,-1324.3805C424.2894,-1254.5371 441.4953,-691.281 600.5,-547 708.1244,-449.3415 804.4815,-591.4657 925.5,-511 965.096,-484.6724 929.9502,-417.5 977.5,-417.5"/>
<polygon fill="#000000" stroke="#000000" points="459.207,-1324.658 463.4211,-1334.7818 462.8535,-1328.079 466.5,-1331.5 466.5,-1331.5 466.5,-1331.5 462.8535,-1328.079 469.5789,-1328.2182 459.207,-1324.658 459.207,-1324.658"/>
<text text-anchor="start" x="473.5535" y="-1341.5" font-family="Arial" font-size="10.00" fill="#000000">FOREIGN KEY (user_id) REFERENCES users(id) ON DELETE CASCADE</text>
</g>
<!-- public.applicants&#45;&gt;public.recruitments -->
<g id="edge7" class="edge">
<title>public.applicants:recruitment_id&#45;&gt;public.recruitments:id</title>
<path fill="none" stroke="#000000" d="M729.8324,-1360.7919C794.7838,-1351.2996 758.0857,-1248.5355 719.5,-1184 702.1528,-1154.9864 669.8472,-1177.0136 652.5,-1148 631.175,-1112.3334 610.9444,-1054.5 652.5,-1054.5"/>
<polygon fill="#000000" stroke="#000000" points="729.4766,-1360.8162 719.1923,-1357.0105 724.4883,-1361.1581 719.5,-1361.5 719.5,-1361.5 719.5,-1361.5 724.4883,-1361.1581 719.8077,-1365.9895 729.4766,-1360.8162 729.4766,-1360.8162"/>
<text text-anchor="start" x="318.0005" y="-1371.5" font-family="Arial" font-size="10.00" fill="#000000">FOREIGN KEY (recruitment_id) REFERENCES recruitments(id) ON DELETE CASCADE</text>
</g>
<!-- public.tags -->
<g id="node8" class="node">
<title>public.tags</title>
<polygon fill="#efefef" stroke="transparent" points="2206.5,-889.5 2206.5,-924.5 2459.5,-924.5 2459.5,-889.5 2206.5,-889.5"/>
<polygon fill="none" stroke="#000000" points="2206.5,-889.5 2206.5,-924.5 2459.5,-924.5 2459.5,-889.5 2206.5,-889.5"/>
<text text-anchor="start" x="2241.3612" y="-902.3" font-family="Arial Bold" font-size="18.00" fill="#000000">public.tags</text>
<text text-anchor="start" x="2327.385" y="-902.3" font-family="Arial" font-size="14.00" fill="#000000"> </text>
<text text-anchor="start" x="2331.2756" y="-902.3" font-family="Arial" font-size="14.00" fill="#666666">[BASE TABLE]</text>
<polygon fill="none" stroke="#000000" points="2206.5,-859.5 2206.5,-889.5 2459.5,-889.5 2459.5,-859.5 2206.5,-859.5"/>
<text text-anchor="start" x="2213.5" y="-870.9" font-family="Arial" font-size="14.00" fill="#000000">id </text>
<text text-anchor="start" x="2228.2798" y="-870.9" font-family="Arial" font-size="14.00" fill="#666666">[varchar]</text>
<polygon fill="none" stroke="#000000" points="2206.5,-829.5 2206.5,-859.5 2459.5,-859.5 2459.5,-829.5 2206.5,-829.5"/>
<text text-anchor="start" x="2213.5" y="-840.9" font-family="Arial" font-size="14.00" fill="#000000">name </text>
<text text-anchor="start" x="2252.399" y="-840.9" font-family="Arial" font-size="14.00" fill="#666666">[varchar]</text>
<polygon fill="none" stroke="#000000" points="2206.5,-799.5 2206.5,-829.5 2459.5,-829.5 2459.5,-799.5 2206.5,-799.5"/>
<text text-anchor="start" x="2213.5" y="-810.9" font-family="Arial" font-size="14.00" fill="#000000">created_at </text>
<text text-anchor="start" x="2283.528" y="-810.9" font-family="Arial" font-size="14.00" fill="#666666">[timestamp with time zone]</text>
<polygon fill="none" stroke="#000000" points="2206.5,-769.5 2206.5,-799.5 2459.5,-799.5 2459.5,-769.5 2206.5,-769.5"/>
<text text-anchor="start" x="2213.1915" y="-780.9" font-family="Arial" font-size="14.00" fill="#000000">updated_at </text>
<text text-anchor="start" x="2287.1241" y="-780.9" font-family="Arial" font-size="14.00" fill="#666666">[timestamp with time zone]</text>
</g>
<!-- public.recruitment_tags -->
<g id="node9" class="node">
<title>public.recruitment_tags</title>
<polygon fill="#efefef" stroke="transparent" points="1699.5,-1391.5 1699.5,-1426.5 1996.5,-1426.5 1996.5,-1391.5 1699.5,-1391.5"/>
<polygon fill="none" stroke="#000000" points="1699.5,-1391.5 1699.5,-1426.5 1996.5,-1426.5 1996.5,-1391.5 1699.5,-1391.5"/>
<text text-anchor="start" x="1706.3581" y="-1404.3" font-family="Arial Bold" font-size="18.00" fill="#000000">public.recruitment_tags</text>
<text text-anchor="start" x="1892.3881" y="-1404.3" font-family="Arial" font-size="14.00" fill="#000000"> </text>
<text text-anchor="start" x="1896.2787" y="-1404.3" font-family="Arial" font-size="14.00" fill="#666666">[BASE TABLE]</text>
<polygon fill="none" stroke="#000000" points="1699.5,-1361.5 1699.5,-1391.5 1996.5,-1391.5 1996.5,-1361.5 1699.5,-1361.5"/>
<text text-anchor="start" x="1706.5" y="-1372.9" font-family="Arial" font-size="14.00" fill="#000000">id </text>
<text text-anchor="start" x="1721.2798" y="-1372.9" font-family="Arial" font-size="14.00" fill="#666666">[varchar]</text>
<polygon fill="none" stroke="#000000" points="1699.5,-1331.5 1699.5,-1361.5 1996.5,-1361.5 1996.5,-1331.5 1699.5,-1331.5"/>
<text text-anchor="start" x="1706.5" y="-1342.9" font-family="Arial" font-size="14.00" fill="#000000">recruitment_id </text>
<text text-anchor="start" x="1799.0624" y="-1342.9" font-family="Arial" font-size="14.00" fill="#666666">[varchar]</text>
<polygon fill="none" stroke="#000000" points="1699.5,-1301.5 1699.5,-1331.5 1996.5,-1331.5 1996.5,-1301.5 1699.5,-1301.5"/>
<text text-anchor="start" x="1706.5" y="-1312.9" font-family="Arial" font-size="14.00" fill="#000000">tag_id </text>
<text text-anchor="start" x="1748.5182" y="-1312.9" font-family="Arial" font-size="14.00" fill="#666666">[varchar]</text>
<polygon fill="none" stroke="#000000" points="1699.5,-1271.5 1699.5,-1301.5 1996.5,-1301.5 1996.5,-1271.5 1699.5,-1271.5"/>
<text text-anchor="start" x="1706.5" y="-1282.9" font-family="Arial" font-size="14.00" fill="#000000">created_at </text>
<text text-anchor="start" x="1776.528" y="-1282.9" font-family="Arial" font-size="14.00" fill="#666666">[timestamp with time zone]</text>
<polygon fill="none" stroke="#000000" points="1699.5,-1241.5 1699.5,-1271.5 1996.5,-1271.5 1996.5,-1241.5 1699.5,-1241.5"/>
<text text-anchor="start" x="1706.5" y="-1252.9" font-family="Arial" font-size="14.00" fill="#000000">updated_at </text>
<text text-anchor="start" x="1780.4326" y="-1252.9" font-family="Arial" font-size="14.00" fill="#666666">[timestamp with time zone]</text>
</g>
<!-- public.recruitment_tags&#45;&gt;public.recruitments -->
<g id="edge8" class="edge">
<title>public.recruitment_tags:recruitment_id&#45;&gt;public.recruitments:id</title>
<path fill="none" stroke="#000000" d="M1689.1772,-1346.4465C1443.6608,-1343.8829 1392.7394,-1249.6783 1150.5,-1184 1085.9964,-1166.5112 1062.3948,-1181.388 1004.5,-1148 954.5345,-1119.1849 972.179,-1054.5 914.5,-1054.5"/>
<polygon fill="#000000" stroke="#000000" points="1689.5001,-1346.4481 1699.4767,-1350.9999 1694.5001,-1346.4741 1699.5,-1346.5 1699.5,-1346.5 1699.5,-1346.5 1694.5001,-1346.4741 1699.5233,-1342.0001 1689.5001,-1346.4481 1689.5001,-1346.4481"/>
<text text-anchor="start" x="1298.0005" y="-1356.5" font-family="Arial" font-size="10.00" fill="#000000">FOREIGN KEY (recruitment_id) REFERENCES recruitments(id) ON DELETE CASCADE</text>
</g>
<!-- public.recruitment_tags&#45;&gt;public.tags -->
<g id="edge9" class="edge">
<title>public.recruitment_tags:tag_id&#45;&gt;public.tags:id</title>
<path fill="none" stroke="#000000" d="M2006.6711,-1316.2317C2099.4649,-1311.2012 2108.6618,-1236.107 2153.5,-1148 2181.5787,-1092.8254 2144.5916,-874.5 2206.5,-874.5"/>
<polygon fill="#000000" stroke="#000000" points="2006.4965,-1316.2362 1996.3813,-1312.0016 2001.4983,-1316.3681 1996.5,-1316.5 1996.5,-1316.5 1996.5,-1316.5 2001.4983,-1316.3681 1996.6187,-1320.9984 2006.4965,-1316.2362 2006.4965,-1316.2362"/>
<text text-anchor="start" x="2003.1035" y="-1326.5" font-family="Arial" font-size="10.00" fill="#000000">FOREIGN KEY (tag_id) REFERENCES tags(id) ON DELETE CASCADE</text>
</g>
<!-- public.rooms -->
<g id="node10" class="node">
<title>public.rooms</title>
<polygon fill="#efefef" stroke="transparent" points="1488.5,-282.5 1488.5,-317.5 1741.5,-317.5 1741.5,-282.5 1488.5,-282.5"/>
<polygon fill="none" stroke="#000000" points="1488.5,-282.5 1488.5,-317.5 1741.5,-317.5 1741.5,-282.5 1488.5,-282.5"/>
<text text-anchor="start" x="1515.3701" y="-295.3" font-family="Arial Bold" font-size="18.00" fill="#000000">public.rooms</text>
<text text-anchor="start" x="1617.3761" y="-295.3" font-family="Arial" font-size="14.00" fill="#000000"> </text>
<text text-anchor="start" x="1621.2667" y="-295.3" font-family="Arial" font-size="14.00" fill="#666666">[BASE TABLE]</text>
<polygon fill="none" stroke="#000000" points="1488.5,-252.5 1488.5,-282.5 1741.5,-282.5 1741.5,-252.5 1488.5,-252.5"/>
<text text-anchor="start" x="1495.5" y="-263.9" font-family="Arial" font-size="14.00" fill="#000000">id </text>
<text text-anchor="start" x="1510.2798" y="-263.9" font-family="Arial" font-size="14.00" fill="#666666">[varchar]</text>
<polygon fill="none" stroke="#000000" points="1488.5,-222.5 1488.5,-252.5 1741.5,-252.5 1741.5,-222.5 1488.5,-222.5"/>
<text text-anchor="start" x="1495.5" y="-233.9" font-family="Arial" font-size="14.00" fill="#000000">created_at </text>
<text text-anchor="start" x="1565.528" y="-233.9" font-family="Arial" font-size="14.00" fill="#666666">[timestamp with time zone]</text>
<polygon fill="none" stroke="#000000" points="1488.5,-192.5 1488.5,-222.5 1741.5,-222.5 1741.5,-192.5 1488.5,-192.5"/>
<text text-anchor="start" x="1495.1915" y="-203.9" font-family="Arial" font-size="14.00" fill="#000000">updated_at </text>
<text text-anchor="start" x="1569.1241" y="-203.9" font-family="Arial" font-size="14.00" fill="#666666">[timestamp with time zone]</text>
</g>
<!-- public.messages -->
<g id="node11" class="node">
<title>public.messages</title>
<polygon fill="#efefef" stroke="transparent" points="1057.5,-889.5 1057.5,-924.5 1302.5,-924.5 1302.5,-889.5 1057.5,-889.5"/>
<polygon fill="none" stroke="#000000" points="1057.5,-889.5 1057.5,-924.5 1302.5,-924.5 1302.5,-889.5 1057.5,-889.5"/>
<text text-anchor="start" x="1064.36" y="-902.3" font-family="Arial Bold" font-size="18.00" fill="#000000">public.messages</text>
<text text-anchor="start" x="1198.3862" y="-902.3" font-family="Arial" font-size="14.00" fill="#000000"> </text>
<text text-anchor="start" x="1202.2768" y="-902.3" font-family="Arial" font-size="14.00" fill="#666666">[BASE TABLE]</text>
<polygon fill="none" stroke="#000000" points="1057.5,-859.5 1057.5,-889.5 1302.5,-889.5 1302.5,-859.5 1057.5,-859.5"/>
<text text-anchor="start" x="1064.5" y="-870.9" font-family="Arial" font-size="14.00" fill="#000000">id </text>
<text text-anchor="start" x="1079.2798" y="-870.9" font-family="Arial" font-size="14.00" fill="#666666">[varchar]</text>
<polygon fill="none" stroke="#000000" points="1057.5,-829.5 1057.5,-859.5 1302.5,-859.5 1302.5,-829.5 1057.5,-829.5"/>
<text text-anchor="start" x="1064.5" y="-840.9" font-family="Arial" font-size="14.00" fill="#000000">content </text>
<text text-anchor="start" x="1114.3022" y="-840.9" font-family="Arial" font-size="14.00" fill="#666666">[varchar(1000)]</text>
<polygon fill="none" stroke="#000000" points="1057.5,-799.5 1057.5,-829.5 1302.5,-829.5 1302.5,-799.5 1057.5,-799.5"/>
<text text-anchor="start" x="1064.5" y="-810.9" font-family="Arial" font-size="14.00" fill="#000000">room_id </text>
<text text-anchor="start" x="1118.9488" y="-810.9" font-family="Arial" font-size="14.00" fill="#666666">[varchar]</text>
<polygon fill="none" stroke="#000000" points="1057.5,-769.5 1057.5,-799.5 1302.5,-799.5 1302.5,-769.5 1057.5,-769.5"/>
<text text-anchor="start" x="1064.5" y="-780.9" font-family="Arial" font-size="14.00" fill="#000000">user_id </text>
<text text-anchor="start" x="1114.2882" y="-780.9" font-family="Arial" font-size="14.00" fill="#666666">[varchar]</text>
</g>
<!-- public.messages&#45;&gt;public.users -->
<g id="edge10" class="edge">
<title>public.messages:user_id&#45;&gt;public.users:id</title>
<path fill="none" stroke="#000000" d="M1177.7949,-759.6634C1154.5168,-707.3739 988.5937,-543.0888 977.5,-511 963.922,-471.7253 935.9444,-417.5 977.5,-417.5"/>
<polygon fill="#000000" stroke="#000000" points="1177.8483,-759.858 1176.1611,-770.6933 1179.1741,-764.679 1180.5,-769.5 1180.5,-769.5 1180.5,-769.5 1179.1741,-764.679 1184.8389,-768.3067 1177.8483,-759.858 1177.8483,-759.858"/>
<text text-anchor="start" x="1187.829" y="-753.5" font-family="Arial" font-size="10.00" fill="#000000">FOREIGN KEY (user_id) REFERENCES users(id) ON DELETE SET NULL</text>
</g>
<!-- public.messages&#45;&gt;public.rooms -->
<g id="edge11" class="edge">
<title>public.messages:room_id&#45;&gt;public.rooms:id</title>
<path fill="none" stroke="#000000" d="M1312.7827,-814.032C1415.0644,-804.1126 1281.3564,-638.8913 1354.5,-547 1379.0345,-516.177 1410.6231,-541.5473 1435.5,-511 1505.4389,-425.1195 1377.7439,-267.5 1488.5,-267.5"/>
<polygon fill="#000000" stroke="#000000" points="1312.4897,-814.0453 1302.2954,-810.0047 1307.4948,-814.2726 1302.5,-814.5 1302.5,-814.5 1302.5,-814.5 1307.4948,-814.2726 1302.7046,-818.9953 1312.4897,-814.0453 1312.4897,-814.0453"/>
<text text-anchor="start" x="955.2245" y="-824.5" font-family="Arial" font-size="10.00" fill="#000000">FOREIGN KEY (room_id) REFERENCES rooms(id) ON DELETE CASCADE</text>
</g>
<!-- public.entries -->
<g id="node12" class="node">
<title>public.entries</title>
<polygon fill="#efefef" stroke="transparent" points="1406.5,-874.5 1406.5,-909.5 1623.5,-909.5 1623.5,-874.5 1406.5,-874.5"/>
<polygon fill="none" stroke="#000000" points="1406.5,-874.5 1406.5,-909.5 1623.5,-909.5 1623.5,-874.5 1406.5,-874.5"/>
<text text-anchor="start" x="1413.3649" y="-887.3" font-family="Arial Bold" font-size="18.00" fill="#000000">public.entries</text>
<text text-anchor="start" x="1519.3813" y="-887.3" font-family="Arial" font-size="14.00" fill="#000000"> </text>
<text text-anchor="start" x="1523.2719" y="-887.3" font-family="Arial" font-size="14.00" fill="#666666">[BASE TABLE]</text>
<polygon fill="none" stroke="#000000" points="1406.5,-844.5 1406.5,-874.5 1623.5,-874.5 1623.5,-844.5 1406.5,-844.5"/>
<text text-anchor="start" x="1413.5" y="-855.9" font-family="Arial" font-size="14.00" fill="#000000">id </text>
<text text-anchor="start" x="1428.2798" y="-855.9" font-family="Arial" font-size="14.00" fill="#666666">[varchar]</text>
<polygon fill="none" stroke="#000000" points="1406.5,-814.5 1406.5,-844.5 1623.5,-844.5 1623.5,-814.5 1406.5,-814.5"/>
<text text-anchor="start" x="1413.5" y="-825.9" font-family="Arial" font-size="14.00" fill="#000000">room_id </text>
<text text-anchor="start" x="1467.9488" y="-825.9" font-family="Arial" font-size="14.00" fill="#666666">[varchar]</text>
<polygon fill="none" stroke="#000000" points="1406.5,-784.5 1406.5,-814.5 1623.5,-814.5 1623.5,-784.5 1406.5,-784.5"/>
<text text-anchor="start" x="1413.5" y="-795.9" font-family="Arial" font-size="14.00" fill="#000000">user_id </text>
<text text-anchor="start" x="1463.2882" y="-795.9" font-family="Arial" font-size="14.00" fill="#666666">[varchar]</text>
</g>
<!-- public.entries&#45;&gt;public.users -->
<g id="edge12" class="edge">
<title>public.entries:user_id&#45;&gt;public.users:id</title>
<path fill="none" stroke="#000000" d="M1396.2025,-798.9786C1249.8183,-783.2623 1549.9311,-417.5 1383.5,-417.5"/>
<polygon fill="#000000" stroke="#000000" points="1396.5128,-798.9942 1406.2724,-803.9942 1401.5064,-799.2471 1406.5,-799.5 1406.5,-799.5 1406.5,-799.5 1401.5064,-799.2471 1406.7276,-795.0058 1396.5128,-798.9942 1396.5128,-798.9942"/>
<text text-anchor="start" x="1413.829" y="-809.5" font-family="Arial" font-size="10.00" fill="#000000">FOREIGN KEY (user_id) REFERENCES users(id) ON DELETE SET NULL</text>
</g>
<!-- public.entries&#45;&gt;public.rooms -->
<g id="edge13" class="edge">
<title>public.entries:room_id&#45;&gt;public.rooms:id</title>
<path fill="none" stroke="#000000" d="M1633.4752,-828.0812C1729.4263,-797.0527 1363.8214,-267.5 1488.5,-267.5"/>
<polygon fill="#000000" stroke="#000000" points="1633.4004,-828.0917 1622.8663,-825.0448 1628.4502,-828.7959 1623.5,-829.5 1623.5,-829.5 1623.5,-829.5 1628.4502,-828.7959 1624.1337,-833.9552 1633.4004,-828.0917 1633.4004,-828.0917"/>
<text text-anchor="start" x="1630.2245" y="-839.5" font-family="Arial" font-size="10.00" fill="#000000">FOREIGN KEY (room_id) REFERENCES rooms(id) ON DELETE CASCADE</text>
</g>
<!-- public.room_read_managements -->
<g id="node13" class="node">
<title>public.room_read_managements</title>
<polygon fill="#efefef" stroke="transparent" points="1727.5,-889.5 1727.5,-924.5 2101.5,-924.5 2101.5,-889.5 1727.5,-889.5"/>
<polygon fill="none" stroke="#000000" points="1727.5,-889.5 1727.5,-924.5 2101.5,-924.5 2101.5,-889.5 1727.5,-889.5"/>
<text text-anchor="start" x="1734.3435" y="-902.3" font-family="Arial Bold" font-size="18.00" fill="#000000">public.room_read_managements</text>
<text text-anchor="start" x="1997.4027" y="-902.3" font-family="Arial" font-size="14.00" fill="#000000"> </text>
<text text-anchor="start" x="2001.2933" y="-902.3" font-family="Arial" font-size="14.00" fill="#666666">[BASE TABLE]</text>
<polygon fill="none" stroke="#000000" points="1727.5,-859.5 1727.5,-889.5 2101.5,-889.5 2101.5,-859.5 1727.5,-859.5"/>
<text text-anchor="start" x="1734.5" y="-870.9" font-family="Arial" font-size="14.00" fill="#000000">id </text>
<text text-anchor="start" x="1749.2798" y="-870.9" font-family="Arial" font-size="14.00" fill="#666666">[varchar]</text>
<polygon fill="none" stroke="#000000" points="1727.5,-829.5 1727.5,-859.5 2101.5,-859.5 2101.5,-829.5 1727.5,-829.5"/>
<text text-anchor="start" x="1734.5" y="-840.9" font-family="Arial" font-size="14.00" fill="#000000">last_read_at </text>
<text text-anchor="start" x="1815.4172" y="-840.9" font-family="Arial" font-size="14.00" fill="#666666">[timestamp with time zone]</text>
<polygon fill="none" stroke="#000000" points="1727.5,-799.5 1727.5,-829.5 2101.5,-829.5 2101.5,-799.5 1727.5,-799.5"/>
<text text-anchor="start" x="1734.5" y="-810.9" font-family="Arial" font-size="14.00" fill="#000000">room_id </text>
<text text-anchor="start" x="1788.9488" y="-810.9" font-family="Arial" font-size="14.00" fill="#666666">[varchar]</text>
<polygon fill="none" stroke="#000000" points="1727.5,-769.5 1727.5,-799.5 2101.5,-799.5 2101.5,-769.5 1727.5,-769.5"/>
<text text-anchor="start" x="1734.5" y="-780.9" font-family="Arial" font-size="14.00" fill="#000000">user_id </text>
<text text-anchor="start" x="1784.2882" y="-780.9" font-family="Arial" font-size="14.00" fill="#666666">[varchar]</text>
</g>
<!-- public.room_read_managements&#45;&gt;public.users -->
<g id="edge14" class="edge">
<title>public.room_read_managements:user_id&#45;&gt;public.users:id</title>
<path fill="none" stroke="#000000" d="M1717.2535,-783.9365C1628.4189,-773.4174 1751.6917,-618.319 1675.5,-547 1597.0759,-473.5914 1525.0177,-571.8586 1436.5,-511 1397.1382,-483.9376 1431.2674,-417.5 1383.5,-417.5"/>
<polygon fill="#000000" stroke="#000000" points="1717.5151,-783.9508 1727.2529,-788.9932 1722.5075,-784.2254 1727.5,-784.5 1727.5,-784.5 1727.5,-784.5 1722.5075,-784.2254 1727.7471,-780.0068 1717.5151,-783.9508 1717.5151,-783.9508"/>
<text text-anchor="start" x="1734.829" y="-768.5" font-family="Arial" font-size="10.00" fill="#000000">FOREIGN KEY (user_id) REFERENCES users(id) ON DELETE SET NULL</text>
</g>
<!-- public.room_read_managements&#45;&gt;public.rooms -->
<g id="edge15" class="edge">
<title>public.room_read_managements:room_id&#45;&gt;public.rooms:id</title>
<path fill="none" stroke="#000000" d="M1717.4771,-813.0264C1621.1296,-781.8822 1859.4143,-267.5 1741.5,-267.5"/>
<polygon fill="#000000" stroke="#000000" points="1717.6064,-813.0453 1726.8454,-818.9521 1722.5532,-813.7727 1727.5,-814.5 1727.5,-814.5 1727.5,-814.5 1722.5532,-813.7727 1728.1546,-810.0479 1717.6064,-813.0453 1717.6064,-813.0453"/>
<text text-anchor="start" x="1734.2245" y="-824.5" font-family="Arial" font-size="10.00" fill="#000000">FOREIGN KEY (room_id) REFERENCES rooms(id) ON DELETE CASCADE</text>
</g>
</g>
</svg>
