<?xml version="1.0" encoding="UTF-8" standalone="no"?>
<!DOCTYPE svg PUBLIC "-//W3C//DTD SVG 1.1//EN"
 "http://www.w3.org/Graphics/SVG/1.1/DTD/svg11.dtd">
<!-- Generated by graphviz version 2.40.1 (20161225.0304)
 -->
<!-- Title: connefut_db Pages: 1 -->
<svg width="2293pt" height="1800pt"
 viewBox="0.00 0.00 2293.28 1800.00" xmlns="http://www.w3.org/2000/svg" xmlns:xlink="http://www.w3.org/1999/xlink">
<g id="graph0" class="graph" transform="scale(1 1) rotate(0) translate(4 1796)">
<title>connefut_db</title>
<polygon fill="#ffffff" stroke="transparent" points="-4,4 -4,-1796 2289.284,-1796 2289.284,4 -4,4"/>
<!-- public.schema_migrations -->
<g id="node1" class="node">
<title>public.schema_migrations</title>
<polygon fill="#efefef" stroke="transparent" points="872,-1668.5 872,-1703.5 1191,-1703.5 1191,-1668.5 872,-1668.5"/>
<polygon fill="none" stroke="#000000" points="872,-1668.5 872,-1703.5 1191,-1703.5 1191,-1668.5 872,-1668.5"/>
<text text-anchor="start" x="878.8601" y="-1681.3" font-family="Arial Bold" font-size="18.00" fill="#000000">public.schema_migrations</text>
<text text-anchor="start" x="1086.8861" y="-1681.3" font-family="Arial" font-size="14.00" fill="#000000"> </text>
<text text-anchor="start" x="1090.7767" y="-1681.3" font-family="Arial" font-size="14.00" fill="#666666">[BASE TABLE]</text>
<polygon fill="none" stroke="#000000" points="872,-1638.5 872,-1668.5 1191,-1668.5 1191,-1638.5 872,-1638.5"/>
<text text-anchor="start" x="879" y="-1649.9" font-family="Arial" font-size="14.00" fill="#000000">version </text>
<text text-anchor="start" x="928.0056" y="-1649.9" font-family="Arial" font-size="14.00" fill="#666666">[bigint]</text>
<polygon fill="none" stroke="#000000" points="872,-1608.5 872,-1638.5 1191,-1638.5 1191,-1608.5 872,-1608.5"/>
<text text-anchor="start" x="879" y="-1619.9" font-family="Arial" font-size="14.00" fill="#000000">dirty </text>
<text text-anchor="start" x="909.331" y="-1619.9" font-family="Arial" font-size="14.00" fill="#666666">[boolean]</text>
</g>
<!-- public.users -->
<g id="node2" class="node">
<title>public.users</title>
<polygon fill="#efefef" stroke="transparent" points="1193,-432.5 1193,-467.5 1599,-467.5 1599,-432.5 1193,-432.5"/>
<polygon fill="none" stroke="#000000" points="1193,-432.5 1193,-467.5 1599,-467.5 1599,-432.5 1193,-432.5"/>
<text text-anchor="start" x="1299.3662" y="-445.3" font-family="Arial Bold" font-size="18.00" fill="#000000">public.users</text>
<text text-anchor="start" x="1395.38" y="-445.3" font-family="Arial" font-size="14.00" fill="#000000"> </text>
<text text-anchor="start" x="1399.2706" y="-445.3" font-family="Arial" font-size="14.00" fill="#666666">[BASE TABLE]</text>
<polygon fill="none" stroke="#000000" points="1193,-402.5 1193,-432.5 1599,-432.5 1599,-402.5 1193,-402.5"/>
<text text-anchor="start" x="1200" y="-413.9" font-family="Arial" font-size="14.00" fill="#000000">id </text>
<text text-anchor="start" x="1214.7798" y="-413.9" font-family="Arial" font-size="14.00" fill="#666666">[varchar]</text>
<polygon fill="none" stroke="#000000" points="1193,-372.5 1193,-402.5 1599,-402.5 1599,-372.5 1193,-372.5"/>
<text text-anchor="start" x="1200" y="-383.9" font-family="Arial" font-size="14.00" fill="#000000">name </text>
<text text-anchor="start" x="1238.899" y="-383.9" font-family="Arial" font-size="14.00" fill="#666666">[varchar(50)]</text>
<polygon fill="none" stroke="#000000" points="1193,-342.5 1193,-372.5 1599,-372.5 1599,-342.5 1193,-342.5"/>
<text text-anchor="start" x="1200" y="-353.9" font-family="Arial" font-size="14.00" fill="#000000">email </text>
<text text-anchor="start" x="1237.3296" y="-353.9" font-family="Arial" font-size="14.00" fill="#666666">[varchar(100)]</text>
<polygon fill="none" stroke="#000000" points="1193,-312.5 1193,-342.5 1599,-342.5 1599,-312.5 1193,-312.5"/>
<text text-anchor="start" x="1200" y="-323.9" font-family="Arial" font-size="14.00" fill="#000000">role </text>
<text text-anchor="start" x="1227.223" y="-323.9" font-family="Arial" font-size="14.00" fill="#666666">[varchar]</text>
<polygon fill="none" stroke="#000000" points="1193,-282.5 1193,-312.5 1599,-312.5 1599,-282.5 1193,-282.5"/>
<text text-anchor="start" x="1200" y="-293.9" font-family="Arial" font-size="14.00" fill="#000000">avatar </text>
<text text-anchor="start" x="1242.7896" y="-293.9" font-family="Arial" font-size="14.00" fill="#666666">[varchar]</text>
<polygon fill="none" stroke="#000000" points="1193,-252.5 1193,-282.5 1599,-282.5 1599,-252.5 1193,-252.5"/>
<text text-anchor="start" x="1200" y="-263.9" font-family="Arial" font-size="14.00" fill="#000000">introduction </text>
<text text-anchor="start" x="1276.2412" y="-263.9" font-family="Arial" font-size="14.00" fill="#666666">[varchar(4000)]</text>
<polygon fill="none" stroke="#000000" points="1193,-222.5 1193,-252.5 1599,-252.5 1599,-222.5 1193,-222.5"/>
<text text-anchor="start" x="1200" y="-233.9" font-family="Arial" font-size="14.00" fill="#000000">email_verification_status </text>
<text text-anchor="start" x="1357.1332" y="-233.9" font-family="Arial" font-size="14.00" fill="#666666">[varchar]</text>
<polygon fill="none" stroke="#000000" points="1193,-192.5 1193,-222.5 1599,-222.5 1599,-192.5 1193,-192.5"/>
<text text-anchor="start" x="1200" y="-203.9" font-family="Arial" font-size="14.00" fill="#000000">email_verification_token </text>
<text text-anchor="start" x="1354.0252" y="-203.9" font-family="Arial" font-size="14.00" fill="#666666">[varchar]</text>
<polygon fill="none" stroke="#000000" points="1193,-162.5 1193,-192.5 1599,-192.5 1599,-162.5 1193,-162.5"/>
<text text-anchor="start" x="1199.9685" y="-173.9" font-family="Arial" font-size="14.00" fill="#000000">email_verification_token_expires_at </text>
<text text-anchor="start" x="1426.3471" y="-173.9" font-family="Arial" font-size="14.00" fill="#666666">[timestamp with time zone]</text>
<polygon fill="none" stroke="#000000" points="1193,-132.5 1193,-162.5 1599,-162.5 1599,-132.5 1193,-132.5"/>
<text text-anchor="start" x="1200" y="-143.9" font-family="Arial" font-size="14.00" fill="#000000">password_digest </text>
<text text-anchor="start" x="1308.9158" y="-143.9" font-family="Arial" font-size="14.00" fill="#666666">[varchar]</text>
<polygon fill="none" stroke="#000000" points="1193,-102.5 1193,-132.5 1599,-132.5 1599,-102.5 1193,-102.5"/>
<text text-anchor="start" x="1200" y="-113.9" font-family="Arial" font-size="14.00" fill="#000000">created_at </text>
<text text-anchor="start" x="1270.028" y="-113.9" font-family="Arial" font-size="14.00" fill="#666666">[timestamp with time zone]</text>
<polygon fill="none" stroke="#000000" points="1193,-72.5 1193,-102.5 1599,-102.5 1599,-72.5 1193,-72.5"/>
<text text-anchor="start" x="1200" y="-83.9" font-family="Arial" font-size="14.00" fill="#000000">updated_at </text>
<text text-anchor="start" x="1273.9326" y="-83.9" font-family="Arial" font-size="14.00" fill="#666666">[timestamp with time zone]</text>
<polygon fill="none" stroke="#000000" points="1193,-42.5 1193,-72.5 1599,-72.5 1599,-42.5 1193,-42.5"/>
<text text-anchor="start" x="1200" y="-53.9" font-family="Arial" font-size="14.00" fill="#000000">last_sign_in_at </text>
<text text-anchor="start" x="1297.2524" y="-53.9" font-family="Arial" font-size="14.00" fill="#666666">[timestamp with time zone]</text>
</g>
<!-- public.prefectures -->
<g id="node3" class="node">
<title>public.prefectures</title>
<polygon fill="#efefef" stroke="transparent" points="411,-297.5 411,-332.5 664,-332.5 664,-297.5 411,-297.5"/>
<polygon fill="none" stroke="#000000" points="411,-297.5 411,-332.5 664,-332.5 664,-297.5 411,-297.5"/>
<text text-anchor="start" x="417.8586" y="-310.3" font-family="Arial Bold" font-size="18.00" fill="#000000">public.prefectures</text>
<text text-anchor="start" x="559.8876" y="-310.3" font-family="Arial" font-size="14.00" fill="#000000"> </text>
<text text-anchor="start" x="563.7782" y="-310.3" font-family="Arial" font-size="14.00" fill="#666666">[BASE TABLE]</text>
<polygon fill="none" stroke="#000000" points="411,-267.5 411,-297.5 664,-297.5 664,-267.5 411,-267.5"/>
<text text-anchor="start" x="418" y="-278.9" font-family="Arial" font-size="14.00" fill="#000000">id </text>
<text text-anchor="start" x="432.7798" y="-278.9" font-family="Arial" font-size="14.00" fill="#666666">[varchar]</text>
<polygon fill="none" stroke="#000000" points="411,-237.5 411,-267.5 664,-267.5 664,-237.5 411,-237.5"/>
<text text-anchor="start" x="418" y="-248.9" font-family="Arial" font-size="14.00" fill="#000000">name </text>
<text text-anchor="start" x="456.899" y="-248.9" font-family="Arial" font-size="14.00" fill="#666666">[varchar]</text>
<polygon fill="none" stroke="#000000" points="411,-207.5 411,-237.5 664,-237.5 664,-207.5 411,-207.5"/>
<text text-anchor="start" x="418" y="-218.9" font-family="Arial" font-size="14.00" fill="#000000">created_at </text>
<text text-anchor="start" x="488.028" y="-218.9" font-family="Arial" font-size="14.00" fill="#666666">[timestamp with time zone]</text>
<polygon fill="none" stroke="#000000" points="411,-177.5 411,-207.5 664,-207.5 664,-177.5 411,-177.5"/>
<text text-anchor="start" x="417.6915" y="-188.9" font-family="Arial" font-size="14.00" fill="#000000">updated_at </text>
<text text-anchor="start" x="491.6241" y="-188.9" font-family="Arial" font-size="14.00" fill="#666666">[timestamp with time zone]</text>
</g>
<!-- public.competitions -->
<g id="node4" class="node">
<title>public.competitions</title>
<polygon fill="#efefef" stroke="transparent" points="768,-297.5 768,-332.5 1032,-332.5 1032,-297.5 768,-297.5"/>
<polygon fill="none" stroke="#000000" points="768,-297.5 768,-332.5 1032,-332.5 1032,-297.5 768,-297.5"/>
<text text-anchor="start" x="774.8605" y="-310.3" font-family="Arial Bold" font-size="18.00" fill="#000000">public.competitions</text>
<text text-anchor="start" x="927.8857" y="-310.3" font-family="Arial" font-size="14.00" fill="#000000"> </text>
<text text-anchor="start" x="931.7763" y="-310.3" font-family="Arial" font-size="14.00" fill="#666666">[BASE TABLE]</text>
<polygon fill="none" stroke="#000000" points="768,-267.5 768,-297.5 1032,-297.5 1032,-267.5 768,-267.5"/>
<text text-anchor="start" x="775" y="-278.9" font-family="Arial" font-size="14.00" fill="#000000">id </text>
<text text-anchor="start" x="789.7798" y="-278.9" font-family="Arial" font-size="14.00" fill="#666666">[varchar]</text>
<polygon fill="none" stroke="#000000" points="768,-237.5 768,-267.5 1032,-267.5 1032,-237.5 768,-237.5"/>
<text text-anchor="start" x="775" y="-248.9" font-family="Arial" font-size="14.00" fill="#000000">name </text>
<text text-anchor="start" x="813.899" y="-248.9" font-family="Arial" font-size="14.00" fill="#666666">[varchar]</text>
<polygon fill="none" stroke="#000000" points="768,-207.5 768,-237.5 1032,-237.5 1032,-207.5 768,-207.5"/>
<text text-anchor="start" x="775" y="-218.9" font-family="Arial" font-size="14.00" fill="#000000">created_at </text>
<text text-anchor="start" x="845.028" y="-218.9" font-family="Arial" font-size="14.00" fill="#666666">[timestamp with time zone]</text>
<polygon fill="none" stroke="#000000" points="768,-177.5 768,-207.5 1032,-207.5 1032,-177.5 768,-177.5"/>
<text text-anchor="start" x="775" y="-188.9" font-family="Arial" font-size="14.00" fill="#000000">updated_at </text>
<text text-anchor="start" x="848.9326" y="-188.9" font-family="Arial" font-size="14.00" fill="#666666">[timestamp with time zone]</text>
</g>
<!-- public.recruitments -->
<g id="node5" class="node">
<title>public.recruitments</title>
<polygon fill="#efefef" stroke="transparent" points="762,-1069.5 762,-1104.5 1024,-1104.5 1024,-1069.5 762,-1069.5"/>
<polygon fill="none" stroke="#000000" points="762,-1069.5 762,-1104.5 1024,-1104.5 1024,-1069.5 762,-1069.5"/>
<text text-anchor="start" x="768.8685" y="-1082.3" font-family="Arial Bold" font-size="18.00" fill="#000000">public.recruitments</text>
<text text-anchor="start" x="919.8777" y="-1082.3" font-family="Arial" font-size="14.00" fill="#000000"> </text>
<text text-anchor="start" x="923.7683" y="-1082.3" font-family="Arial" font-size="14.00" fill="#666666">[BASE TABLE]</text>
<polygon fill="none" stroke="#000000" points="762,-1039.5 762,-1069.5 1024,-1069.5 1024,-1039.5 762,-1039.5"/>
<text text-anchor="start" x="769" y="-1050.9" font-family="Arial" font-size="14.00" fill="#000000">id </text>
<text text-anchor="start" x="783.7798" y="-1050.9" font-family="Arial" font-size="14.00" fill="#666666">[varchar]</text>
<polygon fill="none" stroke="#000000" points="762,-1009.5 762,-1039.5 1024,-1039.5 1024,-1009.5 762,-1009.5"/>
<text text-anchor="start" x="769" y="-1020.9" font-family="Arial" font-size="14.00" fill="#000000">title </text>
<text text-anchor="start" x="794.6676" y="-1020.9" font-family="Arial" font-size="14.00" fill="#666666">[varchar(60)]</text>
<polygon fill="none" stroke="#000000" points="762,-979.5 762,-1009.5 1024,-1009.5 1024,-979.5 762,-979.5"/>
<text text-anchor="start" x="769" y="-990.9" font-family="Arial" font-size="14.00" fill="#000000">type </text>
<text text-anchor="start" x="799.3464" y="-990.9" font-family="Arial" font-size="14.00" fill="#666666">[varchar]</text>
<polygon fill="none" stroke="#000000" points="762,-949.5 762,-979.5 1024,-979.5 1024,-949.5 762,-949.5"/>
<text text-anchor="start" x="769" y="-960.9" font-family="Arial" font-size="14.00" fill="#000000">place </text>
<text text-anchor="start" x="806.345" y="-960.9" font-family="Arial" font-size="14.00" fill="#666666">[varchar]</text>
<polygon fill="none" stroke="#000000" points="762,-919.5 762,-949.5 1024,-949.5 1024,-919.5 762,-919.5"/>
<text text-anchor="start" x="769" y="-930.9" font-family="Arial" font-size="14.00" fill="#000000">start_at </text>
<text text-anchor="start" x="819.5708" y="-930.9" font-family="Arial" font-size="14.00" fill="#666666">[timestamp with time zone]</text>
<polygon fill="none" stroke="#000000" points="762,-889.5 762,-919.5 1024,-919.5 1024,-889.5 762,-889.5"/>
<text text-anchor="start" x="769" y="-900.9" font-family="Arial" font-size="14.00" fill="#000000">detail </text>
<text text-anchor="start" x="806.3422" y="-900.9" font-family="Arial" font-size="14.00" fill="#666666">[varchar(10000)]</text>
<polygon fill="none" stroke="#000000" points="762,-859.5 762,-889.5 1024,-889.5 1024,-859.5 762,-859.5"/>
<text text-anchor="start" x="769" y="-870.9" font-family="Arial" font-size="14.00" fill="#000000">closing_at </text>
<text text-anchor="start" x="835.9074" y="-870.9" font-family="Arial" font-size="14.00" fill="#666666">[timestamp with time zone]</text>
<polygon fill="none" stroke="#000000" points="762,-829.5 762,-859.5 1024,-859.5 1024,-829.5 762,-829.5"/>
<text text-anchor="start" x="769" y="-840.9" font-family="Arial" font-size="14.00" fill="#000000">competition_id </text>
<text text-anchor="start" x="863.1304" y="-840.9" font-family="Arial" font-size="14.00" fill="#666666">[varchar]</text>
<polygon fill="none" stroke="#000000" points="762,-799.5 762,-829.5 1024,-829.5 1024,-799.5 762,-799.5"/>
<text text-anchor="start" x="769" y="-810.9" font-family="Arial" font-size="14.00" fill="#000000">prefecture_id </text>
<text text-anchor="start" x="854.5778" y="-810.9" font-family="Arial" font-size="14.00" fill="#666666">[varchar]</text>
<polygon fill="none" stroke="#000000" points="762,-769.5 762,-799.5 1024,-799.5 1024,-769.5 762,-769.5"/>
<text text-anchor="start" x="769" y="-780.9" font-family="Arial" font-size="14.00" fill="#000000">user_id </text>
<text text-anchor="start" x="818.7882" y="-780.9" font-family="Arial" font-size="14.00" fill="#666666">[varchar]</text>
<polygon fill="none" stroke="#000000" points="762,-739.5 762,-769.5 1024,-769.5 1024,-739.5 762,-739.5"/>
<text text-anchor="start" x="769" y="-750.9" font-family="Arial" font-size="14.00" fill="#000000">created_at </text>
<text text-anchor="start" x="839.028" y="-750.9" font-family="Arial" font-size="14.00" fill="#666666">[timestamp with time zone]</text>
<polygon fill="none" stroke="#000000" points="762,-709.5 762,-739.5 1024,-739.5 1024,-709.5 762,-709.5"/>
<text text-anchor="start" x="769" y="-720.9" font-family="Arial" font-size="14.00" fill="#000000">updated_at </text>
<text text-anchor="start" x="842.9326" y="-720.9" font-family="Arial" font-size="14.00" fill="#666666">[timestamp with time zone]</text>
<polygon fill="none" stroke="#000000" points="762,-679.5 762,-709.5 1024,-709.5 1024,-679.5 762,-679.5"/>
<text text-anchor="start" x="769" y="-690.9" font-family="Arial" font-size="14.00" fill="#000000">location_lat </text>
<text text-anchor="start" x="843.6872" y="-690.9" font-family="Arial" font-size="14.00" fill="#666666">[double precision]</text>
<polygon fill="none" stroke="#000000" points="762,-649.5 762,-679.5 1024,-679.5 1024,-649.5 762,-649.5"/>
<text text-anchor="start" x="769" y="-660.9" font-family="Arial" font-size="14.00" fill="#000000">location_lng </text>
<text text-anchor="start" x="847.5792" y="-660.9" font-family="Arial" font-size="14.00" fill="#666666">[double precision]</text>
<polygon fill="none" stroke="#000000" points="762,-619.5 762,-649.5 1024,-649.5 1024,-619.5 762,-619.5"/>
<text text-anchor="start" x="769" y="-630.9" font-family="Arial" font-size="14.00" fill="#000000">status </text>
<text text-anchor="start" x="810.237" y="-630.9" font-family="Arial" font-size="14.00" fill="#666666">[varchar]</text>
<polygon fill="none" stroke="#000000" points="762,-589.5 762,-619.5 1024,-619.5 1024,-589.5 762,-589.5"/>
<text text-anchor="start" x="768.5302" y="-600.9" font-family="Arial" font-size="14.00" fill="#000000">published_at </text>
<text text-anchor="start" x="851.7854" y="-600.9" font-family="Arial" font-size="14.00" fill="#666666">[timestamp with time zone]</text>
</g>
<!-- public.recruitments&#45;&gt;public.users -->
<g id="edge1" class="edge">
<title>public.recruitments:user_id&#45;&gt;public.users:id</title>
<path fill="none" stroke="#000000" d="M1034.1043,-784.0855C1196.2876,-770.3041 1016.9331,-417.5 1193,-417.5"/>
<polygon fill="#000000" stroke="#000000" points="1033.9916,-784.09 1023.8155,-780.0038 1028.9958,-784.295 1024,-784.5 1024,-784.5 1024,-784.5 1028.9958,-784.295 1024.1845,-788.9962 1033.9916,-784.09 1033.9916,-784.09"/>
<text text-anchor="start" x="1031.0535" y="-794.5" font-family="Arial" font-size="10.00" fill="#000000">FOREIGN KEY (user_id) REFERENCES users(id) ON DELETE CASCADE</text>
</g>
<!-- public.recruitments&#45;&gt;public.prefectures -->
<g id="edge2" class="edge">
<title>public.recruitments:prefecture_id&#45;&gt;public.prefectures:id</title>
<path fill="none" stroke="#000000" d="M752.8505,-809.9008C704.0775,-757.9036 720.8186,-282.5 664,-282.5"/>
<polygon fill="#000000" stroke="#000000" points="753.0653,-810.0087 759.9789,-818.5206 757.5326,-812.2544 762,-814.5 762,-814.5 762,-814.5 757.5326,-812.2544 764.0211,-810.4794 753.0653,-810.0087 753.0653,-810.0087"/>
<text text-anchor="start" x="768.66" y="-824.5" font-family="Arial" font-size="10.00" fill="#000000">FOREIGN KEY (prefecture_id) REFERENCES prefectures(id) ON DELETE RESTRICT</text>
</g>
<!-- public.recruitments&#45;&gt;public.competitions -->
<g id="edge3" class="edge">
<title>public.recruitments:competition_id&#45;&gt;public.competitions:id</title>
<path fill="none" stroke="#000000" d="M1034.0413,-844.1272C1152.5421,-835.0053 1084.6939,-660.5305 1024,-547 959.4919,-426.3348 832.5081,-496.6652 768,-376 748.4082,-339.3527 726.4444,-282.5 768,-282.5"/>
<polygon fill="#000000" stroke="#000000" points="1033.9931,-844.1289 1023.833,-840.0031 1028.9966,-844.3144 1024,-844.5 1024,-844.5 1024,-844.5 1028.9966,-844.3144 1024.167,-848.9969 1033.9931,-844.1289 1033.9931,-844.1289"/>
<text text-anchor="start" x="1030.551" y="-854.5" font-family="Arial" font-size="10.00" fill="#000000">FOREIGN KEY (competition_id) REFERENCES competitions(id) ON DELETE RESTRICT</text>
</g>
<!-- public.stocks -->
<g id="node6" class="node">
<title>public.stocks</title>
<polygon fill="#efefef" stroke="transparent" points="1094,-1391.5 1094,-1426.5 1347,-1426.5 1347,-1391.5 1094,-1391.5"/>
<polygon fill="none" stroke="#000000" points="1094,-1391.5 1094,-1426.5 1347,-1426.5 1347,-1391.5 1094,-1391.5"/>
<text text-anchor="start" x="1120.3643" y="-1404.3" font-family="Arial Bold" font-size="18.00" fill="#000000">public.stocks</text>
<text text-anchor="start" x="1223.3819" y="-1404.3" font-family="Arial" font-size="14.00" fill="#000000"> </text>
<text text-anchor="start" x="1227.2725" y="-1404.3" font-family="Arial" font-size="14.00" fill="#666666">[BASE TABLE]</text>
<polygon fill="none" stroke="#000000" points="1094,-1361.5 1094,-1391.5 1347,-1391.5 1347,-1361.5 1094,-1361.5"/>
<text text-anchor="start" x="1101" y="-1372.9" font-family="Arial" font-size="14.00" fill="#000000">id </text>
<text text-anchor="start" x="1115.7798" y="-1372.9" font-family="Arial" font-size="14.00" fill="#666666">[varchar]</text>
<polygon fill="none" stroke="#000000" points="1094,-1331.5 1094,-1361.5 1347,-1361.5 1347,-1331.5 1094,-1331.5"/>
<text text-anchor="start" x="1101" y="-1342.9" font-family="Arial" font-size="14.00" fill="#000000">recruitment_id </text>
<text text-anchor="start" x="1193.5624" y="-1342.9" font-family="Arial" font-size="14.00" fill="#666666">[varchar]</text>
<polygon fill="none" stroke="#000000" points="1094,-1301.5 1094,-1331.5 1347,-1331.5 1347,-1301.5 1094,-1301.5"/>
<text text-anchor="start" x="1101" y="-1312.9" font-family="Arial" font-size="14.00" fill="#000000">user_id </text>
<text text-anchor="start" x="1150.7882" y="-1312.9" font-family="Arial" font-size="14.00" fill="#666666">[varchar]</text>
<polygon fill="none" stroke="#000000" points="1094,-1271.5 1094,-1301.5 1347,-1301.5 1347,-1271.5 1094,-1271.5"/>
<text text-anchor="start" x="1101" y="-1282.9" font-family="Arial" font-size="14.00" fill="#000000">created_at </text>
<text text-anchor="start" x="1171.028" y="-1282.9" font-family="Arial" font-size="14.00" fill="#666666">[timestamp with time zone]</text>
<polygon fill="none" stroke="#000000" points="1094,-1241.5 1094,-1271.5 1347,-1271.5 1347,-1241.5 1094,-1241.5"/>
<text text-anchor="start" x="1100.6915" y="-1252.9" font-family="Arial" font-size="14.00" fill="#000000">updated_at </text>
<text text-anchor="start" x="1174.6241" y="-1252.9" font-family="Arial" font-size="14.00" fill="#666666">[timestamp with time zone]</text>
</g>
<!-- public.stocks&#45;&gt;public.users -->
<g id="edge4" class="edge">
<title>public.stocks:user_id&#45;&gt;public.users:id</title>
<path fill="none" stroke="#000000" d="M1357.0535,-1315.4485C1392.5467,-1306.8388 1352.3124,-1247.0536 1347,-1199 1312.5693,-887.553 1227.4307,-822.447 1193,-511 1188.4338,-469.6961 1151.4444,-417.5 1193,-417.5"/>
<polygon fill="#000000" stroke="#000000" points="1356.9457,-1315.4596 1346.5318,-1312.0244 1351.9729,-1315.9798 1347,-1316.5 1347,-1316.5 1347,-1316.5 1351.9729,-1315.9798 1347.4682,-1320.9756 1356.9457,-1315.4596 1356.9457,-1315.4596"/>
<text text-anchor="start" x="1354.0535" y="-1326.5" font-family="Arial" font-size="10.00" fill="#000000">FOREIGN KEY (user_id) REFERENCES users(id) ON DELETE CASCADE</text>
</g>
<!-- public.stocks&#45;&gt;public.recruitments -->
<g id="edge5" class="edge">
<title>public.stocks:recruitment_id&#45;&gt;public.recruitments:id</title>
<path fill="none" stroke="#000000" d="M1083.7801,-1345.857C971.0667,-1330.7496 1153.8056,-1054.5 1024,-1054.5"/>
<polygon fill="#000000" stroke="#000000" points="1084.0197,-1345.872 1093.7174,-1350.9911 1089.0099,-1346.186 1094,-1346.5 1094,-1346.5 1094,-1346.5 1089.0099,-1346.186 1094.2826,-1342.0089 1084.0197,-1345.872 1084.0197,-1345.872"/>
<text text-anchor="start" x="1100.5005" y="-1356.5" font-family="Arial" font-size="10.00" fill="#000000">FOREIGN KEY (recruitment_id) REFERENCES recruitments(id) ON DELETE CASCADE</text>
</g>
<!-- public.applicants -->
<g id="node7" class="node">
<title>public.applicants</title>
<polygon fill="#efefef" stroke="transparent" points="737,-1406.5 737,-1441.5 990,-1441.5 990,-1406.5 737,-1406.5"/>
<polygon fill="none" stroke="#000000" points="737,-1406.5 737,-1441.5 990,-1441.5 990,-1406.5 737,-1406.5"/>
<text text-anchor="start" x="748.3577" y="-1419.3" font-family="Arial Bold" font-size="18.00" fill="#000000">public.applicants</text>
<text text-anchor="start" x="881.3885" y="-1419.3" font-family="Arial" font-size="14.00" fill="#000000"> </text>
<text text-anchor="start" x="885.2791" y="-1419.3" font-family="Arial" font-size="14.00" fill="#666666">[BASE TABLE]</text>
<polygon fill="none" stroke="#000000" points="737,-1376.5 737,-1406.5 990,-1406.5 990,-1376.5 737,-1376.5"/>
<text text-anchor="start" x="744" y="-1387.9" font-family="Arial" font-size="14.00" fill="#000000">id </text>
<text text-anchor="start" x="758.7798" y="-1387.9" font-family="Arial" font-size="14.00" fill="#666666">[varchar]</text>
<polygon fill="none" stroke="#000000" points="737,-1346.5 737,-1376.5 990,-1376.5 990,-1346.5 737,-1346.5"/>
<text text-anchor="start" x="744" y="-1357.9" font-family="Arial" font-size="14.00" fill="#000000">recruitment_id </text>
<text text-anchor="start" x="836.5624" y="-1357.9" font-family="Arial" font-size="14.00" fill="#666666">[varchar]</text>
<polygon fill="none" stroke="#000000" points="737,-1316.5 737,-1346.5 990,-1346.5 990,-1316.5 737,-1316.5"/>
<text text-anchor="start" x="744" y="-1327.9" font-family="Arial" font-size="14.00" fill="#000000">user_id </text>
<text text-anchor="start" x="793.7882" y="-1327.9" font-family="Arial" font-size="14.00" fill="#666666">[varchar]</text>
<polygon fill="none" stroke="#000000" points="737,-1286.5 737,-1316.5 990,-1316.5 990,-1286.5 737,-1286.5"/>
<text text-anchor="start" x="744" y="-1297.9" font-family="Arial" font-size="14.00" fill="#000000">created_at </text>
<text text-anchor="start" x="814.028" y="-1297.9" font-family="Arial" font-size="14.00" fill="#666666">[timestamp with time zone]</text>
<polygon fill="none" stroke="#000000" points="737,-1256.5 737,-1286.5 990,-1286.5 990,-1256.5 737,-1256.5"/>
<text text-anchor="start" x="743.6915" y="-1267.9" font-family="Arial" font-size="14.00" fill="#000000">updated_at </text>
<text text-anchor="start" x="817.6241" y="-1267.9" font-family="Arial" font-size="14.00" fill="#666666">[timestamp with time zone]</text>
<polygon fill="none" stroke="#000000" points="737,-1226.5 737,-1256.5 990,-1256.5 990,-1226.5 737,-1226.5"/>
<text text-anchor="start" x="744" y="-1237.9" font-family="Arial" font-size="14.00" fill="#000000">message </text>
<text text-anchor="start" x="804.6816" y="-1237.9" font-family="Arial" font-size="14.00" fill="#666666">[varchar(1000)]</text>
</g>
<!-- public.applicants&#45;&gt;public.users -->
<g id="edge6" class="edge">
<title>public.applicants:user_id&#45;&gt;public.users:id</title>
<path fill="none" stroke="#000000" d="M1000.3017,-1330.7258C1053.6486,-1321.9145 1006.6097,-1239.828 1041,-1184 1052.704,-1165.0002 1065.992,-1167.9453 1076,-1148 1149.7313,-1001.0585 1028.5977,-417.5 1193,-417.5"/>
<polygon fill="#000000" stroke="#000000" points="999.9719,-1330.7504 989.6627,-1327.0127 994.9859,-1331.1252 990,-1331.5 990,-1331.5 990,-1331.5 994.9859,-1331.1252 990.3373,-1335.9873 999.9719,-1330.7504 999.9719,-1330.7504"/>
<text text-anchor="start" x="823.5535" y="-1315.5" font-family="Arial" font-size="10.00" fill="#000000">FOREIGN KEY (user_id) REFERENCES users(id) ON DELETE CASCADE</text>
</g>
<!-- public.applicants&#45;&gt;public.recruitments -->
<g id="edge7" class="edge">
<title>public.applicants:recruitment_id&#45;&gt;public.recruitments:id</title>
<path fill="none" stroke="#000000" d="M999.9941,-1360.8044C1066.3579,-1351.0573 1038.9464,-1241.2811 990,-1184 923.3553,-1106.0068 828.6447,-1225.9932 762,-1148 735.0043,-1116.4074 720.4444,-1054.5 762,-1054.5"/>
<polygon fill="#000000" stroke="#000000" points="999.9759,-1360.8056 989.6875,-1357.0109 994.9879,-1361.1528 990,-1361.5 990,-1361.5 990,-1361.5 994.9879,-1361.1528 990.3125,-1365.9891 999.9759,-1360.8056 999.9759,-1360.8056"/>
<text text-anchor="start" x="588.5005" y="-1371.5" font-family="Arial" font-size="10.00" fill="#000000">FOREIGN KEY (recruitment_id) REFERENCES recruitments(id) ON DELETE CASCADE</text>
</g>
<!-- public.tags -->
<g id="node8" class="node">
<title>public.tags</title>
<polygon fill="#efefef" stroke="transparent" points="358,-889.5 358,-924.5 611,-924.5 611,-889.5 358,-889.5"/>
<polygon fill="none" stroke="#000000" points="358,-889.5 358,-924.5 611,-924.5 611,-889.5 358,-889.5"/>
<text text-anchor="start" x="392.8612" y="-902.3" font-family="Arial Bold" font-size="18.00" fill="#000000">public.tags</text>
<text text-anchor="start" x="478.885" y="-902.3" font-family="Arial" font-size="14.00" fill="#000000"> </text>
<text text-anchor="start" x="482.7756" y="-902.3" font-family="Arial" font-size="14.00" fill="#666666">[BASE TABLE]</text>
<polygon fill="none" stroke="#000000" points="358,-859.5 358,-889.5 611,-889.5 611,-859.5 358,-859.5"/>
<text text-anchor="start" x="365" y="-870.9" font-family="Arial" font-size="14.00" fill="#000000">id </text>
<text text-anchor="start" x="379.7798" y="-870.9" font-family="Arial" font-size="14.00" fill="#666666">[varchar]</text>
<polygon fill="none" stroke="#000000" points="358,-829.5 358,-859.5 611,-859.5 611,-829.5 358,-829.5"/>
<text text-anchor="start" x="365" y="-840.9" font-family="Arial" font-size="14.00" fill="#000000">name </text>
<text text-anchor="start" x="403.899" y="-840.9" font-family="Arial" font-size="14.00" fill="#666666">[varchar]</text>
<polygon fill="none" stroke="#000000" points="358,-799.5 358,-829.5 611,-829.5 611,-799.5 358,-799.5"/>
<text text-anchor="start" x="365" y="-810.9" font-family="Arial" font-size="14.00" fill="#000000">created_at </text>
<text text-anchor="start" x="435.028" y="-810.9" font-family="Arial" font-size="14.00" fill="#666666">[timestamp with time zone]</text>
<polygon fill="none" stroke="#000000" points="358,-769.5 358,-799.5 611,-799.5 611,-769.5 358,-769.5"/>
<text text-anchor="start" x="364.6915" y="-780.9" font-family="Arial" font-size="14.00" fill="#000000">updated_at </text>
<text text-anchor="start" x="438.6241" y="-780.9" font-family="Arial" font-size="14.00" fill="#666666">[timestamp with time zone]</text>
</g>
<!-- public.recruitment_tags -->
<g id="node9" class="node">
<title>public.recruitment_tags</title>
<polygon fill="#efefef" stroke="transparent" points="336,-1391.5 336,-1426.5 633,-1426.5 633,-1391.5 336,-1391.5"/>
<polygon fill="none" stroke="#000000" points="336,-1391.5 336,-1426.5 633,-1426.5 633,-1391.5 336,-1391.5"/>
<text text-anchor="start" x="342.8581" y="-1404.3" font-family="Arial Bold" font-size="18.00" fill="#000000">public.recruitment_tags</text>
<text text-anchor="start" x="528.8881" y="-1404.3" font-family="Arial" font-size="14.00" fill="#000000"> </text>
<text text-anchor="start" x="532.7787" y="-1404.3" font-family="Arial" font-size="14.00" fill="#666666">[BASE TABLE]</text>
<polygon fill="none" stroke="#000000" points="336,-1361.5 336,-1391.5 633,-1391.5 633,-1361.5 336,-1361.5"/>
<text text-anchor="start" x="343" y="-1372.9" font-family="Arial" font-size="14.00" fill="#000000">id </text>
<text text-anchor="start" x="357.7798" y="-1372.9" font-family="Arial" font-size="14.00" fill="#666666">[varchar]</text>
<polygon fill="none" stroke="#000000" points="336,-1331.5 336,-1361.5 633,-1361.5 633,-1331.5 336,-1331.5"/>
<text text-anchor="start" x="343" y="-1342.9" font-family="Arial" font-size="14.00" fill="#000000">recruitment_id </text>
<text text-anchor="start" x="435.5624" y="-1342.9" font-family="Arial" font-size="14.00" fill="#666666">[varchar]</text>
<polygon fill="none" stroke="#000000" points="336,-1301.5 336,-1331.5 633,-1331.5 633,-1301.5 336,-1301.5"/>
<text text-anchor="start" x="343" y="-1312.9" font-family="Arial" font-size="14.00" fill="#000000">tag_id </text>
<text text-anchor="start" x="385.0182" y="-1312.9" font-family="Arial" font-size="14.00" fill="#666666">[varchar]</text>
<polygon fill="none" stroke="#000000" points="336,-1271.5 336,-1301.5 633,-1301.5 633,-1271.5 336,-1271.5"/>
<text text-anchor="start" x="343" y="-1282.9" font-family="Arial" font-size="14.00" fill="#000000">created_at </text>
<text text-anchor="start" x="413.028" y="-1282.9" font-family="Arial" font-size="14.00" fill="#666666">[timestamp with time zone]</text>
<polygon fill="none" stroke="#000000" points="336,-1241.5 336,-1271.5 633,-1271.5 633,-1241.5 336,-1241.5"/>
<text text-anchor="start" x="343" y="-1252.9" font-family="Arial" font-size="14.00" fill="#000000">updated_at </text>
<text text-anchor="start" x="416.9326" y="-1252.9" font-family="Arial" font-size="14.00" fill="#666666">[timestamp with time zone]</text>
</g>
<!-- public.recruitment_tags&#45;&gt;public.recruitments -->
<g id="edge8" class="edge">
<title>public.recruitment_tags:recruitment_id&#45;&gt;public.recruitments:id</title>
<path fill="none" stroke="#000000" d="M643.1733,-1345.8451C703.4558,-1337.4294 654.4367,-1249.6502 684,-1184 711.5882,-1122.7357 694.8106,-1054.5 762,-1054.5"/>
<polygon fill="#000000" stroke="#000000" points="642.9793,-1345.8575 632.7109,-1342.0093 637.9897,-1346.1788 633,-1346.5 633,-1346.5 633,-1346.5 637.9897,-1346.1788 633.2891,-1350.9907 642.9793,-1345.8575 642.9793,-1345.8575"/>
<text text-anchor="start" x="231.5005" y="-1330.5" font-family="Arial" font-size="10.00" fill="#000000">FOREIGN KEY (recruitment_id) REFERENCES recruitments(id) ON DELETE CASCADE</text>
</g>
<!-- public.recruitment_tags&#45;&gt;public.tags -->
<g id="edge9" class="edge">
<title>public.recruitment_tags:tag_id&#45;&gt;public.tags:id</title>
<path fill="none" stroke="#000000" d="M326.0721,-1314.8995C239.2974,-1285.9682 263.1136,-874.5 358,-874.5"/>
<polygon fill="#000000" stroke="#000000" points="326.1275,-1314.9084 335.2838,-1320.9426 331.0637,-1315.7042 336,-1316.5 336,-1316.5 336,-1316.5 331.0637,-1315.7042 336.7162,-1312.0574 326.1275,-1314.9084 326.1275,-1314.9084"/>
<text text-anchor="start" x="6.6035" y="-1300.5" font-family="Arial" font-size="10.00" fill="#000000">FOREIGN KEY (tag_id) REFERENCES tags(id) ON DELETE CASCADE</text>
</g>
<!-- public.rooms -->
<g id="node10" class="node">
<title>public.rooms</title>
<polygon fill="#efefef" stroke="transparent" points="1863,-282.5 1863,-317.5 2116,-317.5 2116,-282.5 1863,-282.5"/>
<polygon fill="none" stroke="#000000" points="1863,-282.5 1863,-317.5 2116,-317.5 2116,-282.5 1863,-282.5"/>
<text text-anchor="start" x="1889.8701" y="-295.3" font-family="Arial Bold" font-size="18.00" fill="#000000">public.rooms</text>
<text text-anchor="start" x="1991.8761" y="-295.3" font-family="Arial" font-size="14.00" fill="#000000"> </text>
<text text-anchor="start" x="1995.7667" y="-295.3" font-family="Arial" font-size="14.00" fill="#666666">[BASE TABLE]</text>
<polygon fill="none" stroke="#000000" points="1863,-252.5 1863,-282.5 2116,-282.5 2116,-252.5 1863,-252.5"/>
<text text-anchor="start" x="1870" y="-263.9" font-family="Arial" font-size="14.00" fill="#000000">id </text>
<text text-anchor="start" x="1884.7798" y="-263.9" font-family="Arial" font-size="14.00" fill="#666666">[varchar]</text>
<polygon fill="none" stroke="#000000" points="1863,-222.5 1863,-252.5 2116,-252.5 2116,-222.5 1863,-222.5"/>
<text text-anchor="start" x="1870" y="-233.9" font-family="Arial" font-size="14.00" fill="#000000">created_at </text>
<text text-anchor="start" x="1940.028" y="-233.9" font-family="Arial" font-size="14.00" fill="#666666">[timestamp with time zone]</text>
<polygon fill="none" stroke="#000000" points="1863,-192.5 1863,-222.5 2116,-222.5 2116,-192.5 1863,-192.5"/>
<text text-anchor="start" x="1869.6915" y="-203.9" font-family="Arial" font-size="14.00" fill="#000000">updated_at </text>
<text text-anchor="start" x="1943.6241" y="-203.9" font-family="Arial" font-size="14.00" fill="#666666">[timestamp with time zone]</text>
</g>
<!-- public.messages -->
<g id="node11" class="node">
<title>public.messages</title>
<polygon fill="#efefef" stroke="transparent" points="1295,-1713.5 1295,-1748.5 1540,-1748.5 1540,-1713.5 1295,-1713.5"/>
<polygon fill="none" stroke="#000000" points="1295,-1713.5 1295,-1748.5 1540,-1748.5 1540,-1713.5 1295,-1713.5"/>
<text text-anchor="start" x="1301.86" y="-1726.3" font-family="Arial Bold" font-size="18.00" fill="#000000">public.messages</text>
<text text-anchor="start" x="1435.8862" y="-1726.3" font-family="Arial" font-size="14.00" fill="#000000"> </text>
<text text-anchor="start" x="1439.7768" y="-1726.3" font-family="Arial" font-size="14.00" fill="#666666">[BASE TABLE]</text>
<polygon fill="none" stroke="#000000" points="1295,-1683.5 1295,-1713.5 1540,-1713.5 1540,-1683.5 1295,-1683.5"/>
<text text-anchor="start" x="1302" y="-1694.9" font-family="Arial" font-size="14.00" fill="#000000">id </text>
<text text-anchor="start" x="1316.7798" y="-1694.9" font-family="Arial" font-size="14.00" fill="#666666">[varchar]</text>
<polygon fill="none" stroke="#000000" points="1295,-1653.5 1295,-1683.5 1540,-1683.5 1540,-1653.5 1295,-1653.5"/>
<text text-anchor="start" x="1302" y="-1664.9" font-family="Arial" font-size="14.00" fill="#000000">content </text>
<text text-anchor="start" x="1351.8022" y="-1664.9" font-family="Arial" font-size="14.00" fill="#666666">[varchar(1000)]</text>
<polygon fill="none" stroke="#000000" points="1295,-1623.5 1295,-1653.5 1540,-1653.5 1540,-1623.5 1295,-1623.5"/>
<text text-anchor="start" x="1302" y="-1634.9" font-family="Arial" font-size="14.00" fill="#000000">room_id </text>
<text text-anchor="start" x="1356.4488" y="-1634.9" font-family="Arial" font-size="14.00" fill="#666666">[varchar]</text>
<polygon fill="none" stroke="#000000" points="1295,-1593.5 1295,-1623.5 1540,-1623.5 1540,-1593.5 1295,-1593.5"/>
<text text-anchor="start" x="1302" y="-1604.9" font-family="Arial" font-size="14.00" fill="#000000">user_id </text>
<text text-anchor="start" x="1351.7882" y="-1604.9" font-family="Arial" font-size="14.00" fill="#666666">[varchar]</text>
<polygon fill="none" stroke="#000000" points="1295,-1563.5 1295,-1593.5 1540,-1593.5 1540,-1563.5 1295,-1563.5"/>
<text text-anchor="start" x="1302" y="-1574.9" font-family="Arial" font-size="14.00" fill="#000000">applicant_id </text>
<text text-anchor="start" x="1380.5792" y="-1574.9" font-family="Arial" font-size="14.00" fill="#666666">[varchar]</text>
</g>
<!-- public.messages&#45;&gt;public.users -->
<g id="edge10" class="edge">
<title>public.messages:user_id&#45;&gt;public.users:id</title>
<path fill="none" stroke="#000000" d="M1550.0133,-1606.9341C1572.1759,-1598.2776 1545.0135,-1555.4242 1540,-1521 1515.0731,-1349.8431 1453.9269,-1319.1569 1429,-1148 1390.5047,-883.6774 1260.8229,-754.5206 1429,-547 1477.6258,-486.9986 1550.3742,-571.0014 1599,-511 1625.164,-478.7152 1640.5556,-417.5 1599,-417.5"/>
<polygon fill="#000000" stroke="#000000" points="1549.8799,-1606.9549 1539.3047,-1604.054 1544.94,-1607.7274 1540,-1608.5 1540,-1608.5 1540,-1608.5 1544.94,-1607.7274 1540.6953,-1612.946 1549.8799,-1606.9549 1549.8799,-1606.9549"/>
<text text-anchor="start" x="1547.329" y="-1618.5" font-family="Arial" font-size="10.00" fill="#000000">FOREIGN KEY (user_id) REFERENCES users(id) ON DELETE SET NULL</text>
</g>
<!-- public.messages&#45;&gt;public.applicants -->
<g id="edge11" class="edge">
<title>public.messages:applicant_id&#45;&gt;public.applicants:id</title>
<path fill="none" stroke="#000000" d="M1284.867,-1577.0241C1262.467,-1569.5682 1269.0211,-1535.8201 1242,-1521 1162.4276,-1477.3575 1114.634,-1538.0516 1041,-1485 1002.5944,-1457.3296 1037.3354,-1391.5 990,-1391.5"/>
<polygon fill="#000000" stroke="#000000" points="1285.1044,-1577.0586 1294.3514,-1582.953 1290.0522,-1577.7793 1295,-1578.5 1295,-1578.5 1295,-1578.5 1290.0522,-1577.7793 1295.6486,-1574.047 1285.1044,-1577.0586 1285.1044,-1577.0586"/>
<text text-anchor="start" x="913.4885" y="-1562.5" font-family="Arial" font-size="10.00" fill="#000000">FOREIGN KEY (applicant_id) REFERENCES applicants(id) ON DELETE CASCADE</text>
</g>
<!-- public.messages&#45;&gt;public.rooms -->
<g id="edge12" class="edge">
<title>public.messages:room_id&#45;&gt;public.rooms:id</title>
<path fill="none" stroke="#000000" d="M1550.1292,-1638.4617C1918.4407,-1635.6599 2058.29,-1479.0785 2229,-1148 2319.4064,-972.664 2313.2714,-267.5 2116,-267.5"/>
<polygon fill="#000000" stroke="#000000" points="1549.9999,-1638.4621 1539.9829,-1634 1545,-1638.481 1540,-1638.5 1540,-1638.5 1540,-1638.5 1545,-1638.481 1540.0171,-1643 1549.9999,-1638.4621 1549.9999,-1638.4621"/>
<text text-anchor="start" x="1546.7245" y="-1648.5" font-family="Arial" font-size="10.00" fill="#000000">FOREIGN KEY (room_id) REFERENCES rooms(id) ON DELETE CASCADE</text>
</g>
<!-- public.entries -->
<g id="node12" class="node">
<title>public.entries</title>
<polygon fill="#efefef" stroke="transparent" points="1482,-874.5 1482,-909.5 1699,-909.5 1699,-874.5 1482,-874.5"/>
<polygon fill="none" stroke="#000000" points="1482,-874.5 1482,-909.5 1699,-909.5 1699,-874.5 1482,-874.5"/>
<text text-anchor="start" x="1488.8649" y="-887.3" font-family="Arial Bold" font-size="18.00" fill="#000000">public.entries</text>
<text text-anchor="start" x="1594.8813" y="-887.3" font-family="Arial" font-size="14.00" fill="#000000"> </text>
<text text-anchor="start" x="1598.7719" y="-887.3" font-family="Arial" font-size="14.00" fill="#666666">[BASE TABLE]</text>
<polygon fill="none" stroke="#000000" points="1482,-844.5 1482,-874.5 1699,-874.5 1699,-844.5 1482,-844.5"/>
<text text-anchor="start" x="1489" y="-855.9" font-family="Arial" font-size="14.00" fill="#000000">id </text>
<text text-anchor="start" x="1503.7798" y="-855.9" font-family="Arial" font-size="14.00" fill="#666666">[varchar]</text>
<polygon fill="none" stroke="#000000" points="1482,-814.5 1482,-844.5 1699,-844.5 1699,-814.5 1482,-814.5"/>
<text text-anchor="start" x="1489" y="-825.9" font-family="Arial" font-size="14.00" fill="#000000">room_id </text>
<text text-anchor="start" x="1543.4488" y="-825.9" font-family="Arial" font-size="14.00" fill="#666666">[varchar]</text>
<polygon fill="none" stroke="#000000" points="1482,-784.5 1482,-814.5 1699,-814.5 1699,-784.5 1482,-784.5"/>
<text text-anchor="start" x="1489" y="-795.9" font-family="Arial" font-size="14.00" fill="#000000">user_id </text>
<text text-anchor="start" x="1538.7882" y="-795.9" font-family="Arial" font-size="14.00" fill="#666666">[varchar]</text>
</g>
<!-- public.entries&#45;&gt;public.users -->
<g id="edge13" class="edge">
<title>public.entries:user_id&#45;&gt;public.users:id</title>
<path fill="none" stroke="#000000" d="M1471.8842,-799.0246C1323.5286,-783.9927 1772.9212,-417.5 1599,-417.5"/>
<polygon fill="#000000" stroke="#000000" points="1472.011,-799.0305 1481.7887,-803.995 1477.0055,-799.2652 1482,-799.5 1482,-799.5 1482,-799.5 1477.0055,-799.2652 1482.2113,-795.005 1472.011,-799.0305 1472.011,-799.0305"/>
<text text-anchor="start" x="1142.329" y="-809.5" font-family="Arial" font-size="10.00" fill="#000000">FOREIGN KEY (user_id) REFERENCES users(id) ON DELETE SET NULL</text>
</g>
<!-- public.entries&#45;&gt;public.rooms -->
<g id="edge14" class="edge">
<title>public.entries:room_id&#45;&gt;public.rooms:id</title>
<path fill="none" stroke="#000000" d="M1708.9731,-827.4405C1759.6345,-804.9572 1734.2674,-604.8455 1751,-547 1788.1861,-418.4458 1729.1755,-267.5 1863,-267.5"/>
<polygon fill="#000000" stroke="#000000" points="1708.7934,-827.4775 1698.0899,-825.093 1703.8967,-828.4888 1699,-829.5 1699,-829.5 1699,-829.5 1703.8967,-828.4888 1699.9101,-833.907 1708.7934,-827.4775 1708.7934,-827.4775"/>
<text text-anchor="start" x="1351.7245" y="-839.5" font-family="Arial" font-size="10.00" fill="#000000">FOREIGN KEY (room_id) REFERENCES rooms(id) ON DELETE CASCADE</text>
</g>
<!-- public.room_read_managements -->
<g id="node13" class="node">
<title>public.room_read_managements</title>
<polygon fill="#efefef" stroke="transparent" points="1803,-889.5 1803,-924.5 2177,-924.5 2177,-889.5 1803,-889.5"/>
<polygon fill="none" stroke="#000000" points="1803,-889.5 1803,-924.5 2177,-924.5 2177,-889.5 1803,-889.5"/>
<text text-anchor="start" x="1809.8435" y="-902.3" font-family="Arial Bold" font-size="18.00" fill="#000000">public.room_read_managements</text>
<text text-anchor="start" x="2072.9027" y="-902.3" font-family="Arial" font-size="14.00" fill="#000000"> </text>
<text text-anchor="start" x="2076.7933" y="-902.3" font-family="Arial" font-size="14.00" fill="#666666">[BASE TABLE]</text>
<polygon fill="none" stroke="#000000" points="1803,-859.5 1803,-889.5 2177,-889.5 2177,-859.5 1803,-859.5"/>
<text text-anchor="start" x="1810" y="-870.9" font-family="Arial" font-size="14.00" fill="#000000">id </text>
<text text-anchor="start" x="1824.7798" y="-870.9" font-family="Arial" font-size="14.00" fill="#666666">[varchar]</text>
<polygon fill="none" stroke="#000000" points="1803,-829.5 1803,-859.5 2177,-859.5 2177,-829.5 1803,-829.5"/>
<text text-anchor="start" x="1810" y="-840.9" font-family="Arial" font-size="14.00" fill="#000000">last_read_at </text>
<text text-anchor="start" x="1890.9172" y="-840.9" font-family="Arial" font-size="14.00" fill="#666666">[timestamp with time zone]</text>
<polygon fill="none" stroke="#000000" points="1803,-799.5 1803,-829.5 2177,-829.5 2177,-799.5 1803,-799.5"/>
<text text-anchor="start" x="1810" y="-810.9" font-family="Arial" font-size="14.00" fill="#000000">room_id </text>
<text text-anchor="start" x="1864.4488" y="-810.9" font-family="Arial" font-size="14.00" fill="#666666">[varchar]</text>
<polygon fill="none" stroke="#000000" points="1803,-769.5 1803,-799.5 2177,-799.5 2177,-769.5 1803,-769.5"/>
<text text-anchor="start" x="1810" y="-780.9" font-family="Arial" font-size="14.00" fill="#000000">user_id </text>
<text text-anchor="start" x="1859.7882" y="-780.9" font-family="Arial" font-size="14.00" fill="#666666">[varchar]</text>
</g>
<!-- public.room_read_managements&#45;&gt;public.users -->
<g id="edge15" class="edge">
<title>public.room_read_managements:user_id&#45;&gt;public.users:id</title>
<path fill="none" stroke="#000000" d="M1792.9491,-784.0282C1702.1735,-774.9393 1804.7424,-636.5844 1751,-547 1705.3441,-470.8952 1687.7491,-417.5 1599,-417.5"/>
<polygon fill="#000000" stroke="#000000" points="1793.011,-784.031 1802.7889,-788.9951 1798.0055,-784.2655 1803,-784.5 1803,-784.5 1803,-784.5 1798.0055,-784.2655 1803.2111,-780.0049 1793.011,-784.031 1793.011,-784.031"/>
<text text-anchor="start" x="1810.329" y="-794.5" font-family="Arial" font-size="10.00" fill="#000000">FOREIGN KEY (user_id) REFERENCES users(id) ON DELETE SET NULL</text>
</g>
<!-- public.room_read_managements&#45;&gt;public.rooms -->
<g id="edge16" class="edge">
<title>public.room_read_managements:room_id&#45;&gt;public.rooms:id</title>
<path fill="none" stroke="#000000" d="M1793.0611,-812.9899C1769.1507,-804.2867 1790.8964,-759.7758 1803,-727 1877.1467,-526.215 2041.8533,-561.785 2116,-361 2130.3956,-322.0176 2157.5556,-267.5 2116,-267.5"/>
<polygon fill="#000000" stroke="#000000" points="1793.1135,-812.9978 1802.324,-818.9489 1798.0567,-813.7489 1803,-814.5 1803,-814.5 1803,-814.5 1798.0567,-813.7489 1803.676,-810.0511 1793.1135,-812.9978 1793.1135,-812.9978"/>
<text text-anchor="start" x="1809.7245" y="-824.5" font-family="Arial" font-size="10.00" fill="#000000">FOREIGN KEY (room_id) REFERENCES rooms(id) ON DELETE CASCADE</text>
</g>
</g>
</svg>
