<?xml version="1.0" encoding="UTF-8" standalone="no"?>
<!DOCTYPE svg PUBLIC "-//W3C//DTD SVG 1.1//EN"
 "http://www.w3.org/Graphics/SVG/1.1/DTD/svg11.dtd">
<!-- Generated by graphviz version 2.40.1 (20161225.0304)
 -->
<!-- Title: connefut_db Pages: 1 -->
<svg width="2510pt" height="1493pt"
 viewBox="0.00 0.00 2510.00 1493.00" xmlns="http://www.w3.org/2000/svg" xmlns:xlink="http://www.w3.org/1999/xlink">
<g id="graph0" class="graph" transform="scale(1 1) rotate(0) translate(4 1489)">
<title>connefut_db</title>
<polygon fill="#ffffff" stroke="transparent" points="-4,4 -4,-1489 2506,-1489 2506,4 -4,4"/>
<!-- public.schema_migrations -->
<g id="node1" class="node">
<title>public.schema_migrations</title>
<polygon fill="#efefef" stroke="transparent" points="43.5,-1346.5 43.5,-1381.5 362.5,-1381.5 362.5,-1346.5 43.5,-1346.5"/>
<polygon fill="none" stroke="#000000" points="43.5,-1346.5 43.5,-1381.5 362.5,-1381.5 362.5,-1346.5 43.5,-1346.5"/>
<text text-anchor="start" x="50.3601" y="-1359.3" font-family="Arial Bold" font-size="18.00" fill="#000000">public.schema_migrations</text>
<text text-anchor="start" x="258.3861" y="-1359.3" font-family="Arial" font-size="14.00" fill="#000000"> </text>
<text text-anchor="start" x="262.2767" y="-1359.3" font-family="Arial" font-size="14.00" fill="#666666">[BASE TABLE]</text>
<polygon fill="none" stroke="#000000" points="43.5,-1316.5 43.5,-1346.5 362.5,-1346.5 362.5,-1316.5 43.5,-1316.5"/>
<text text-anchor="start" x="50.5" y="-1327.9" font-family="Arial" font-size="14.00" fill="#000000">version </text>
<text text-anchor="start" x="99.5056" y="-1327.9" font-family="Arial" font-size="14.00" fill="#666666">[bigint]</text>
<polygon fill="none" stroke="#000000" points="43.5,-1286.5 43.5,-1316.5 362.5,-1316.5 362.5,-1286.5 43.5,-1286.5"/>
<text text-anchor="start" x="50.5" y="-1297.9" font-family="Arial" font-size="14.00" fill="#000000">dirty </text>
<text text-anchor="start" x="80.831" y="-1297.9" font-family="Arial" font-size="14.00" fill="#666666">[boolean]</text>
</g>
<!-- public.users -->
<g id="node2" class="node">
<title>public.users</title>
<polygon fill="#efefef" stroke="transparent" points="927.5,-432.5 927.5,-467.5 1333.5,-467.5 1333.5,-432.5 927.5,-432.5"/>
<polygon fill="none" stroke="#000000" points="927.5,-432.5 927.5,-467.5 1333.5,-467.5 1333.5,-432.5 927.5,-432.5"/>
<text text-anchor="start" x="1033.8662" y="-445.3" font-family="Arial Bold" font-size="18.00" fill="#000000">public.users</text>
<text text-anchor="start" x="1129.88" y="-445.3" font-family="Arial" font-size="14.00" fill="#000000"> </text>
<text text-anchor="start" x="1133.7706" y="-445.3" font-family="Arial" font-size="14.00" fill="#666666">[BASE TABLE]</text>
<polygon fill="none" stroke="#000000" points="927.5,-402.5 927.5,-432.5 1333.5,-432.5 1333.5,-402.5 927.5,-402.5"/>
<text text-anchor="start" x="934.5" y="-413.9" font-family="Arial" font-size="14.00" fill="#000000">id </text>
<text text-anchor="start" x="949.2798" y="-413.9" font-family="Arial" font-size="14.00" fill="#666666">[varchar]</text>
<polygon fill="none" stroke="#000000" points="927.5,-372.5 927.5,-402.5 1333.5,-402.5 1333.5,-372.5 927.5,-372.5"/>
<text text-anchor="start" x="934.5" y="-383.9" font-family="Arial" font-size="14.00" fill="#000000">name </text>
<text text-anchor="start" x="973.399" y="-383.9" font-family="Arial" font-size="14.00" fill="#666666">[varchar(50)]</text>
<polygon fill="none" stroke="#000000" points="927.5,-342.5 927.5,-372.5 1333.5,-372.5 1333.5,-342.5 927.5,-342.5"/>
<text text-anchor="start" x="934.5" y="-353.9" font-family="Arial" font-size="14.00" fill="#000000">email </text>
<text text-anchor="start" x="971.8296" y="-353.9" font-family="Arial" font-size="14.00" fill="#666666">[varchar(100)]</text>
<polygon fill="none" stroke="#000000" points="927.5,-312.5 927.5,-342.5 1333.5,-342.5 1333.5,-312.5 927.5,-312.5"/>
<text text-anchor="start" x="934.5" y="-323.9" font-family="Arial" font-size="14.00" fill="#000000">role </text>
<text text-anchor="start" x="961.723" y="-323.9" font-family="Arial" font-size="14.00" fill="#666666">[varchar]</text>
<polygon fill="none" stroke="#000000" points="927.5,-282.5 927.5,-312.5 1333.5,-312.5 1333.5,-282.5 927.5,-282.5"/>
<text text-anchor="start" x="934.5" y="-293.9" font-family="Arial" font-size="14.00" fill="#000000">avatar </text>
<text text-anchor="start" x="977.2896" y="-293.9" font-family="Arial" font-size="14.00" fill="#666666">[varchar]</text>
<polygon fill="none" stroke="#000000" points="927.5,-252.5 927.5,-282.5 1333.5,-282.5 1333.5,-252.5 927.5,-252.5"/>
<text text-anchor="start" x="934.5" y="-263.9" font-family="Arial" font-size="14.00" fill="#000000">introduction </text>
<text text-anchor="start" x="1010.7412" y="-263.9" font-family="Arial" font-size="14.00" fill="#666666">[varchar(4000)]</text>
<polygon fill="none" stroke="#000000" points="927.5,-222.5 927.5,-252.5 1333.5,-252.5 1333.5,-222.5 927.5,-222.5"/>
<text text-anchor="start" x="934.5" y="-233.9" font-family="Arial" font-size="14.00" fill="#000000">email_verification_status </text>
<text text-anchor="start" x="1091.6332" y="-233.9" font-family="Arial" font-size="14.00" fill="#666666">[varchar]</text>
<polygon fill="none" stroke="#000000" points="927.5,-192.5 927.5,-222.5 1333.5,-222.5 1333.5,-192.5 927.5,-192.5"/>
<text text-anchor="start" x="934.5" y="-203.9" font-family="Arial" font-size="14.00" fill="#000000">email_verification_token </text>
<text text-anchor="start" x="1088.5252" y="-203.9" font-family="Arial" font-size="14.00" fill="#666666">[varchar]</text>
<polygon fill="none" stroke="#000000" points="927.5,-162.5 927.5,-192.5 1333.5,-192.5 1333.5,-162.5 927.5,-162.5"/>
<text text-anchor="start" x="934.4685" y="-173.9" font-family="Arial" font-size="14.00" fill="#000000">email_verification_token_expires_at </text>
<text text-anchor="start" x="1160.8471" y="-173.9" font-family="Arial" font-size="14.00" fill="#666666">[timestamp with time zone]</text>
<polygon fill="none" stroke="#000000" points="927.5,-132.5 927.5,-162.5 1333.5,-162.5 1333.5,-132.5 927.5,-132.5"/>
<text text-anchor="start" x="934.5" y="-143.9" font-family="Arial" font-size="14.00" fill="#000000">password_digest </text>
<text text-anchor="start" x="1043.4158" y="-143.9" font-family="Arial" font-size="14.00" fill="#666666">[varchar]</text>
<polygon fill="none" stroke="#000000" points="927.5,-102.5 927.5,-132.5 1333.5,-132.5 1333.5,-102.5 927.5,-102.5"/>
<text text-anchor="start" x="934.5" y="-113.9" font-family="Arial" font-size="14.00" fill="#000000">created_at </text>
<text text-anchor="start" x="1004.528" y="-113.9" font-family="Arial" font-size="14.00" fill="#666666">[timestamp with time zone]</text>
<polygon fill="none" stroke="#000000" points="927.5,-72.5 927.5,-102.5 1333.5,-102.5 1333.5,-72.5 927.5,-72.5"/>
<text text-anchor="start" x="934.5" y="-83.9" font-family="Arial" font-size="14.00" fill="#000000">updated_at </text>
<text text-anchor="start" x="1008.4326" y="-83.9" font-family="Arial" font-size="14.00" fill="#666666">[timestamp with time zone]</text>
<polygon fill="none" stroke="#000000" points="927.5,-42.5 927.5,-72.5 1333.5,-72.5 1333.5,-42.5 927.5,-42.5"/>
<text text-anchor="start" x="934.5" y="-53.9" font-family="Arial" font-size="14.00" fill="#000000">last_sign_in_at </text>
<text text-anchor="start" x="1031.7524" y="-53.9" font-family="Arial" font-size="14.00" fill="#666666">[timestamp with time zone]</text>
</g>
<!-- public.prefectures -->
<g id="node3" class="node">
<title>public.prefectures</title>
<polygon fill="#efefef" stroke="transparent" points="202.5,-297.5 202.5,-332.5 455.5,-332.5 455.5,-297.5 202.5,-297.5"/>
<polygon fill="none" stroke="#000000" points="202.5,-297.5 202.5,-332.5 455.5,-332.5 455.5,-297.5 202.5,-297.5"/>
<text text-anchor="start" x="209.3586" y="-310.3" font-family="Arial Bold" font-size="18.00" fill="#000000">public.prefectures</text>
<text text-anchor="start" x="351.3876" y="-310.3" font-family="Arial" font-size="14.00" fill="#000000"> </text>
<text text-anchor="start" x="355.2782" y="-310.3" font-family="Arial" font-size="14.00" fill="#666666">[BASE TABLE]</text>
<polygon fill="none" stroke="#000000" points="202.5,-267.5 202.5,-297.5 455.5,-297.5 455.5,-267.5 202.5,-267.5"/>
<text text-anchor="start" x="209.5" y="-278.9" font-family="Arial" font-size="14.00" fill="#000000">id </text>
<text text-anchor="start" x="224.2798" y="-278.9" font-family="Arial" font-size="14.00" fill="#666666">[varchar]</text>
<polygon fill="none" stroke="#000000" points="202.5,-237.5 202.5,-267.5 455.5,-267.5 455.5,-237.5 202.5,-237.5"/>
<text text-anchor="start" x="209.5" y="-248.9" font-family="Arial" font-size="14.00" fill="#000000">name </text>
<text text-anchor="start" x="248.399" y="-248.9" font-family="Arial" font-size="14.00" fill="#666666">[varchar]</text>
<polygon fill="none" stroke="#000000" points="202.5,-207.5 202.5,-237.5 455.5,-237.5 455.5,-207.5 202.5,-207.5"/>
<text text-anchor="start" x="209.5" y="-218.9" font-family="Arial" font-size="14.00" fill="#000000">created_at </text>
<text text-anchor="start" x="279.528" y="-218.9" font-family="Arial" font-size="14.00" fill="#666666">[timestamp with time zone]</text>
<polygon fill="none" stroke="#000000" points="202.5,-177.5 202.5,-207.5 455.5,-207.5 455.5,-177.5 202.5,-177.5"/>
<text text-anchor="start" x="209.1915" y="-188.9" font-family="Arial" font-size="14.00" fill="#000000">updated_at </text>
<text text-anchor="start" x="283.1241" y="-188.9" font-family="Arial" font-size="14.00" fill="#666666">[timestamp with time zone]</text>
</g>
<!-- public.competitions -->
<g id="node4" class="node">
<title>public.competitions</title>
<polygon fill="#efefef" stroke="transparent" points="559.5,-297.5 559.5,-332.5 823.5,-332.5 823.5,-297.5 559.5,-297.5"/>
<polygon fill="none" stroke="#000000" points="559.5,-297.5 559.5,-332.5 823.5,-332.5 823.5,-297.5 559.5,-297.5"/>
<text text-anchor="start" x="566.3605" y="-310.3" font-family="Arial Bold" font-size="18.00" fill="#000000">public.competitions</text>
<text text-anchor="start" x="719.3857" y="-310.3" font-family="Arial" font-size="14.00" fill="#000000"> </text>
<text text-anchor="start" x="723.2763" y="-310.3" font-family="Arial" font-size="14.00" fill="#666666">[BASE TABLE]</text>
<polygon fill="none" stroke="#000000" points="559.5,-267.5 559.5,-297.5 823.5,-297.5 823.5,-267.5 559.5,-267.5"/>
<text text-anchor="start" x="566.5" y="-278.9" font-family="Arial" font-size="14.00" fill="#000000">id </text>
<text text-anchor="start" x="581.2798" y="-278.9" font-family="Arial" font-size="14.00" fill="#666666">[varchar]</text>
<polygon fill="none" stroke="#000000" points="559.5,-237.5 559.5,-267.5 823.5,-267.5 823.5,-237.5 559.5,-237.5"/>
<text text-anchor="start" x="566.5" y="-248.9" font-family="Arial" font-size="14.00" fill="#000000">name </text>
<text text-anchor="start" x="605.399" y="-248.9" font-family="Arial" font-size="14.00" fill="#666666">[varchar]</text>
<polygon fill="none" stroke="#000000" points="559.5,-207.5 559.5,-237.5 823.5,-237.5 823.5,-207.5 559.5,-207.5"/>
<text text-anchor="start" x="566.5" y="-218.9" font-family="Arial" font-size="14.00" fill="#000000">created_at </text>
<text text-anchor="start" x="636.528" y="-218.9" font-family="Arial" font-size="14.00" fill="#666666">[timestamp with time zone]</text>
<polygon fill="none" stroke="#000000" points="559.5,-177.5 559.5,-207.5 823.5,-207.5 823.5,-177.5 559.5,-177.5"/>
<text text-anchor="start" x="566.5" y="-188.9" font-family="Arial" font-size="14.00" fill="#000000">updated_at </text>
<text text-anchor="start" x="640.4326" y="-188.9" font-family="Arial" font-size="14.00" fill="#666666">[timestamp with time zone]</text>
</g>
<!-- public.recruitments -->
<g id="node5" class="node">
<title>public.recruitments</title>
<polygon fill="#efefef" stroke="transparent" points="652.5,-1069.5 652.5,-1104.5 914.5,-1104.5 914.5,-1069.5 652.5,-1069.5"/>
<polygon fill="none" stroke="#000000" points="652.5,-1069.5 652.5,-1104.5 914.5,-1104.5 914.5,-1069.5 652.5,-1069.5"/>
<text text-anchor="start" x="659.3685" y="-1082.3" font-family="Arial Bold" font-size="18.00" fill="#000000">public.recruitments</text>
<text text-anchor="start" x="810.3777" y="-1082.3" font-family="Arial" font-size="14.00" fill="#000000"> </text>
<text text-anchor="start" x="814.2683" y="-1082.3" font-family="Arial" font-size="14.00" fill="#666666">[BASE TABLE]</text>
<polygon fill="none" stroke="#000000" points="652.5,-1039.5 652.5,-1069.5 914.5,-1069.5 914.5,-1039.5 652.5,-1039.5"/>
<text text-anchor="start" x="659.5" y="-1050.9" font-family="Arial" font-size="14.00" fill="#000000">id </text>
<text text-anchor="start" x="674.2798" y="-1050.9" font-family="Arial" font-size="14.00" fill="#666666">[varchar]</text>
<polygon fill="none" stroke="#000000" points="652.5,-1009.5 652.5,-1039.5 914.5,-1039.5 914.5,-1009.5 652.5,-1009.5"/>
<text text-anchor="start" x="659.5" y="-1020.9" font-family="Arial" font-size="14.00" fill="#000000">title </text>
<text text-anchor="start" x="685.1676" y="-1020.9" font-family="Arial" font-size="14.00" fill="#666666">[varchar(60)]</text>
<polygon fill="none" stroke="#000000" points="652.5,-979.5 652.5,-1009.5 914.5,-1009.5 914.5,-979.5 652.5,-979.5"/>
<text text-anchor="start" x="659.5" y="-990.9" font-family="Arial" font-size="14.00" fill="#000000">type </text>
<text text-anchor="start" x="689.8464" y="-990.9" font-family="Arial" font-size="14.00" fill="#666666">[varchar]</text>
<polygon fill="none" stroke="#000000" points="652.5,-949.5 652.5,-979.5 914.5,-979.5 914.5,-949.5 652.5,-949.5"/>
<text text-anchor="start" x="659.5" y="-960.9" font-family="Arial" font-size="14.00" fill="#000000">place </text>
<text text-anchor="start" x="696.845" y="-960.9" font-family="Arial" font-size="14.00" fill="#666666">[varchar]</text>
<polygon fill="none" stroke="#000000" points="652.5,-919.5 652.5,-949.5 914.5,-949.5 914.5,-919.5 652.5,-919.5"/>
<text text-anchor="start" x="659.5" y="-930.9" font-family="Arial" font-size="14.00" fill="#000000">start_at </text>
<text text-anchor="start" x="710.0708" y="-930.9" font-family="Arial" font-size="14.00" fill="#666666">[timestamp with time zone]</text>
<polygon fill="none" stroke="#000000" points="652.5,-889.5 652.5,-919.5 914.5,-919.5 914.5,-889.5 652.5,-889.5"/>
<text text-anchor="start" x="659.5" y="-900.9" font-family="Arial" font-size="14.00" fill="#000000">detail </text>
<text text-anchor="start" x="696.8422" y="-900.9" font-family="Arial" font-size="14.00" fill="#666666">[varchar(10000)]</text>
<polygon fill="none" stroke="#000000" points="652.5,-859.5 652.5,-889.5 914.5,-889.5 914.5,-859.5 652.5,-859.5"/>
<text text-anchor="start" x="659.5" y="-870.9" font-family="Arial" font-size="14.00" fill="#000000">closing_at </text>
<text text-anchor="start" x="726.4074" y="-870.9" font-family="Arial" font-size="14.00" fill="#666666">[timestamp with time zone]</text>
<polygon fill="none" stroke="#000000" points="652.5,-829.5 652.5,-859.5 914.5,-859.5 914.5,-829.5 652.5,-829.5"/>
<text text-anchor="start" x="659.5" y="-840.9" font-family="Arial" font-size="14.00" fill="#000000">competition_id </text>
<text text-anchor="start" x="753.6304" y="-840.9" font-family="Arial" font-size="14.00" fill="#666666">[varchar]</text>
<polygon fill="none" stroke="#000000" points="652.5,-799.5 652.5,-829.5 914.5,-829.5 914.5,-799.5 652.5,-799.5"/>
<text text-anchor="start" x="659.5" y="-810.9" font-family="Arial" font-size="14.00" fill="#000000">prefecture_id </text>
<text text-anchor="start" x="745.0778" y="-810.9" font-family="Arial" font-size="14.00" fill="#666666">[varchar]</text>
<polygon fill="none" stroke="#000000" points="652.5,-769.5 652.5,-799.5 914.5,-799.5 914.5,-769.5 652.5,-769.5"/>
<text text-anchor="start" x="659.5" y="-780.9" font-family="Arial" font-size="14.00" fill="#000000">user_id </text>
<text text-anchor="start" x="709.2882" y="-780.9" font-family="Arial" font-size="14.00" fill="#666666">[varchar]</text>
<polygon fill="none" stroke="#000000" points="652.5,-739.5 652.5,-769.5 914.5,-769.5 914.5,-739.5 652.5,-739.5"/>
<text text-anchor="start" x="659.5" y="-750.9" font-family="Arial" font-size="14.00" fill="#000000">created_at </text>
<text text-anchor="start" x="729.528" y="-750.9" font-family="Arial" font-size="14.00" fill="#666666">[timestamp with time zone]</text>
<polygon fill="none" stroke="#000000" points="652.5,-709.5 652.5,-739.5 914.5,-739.5 914.5,-709.5 652.5,-709.5"/>
<text text-anchor="start" x="659.5" y="-720.9" font-family="Arial" font-size="14.00" fill="#000000">updated_at </text>
<text text-anchor="start" x="733.4326" y="-720.9" font-family="Arial" font-size="14.00" fill="#666666">[timestamp with time zone]</text>
<polygon fill="none" stroke="#000000" points="652.5,-679.5 652.5,-709.5 914.5,-709.5 914.5,-679.5 652.5,-679.5"/>
<text text-anchor="start" x="659.5" y="-690.9" font-family="Arial" font-size="14.00" fill="#000000">location_lat </text>
<text text-anchor="start" x="734.1872" y="-690.9" font-family="Arial" font-size="14.00" fill="#666666">[double precision]</text>
<polygon fill="none" stroke="#000000" points="652.5,-649.5 652.5,-679.5 914.5,-679.5 914.5,-649.5 652.5,-649.5"/>
<text text-anchor="start" x="659.5" y="-660.9" font-family="Arial" font-size="14.00" fill="#000000">location_lng </text>
<text text-anchor="start" x="738.0792" y="-660.9" font-family="Arial" font-size="14.00" fill="#666666">[double precision]</text>
<polygon fill="none" stroke="#000000" points="652.5,-619.5 652.5,-649.5 914.5,-649.5 914.5,-619.5 652.5,-619.5"/>
<text text-anchor="start" x="659.5" y="-630.9" font-family="Arial" font-size="14.00" fill="#000000">status </text>
<text text-anchor="start" x="700.737" y="-630.9" font-family="Arial" font-size="14.00" fill="#666666">[varchar]</text>
<polygon fill="none" stroke="#000000" points="652.5,-589.5 652.5,-619.5 914.5,-619.5 914.5,-589.5 652.5,-589.5"/>
<text text-anchor="start" x="659.0302" y="-600.9" font-family="Arial" font-size="14.00" fill="#000000">published_at </text>
<text text-anchor="start" x="742.2854" y="-600.9" font-family="Arial" font-size="14.00" fill="#666666">[timestamp with time zone]</text>
</g>
<!-- public.recruitments&#45;&gt;public.users -->
<g id="edge1" class="edge">
<title>public.recruitments:user_id&#45;&gt;public.users:id</title>
<path fill="none" stroke="#000000" d="M920.7073,-776.4934C935.1583,-722.8233 882.0739,-417.5 927.5,-417.5"/>
<polygon fill="#000000" stroke="#000000" points="920.6271,-776.5969 910.9436,-781.7428 917.5635,-780.5484 914.5,-784.5 914.5,-784.5 914.5,-784.5 917.5635,-780.5484 918.0564,-787.2572 920.6271,-776.5969 920.6271,-776.5969"/>
<text text-anchor="start" x="921.5535" y="-794.5" font-family="Arial" font-size="10.00" fill="#000000">FOREIGN KEY (user_id) REFERENCES users(id) ON DELETE CASCADE</text>
</g>
<!-- public.recruitments&#45;&gt;public.users -->
<g id="edge16" class="edge">
<title>public.recruitments:user_id&#45;&gt;public.users:id</title>
<path fill="none" stroke="#000000" stroke-dasharray="5,2" d="M923.4829,-779.0878C954.8302,-733.8447 898.459,-420.1512 927.1326,-417.5167"/>
<polygon fill="#000000" stroke="#000000" points="923.2813,-779.2132 912.4133,-780.6749 919.0359,-781.8545 914.7905,-784.4958 914.7905,-784.4958 914.7905,-784.4958 919.0359,-781.8545 917.1676,-788.3167 923.2813,-779.2132 923.2813,-779.2132"/>
<text text-anchor="start" x="922.115" y="-768.4958" font-family="Arial" font-size="10.00" fill="#000000">Additional Relation</text>
</g>
<!-- public.recruitments&#45;&gt;public.prefectures -->
<g id="edge2" class="edge">
<title>public.recruitments:prefecture_id&#45;&gt;public.prefectures:id</title>
<path fill="none" stroke="#000000" d="M642.3195,-814.2349C505.4634,-806.9036 555.4593,-648.8866 507.5,-511 490.3923,-461.8142 507.576,-282.5 455.5,-282.5"/>
<polygon fill="#000000" stroke="#000000" points="642.5034,-814.2396 652.3828,-818.9985 647.5017,-814.3698 652.5,-814.5 652.5,-814.5 652.5,-814.5 647.5017,-814.3698 652.6172,-810.0015 642.5034,-814.2396 642.5034,-814.2396"/>
<text text-anchor="start" x="259.16" y="-824.5" font-family="Arial" font-size="10.00" fill="#000000">FOREIGN KEY (prefecture_id) REFERENCES prefectures(id) ON DELETE RESTRICT</text>
</g>
<!-- public.recruitments&#45;&gt;public.competitions -->
<g id="edge3" class="edge">
<title>public.recruitments:competition_id&#45;&gt;public.competitions:id</title>
<path fill="none" stroke="#000000" d="M642.4825,-844.1385C524.5605,-835.2904 603.2349,-665.9365 652.5,-547 693.6309,-447.7012 782.3691,-475.2988 823.5,-376 839.4026,-337.6077 865.0556,-282.5 823.5,-282.5"/>
<polygon fill="#000000" stroke="#000000" points="642.5065,-844.1392 652.3377,-848.9971 647.5033,-844.3196 652.5,-844.5 652.5,-844.5 652.5,-844.5 647.5033,-844.3196 652.6623,-840.0029 642.5065,-844.1392 642.5065,-844.1392"/>
<text text-anchor="start" x="247.051" y="-854.5" font-family="Arial" font-size="10.00" fill="#000000">FOREIGN KEY (competition_id) REFERENCES competitions(id) ON DELETE RESTRICT</text>
</g>
<!-- public.stocks -->
<g id="node6" class="node">
<title>public.stocks</title>
<polygon fill="#efefef" stroke="transparent" points="846.5,-1391.5 846.5,-1426.5 1099.5,-1426.5 1099.5,-1391.5 846.5,-1391.5"/>
<polygon fill="none" stroke="#000000" points="846.5,-1391.5 846.5,-1426.5 1099.5,-1426.5 1099.5,-1391.5 846.5,-1391.5"/>
<text text-anchor="start" x="872.8643" y="-1404.3" font-family="Arial Bold" font-size="18.00" fill="#000000">public.stocks</text>
<text text-anchor="start" x="975.8819" y="-1404.3" font-family="Arial" font-size="14.00" fill="#000000"> </text>
<text text-anchor="start" x="979.7725" y="-1404.3" font-family="Arial" font-size="14.00" fill="#666666">[BASE TABLE]</text>
<polygon fill="none" stroke="#000000" points="846.5,-1361.5 846.5,-1391.5 1099.5,-1391.5 1099.5,-1361.5 846.5,-1361.5"/>
<text text-anchor="start" x="853.5" y="-1372.9" font-family="Arial" font-size="14.00" fill="#000000">id </text>
<text text-anchor="start" x="868.2798" y="-1372.9" font-family="Arial" font-size="14.00" fill="#666666">[varchar]</text>
<polygon fill="none" stroke="#000000" points="846.5,-1331.5 846.5,-1361.5 1099.5,-1361.5 1099.5,-1331.5 846.5,-1331.5"/>
<text text-anchor="start" x="853.5" y="-1342.9" font-family="Arial" font-size="14.00" fill="#000000">recruitment_id </text>
<text text-anchor="start" x="946.0624" y="-1342.9" font-family="Arial" font-size="14.00" fill="#666666">[varchar]</text>
<polygon fill="none" stroke="#000000" points="846.5,-1301.5 846.5,-1331.5 1099.5,-1331.5 1099.5,-1301.5 846.5,-1301.5"/>
<text text-anchor="start" x="853.5" y="-1312.9" font-family="Arial" font-size="14.00" fill="#000000">user_id </text>
<text text-anchor="start" x="903.2882" y="-1312.9" font-family="Arial" font-size="14.00" fill="#666666">[varchar]</text>
<polygon fill="none" stroke="#000000" points="846.5,-1271.5 846.5,-1301.5 1099.5,-1301.5 1099.5,-1271.5 846.5,-1271.5"/>
<text text-anchor="start" x="853.5" y="-1282.9" font-family="Arial" font-size="14.00" fill="#000000">created_at </text>
<text text-anchor="start" x="923.528" y="-1282.9" font-family="Arial" font-size="14.00" fill="#666666">[timestamp with time zone]</text>
<polygon fill="none" stroke="#000000" points="846.5,-1241.5 846.5,-1271.5 1099.5,-1271.5 1099.5,-1241.5 846.5,-1241.5"/>
<text text-anchor="start" x="853.1915" y="-1252.9" font-family="Arial" font-size="14.00" fill="#000000">updated_at </text>
<text text-anchor="start" x="927.1241" y="-1252.9" font-family="Arial" font-size="14.00" fill="#666666">[timestamp with time zone]</text>
</g>
<!-- public.stocks&#45;&gt;public.users -->
<g id="edge4" class="edge">
<title>public.stocks:user_id&#45;&gt;public.users:id</title>
<path fill="none" stroke="#000000" d="M1109.8758,-1315.34C1147.942,-1305.8646 1124.3174,-1240.4905 1099.5,-1199 1074.9005,-1157.8739 1030.3854,-1188.3291 1004.5,-1148 932.2145,-1035.3803 1024.0155,-667.832 966.5,-547 956.3616,-525.7007 936.961,-532.6087 927.5,-511 910.8332,-472.9332 885.9444,-417.5 927.5,-417.5"/>
<polygon fill="#000000" stroke="#000000" points="1109.4381,-1315.3888 1099,-1312.0279 1104.469,-1315.9444 1099.5,-1316.5 1099.5,-1316.5 1099.5,-1316.5 1104.469,-1315.9444 1100,-1320.9721 1109.4381,-1315.3888 1109.4381,-1315.3888"/>
<text text-anchor="start" x="1106.5535" y="-1326.5" font-family="Arial" font-size="10.00" fill="#000000">FOREIGN KEY (user_id) REFERENCES users(id) ON DELETE CASCADE</text>
</g>
<!-- public.stocks&#45;&gt;public.recruitments -->
<g id="edge5" class="edge">
<title>public.stocks:recruitment_id&#45;&gt;public.recruitments:id</title>
<path fill="none" stroke="#000000" d="M836.3206,-1345.6664C785.0274,-1336.5302 818.8432,-1254.3136 846.5,-1199 863.3947,-1165.2105 897.6053,-1181.7895 914.5,-1148 933.0842,-1110.8316 956.0556,-1054.5 914.5,-1054.5"/>
<polygon fill="#000000" stroke="#000000" points="836.5334,-1345.6837 846.1327,-1350.985 841.5167,-1346.0918 846.5,-1346.5 846.5,-1346.5 846.5,-1346.5 841.5167,-1346.0918 846.8673,-1342.015 836.5334,-1345.6837 836.5334,-1345.6837"/>
<text text-anchor="start" x="853.0005" y="-1356.5" font-family="Arial" font-size="10.00" fill="#000000">FOREIGN KEY (recruitment_id) REFERENCES recruitments(id) ON DELETE CASCADE</text>
</g>
<!-- public.applicants -->
<g id="node7" class="node">
<title>public.applicants</title>
<polygon fill="#efefef" stroke="transparent" points="466.5,-1406.5 466.5,-1441.5 719.5,-1441.5 719.5,-1406.5 466.5,-1406.5"/>
<polygon fill="none" stroke="#000000" points="466.5,-1406.5 466.5,-1441.5 719.5,-1441.5 719.5,-1406.5 466.5,-1406.5"/>
<text text-anchor="start" x="477.8577" y="-1419.3" font-family="Arial Bold" font-size="18.00" fill="#000000">public.applicants</text>
<text text-anchor="start" x="610.8885" y="-1419.3" font-family="Arial" font-size="14.00" fill="#000000"> </text>
<text text-anchor="start" x="614.7791" y="-1419.3" font-family="Arial" font-size="14.00" fill="#666666">[BASE TABLE]</text>
<polygon fill="none" stroke="#000000" points="466.5,-1376.5 466.5,-1406.5 719.5,-1406.5 719.5,-1376.5 466.5,-1376.5"/>
<text text-anchor="start" x="473.5" y="-1387.9" font-family="Arial" font-size="14.00" fill="#000000">id </text>
<text text-anchor="start" x="488.2798" y="-1387.9" font-family="Arial" font-size="14.00" fill="#666666">[varchar]</text>
<polygon fill="none" stroke="#000000" points="466.5,-1346.5 466.5,-1376.5 719.5,-1376.5 719.5,-1346.5 466.5,-1346.5"/>
<text text-anchor="start" x="473.5" y="-1357.9" font-family="Arial" font-size="14.00" fill="#000000">recruitment_id </text>
<text text-anchor="start" x="566.0624" y="-1357.9" font-family="Arial" font-size="14.00" fill="#666666">[varchar]</text>
<polygon fill="none" stroke="#000000" points="466.5,-1316.5 466.5,-1346.5 719.5,-1346.5 719.5,-1316.5 466.5,-1316.5"/>
<text text-anchor="start" x="473.5" y="-1327.9" font-family="Arial" font-size="14.00" fill="#000000">user_id </text>
<text text-anchor="start" x="523.2882" y="-1327.9" font-family="Arial" font-size="14.00" fill="#666666">[varchar]</text>
<polygon fill="none" stroke="#000000" points="466.5,-1286.5 466.5,-1316.5 719.5,-1316.5 719.5,-1286.5 466.5,-1286.5"/>
<text text-anchor="start" x="473.5" y="-1297.9" font-family="Arial" font-size="14.00" fill="#000000">created_at </text>
<text text-anchor="start" x="543.528" y="-1297.9" font-family="Arial" font-size="14.00" fill="#666666">[timestamp with time zone]</text>
<polygon fill="none" stroke="#000000" points="466.5,-1256.5 466.5,-1286.5 719.5,-1286.5 719.5,-1256.5 466.5,-1256.5"/>
<text text-anchor="start" x="473.1915" y="-1267.9" font-family="Arial" font-size="14.00" fill="#000000">updated_at </text>
<text text-anchor="start" x="547.1241" y="-1267.9" font-family="Arial" font-size="14.00" fill="#666666">[timestamp with time zone]</text>
<polygon fill="none" stroke="#000000" points="466.5,-1226.5 466.5,-1256.5 719.5,-1256.5 719.5,-1226.5 466.5,-1226.5"/>
<text text-anchor="start" x="473.5" y="-1237.9" font-family="Arial" font-size="14.00" fill="#000000">message </text>
<text text-anchor="start" x="534.1816" y="-1237.9" font-family="Arial" font-size="14.00" fill="#666666">[varchar(1000)]</text>
</g>
<!-- public.applicants&#45;&gt;public.users -->
<g id="edge6" class="edge">
<title>public.applicants:user_id&#45;&gt;public.users:id</title>
<path fill="none" stroke="#000000" d="M459.073,-1324.3805C425.3479,-1254.5371 444.6321,-691.281 600.5,-547 690.9589,-463.2656 773.5363,-580.2652 875.5,-511 914.8328,-484.2807 879.9502,-417.5 927.5,-417.5"/>
<polygon fill="#000000" stroke="#000000" points="459.281,-1324.5799 463.386,-1334.7485 462.8905,-1328.04 466.5,-1331.5 466.5,-1331.5 466.5,-1331.5 462.8905,-1328.04 469.614,-1328.2515 459.281,-1324.5799 459.281,-1324.5799"/>
<text text-anchor="start" x="473.5535" y="-1341.5" font-family="Arial" font-size="10.00" fill="#000000">FOREIGN KEY (user_id) REFERENCES users(id) ON DELETE CASCADE</text>
</g>
<!-- public.applicants&#45;&gt;public.recruitments -->
<g id="edge7" class="edge">
<title>public.applicants:recruitment_id&#45;&gt;public.recruitments:id</title>
<path fill="none" stroke="#000000" d="M729.8324,-1360.7919C794.7838,-1351.2996 758.0857,-1248.5355 719.5,-1184 702.1528,-1154.9864 669.8472,-1177.0136 652.5,-1148 631.175,-1112.3334 610.9444,-1054.5 652.5,-1054.5"/>
<polygon fill="#000000" stroke="#000000" points="729.4766,-1360.8162 719.1923,-1357.0105 724.4883,-1361.1581 719.5,-1361.5 719.5,-1361.5 719.5,-1361.5 724.4883,-1361.1581 719.8077,-1365.9895 729.4766,-1360.8162 729.4766,-1360.8162"/>
<text text-anchor="start" x="318.0005" y="-1371.5" font-family="Arial" font-size="10.00" fill="#000000">FOREIGN KEY (recruitment_id) REFERENCES recruitments(id) ON DELETE CASCADE</text>
</g>
<!-- public.tags -->
<g id="node8" class="node">
<title>public.tags</title>
<polygon fill="#efefef" stroke="transparent" points="2206.5,-889.5 2206.5,-924.5 2459.5,-924.5 2459.5,-889.5 2206.5,-889.5"/>
<polygon fill="none" stroke="#000000" points="2206.5,-889.5 2206.5,-924.5 2459.5,-924.5 2459.5,-889.5 2206.5,-889.5"/>
<text text-anchor="start" x="2241.3612" y="-902.3" font-family="Arial Bold" font-size="18.00" fill="#000000">public.tags</text>
<text text-anchor="start" x="2327.385" y="-902.3" font-family="Arial" font-size="14.00" fill="#000000"> </text>
<text text-anchor="start" x="2331.2756" y="-902.3" font-family="Arial" font-size="14.00" fill="#666666">[BASE TABLE]</text>
<polygon fill="none" stroke="#000000" points="2206.5,-859.5 2206.5,-889.5 2459.5,-889.5 2459.5,-859.5 2206.5,-859.5"/>
<text text-anchor="start" x="2213.5" y="-870.9" font-family="Arial" font-size="14.00" fill="#000000">id </text>
<text text-anchor="start" x="2228.2798" y="-870.9" font-family="Arial" font-size="14.00" fill="#666666">[varchar]</text>
<polygon fill="none" stroke="#000000" points="2206.5,-829.5 2206.5,-859.5 2459.5,-859.5 2459.5,-829.5 2206.5,-829.5"/>
<text text-anchor="start" x="2213.5" y="-840.9" font-family="Arial" font-size="14.00" fill="#000000">name </text>
<text text-anchor="start" x="2252.399" y="-840.9" font-family="Arial" font-size="14.00" fill="#666666">[varchar]</text>
<polygon fill="none" stroke="#000000" points="2206.5,-799.5 2206.5,-829.5 2459.5,-829.5 2459.5,-799.5 2206.5,-799.5"/>
<text text-anchor="start" x="2213.5" y="-810.9" font-family="Arial" font-size="14.00" fill="#000000">created_at </text>
<text text-anchor="start" x="2283.528" y="-810.9" font-family="Arial" font-size="14.00" fill="#666666">[timestamp with time zone]</text>
<polygon fill="none" stroke="#000000" points="2206.5,-769.5 2206.5,-799.5 2459.5,-799.5 2459.5,-769.5 2206.5,-769.5"/>
<text text-anchor="start" x="2213.1915" y="-780.9" font-family="Arial" font-size="14.00" fill="#000000">updated_at </text>
<text text-anchor="start" x="2287.1241" y="-780.9" font-family="Arial" font-size="14.00" fill="#666666">[timestamp with time zone]</text>
</g>
<!-- public.recruitment_tags -->
<g id="node9" class="node">
<title>public.recruitment_tags</title>
<polygon fill="#efefef" stroke="transparent" points="1699.5,-1391.5 1699.5,-1426.5 1996.5,-1426.5 1996.5,-1391.5 1699.5,-1391.5"/>
<polygon fill="none" stroke="#000000" points="1699.5,-1391.5 1699.5,-1426.5 1996.5,-1426.5 1996.5,-1391.5 1699.5,-1391.5"/>
<text text-anchor="start" x="1706.3581" y="-1404.3" font-family="Arial Bold" font-size="18.00" fill="#000000">public.recruitment_tags</text>
<text text-anchor="start" x="1892.3881" y="-1404.3" font-family="Arial" font-size="14.00" fill="#000000"> </text>
<text text-anchor="start" x="1896.2787" y="-1404.3" font-family="Arial" font-size="14.00" fill="#666666">[BASE TABLE]</text>
<polygon fill="none" stroke="#000000" points="1699.5,-1361.5 1699.5,-1391.5 1996.5,-1391.5 1996.5,-1361.5 1699.5,-1361.5"/>
<text text-anchor="start" x="1706.5" y="-1372.9" font-family="Arial" font-size="14.00" fill="#000000">id </text>
<text text-anchor="start" x="1721.2798" y="-1372.9" font-family="Arial" font-size="14.00" fill="#666666">[varchar]</text>
<polygon fill="none" stroke="#000000" points="1699.5,-1331.5 1699.5,-1361.5 1996.5,-1361.5 1996.5,-1331.5 1699.5,-1331.5"/>
<text text-anchor="start" x="1706.5" y="-1342.9" font-family="Arial" font-size="14.00" fill="#000000">recruitment_id </text>
<text text-anchor="start" x="1799.0624" y="-1342.9" font-family="Arial" font-size="14.00" fill="#666666">[varchar]</text>
<polygon fill="none" stroke="#000000" points="1699.5,-1301.5 1699.5,-1331.5 1996.5,-1331.5 1996.5,-1301.5 1699.5,-1301.5"/>
<text text-anchor="start" x="1706.5" y="-1312.9" font-family="Arial" font-size="14.00" fill="#000000">tag_id </text>
<text text-anchor="start" x="1748.5182" y="-1312.9" font-family="Arial" font-size="14.00" fill="#666666">[varchar]</text>
<polygon fill="none" stroke="#000000" points="1699.5,-1271.5 1699.5,-1301.5 1996.5,-1301.5 1996.5,-1271.5 1699.5,-1271.5"/>
<text text-anchor="start" x="1706.5" y="-1282.9" font-family="Arial" font-size="14.00" fill="#000000">created_at </text>
<text text-anchor="start" x="1776.528" y="-1282.9" font-family="Arial" font-size="14.00" fill="#666666">[timestamp with time zone]</text>
<polygon fill="none" stroke="#000000" points="1699.5,-1241.5 1699.5,-1271.5 1996.5,-1271.5 1996.5,-1241.5 1699.5,-1241.5"/>
<text text-anchor="start" x="1706.5" y="-1252.9" font-family="Arial" font-size="14.00" fill="#000000">updated_at </text>
<text text-anchor="start" x="1780.4326" y="-1252.9" font-family="Arial" font-size="14.00" fill="#666666">[timestamp with time zone]</text>
</g>
<!-- public.recruitment_tags&#45;&gt;public.recruitments -->
<g id="edge8" class="edge">
<title>public.recruitment_tags:recruitment_id&#45;&gt;public.recruitments:id</title>
<path fill="none" stroke="#000000" d="M1689.1946,-1346.4464C1444.0924,-1343.8763 1393.3693,-1249.4371 1151.5,-1184 1086.5703,-1166.4335 1062.7953,-1181.5575 1004.5,-1148 954.5117,-1119.2244 972.179,-1054.5 914.5,-1054.5"/>
<polygon fill="#000000" stroke="#000000" points="1689.5001,-1346.4479 1699.4766,-1350.9999 1694.5001,-1346.4739 1699.5,-1346.5 1699.5,-1346.5 1699.5,-1346.5 1694.5001,-1346.4739 1699.5234,-1342.0001 1689.5001,-1346.4479 1689.5001,-1346.4479"/>
<text text-anchor="start" x="1298.0005" y="-1356.5" font-family="Arial" font-size="10.00" fill="#000000">FOREIGN KEY (recruitment_id) REFERENCES recruitments(id) ON DELETE CASCADE</text>
</g>
<!-- public.recruitment_tags&#45;&gt;public.tags -->
<g id="edge9" class="edge">
<title>public.recruitment_tags:tag_id&#45;&gt;public.tags:id</title>
<path fill="none" stroke="#000000" d="M2006.6711,-1316.2317C2099.4649,-1311.2012 2108.6618,-1236.107 2153.5,-1148 2181.5787,-1092.8254 2144.5916,-874.5 2206.5,-874.5"/>
<polygon fill="#000000" stroke="#000000" points="2006.4965,-1316.2362 1996.3813,-1312.0016 2001.4983,-1316.3681 1996.5,-1316.5 1996.5,-1316.5 1996.5,-1316.5 2001.4983,-1316.3681 1996.6187,-1320.9984 2006.4965,-1316.2362 2006.4965,-1316.2362"/>
<text text-anchor="start" x="2003.1035" y="-1326.5" font-family="Arial" font-size="10.00" fill="#000000">FOREIGN KEY (tag_id) REFERENCES tags(id) ON DELETE CASCADE</text>
</g>
<!-- public.rooms -->
<g id="node10" class="node">
<title>public.rooms</title>
<polygon fill="#efefef" stroke="transparent" points="1438.5,-282.5 1438.5,-317.5 1691.5,-317.5 1691.5,-282.5 1438.5,-282.5"/>
<polygon fill="none" stroke="#000000" points="1438.5,-282.5 1438.5,-317.5 1691.5,-317.5 1691.5,-282.5 1438.5,-282.5"/>
<text text-anchor="start" x="1465.3701" y="-295.3" font-family="Arial Bold" font-size="18.00" fill="#000000">public.rooms</text>
<text text-anchor="start" x="1567.3761" y="-295.3" font-family="Arial" font-size="14.00" fill="#000000"> </text>
<text text-anchor="start" x="1571.2667" y="-295.3" font-family="Arial" font-size="14.00" fill="#666666">[BASE TABLE]</text>
<polygon fill="none" stroke="#000000" points="1438.5,-252.5 1438.5,-282.5 1691.5,-282.5 1691.5,-252.5 1438.5,-252.5"/>
<text text-anchor="start" x="1445.5" y="-263.9" font-family="Arial" font-size="14.00" fill="#000000">id </text>
<text text-anchor="start" x="1460.2798" y="-263.9" font-family="Arial" font-size="14.00" fill="#666666">[varchar]</text>
<polygon fill="none" stroke="#000000" points="1438.5,-222.5 1438.5,-252.5 1691.5,-252.5 1691.5,-222.5 1438.5,-222.5"/>
<text text-anchor="start" x="1445.5" y="-233.9" font-family="Arial" font-size="14.00" fill="#000000">created_at </text>
<text text-anchor="start" x="1515.528" y="-233.9" font-family="Arial" font-size="14.00" fill="#666666">[timestamp with time zone]</text>
<polygon fill="none" stroke="#000000" points="1438.5,-192.5 1438.5,-222.5 1691.5,-222.5 1691.5,-192.5 1438.5,-192.5"/>
<text text-anchor="start" x="1445.1915" y="-203.9" font-family="Arial" font-size="14.00" fill="#000000">updated_at </text>
<text text-anchor="start" x="1519.1241" y="-203.9" font-family="Arial" font-size="14.00" fill="#666666">[timestamp with time zone]</text>
</g>
<!-- public.messages -->
<g id="node11" class="node">
<title>public.messages</title>
<polygon fill="#efefef" stroke="transparent" points="1057.5,-889.5 1057.5,-924.5 1302.5,-924.5 1302.5,-889.5 1057.5,-889.5"/>
<polygon fill="none" stroke="#000000" points="1057.5,-889.5 1057.5,-924.5 1302.5,-924.5 1302.5,-889.5 1057.5,-889.5"/>
<text text-anchor="start" x="1064.36" y="-902.3" font-family="Arial Bold" font-size="18.00" fill="#000000">public.messages</text>
<text text-anchor="start" x="1198.3862" y="-902.3" font-family="Arial" font-size="14.00" fill="#000000"> </text>
<text text-anchor="start" x="1202.2768" y="-902.3" font-family="Arial" font-size="14.00" fill="#666666">[BASE TABLE]</text>
<polygon fill="none" stroke="#000000" points="1057.5,-859.5 1057.5,-889.5 1302.5,-889.5 1302.5,-859.5 1057.5,-859.5"/>
<text text-anchor="start" x="1064.5" y="-870.9" font-family="Arial" font-size="14.00" fill="#000000">id </text>
<text text-anchor="start" x="1079.2798" y="-870.9" font-family="Arial" font-size="14.00" fill="#666666">[varchar]</text>
<polygon fill="none" stroke="#000000" points="1057.5,-829.5 1057.5,-859.5 1302.5,-859.5 1302.5,-829.5 1057.5,-829.5"/>
<text text-anchor="start" x="1064.5" y="-840.9" font-family="Arial" font-size="14.00" fill="#000000">content </text>
<text text-anchor="start" x="1114.3022" y="-840.9" font-family="Arial" font-size="14.00" fill="#666666">[varchar(1000)]</text>
<polygon fill="none" stroke="#000000" points="1057.5,-799.5 1057.5,-829.5 1302.5,-829.5 1302.5,-799.5 1057.5,-799.5"/>
<text text-anchor="start" x="1064.5" y="-810.9" font-family="Arial" font-size="14.00" fill="#000000">room_id </text>
<text text-anchor="start" x="1118.9488" y="-810.9" font-family="Arial" font-size="14.00" fill="#666666">[varchar]</text>
<polygon fill="none" stroke="#000000" points="1057.5,-769.5 1057.5,-799.5 1302.5,-799.5 1302.5,-769.5 1057.5,-769.5"/>
<text text-anchor="start" x="1064.5" y="-780.9" font-family="Arial" font-size="14.00" fill="#000000">user_id </text>
<text text-anchor="start" x="1114.2882" y="-780.9" font-family="Arial" font-size="14.00" fill="#666666">[varchar]</text>
</g>
<!-- public.messages&#45;&gt;public.users -->
<g id="edge10" class="edge">
<title>public.messages:user_id&#45;&gt;public.users:id</title>
<path fill="none" stroke="#000000" d="M1180.8642,-759.4939C1192.9515,-591.8987 1500.7522,-417.5 1333.5,-417.5"/>
<polygon fill="#000000" stroke="#000000" points="1180.8639,-759.5066 1176.003,-769.3363 1180.6819,-764.5033 1180.5,-769.5 1180.5,-769.5 1180.5,-769.5 1180.6819,-764.5033 1184.997,-769.6637 1180.8639,-759.5066 1180.8639,-759.5066"/>
<text text-anchor="start" x="1187.829" y="-753.5" font-family="Arial" font-size="10.00" fill="#000000">FOREIGN KEY (user_id) REFERENCES users(id) ON DELETE SET NULL</text>
</g>
<!-- public.messages&#45;&gt;public.rooms -->
<g id="edge11" class="edge">
<title>public.messages:room_id&#45;&gt;public.rooms:id</title>
<path fill="none" stroke="#000000" d="M1312.4838,-812.2398C1359.0468,-789.287 1329.6801,-598.191 1354.5,-547 1363.7118,-528.0008 1376.0768,-529.8953 1385.5,-511 1434.9291,-411.8855 1327.7439,-267.5 1438.5,-267.5"/>
<polygon fill="#000000" stroke="#000000" points="1312.2532,-812.292 1301.5064,-810.1111 1307.3766,-813.396 1302.5,-814.5 1302.5,-814.5 1302.5,-814.5 1307.3766,-813.396 1303.4936,-818.8889 1312.2532,-812.292 1312.2532,-812.292"/>
<text text-anchor="start" x="955.2245" y="-824.5" font-family="Arial" font-size="10.00" fill="#000000">FOREIGN KEY (room_id) REFERENCES rooms(id) ON DELETE CASCADE</text>
</g>
<!-- public.entries -->
<g id="node12" class="node">
<title>public.entries</title>
<polygon fill="#efefef" stroke="transparent" points="1406.5,-874.5 1406.5,-909.5 1623.5,-909.5 1623.5,-874.5 1406.5,-874.5"/>
<polygon fill="none" stroke="#000000" points="1406.5,-874.5 1406.5,-909.5 1623.5,-909.5 1623.5,-874.5 1406.5,-874.5"/>
<text text-anchor="start" x="1413.3649" y="-887.3" font-family="Arial Bold" font-size="18.00" fill="#000000">public.entries</text>
<text text-anchor="start" x="1519.3813" y="-887.3" font-family="Arial" font-size="14.00" fill="#000000"> </text>
<text text-anchor="start" x="1523.2719" y="-887.3" font-family="Arial" font-size="14.00" fill="#666666">[BASE TABLE]</text>
<polygon fill="none" stroke="#000000" points="1406.5,-844.5 1406.5,-874.5 1623.5,-874.5 1623.5,-844.5 1406.5,-844.5"/>
<text text-anchor="start" x="1413.5" y="-855.9" font-family="Arial" font-size="14.00" fill="#000000">id </text>
<text text-anchor="start" x="1428.2798" y="-855.9" font-family="Arial" font-size="14.00" fill="#666666">[varchar]</text>
<polygon fill="none" stroke="#000000" points="1406.5,-814.5 1406.5,-844.5 1623.5,-844.5 1623.5,-814.5 1406.5,-814.5"/>
<text text-anchor="start" x="1413.5" y="-825.9" font-family="Arial" font-size="14.00" fill="#000000">room_id </text>
<text text-anchor="start" x="1467.9488" y="-825.9" font-family="Arial" font-size="14.00" fill="#666666">[varchar]</text>
<polygon fill="none" stroke="#000000" points="1406.5,-784.5 1406.5,-814.5 1623.5,-814.5 1623.5,-784.5 1406.5,-784.5"/>
<text text-anchor="start" x="1413.5" y="-795.9" font-family="Arial" font-size="14.00" fill="#000000">user_id </text>
<text text-anchor="start" x="1463.2882" y="-795.9" font-family="Arial" font-size="14.00" fill="#666666">[varchar]</text>
</g>
<!-- public.entries&#45;&gt;public.users -->
<g id="edge12" class="edge">
<title>public.entries:user_id&#45;&gt;public.users:id</title>
<path fill="none" stroke="#000000" d="M1396.3615,-797.4447C1328.3119,-767.3772 1416.2114,-417.5 1333.5,-417.5"/>
<polygon fill="#000000" stroke="#000000" points="1396.6993,-797.5131 1405.6059,-803.9103 1401.5997,-798.5066 1406.5,-799.5 1406.5,-799.5 1406.5,-799.5 1401.5997,-798.5066 1407.3941,-795.0897 1396.6993,-797.5131 1396.6993,-797.5131"/>
<text text-anchor="start" x="1413.829" y="-809.5" font-family="Arial" font-size="10.00" fill="#000000">FOREIGN KEY (user_id) REFERENCES users(id) ON DELETE SET NULL</text>
</g>
<!-- public.entries&#45;&gt;public.rooms -->
<g id="edge13" class="edge">
<title>public.entries:room_id&#45;&gt;public.rooms:id</title>
<path fill="none" stroke="#000000" d="M1633.5931,-828.0812C1729.2309,-797.0527 1310.8706,-267.5 1438.5,-267.5"/>
<polygon fill="#000000" stroke="#000000" points="1633.4026,-828.1078 1622.8735,-825.0438 1628.4513,-828.8039 1623.5,-829.5 1623.5,-829.5 1623.5,-829.5 1628.4513,-828.8039 1624.1265,-833.9562 1633.4026,-828.1078 1633.4026,-828.1078"/>
<text text-anchor="start" x="1630.2245" y="-839.5" font-family="Arial" font-size="10.00" fill="#000000">FOREIGN KEY (room_id) REFERENCES rooms(id) ON DELETE CASCADE</text>
</g>
<!-- public.room_read_managements -->
<g id="node13" class="node">
<title>public.room_read_managements</title>
<polygon fill="#efefef" stroke="transparent" points="1727.5,-889.5 1727.5,-924.5 2101.5,-924.5 2101.5,-889.5 1727.5,-889.5"/>
<polygon fill="none" stroke="#000000" points="1727.5,-889.5 1727.5,-924.5 2101.5,-924.5 2101.5,-889.5 1727.5,-889.5"/>
<text text-anchor="start" x="1734.3435" y="-902.3" font-family="Arial Bold" font-size="18.00" fill="#000000">public.room_read_managements</text>
<text text-anchor="start" x="1997.4027" y="-902.3" font-family="Arial" font-size="14.00" fill="#000000"> </text>
<text text-anchor="start" x="2001.2933" y="-902.3" font-family="Arial" font-size="14.00" fill="#666666">[BASE TABLE]</text>
<polygon fill="none" stroke="#000000" points="1727.5,-859.5 1727.5,-889.5 2101.5,-889.5 2101.5,-859.5 1727.5,-859.5"/>
<text text-anchor="start" x="1734.5" y="-870.9" font-family="Arial" font-size="14.00" fill="#000000">id </text>
<text text-anchor="start" x="1749.2798" y="-870.9" font-family="Arial" font-size="14.00" fill="#666666">[varchar]</text>
<polygon fill="none" stroke="#000000" points="1727.5,-829.5 1727.5,-859.5 2101.5,-859.5 2101.5,-829.5 1727.5,-829.5"/>
<text text-anchor="start" x="1734.5" y="-840.9" font-family="Arial" font-size="14.00" fill="#000000">last_read_at </text>
<text text-anchor="start" x="1815.4172" y="-840.9" font-family="Arial" font-size="14.00" fill="#666666">[timestamp with time zone]</text>
<polygon fill="none" stroke="#000000" points="1727.5,-799.5 1727.5,-829.5 2101.5,-829.5 2101.5,-799.5 1727.5,-799.5"/>
<text text-anchor="start" x="1734.5" y="-810.9" font-family="Arial" font-size="14.00" fill="#000000">room_id </text>
<text text-anchor="start" x="1788.9488" y="-810.9" font-family="Arial" font-size="14.00" fill="#666666">[varchar]</text>
<polygon fill="none" stroke="#000000" points="1727.5,-769.5 1727.5,-799.5 2101.5,-799.5 2101.5,-769.5 1727.5,-769.5"/>
<text text-anchor="start" x="1734.5" y="-780.9" font-family="Arial" font-size="14.00" fill="#000000">user_id </text>
<text text-anchor="start" x="1784.2882" y="-780.9" font-family="Arial" font-size="14.00" fill="#666666">[varchar]</text>
</g>
<!-- public.room_read_managements&#45;&gt;public.users -->
<g id="edge14" class="edge">
<title>public.room_read_managements:user_id&#45;&gt;public.users:id</title>
<path fill="none" stroke="#000000" d="M1717.2566,-783.9331C1628.4808,-773.3504 1752.5974,-617.3389 1675.5,-547 1579.8789,-459.7613 1494.0891,-582.9622 1386.5,-511 1346.7954,-484.4431 1381.2674,-417.5 1333.5,-417.5"/>
<polygon fill="#000000" stroke="#000000" points="1717.5153,-783.9473 1727.2513,-788.9931 1722.5076,-784.2237 1727.5,-784.5 1727.5,-784.5 1727.5,-784.5 1722.5076,-784.2237 1727.7487,-780.0069 1717.5153,-783.9473 1717.5153,-783.9473"/>
<text text-anchor="start" x="1734.829" y="-768.5" font-family="Arial" font-size="10.00" fill="#000000">FOREIGN KEY (user_id) REFERENCES users(id) ON DELETE SET NULL</text>
</g>
<!-- public.room_read_managements&#45;&gt;public.rooms -->
<g id="edge15" class="edge">
<title>public.room_read_managements:room_id&#45;&gt;public.rooms:id</title>
<path fill="none" stroke="#000000" d="M1717.3239,-813.0264C1617.9513,-781.8822 1809.6307,-267.5 1691.5,-267.5"/>
<polygon fill="#000000" stroke="#000000" points="1717.6032,-813.0668 1726.855,-818.9535 1722.5516,-813.7834 1727.5,-814.5 1727.5,-814.5 1727.5,-814.5 1722.5516,-813.7834 1728.145,-810.0465 1717.6032,-813.0668 1717.6032,-813.0668"/>
<text text-anchor="start" x="1734.2245" y="-824.5" font-family="Arial" font-size="10.00" fill="#000000">FOREIGN KEY (room_id) REFERENCES rooms(id) ON DELETE CASCADE</text>
</g>
</g>
</svg>
